<svg width="3650" height="5" viewBox="0 0 3650 5" fill="none" xmlns="http://www.w3.org/2000/svg">
<path d="M3220 -1.0154e-05H3225V1.66666H3220V-1.0154e-05Z" fill="#FF3D00"/>
<path d="M3225 1.39303e-08H3230V1.25H3225V1.39303e-08Z" fill="#FF3D00"/>
<path d="M3230 1.39303e-08H3235V1.25H3230V1.39303e-08Z" fill="#FF3D00"/>
<path d="M3235 1.39303e-08H3240V1.25H3235V1.39303e-08Z" fill="#FF3D00"/>
<path d="M3240 1.39303e-08H3245V1.25H3240V1.39303e-08Z" fill="#FF3D00"/>
<path d="M3245 1.39303e-08H3250V1.25H3245V1.39303e-08Z" fill="#FF3D00"/>
<path d="M3250 1.39303e-08H3255V1.25H3250V1.39303e-08Z" fill="#FF3D00"/>
<path d="M3255 -1.39645e-07H3260V1H3255V-1.39645e-07Z" fill="#FF3D00"/>
<path d="M3260 1.39303e-08H3265V1.25H3260V1.39303e-08Z" fill="#FF3D00"/>
<path d="M3265 1.39303e-08H3270V1.25H3265V1.39303e-08Z" fill="#FF3D00"/>
<path d="M3270 1.39303e-08H3275V1.25H3270V1.39303e-08Z" fill="#FF3D00"/>
<path d="M3275 1.39303e-08H3280V1.25H3275V1.39303e-08Z" fill="#FF3D00"/>
<path d="M3280 -1.39645e-07H3285V1H3280V-1.39645e-07Z" fill="#FF3D00"/>
<path d="M3285 -1.0154e-05H3290V1.66666H3285V-1.0154e-05Z" fill="#FF3D00"/>
<path d="M3290 1.01818e-05H3295V0.833344H3290V1.01818e-05Z" fill="#FF3D00"/>
<path d="M3295 -1.0154e-05H3300V1.66666H3295V-1.0154e-05Z" fill="#FF3D00"/>
<path d="M3300 -1.0154e-05H3305V1.66666H3300V-1.0154e-05Z" fill="#FF3D00"/>
<path d="M3305 1.39303e-08H3310V1.25H3305V1.39303e-08Z" fill="#FF3D00"/>
<path d="M3310 -1.0154e-05H3315V1.66666H3310V-1.0154e-05Z" fill="#FF3D00"/>
<path d="M3315 -1.0154e-05H3320V1.66666H3315V-1.0154e-05Z" fill="#FF3D00"/>
<path d="M3320 -1.0154e-05H3325V1.66666H3320V-1.0154e-05Z" fill="#FF3D00"/>
<path d="M3325 -1.0154e-05H3330V1.66666H3325V-1.0154e-05Z" fill="#FF3D00"/>
<path d="M3330 -1.0154e-05H3335V1.66666H3330V-1.0154e-05Z" fill="#FF3D00"/>
<path d="M3335 1.39303e-08H3340V1.25H3335V1.39303e-08Z" fill="#FF3D00"/>
<path d="M3340 -1.0154e-05H3345V1.66666H3340V-1.0154e-05Z" fill="#FF3D00"/>
<path d="M3345 1.39303e-08H3350V1.25H3345V1.39303e-08Z" fill="#FF3D00"/>
<path d="M3350 -1.0154e-05H3355V1.66666H3350V-1.0154e-05Z" fill="#FF3D00"/>
<path d="M3355 2.78606e-08H3360V2.5H3355V2.78606e-08Z" fill="#FF3D00"/>
<path d="M3365 5.57212e-08H3370V5H3365V5.57212e-08Z" fill="#FF3D00"/>
<path d="M3370 1.39303e-08H3375V1.25H3370V1.39303e-08Z" fill="#FF3D00"/>
<path d="M3380 -1.0154e-05H3385V1.66666H3380V-1.0154e-05Z" fill="#FF3D00"/>
<path d="M3395 -1.0154e-05H3400V1.66666H3395V-1.0154e-05Z" fill="#FF3D00"/>
<path d="M3405 -1.0154e-05H3410V1.66666H3405V-1.0154e-05Z" fill="#FF3D00"/>
<path d="M3425 2.78606e-08H3430V2.5H3425V2.78606e-08Z" fill="#FF3D00"/>
<path d="M3440 -1.0154e-05H3445V1.66666H3440V-1.0154e-05Z" fill="#FF3D00"/>
<path d="M3445 2.78606e-08H3450V2.5H3445V2.78606e-08Z" fill="#FF3D00"/>
<path d="M3450 -1.0154e-05H3455V1.66666H3450V-1.0154e-05Z" fill="#FF3D00"/>
<path d="M3460 -1.0154e-05H3465V1.66666H3460V-1.0154e-05Z" fill="#FF3D00"/>
<path d="M3470 2.78606e-08H3475V2.5H3470V2.78606e-08Z" fill="#FF3D00"/>
<path d="M3475 2.78606e-08H3480V2.5H3475V2.78606e-08Z" fill="#FF3D00"/>
<path d="M3480 2.78606e-08H3485V2.5H3480V2.78606e-08Z" fill="#FF3D00"/>
<path d="M3485 2.78606e-08H3490V2.5H3485V2.78606e-08Z" fill="#FF3D00"/>
<path d="M3490 2.78606e-08H3495V2.5H3490V2.78606e-08Z" fill="#FF3D00"/>
<path d="M3505 2.78606e-08H3510V2.5H3505V2.78606e-08Z" fill="#FF3D00"/>
<path d="M3515 2.78606e-08H3520V2.5H3515V2.78606e-08Z" fill="#FF3D00"/>
<path d="M3550 2.78606e-08H3555V2.5H3550V2.78606e-08Z" fill="#FF3D00"/>
<path d="M3575 2.78606e-08H3580V2.5H3575V2.78606e-08Z" fill="#FF3D00"/>
<path d="M3580 2.78606e-08H3585V2.5H3580V2.78606e-08Z" fill="#FF3D00"/>
<path d="M3220 1.66668H3225V3.33334H3220V1.66668Z" fill="#4ADADA"/>
<path d="M3225 1.25H3230V2.5H3225V1.25Z" fill="#4ADADA"/>
<path d="M3230 1.25H3235V2.5H3230V1.25Z" fill="#4ADADA"/>
<path d="M3235 1.25H3240V2.5H3235V1.25Z" fill="#4ADADA"/>
<path d="M3240 1.25H3245V2.5H3240V1.25Z" fill="#4ADADA"/>
<path d="M3245 1.25H3250V2.5H3245V1.25Z" fill="#4ADADA"/>
<path d="M3250 1.25H3255V2.5H3250V1.25Z" fill="#4ADADA"/>
<path d="M3255 1H3260V2H3255V1Z" fill="#4ADADA"/>
<path d="M3260 1.25H3265V2.5H3260V1.25Z" fill="#4ADADA"/>
<path d="M3265 1.25H3270V2.5H3265V1.25Z" fill="#4ADADA"/>
<path d="M3270 1.25H3275V2.5H3270V1.25Z" fill="#4ADADA"/>
<path d="M3275 1.25H3280V2.5H3275V1.25Z" fill="#4ADADA"/>
<path d="M3280 1H3285V2H3280V1Z" fill="#4ADADA"/>
<path d="M3285 1.66668H3290V3.33334H3285V1.66668Z" fill="#4ADADA"/>
<path d="M3290 0.833323H3295V1.66666H3290V0.833323Z" fill="#4ADADA"/>
<path d="M3295 1.66668H3300V3.33334H3295V1.66668Z" fill="#4ADADA"/>
<path d="M3300 1.66668H3305V3.33334H3300V1.66668Z" fill="#4ADADA"/>
<path d="M3305 1.25H3310V2.5H3305V1.25Z" fill="#4ADADA"/>
<path d="M3310 1.66668H3315V3.33334H3310V1.66668Z" fill="#4ADADA"/>
<path d="M3315 1.66668H3320V3.33334H3315V1.66668Z" fill="#4ADADA"/>
<path d="M3320 1.66668H3325V3.33334H3320V1.66668Z" fill="#4ADADA"/>
<path d="M3330 1.66668H3335V3.33334H3330V1.66668Z" fill="#4ADADA"/>
<path d="M3335 1.25H3340V2.5H3335V1.25Z" fill="#4ADADA"/>
<path d="M3340 1.66668H3345V3.33334H3340V1.66668Z" fill="#4ADADA"/>
<path d="M3345 1.25H3350V2.5H3345V1.25Z" fill="#4ADADA"/>
<path d="M3350 1.66668H3355V3.33334H3350V1.66668Z" fill="#4ADADA"/>
<path d="M3360 2.78606e-08H3365V2.5H3360V2.78606e-08Z" fill="#4ADADA"/>
<path d="M3370 1.25H3375V2.5H3370V1.25Z" fill="#4ADADA"/>
<path d="M3375 -1.0154e-05H3380V1.66666H3375V-1.0154e-05Z" fill="#4ADADA"/>
<path d="M3380 1.66668H3385V3.33334H3380V1.66668Z" fill="#4ADADA"/>
<path d="M3385 -1.0154e-05H3390V1.66666H3385V-1.0154e-05Z" fill="#4ADADA"/>
<path d="M3395 1.66668H3400V3.33334H3395V1.66668Z" fill="#4ADADA"/>
<path d="M3405 1.66668H3410V3.33334H3405V1.66668Z" fill="#4ADADA"/>
<path d="M3410 2.78606e-08H3415V2.5H3410V2.78606e-08Z" fill="#4ADADA"/>
<path d="M3420 2.78606e-08H3425V2.5H3420V2.78606e-08Z" fill="#4ADADA"/>
<path d="M3440 1.66668H3445V3.33334H3440V1.66668Z" fill="#4ADADA"/>
<path d="M3450 1.66668H3455V3.33334H3450V1.66668Z" fill="#4ADADA"/>
<path d="M3455 2.78606e-08H3460V2.5H3455V2.78606e-08Z" fill="#4ADADA"/>
<path d="M3460 1.66668H3465V3.33334H3460V1.66668Z" fill="#4ADADA"/>
<path d="M3465 2.78606e-08H3470V2.5H3465V2.78606e-08Z" fill="#4ADADA"/>
<path d="M3225 2.5H3230V3.75H3225V2.5Z" fill="#FF984D"/>
<path d="M3230 2.5H3235V3.75H3230V2.5Z" fill="#FF984D"/>
<path d="M3235 2.5H3240V3.75H3235V2.5Z" fill="#FF984D"/>
<path d="M3240 2.5H3245V3.75H3240V2.5Z" fill="#FF984D"/>
<path d="M3245 2.5H3250V3.75H3245V2.5Z" fill="#FF984D"/>
<path d="M3250 2.5H3255V3.75H3250V2.5Z" fill="#FF984D"/>
<path d="M3255 2H3260V3H3255V2Z" fill="#FF984D"/>
<path d="M3260 2.5H3265V3.75H3260V2.5Z" fill="#FF984D"/>
<path d="M3265 2.5H3270V3.75H3265V2.5Z" fill="#FF984D"/>
<path d="M3270 2.5H3275V3.75H3270V2.5Z" fill="#FF984D"/>
<path d="M3280 2H3285V3H3280V2Z" fill="#FF984D"/>
<path d="M3290 1.66667H3295V2.5H3290V1.66667Z" fill="#FF984D"/>
<path d="M3305 2.5H3310V3.75H3305V2.5Z" fill="#FF984D"/>
<path d="M3325 1.66668H3330V3.33334H3325V1.66668Z" fill="#FF984D"/>
<path d="M3335 2.5H3340V3.75H3335V2.5Z" fill="#FF984D"/>
<path d="M3345 2.5H3350V3.75H3345V2.5Z" fill="#FF984D"/>
<path d="M3370 2.5H3375V3.75H3370V2.5Z" fill="#FF984D"/>
<path d="M3375 1.66668H3380V3.33334H3375V1.66668Z" fill="#FF984D"/>
<path d="M3385 1.66668H3390V3.33334H3385V1.66668Z" fill="#FF984D"/>
<path d="M3390 2.78606e-08H3395V2.5H3390V2.78606e-08Z" fill="#FF984D"/>
<path d="M3555 2.78606e-08H3560V2.5H3555V2.78606e-08Z" fill="#FF984D"/>
<path d="M3615 2.78606e-08H3620V2.5H3615V2.78606e-08Z" fill="#FF984D"/>
<path d="M520 5.57212e-08H525V5H520V5.57212e-08Z" fill="#BD4553"/>
<path d="M525 5.57212e-08H530V5H525V5.57212e-08Z" fill="#BD4553"/>
<path d="M555 5.57212e-08H560V5H555V5.57212e-08Z" fill="#BD4553"/>
<path d="M625 5.57212e-08H630V5H625V5.57212e-08Z" fill="#BD4553"/>
<path d="M865 5.57212e-08H870V5H865V5.57212e-08Z" fill="#BD4553"/>
<path d="M980 5.57212e-08H985V5H980V5.57212e-08Z" fill="#BD4553"/>
<path d="M1085 5.57212e-08H1090V5H1085V5.57212e-08Z" fill="#BD4553"/>
<path d="M1090 5.57212e-08H1095V5H1090V5.57212e-08Z" fill="#BD4553"/>
<path d="M1095 5.57212e-08H1100V5H1095V5.57212e-08Z" fill="#BD4553"/>
<path d="M1100 5.57212e-08H1105V5H1100V5.57212e-08Z" fill="#BD4553"/>
<path d="M1115 5.57212e-08H1120V5H1115V5.57212e-08Z" fill="#BD4553"/>
<path d="M1125 5.57212e-08H1130V5H1125V5.57212e-08Z" fill="#BD4553"/>
<path d="M1235 5.57212e-08H1240V5H1235V5.57212e-08Z" fill="#BD4553"/>
<path d="M1595 5.57212e-08H1600V5H1595V5.57212e-08Z" fill="#BD4553"/>
<path d="M1730 5.57212e-08H1735V5H1730V5.57212e-08Z" fill="#BD4553"/>
<path d="M1955 5.57212e-08H1960V5H1955V5.57212e-08Z" fill="#BD4553"/>
<path d="M1960 5.57212e-08H1965V5H1960V5.57212e-08Z" fill="#BD4553"/>
<path d="M1980 5.57212e-08H1985V5H1980V5.57212e-08Z" fill="#BD4553"/>
<path d="M1990 5.57212e-08H1995V5H1990V5.57212e-08Z" fill="#BD4553"/>
<path d="M2080 5.57212e-08H2085V5H2080V5.57212e-08Z" fill="#BD4553"/>
<path d="M2090 5.57212e-08H2095V5H2090V5.57212e-08Z" fill="#BD4553"/>
<path d="M2110 5.57212e-08H2115V5H2110V5.57212e-08Z" fill="#BD4553"/>
<path d="M2115 5.57212e-08H2120V5H2115V5.57212e-08Z" fill="#BD4553"/>
<path d="M2300 5.57212e-08H2305V5H2300V5.57212e-08Z" fill="#BD4553"/>
<path d="M2305 5.57212e-08H2310V5H2305V5.57212e-08Z" fill="#BD4553"/>
<path d="M2310 5.57212e-08H2315V5H2310V5.57212e-08Z" fill="#BD4553"/>
<path d="M2430 5.57212e-08H2435V5H2430V5.57212e-08Z" fill="#BD4553"/>
<path d="M2470 5.57212e-08H2475V5H2470V5.57212e-08Z" fill="#BD4553"/>
<path d="M2475 5.57212e-08H2480V5H2475V5.57212e-08Z" fill="#BD4553"/>
<path d="M2515 5.57212e-08H2520V5H2515V5.57212e-08Z" fill="#BD4553"/>
<path d="M2610 5.57212e-08H2615V5H2610V5.57212e-08Z" fill="#BD4553"/>
<path d="M2640 5.57212e-08H2645V5H2640V5.57212e-08Z" fill="#BD4553"/>
<path d="M2650 5.57212e-08H2655V5H2650V5.57212e-08Z" fill="#BD4553"/>
<path d="M2745 5.57212e-08H2750V5H2745V5.57212e-08Z" fill="#BD4553"/>
<path d="M2750 5.57212e-08H2755V5H2750V5.57212e-08Z" fill="#BD4553"/>
<path d="M2755 5.57212e-08H2760V5H2755V5.57212e-08Z" fill="#BD4553"/>
<path d="M2760 5.57212e-08H2765V5H2760V5.57212e-08Z" fill="#BD4553"/>
<path d="M2810 5.57212e-08H2815V5H2810V5.57212e-08Z" fill="#BD4553"/>
<path d="M3075 5.57212e-08H3080V5H3075V5.57212e-08Z" fill="#BD4553"/>
<path d="M3145 5.57212e-08H3150V5H3145V5.57212e-08Z" fill="#BD4553"/>
<path d="M3220 3.33333H3225V5H3220V3.33333Z" fill="#BD4553"/>
<path d="M3225 3.75H3230V5H3225V3.75Z" fill="#BD4553"/>
<path d="M3230 3.75H3235V5H3230V3.75Z" fill="#BD4553"/>
<path d="M3235 3.75H3240V5H3235V3.75Z" fill="#BD4553"/>
<path d="M3240 3.75H3245V5H3240V3.75Z" fill="#BD4553"/>
<path d="M3245 3.75H3250V5H3245V3.75Z" fill="#BD4553"/>
<path d="M3250 3.75H3255V5H3250V3.75Z" fill="#BD4553"/>
<path d="M3255 3H3260V4H3255V3Z" fill="#BD4553"/>
<path d="M3260 3.75H3265V5H3260V3.75Z" fill="#BD4553"/>
<path d="M3265 3.75H3270V5H3265V3.75Z" fill="#BD4553"/>
<path d="M3270 3.75H3275V5H3270V3.75Z" fill="#BD4553"/>
<path d="M3275 2.5H3280V3.75H3275V2.5Z" fill="#BD4553"/>
<path d="M3280 3H3285V4H3280V3Z" fill="#BD4553"/>
<path d="M3285 3.33333H3290V5H3285V3.33333Z" fill="#BD4553"/>
<path d="M3290 2.50001H3295V3.33334H3290V2.50001Z" fill="#BD4553"/>
<path d="M3295 3.33333H3300V5H3295V3.33333Z" fill="#BD4553"/>
<path d="M3300 3.33333H3305V5H3300V3.33333Z" fill="#BD4553"/>
<path d="M3305 3.75H3310V5H3305V3.75Z" fill="#BD4553"/>
<path d="M3310 3.33333H3315V5H3310V3.33333Z" fill="#BD4553"/>
<path d="M3315 3.33333H3320V5H3315V3.33333Z" fill="#BD4553"/>
<path d="M3320 3.33333H3325V5H3320V3.33333Z" fill="#BD4553"/>
<path d="M3325 3.33333H3330V5H3325V3.33333Z" fill="#BD4553"/>
<path d="M3330 3.33333H3335V5H3330V3.33333Z" fill="#BD4553"/>
<path d="M3335 3.75H3340V5H3335V3.75Z" fill="#BD4553"/>
<path d="M3340 3.33333H3345V5H3340V3.33333Z" fill="#BD4553"/>
<path d="M3345 3.75H3350V5H3345V3.75Z" fill="#BD4553"/>
<path d="M3350 3.33333H3355V5H3350V3.33333Z" fill="#BD4553"/>
<path d="M3355 2.5H3360V5H3355V2.5Z" fill="#BD4553"/>
<path d="M3360 2.5H3365V5H3360V2.5Z" fill="#BD4553"/>
<path d="M3370 3.75H3375V5H3370V3.75Z" fill="#BD4553"/>
<path d="M3375 3.33333H3380V5H3375V3.33333Z" fill="#BD4553"/>
<path d="M3380 3.33333H3385V5H3380V3.33333Z" fill="#BD4553"/>
<path d="M3385 3.33333H3390V5H3385V3.33333Z" fill="#BD4553"/>
<path d="M3390 2.5H3395V5H3390V2.5Z" fill="#BD4553"/>
<path d="M3395 3.33333H3400V5H3395V3.33333Z" fill="#BD4553"/>
<path d="M3400 5.57212e-08H3405V5H3400V5.57212e-08Z" fill="#BD4553"/>
<path d="M3405 3.33333H3410V5H3405V3.33333Z" fill="#BD4553"/>
<path d="M3410 2.5H3415V5H3410V2.5Z" fill="#BD4553"/>
<path d="M3415 5.57212e-08H3420V5H3415V5.57212e-08Z" fill="#BD4553"/>
<path d="M3420 2.5H3425V5H3420V2.5Z" fill="#BD4553"/>
<path d="M3425 2.5H3430V5H3425V2.5Z" fill="#BD4553"/>
<path d="M3430 5.57212e-08H3435V5H3430V5.57212e-08Z" fill="#BD4553"/>
<path d="M3435 5.57212e-08H3440V5H3435V5.57212e-08Z" fill="#BD4553"/>
<path d="M3440 3.33333H3445V5H3440V3.33333Z" fill="#BD4553"/>
<path d="M3445 2.5H3450V5H3445V2.5Z" fill="#BD4553"/>
<path d="M3450 3.33333H3455V5H3450V3.33333Z" fill="#BD4553"/>
<path d="M3455 2.5H3460V5H3455V2.5Z" fill="#BD4553"/>
<path d="M3460 3.33333H3465V5H3460V3.33333Z" fill="#BD4553"/>
<path d="M3465 2.5H3470V5H3465V2.5Z" fill="#BD4553"/>
<path d="M3470 2.5H3475V5H3470V2.5Z" fill="#BD4553"/>
<path d="M3475 2.5H3480V5H3475V2.5Z" fill="#BD4553"/>
<path d="M3480 2.5H3485V5H3480V2.5Z" fill="#BD4553"/>
<path d="M3485 2.5H3490V5H3485V2.5Z" fill="#BD4553"/>
<path d="M3490 2.5H3495V5H3490V2.5Z" fill="#BD4553"/>
<path d="M3495 5.57212e-08H3500V5H3495V5.57212e-08Z" fill="#BD4553"/>
<path d="M3500 5.57212e-08H3505V5H3500V5.57212e-08Z" fill="#BD4553"/>
<path d="M3505 2.5H3510V5H3505V2.5Z" fill="#BD4553"/>
<path d="M3510 5.57212e-08H3515V5H3510V5.57212e-08Z" fill="#BD4553"/>
<path d="M3515 2.5H3520V5H3515V2.5Z" fill="#BD4553"/>
<path d="M3520 5.57212e-08H3525V5H3520V5.57212e-08Z" fill="#BD4553"/>
<path d="M3525 5.57212e-08H3530V5H3525V5.57212e-08Z" fill="#BD4553"/>
<path d="M3530 5.57212e-08H3535V5H3530V5.57212e-08Z" fill="#BD4553"/>
<path d="M3535 5.57212e-08H3540V5H3535V5.57212e-08Z" fill="#BD4553"/>
<path d="M3540 5.57212e-08H3545V5H3540V5.57212e-08Z" fill="#BD4553"/>
<path d="M3545 5.57212e-08H3550V5H3545V5.57212e-08Z" fill="#BD4553"/>
<path d="M3550 2.5H3555V5H3550V2.5Z" fill="#BD4553"/>
<path d="M3555 2.5H3560V5H3555V2.5Z" fill="#BD4553"/>
<path d="M3560 5.57212e-08H3565V5H3560V5.57212e-08Z" fill="#BD4553"/>
<path d="M3570 5.57212e-08H3575V5H3570V5.57212e-08Z" fill="#BD4553"/>
<path d="M3575 2.5H3580V5H3575V2.5Z" fill="#BD4553"/>
<path d="M3580 2.5H3585V5H3580V2.5Z" fill="#BD4553"/>
<path d="M3590 5.57212e-08H3595V5H3590V5.57212e-08Z" fill="#BD4553"/>
<path d="M3595 5.57212e-08H3600V5H3595V5.57212e-08Z" fill="#BD4553"/>
<path d="M3600 5.57212e-08H3605V5H3600V5.57212e-08Z" fill="#BD4553"/>
<path d="M3605 5.57212e-08H3610V5H3605V5.57212e-08Z" fill="#BD4553"/>
<path d="M3610 5.57212e-08H3615V5H3610V5.57212e-08Z" fill="#BD4553"/>
<path d="M3615 2.5H3620V5H3615V2.5Z" fill="#BD4553"/>
<path d="M3620 5.57212e-08H3625V5H3620V5.57212e-08Z" fill="#BD4553"/>
<path d="M3625 5.57212e-08H3630V5H3625V5.57212e-08Z" fill="#BD4553"/>
<path d="M3630 5.57212e-08H3635V5H3630V5.57212e-08Z" fill="#BD4553"/>
<path d="M3635 5.57212e-08H3640V5H3635V5.57212e-08Z" fill="#BD4553"/>
<path d="M3640 5.57212e-08H3645V5H3640V5.57212e-08Z" fill="#BD4553"/>
<path d="M3645 5.57212e-08H3650V5H3645V5.57212e-08Z" fill="#BD4553"/>
<path d="M3290 3.33332H3295V4.16666H3290V3.33332Z" fill="#8C6345"/>
<path d="M3275 3.75H3280V5H3275V3.75Z" fill="#AA92E3"/>
<path d="M3280 4H3285V5H3280V4Z" fill="#AA92E3"/>
<path d="M3290 4.16667H3295V5H3290V4.16667Z" fill="#AA92E3"/>
<path d="M3255 4H3260V5H3255V4Z" fill="#257DCC"/>
<path d="M530 5.57212e-08H535V5H530V5.57212e-08Z" fill="#E3DFCF"/>
<path d="M535 5.57212e-08H540V5H535V5.57212e-08Z" fill="#E3DFCF"/>
<path d="M540 5.57212e-08H545V5H540V5.57212e-08Z" fill="#E3DFCF"/>
<path d="M545 5.57212e-08H550V5H545V5.57212e-08Z" fill="#E3DFCF"/>
<path d="M550 5.57212e-08H555V5H550V5.57212e-08Z" fill="#E3DFCF"/>
<path d="M560 5.57212e-08H565V5H560V5.57212e-08Z" fill="#E3DFCF"/>
<path d="M565 5.57212e-08H570V5H565V5.57212e-08Z" fill="#E3DFCF"/>
<path d="M570 5.57212e-08H575V5H570V5.57212e-08Z" fill="#E3DFCF"/>
<path d="M575 5.57212e-08H580V5H575V5.57212e-08Z" fill="#E3DFCF"/>
<path d="M580 5.57212e-08H585V5H580V5.57212e-08Z" fill="#E3DFCF"/>
<path d="M585 5.57212e-08H590V5H585V5.57212e-08Z" fill="#E3DFCF"/>
<path d="M590 5.57212e-08H595V5H590V5.57212e-08Z" fill="#E3DFCF"/>
<path d="M595 5.57212e-08H600V5H595V5.57212e-08Z" fill="#E3DFCF"/>
<path d="M600 5.57212e-08H605V5H600V5.57212e-08Z" fill="#E3DFCF"/>
<path d="M605 5.57212e-08H610V5H605V5.57212e-08Z" fill="#E3DFCF"/>
<path d="M610 5.57212e-08H615V5H610V5.57212e-08Z" fill="#E3DFCF"/>
<path d="M615 5.57212e-08H620V5H615V5.57212e-08Z" fill="#E3DFCF"/>
<path d="M620 5.57212e-08H625V5H620V5.57212e-08Z" fill="#E3DFCF"/>
<path d="M630 5.57212e-08H635V5H630V5.57212e-08Z" fill="#E3DFCF"/>
<path d="M635 5.57212e-08H640V5H635V5.57212e-08Z" fill="#E3DFCF"/>
<path d="M640 5.57212e-08H645V5H640V5.57212e-08Z" fill="#E3DFCF"/>
<path d="M645 5.57212e-08H650V5H645V5.57212e-08Z" fill="#E3DFCF"/>
<path d="M650 5.57212e-08H655V5H650V5.57212e-08Z" fill="#E3DFCF"/>
<path d="M655 5.57212e-08H660V5H655V5.57212e-08Z" fill="#E3DFCF"/>
<path d="M660 5.57212e-08H665V5H660V5.57212e-08Z" fill="#E3DFCF"/>
<path d="M665 5.57212e-08H670V5H665V5.57212e-08Z" fill="#E3DFCF"/>
<path d="M670 5.57212e-08H675V5H670V5.57212e-08Z" fill="#E3DFCF"/>
<path d="M675 5.57212e-08H680V5H675V5.57212e-08Z" fill="#E3DFCF"/>
<path d="M680 5.57212e-08H685V5H680V5.57212e-08Z" fill="#E3DFCF"/>
<path d="M685 5.57212e-08H690V5H685V5.57212e-08Z" fill="#E3DFCF"/>
<path d="M690 5.57212e-08H695V5H690V5.57212e-08Z" fill="#E3DFCF"/>
<path d="M695 5.57212e-08H700V5H695V5.57212e-08Z" fill="#E3DFCF"/>
<path d="M700 5.57212e-08H705V5H700V5.57212e-08Z" fill="#E3DFCF"/>
<path d="M705 5.57212e-08H710V5H705V5.57212e-08Z" fill="#E3DFCF"/>
<path d="M710 5.57212e-08H715V5H710V5.57212e-08Z" fill="#E3DFCF"/>
<path d="M715 5.57212e-08H720V5H715V5.57212e-08Z" fill="#E3DFCF"/>
<path d="M720 5.57212e-08H725V5H720V5.57212e-08Z" fill="#E3DFCF"/>
<path d="M725 5.57212e-08H730V5H725V5.57212e-08Z" fill="#E3DFCF"/>
<path d="M730 5.57212e-08H735V5H730V5.57212e-08Z" fill="#E3DFCF"/>
<path d="M735 5.57212e-08H740V5H735V5.57212e-08Z" fill="#E3DFCF"/>
<path d="M740 5.57212e-08H745V5H740V5.57212e-08Z" fill="#E3DFCF"/>
<path d="M745 5.57212e-08H750V5H745V5.57212e-08Z" fill="#E3DFCF"/>
<path d="M750 5.57212e-08H755V5H750V5.57212e-08Z" fill="#E3DFCF"/>
<path d="M755 5.57212e-08H760V5H755V5.57212e-08Z" fill="#E3DFCF"/>
<path d="M760 5.57212e-08H765V5H760V5.57212e-08Z" fill="#E3DFCF"/>
<path d="M765 5.57212e-08H770V5H765V5.57212e-08Z" fill="#E3DFCF"/>
<path d="M770 5.57212e-08H775V5H770V5.57212e-08Z" fill="#E3DFCF"/>
<path d="M775 5.57212e-08H780V5H775V5.57212e-08Z" fill="#E3DFCF"/>
<path d="M780 5.57212e-08H785V5H780V5.57212e-08Z" fill="#E3DFCF"/>
<path d="M785 5.57212e-08H790V5H785V5.57212e-08Z" fill="#E3DFCF"/>
<path d="M790 5.57212e-08H795V5H790V5.57212e-08Z" fill="#E3DFCF"/>
<path d="M795 5.57212e-08H800V5H795V5.57212e-08Z" fill="#E3DFCF"/>
<path d="M800 5.57212e-08H805V5H800V5.57212e-08Z" fill="#E3DFCF"/>
<path d="M805 5.57212e-08H810V5H805V5.57212e-08Z" fill="#E3DFCF"/>
<path d="M810 5.57212e-08H815V5H810V5.57212e-08Z" fill="#E3DFCF"/>
<path d="M815 5.57212e-08H820V5H815V5.57212e-08Z" fill="#E3DFCF"/>
<path d="M820 5.57212e-08H825V5H820V5.57212e-08Z" fill="#E3DFCF"/>
<path d="M825 5.57212e-08H830V5H825V5.57212e-08Z" fill="#E3DFCF"/>
<path d="M830 5.57212e-08H835V5H830V5.57212e-08Z" fill="#E3DFCF"/>
<path d="M835 5.57212e-08H840V5H835V5.57212e-08Z" fill="#E3DFCF"/>
<path d="M840 5.57212e-08H845V5H840V5.57212e-08Z" fill="#E3DFCF"/>
<path d="M845 5.57212e-08H850V5H845V5.57212e-08Z" fill="#E3DFCF"/>
<path d="M850 5.57212e-08H855V5H850V5.57212e-08Z" fill="#E3DFCF"/>
<path d="M855 5.57212e-08H860V5H855V5.57212e-08Z" fill="#E3DFCF"/>
<path d="M860 5.57212e-08H865V5H860V5.57212e-08Z" fill="#E3DFCF"/>
<path d="M870 5.57212e-08H875V5H870V5.57212e-08Z" fill="#E3DFCF"/>
<path d="M875 5.57212e-08H880V5H875V5.57212e-08Z" fill="#E3DFCF"/>
<path d="M880 5.57212e-08H885V5H880V5.57212e-08Z" fill="#E3DFCF"/>
<path d="M885 5.57212e-08H890V5H885V5.57212e-08Z" fill="#E3DFCF"/>
<path d="M890 5.57212e-08H895V5H890V5.57212e-08Z" fill="#E3DFCF"/>
<path d="M895 5.57212e-08H900V5H895V5.57212e-08Z" fill="#E3DFCF"/>
<path d="M900 5.57212e-08H905V5H900V5.57212e-08Z" fill="#E3DFCF"/>
<path d="M905 5.57212e-08H910V5H905V5.57212e-08Z" fill="#E3DFCF"/>
<path d="M910 5.57212e-08H915V5H910V5.57212e-08Z" fill="#E3DFCF"/>
<path d="M915 5.57212e-08H920V5H915V5.57212e-08Z" fill="#E3DFCF"/>
<path d="M920 5.57212e-08H925V5H920V5.57212e-08Z" fill="#E3DFCF"/>
<path d="M925 5.57212e-08H930V5H925V5.57212e-08Z" fill="#E3DFCF"/>
<path d="M930 5.57212e-08H935V5H930V5.57212e-08Z" fill="#E3DFCF"/>
<path d="M935 5.57212e-08H940V5H935V5.57212e-08Z" fill="#E3DFCF"/>
<path d="M940 5.57212e-08H945V5H940V5.57212e-08Z" fill="#E3DFCF"/>
<path d="M945 5.57212e-08H950V5H945V5.57212e-08Z" fill="#E3DFCF"/>
<path d="M950 5.57212e-08H955V5H950V5.57212e-08Z" fill="#E3DFCF"/>
<path d="M955 5.57212e-08H960V5H955V5.57212e-08Z" fill="#E3DFCF"/>
<path d="M960 5.57212e-08H965V5H960V5.57212e-08Z" fill="#E3DFCF"/>
<path d="M965 5.57212e-08H970V5H965V5.57212e-08Z" fill="#E3DFCF"/>
<path d="M970 5.57212e-08H975V5H970V5.57212e-08Z" fill="#E3DFCF"/>
<path d="M975 5.57212e-08H980V5H975V5.57212e-08Z" fill="#E3DFCF"/>
<path d="M985 5.57212e-08H990V5H985V5.57212e-08Z" fill="#E3DFCF"/>
<path d="M990 5.57212e-08H995V5H990V5.57212e-08Z" fill="#E3DFCF"/>
<path d="M995 5.57212e-08H1000V5H995V5.57212e-08Z" fill="#E3DFCF"/>
<path d="M1000 5.57212e-08H1005V5H1000V5.57212e-08Z" fill="#E3DFCF"/>
<path d="M1005 5.57212e-08H1010V5H1005V5.57212e-08Z" fill="#E3DFCF"/>
<path d="M1010 5.57212e-08H1015V5H1010V5.57212e-08Z" fill="#E3DFCF"/>
<path d="M1015 5.57212e-08H1020V5H1015V5.57212e-08Z" fill="#E3DFCF"/>
<path d="M1020 5.57212e-08H1025V5H1020V5.57212e-08Z" fill="#E3DFCF"/>
<path d="M1025 5.57212e-08H1030V5H1025V5.57212e-08Z" fill="#E3DFCF"/>
<path d="M1030 5.57212e-08H1035V5H1030V5.57212e-08Z" fill="#E3DFCF"/>
<path d="M1035 5.57212e-08H1040V5H1035V5.57212e-08Z" fill="#E3DFCF"/>
<path d="M1040 5.57212e-08H1045V5H1040V5.57212e-08Z" fill="#E3DFCF"/>
<path d="M1045 5.57212e-08H1050V5H1045V5.57212e-08Z" fill="#E3DFCF"/>
<path d="M1050 5.57212e-08H1055V5H1050V5.57212e-08Z" fill="#E3DFCF"/>
<path d="M1055 5.57212e-08H1060V5H1055V5.57212e-08Z" fill="#E3DFCF"/>
<path d="M1060 5.57212e-08H1065V5H1060V5.57212e-08Z" fill="#E3DFCF"/>
<path d="M1065 5.57212e-08H1070V5H1065V5.57212e-08Z" fill="#E3DFCF"/>
<path d="M1070 5.57212e-08H1075V5H1070V5.57212e-08Z" fill="#E3DFCF"/>
<path d="M1075 5.57212e-08H1080V5H1075V5.57212e-08Z" fill="#E3DFCF"/>
<path d="M1080 5.57212e-08H1085V5H1080V5.57212e-08Z" fill="#E3DFCF"/>
<path d="M1105 5.57212e-08H1110V5H1105V5.57212e-08Z" fill="#E3DFCF"/>
<path d="M1110 5.57212e-08H1115V5H1110V5.57212e-08Z" fill="#E3DFCF"/>
<path d="M1120 5.57212e-08H1125V5H1120V5.57212e-08Z" fill="#E3DFCF"/>
<path d="M1130 5.57212e-08H1135V5H1130V5.57212e-08Z" fill="#E3DFCF"/>
<path d="M1135 5.57212e-08H1140V5H1135V5.57212e-08Z" fill="#E3DFCF"/>
<path d="M1140 5.57212e-08H1145V5H1140V5.57212e-08Z" fill="#E3DFCF"/>
<path d="M1145 5.57212e-08H1150V5H1145V5.57212e-08Z" fill="#E3DFCF"/>
<path d="M1150 5.57212e-08H1155V5H1150V5.57212e-08Z" fill="#E3DFCF"/>
<path d="M1155 5.57212e-08H1160V5H1155V5.57212e-08Z" fill="#E3DFCF"/>
<path d="M1160 5.57212e-08H1165V5H1160V5.57212e-08Z" fill="#E3DFCF"/>
<path d="M1165 5.57212e-08H1170V5H1165V5.57212e-08Z" fill="#E3DFCF"/>
<path d="M1170 5.57212e-08H1175V5H1170V5.57212e-08Z" fill="#E3DFCF"/>
<path d="M1175 5.57212e-08H1180V5H1175V5.57212e-08Z" fill="#E3DFCF"/>
<path d="M1180 5.57212e-08H1185V5H1180V5.57212e-08Z" fill="#E3DFCF"/>
<path d="M1185 5.57212e-08H1190V5H1185V5.57212e-08Z" fill="#E3DFCF"/>
<path d="M1190 5.57212e-08H1195V5H1190V5.57212e-08Z" fill="#E3DFCF"/>
<path d="M1195 5.57212e-08H1200V5H1195V5.57212e-08Z" fill="#E3DFCF"/>
<path d="M1200 5.57212e-08H1205V5H1200V5.57212e-08Z" fill="#E3DFCF"/>
<path d="M1205 5.57212e-08H1210V5H1205V5.57212e-08Z" fill="#E3DFCF"/>
<path d="M1210 5.57212e-08H1215V5H1210V5.57212e-08Z" fill="#E3DFCF"/>
<path d="M1215 5.57212e-08H1220V5H1215V5.57212e-08Z" fill="#E3DFCF"/>
<path d="M1220 5.57212e-08H1225V5H1220V5.57212e-08Z" fill="#E3DFCF"/>
<path d="M1225 5.57212e-08H1230V5H1225V5.57212e-08Z" fill="#E3DFCF"/>
<path d="M1230 5.57212e-08H1235V5H1230V5.57212e-08Z" fill="#E3DFCF"/>
<path d="M1240 5.57212e-08H1245V5H1240V5.57212e-08Z" fill="#E3DFCF"/>
<path d="M1245 5.57212e-08H1250V5H1245V5.57212e-08Z" fill="#E3DFCF"/>
<path d="M1250 5.57212e-08H1255V5H1250V5.57212e-08Z" fill="#E3DFCF"/>
<path d="M1255 5.57212e-08H1260V5H1255V5.57212e-08Z" fill="#E3DFCF"/>
<path d="M1260 5.57212e-08H1265V5H1260V5.57212e-08Z" fill="#E3DFCF"/>
<path d="M1265 5.57212e-08H1270V5H1265V5.57212e-08Z" fill="#E3DFCF"/>
<path d="M1270 5.57212e-08H1275V5H1270V5.57212e-08Z" fill="#E3DFCF"/>
<path d="M1275 5.57212e-08H1280V5H1275V5.57212e-08Z" fill="#E3DFCF"/>
<path d="M1280 5.57212e-08H1285V5H1280V5.57212e-08Z" fill="#E3DFCF"/>
<path d="M1285 5.57212e-08H1290V5H1285V5.57212e-08Z" fill="#E3DFCF"/>
<path d="M1290 5.57212e-08H1295V5H1290V5.57212e-08Z" fill="#E3DFCF"/>
<path d="M1295 5.57212e-08H1300V5H1295V5.57212e-08Z" fill="#E3DFCF"/>
<path d="M1300 5.57212e-08H1305V5H1300V5.57212e-08Z" fill="#E3DFCF"/>
<path d="M1305 5.57212e-08H1310V5H1305V5.57212e-08Z" fill="#E3DFCF"/>
<path d="M1310 5.57212e-08H1315V5H1310V5.57212e-08Z" fill="#E3DFCF"/>
<path d="M1315 5.57212e-08H1320V5H1315V5.57212e-08Z" fill="#E3DFCF"/>
<path d="M1320 5.57212e-08H1325V5H1320V5.57212e-08Z" fill="#E3DFCF"/>
<path d="M1325 5.57212e-08H1330V5H1325V5.57212e-08Z" fill="#E3DFCF"/>
<path d="M1330 5.57212e-08H1335V5H1330V5.57212e-08Z" fill="#E3DFCF"/>
<path d="M1335 5.57212e-08H1340V5H1335V5.57212e-08Z" fill="#E3DFCF"/>
<path d="M1340 5.57212e-08H1345V5H1340V5.57212e-08Z" fill="#E3DFCF"/>
<path d="M1345 5.57212e-08H1350V5H1345V5.57212e-08Z" fill="#E3DFCF"/>
<path d="M1350 5.57212e-08H1355V5H1350V5.57212e-08Z" fill="#E3DFCF"/>
<path d="M1355 5.57212e-08H1360V5H1355V5.57212e-08Z" fill="#E3DFCF"/>
<path d="M1360 5.57212e-08H1365V5H1360V5.57212e-08Z" fill="#E3DFCF"/>
<path d="M1365 5.57212e-08H1370V5H1365V5.57212e-08Z" fill="#E3DFCF"/>
<path d="M1370 5.57212e-08H1375V5H1370V5.57212e-08Z" fill="#E3DFCF"/>
<path d="M1375 5.57212e-08H1380V5H1375V5.57212e-08Z" fill="#E3DFCF"/>
<path d="M1380 5.57212e-08H1385V5H1380V5.57212e-08Z" fill="#E3DFCF"/>
<path d="M1385 5.57212e-08H1390V5H1385V5.57212e-08Z" fill="#E3DFCF"/>
<path d="M1390 5.57212e-08H1395V5H1390V5.57212e-08Z" fill="#E3DFCF"/>
<path d="M1395 5.57212e-08H1400V5H1395V5.57212e-08Z" fill="#E3DFCF"/>
<path d="M1400 5.57212e-08H1405V5H1400V5.57212e-08Z" fill="#E3DFCF"/>
<path d="M1405 5.57212e-08H1410V5H1405V5.57212e-08Z" fill="#E3DFCF"/>
<path d="M1410 5.57212e-08H1415V5H1410V5.57212e-08Z" fill="#E3DFCF"/>
<path d="M1415 5.57212e-08H1420V5H1415V5.57212e-08Z" fill="#E3DFCF"/>
<path d="M1420 5.57212e-08H1425V5H1420V5.57212e-08Z" fill="#E3DFCF"/>
<path d="M1425 5.57212e-08H1430V5H1425V5.57212e-08Z" fill="#E3DFCF"/>
<path d="M1430 5.57212e-08H1435V5H1430V5.57212e-08Z" fill="#E3DFCF"/>
<path d="M1435 5.57212e-08H1440V5H1435V5.57212e-08Z" fill="#E3DFCF"/>
<path d="M1440 5.57212e-08H1445V5H1440V5.57212e-08Z" fill="#E3DFCF"/>
<path d="M1445 5.57212e-08H1450V5H1445V5.57212e-08Z" fill="#E3DFCF"/>
<path d="M1450 5.57212e-08H1455V5H1450V5.57212e-08Z" fill="#E3DFCF"/>
<path d="M1455 5.57212e-08H1460V5H1455V5.57212e-08Z" fill="#E3DFCF"/>
<path d="M1460 5.57212e-08H1465V5H1460V5.57212e-08Z" fill="#E3DFCF"/>
<path d="M1465 5.57212e-08H1470V5H1465V5.57212e-08Z" fill="#E3DFCF"/>
<path d="M1470 5.57212e-08H1475V5H1470V5.57212e-08Z" fill="#E3DFCF"/>
<path d="M1475 5.57212e-08H1480V5H1475V5.57212e-08Z" fill="#E3DFCF"/>
<path d="M1480 5.57212e-08H1485V5H1480V5.57212e-08Z" fill="#E3DFCF"/>
<path d="M1485 5.57212e-08H1490V5H1485V5.57212e-08Z" fill="#E3DFCF"/>
<path d="M1490 5.57212e-08H1495V5H1490V5.57212e-08Z" fill="#E3DFCF"/>
<path d="M1495 5.57212e-08H1500V5H1495V5.57212e-08Z" fill="#E3DFCF"/>
<path d="M1500 5.57212e-08H1505V5H1500V5.57212e-08Z" fill="#E3DFCF"/>
<path d="M1505 5.57212e-08H1510V5H1505V5.57212e-08Z" fill="#E3DFCF"/>
<path d="M1510 5.57212e-08H1515V5H1510V5.57212e-08Z" fill="#E3DFCF"/>
<path d="M1515 5.57212e-08H1520V5H1515V5.57212e-08Z" fill="#E3DFCF"/>
<path d="M1520 5.57212e-08H1525V5H1520V5.57212e-08Z" fill="#E3DFCF"/>
<path d="M1525 5.57212e-08H1530V5H1525V5.57212e-08Z" fill="#E3DFCF"/>
<path d="M1530 5.57212e-08H1535V5H1530V5.57212e-08Z" fill="#E3DFCF"/>
<path d="M1535 5.57212e-08H1540V5H1535V5.57212e-08Z" fill="#E3DFCF"/>
<path d="M1540 5.57212e-08H1545V5H1540V5.57212e-08Z" fill="#E3DFCF"/>
<path d="M1545 5.57212e-08H1550V5H1545V5.57212e-08Z" fill="#E3DFCF"/>
<path d="M1550 5.57212e-08H1555V5H1550V5.57212e-08Z" fill="#E3DFCF"/>
<path d="M1555 5.57212e-08H1560V5H1555V5.57212e-08Z" fill="#E3DFCF"/>
<path d="M1560 5.57212e-08H1565V5H1560V5.57212e-08Z" fill="#E3DFCF"/>
<path d="M1565 5.57212e-08H1570V5H1565V5.57212e-08Z" fill="#E3DFCF"/>
<path d="M1570 5.57212e-08H1575V5H1570V5.57212e-08Z" fill="#E3DFCF"/>
<path d="M1575 5.57212e-08H1580V5H1575V5.57212e-08Z" fill="#E3DFCF"/>
<path d="M1580 5.57212e-08H1585V5H1580V5.57212e-08Z" fill="#E3DFCF"/>
<path d="M1585 5.57212e-08H1590V5H1585V5.57212e-08Z" fill="#E3DFCF"/>
<path d="M1590 5.57212e-08H1595V5H1590V5.57212e-08Z" fill="#E3DFCF"/>
<path d="M1600 5.57212e-08H1605V5H1600V5.57212e-08Z" fill="#E3DFCF"/>
<path d="M1605 5.57212e-08H1610V5H1605V5.57212e-08Z" fill="#E3DFCF"/>
<path d="M1610 5.57212e-08H1615V5H1610V5.57212e-08Z" fill="#E3DFCF"/>
<path d="M1615 5.57212e-08H1620V5H1615V5.57212e-08Z" fill="#E3DFCF"/>
<path d="M1620 5.57212e-08H1625V5H1620V5.57212e-08Z" fill="#E3DFCF"/>
<path d="M1625 5.57212e-08H1630V5H1625V5.57212e-08Z" fill="#E3DFCF"/>
<path d="M1630 5.57212e-08H1635V5H1630V5.57212e-08Z" fill="#E3DFCF"/>
<path d="M1635 5.57212e-08H1640V5H1635V5.57212e-08Z" fill="#E3DFCF"/>
<path d="M1640 5.57212e-08H1645V5H1640V5.57212e-08Z" fill="#E3DFCF"/>
<path d="M1645 5.57212e-08H1650V5H1645V5.57212e-08Z" fill="#E3DFCF"/>
<path d="M1650 5.57212e-08H1655V5H1650V5.57212e-08Z" fill="#E3DFCF"/>
<path d="M1655 5.57212e-08H1660V5H1655V5.57212e-08Z" fill="#E3DFCF"/>
<path d="M1660 5.57212e-08H1665V5H1660V5.57212e-08Z" fill="#E3DFCF"/>
<path d="M1665 5.57212e-08H1670V5H1665V5.57212e-08Z" fill="#E3DFCF"/>
<path d="M1670 5.57212e-08H1675V5H1670V5.57212e-08Z" fill="#E3DFCF"/>
<path d="M1675 5.57212e-08H1680V5H1675V5.57212e-08Z" fill="#E3DFCF"/>
<path d="M1680 5.57212e-08H1685V5H1680V5.57212e-08Z" fill="#E3DFCF"/>
<path d="M1685 5.57212e-08H1690V5H1685V5.57212e-08Z" fill="#E3DFCF"/>
<path d="M1690 5.57212e-08H1695V5H1690V5.57212e-08Z" fill="#E3DFCF"/>
<path d="M1695 5.57212e-08H1700V5H1695V5.57212e-08Z" fill="#E3DFCF"/>
<path d="M1700 5.57212e-08H1705V5H1700V5.57212e-08Z" fill="#E3DFCF"/>
<path d="M1705 5.57212e-08H1710V5H1705V5.57212e-08Z" fill="#E3DFCF"/>
<path d="M1710 5.57212e-08H1715V5H1710V5.57212e-08Z" fill="#E3DFCF"/>
<path d="M1715 5.57212e-08H1720V5H1715V5.57212e-08Z" fill="#E3DFCF"/>
<path d="M1720 5.57212e-08H1725V5H1720V5.57212e-08Z" fill="#E3DFCF"/>
<path d="M1725 5.57212e-08H1730V5H1725V5.57212e-08Z" fill="#E3DFCF"/>
<path d="M1735 5.57212e-08H1740V5H1735V5.57212e-08Z" fill="#E3DFCF"/>
<path d="M1740 5.57212e-08H1745V5H1740V5.57212e-08Z" fill="#E3DFCF"/>
<path d="M1745 5.57212e-08H1750V5H1745V5.57212e-08Z" fill="#E3DFCF"/>
<path d="M1750 5.57212e-08H1755V5H1750V5.57212e-08Z" fill="#E3DFCF"/>
<path d="M1755 5.57212e-08H1760V5H1755V5.57212e-08Z" fill="#E3DFCF"/>
<path d="M1760 5.57212e-08H1765V5H1760V5.57212e-08Z" fill="#E3DFCF"/>
<path d="M1765 5.57212e-08H1770V5H1765V5.57212e-08Z" fill="#E3DFCF"/>
<path d="M1770 5.57212e-08H1775V5H1770V5.57212e-08Z" fill="#E3DFCF"/>
<path d="M1775 5.57212e-08H1780V5H1775V5.57212e-08Z" fill="#E3DFCF"/>
<path d="M1780 5.57212e-08H1785V5H1780V5.57212e-08Z" fill="#E3DFCF"/>
<path d="M1785 5.57212e-08H1790V5H1785V5.57212e-08Z" fill="#E3DFCF"/>
<path d="M1790 5.57212e-08H1795V5H1790V5.57212e-08Z" fill="#E3DFCF"/>
<path d="M1795 5.57212e-08H1800V5H1795V5.57212e-08Z" fill="#E3DFCF"/>
<path d="M1800 5.57212e-08H1805V5H1800V5.57212e-08Z" fill="#E3DFCF"/>
<path d="M1805 5.57212e-08H1810V5H1805V5.57212e-08Z" fill="#E3DFCF"/>
<path d="M1810 5.57212e-08H1815V5H1810V5.57212e-08Z" fill="#E3DFCF"/>
<path d="M1815 5.57212e-08H1820V5H1815V5.57212e-08Z" fill="#E3DFCF"/>
<path d="M1820 5.57212e-08H1825V5H1820V5.57212e-08Z" fill="#E3DFCF"/>
<path d="M1825 5.57212e-08H1830V5H1825V5.57212e-08Z" fill="#E3DFCF"/>
<path d="M1830 5.57212e-08H1835V5H1830V5.57212e-08Z" fill="#E3DFCF"/>
<path d="M1835 5.57212e-08H1840V5H1835V5.57212e-08Z" fill="#E3DFCF"/>
<path d="M1840 5.57212e-08H1845V5H1840V5.57212e-08Z" fill="#E3DFCF"/>
<path d="M1845 5.57212e-08H1850V5H1845V5.57212e-08Z" fill="#E3DFCF"/>
<path d="M1850 5.57212e-08H1855V5H1850V5.57212e-08Z" fill="#E3DFCF"/>
<path d="M1855 5.57212e-08H1860V5H1855V5.57212e-08Z" fill="#E3DFCF"/>
<path d="M1860 5.57212e-08H1865V5H1860V5.57212e-08Z" fill="#E3DFCF"/>
<path d="M1865 5.57212e-08H1870V5H1865V5.57212e-08Z" fill="#E3DFCF"/>
<path d="M1870 5.57212e-08H1875V5H1870V5.57212e-08Z" fill="#E3DFCF"/>
<path d="M1875 5.57212e-08H1880V5H1875V5.57212e-08Z" fill="#E3DFCF"/>
<path d="M1880 5.57212e-08H1885V5H1880V5.57212e-08Z" fill="#E3DFCF"/>
<path d="M1885 5.57212e-08H1890V5H1885V5.57212e-08Z" fill="#E3DFCF"/>
<path d="M1890 5.57212e-08H1895V5H1890V5.57212e-08Z" fill="#E3DFCF"/>
<path d="M1895 5.57212e-08H1900V5H1895V5.57212e-08Z" fill="#E3DFCF"/>
<path d="M1900 5.57212e-08H1905V5H1900V5.57212e-08Z" fill="#E3DFCF"/>
<path d="M1905 5.57212e-08H1910V5H1905V5.57212e-08Z" fill="#E3DFCF"/>
<path d="M1910 5.57212e-08H1915V5H1910V5.57212e-08Z" fill="#E3DFCF"/>
<path d="M1915 5.57212e-08H1920V5H1915V5.57212e-08Z" fill="#E3DFCF"/>
<path d="M1920 5.57212e-08H1925V5H1920V5.57212e-08Z" fill="#E3DFCF"/>
<path d="M1925 5.57212e-08H1930V5H1925V5.57212e-08Z" fill="#E3DFCF"/>
<path d="M1930 5.57212e-08H1935V5H1930V5.57212e-08Z" fill="#E3DFCF"/>
<path d="M1935 5.57212e-08H1940V5H1935V5.57212e-08Z" fill="#E3DFCF"/>
<path d="M1940 5.57212e-08H1945V5H1940V5.57212e-08Z" fill="#E3DFCF"/>
<path d="M1945 5.57212e-08H1950V5H1945V5.57212e-08Z" fill="#E3DFCF"/>
<path d="M1950 5.57212e-08H1955V5H1950V5.57212e-08Z" fill="#E3DFCF"/>
<path d="M1965 5.57212e-08H1970V5H1965V5.57212e-08Z" fill="#E3DFCF"/>
<path d="M1970 5.57212e-08H1975V5H1970V5.57212e-08Z" fill="#E3DFCF"/>
<path d="M1975 5.57212e-08H1980V5H1975V5.57212e-08Z" fill="#E3DFCF"/>
<path d="M1985 5.57212e-08H1990V5H1985V5.57212e-08Z" fill="#E3DFCF"/>
<path d="M1995 5.57212e-08H2000V5H1995V5.57212e-08Z" fill="#E3DFCF"/>
<path d="M2000 5.57212e-08H2005V5H2000V5.57212e-08Z" fill="#E3DFCF"/>
<path d="M2005 5.57212e-08H2010V5H2005V5.57212e-08Z" fill="#E3DFCF"/>
<path d="M2010 5.57212e-08H2015V5H2010V5.57212e-08Z" fill="#E3DFCF"/>
<path d="M2015 5.57212e-08H2020V5H2015V5.57212e-08Z" fill="#E3DFCF"/>
<path d="M2020 5.57212e-08H2025V5H2020V5.57212e-08Z" fill="#E3DFCF"/>
<path d="M2025 5.57212e-08H2030V5H2025V5.57212e-08Z" fill="#E3DFCF"/>
<path d="M2030 5.57212e-08H2035V5H2030V5.57212e-08Z" fill="#E3DFCF"/>
<path d="M2035 5.57212e-08H2040V5H2035V5.57212e-08Z" fill="#E3DFCF"/>
<path d="M2040 5.57212e-08H2045V5H2040V5.57212e-08Z" fill="#E3DFCF"/>
<path d="M2045 5.57212e-08H2050V5H2045V5.57212e-08Z" fill="#E3DFCF"/>
<path d="M2050 5.57212e-08H2055V5H2050V5.57212e-08Z" fill="#E3DFCF"/>
<path d="M2055 5.57212e-08H2060V5H2055V5.57212e-08Z" fill="#E3DFCF"/>
<path d="M2060 5.57212e-08H2065V5H2060V5.57212e-08Z" fill="#E3DFCF"/>
<path d="M2065 5.57212e-08H2070V5H2065V5.57212e-08Z" fill="#E3DFCF"/>
<path d="M2070 5.57212e-08H2075V5H2070V5.57212e-08Z" fill="#E3DFCF"/>
<path d="M2075 5.57212e-08H2080V5H2075V5.57212e-08Z" fill="#E3DFCF"/>
<path d="M2085 5.57212e-08H2090V5H2085V5.57212e-08Z" fill="#E3DFCF"/>
<path d="M2095 5.57212e-08H2100V5H2095V5.57212e-08Z" fill="#E3DFCF"/>
<path d="M2100 5.57212e-08H2105V5H2100V5.57212e-08Z" fill="#E3DFCF"/>
<path d="M2105 5.57212e-08H2110V5H2105V5.57212e-08Z" fill="#E3DFCF"/>
<path d="M2120 5.57212e-08H2125V5H2120V5.57212e-08Z" fill="#E3DFCF"/>
<path d="M2125 5.57212e-08H2130V5H2125V5.57212e-08Z" fill="#E3DFCF"/>
<path d="M2130 5.57212e-08H2135V5H2130V5.57212e-08Z" fill="#E3DFCF"/>
<path d="M2135 5.57212e-08H2140V5H2135V5.57212e-08Z" fill="#E3DFCF"/>
<path d="M2140 5.57212e-08H2145V5H2140V5.57212e-08Z" fill="#E3DFCF"/>
<path d="M2145 5.57212e-08H2150V5H2145V5.57212e-08Z" fill="#E3DFCF"/>
<path d="M2150 5.57212e-08H2155V5H2150V5.57212e-08Z" fill="#E3DFCF"/>
<path d="M2155 5.57212e-08H2160V5H2155V5.57212e-08Z" fill="#E3DFCF"/>
<path d="M2160 5.57212e-08H2165V5H2160V5.57212e-08Z" fill="#E3DFCF"/>
<path d="M2165 5.57212e-08H2170V5H2165V5.57212e-08Z" fill="#E3DFCF"/>
<path d="M2170 5.57212e-08H2175V5H2170V5.57212e-08Z" fill="#E3DFCF"/>
<path d="M2175 5.57212e-08H2180V5H2175V5.57212e-08Z" fill="#E3DFCF"/>
<path d="M2180 5.57212e-08H2185V5H2180V5.57212e-08Z" fill="#E3DFCF"/>
<path d="M2185 5.57212e-08H2190V5H2185V5.57212e-08Z" fill="#E3DFCF"/>
<path d="M2190 5.57212e-08H2195V5H2190V5.57212e-08Z" fill="#E3DFCF"/>
<path d="M2195 5.57212e-08H2200V5H2195V5.57212e-08Z" fill="#E3DFCF"/>
<path d="M2200 5.57212e-08H2205V5H2200V5.57212e-08Z" fill="#E3DFCF"/>
<path d="M2205 5.57212e-08H2210V5H2205V5.57212e-08Z" fill="#E3DFCF"/>
<path d="M2210 5.57212e-08H2215V5H2210V5.57212e-08Z" fill="#E3DFCF"/>
<path d="M2215 5.57212e-08H2220V5H2215V5.57212e-08Z" fill="#E3DFCF"/>
<path d="M2220 5.57212e-08H2225V5H2220V5.57212e-08Z" fill="#E3DFCF"/>
<path d="M2225 5.57212e-08H2230V5H2225V5.57212e-08Z" fill="#E3DFCF"/>
<path d="M2230 5.57212e-08H2235V5H2230V5.57212e-08Z" fill="#E3DFCF"/>
<path d="M2235 5.57212e-08H2240V5H2235V5.57212e-08Z" fill="#E3DFCF"/>
<path d="M2240 5.57212e-08H2245V5H2240V5.57212e-08Z" fill="#E3DFCF"/>
<path d="M2245 5.57212e-08H2250V5H2245V5.57212e-08Z" fill="#E3DFCF"/>
<path d="M2250 5.57212e-08H2255V5H2250V5.57212e-08Z" fill="#E3DFCF"/>
<path d="M2255 5.57212e-08H2260V5H2255V5.57212e-08Z" fill="#E3DFCF"/>
<path d="M2260 5.57212e-08H2265V5H2260V5.57212e-08Z" fill="#E3DFCF"/>
<path d="M2265 5.57212e-08H2270V5H2265V5.57212e-08Z" fill="#E3DFCF"/>
<path d="M2270 5.57212e-08H2275V5H2270V5.57212e-08Z" fill="#E3DFCF"/>
<path d="M2275 5.57212e-08H2280V5H2275V5.57212e-08Z" fill="#E3DFCF"/>
<path d="M2280 5.57212e-08H2285V5H2280V5.57212e-08Z" fill="#E3DFCF"/>
<path d="M2285 5.57212e-08H2290V5H2285V5.57212e-08Z" fill="#E3DFCF"/>
<path d="M2290 5.57212e-08H2295V5H2290V5.57212e-08Z" fill="#E3DFCF"/>
<path d="M2295 5.57212e-08H2300V5H2295V5.57212e-08Z" fill="#E3DFCF"/>
<path d="M2315 5.57212e-08H2320V5H2315V5.57212e-08Z" fill="#E3DFCF"/>
<path d="M2320 5.57212e-08H2325V5H2320V5.57212e-08Z" fill="#E3DFCF"/>
<path d="M2325 5.57212e-08H2330V5H2325V5.57212e-08Z" fill="#E3DFCF"/>
<path d="M2330 5.57212e-08H2335V5H2330V5.57212e-08Z" fill="#E3DFCF"/>
<path d="M2335 5.57212e-08H2340V5H2335V5.57212e-08Z" fill="#E3DFCF"/>
<path d="M2340 5.57212e-08H2345V5H2340V5.57212e-08Z" fill="#E3DFCF"/>
<path d="M2345 5.57212e-08H2350V5H2345V5.57212e-08Z" fill="#E3DFCF"/>
<path d="M2350 5.57212e-08H2355V5H2350V5.57212e-08Z" fill="#E3DFCF"/>
<path d="M2355 5.57212e-08H2360V5H2355V5.57212e-08Z" fill="#E3DFCF"/>
<path d="M2360 5.57212e-08H2365V5H2360V5.57212e-08Z" fill="#E3DFCF"/>
<path d="M2365 5.57212e-08H2370V5H2365V5.57212e-08Z" fill="#E3DFCF"/>
<path d="M2370 5.57212e-08H2375V5H2370V5.57212e-08Z" fill="#E3DFCF"/>
<path d="M2375 5.57212e-08H2380V5H2375V5.57212e-08Z" fill="#E3DFCF"/>
<path d="M2380 5.57212e-08H2385V5H2380V5.57212e-08Z" fill="#E3DFCF"/>
<path d="M2385 5.57212e-08H2390V5H2385V5.57212e-08Z" fill="#E3DFCF"/>
<path d="M2390 5.57212e-08H2395V5H2390V5.57212e-08Z" fill="#E3DFCF"/>
<path d="M2395 5.57212e-08H2400V5H2395V5.57212e-08Z" fill="#E3DFCF"/>
<path d="M2400 5.57212e-08H2405V5H2400V5.57212e-08Z" fill="#E3DFCF"/>
<path d="M2405 5.57212e-08H2410V5H2405V5.57212e-08Z" fill="#E3DFCF"/>
<path d="M2410 5.57212e-08H2415V5H2410V5.57212e-08Z" fill="#E3DFCF"/>
<path d="M2415 5.57212e-08H2420V5H2415V5.57212e-08Z" fill="#E3DFCF"/>
<path d="M2420 5.57212e-08H2425V5H2420V5.57212e-08Z" fill="#E3DFCF"/>
<path d="M2425 5.57212e-08H2430V5H2425V5.57212e-08Z" fill="#E3DFCF"/>
<path d="M2435 5.57212e-08H2440V5H2435V5.57212e-08Z" fill="#E3DFCF"/>
<path d="M2440 5.57212e-08H2445V5H2440V5.57212e-08Z" fill="#E3DFCF"/>
<path d="M2445 5.57212e-08H2450V5H2445V5.57212e-08Z" fill="#E3DFCF"/>
<path d="M2450 5.57212e-08H2455V5H2450V5.57212e-08Z" fill="#E3DFCF"/>
<path d="M2455 5.57212e-08H2460V5H2455V5.57212e-08Z" fill="#E3DFCF"/>
<path d="M2460 5.57212e-08H2465V5H2460V5.57212e-08Z" fill="#E3DFCF"/>
<path d="M2465 5.57212e-08H2470V5H2465V5.57212e-08Z" fill="#E3DFCF"/>
<path d="M2480 5.57212e-08H2485V5H2480V5.57212e-08Z" fill="#E3DFCF"/>
<path d="M2485 5.57212e-08H2490V5H2485V5.57212e-08Z" fill="#E3DFCF"/>
<path d="M2490 5.57212e-08H2495V5H2490V5.57212e-08Z" fill="#E3DFCF"/>
<path d="M2495 5.57212e-08H2500V5H2495V5.57212e-08Z" fill="#E3DFCF"/>
<path d="M2500 5.57212e-08H2505V5H2500V5.57212e-08Z" fill="#E3DFCF"/>
<path d="M2505 5.57212e-08H2510V5H2505V5.57212e-08Z" fill="#E3DFCF"/>
<path d="M2510 5.57212e-08H2515V5H2510V5.57212e-08Z" fill="#E3DFCF"/>
<path d="M2520 5.57212e-08H2525V5H2520V5.57212e-08Z" fill="#E3DFCF"/>
<path d="M2525 5.57212e-08H2530V5H2525V5.57212e-08Z" fill="#E3DFCF"/>
<path d="M2530 5.57212e-08H2535V5H2530V5.57212e-08Z" fill="#E3DFCF"/>
<path d="M2535 5.57212e-08H2540V5H2535V5.57212e-08Z" fill="#E3DFCF"/>
<path d="M2540 5.57212e-08H2545V5H2540V5.57212e-08Z" fill="#E3DFCF"/>
<path d="M2545 5.57212e-08H2550V5H2545V5.57212e-08Z" fill="#E3DFCF"/>
<path d="M2550 5.57212e-08H2555V5H2550V5.57212e-08Z" fill="#E3DFCF"/>
<path d="M2555 5.57212e-08H2560V5H2555V5.57212e-08Z" fill="#E3DFCF"/>
<path d="M2560 5.57212e-08H2565V5H2560V5.57212e-08Z" fill="#E3DFCF"/>
<path d="M2565 5.57212e-08H2570V5H2565V5.57212e-08Z" fill="#E3DFCF"/>
<path d="M2570 5.57212e-08H2575V5H2570V5.57212e-08Z" fill="#E3DFCF"/>
<path d="M2575 5.57212e-08H2580V5H2575V5.57212e-08Z" fill="#E3DFCF"/>
<path d="M2580 5.57212e-08H2585V5H2580V5.57212e-08Z" fill="#E3DFCF"/>
<path d="M2585 5.57212e-08H2590V5H2585V5.57212e-08Z" fill="#E3DFCF"/>
<path d="M2590 5.57212e-08H2595V5H2590V5.57212e-08Z" fill="#E3DFCF"/>
<path d="M2595 5.57212e-08H2600V5H2595V5.57212e-08Z" fill="#E3DFCF"/>
<path d="M2600 5.57212e-08H2605V5H2600V5.57212e-08Z" fill="#E3DFCF"/>
<path d="M2605 5.57212e-08H2610V5H2605V5.57212e-08Z" fill="#E3DFCF"/>
<path d="M2615 5.57212e-08H2620V5H2615V5.57212e-08Z" fill="#E3DFCF"/>
<path d="M2620 5.57212e-08H2625V5H2620V5.57212e-08Z" fill="#E3DFCF"/>
<path d="M2625 5.57212e-08H2630V5H2625V5.57212e-08Z" fill="#E3DFCF"/>
<path d="M2630 5.57212e-08H2635V5H2630V5.57212e-08Z" fill="#E3DFCF"/>
<path d="M2635 5.57212e-08H2640V5H2635V5.57212e-08Z" fill="#E3DFCF"/>
<path d="M2645 5.57212e-08H2650V5H2645V5.57212e-08Z" fill="#E3DFCF"/>
<path d="M2655 5.57212e-08H2660V5H2655V5.57212e-08Z" fill="#E3DFCF"/>
<path d="M2660 5.57212e-08H2665V5H2660V5.57212e-08Z" fill="#E3DFCF"/>
<path d="M2665 5.57212e-08H2670V5H2665V5.57212e-08Z" fill="#E3DFCF"/>
<path d="M2670 5.57212e-08H2675V5H2670V5.57212e-08Z" fill="#E3DFCF"/>
<path d="M2675 5.57212e-08H2680V5H2675V5.57212e-08Z" fill="#E3DFCF"/>
<path d="M2680 5.57212e-08H2685V5H2680V5.57212e-08Z" fill="#E3DFCF"/>
<path d="M2685 5.57212e-08H2690V5H2685V5.57212e-08Z" fill="#E3DFCF"/>
<path d="M2690 5.57212e-08H2695V5H2690V5.57212e-08Z" fill="#E3DFCF"/>
<path d="M2695 5.57212e-08H2700V5H2695V5.57212e-08Z" fill="#E3DFCF"/>
<path d="M2700 5.57212e-08H2705V5H2700V5.57212e-08Z" fill="#E3DFCF"/>
<path d="M2705 5.57212e-08H2710V5H2705V5.57212e-08Z" fill="#E3DFCF"/>
<path d="M2710 5.57212e-08H2715V5H2710V5.57212e-08Z" fill="#E3DFCF"/>
<path d="M2715 5.57212e-08H2720V5H2715V5.57212e-08Z" fill="#E3DFCF"/>
<path d="M2720 5.57212e-08H2725V5H2720V5.57212e-08Z" fill="#E3DFCF"/>
<path d="M2725 5.57212e-08H2730V5H2725V5.57212e-08Z" fill="#E3DFCF"/>
<path d="M2730 5.57212e-08H2735V5H2730V5.57212e-08Z" fill="#E3DFCF"/>
<path d="M2735 5.57212e-08H2740V5H2735V5.57212e-08Z" fill="#E3DFCF"/>
<path d="M2740 5.57212e-08H2745V5H2740V5.57212e-08Z" fill="#E3DFCF"/>
<path d="M2765 5.57212e-08H2770V5H2765V5.57212e-08Z" fill="#E3DFCF"/>
<path d="M2770 5.57212e-08H2775V5H2770V5.57212e-08Z" fill="#E3DFCF"/>
<path d="M2775 5.57212e-08H2780V5H2775V5.57212e-08Z" fill="#E3DFCF"/>
<path d="M2780 5.57212e-08H2785V5H2780V5.57212e-08Z" fill="#E3DFCF"/>
<path d="M2785 5.57212e-08H2790V5H2785V5.57212e-08Z" fill="#E3DFCF"/>
<path d="M2790 5.57212e-08H2795V5H2790V5.57212e-08Z" fill="#E3DFCF"/>
<path d="M2795 5.57212e-08H2800V5H2795V5.57212e-08Z" fill="#E3DFCF"/>
<path d="M2800 5.57212e-08H2805V5H2800V5.57212e-08Z" fill="#E3DFCF"/>
<path d="M2805 5.57212e-08H2810V5H2805V5.57212e-08Z" fill="#E3DFCF"/>
<path d="M2815 5.57212e-08H2820V5H2815V5.57212e-08Z" fill="#E3DFCF"/>
<path d="M2820 5.57212e-08H2825V5H2820V5.57212e-08Z" fill="#E3DFCF"/>
<path d="M2825 5.57212e-08H2830V5H2825V5.57212e-08Z" fill="#E3DFCF"/>
<path d="M2830 5.57212e-08H2835V5H2830V5.57212e-08Z" fill="#E3DFCF"/>
<path d="M2835 5.57212e-08H2840V5H2835V5.57212e-08Z" fill="#E3DFCF"/>
<path d="M2840 5.57212e-08H2845V5H2840V5.57212e-08Z" fill="#E3DFCF"/>
<path d="M2845 5.57212e-08H2850V5H2845V5.57212e-08Z" fill="#E3DFCF"/>
<path d="M2850 5.57212e-08H2855V5H2850V5.57212e-08Z" fill="#E3DFCF"/>
<path d="M2855 5.57212e-08H2860V5H2855V5.57212e-08Z" fill="#E3DFCF"/>
<path d="M2860 5.57212e-08H2865V5H2860V5.57212e-08Z" fill="#E3DFCF"/>
<path d="M2865 5.57212e-08H2870V5H2865V5.57212e-08Z" fill="#E3DFCF"/>
<path d="M2870 5.57212e-08H2875V5H2870V5.57212e-08Z" fill="#E3DFCF"/>
<path d="M2875 5.57212e-08H2880V5H2875V5.57212e-08Z" fill="#E3DFCF"/>
<path d="M2880 5.57212e-08H2885V5H2880V5.57212e-08Z" fill="#E3DFCF"/>
<path d="M2885 5.57212e-08H2890V5H2885V5.57212e-08Z" fill="#E3DFCF"/>
<path d="M2890 5.57212e-08H2895V5H2890V5.57212e-08Z" fill="#E3DFCF"/>
<path d="M2895 5.57212e-08H2900V5H2895V5.57212e-08Z" fill="#E3DFCF"/>
<path d="M2900 5.57212e-08H2905V5H2900V5.57212e-08Z" fill="#E3DFCF"/>
<path d="M2905 5.57212e-08H2910V5H2905V5.57212e-08Z" fill="#E3DFCF"/>
<path d="M2910 5.57212e-08H2915V5H2910V5.57212e-08Z" fill="#E3DFCF"/>
<path d="M2915 5.57212e-08H2920V5H2915V5.57212e-08Z" fill="#E3DFCF"/>
<path d="M2920 5.57212e-08H2925V5H2920V5.57212e-08Z" fill="#E3DFCF"/>
<path d="M2925 5.57212e-08H2930V5H2925V5.57212e-08Z" fill="#E3DFCF"/>
<path d="M2930 5.57212e-08H2935V5H2930V5.57212e-08Z" fill="#E3DFCF"/>
<path d="M2935 5.57212e-08H2940V5H2935V5.57212e-08Z" fill="#E3DFCF"/>
<path d="M2940 5.57212e-08H2945V5H2940V5.57212e-08Z" fill="#E3DFCF"/>
<path d="M2945 5.57212e-08H2950V5H2945V5.57212e-08Z" fill="#E3DFCF"/>
<path d="M2950 5.57212e-08H2955V5H2950V5.57212e-08Z" fill="#E3DFCF"/>
<path d="M2955 5.57212e-08H2960V5H2955V5.57212e-08Z" fill="#E3DFCF"/>
<path d="M2960 5.57212e-08H2965V5H2960V5.57212e-08Z" fill="#E3DFCF"/>
<path d="M2965 5.57212e-08H2970V5H2965V5.57212e-08Z" fill="#E3DFCF"/>
<path d="M2970 5.57212e-08H2975V5H2970V5.57212e-08Z" fill="#E3DFCF"/>
<path d="M2975 5.57212e-08H2980V5H2975V5.57212e-08Z" fill="#E3DFCF"/>
<path d="M2980 5.57212e-08H2985V5H2980V5.57212e-08Z" fill="#E3DFCF"/>
<path d="M2985 5.57212e-08H2990V5H2985V5.57212e-08Z" fill="#E3DFCF"/>
<path d="M2990 5.57212e-08H2995V5H2990V5.57212e-08Z" fill="#E3DFCF"/>
<path d="M2995 5.57212e-08H3000V5H2995V5.57212e-08Z" fill="#E3DFCF"/>
<path d="M3000 5.57212e-08H3005V5H3000V5.57212e-08Z" fill="#E3DFCF"/>
<path d="M3005 5.57212e-08H3010V5H3005V5.57212e-08Z" fill="#E3DFCF"/>
<path d="M3010 5.57212e-08H3015V5H3010V5.57212e-08Z" fill="#E3DFCF"/>
<path d="M3015 5.57212e-08H3020V5H3015V5.57212e-08Z" fill="#E3DFCF"/>
<path d="M3020 5.57212e-08H3025V5H3020V5.57212e-08Z" fill="#E3DFCF"/>
<path d="M3025 5.57212e-08H3030V5H3025V5.57212e-08Z" fill="#E3DFCF"/>
<path d="M3030 5.57212e-08H3035V5H3030V5.57212e-08Z" fill="#E3DFCF"/>
<path d="M3035 5.57212e-08H3040V5H3035V5.57212e-08Z" fill="#E3DFCF"/>
<path d="M3040 5.57212e-08H3045V5H3040V5.57212e-08Z" fill="#E3DFCF"/>
<path d="M3045 5.57212e-08H3050V5H3045V5.57212e-08Z" fill="#E3DFCF"/>
<path d="M3050 5.57212e-08H3055V5H3050V5.57212e-08Z" fill="#E3DFCF"/>
<path d="M3055 5.57212e-08H3060V5H3055V5.57212e-08Z" fill="#E3DFCF"/>
<path d="M3060 5.57212e-08H3065V5H3060V5.57212e-08Z" fill="#E3DFCF"/>
<path d="M3065 5.57212e-08H3070V5H3065V5.57212e-08Z" fill="#E3DFCF"/>
<path d="M3070 5.57212e-08H3075V5H3070V5.57212e-08Z" fill="#E3DFCF"/>
<path d="M3080 5.57212e-08H3085V5H3080V5.57212e-08Z" fill="#E3DFCF"/>
<path d="M3085 5.57212e-08H3090V5H3085V5.57212e-08Z" fill="#E3DFCF"/>
<path d="M3090 5.57212e-08H3095V5H3090V5.57212e-08Z" fill="#E3DFCF"/>
<path d="M3095 5.57212e-08H3100V5H3095V5.57212e-08Z" fill="#E3DFCF"/>
<path d="M3100 5.57212e-08H3105V5H3100V5.57212e-08Z" fill="#E3DFCF"/>
<path d="M3105 5.57212e-08H3110V5H3105V5.57212e-08Z" fill="#E3DFCF"/>
<path d="M3110 5.57212e-08H3115V5H3110V5.57212e-08Z" fill="#E3DFCF"/>
<path d="M3115 5.57212e-08H3120V5H3115V5.57212e-08Z" fill="#E3DFCF"/>
<path d="M3120 5.57212e-08H3125V5H3120V5.57212e-08Z" fill="#E3DFCF"/>
<path d="M3125 5.57212e-08H3130V5H3125V5.57212e-08Z" fill="#E3DFCF"/>
<path d="M3130 5.57212e-08H3135V5H3130V5.57212e-08Z" fill="#E3DFCF"/>
<path d="M3135 5.57212e-08H3140V5H3135V5.57212e-08Z" fill="#E3DFCF"/>
<path d="M3140 5.57212e-08H3145V5H3140V5.57212e-08Z" fill="#E3DFCF"/>
<path d="M3150 5.57212e-08H3155V5H3150V5.57212e-08Z" fill="#E3DFCF"/>
<path d="M3155 5.57212e-08H3160V5H3155V5.57212e-08Z" fill="#E3DFCF"/>
<path d="M3160 5.57212e-08H3165V5H3160V5.57212e-08Z" fill="#E3DFCF"/>
<path d="M3165 5.57212e-08H3170V5H3165V5.57212e-08Z" fill="#E3DFCF"/>
<path d="M3170 5.57212e-08H3175V5H3170V5.57212e-08Z" fill="#E3DFCF"/>
<path d="M3175 5.57212e-08H3180V5H3175V5.57212e-08Z" fill="#E3DFCF"/>
<path d="M3180 5.57212e-08H3185V5H3180V5.57212e-08Z" fill="#E3DFCF"/>
<path d="M3185 5.57212e-08H3190V5H3185V5.57212e-08Z" fill="#E3DFCF"/>
<path d="M3190 5.57212e-08H3195V5H3190V5.57212e-08Z" fill="#E3DFCF"/>
<path d="M3195 5.57212e-08H3200V5H3195V5.57212e-08Z" fill="#E3DFCF"/>
<path d="M3200 5.57212e-08H3205V5H3200V5.57212e-08Z" fill="#E3DFCF"/>
<path d="M3205 5.57212e-08H3210V5H3205V5.57212e-08Z" fill="#E3DFCF"/>
<path d="M3210 5.57212e-08H3215V5H3210V5.57212e-08Z" fill="#E3DFCF"/>
<path d="M3215 5.57212e-08H3220V5H3215V5.57212e-08Z" fill="#E3DFCF"/>
<path d="M3565 5.57212e-08H3570V5H3565V5.57212e-08Z" fill="#E3DFCF"/>
<path d="M3585 5.57212e-08H3590V5H3585V5.57212e-08Z" fill="#E3DFCF"/>
</svg>
