<svg width="3650" height="5" viewBox="0 0 3650 5" fill="none" xmlns="http://www.w3.org/2000/svg">
<path d="M3075 -1.02187e-05H3080V1.66666H3075V-1.02187e-05Z" fill="#FF3D00"/>
<path d="M3080 -1.02187e-05H3085V1.66666H3080V-1.02187e-05Z" fill="#FF3D00"/>
<path d="M3085 -1.02187e-05H3090V1.66666H3085V-1.02187e-05Z" fill="#FF3D00"/>
<path d="M3090 -1.02187e-05H3095V1.66666H3090V-1.02187e-05Z" fill="#FF3D00"/>
<path d="M3095 -1.02187e-05H3100V1.66666H3095V-1.02187e-05Z" fill="#FF3D00"/>
<path d="M3125 -1.02187e-05H3130V1.66666H3125V-1.02187e-05Z" fill="#FF3D00"/>
<path d="M3165 -1.02187e-05H3170V1.66666H3165V-1.02187e-05Z" fill="#FF3D00"/>
<path d="M3075 1.66668H3080V3.33334H3075V1.66668Z" fill="#4ADADA"/>
<path d="M3080 1.66668H3085V3.33334H3080V1.66668Z" fill="#4ADADA"/>
<path d="M3085 1.66668H3090V3.33334H3085V1.66668Z" fill="#4ADADA"/>
<path d="M3090 1.66668H3095V3.33334H3090V1.66668Z" fill="#4ADADA"/>
<path d="M3095 1.66668H3100V3.33334H3095V1.66668Z" fill="#4ADADA"/>
<path d="M3100 -6.93215e-08H3105V2.5H3100V-6.93215e-08Z" fill="#4ADADA"/>
<path d="M3105 -6.93215e-08H3110V2.5H3105V-6.93215e-08Z" fill="#4ADADA"/>
<path d="M3110 -6.93215e-08H3115V2.5H3110V-6.93215e-08Z" fill="#4ADADA"/>
<path d="M3115 -6.93215e-08H3120V2.5H3115V-6.93215e-08Z" fill="#4ADADA"/>
<path d="M3120 -6.93215e-08H3125V2.5H3120V-6.93215e-08Z" fill="#4ADADA"/>
<path d="M3125 1.66668H3130V3.33334H3125V1.66668Z" fill="#4ADADA"/>
<path d="M3130 -6.93215e-08H3135V2.5H3130V-6.93215e-08Z" fill="#4ADADA"/>
<path d="M3135 -6.93215e-08H3140V2.5H3135V-6.93215e-08Z" fill="#4ADADA"/>
<path d="M3160 -6.93215e-08H3165V2.5H3160V-6.93215e-08Z" fill="#4ADADA"/>
<path d="M3165 1.66668H3170V3.33334H3165V1.66668Z" fill="#4ADADA"/>
<path d="M3280 -1.21373e-07H3285V5H3280V-1.21373e-07Z" fill="#4ADADA"/>
<path d="M3325 -1.21373e-07H3330V5H3325V-1.21373e-07Z" fill="#4ADADA"/>
<path d="M3415 -6.93215e-08H3420V2.5H3415V-6.93215e-08Z" fill="#4ADADA"/>
<path d="M3420 -6.93215e-08H3425V2.5H3420V-6.93215e-08Z" fill="#4ADADA"/>
<path d="M3495 -6.93215e-08H3500V2.5H3495V-6.93215e-08Z" fill="#4ADADA"/>
<path d="M3580 -6.93215e-08H3585V2.5H3580V-6.93215e-08Z" fill="#4ADADA"/>
<path d="M3240 -1.21373e-07H3245V5H3240V-1.21373e-07Z" fill="#FF984D"/>
<path d="M3070 -1.21373e-07H3075V5H3070V-1.21373e-07Z" fill="#8C6345"/>
<path d="M3075 3.33333H3080V5H3075V3.33333Z" fill="#8C6345"/>
<path d="M3080 3.33333H3085V5H3080V3.33333Z" fill="#8C6345"/>
<path d="M3085 3.33333H3090V5H3085V3.33333Z" fill="#8C6345"/>
<path d="M3090 3.33333H3095V5H3090V3.33333Z" fill="#8C6345"/>
<path d="M3095 3.33333H3100V5H3095V3.33333Z" fill="#8C6345"/>
<path d="M3100 2.5H3105V5H3100V2.5Z" fill="#8C6345"/>
<path d="M3105 2.5H3110V5H3105V2.5Z" fill="#8C6345"/>
<path d="M3110 2.5H3115V5H3110V2.5Z" fill="#8C6345"/>
<path d="M3115 2.5H3120V5H3115V2.5Z" fill="#8C6345"/>
<path d="M3120 2.5H3125V5H3120V2.5Z" fill="#8C6345"/>
<path d="M3125 3.33333H3130V5H3125V3.33333Z" fill="#8C6345"/>
<path d="M3130 2.5H3135V5H3130V2.5Z" fill="#8C6345"/>
<path d="M3135 2.5H3140V5H3135V2.5Z" fill="#8C6345"/>
<path d="M3140 -1.21373e-07H3145V5H3140V-1.21373e-07Z" fill="#8C6345"/>
<path d="M3145 -1.21373e-07H3150V5H3145V-1.21373e-07Z" fill="#8C6345"/>
<path d="M3155 -1.21373e-07H3160V5H3155V-1.21373e-07Z" fill="#8C6345"/>
<path d="M3160 2.5H3165V5H3160V2.5Z" fill="#8C6345"/>
<path d="M3165 3.33333H3170V5H3165V3.33333Z" fill="#8C6345"/>
<path d="M3170 -1.21373e-07H3175V5H3170V-1.21373e-07Z" fill="#8C6345"/>
<path d="M3175 -1.21373e-07H3180V5H3175V-1.21373e-07Z" fill="#8C6345"/>
<path d="M3195 -1.21373e-07H3200V5H3195V-1.21373e-07Z" fill="#8C6345"/>
<path d="M3200 -1.21373e-07H3205V5H3200V-1.21373e-07Z" fill="#8C6345"/>
<path d="M3235 -1.21373e-07H3240V5H3235V-1.21373e-07Z" fill="#8C6345"/>
<path d="M3275 -1.21373e-07H3280V5H3275V-1.21373e-07Z" fill="#8C6345"/>
<path d="M3350 -1.21373e-07H3355V5H3350V-1.21373e-07Z" fill="#8C6345"/>
<path d="M3410 -1.21373e-07H3415V5H3410V-1.21373e-07Z" fill="#8C6345"/>
<path d="M3415 2.5H3420V5H3415V2.5Z" fill="#8C6345"/>
<path d="M3420 2.5H3425V5H3420V2.5Z" fill="#8C6345"/>
<path d="M3425 -1.21373e-07H3430V5H3425V-1.21373e-07Z" fill="#8C6345"/>
<path d="M3490 -1.21373e-07H3495V5H3490V-1.21373e-07Z" fill="#8C6345"/>
<path d="M3495 2.5H3500V5H3495V2.5Z" fill="#8C6345"/>
<path d="M3580 2.5H3585V5H3580V2.5Z" fill="#8C6345"/>
<path d="M3150 -1.21373e-07H3155V5H3150V-1.21373e-07Z" fill="#E3DFCF"/>
<path d="M3180 -1.21373e-07H3185V5H3180V-1.21373e-07Z" fill="#E3DFCF"/>
<path d="M3185 -1.21373e-07H3190V5H3185V-1.21373e-07Z" fill="#E3DFCF"/>
<path d="M3190 -1.21373e-07H3195V5H3190V-1.21373e-07Z" fill="#E3DFCF"/>
<path d="M3205 -1.21373e-07H3210V5H3205V-1.21373e-07Z" fill="#E3DFCF"/>
<path d="M3210 -1.21373e-07H3215V5H3210V-1.21373e-07Z" fill="#E3DFCF"/>
<path d="M3215 -1.21373e-07H3220V5H3215V-1.21373e-07Z" fill="#E3DFCF"/>
<path d="M3220 -1.21373e-07H3225V5H3220V-1.21373e-07Z" fill="#E3DFCF"/>
<path d="M3225 -1.21373e-07H3230V5H3225V-1.21373e-07Z" fill="#E3DFCF"/>
<path d="M3230 -1.21373e-07H3235V5H3230V-1.21373e-07Z" fill="#E3DFCF"/>
<path d="M3245 -1.21373e-07H3250V5H3245V-1.21373e-07Z" fill="#E3DFCF"/>
<path d="M3250 -1.21373e-07H3255V5H3250V-1.21373e-07Z" fill="#E3DFCF"/>
<path d="M3255 -1.21373e-07H3260V5H3255V-1.21373e-07Z" fill="#E3DFCF"/>
<path d="M3260 -1.21373e-07H3265V5H3260V-1.21373e-07Z" fill="#E3DFCF"/>
<path d="M3265 -1.21373e-07H3270V5H3265V-1.21373e-07Z" fill="#E3DFCF"/>
<path d="M3270 -1.21373e-07H3275V5H3270V-1.21373e-07Z" fill="#E3DFCF"/>
<path d="M3285 -1.21373e-07H3290V5H3285V-1.21373e-07Z" fill="#E3DFCF"/>
<path d="M3290 -1.21373e-07H3295V5H3290V-1.21373e-07Z" fill="#E3DFCF"/>
<path d="M3295 -1.21373e-07H3300V5H3295V-1.21373e-07Z" fill="#E3DFCF"/>
<path d="M3300 -1.21373e-07H3305V5H3300V-1.21373e-07Z" fill="#E3DFCF"/>
<path d="M3305 -1.21373e-07H3310V5H3305V-1.21373e-07Z" fill="#E3DFCF"/>
<path d="M3310 -1.21373e-07H3315V5H3310V-1.21373e-07Z" fill="#E3DFCF"/>
<path d="M3315 -1.21373e-07H3320V5H3315V-1.21373e-07Z" fill="#E3DFCF"/>
<path d="M3320 -1.21373e-07H3325V5H3320V-1.21373e-07Z" fill="#E3DFCF"/>
<path d="M3330 -1.21373e-07H3335V5H3330V-1.21373e-07Z" fill="#E3DFCF"/>
<path d="M3335 -1.21373e-07H3340V5H3335V-1.21373e-07Z" fill="#E3DFCF"/>
<path d="M3340 -1.21373e-07H3345V5H3340V-1.21373e-07Z" fill="#E3DFCF"/>
<path d="M3345 -1.21373e-07H3350V5H3345V-1.21373e-07Z" fill="#E3DFCF"/>
<path d="M3355 -1.21373e-07H3360V5H3355V-1.21373e-07Z" fill="#E3DFCF"/>
<path d="M3360 -1.21373e-07H3365V5H3360V-1.21373e-07Z" fill="#E3DFCF"/>
<path d="M3365 -1.21373e-07H3370V5H3365V-1.21373e-07Z" fill="#E3DFCF"/>
<path d="M3370 -1.21373e-07H3375V5H3370V-1.21373e-07Z" fill="#E3DFCF"/>
<path d="M3375 -1.21373e-07H3380V5H3375V-1.21373e-07Z" fill="#E3DFCF"/>
<path d="M3380 -1.21373e-07H3385V5H3380V-1.21373e-07Z" fill="#E3DFCF"/>
<path d="M3385 -1.21373e-07H3390V5H3385V-1.21373e-07Z" fill="#E3DFCF"/>
<path d="M3390 -1.21373e-07H3395V5H3390V-1.21373e-07Z" fill="#E3DFCF"/>
<path d="M3395 -1.21373e-07H3400V5H3395V-1.21373e-07Z" fill="#E3DFCF"/>
<path d="M3400 -1.21373e-07H3405V5H3400V-1.21373e-07Z" fill="#E3DFCF"/>
<path d="M3405 -1.21373e-07H3410V5H3405V-1.21373e-07Z" fill="#E3DFCF"/>
<path d="M3430 -1.21373e-07H3435V5H3430V-1.21373e-07Z" fill="#E3DFCF"/>
<path d="M3435 -1.21373e-07H3440V5H3435V-1.21373e-07Z" fill="#E3DFCF"/>
<path d="M3440 -1.21373e-07H3445V5H3440V-1.21373e-07Z" fill="#E3DFCF"/>
<path d="M3445 -1.21373e-07H3450V5H3445V-1.21373e-07Z" fill="#E3DFCF"/>
<path d="M3450 -1.21373e-07H3455V5H3450V-1.21373e-07Z" fill="#E3DFCF"/>
<path d="M3455 -1.21373e-07H3460V5H3455V-1.21373e-07Z" fill="#E3DFCF"/>
<path d="M3460 -1.21373e-07H3465V5H3460V-1.21373e-07Z" fill="#E3DFCF"/>
<path d="M3465 -1.21373e-07H3470V5H3465V-1.21373e-07Z" fill="#E3DFCF"/>
<path d="M3470 -1.21373e-07H3475V5H3470V-1.21373e-07Z" fill="#E3DFCF"/>
<path d="M3475 -1.21373e-07H3480V5H3475V-1.21373e-07Z" fill="#E3DFCF"/>
<path d="M3480 -1.21373e-07H3485V5H3480V-1.21373e-07Z" fill="#E3DFCF"/>
<path d="M3485 -1.21373e-07H3490V5H3485V-1.21373e-07Z" fill="#E3DFCF"/>
<path d="M3500 -1.21373e-07H3505V5H3500V-1.21373e-07Z" fill="#E3DFCF"/>
<path d="M3505 -1.21373e-07H3510V5H3505V-1.21373e-07Z" fill="#E3DFCF"/>
<path d="M3510 -1.21373e-07H3515V5H3510V-1.21373e-07Z" fill="#E3DFCF"/>
<path d="M3515 -1.21373e-07H3520V5H3515V-1.21373e-07Z" fill="#E3DFCF"/>
<path d="M3520 -1.21373e-07H3525V5H3520V-1.21373e-07Z" fill="#E3DFCF"/>
<path d="M3525 -1.21373e-07H3530V5H3525V-1.21373e-07Z" fill="#E3DFCF"/>
<path d="M3530 -1.21373e-07H3535V5H3530V-1.21373e-07Z" fill="#E3DFCF"/>
<path d="M3535 -1.21373e-07H3540V5H3535V-1.21373e-07Z" fill="#E3DFCF"/>
<path d="M3540 -1.21373e-07H3545V5H3540V-1.21373e-07Z" fill="#E3DFCF"/>
<path d="M3545 -1.21373e-07H3550V5H3545V-1.21373e-07Z" fill="#E3DFCF"/>
<path d="M3550 -1.21373e-07H3555V5H3550V-1.21373e-07Z" fill="#E3DFCF"/>
<path d="M3555 -1.21373e-07H3560V5H3555V-1.21373e-07Z" fill="#E3DFCF"/>
<path d="M3560 -1.21373e-07H3565V5H3560V-1.21373e-07Z" fill="#E3DFCF"/>
<path d="M3565 -1.21373e-07H3570V5H3565V-1.21373e-07Z" fill="#E3DFCF"/>
<path d="M3570 -1.21373e-07H3575V5H3570V-1.21373e-07Z" fill="#E3DFCF"/>
<path d="M3575 -1.21373e-07H3580V5H3575V-1.21373e-07Z" fill="#E3DFCF"/>
</svg>
