<svg width="3650" height="10" viewBox="0 0 3650 10" fill="none" xmlns="http://www.w3.org/2000/svg">
<path d="M3075 -2.0504e-05H3080V3.33331H3075V-2.0504e-05Z" fill="#FF3D00"/>
<path d="M3080 -2.0504e-05H3085V3.33331H3080V-2.0504e-05Z" fill="#FF3D00"/>
<path d="M3085 -2.0504e-05H3090V3.33331H3085V-2.0504e-05Z" fill="#FF3D00"/>
<path d="M3090 -2.0504e-05H3095V3.33331H3090V-2.0504e-05Z" fill="#FF3D00"/>
<path d="M3095 -2.0504e-05H3100V3.33331H3095V-2.0504e-05Z" fill="#FF3D00"/>
<path d="M3125 -2.0504e-05H3130V3.33331H3125V-2.0504e-05Z" fill="#FF3D00"/>
<path d="M3165 -2.0504e-05H3170V3.33331H3165V-2.0504e-05Z" fill="#FF3D00"/>
<path d="M3075 3.33335H3080V6.66669H3075V3.33335Z" fill="#4ADADA"/>
<path d="M3080 3.33335H3085V6.66669H3080V3.33335Z" fill="#4ADADA"/>
<path d="M3085 3.33335H3090V6.66669H3085V3.33335Z" fill="#4ADADA"/>
<path d="M3090 3.33335H3095V6.66669H3090V3.33335Z" fill="#4ADADA"/>
<path d="M3095 3.33335H3100V6.66669H3095V3.33335Z" fill="#4ADADA"/>
<path d="M3100 0H3105V5H3100V0Z" fill="#4ADADA"/>
<path d="M3105 0H3110V5H3105V0Z" fill="#4ADADA"/>
<path d="M3110 0H3115V5H3110V0Z" fill="#4ADADA"/>
<path d="M3115 0H3120V5H3115V0Z" fill="#4ADADA"/>
<path d="M3120 0H3125V5H3120V0Z" fill="#4ADADA"/>
<path d="M3125 3.33335H3130V6.66669H3125V3.33335Z" fill="#4ADADA"/>
<path d="M3130 0H3135V5H3130V0Z" fill="#4ADADA"/>
<path d="M3135 0H3140V5H3135V0Z" fill="#4ADADA"/>
<path d="M3160 0H3165V5H3160V0Z" fill="#4ADADA"/>
<path d="M3165 3.33335H3170V6.66669H3165V3.33335Z" fill="#4ADADA"/>
<path d="M3280 0H3285V10H3280V0Z" fill="#4ADADA"/>
<path d="M3325 0H3330V10H3325V0Z" fill="#4ADADA"/>
<path d="M3415 0H3420V5H3415V0Z" fill="#4ADADA"/>
<path d="M3420 0H3425V5H3420V0Z" fill="#4ADADA"/>
<path d="M3495 0H3500V5H3495V0Z" fill="#4ADADA"/>
<path d="M3580 0H3585V5H3580V0Z" fill="#4ADADA"/>
<path d="M3240 0H3245V10H3240V0Z" fill="#FF984D"/>
<path d="M3070 0H3075V10H3070V0Z" fill="#8C6345"/>
<path d="M3075 6.66667H3080V10H3075V6.66667Z" fill="#8C6345"/>
<path d="M3080 6.66667H3085V10H3080V6.66667Z" fill="#8C6345"/>
<path d="M3085 6.66667H3090V10H3085V6.66667Z" fill="#8C6345"/>
<path d="M3090 6.66667H3095V10H3090V6.66667Z" fill="#8C6345"/>
<path d="M3095 6.66667H3100V10H3095V6.66667Z" fill="#8C6345"/>
<path d="M3100 5H3105V10H3100V5Z" fill="#8C6345"/>
<path d="M3105 5H3110V10H3105V5Z" fill="#8C6345"/>
<path d="M3110 5H3115V10H3110V5Z" fill="#8C6345"/>
<path d="M3115 5H3120V10H3115V5Z" fill="#8C6345"/>
<path d="M3120 5H3125V10H3120V5Z" fill="#8C6345"/>
<path d="M3125 6.66667H3130V10H3125V6.66667Z" fill="#8C6345"/>
<path d="M3130 5H3135V10H3130V5Z" fill="#8C6345"/>
<path d="M3135 5H3140V10H3135V5Z" fill="#8C6345"/>
<path d="M3140 0H3145V10H3140V0Z" fill="#8C6345"/>
<path d="M3145 0H3150V10H3145V0Z" fill="#8C6345"/>
<path d="M3155 0H3160V10H3155V0Z" fill="#8C6345"/>
<path d="M3160 5H3165V10H3160V5Z" fill="#8C6345"/>
<path d="M3165 6.66667H3170V10H3165V6.66667Z" fill="#8C6345"/>
<path d="M3170 0H3175V10H3170V0Z" fill="#8C6345"/>
<path d="M3175 0H3180V10H3175V0Z" fill="#8C6345"/>
<path d="M3195 0H3200V10H3195V0Z" fill="#8C6345"/>
<path d="M3200 0H3205V10H3200V0Z" fill="#8C6345"/>
<path d="M3235 0H3240V10H3235V0Z" fill="#8C6345"/>
<path d="M3275 0H3280V10H3275V0Z" fill="#8C6345"/>
<path d="M3350 0H3355V10H3350V0Z" fill="#8C6345"/>
<path d="M3410 0H3415V10H3410V0Z" fill="#8C6345"/>
<path d="M3415 5H3420V10H3415V5Z" fill="#8C6345"/>
<path d="M3420 5H3425V10H3420V5Z" fill="#8C6345"/>
<path d="M3425 0H3430V10H3425V0Z" fill="#8C6345"/>
<path d="M3490 0H3495V10H3490V0Z" fill="#8C6345"/>
<path d="M3495 5H3500V10H3495V5Z" fill="#8C6345"/>
<path d="M3580 5H3585V10H3580V5Z" fill="#8C6345"/>
<path d="M3150 -2.42747e-07H3155V10H3150V-2.42747e-07Z" fill="white"/>
<path d="M3180 -2.42747e-07H3185V10H3180V-2.42747e-07Z" fill="white"/>
<path d="M3185 -2.42747e-07H3190V10H3185V-2.42747e-07Z" fill="white"/>
<path d="M3190 -2.42747e-07H3195V10H3190V-2.42747e-07Z" fill="white"/>
<path d="M3205 -2.42747e-07H3210V10H3205V-2.42747e-07Z" fill="white"/>
<path d="M3210 -2.42747e-07H3215V10H3210V-2.42747e-07Z" fill="white"/>
<path d="M3215 -2.42747e-07H3220V10H3215V-2.42747e-07Z" fill="white"/>
<path d="M3220 -2.42747e-07H3225V10H3220V-2.42747e-07Z" fill="white"/>
<path d="M3225 -2.42747e-07H3230V10H3225V-2.42747e-07Z" fill="white"/>
<path d="M3230 -2.42747e-07H3235V10H3230V-2.42747e-07Z" fill="white"/>
<path d="M3245 -2.42747e-07H3250V10H3245V-2.42747e-07Z" fill="white"/>
<path d="M3250 -2.42747e-07H3255V10H3250V-2.42747e-07Z" fill="white"/>
<path d="M3255 -2.42747e-07H3260V10H3255V-2.42747e-07Z" fill="white"/>
<path d="M3260 -2.42747e-07H3265V10H3260V-2.42747e-07Z" fill="white"/>
<path d="M3265 -2.42747e-07H3270V10H3265V-2.42747e-07Z" fill="white"/>
<path d="M3270 -2.42747e-07H3275V10H3270V-2.42747e-07Z" fill="white"/>
<path d="M3285 -2.42747e-07H3290V10H3285V-2.42747e-07Z" fill="white"/>
<path d="M3290 -2.42747e-07H3295V10H3290V-2.42747e-07Z" fill="white"/>
<path d="M3295 -2.42747e-07H3300V10H3295V-2.42747e-07Z" fill="white"/>
<path d="M3300 -2.42747e-07H3305V10H3300V-2.42747e-07Z" fill="white"/>
<path d="M3305 -2.42747e-07H3310V10H3305V-2.42747e-07Z" fill="white"/>
<path d="M3310 -2.42747e-07H3315V10H3310V-2.42747e-07Z" fill="white"/>
<path d="M3315 -2.42747e-07H3320V10H3315V-2.42747e-07Z" fill="white"/>
<path d="M3320 -2.42747e-07H3325V10H3320V-2.42747e-07Z" fill="white"/>
<path d="M3330 -2.42747e-07H3335V10H3330V-2.42747e-07Z" fill="white"/>
<path d="M3335 -2.42747e-07H3340V10H3335V-2.42747e-07Z" fill="white"/>
<path d="M3340 -2.42747e-07H3345V10H3340V-2.42747e-07Z" fill="white"/>
<path d="M3345 -2.42747e-07H3350V10H3345V-2.42747e-07Z" fill="white"/>
<path d="M3355 -2.42747e-07H3360V10H3355V-2.42747e-07Z" fill="white"/>
<path d="M3360 -2.42747e-07H3365V10H3360V-2.42747e-07Z" fill="white"/>
<path d="M3365 -2.42747e-07H3370V10H3365V-2.42747e-07Z" fill="white"/>
<path d="M3370 -2.42747e-07H3375V10H3370V-2.42747e-07Z" fill="white"/>
<path d="M3375 -2.42747e-07H3380V10H3375V-2.42747e-07Z" fill="white"/>
<path d="M3380 -2.42747e-07H3385V10H3380V-2.42747e-07Z" fill="white"/>
<path d="M3385 -2.42747e-07H3390V10H3385V-2.42747e-07Z" fill="white"/>
<path d="M3390 -2.42747e-07H3395V10H3390V-2.42747e-07Z" fill="white"/>
<path d="M3395 -2.42747e-07H3400V10H3395V-2.42747e-07Z" fill="white"/>
<path d="M3400 -2.42747e-07H3405V10H3400V-2.42747e-07Z" fill="white"/>
<path d="M3405 -2.42747e-07H3410V10H3405V-2.42747e-07Z" fill="white"/>
<path d="M3430 -2.42747e-07H3435V10H3430V-2.42747e-07Z" fill="white"/>
<path d="M3435 -2.42747e-07H3440V10H3435V-2.42747e-07Z" fill="white"/>
<path d="M3440 -2.42747e-07H3445V10H3440V-2.42747e-07Z" fill="white"/>
<path d="M3445 -2.42747e-07H3450V10H3445V-2.42747e-07Z" fill="white"/>
<path d="M3450 -2.42747e-07H3455V10H3450V-2.42747e-07Z" fill="white"/>
<path d="M3455 -2.42747e-07H3460V10H3455V-2.42747e-07Z" fill="white"/>
<path d="M3460 -2.42747e-07H3465V10H3460V-2.42747e-07Z" fill="white"/>
<path d="M3465 -2.42747e-07H3470V10H3465V-2.42747e-07Z" fill="white"/>
<path d="M3470 -2.42747e-07H3475V10H3470V-2.42747e-07Z" fill="white"/>
<path d="M3475 -2.42747e-07H3480V10H3475V-2.42747e-07Z" fill="white"/>
<path d="M3480 -2.42747e-07H3485V10H3480V-2.42747e-07Z" fill="white"/>
<path d="M3485 -2.42747e-07H3490V10H3485V-2.42747e-07Z" fill="white"/>
<path d="M3500 -2.42747e-07H3505V10H3500V-2.42747e-07Z" fill="white"/>
<path d="M3505 -2.42747e-07H3510V10H3505V-2.42747e-07Z" fill="white"/>
<path d="M3510 -2.42747e-07H3515V10H3510V-2.42747e-07Z" fill="white"/>
<path d="M3515 -2.42747e-07H3520V10H3515V-2.42747e-07Z" fill="white"/>
<path d="M3520 -2.42747e-07H3525V10H3520V-2.42747e-07Z" fill="white"/>
<path d="M3525 -2.42747e-07H3530V10H3525V-2.42747e-07Z" fill="white"/>
<path d="M3530 -2.42747e-07H3535V10H3530V-2.42747e-07Z" fill="white"/>
<path d="M3535 -2.42747e-07H3540V10H3535V-2.42747e-07Z" fill="white"/>
<path d="M3540 -2.42747e-07H3545V10H3540V-2.42747e-07Z" fill="white"/>
<path d="M3545 -2.42747e-07H3550V10H3545V-2.42747e-07Z" fill="white"/>
<path d="M3550 -2.42747e-07H3555V10H3550V-2.42747e-07Z" fill="white"/>
<path d="M3555 -2.42747e-07H3560V10H3555V-2.42747e-07Z" fill="white"/>
<path d="M3560 -2.42747e-07H3565V10H3560V-2.42747e-07Z" fill="white"/>
<path d="M3565 -2.42747e-07H3570V10H3565V-2.42747e-07Z" fill="white"/>
<path d="M3570 -2.42747e-07H3575V10H3570V-2.42747e-07Z" fill="white"/>
<path d="M3575 -2.42747e-07H3580V10H3575V-2.42747e-07Z" fill="white"/>
</svg>
