<svg width="3650" height="10" viewBox="0 0 3650 10" fill="none" xmlns="http://www.w3.org/2000/svg">
<path d="M65 2.86102e-06H70V10H65V2.86102e-06Z" fill="#FF3D00"/>
<path d="M80 2.86102e-06H85V10H80V2.86102e-06Z" fill="#FF3D00"/>
<path d="M1100 2.86102e-06H1105V10H1100V2.86102e-06Z" fill="#FF3D00"/>
<path d="M1175 2.86102e-06H1180V10H1175V2.86102e-06Z" fill="#FF3D00"/>
<path d="M1220 2.86102e-06H1225V10H1220V2.86102e-06Z" fill="#FF3D00"/>
<path d="M1235 2.86102e-06H1240V10H1235V2.86102e-06Z" fill="#FF3D00"/>
<path d="M1240 2.86102e-06H1245V10H1240V2.86102e-06Z" fill="#FF3D00"/>
<path d="M1245 2.86102e-06H1250V10H1245V2.86102e-06Z" fill="#FF3D00"/>
<path d="M1745 2.86102e-06H1750V10H1745V2.86102e-06Z" fill="#FF3D00"/>
<path d="M1780 2.86102e-06H1785V10H1780V2.86102e-06Z" fill="#FF3D00"/>
<path d="M1830 2.86102e-06H1835V10H1830V2.86102e-06Z" fill="#FF3D00"/>
<path d="M1945 2.86102e-06H1950V10H1945V2.86102e-06Z" fill="#FF3D00"/>
<path d="M1950 2.86102e-06H1955V10H1950V2.86102e-06Z" fill="#FF3D00"/>
<path d="M1980 1.43051e-06H1985V5H1980V1.43051e-06Z" fill="#FF3D00"/>
<path d="M2050 2.86102e-06H2055V10H2050V2.86102e-06Z" fill="#FF3D00"/>
<path d="M2330 2.86102e-06H2335V10H2330V2.86102e-06Z" fill="#FF3D00"/>
<path d="M2440 2.86102e-06H2445V10H2440V2.86102e-06Z" fill="#FF3D00"/>
<path d="M2475 2.86102e-06H2480V10H2475V2.86102e-06Z" fill="#FF3D00"/>
<path d="M2480 2.86102e-06H2485V10H2480V2.86102e-06Z" fill="#FF3D00"/>
<path d="M2495 2.86102e-06H2500V10H2495V2.86102e-06Z" fill="#FF3D00"/>
<path d="M2500 1.12057e-05H2505V3.33334H2500V1.12057e-05Z" fill="#FF3D00"/>
<path d="M2505 2.86102e-06H2510V10H2505V2.86102e-06Z" fill="#FF3D00"/>
<path d="M2510 2.86102e-06H2515V10H2510V2.86102e-06Z" fill="#FF3D00"/>
<path d="M2515 2.86102e-06H2520V10H2515V2.86102e-06Z" fill="#FF3D00"/>
<path d="M2525 2.86102e-06H2530V10H2525V2.86102e-06Z" fill="#FF3D00"/>
<path d="M2535 2.86102e-06H2540V10H2535V2.86102e-06Z" fill="#FF3D00"/>
<path d="M2540 2.86102e-06H2545V10H2540V2.86102e-06Z" fill="#FF3D00"/>
<path d="M2560 2.86102e-06H2565V10H2560V2.86102e-06Z" fill="#FF3D00"/>
<path d="M2570 2.86102e-06H2575V10H2570V2.86102e-06Z" fill="#FF3D00"/>
<path d="M2595 2.86102e-06H2600V10H2595V2.86102e-06Z" fill="#FF3D00"/>
<path d="M2600 2.86102e-06H2605V10H2600V2.86102e-06Z" fill="#FF3D00"/>
<path d="M2610 1.43051e-06H2615V5H2610V1.43051e-06Z" fill="#FF3D00"/>
<path d="M2615 2.86102e-06H2620V10H2615V2.86102e-06Z" fill="#FF3D00"/>
<path d="M2625 2.86102e-06H2630V10H2625V2.86102e-06Z" fill="#FF3D00"/>
<path d="M2640 2.86102e-06H2645V10H2640V2.86102e-06Z" fill="#FF3D00"/>
<path d="M2645 2.86102e-06H2650V10H2645V2.86102e-06Z" fill="#FF3D00"/>
<path d="M2650 2.86102e-06H2655V10H2650V2.86102e-06Z" fill="#FF3D00"/>
<path d="M2670 2.86102e-06H2675V10H2670V2.86102e-06Z" fill="#FF3D00"/>
<path d="M2675 2.86102e-06H2680V10H2675V2.86102e-06Z" fill="#FF3D00"/>
<path d="M2680 2.86102e-06H2685V10H2680V2.86102e-06Z" fill="#FF3D00"/>
<path d="M2685 2.86102e-06H2690V10H2685V2.86102e-06Z" fill="#FF3D00"/>
<path d="M2695 2.86102e-06H2700V10H2695V2.86102e-06Z" fill="#FF3D00"/>
<path d="M2705 2.86102e-06H2710V10H2705V2.86102e-06Z" fill="#FF3D00"/>
<path d="M2710 2.86102e-06H2715V10H2710V2.86102e-06Z" fill="#FF3D00"/>
<path d="M2715 2.86102e-06H2720V10H2715V2.86102e-06Z" fill="#FF3D00"/>
<path d="M2720 2.86102e-06H2725V10H2720V2.86102e-06Z" fill="#FF3D00"/>
<path d="M2725 2.86102e-06H2730V10H2725V2.86102e-06Z" fill="#FF3D00"/>
<path d="M2740 2.86102e-06H2745V10H2740V2.86102e-06Z" fill="#FF3D00"/>
<path d="M2750 2.86102e-06H2755V10H2750V2.86102e-06Z" fill="#FF3D00"/>
<path d="M2755 1.43051e-06H2760V5H2755V1.43051e-06Z" fill="#FF3D00"/>
<path d="M2760 1.43051e-06H2765V5H2760V1.43051e-06Z" fill="#FF3D00"/>
<path d="M2765 1.43051e-06H2770V5H2765V1.43051e-06Z" fill="#FF3D00"/>
<path d="M2770 2.86102e-06H2775V10H2770V2.86102e-06Z" fill="#FF3D00"/>
<path d="M2775 1.43051e-06H2780V5H2775V1.43051e-06Z" fill="#FF3D00"/>
<path d="M2780 2.86102e-06H2785V10H2780V2.86102e-06Z" fill="#FF3D00"/>
<path d="M2785 7.15256e-07H2790V2.5H2785V7.15256e-07Z" fill="#FF3D00"/>
<path d="M2790 7.15256e-07H2795V2.5H2790V7.15256e-07Z" fill="#FF3D00"/>
<path d="M2795 1.43051e-06H2800V5H2795V1.43051e-06Z" fill="#FF3D00"/>
<path d="M2800 1.43051e-06H2805V5H2800V1.43051e-06Z" fill="#FF3D00"/>
<path d="M2805 2.86102e-06H2810V10H2805V2.86102e-06Z" fill="#FF3D00"/>
<path d="M2810 1.43051e-06H2815V5H2810V1.43051e-06Z" fill="#FF3D00"/>
<path d="M2815 1.43051e-06H2820V5H2815V1.43051e-06Z" fill="#FF3D00"/>
<path d="M2820 7.15256e-07H2825V2.5H2820V7.15256e-07Z" fill="#FF3D00"/>
<path d="M2825 2.86102e-06H2830V10H2825V2.86102e-06Z" fill="#FF3D00"/>
<path d="M2830 1.43051e-06H2835V5H2830V1.43051e-06Z" fill="#FF3D00"/>
<path d="M2835 2.86102e-06H2840V10H2835V2.86102e-06Z" fill="#FF3D00"/>
<path d="M2840 2.86102e-06H2845V10H2840V2.86102e-06Z" fill="#FF3D00"/>
<path d="M2845 2.86102e-06H2850V10H2845V2.86102e-06Z" fill="#FF3D00"/>
<path d="M2850 1.43051e-06H2855V5H2850V1.43051e-06Z" fill="#FF3D00"/>
<path d="M2855 2.86102e-06H2860V10H2855V2.86102e-06Z" fill="#FF3D00"/>
<path d="M2860 2.86102e-06H2865V10H2860V2.86102e-06Z" fill="#FF3D00"/>
<path d="M2870 2.86102e-06H2875V10H2870V2.86102e-06Z" fill="#FF3D00"/>
<path d="M2875 2.86102e-06H2880V10H2875V2.86102e-06Z" fill="#FF3D00"/>
<path d="M2880 2.86102e-06H2885V10H2880V2.86102e-06Z" fill="#FF3D00"/>
<path d="M2885 1.43051e-06H2890V5H2885V1.43051e-06Z" fill="#FF3D00"/>
<path d="M2890 1.43051e-06H2895V5H2890V1.43051e-06Z" fill="#FF3D00"/>
<path d="M2895 2.86102e-06H2900V10H2895V2.86102e-06Z" fill="#FF3D00"/>
<path d="M2900 1.43051e-06H2905V5H2900V1.43051e-06Z" fill="#FF3D00"/>
<path d="M2905 1.43051e-06H2910V5H2905V1.43051e-06Z" fill="#FF3D00"/>
<path d="M2910 2.86102e-06H2915V10H2910V2.86102e-06Z" fill="#FF3D00"/>
<path d="M2915 2.86102e-06H2920V10H2915V2.86102e-06Z" fill="#FF3D00"/>
<path d="M2920 2.86102e-06H2925V10H2920V2.86102e-06Z" fill="#FF3D00"/>
<path d="M2925 2.86102e-06H2930V10H2925V2.86102e-06Z" fill="#FF3D00"/>
<path d="M2930 2.86102e-06H2935V10H2930V2.86102e-06Z" fill="#FF3D00"/>
<path d="M2935 2.86102e-06H2940V10H2935V2.86102e-06Z" fill="#FF3D00"/>
<path d="M2940 2.86102e-06H2945V10H2940V2.86102e-06Z" fill="#FF3D00"/>
<path d="M2945 2.86102e-06H2950V10H2945V2.86102e-06Z" fill="#FF3D00"/>
<path d="M2950 2.86102e-06H2955V10H2950V2.86102e-06Z" fill="#FF3D00"/>
<path d="M2955 2.86102e-06H2960V10H2955V2.86102e-06Z" fill="#FF3D00"/>
<path d="M2960 1.43051e-06H2965V5H2960V1.43051e-06Z" fill="#FF3D00"/>
<path d="M2965 2.86102e-06H2970V10H2965V2.86102e-06Z" fill="#FF3D00"/>
<path d="M2970 2.86102e-06H2975V10H2970V2.86102e-06Z" fill="#FF3D00"/>
<path d="M2975 2.86102e-06H2980V10H2975V2.86102e-06Z" fill="#FF3D00"/>
<path d="M2980 2.86102e-06H2985V10H2980V2.86102e-06Z" fill="#FF3D00"/>
<path d="M2985 1.12057e-05H2990V3.33334H2985V1.12057e-05Z" fill="#FF3D00"/>
<path d="M2990 1.12057e-05H2995V3.33334H2990V1.12057e-05Z" fill="#FF3D00"/>
<path d="M2995 1.43051e-06H3000V5H2995V1.43051e-06Z" fill="#FF3D00"/>
<path d="M3000 2.86102e-06H3005V10H3000V2.86102e-06Z" fill="#FF3D00"/>
<path d="M3005 2.86102e-06H3010V10H3005V2.86102e-06Z" fill="#FF3D00"/>
<path d="M3210 2.86102e-06H3215V10H3210V2.86102e-06Z" fill="#FF3D00"/>
<path d="M1980 5H1985V10H1980V5Z" fill="#4ADADA"/>
<path d="M2500 3.33332H2505V6.66666H2500V3.33332Z" fill="#4ADADA"/>
<path d="M2550 2.86102e-06H2555V10H2550V2.86102e-06Z" fill="#4ADADA"/>
<path d="M2610 5H2615V10H2610V5Z" fill="#4ADADA"/>
<path d="M2755 5H2760V10H2755V5Z" fill="#4ADADA"/>
<path d="M2765 5H2770V10H2765V5Z" fill="#4ADADA"/>
<path d="M2775 5H2780V10H2775V5Z" fill="#4ADADA"/>
<path d="M2785 2.5H2790V5H2785V2.5Z" fill="#4ADADA"/>
<path d="M2790 2.5H2795V5H2790V2.5Z" fill="#4ADADA"/>
<path d="M2810 5H2815V10H2810V5Z" fill="#4ADADA"/>
<path d="M2815 5H2820V10H2815V5Z" fill="#4ADADA"/>
<path d="M2820 2.5H2825V5H2820V2.5Z" fill="#4ADADA"/>
<path d="M2830 5H2835V10H2830V5Z" fill="#4ADADA"/>
<path d="M2850 5H2855V10H2850V5Z" fill="#4ADADA"/>
<path d="M2885 5H2890V10H2885V5Z" fill="#4ADADA"/>
<path d="M2890 5H2895V10H2890V5Z" fill="#4ADADA"/>
<path d="M2905 5H2910V10H2905V5Z" fill="#4ADADA"/>
<path d="M2960 5H2965V10H2960V5Z" fill="#4ADADA"/>
<path d="M2985 3.33332H2990V6.66666H2985V3.33332Z" fill="#4ADADA"/>
<path d="M2990 3.33332H2995V6.66666H2990V3.33332Z" fill="#4ADADA"/>
<path d="M2995 5H3000V10H2995V5Z" fill="#4ADADA"/>
<path d="M2530 2.86102e-06H2535V10H2530V2.86102e-06Z" fill="#FF984D"/>
<path d="M2785 5H2790V7.5H2785V5Z" fill="#FF984D"/>
<path d="M2800 5H2805V10H2800V5Z" fill="#FF984D"/>
<path d="M2820 5H2825V7.5H2820V5Z" fill="#FF984D"/>
<path d="M2900 5H2905V10H2900V5Z" fill="#FF984D"/>
<path d="M2985 6.66667H2990V10H2985V6.66667Z" fill="#FF984D"/>
<path d="M2990 6.66667H2995V10H2990V6.66667Z" fill="#FF984D"/>
<path d="M2500 6.66667H2505V10H2500V6.66667Z" fill="#BD4553"/>
<path d="M2790 5H2795V7.5H2790V5Z" fill="#BD4553"/>
<path d="M2795 5H2800V10H2795V5Z" fill="#BD4553"/>
<path d="M2820 7.5H2825V10H2820V7.5Z" fill="#BD4553"/>
<path d="M2760 5H2765V10H2760V5Z" fill="#8C6345"/>
<path d="M2785 7.5H2790V10H2785V7.5Z" fill="#8C6345"/>
<path d="M2790 7.5H2795V10H2790V7.5Z" fill="#8C6345"/>
<path d="M69.9999 3.12496e-06H74.9999V10H69.9999V3.12496e-06Z" fill="white"/>
<path d="M75.0001 3.12496e-06H80.0001V10H75.0001V3.12496e-06Z" fill="white"/>
<path d="M85.0001 3.12496e-06H90.0001V10H85.0001V3.12496e-06Z" fill="white"/>
<path d="M89.9999 3.12496e-06H94.9999V10H89.9999V3.12496e-06Z" fill="white"/>
<path d="M95.0001 3.12496e-06H100V10H95.0001V3.12496e-06Z" fill="white"/>
<path d="M100 3.12496e-06H105V10H100V3.12496e-06Z" fill="white"/>
<path d="M105 3.12496e-06H110V10H105V3.12496e-06Z" fill="white"/>
<path d="M110 3.12496e-06H115V10H110V3.12496e-06Z" fill="white"/>
<path d="M115 3.12496e-06H120V10H115V3.12496e-06Z" fill="white"/>
<path d="M120 3.12496e-06H125V10H120V3.12496e-06Z" fill="white"/>
<path d="M125 3.12496e-06H130V10H125V3.12496e-06Z" fill="white"/>
<path d="M130 3.12496e-06H135V10H130V3.12496e-06Z" fill="white"/>
<path d="M135 3.12496e-06H140V10H135V3.12496e-06Z" fill="white"/>
<path d="M140 3.12496e-06H145V10H140V3.12496e-06Z" fill="white"/>
<path d="M145 3.12496e-06H150V10H145V3.12496e-06Z" fill="white"/>
<path d="M150 3.12496e-06H155V10H150V3.12496e-06Z" fill="white"/>
<path d="M155 3.12496e-06H160V10H155V3.12496e-06Z" fill="white"/>
<path d="M160 3.12496e-06H165V10H160V3.12496e-06Z" fill="white"/>
<path d="M165 3.12496e-06H170V10H165V3.12496e-06Z" fill="white"/>
<path d="M170 3.12496e-06H175V10H170V3.12496e-06Z" fill="white"/>
<path d="M175 3.12496e-06H180V10H175V3.12496e-06Z" fill="white"/>
<path d="M180 3.12496e-06H185V10H180V3.12496e-06Z" fill="white"/>
<path d="M185 3.12496e-06H190V10H185V3.12496e-06Z" fill="white"/>
<path d="M190 3.12496e-06H195V10H190V3.12496e-06Z" fill="white"/>
<path d="M195 3.12496e-06H200V10H195V3.12496e-06Z" fill="white"/>
<path d="M200 3.12496e-06H205V10H200V3.12496e-06Z" fill="white"/>
<path d="M205 3.12496e-06H210V10H205V3.12496e-06Z" fill="white"/>
<path d="M210 3.12496e-06H215V10H210V3.12496e-06Z" fill="white"/>
<path d="M215 3.12496e-06H220V10H215V3.12496e-06Z" fill="white"/>
<path d="M220 3.12496e-06H225V10H220V3.12496e-06Z" fill="white"/>
<path d="M225 3.12496e-06H230V10H225V3.12496e-06Z" fill="white"/>
<path d="M230 3.12496e-06H235V10H230V3.12496e-06Z" fill="white"/>
<path d="M235 3.12496e-06H240V10H235V3.12496e-06Z" fill="white"/>
<path d="M240 3.12496e-06H245V10H240V3.12496e-06Z" fill="white"/>
<path d="M245 3.12496e-06H250V10H245V3.12496e-06Z" fill="white"/>
<path d="M250 3.12496e-06H255V10H250V3.12496e-06Z" fill="white"/>
<path d="M255 3.12496e-06H260V10H255V3.12496e-06Z" fill="white"/>
<path d="M260 3.12496e-06H265V10H260V3.12496e-06Z" fill="white"/>
<path d="M265 3.12496e-06H270V10H265V3.12496e-06Z" fill="white"/>
<path d="M270 3.12496e-06H275V10H270V3.12496e-06Z" fill="white"/>
<path d="M275 3.12496e-06H280V10H275V3.12496e-06Z" fill="white"/>
<path d="M280 3.12496e-06H285V10H280V3.12496e-06Z" fill="white"/>
<path d="M285 3.12496e-06H290V10H285V3.12496e-06Z" fill="white"/>
<path d="M290 3.12496e-06H295V10H290V3.12496e-06Z" fill="white"/>
<path d="M295 3.12496e-06H300V10H295V3.12496e-06Z" fill="white"/>
<path d="M300 3.12496e-06H305V10H300V3.12496e-06Z" fill="white"/>
<path d="M305 3.12496e-06H310V10H305V3.12496e-06Z" fill="white"/>
<path d="M310 3.12496e-06H315V10H310V3.12496e-06Z" fill="white"/>
<path d="M315 3.12496e-06H320V10H315V3.12496e-06Z" fill="white"/>
<path d="M320 3.12496e-06H325V10H320V3.12496e-06Z" fill="white"/>
<path d="M325 3.12496e-06H330V10H325V3.12496e-06Z" fill="white"/>
<path d="M330 3.12496e-06H335V10H330V3.12496e-06Z" fill="white"/>
<path d="M335 3.12496e-06H340V10H335V3.12496e-06Z" fill="white"/>
<path d="M340 3.12496e-06H345V10H340V3.12496e-06Z" fill="white"/>
<path d="M345 3.12496e-06H350V10H345V3.12496e-06Z" fill="white"/>
<path d="M350 3.12496e-06H355V10H350V3.12496e-06Z" fill="white"/>
<path d="M355 3.12496e-06H360V10H355V3.12496e-06Z" fill="white"/>
<path d="M360 3.12496e-06H365V10H360V3.12496e-06Z" fill="white"/>
<path d="M365 3.12496e-06H370V10H365V3.12496e-06Z" fill="white"/>
<path d="M370 3.12496e-06H375V10H370V3.12496e-06Z" fill="white"/>
<path d="M375 3.12496e-06H380V10H375V3.12496e-06Z" fill="white"/>
<path d="M380 3.12496e-06H385V10H380V3.12496e-06Z" fill="white"/>
<path d="M385 3.12496e-06H390V10H385V3.12496e-06Z" fill="white"/>
<path d="M390 3.12496e-06H395V10H390V3.12496e-06Z" fill="white"/>
<path d="M395 3.12496e-06H400V10H395V3.12496e-06Z" fill="white"/>
<path d="M400 3.12496e-06H405V10H400V3.12496e-06Z" fill="white"/>
<path d="M405 3.12496e-06H410V10H405V3.12496e-06Z" fill="white"/>
<path d="M410 3.12496e-06H415V10H410V3.12496e-06Z" fill="white"/>
<path d="M415 3.12496e-06H420V10H415V3.12496e-06Z" fill="white"/>
<path d="M420 3.12496e-06H425V10H420V3.12496e-06Z" fill="white"/>
<path d="M425 3.12496e-06H430V10H425V3.12496e-06Z" fill="white"/>
<path d="M430 3.12496e-06H435V10H430V3.12496e-06Z" fill="white"/>
<path d="M435 3.12496e-06H440V10H435V3.12496e-06Z" fill="white"/>
<path d="M440 3.12496e-06H445V10H440V3.12496e-06Z" fill="white"/>
<path d="M445 3.12496e-06H450V10H445V3.12496e-06Z" fill="white"/>
<path d="M450 3.12496e-06H455V10H450V3.12496e-06Z" fill="white"/>
<path d="M455 3.12496e-06H460V10H455V3.12496e-06Z" fill="white"/>
<path d="M460 3.12496e-06H465V10H460V3.12496e-06Z" fill="white"/>
<path d="M465 3.12496e-06H470V10H465V3.12496e-06Z" fill="white"/>
<path d="M470 3.12496e-06H475V10H470V3.12496e-06Z" fill="white"/>
<path d="M475 3.12496e-06H480V10H475V3.12496e-06Z" fill="white"/>
<path d="M480 3.12496e-06H485V10H480V3.12496e-06Z" fill="white"/>
<path d="M485 3.12496e-06H490V10H485V3.12496e-06Z" fill="white"/>
<path d="M490 3.12496e-06H495V10H490V3.12496e-06Z" fill="white"/>
<path d="M495 3.12496e-06H500V10H495V3.12496e-06Z" fill="white"/>
<path d="M500 3.12496e-06H505V10H500V3.12496e-06Z" fill="white"/>
<path d="M505 3.12496e-06H510V10H505V3.12496e-06Z" fill="white"/>
<path d="M510 3.12496e-06H515V10H510V3.12496e-06Z" fill="white"/>
<path d="M515 3.12496e-06H520V10H515V3.12496e-06Z" fill="white"/>
<path d="M520 3.12496e-06H525V10H520V3.12496e-06Z" fill="white"/>
<path d="M525 3.12496e-06H530V10H525V3.12496e-06Z" fill="white"/>
<path d="M530 3.12496e-06H535V10H530V3.12496e-06Z" fill="white"/>
<path d="M535 3.12496e-06H540V10H535V3.12496e-06Z" fill="white"/>
<path d="M540 3.12496e-06H545V10H540V3.12496e-06Z" fill="white"/>
<path d="M545 3.12496e-06H550V10H545V3.12496e-06Z" fill="white"/>
<path d="M550 3.12496e-06H555V10H550V3.12496e-06Z" fill="white"/>
<path d="M555 3.12496e-06H560V10H555V3.12496e-06Z" fill="white"/>
<path d="M560 3.12496e-06H565V10H560V3.12496e-06Z" fill="white"/>
<path d="M565 3.12496e-06H570V10H565V3.12496e-06Z" fill="white"/>
<path d="M570 3.12496e-06H575V10H570V3.12496e-06Z" fill="white"/>
<path d="M575 3.12496e-06H580V10H575V3.12496e-06Z" fill="white"/>
<path d="M580 3.12496e-06H585V10H580V3.12496e-06Z" fill="white"/>
<path d="M585 3.12496e-06H590V10H585V3.12496e-06Z" fill="white"/>
<path d="M590 3.12496e-06H595V10H590V3.12496e-06Z" fill="white"/>
<path d="M595 3.12496e-06H600V10H595V3.12496e-06Z" fill="white"/>
<path d="M600 3.12496e-06H605V10H600V3.12496e-06Z" fill="white"/>
<path d="M605 3.12496e-06H610V10H605V3.12496e-06Z" fill="white"/>
<path d="M610 3.12496e-06H615V10H610V3.12496e-06Z" fill="white"/>
<path d="M615 3.12496e-06H620V10H615V3.12496e-06Z" fill="white"/>
<path d="M620 3.12496e-06H625V10H620V3.12496e-06Z" fill="white"/>
<path d="M625 3.12496e-06H630V10H625V3.12496e-06Z" fill="white"/>
<path d="M630 3.12496e-06H635V10H630V3.12496e-06Z" fill="white"/>
<path d="M635 3.12496e-06H640V10H635V3.12496e-06Z" fill="white"/>
<path d="M640 3.12496e-06H645V10H640V3.12496e-06Z" fill="white"/>
<path d="M645 3.12496e-06H650V10H645V3.12496e-06Z" fill="white"/>
<path d="M650 3.12496e-06H655V10H650V3.12496e-06Z" fill="white"/>
<path d="M655 3.12496e-06H660V10H655V3.12496e-06Z" fill="white"/>
<path d="M660 3.12496e-06H665V10H660V3.12496e-06Z" fill="white"/>
<path d="M665 3.12496e-06H670V10H665V3.12496e-06Z" fill="white"/>
<path d="M670 3.12496e-06H675V10H670V3.12496e-06Z" fill="white"/>
<path d="M675 3.12496e-06H680V10H675V3.12496e-06Z" fill="white"/>
<path d="M680 3.12496e-06H685V10H680V3.12496e-06Z" fill="white"/>
<path d="M685 3.12496e-06H690V10H685V3.12496e-06Z" fill="white"/>
<path d="M690 3.12496e-06H695V10H690V3.12496e-06Z" fill="white"/>
<path d="M695 3.12496e-06H700V10H695V3.12496e-06Z" fill="white"/>
<path d="M700 3.12496e-06H705V10H700V3.12496e-06Z" fill="white"/>
<path d="M705 3.12496e-06H710V10H705V3.12496e-06Z" fill="white"/>
<path d="M710 3.12496e-06H715V10H710V3.12496e-06Z" fill="white"/>
<path d="M715 3.12496e-06H720V10H715V3.12496e-06Z" fill="white"/>
<path d="M720 3.12496e-06H725V10H720V3.12496e-06Z" fill="white"/>
<path d="M725 3.12496e-06H730V10H725V3.12496e-06Z" fill="white"/>
<path d="M730 3.12496e-06H735V10H730V3.12496e-06Z" fill="white"/>
<path d="M735 3.12496e-06H740V10H735V3.12496e-06Z" fill="white"/>
<path d="M740 3.12496e-06H745V10H740V3.12496e-06Z" fill="white"/>
<path d="M745 3.12496e-06H750V10H745V3.12496e-06Z" fill="white"/>
<path d="M750 3.12496e-06H755V10H750V3.12496e-06Z" fill="white"/>
<path d="M755 3.12496e-06H760V10H755V3.12496e-06Z" fill="white"/>
<path d="M760 3.12496e-06H765V10H760V3.12496e-06Z" fill="white"/>
<path d="M765 3.12496e-06H770V10H765V3.12496e-06Z" fill="white"/>
<path d="M770 3.12496e-06H775V10H770V3.12496e-06Z" fill="white"/>
<path d="M775 3.12496e-06H780V10H775V3.12496e-06Z" fill="white"/>
<path d="M780 3.12496e-06H785V10H780V3.12496e-06Z" fill="white"/>
<path d="M785 3.12496e-06H790V10H785V3.12496e-06Z" fill="white"/>
<path d="M790 3.12496e-06H795V10H790V3.12496e-06Z" fill="white"/>
<path d="M795 3.12496e-06H800V10H795V3.12496e-06Z" fill="white"/>
<path d="M800 3.12496e-06H805V10H800V3.12496e-06Z" fill="white"/>
<path d="M805 3.12496e-06H810V10H805V3.12496e-06Z" fill="white"/>
<path d="M810 3.12496e-06H815V10H810V3.12496e-06Z" fill="white"/>
<path d="M815 3.12496e-06H820V10H815V3.12496e-06Z" fill="white"/>
<path d="M820 3.12496e-06H825V10H820V3.12496e-06Z" fill="white"/>
<path d="M825 3.12496e-06H830V10H825V3.12496e-06Z" fill="white"/>
<path d="M830 3.12496e-06H835V10H830V3.12496e-06Z" fill="white"/>
<path d="M835 3.12496e-06H840V10H835V3.12496e-06Z" fill="white"/>
<path d="M840 3.12496e-06H845V10H840V3.12496e-06Z" fill="white"/>
<path d="M845 3.12496e-06H850V10H845V3.12496e-06Z" fill="white"/>
<path d="M850 3.12496e-06H855V10H850V3.12496e-06Z" fill="white"/>
<path d="M855 3.12496e-06H860V10H855V3.12496e-06Z" fill="white"/>
<path d="M860 3.12496e-06H865V10H860V3.12496e-06Z" fill="white"/>
<path d="M865 3.12496e-06H870V10H865V3.12496e-06Z" fill="white"/>
<path d="M870 3.12496e-06H875V10H870V3.12496e-06Z" fill="white"/>
<path d="M875 3.12496e-06H880V10H875V3.12496e-06Z" fill="white"/>
<path d="M880 3.12496e-06H885V10H880V3.12496e-06Z" fill="white"/>
<path d="M885 3.12496e-06H890V10H885V3.12496e-06Z" fill="white"/>
<path d="M890 3.12496e-06H895V10H890V3.12496e-06Z" fill="white"/>
<path d="M895 3.12496e-06H900V10H895V3.12496e-06Z" fill="white"/>
<path d="M900 3.12496e-06H905V10H900V3.12496e-06Z" fill="white"/>
<path d="M905 3.12496e-06H910V10H905V3.12496e-06Z" fill="white"/>
<path d="M910 3.12496e-06H915V10H910V3.12496e-06Z" fill="white"/>
<path d="M915 3.12496e-06H920V10H915V3.12496e-06Z" fill="white"/>
<path d="M920 3.12496e-06H925V10H920V3.12496e-06Z" fill="white"/>
<path d="M925 3.12496e-06H930V10H925V3.12496e-06Z" fill="white"/>
<path d="M930 3.12496e-06H935V10H930V3.12496e-06Z" fill="white"/>
<path d="M935 3.12496e-06H940V10H935V3.12496e-06Z" fill="white"/>
<path d="M940 3.12496e-06H945V10H940V3.12496e-06Z" fill="white"/>
<path d="M945 3.12496e-06H950V10H945V3.12496e-06Z" fill="white"/>
<path d="M950 3.12496e-06H955V10H950V3.12496e-06Z" fill="white"/>
<path d="M955 3.12496e-06H960V10H955V3.12496e-06Z" fill="white"/>
<path d="M960 3.12496e-06H965V10H960V3.12496e-06Z" fill="white"/>
<path d="M965 3.12496e-06H970V10H965V3.12496e-06Z" fill="white"/>
<path d="M970 3.12496e-06H975V10H970V3.12496e-06Z" fill="white"/>
<path d="M975 3.12496e-06H980V10H975V3.12496e-06Z" fill="white"/>
<path d="M980 3.12496e-06H985V10H980V3.12496e-06Z" fill="white"/>
<path d="M985 3.12496e-06H990V10H985V3.12496e-06Z" fill="white"/>
<path d="M990 3.12496e-06H995V10H990V3.12496e-06Z" fill="white"/>
<path d="M995 3.12496e-06H1000V10H995V3.12496e-06Z" fill="white"/>
<path d="M1000 3.12496e-06H1005V10H1000V3.12496e-06Z" fill="white"/>
<path d="M1005 3.12496e-06H1010V10H1005V3.12496e-06Z" fill="white"/>
<path d="M1010 3.12496e-06H1015V10H1010V3.12496e-06Z" fill="white"/>
<path d="M1015 3.12496e-06H1020V10H1015V3.12496e-06Z" fill="white"/>
<path d="M1020 3.12496e-06H1025V10H1020V3.12496e-06Z" fill="white"/>
<path d="M1025 3.12496e-06H1030V10H1025V3.12496e-06Z" fill="white"/>
<path d="M1030 3.12496e-06H1035V10H1030V3.12496e-06Z" fill="white"/>
<path d="M1035 3.12496e-06H1040V10H1035V3.12496e-06Z" fill="white"/>
<path d="M1040 3.12496e-06H1045V10H1040V3.12496e-06Z" fill="white"/>
<path d="M1045 3.12496e-06H1050V10H1045V3.12496e-06Z" fill="white"/>
<path d="M1050 3.12496e-06H1055V10H1050V3.12496e-06Z" fill="white"/>
<path d="M1055 3.12496e-06H1060V10H1055V3.12496e-06Z" fill="white"/>
<path d="M1060 3.12496e-06H1065V10H1060V3.12496e-06Z" fill="white"/>
<path d="M1065 3.12496e-06H1070V10H1065V3.12496e-06Z" fill="white"/>
<path d="M1070 3.12496e-06H1075V10H1070V3.12496e-06Z" fill="white"/>
<path d="M1075 3.12496e-06H1080V10H1075V3.12496e-06Z" fill="white"/>
<path d="M1080 3.12496e-06H1085V10H1080V3.12496e-06Z" fill="white"/>
<path d="M1085 3.12496e-06H1090V10H1085V3.12496e-06Z" fill="white"/>
<path d="M1090 3.12496e-06H1095V10H1090V3.12496e-06Z" fill="white"/>
<path d="M1095 3.12496e-06H1100V10H1095V3.12496e-06Z" fill="white"/>
<path d="M1105 3.12496e-06H1110V10H1105V3.12496e-06Z" fill="white"/>
<path d="M1110 3.12496e-06H1115V10H1110V3.12496e-06Z" fill="white"/>
<path d="M1115 3.12496e-06H1120V10H1115V3.12496e-06Z" fill="white"/>
<path d="M1120 3.12496e-06H1125V10H1120V3.12496e-06Z" fill="white"/>
<path d="M1125 3.12496e-06H1130V10H1125V3.12496e-06Z" fill="white"/>
<path d="M1130 3.12496e-06H1135V10H1130V3.12496e-06Z" fill="white"/>
<path d="M1135 3.12496e-06H1140V10H1135V3.12496e-06Z" fill="white"/>
<path d="M1140 3.12496e-06H1145V10H1140V3.12496e-06Z" fill="white"/>
<path d="M1145 3.12496e-06H1150V10H1145V3.12496e-06Z" fill="white"/>
<path d="M1150 3.12496e-06H1155V10H1150V3.12496e-06Z" fill="white"/>
<path d="M1155 3.12496e-06H1160V10H1155V3.12496e-06Z" fill="white"/>
<path d="M1160 3.12496e-06H1165V10H1160V3.12496e-06Z" fill="white"/>
<path d="M1165 3.12496e-06H1170V10H1165V3.12496e-06Z" fill="white"/>
<path d="M1170 3.12496e-06H1175V10H1170V3.12496e-06Z" fill="white"/>
<path d="M1180 3.12496e-06H1185V10H1180V3.12496e-06Z" fill="white"/>
<path d="M1185 3.12496e-06H1190V10H1185V3.12496e-06Z" fill="white"/>
<path d="M1190 3.12496e-06H1195V10H1190V3.12496e-06Z" fill="white"/>
<path d="M1195 3.12496e-06H1200V10H1195V3.12496e-06Z" fill="white"/>
<path d="M1200 3.12496e-06H1205V10H1200V3.12496e-06Z" fill="white"/>
<path d="M1205 3.12496e-06H1210V10H1205V3.12496e-06Z" fill="white"/>
<path d="M1210 3.12496e-06H1215V10H1210V3.12496e-06Z" fill="white"/>
<path d="M1215 3.12496e-06H1220V10H1215V3.12496e-06Z" fill="white"/>
<path d="M1225 3.12496e-06H1230V10H1225V3.12496e-06Z" fill="white"/>
<path d="M1230 3.12496e-06H1235V10H1230V3.12496e-06Z" fill="white"/>
<path d="M1250 3.12496e-06H1255V10H1250V3.12496e-06Z" fill="white"/>
<path d="M1255 3.12496e-06H1260V10H1255V3.12496e-06Z" fill="white"/>
<path d="M1260 3.12496e-06H1265V10H1260V3.12496e-06Z" fill="white"/>
<path d="M1265 3.12496e-06H1270V10H1265V3.12496e-06Z" fill="white"/>
<path d="M1270 3.12496e-06H1275V10H1270V3.12496e-06Z" fill="white"/>
<path d="M1275 3.12496e-06H1280V10H1275V3.12496e-06Z" fill="white"/>
<path d="M1280 3.12496e-06H1285V10H1280V3.12496e-06Z" fill="white"/>
<path d="M1285 3.12496e-06H1290V10H1285V3.12496e-06Z" fill="white"/>
<path d="M1290 3.12496e-06H1295V10H1290V3.12496e-06Z" fill="white"/>
<path d="M1295 3.12496e-06H1300V10H1295V3.12496e-06Z" fill="white"/>
<path d="M1300 3.12496e-06H1305V10H1300V3.12496e-06Z" fill="white"/>
<path d="M1305 3.12496e-06H1310V10H1305V3.12496e-06Z" fill="white"/>
<path d="M1310 3.12496e-06H1315V10H1310V3.12496e-06Z" fill="white"/>
<path d="M1315 3.12496e-06H1320V10H1315V3.12496e-06Z" fill="white"/>
<path d="M1320 3.12496e-06H1325V10H1320V3.12496e-06Z" fill="white"/>
<path d="M1325 3.12496e-06H1330V10H1325V3.12496e-06Z" fill="white"/>
<path d="M1330 3.12496e-06H1335V10H1330V3.12496e-06Z" fill="white"/>
<path d="M1335 3.12496e-06H1340V10H1335V3.12496e-06Z" fill="white"/>
<path d="M1340 3.12496e-06H1345V10H1340V3.12496e-06Z" fill="white"/>
<path d="M1345 3.12496e-06H1350V10H1345V3.12496e-06Z" fill="white"/>
<path d="M1350 3.12496e-06H1355V10H1350V3.12496e-06Z" fill="white"/>
<path d="M1355 3.12496e-06H1360V10H1355V3.12496e-06Z" fill="white"/>
<path d="M1360 3.12496e-06H1365V10H1360V3.12496e-06Z" fill="white"/>
<path d="M1365 3.12496e-06H1370V10H1365V3.12496e-06Z" fill="white"/>
<path d="M1370 3.12496e-06H1375V10H1370V3.12496e-06Z" fill="white"/>
<path d="M1375 3.12496e-06H1380V10H1375V3.12496e-06Z" fill="white"/>
<path d="M1380 3.12496e-06H1385V10H1380V3.12496e-06Z" fill="white"/>
<path d="M1385 3.12496e-06H1390V10H1385V3.12496e-06Z" fill="white"/>
<path d="M1390 3.12496e-06H1395V10H1390V3.12496e-06Z" fill="white"/>
<path d="M1395 3.12496e-06H1400V10H1395V3.12496e-06Z" fill="white"/>
<path d="M1400 3.12496e-06H1405V10H1400V3.12496e-06Z" fill="white"/>
<path d="M1405 3.12496e-06H1410V10H1405V3.12496e-06Z" fill="white"/>
<path d="M1410 3.12496e-06H1415V10H1410V3.12496e-06Z" fill="white"/>
<path d="M1415 3.12496e-06H1420V10H1415V3.12496e-06Z" fill="white"/>
<path d="M1420 3.12496e-06H1425V10H1420V3.12496e-06Z" fill="white"/>
<path d="M1425 3.12496e-06H1430V10H1425V3.12496e-06Z" fill="white"/>
<path d="M1430 3.12496e-06H1435V10H1430V3.12496e-06Z" fill="white"/>
<path d="M1435 3.12496e-06H1440V10H1435V3.12496e-06Z" fill="white"/>
<path d="M1440 3.12496e-06H1445V10H1440V3.12496e-06Z" fill="white"/>
<path d="M1445 3.12496e-06H1450V10H1445V3.12496e-06Z" fill="white"/>
<path d="M1450 3.12496e-06H1455V10H1450V3.12496e-06Z" fill="white"/>
<path d="M1455 3.12496e-06H1460V10H1455V3.12496e-06Z" fill="white"/>
<path d="M1460 3.12496e-06H1465V10H1460V3.12496e-06Z" fill="white"/>
<path d="M1465 3.12496e-06H1470V10H1465V3.12496e-06Z" fill="white"/>
<path d="M1470 3.12496e-06H1475V10H1470V3.12496e-06Z" fill="white"/>
<path d="M1475 3.12496e-06H1480V10H1475V3.12496e-06Z" fill="white"/>
<path d="M1480 3.12496e-06H1485V10H1480V3.12496e-06Z" fill="white"/>
<path d="M1485 3.12496e-06H1490V10H1485V3.12496e-06Z" fill="white"/>
<path d="M1490 3.12496e-06H1495V10H1490V3.12496e-06Z" fill="white"/>
<path d="M1495 3.12496e-06H1500V10H1495V3.12496e-06Z" fill="white"/>
<path d="M1500 3.12496e-06H1505V10H1500V3.12496e-06Z" fill="white"/>
<path d="M1505 3.12496e-06H1510V10H1505V3.12496e-06Z" fill="white"/>
<path d="M1510 3.12496e-06H1515V10H1510V3.12496e-06Z" fill="white"/>
<path d="M1515 3.12496e-06H1520V10H1515V3.12496e-06Z" fill="white"/>
<path d="M1520 3.12496e-06H1525V10H1520V3.12496e-06Z" fill="white"/>
<path d="M1525 3.12496e-06H1530V10H1525V3.12496e-06Z" fill="white"/>
<path d="M1530 3.12496e-06H1535V10H1530V3.12496e-06Z" fill="white"/>
<path d="M1535 3.12496e-06H1540V10H1535V3.12496e-06Z" fill="white"/>
<path d="M1540 3.12496e-06H1545V10H1540V3.12496e-06Z" fill="white"/>
<path d="M1545 3.12496e-06H1550V10H1545V3.12496e-06Z" fill="white"/>
<path d="M1550 3.12496e-06H1555V10H1550V3.12496e-06Z" fill="white"/>
<path d="M1555 3.12496e-06H1560V10H1555V3.12496e-06Z" fill="white"/>
<path d="M1560 3.12496e-06H1565V10H1560V3.12496e-06Z" fill="white"/>
<path d="M1565 3.12496e-06H1570V10H1565V3.12496e-06Z" fill="white"/>
<path d="M1570 3.12496e-06H1575V10H1570V3.12496e-06Z" fill="white"/>
<path d="M1575 3.12496e-06H1580V10H1575V3.12496e-06Z" fill="white"/>
<path d="M1580 3.12496e-06H1585V10H1580V3.12496e-06Z" fill="white"/>
<path d="M1585 3.12496e-06H1590V10H1585V3.12496e-06Z" fill="white"/>
<path d="M1590 3.12496e-06H1595V10H1590V3.12496e-06Z" fill="white"/>
<path d="M1595 3.12496e-06H1600V10H1595V3.12496e-06Z" fill="white"/>
<path d="M1600 3.12496e-06H1605V10H1600V3.12496e-06Z" fill="white"/>
<path d="M1605 3.12496e-06H1610V10H1605V3.12496e-06Z" fill="white"/>
<path d="M1610 3.12496e-06H1615V10H1610V3.12496e-06Z" fill="white"/>
<path d="M1615 3.12496e-06H1620V10H1615V3.12496e-06Z" fill="white"/>
<path d="M1620 3.12496e-06H1625V10H1620V3.12496e-06Z" fill="white"/>
<path d="M1625 3.12496e-06H1630V10H1625V3.12496e-06Z" fill="white"/>
<path d="M1630 3.12496e-06H1635V10H1630V3.12496e-06Z" fill="white"/>
<path d="M1635 3.12496e-06H1640V10H1635V3.12496e-06Z" fill="white"/>
<path d="M1640 3.12496e-06H1645V10H1640V3.12496e-06Z" fill="white"/>
<path d="M1645 3.12496e-06H1650V10H1645V3.12496e-06Z" fill="white"/>
<path d="M1650 3.12496e-06H1655V10H1650V3.12496e-06Z" fill="white"/>
<path d="M1655 3.12496e-06H1660V10H1655V3.12496e-06Z" fill="white"/>
<path d="M1660 3.12496e-06H1665V10H1660V3.12496e-06Z" fill="white"/>
<path d="M1665 3.12496e-06H1670V10H1665V3.12496e-06Z" fill="white"/>
<path d="M1670 3.12496e-06H1675V10H1670V3.12496e-06Z" fill="white"/>
<path d="M1675 3.12496e-06H1680V10H1675V3.12496e-06Z" fill="white"/>
<path d="M1680 3.12496e-06H1685V10H1680V3.12496e-06Z" fill="white"/>
<path d="M1685 3.12496e-06H1690V10H1685V3.12496e-06Z" fill="white"/>
<path d="M1690 3.12496e-06H1695V10H1690V3.12496e-06Z" fill="white"/>
<path d="M1695 3.12496e-06H1700V10H1695V3.12496e-06Z" fill="white"/>
<path d="M1700 3.12496e-06H1705V10H1700V3.12496e-06Z" fill="white"/>
<path d="M1705 3.12496e-06H1710V10H1705V3.12496e-06Z" fill="white"/>
<path d="M1710 3.12496e-06H1715V10H1710V3.12496e-06Z" fill="white"/>
<path d="M1715 3.12496e-06H1720V10H1715V3.12496e-06Z" fill="white"/>
<path d="M1720 3.12496e-06H1725V10H1720V3.12496e-06Z" fill="white"/>
<path d="M1725 3.12496e-06H1730V10H1725V3.12496e-06Z" fill="white"/>
<path d="M1730 3.12496e-06H1735V10H1730V3.12496e-06Z" fill="white"/>
<path d="M1735 3.12496e-06H1740V10H1735V3.12496e-06Z" fill="white"/>
<path d="M1740 3.12496e-06H1745V10H1740V3.12496e-06Z" fill="white"/>
<path d="M1750 3.12496e-06H1755V10H1750V3.12496e-06Z" fill="white"/>
<path d="M1755 3.12496e-06H1760V10H1755V3.12496e-06Z" fill="white"/>
<path d="M1760 3.12496e-06H1765V10H1760V3.12496e-06Z" fill="white"/>
<path d="M1765 3.12496e-06H1770V10H1765V3.12496e-06Z" fill="white"/>
<path d="M1770 3.12496e-06H1775V10H1770V3.12496e-06Z" fill="white"/>
<path d="M1775 3.12496e-06H1780V10H1775V3.12496e-06Z" fill="white"/>
<path d="M1785 3.12496e-06H1790V10H1785V3.12496e-06Z" fill="white"/>
<path d="M1790 3.12496e-06H1795V10H1790V3.12496e-06Z" fill="white"/>
<path d="M1795 3.12496e-06H1800V10H1795V3.12496e-06Z" fill="white"/>
<path d="M1800 3.12496e-06H1805V10H1800V3.12496e-06Z" fill="white"/>
<path d="M1805 3.12496e-06H1810V10H1805V3.12496e-06Z" fill="white"/>
<path d="M1810 3.12496e-06H1815V10H1810V3.12496e-06Z" fill="white"/>
<path d="M1815 3.12496e-06H1820V10H1815V3.12496e-06Z" fill="white"/>
<path d="M1820 3.12496e-06H1825V10H1820V3.12496e-06Z" fill="white"/>
<path d="M1825 3.12496e-06H1830V10H1825V3.12496e-06Z" fill="white"/>
<path d="M1835 3.12496e-06H1840V10H1835V3.12496e-06Z" fill="white"/>
<path d="M1840 3.12496e-06H1845V10H1840V3.12496e-06Z" fill="white"/>
<path d="M1845 3.12496e-06H1850V10H1845V3.12496e-06Z" fill="white"/>
<path d="M1850 3.12496e-06H1855V10H1850V3.12496e-06Z" fill="white"/>
<path d="M1855 3.12496e-06H1860V10H1855V3.12496e-06Z" fill="white"/>
<path d="M1860 3.12496e-06H1865V10H1860V3.12496e-06Z" fill="white"/>
<path d="M1865 3.12496e-06H1870V10H1865V3.12496e-06Z" fill="white"/>
<path d="M1870 3.12496e-06H1875V10H1870V3.12496e-06Z" fill="white"/>
<path d="M1875 3.12496e-06H1880V10H1875V3.12496e-06Z" fill="white"/>
<path d="M1880 3.12496e-06H1885V10H1880V3.12496e-06Z" fill="white"/>
<path d="M1885 3.12496e-06H1890V10H1885V3.12496e-06Z" fill="white"/>
<path d="M1890 3.12496e-06H1895V10H1890V3.12496e-06Z" fill="white"/>
<path d="M1895 3.12496e-06H1900V10H1895V3.12496e-06Z" fill="white"/>
<path d="M1900 3.12496e-06H1905V10H1900V3.12496e-06Z" fill="white"/>
<path d="M1905 3.12496e-06H1910V10H1905V3.12496e-06Z" fill="white"/>
<path d="M1910 3.12496e-06H1915V10H1910V3.12496e-06Z" fill="white"/>
<path d="M1915 3.12496e-06H1920V10H1915V3.12496e-06Z" fill="white"/>
<path d="M1920 3.12496e-06H1925V10H1920V3.12496e-06Z" fill="white"/>
<path d="M1925 3.12496e-06H1930V10H1925V3.12496e-06Z" fill="white"/>
<path d="M1930 3.12496e-06H1935V10H1930V3.12496e-06Z" fill="white"/>
<path d="M1935 3.12496e-06H1940V10H1935V3.12496e-06Z" fill="white"/>
<path d="M1940 3.12496e-06H1945V10H1940V3.12496e-06Z" fill="white"/>
<path d="M1955 3.12496e-06H1960V10H1955V3.12496e-06Z" fill="white"/>
<path d="M1960 3.12496e-06H1965V10H1960V3.12496e-06Z" fill="white"/>
<path d="M1965 3.12496e-06H1970V10H1965V3.12496e-06Z" fill="white"/>
<path d="M1970 3.12496e-06H1975V10H1970V3.12496e-06Z" fill="white"/>
<path d="M1975 3.12496e-06H1980V10H1975V3.12496e-06Z" fill="white"/>
<path d="M1985 3.12496e-06H1990V10H1985V3.12496e-06Z" fill="white"/>
<path d="M1990 3.12496e-06H1995V10H1990V3.12496e-06Z" fill="white"/>
<path d="M1995 3.12496e-06H2000V10H1995V3.12496e-06Z" fill="white"/>
<path d="M2000 3.12496e-06H2005V10H2000V3.12496e-06Z" fill="white"/>
<path d="M2005 3.12496e-06H2010V10H2005V3.12496e-06Z" fill="white"/>
<path d="M2010 3.12496e-06H2015V10H2010V3.12496e-06Z" fill="white"/>
<path d="M2015 3.12496e-06H2020V10H2015V3.12496e-06Z" fill="white"/>
<path d="M2020 3.12496e-06H2025V10H2020V3.12496e-06Z" fill="white"/>
<path d="M2025 3.12496e-06H2030V10H2025V3.12496e-06Z" fill="white"/>
<path d="M2030 3.12496e-06H2035V10H2030V3.12496e-06Z" fill="white"/>
<path d="M2035 3.12496e-06H2040V10H2035V3.12496e-06Z" fill="white"/>
<path d="M2040 3.12496e-06H2045V10H2040V3.12496e-06Z" fill="white"/>
<path d="M2045 3.12496e-06H2050V10H2045V3.12496e-06Z" fill="white"/>
<path d="M2055 3.12496e-06H2060V10H2055V3.12496e-06Z" fill="white"/>
<path d="M2060 3.12496e-06H2065V10H2060V3.12496e-06Z" fill="white"/>
<path d="M2065 3.12496e-06H2070V10H2065V3.12496e-06Z" fill="white"/>
<path d="M2070 3.12496e-06H2075V10H2070V3.12496e-06Z" fill="white"/>
<path d="M2075 3.12496e-06H2080V10H2075V3.12496e-06Z" fill="white"/>
<path d="M2080 3.12496e-06H2085V10H2080V3.12496e-06Z" fill="white"/>
<path d="M2085 3.12496e-06H2090V10H2085V3.12496e-06Z" fill="white"/>
<path d="M2090 3.12496e-06H2095V10H2090V3.12496e-06Z" fill="white"/>
<path d="M2095 3.12496e-06H2100V10H2095V3.12496e-06Z" fill="white"/>
<path d="M2100 3.12496e-06H2105V10H2100V3.12496e-06Z" fill="white"/>
<path d="M2105 3.12496e-06H2110V10H2105V3.12496e-06Z" fill="white"/>
<path d="M2110 3.12496e-06H2115V10H2110V3.12496e-06Z" fill="white"/>
<path d="M2115 3.12496e-06H2120V10H2115V3.12496e-06Z" fill="white"/>
<path d="M2120 3.12496e-06H2125V10H2120V3.12496e-06Z" fill="white"/>
<path d="M2125 3.12496e-06H2130V10H2125V3.12496e-06Z" fill="white"/>
<path d="M2130 3.12496e-06H2135V10H2130V3.12496e-06Z" fill="white"/>
<path d="M2135 3.12496e-06H2140V10H2135V3.12496e-06Z" fill="white"/>
<path d="M2140 3.12496e-06H2145V10H2140V3.12496e-06Z" fill="white"/>
<path d="M2145 3.12496e-06H2150V10H2145V3.12496e-06Z" fill="white"/>
<path d="M2150 3.12496e-06H2155V10H2150V3.12496e-06Z" fill="white"/>
<path d="M2155 3.12496e-06H2160V10H2155V3.12496e-06Z" fill="white"/>
<path d="M2160 3.12496e-06H2165V10H2160V3.12496e-06Z" fill="white"/>
<path d="M2165 3.12496e-06H2170V10H2165V3.12496e-06Z" fill="white"/>
<path d="M2170 3.12496e-06H2175V10H2170V3.12496e-06Z" fill="white"/>
<path d="M2175 3.12496e-06H2180V10H2175V3.12496e-06Z" fill="white"/>
<path d="M2180 3.12496e-06H2185V10H2180V3.12496e-06Z" fill="white"/>
<path d="M2185 3.12496e-06H2190V10H2185V3.12496e-06Z" fill="white"/>
<path d="M2190 3.12496e-06H2195V10H2190V3.12496e-06Z" fill="white"/>
<path d="M2195 3.12496e-06H2200V10H2195V3.12496e-06Z" fill="white"/>
<path d="M2200 3.12496e-06H2205V10H2200V3.12496e-06Z" fill="white"/>
<path d="M2205 3.12496e-06H2210V10H2205V3.12496e-06Z" fill="white"/>
<path d="M2210 3.12496e-06H2215V10H2210V3.12496e-06Z" fill="white"/>
<path d="M2215 3.12496e-06H2220V10H2215V3.12496e-06Z" fill="white"/>
<path d="M2220 3.12496e-06H2225V10H2220V3.12496e-06Z" fill="white"/>
<path d="M2225 3.12496e-06H2230V10H2225V3.12496e-06Z" fill="white"/>
<path d="M2230 3.12496e-06H2235V10H2230V3.12496e-06Z" fill="white"/>
<path d="M2235 3.12496e-06H2240V10H2235V3.12496e-06Z" fill="white"/>
<path d="M2240 3.12496e-06H2245V10H2240V3.12496e-06Z" fill="white"/>
<path d="M2245 3.12496e-06H2250V10H2245V3.12496e-06Z" fill="white"/>
<path d="M2250 3.12496e-06H2255V10H2250V3.12496e-06Z" fill="white"/>
<path d="M2255 3.12496e-06H2260V10H2255V3.12496e-06Z" fill="white"/>
<path d="M2260 3.12496e-06H2265V10H2260V3.12496e-06Z" fill="white"/>
<path d="M2265 3.12496e-06H2270V10H2265V3.12496e-06Z" fill="white"/>
<path d="M2270 3.12496e-06H2275V10H2270V3.12496e-06Z" fill="white"/>
<path d="M2275 3.12496e-06H2280V10H2275V3.12496e-06Z" fill="white"/>
<path d="M2280 3.12496e-06H2285V10H2280V3.12496e-06Z" fill="white"/>
<path d="M2285 3.12496e-06H2290V10H2285V3.12496e-06Z" fill="white"/>
<path d="M2290 3.12496e-06H2295V10H2290V3.12496e-06Z" fill="white"/>
<path d="M2295 3.12496e-06H2300V10H2295V3.12496e-06Z" fill="white"/>
<path d="M2300 3.12496e-06H2305V10H2300V3.12496e-06Z" fill="white"/>
<path d="M2305 3.12496e-06H2310V10H2305V3.12496e-06Z" fill="white"/>
<path d="M2310 3.12496e-06H2315V10H2310V3.12496e-06Z" fill="white"/>
<path d="M2315 3.12496e-06H2320V10H2315V3.12496e-06Z" fill="white"/>
<path d="M2320 3.12496e-06H2325V10H2320V3.12496e-06Z" fill="white"/>
<path d="M2325 3.12496e-06H2330V10H2325V3.12496e-06Z" fill="white"/>
<path d="M2335 3.12496e-06H2340V10H2335V3.12496e-06Z" fill="white"/>
<path d="M2340 3.12496e-06H2345V10H2340V3.12496e-06Z" fill="white"/>
<path d="M2345 3.12496e-06H2350V10H2345V3.12496e-06Z" fill="white"/>
<path d="M2350 3.12496e-06H2355V10H2350V3.12496e-06Z" fill="white"/>
<path d="M2355 3.12496e-06H2360V10H2355V3.12496e-06Z" fill="white"/>
<path d="M2360 3.12496e-06H2365V10H2360V3.12496e-06Z" fill="white"/>
<path d="M2365 3.12496e-06H2370V10H2365V3.12496e-06Z" fill="white"/>
<path d="M2370 3.12496e-06H2375V10H2370V3.12496e-06Z" fill="white"/>
<path d="M2375 3.12496e-06H2380V10H2375V3.12496e-06Z" fill="white"/>
<path d="M2380 3.12496e-06H2385V10H2380V3.12496e-06Z" fill="white"/>
<path d="M2385 3.12496e-06H2390V10H2385V3.12496e-06Z" fill="white"/>
<path d="M2390 3.12496e-06H2395V10H2390V3.12496e-06Z" fill="white"/>
<path d="M2395 3.12496e-06H2400V10H2395V3.12496e-06Z" fill="white"/>
<path d="M2400 3.12496e-06H2405V10H2400V3.12496e-06Z" fill="white"/>
<path d="M2405 3.12496e-06H2410V10H2405V3.12496e-06Z" fill="white"/>
<path d="M2410 3.12496e-06H2415V10H2410V3.12496e-06Z" fill="white"/>
<path d="M2415 3.12496e-06H2420V10H2415V3.12496e-06Z" fill="white"/>
<path d="M2420 3.12496e-06H2425V10H2420V3.12496e-06Z" fill="white"/>
<path d="M2425 3.12496e-06H2430V10H2425V3.12496e-06Z" fill="white"/>
<path d="M2430 3.12496e-06H2435V10H2430V3.12496e-06Z" fill="white"/>
<path d="M2435 3.12496e-06H2440V10H2435V3.12496e-06Z" fill="white"/>
<path d="M2445 3.12496e-06H2450V10H2445V3.12496e-06Z" fill="white"/>
<path d="M2450 3.12496e-06H2455V10H2450V3.12496e-06Z" fill="white"/>
<path d="M2455 3.12496e-06H2460V10H2455V3.12496e-06Z" fill="white"/>
<path d="M2460 3.12496e-06H2465V10H2460V3.12496e-06Z" fill="white"/>
<path d="M2465 3.12496e-06H2470V10H2465V3.12496e-06Z" fill="white"/>
<path d="M2470 3.12496e-06H2475V10H2470V3.12496e-06Z" fill="white"/>
<path d="M2485 3.12496e-06H2490V10H2485V3.12496e-06Z" fill="white"/>
<path d="M2490 3.12496e-06H2495V10H2490V3.12496e-06Z" fill="white"/>
<path d="M2520 3.12496e-06H2525V10H2520V3.12496e-06Z" fill="white"/>
<path d="M2545 3.12496e-06H2550V10H2545V3.12496e-06Z" fill="white"/>
<path d="M2555 3.12496e-06H2560V10H2555V3.12496e-06Z" fill="white"/>
<path d="M2565 3.12496e-06H2570V10H2565V3.12496e-06Z" fill="white"/>
<path d="M2575 3.12496e-06H2580V10H2575V3.12496e-06Z" fill="white"/>
<path d="M2580 3.12496e-06H2585V10H2580V3.12496e-06Z" fill="white"/>
<path d="M2585 3.12496e-06H2590V10H2585V3.12496e-06Z" fill="white"/>
<path d="M2590 3.12496e-06H2595V10H2590V3.12496e-06Z" fill="white"/>
<path d="M2605 3.12496e-06H2610V10H2605V3.12496e-06Z" fill="white"/>
<path d="M2620 3.12496e-06H2625V10H2620V3.12496e-06Z" fill="white"/>
<path d="M2630 3.12496e-06H2635V10H2630V3.12496e-06Z" fill="white"/>
<path d="M2635 3.12496e-06H2640V10H2635V3.12496e-06Z" fill="white"/>
<path d="M2655 3.12496e-06H2660V10H2655V3.12496e-06Z" fill="white"/>
<path d="M2660 3.12496e-06H2665V10H2660V3.12496e-06Z" fill="white"/>
<path d="M2665 3.12496e-06H2670V10H2665V3.12496e-06Z" fill="white"/>
<path d="M2690 3.12496e-06H2695V10H2690V3.12496e-06Z" fill="white"/>
<path d="M2700 3.12496e-06H2705V10H2700V3.12496e-06Z" fill="white"/>
<path d="M2730 3.12496e-06H2735V10H2730V3.12496e-06Z" fill="white"/>
<path d="M2735 3.12496e-06H2740V10H2735V3.12496e-06Z" fill="white"/>
<path d="M2745 3.12496e-06H2750V10H2745V3.12496e-06Z" fill="white"/>
<path d="M2865 3.12496e-06H2870V10H2865V3.12496e-06Z" fill="white"/>
<path d="M3010 3.12496e-06H3015V10H3010V3.12496e-06Z" fill="white"/>
<path d="M3015 3.12496e-06H3020V10H3015V3.12496e-06Z" fill="white"/>
<path d="M3020 3.12496e-06H3025V10H3020V3.12496e-06Z" fill="white"/>
<path d="M3025 3.12496e-06H3030V10H3025V3.12496e-06Z" fill="white"/>
<path d="M3030 3.12496e-06H3035V10H3030V3.12496e-06Z" fill="white"/>
<path d="M3035 3.12496e-06H3040V10H3035V3.12496e-06Z" fill="white"/>
<path d="M3040 3.12496e-06H3045V10H3040V3.12496e-06Z" fill="white"/>
<path d="M3045 3.12496e-06H3050V10H3045V3.12496e-06Z" fill="white"/>
<path d="M3050 3.12496e-06H3055V10H3050V3.12496e-06Z" fill="white"/>
<path d="M3055 3.12496e-06H3060V10H3055V3.12496e-06Z" fill="white"/>
<path d="M3060 3.12496e-06H3065V10H3060V3.12496e-06Z" fill="white"/>
<path d="M3065 3.12496e-06H3070V10H3065V3.12496e-06Z" fill="white"/>
<path d="M3070 3.12496e-06H3075V10H3070V3.12496e-06Z" fill="white"/>
<path d="M3075 3.12496e-06H3080V10H3075V3.12496e-06Z" fill="white"/>
<path d="M3080 3.12496e-06H3085V10H3080V3.12496e-06Z" fill="white"/>
<path d="M3085 3.12496e-06H3090V10H3085V3.12496e-06Z" fill="white"/>
<path d="M3090 3.12496e-06H3095V10H3090V3.12496e-06Z" fill="white"/>
<path d="M3095 3.12496e-06H3100V10H3095V3.12496e-06Z" fill="white"/>
<path d="M3100 3.12496e-06H3105V10H3100V3.12496e-06Z" fill="white"/>
<path d="M3105 3.12496e-06H3110V10H3105V3.12496e-06Z" fill="white"/>
<path d="M3110 3.12496e-06H3115V10H3110V3.12496e-06Z" fill="white"/>
<path d="M3115 3.12496e-06H3120V10H3115V3.12496e-06Z" fill="white"/>
<path d="M3120 3.12496e-06H3125V10H3120V3.12496e-06Z" fill="white"/>
<path d="M3125 3.12496e-06H3130V10H3125V3.12496e-06Z" fill="white"/>
<path d="M3130 3.12496e-06H3135V10H3130V3.12496e-06Z" fill="white"/>
<path d="M3135 3.12496e-06H3140V10H3135V3.12496e-06Z" fill="white"/>
<path d="M3140 3.12496e-06H3145V10H3140V3.12496e-06Z" fill="white"/>
<path d="M3145 3.12496e-06H3150V10H3145V3.12496e-06Z" fill="white"/>
<path d="M3150 3.12496e-06H3155V10H3150V3.12496e-06Z" fill="white"/>
<path d="M3155 3.12496e-06H3160V10H3155V3.12496e-06Z" fill="white"/>
<path d="M3160 3.12496e-06H3165V10H3160V3.12496e-06Z" fill="white"/>
<path d="M3165 3.12496e-06H3170V10H3165V3.12496e-06Z" fill="white"/>
<path d="M3170 3.12496e-06H3175V10H3170V3.12496e-06Z" fill="white"/>
<path d="M3175 3.12496e-06H3180V10H3175V3.12496e-06Z" fill="white"/>
<path d="M3180 3.12496e-06H3185V10H3180V3.12496e-06Z" fill="white"/>
<path d="M3185 3.12496e-06H3190V10H3185V3.12496e-06Z" fill="white"/>
<path d="M3190 3.12496e-06H3195V10H3190V3.12496e-06Z" fill="white"/>
<path d="M3195 3.12496e-06H3200V10H3195V3.12496e-06Z" fill="white"/>
<path d="M3200 3.12496e-06H3205V10H3200V3.12496e-06Z" fill="white"/>
<path d="M3205 3.12496e-06H3210V10H3205V3.12496e-06Z" fill="white"/>
</svg>
