<svg width="3650" height="5" viewBox="0 0 3650 5" fill="none" xmlns="http://www.w3.org/2000/svg">
<path d="M65 1.56248e-06H70V5H65V1.56248e-06Z" fill="#FF3D00"/>
<path d="M80 1.56248e-06H85V5H80V1.56248e-06Z" fill="#FF3D00"/>
<path d="M1100 1.56248e-06H1105V5H1100V1.56248e-06Z" fill="#FF3D00"/>
<path d="M1175 1.56248e-06H1180V5H1175V1.56248e-06Z" fill="#FF3D00"/>
<path d="M1220 1.56248e-06H1225V5H1220V1.56248e-06Z" fill="#FF3D00"/>
<path d="M1235 1.56248e-06H1240V5H1235V1.56248e-06Z" fill="#FF3D00"/>
<path d="M1240 1.56248e-06H1245V5H1240V1.56248e-06Z" fill="#FF3D00"/>
<path d="M1245 1.56248e-06H1250V5H1245V1.56248e-06Z" fill="#FF3D00"/>
<path d="M1745 1.56248e-06H1750V5H1745V1.56248e-06Z" fill="#FF3D00"/>
<path d="M1780 1.56248e-06H1785V5H1780V1.56248e-06Z" fill="#FF3D00"/>
<path d="M1830 1.56248e-06H1835V5H1830V1.56248e-06Z" fill="#FF3D00"/>
<path d="M1945 1.56248e-06H1950V5H1945V1.56248e-06Z" fill="#FF3D00"/>
<path d="M1950 1.56248e-06H1955V5H1950V1.56248e-06Z" fill="#FF3D00"/>
<path d="M1980 7.81241e-07H1985V2.5H1980V7.81241e-07Z" fill="#FF3D00"/>
<path d="M2050 1.56248e-06H2055V5H2050V1.56248e-06Z" fill="#FF3D00"/>
<path d="M2330 1.56248e-06H2335V5H2330V1.56248e-06Z" fill="#FF3D00"/>
<path d="M2440 1.56248e-06H2445V5H2440V1.56248e-06Z" fill="#FF3D00"/>
<path d="M2475 1.56248e-06H2480V5H2475V1.56248e-06Z" fill="#FF3D00"/>
<path d="M2480 1.56248e-06H2485V5H2480V1.56248e-06Z" fill="#FF3D00"/>
<path d="M2495 1.56248e-06H2500V5H2495V1.56248e-06Z" fill="#FF3D00"/>
<path d="M2500 5.60709e-06H2505V1.66667H2500V5.60709e-06Z" fill="#FF3D00"/>
<path d="M2505 1.56248e-06H2510V5H2505V1.56248e-06Z" fill="#FF3D00"/>
<path d="M2510 1.56248e-06H2515V5H2510V1.56248e-06Z" fill="#FF3D00"/>
<path d="M2515 1.56248e-06H2520V5H2515V1.56248e-06Z" fill="#FF3D00"/>
<path d="M2525 1.56248e-06H2530V5H2525V1.56248e-06Z" fill="#FF3D00"/>
<path d="M2535 1.56248e-06H2540V5H2535V1.56248e-06Z" fill="#FF3D00"/>
<path d="M2540 1.56248e-06H2545V5H2540V1.56248e-06Z" fill="#FF3D00"/>
<path d="M2560 1.56248e-06H2565V5H2560V1.56248e-06Z" fill="#FF3D00"/>
<path d="M2570 1.56248e-06H2575V5H2570V1.56248e-06Z" fill="#FF3D00"/>
<path d="M2595 1.56248e-06H2600V5H2595V1.56248e-06Z" fill="#FF3D00"/>
<path d="M2600 1.56248e-06H2605V5H2600V1.56248e-06Z" fill="#FF3D00"/>
<path d="M2610 7.81241e-07H2615V2.5H2610V7.81241e-07Z" fill="#FF3D00"/>
<path d="M2615 1.56248e-06H2620V5H2615V1.56248e-06Z" fill="#FF3D00"/>
<path d="M2625 1.56248e-06H2630V5H2625V1.56248e-06Z" fill="#FF3D00"/>
<path d="M2640 1.56248e-06H2645V5H2640V1.56248e-06Z" fill="#FF3D00"/>
<path d="M2645 1.56248e-06H2650V5H2645V1.56248e-06Z" fill="#FF3D00"/>
<path d="M2650 1.56248e-06H2655V5H2650V1.56248e-06Z" fill="#FF3D00"/>
<path d="M2670 1.56248e-06H2675V5H2670V1.56248e-06Z" fill="#FF3D00"/>
<path d="M2675 1.56248e-06H2680V5H2675V1.56248e-06Z" fill="#FF3D00"/>
<path d="M2680 1.56248e-06H2685V5H2680V1.56248e-06Z" fill="#FF3D00"/>
<path d="M2685 1.56248e-06H2690V5H2685V1.56248e-06Z" fill="#FF3D00"/>
<path d="M2695 1.56248e-06H2700V5H2695V1.56248e-06Z" fill="#FF3D00"/>
<path d="M2705 1.56248e-06H2710V5H2705V1.56248e-06Z" fill="#FF3D00"/>
<path d="M2710 1.56248e-06H2715V5H2710V1.56248e-06Z" fill="#FF3D00"/>
<path d="M2715 1.56248e-06H2720V5H2715V1.56248e-06Z" fill="#FF3D00"/>
<path d="M2720 1.56248e-06H2725V5H2720V1.56248e-06Z" fill="#FF3D00"/>
<path d="M2725 1.56248e-06H2730V5H2725V1.56248e-06Z" fill="#FF3D00"/>
<path d="M2740 1.56248e-06H2745V5H2740V1.56248e-06Z" fill="#FF3D00"/>
<path d="M2750 1.56248e-06H2755V5H2750V1.56248e-06Z" fill="#FF3D00"/>
<path d="M2755 7.81241e-07H2760V2.5H2755V7.81241e-07Z" fill="#FF3D00"/>
<path d="M2760 7.81241e-07H2765V2.5H2760V7.81241e-07Z" fill="#FF3D00"/>
<path d="M2765 7.81241e-07H2770V2.5H2765V7.81241e-07Z" fill="#FF3D00"/>
<path d="M2770 1.56248e-06H2775V5H2770V1.56248e-06Z" fill="#FF3D00"/>
<path d="M2775 7.81241e-07H2780V2.5H2775V7.81241e-07Z" fill="#FF3D00"/>
<path d="M2780 1.56248e-06H2785V5H2780V1.56248e-06Z" fill="#FF3D00"/>
<path d="M2785 3.9062e-07H2790V1.25H2785V3.9062e-07Z" fill="#FF3D00"/>
<path d="M2790 3.9062e-07H2795V1.25H2790V3.9062e-07Z" fill="#FF3D00"/>
<path d="M2795 7.81241e-07H2800V2.5H2795V7.81241e-07Z" fill="#FF3D00"/>
<path d="M2800 7.81241e-07H2805V2.5H2800V7.81241e-07Z" fill="#FF3D00"/>
<path d="M2805 1.56248e-06H2810V5H2805V1.56248e-06Z" fill="#FF3D00"/>
<path d="M2810 7.81241e-07H2815V2.5H2810V7.81241e-07Z" fill="#FF3D00"/>
<path d="M2815 7.81241e-07H2820V2.5H2815V7.81241e-07Z" fill="#FF3D00"/>
<path d="M2820 3.9062e-07H2825V1.25H2820V3.9062e-07Z" fill="#FF3D00"/>
<path d="M2825 1.56248e-06H2830V5H2825V1.56248e-06Z" fill="#FF3D00"/>
<path d="M2830 7.81241e-07H2835V2.5H2830V7.81241e-07Z" fill="#FF3D00"/>
<path d="M2835 1.56248e-06H2840V5H2835V1.56248e-06Z" fill="#FF3D00"/>
<path d="M2840 1.56248e-06H2845V5H2840V1.56248e-06Z" fill="#FF3D00"/>
<path d="M2845 1.56248e-06H2850V5H2845V1.56248e-06Z" fill="#FF3D00"/>
<path d="M2850 7.81241e-07H2855V2.5H2850V7.81241e-07Z" fill="#FF3D00"/>
<path d="M2855 1.56248e-06H2860V5H2855V1.56248e-06Z" fill="#FF3D00"/>
<path d="M2860 1.56248e-06H2865V5H2860V1.56248e-06Z" fill="#FF3D00"/>
<path d="M2870 1.56248e-06H2875V5H2870V1.56248e-06Z" fill="#FF3D00"/>
<path d="M2875 1.56248e-06H2880V5H2875V1.56248e-06Z" fill="#FF3D00"/>
<path d="M2880 1.56248e-06H2885V5H2880V1.56248e-06Z" fill="#FF3D00"/>
<path d="M2885 7.81241e-07H2890V2.5H2885V7.81241e-07Z" fill="#FF3D00"/>
<path d="M2890 7.81241e-07H2895V2.5H2890V7.81241e-07Z" fill="#FF3D00"/>
<path d="M2895 1.56248e-06H2900V5H2895V1.56248e-06Z" fill="#FF3D00"/>
<path d="M2900 7.81241e-07H2905V2.5H2900V7.81241e-07Z" fill="#FF3D00"/>
<path d="M2905 7.81241e-07H2910V2.5H2905V7.81241e-07Z" fill="#FF3D00"/>
<path d="M2910 1.56248e-06H2915V5H2910V1.56248e-06Z" fill="#FF3D00"/>
<path d="M2915 1.56248e-06H2920V5H2915V1.56248e-06Z" fill="#FF3D00"/>
<path d="M2920 1.56248e-06H2925V5H2920V1.56248e-06Z" fill="#FF3D00"/>
<path d="M2925 1.56248e-06H2930V5H2925V1.56248e-06Z" fill="#FF3D00"/>
<path d="M2930 1.56248e-06H2935V5H2930V1.56248e-06Z" fill="#FF3D00"/>
<path d="M2935 1.56248e-06H2940V5H2935V1.56248e-06Z" fill="#FF3D00"/>
<path d="M2940 1.56248e-06H2945V5H2940V1.56248e-06Z" fill="#FF3D00"/>
<path d="M2945 1.56248e-06H2950V5H2945V1.56248e-06Z" fill="#FF3D00"/>
<path d="M2950 1.56248e-06H2955V5H2950V1.56248e-06Z" fill="#FF3D00"/>
<path d="M2955 1.56248e-06H2960V5H2955V1.56248e-06Z" fill="#FF3D00"/>
<path d="M2960 7.81241e-07H2965V2.5H2960V7.81241e-07Z" fill="#FF3D00"/>
<path d="M2965 1.56248e-06H2970V5H2965V1.56248e-06Z" fill="#FF3D00"/>
<path d="M2970 1.56248e-06H2975V5H2970V1.56248e-06Z" fill="#FF3D00"/>
<path d="M2975 1.56248e-06H2980V5H2975V1.56248e-06Z" fill="#FF3D00"/>
<path d="M2980 1.56248e-06H2985V5H2980V1.56248e-06Z" fill="#FF3D00"/>
<path d="M2985 5.60709e-06H2990V1.66667H2985V5.60709e-06Z" fill="#FF3D00"/>
<path d="M2990 5.60709e-06H2995V1.66667H2990V5.60709e-06Z" fill="#FF3D00"/>
<path d="M2995 7.81241e-07H3000V2.5H2995V7.81241e-07Z" fill="#FF3D00"/>
<path d="M3000 1.56248e-06H3005V5H3000V1.56248e-06Z" fill="#FF3D00"/>
<path d="M3005 1.56248e-06H3010V5H3005V1.56248e-06Z" fill="#FF3D00"/>
<path d="M3210 1.56248e-06H3215V5H3210V1.56248e-06Z" fill="#FF3D00"/>
<path d="M1980 2.5H1985V5H1980V2.5Z" fill="#4ADADA"/>
<path d="M2500 1.66666H2505V3.33333H2500V1.66666Z" fill="#4ADADA"/>
<path d="M2550 1.56248e-06H2555V5H2550V1.56248e-06Z" fill="#4ADADA"/>
<path d="M2610 2.5H2615V5H2610V2.5Z" fill="#4ADADA"/>
<path d="M2755 2.5H2760V5H2755V2.5Z" fill="#4ADADA"/>
<path d="M2765 2.5H2770V5H2765V2.5Z" fill="#4ADADA"/>
<path d="M2775 2.5H2780V5H2775V2.5Z" fill="#4ADADA"/>
<path d="M2785 1.25H2790V2.5H2785V1.25Z" fill="#4ADADA"/>
<path d="M2790 1.25H2795V2.5H2790V1.25Z" fill="#4ADADA"/>
<path d="M2810 2.5H2815V5H2810V2.5Z" fill="#4ADADA"/>
<path d="M2815 2.5H2820V5H2815V2.5Z" fill="#4ADADA"/>
<path d="M2820 1.25H2825V2.5H2820V1.25Z" fill="#4ADADA"/>
<path d="M2830 2.5H2835V5H2830V2.5Z" fill="#4ADADA"/>
<path d="M2850 2.5H2855V5H2850V2.5Z" fill="#4ADADA"/>
<path d="M2885 2.5H2890V5H2885V2.5Z" fill="#4ADADA"/>
<path d="M2890 2.5H2895V5H2890V2.5Z" fill="#4ADADA"/>
<path d="M2905 2.5H2910V5H2905V2.5Z" fill="#4ADADA"/>
<path d="M2960 2.5H2965V5H2960V2.5Z" fill="#4ADADA"/>
<path d="M2985 1.66666H2990V3.33333H2985V1.66666Z" fill="#4ADADA"/>
<path d="M2990 1.66666H2995V3.33333H2990V1.66666Z" fill="#4ADADA"/>
<path d="M2995 2.5H3000V5H2995V2.5Z" fill="#4ADADA"/>
<path d="M2530 1.56248e-06H2535V5H2530V1.56248e-06Z" fill="#FF984D"/>
<path d="M2785 2.5H2790V3.75H2785V2.5Z" fill="#FF984D"/>
<path d="M2800 2.5H2805V5H2800V2.5Z" fill="#FF984D"/>
<path d="M2820 2.5H2825V3.75H2820V2.5Z" fill="#FF984D"/>
<path d="M2900 2.5H2905V5H2900V2.5Z" fill="#FF984D"/>
<path d="M2985 3.33333H2990V5H2985V3.33333Z" fill="#FF984D"/>
<path d="M2990 3.33333H2995V5H2990V3.33333Z" fill="#FF984D"/>
<path d="M2500 3.33333H2505V5H2500V3.33333Z" fill="#BD4553"/>
<path d="M2790 2.5H2795V3.75H2790V2.5Z" fill="#BD4553"/>
<path d="M2795 2.5H2800V5H2795V2.5Z" fill="#BD4553"/>
<path d="M2820 3.75H2825V5H2820V3.75Z" fill="#BD4553"/>
<path d="M2760 2.5H2765V5H2760V2.5Z" fill="#8C6345"/>
<path d="M2785 3.75H2790V5H2785V3.75Z" fill="#8C6345"/>
<path d="M2790 3.75H2795V5H2790V3.75Z" fill="#8C6345"/>
<path d="M69.9999 1.56248e-06H74.9999V5H69.9999V1.56248e-06Z" fill="#E3DFCF"/>
<path d="M75.0001 1.56248e-06H80.0001V5H75.0001V1.56248e-06Z" fill="#E3DFCF"/>
<path d="M85.0001 1.56248e-06H90.0001V5H85.0001V1.56248e-06Z" fill="#E3DFCF"/>
<path d="M89.9999 1.56248e-06H94.9999V5H89.9999V1.56248e-06Z" fill="#E3DFCF"/>
<path d="M95.0001 1.56248e-06H100V5H95.0001V1.56248e-06Z" fill="#E3DFCF"/>
<path d="M100 1.56248e-06H105V5H100V1.56248e-06Z" fill="#E3DFCF"/>
<path d="M105 1.56248e-06H110V5H105V1.56248e-06Z" fill="#E3DFCF"/>
<path d="M110 1.56248e-06H115V5H110V1.56248e-06Z" fill="#E3DFCF"/>
<path d="M115 1.56248e-06H120V5H115V1.56248e-06Z" fill="#E3DFCF"/>
<path d="M120 1.56248e-06H125V5H120V1.56248e-06Z" fill="#E3DFCF"/>
<path d="M125 1.56248e-06H130V5H125V1.56248e-06Z" fill="#E3DFCF"/>
<path d="M130 1.56248e-06H135V5H130V1.56248e-06Z" fill="#E3DFCF"/>
<path d="M135 1.56248e-06H140V5H135V1.56248e-06Z" fill="#E3DFCF"/>
<path d="M140 1.56248e-06H145V5H140V1.56248e-06Z" fill="#E3DFCF"/>
<path d="M145 1.56248e-06H150V5H145V1.56248e-06Z" fill="#E3DFCF"/>
<path d="M150 1.56248e-06H155V5H150V1.56248e-06Z" fill="#E3DFCF"/>
<path d="M155 1.56248e-06H160V5H155V1.56248e-06Z" fill="#E3DFCF"/>
<path d="M160 1.56248e-06H165V5H160V1.56248e-06Z" fill="#E3DFCF"/>
<path d="M165 1.56248e-06H170V5H165V1.56248e-06Z" fill="#E3DFCF"/>
<path d="M170 1.56248e-06H175V5H170V1.56248e-06Z" fill="#E3DFCF"/>
<path d="M175 1.56248e-06H180V5H175V1.56248e-06Z" fill="#E3DFCF"/>
<path d="M180 1.56248e-06H185V5H180V1.56248e-06Z" fill="#E3DFCF"/>
<path d="M185 1.56248e-06H190V5H185V1.56248e-06Z" fill="#E3DFCF"/>
<path d="M190 1.56248e-06H195V5H190V1.56248e-06Z" fill="#E3DFCF"/>
<path d="M195 1.56248e-06H200V5H195V1.56248e-06Z" fill="#E3DFCF"/>
<path d="M200 1.56248e-06H205V5H200V1.56248e-06Z" fill="#E3DFCF"/>
<path d="M205 1.56248e-06H210V5H205V1.56248e-06Z" fill="#E3DFCF"/>
<path d="M210 1.56248e-06H215V5H210V1.56248e-06Z" fill="#E3DFCF"/>
<path d="M215 1.56248e-06H220V5H215V1.56248e-06Z" fill="#E3DFCF"/>
<path d="M220 1.56248e-06H225V5H220V1.56248e-06Z" fill="#E3DFCF"/>
<path d="M225 1.56248e-06H230V5H225V1.56248e-06Z" fill="#E3DFCF"/>
<path d="M230 1.56248e-06H235V5H230V1.56248e-06Z" fill="#E3DFCF"/>
<path d="M235 1.56248e-06H240V5H235V1.56248e-06Z" fill="#E3DFCF"/>
<path d="M240 1.56248e-06H245V5H240V1.56248e-06Z" fill="#E3DFCF"/>
<path d="M245 1.56248e-06H250V5H245V1.56248e-06Z" fill="#E3DFCF"/>
<path d="M250 1.56248e-06H255V5H250V1.56248e-06Z" fill="#E3DFCF"/>
<path d="M255 1.56248e-06H260V5H255V1.56248e-06Z" fill="#E3DFCF"/>
<path d="M260 1.56248e-06H265V5H260V1.56248e-06Z" fill="#E3DFCF"/>
<path d="M265 1.56248e-06H270V5H265V1.56248e-06Z" fill="#E3DFCF"/>
<path d="M270 1.56248e-06H275V5H270V1.56248e-06Z" fill="#E3DFCF"/>
<path d="M275 1.56248e-06H280V5H275V1.56248e-06Z" fill="#E3DFCF"/>
<path d="M280 1.56248e-06H285V5H280V1.56248e-06Z" fill="#E3DFCF"/>
<path d="M285 1.56248e-06H290V5H285V1.56248e-06Z" fill="#E3DFCF"/>
<path d="M290 1.56248e-06H295V5H290V1.56248e-06Z" fill="#E3DFCF"/>
<path d="M295 1.56248e-06H300V5H295V1.56248e-06Z" fill="#E3DFCF"/>
<path d="M300 1.56248e-06H305V5H300V1.56248e-06Z" fill="#E3DFCF"/>
<path d="M305 1.56248e-06H310V5H305V1.56248e-06Z" fill="#E3DFCF"/>
<path d="M310 1.56248e-06H315V5H310V1.56248e-06Z" fill="#E3DFCF"/>
<path d="M315 1.56248e-06H320V5H315V1.56248e-06Z" fill="#E3DFCF"/>
<path d="M320 1.56248e-06H325V5H320V1.56248e-06Z" fill="#E3DFCF"/>
<path d="M325 1.56248e-06H330V5H325V1.56248e-06Z" fill="#E3DFCF"/>
<path d="M330 1.56248e-06H335V5H330V1.56248e-06Z" fill="#E3DFCF"/>
<path d="M335 1.56248e-06H340V5H335V1.56248e-06Z" fill="#E3DFCF"/>
<path d="M340 1.56248e-06H345V5H340V1.56248e-06Z" fill="#E3DFCF"/>
<path d="M345 1.56248e-06H350V5H345V1.56248e-06Z" fill="#E3DFCF"/>
<path d="M350 1.56248e-06H355V5H350V1.56248e-06Z" fill="#E3DFCF"/>
<path d="M355 1.56248e-06H360V5H355V1.56248e-06Z" fill="#E3DFCF"/>
<path d="M360 1.56248e-06H365V5H360V1.56248e-06Z" fill="#E3DFCF"/>
<path d="M365 1.56248e-06H370V5H365V1.56248e-06Z" fill="#E3DFCF"/>
<path d="M370 1.56248e-06H375V5H370V1.56248e-06Z" fill="#E3DFCF"/>
<path d="M375 1.56248e-06H380V5H375V1.56248e-06Z" fill="#E3DFCF"/>
<path d="M380 1.56248e-06H385V5H380V1.56248e-06Z" fill="#E3DFCF"/>
<path d="M385 1.56248e-06H390V5H385V1.56248e-06Z" fill="#E3DFCF"/>
<path d="M390 1.56248e-06H395V5H390V1.56248e-06Z" fill="#E3DFCF"/>
<path d="M395 1.56248e-06H400V5H395V1.56248e-06Z" fill="#E3DFCF"/>
<path d="M400 1.56248e-06H405V5H400V1.56248e-06Z" fill="#E3DFCF"/>
<path d="M405 1.56248e-06H410V5H405V1.56248e-06Z" fill="#E3DFCF"/>
<path d="M410 1.56248e-06H415V5H410V1.56248e-06Z" fill="#E3DFCF"/>
<path d="M415 1.56248e-06H420V5H415V1.56248e-06Z" fill="#E3DFCF"/>
<path d="M420 1.56248e-06H425V5H420V1.56248e-06Z" fill="#E3DFCF"/>
<path d="M425 1.56248e-06H430V5H425V1.56248e-06Z" fill="#E3DFCF"/>
<path d="M430 1.56248e-06H435V5H430V1.56248e-06Z" fill="#E3DFCF"/>
<path d="M435 1.56248e-06H440V5H435V1.56248e-06Z" fill="#E3DFCF"/>
<path d="M440 1.56248e-06H445V5H440V1.56248e-06Z" fill="#E3DFCF"/>
<path d="M445 1.56248e-06H450V5H445V1.56248e-06Z" fill="#E3DFCF"/>
<path d="M450 1.56248e-06H455V5H450V1.56248e-06Z" fill="#E3DFCF"/>
<path d="M455 1.56248e-06H460V5H455V1.56248e-06Z" fill="#E3DFCF"/>
<path d="M460 1.56248e-06H465V5H460V1.56248e-06Z" fill="#E3DFCF"/>
<path d="M465 1.56248e-06H470V5H465V1.56248e-06Z" fill="#E3DFCF"/>
<path d="M470 1.56248e-06H475V5H470V1.56248e-06Z" fill="#E3DFCF"/>
<path d="M475 1.56248e-06H480V5H475V1.56248e-06Z" fill="#E3DFCF"/>
<path d="M480 1.56248e-06H485V5H480V1.56248e-06Z" fill="#E3DFCF"/>
<path d="M485 1.56248e-06H490V5H485V1.56248e-06Z" fill="#E3DFCF"/>
<path d="M490 1.56248e-06H495V5H490V1.56248e-06Z" fill="#E3DFCF"/>
<path d="M495 1.56248e-06H500V5H495V1.56248e-06Z" fill="#E3DFCF"/>
<path d="M500 1.56248e-06H505V5H500V1.56248e-06Z" fill="#E3DFCF"/>
<path d="M505 1.56248e-06H510V5H505V1.56248e-06Z" fill="#E3DFCF"/>
<path d="M510 1.56248e-06H515V5H510V1.56248e-06Z" fill="#E3DFCF"/>
<path d="M515 1.56248e-06H520V5H515V1.56248e-06Z" fill="#E3DFCF"/>
<path d="M520 1.56248e-06H525V5H520V1.56248e-06Z" fill="#E3DFCF"/>
<path d="M525 1.56248e-06H530V5H525V1.56248e-06Z" fill="#E3DFCF"/>
<path d="M530 1.56248e-06H535V5H530V1.56248e-06Z" fill="#E3DFCF"/>
<path d="M535 1.56248e-06H540V5H535V1.56248e-06Z" fill="#E3DFCF"/>
<path d="M540 1.56248e-06H545V5H540V1.56248e-06Z" fill="#E3DFCF"/>
<path d="M545 1.56248e-06H550V5H545V1.56248e-06Z" fill="#E3DFCF"/>
<path d="M550 1.56248e-06H555V5H550V1.56248e-06Z" fill="#E3DFCF"/>
<path d="M555 1.56248e-06H560V5H555V1.56248e-06Z" fill="#E3DFCF"/>
<path d="M560 1.56248e-06H565V5H560V1.56248e-06Z" fill="#E3DFCF"/>
<path d="M565 1.56248e-06H570V5H565V1.56248e-06Z" fill="#E3DFCF"/>
<path d="M570 1.56248e-06H575V5H570V1.56248e-06Z" fill="#E3DFCF"/>
<path d="M575 1.56248e-06H580V5H575V1.56248e-06Z" fill="#E3DFCF"/>
<path d="M580 1.56248e-06H585V5H580V1.56248e-06Z" fill="#E3DFCF"/>
<path d="M585 1.56248e-06H590V5H585V1.56248e-06Z" fill="#E3DFCF"/>
<path d="M590 1.56248e-06H595V5H590V1.56248e-06Z" fill="#E3DFCF"/>
<path d="M595 1.56248e-06H600V5H595V1.56248e-06Z" fill="#E3DFCF"/>
<path d="M600 1.56248e-06H605V5H600V1.56248e-06Z" fill="#E3DFCF"/>
<path d="M605 1.56248e-06H610V5H605V1.56248e-06Z" fill="#E3DFCF"/>
<path d="M610 1.56248e-06H615V5H610V1.56248e-06Z" fill="#E3DFCF"/>
<path d="M615 1.56248e-06H620V5H615V1.56248e-06Z" fill="#E3DFCF"/>
<path d="M620 1.56248e-06H625V5H620V1.56248e-06Z" fill="#E3DFCF"/>
<path d="M625 1.56248e-06H630V5H625V1.56248e-06Z" fill="#E3DFCF"/>
<path d="M630 1.56248e-06H635V5H630V1.56248e-06Z" fill="#E3DFCF"/>
<path d="M635 1.56248e-06H640V5H635V1.56248e-06Z" fill="#E3DFCF"/>
<path d="M640 1.56248e-06H645V5H640V1.56248e-06Z" fill="#E3DFCF"/>
<path d="M645 1.56248e-06H650V5H645V1.56248e-06Z" fill="#E3DFCF"/>
<path d="M650 1.56248e-06H655V5H650V1.56248e-06Z" fill="#E3DFCF"/>
<path d="M655 1.56248e-06H660V5H655V1.56248e-06Z" fill="#E3DFCF"/>
<path d="M660 1.56248e-06H665V5H660V1.56248e-06Z" fill="#E3DFCF"/>
<path d="M665 1.56248e-06H670V5H665V1.56248e-06Z" fill="#E3DFCF"/>
<path d="M670 1.56248e-06H675V5H670V1.56248e-06Z" fill="#E3DFCF"/>
<path d="M675 1.56248e-06H680V5H675V1.56248e-06Z" fill="#E3DFCF"/>
<path d="M680 1.56248e-06H685V5H680V1.56248e-06Z" fill="#E3DFCF"/>
<path d="M685 1.56248e-06H690V5H685V1.56248e-06Z" fill="#E3DFCF"/>
<path d="M690 1.56248e-06H695V5H690V1.56248e-06Z" fill="#E3DFCF"/>
<path d="M695 1.56248e-06H700V5H695V1.56248e-06Z" fill="#E3DFCF"/>
<path d="M700 1.56248e-06H705V5H700V1.56248e-06Z" fill="#E3DFCF"/>
<path d="M705 1.56248e-06H710V5H705V1.56248e-06Z" fill="#E3DFCF"/>
<path d="M710 1.56248e-06H715V5H710V1.56248e-06Z" fill="#E3DFCF"/>
<path d="M715 1.56248e-06H720V5H715V1.56248e-06Z" fill="#E3DFCF"/>
<path d="M720 1.56248e-06H725V5H720V1.56248e-06Z" fill="#E3DFCF"/>
<path d="M725 1.56248e-06H730V5H725V1.56248e-06Z" fill="#E3DFCF"/>
<path d="M730 1.56248e-06H735V5H730V1.56248e-06Z" fill="#E3DFCF"/>
<path d="M735 1.56248e-06H740V5H735V1.56248e-06Z" fill="#E3DFCF"/>
<path d="M740 1.56248e-06H745V5H740V1.56248e-06Z" fill="#E3DFCF"/>
<path d="M745 1.56248e-06H750V5H745V1.56248e-06Z" fill="#E3DFCF"/>
<path d="M750 1.56248e-06H755V5H750V1.56248e-06Z" fill="#E3DFCF"/>
<path d="M755 1.56248e-06H760V5H755V1.56248e-06Z" fill="#E3DFCF"/>
<path d="M760 1.56248e-06H765V5H760V1.56248e-06Z" fill="#E3DFCF"/>
<path d="M765 1.56248e-06H770V5H765V1.56248e-06Z" fill="#E3DFCF"/>
<path d="M770 1.56248e-06H775V5H770V1.56248e-06Z" fill="#E3DFCF"/>
<path d="M775 1.56248e-06H780V5H775V1.56248e-06Z" fill="#E3DFCF"/>
<path d="M780 1.56248e-06H785V5H780V1.56248e-06Z" fill="#E3DFCF"/>
<path d="M785 1.56248e-06H790V5H785V1.56248e-06Z" fill="#E3DFCF"/>
<path d="M790 1.56248e-06H795V5H790V1.56248e-06Z" fill="#E3DFCF"/>
<path d="M795 1.56248e-06H800V5H795V1.56248e-06Z" fill="#E3DFCF"/>
<path d="M800 1.56248e-06H805V5H800V1.56248e-06Z" fill="#E3DFCF"/>
<path d="M805 1.56248e-06H810V5H805V1.56248e-06Z" fill="#E3DFCF"/>
<path d="M810 1.56248e-06H815V5H810V1.56248e-06Z" fill="#E3DFCF"/>
<path d="M815 1.56248e-06H820V5H815V1.56248e-06Z" fill="#E3DFCF"/>
<path d="M820 1.56248e-06H825V5H820V1.56248e-06Z" fill="#E3DFCF"/>
<path d="M825 1.56248e-06H830V5H825V1.56248e-06Z" fill="#E3DFCF"/>
<path d="M830 1.56248e-06H835V5H830V1.56248e-06Z" fill="#E3DFCF"/>
<path d="M835 1.56248e-06H840V5H835V1.56248e-06Z" fill="#E3DFCF"/>
<path d="M840 1.56248e-06H845V5H840V1.56248e-06Z" fill="#E3DFCF"/>
<path d="M845 1.56248e-06H850V5H845V1.56248e-06Z" fill="#E3DFCF"/>
<path d="M850 1.56248e-06H855V5H850V1.56248e-06Z" fill="#E3DFCF"/>
<path d="M855 1.56248e-06H860V5H855V1.56248e-06Z" fill="#E3DFCF"/>
<path d="M860 1.56248e-06H865V5H860V1.56248e-06Z" fill="#E3DFCF"/>
<path d="M865 1.56248e-06H870V5H865V1.56248e-06Z" fill="#E3DFCF"/>
<path d="M870 1.56248e-06H875V5H870V1.56248e-06Z" fill="#E3DFCF"/>
<path d="M875 1.56248e-06H880V5H875V1.56248e-06Z" fill="#E3DFCF"/>
<path d="M880 1.56248e-06H885V5H880V1.56248e-06Z" fill="#E3DFCF"/>
<path d="M885 1.56248e-06H890V5H885V1.56248e-06Z" fill="#E3DFCF"/>
<path d="M890 1.56248e-06H895V5H890V1.56248e-06Z" fill="#E3DFCF"/>
<path d="M895 1.56248e-06H900V5H895V1.56248e-06Z" fill="#E3DFCF"/>
<path d="M900 1.56248e-06H905V5H900V1.56248e-06Z" fill="#E3DFCF"/>
<path d="M905 1.56248e-06H910V5H905V1.56248e-06Z" fill="#E3DFCF"/>
<path d="M910 1.56248e-06H915V5H910V1.56248e-06Z" fill="#E3DFCF"/>
<path d="M915 1.56248e-06H920V5H915V1.56248e-06Z" fill="#E3DFCF"/>
<path d="M920 1.56248e-06H925V5H920V1.56248e-06Z" fill="#E3DFCF"/>
<path d="M925 1.56248e-06H930V5H925V1.56248e-06Z" fill="#E3DFCF"/>
<path d="M930 1.56248e-06H935V5H930V1.56248e-06Z" fill="#E3DFCF"/>
<path d="M935 1.56248e-06H940V5H935V1.56248e-06Z" fill="#E3DFCF"/>
<path d="M940 1.56248e-06H945V5H940V1.56248e-06Z" fill="#E3DFCF"/>
<path d="M945 1.56248e-06H950V5H945V1.56248e-06Z" fill="#E3DFCF"/>
<path d="M950 1.56248e-06H955V5H950V1.56248e-06Z" fill="#E3DFCF"/>
<path d="M955 1.56248e-06H960V5H955V1.56248e-06Z" fill="#E3DFCF"/>
<path d="M960 1.56248e-06H965V5H960V1.56248e-06Z" fill="#E3DFCF"/>
<path d="M965 1.56248e-06H970V5H965V1.56248e-06Z" fill="#E3DFCF"/>
<path d="M970 1.56248e-06H975V5H970V1.56248e-06Z" fill="#E3DFCF"/>
<path d="M975 1.56248e-06H980V5H975V1.56248e-06Z" fill="#E3DFCF"/>
<path d="M980 1.56248e-06H985V5H980V1.56248e-06Z" fill="#E3DFCF"/>
<path d="M985 1.56248e-06H990V5H985V1.56248e-06Z" fill="#E3DFCF"/>
<path d="M990 1.56248e-06H995V5H990V1.56248e-06Z" fill="#E3DFCF"/>
<path d="M995 1.56248e-06H1000V5H995V1.56248e-06Z" fill="#E3DFCF"/>
<path d="M1000 1.56248e-06H1005V5H1000V1.56248e-06Z" fill="#E3DFCF"/>
<path d="M1005 1.56248e-06H1010V5H1005V1.56248e-06Z" fill="#E3DFCF"/>
<path d="M1010 1.56248e-06H1015V5H1010V1.56248e-06Z" fill="#E3DFCF"/>
<path d="M1015 1.56248e-06H1020V5H1015V1.56248e-06Z" fill="#E3DFCF"/>
<path d="M1020 1.56248e-06H1025V5H1020V1.56248e-06Z" fill="#E3DFCF"/>
<path d="M1025 1.56248e-06H1030V5H1025V1.56248e-06Z" fill="#E3DFCF"/>
<path d="M1030 1.56248e-06H1035V5H1030V1.56248e-06Z" fill="#E3DFCF"/>
<path d="M1035 1.56248e-06H1040V5H1035V1.56248e-06Z" fill="#E3DFCF"/>
<path d="M1040 1.56248e-06H1045V5H1040V1.56248e-06Z" fill="#E3DFCF"/>
<path d="M1045 1.56248e-06H1050V5H1045V1.56248e-06Z" fill="#E3DFCF"/>
<path d="M1050 1.56248e-06H1055V5H1050V1.56248e-06Z" fill="#E3DFCF"/>
<path d="M1055 1.56248e-06H1060V5H1055V1.56248e-06Z" fill="#E3DFCF"/>
<path d="M1060 1.56248e-06H1065V5H1060V1.56248e-06Z" fill="#E3DFCF"/>
<path d="M1065 1.56248e-06H1070V5H1065V1.56248e-06Z" fill="#E3DFCF"/>
<path d="M1070 1.56248e-06H1075V5H1070V1.56248e-06Z" fill="#E3DFCF"/>
<path d="M1075 1.56248e-06H1080V5H1075V1.56248e-06Z" fill="#E3DFCF"/>
<path d="M1080 1.56248e-06H1085V5H1080V1.56248e-06Z" fill="#E3DFCF"/>
<path d="M1085 1.56248e-06H1090V5H1085V1.56248e-06Z" fill="#E3DFCF"/>
<path d="M1090 1.56248e-06H1095V5H1090V1.56248e-06Z" fill="#E3DFCF"/>
<path d="M1095 1.56248e-06H1100V5H1095V1.56248e-06Z" fill="#E3DFCF"/>
<path d="M1105 1.56248e-06H1110V5H1105V1.56248e-06Z" fill="#E3DFCF"/>
<path d="M1110 1.56248e-06H1115V5H1110V1.56248e-06Z" fill="#E3DFCF"/>
<path d="M1115 1.56248e-06H1120V5H1115V1.56248e-06Z" fill="#E3DFCF"/>
<path d="M1120 1.56248e-06H1125V5H1120V1.56248e-06Z" fill="#E3DFCF"/>
<path d="M1125 1.56248e-06H1130V5H1125V1.56248e-06Z" fill="#E3DFCF"/>
<path d="M1130 1.56248e-06H1135V5H1130V1.56248e-06Z" fill="#E3DFCF"/>
<path d="M1135 1.56248e-06H1140V5H1135V1.56248e-06Z" fill="#E3DFCF"/>
<path d="M1140 1.56248e-06H1145V5H1140V1.56248e-06Z" fill="#E3DFCF"/>
<path d="M1145 1.56248e-06H1150V5H1145V1.56248e-06Z" fill="#E3DFCF"/>
<path d="M1150 1.56248e-06H1155V5H1150V1.56248e-06Z" fill="#E3DFCF"/>
<path d="M1155 1.56248e-06H1160V5H1155V1.56248e-06Z" fill="#E3DFCF"/>
<path d="M1160 1.56248e-06H1165V5H1160V1.56248e-06Z" fill="#E3DFCF"/>
<path d="M1165 1.56248e-06H1170V5H1165V1.56248e-06Z" fill="#E3DFCF"/>
<path d="M1170 1.56248e-06H1175V5H1170V1.56248e-06Z" fill="#E3DFCF"/>
<path d="M1180 1.56248e-06H1185V5H1180V1.56248e-06Z" fill="#E3DFCF"/>
<path d="M1185 1.56248e-06H1190V5H1185V1.56248e-06Z" fill="#E3DFCF"/>
<path d="M1190 1.56248e-06H1195V5H1190V1.56248e-06Z" fill="#E3DFCF"/>
<path d="M1195 1.56248e-06H1200V5H1195V1.56248e-06Z" fill="#E3DFCF"/>
<path d="M1200 1.56248e-06H1205V5H1200V1.56248e-06Z" fill="#E3DFCF"/>
<path d="M1205 1.56248e-06H1210V5H1205V1.56248e-06Z" fill="#E3DFCF"/>
<path d="M1210 1.56248e-06H1215V5H1210V1.56248e-06Z" fill="#E3DFCF"/>
<path d="M1215 1.56248e-06H1220V5H1215V1.56248e-06Z" fill="#E3DFCF"/>
<path d="M1225 1.56248e-06H1230V5H1225V1.56248e-06Z" fill="#E3DFCF"/>
<path d="M1230 1.56248e-06H1235V5H1230V1.56248e-06Z" fill="#E3DFCF"/>
<path d="M1250 1.56248e-06H1255V5H1250V1.56248e-06Z" fill="#E3DFCF"/>
<path d="M1255 1.56248e-06H1260V5H1255V1.56248e-06Z" fill="#E3DFCF"/>
<path d="M1260 1.56248e-06H1265V5H1260V1.56248e-06Z" fill="#E3DFCF"/>
<path d="M1265 1.56248e-06H1270V5H1265V1.56248e-06Z" fill="#E3DFCF"/>
<path d="M1270 1.56248e-06H1275V5H1270V1.56248e-06Z" fill="#E3DFCF"/>
<path d="M1275 1.56248e-06H1280V5H1275V1.56248e-06Z" fill="#E3DFCF"/>
<path d="M1280 1.56248e-06H1285V5H1280V1.56248e-06Z" fill="#E3DFCF"/>
<path d="M1285 1.56248e-06H1290V5H1285V1.56248e-06Z" fill="#E3DFCF"/>
<path d="M1290 1.56248e-06H1295V5H1290V1.56248e-06Z" fill="#E3DFCF"/>
<path d="M1295 1.56248e-06H1300V5H1295V1.56248e-06Z" fill="#E3DFCF"/>
<path d="M1300 1.56248e-06H1305V5H1300V1.56248e-06Z" fill="#E3DFCF"/>
<path d="M1305 1.56248e-06H1310V5H1305V1.56248e-06Z" fill="#E3DFCF"/>
<path d="M1310 1.56248e-06H1315V5H1310V1.56248e-06Z" fill="#E3DFCF"/>
<path d="M1315 1.56248e-06H1320V5H1315V1.56248e-06Z" fill="#E3DFCF"/>
<path d="M1320 1.56248e-06H1325V5H1320V1.56248e-06Z" fill="#E3DFCF"/>
<path d="M1325 1.56248e-06H1330V5H1325V1.56248e-06Z" fill="#E3DFCF"/>
<path d="M1330 1.56248e-06H1335V5H1330V1.56248e-06Z" fill="#E3DFCF"/>
<path d="M1335 1.56248e-06H1340V5H1335V1.56248e-06Z" fill="#E3DFCF"/>
<path d="M1340 1.56248e-06H1345V5H1340V1.56248e-06Z" fill="#E3DFCF"/>
<path d="M1345 1.56248e-06H1350V5H1345V1.56248e-06Z" fill="#E3DFCF"/>
<path d="M1350 1.56248e-06H1355V5H1350V1.56248e-06Z" fill="#E3DFCF"/>
<path d="M1355 1.56248e-06H1360V5H1355V1.56248e-06Z" fill="#E3DFCF"/>
<path d="M1360 1.56248e-06H1365V5H1360V1.56248e-06Z" fill="#E3DFCF"/>
<path d="M1365 1.56248e-06H1370V5H1365V1.56248e-06Z" fill="#E3DFCF"/>
<path d="M1370 1.56248e-06H1375V5H1370V1.56248e-06Z" fill="#E3DFCF"/>
<path d="M1375 1.56248e-06H1380V5H1375V1.56248e-06Z" fill="#E3DFCF"/>
<path d="M1380 1.56248e-06H1385V5H1380V1.56248e-06Z" fill="#E3DFCF"/>
<path d="M1385 1.56248e-06H1390V5H1385V1.56248e-06Z" fill="#E3DFCF"/>
<path d="M1390 1.56248e-06H1395V5H1390V1.56248e-06Z" fill="#E3DFCF"/>
<path d="M1395 1.56248e-06H1400V5H1395V1.56248e-06Z" fill="#E3DFCF"/>
<path d="M1400 1.56248e-06H1405V5H1400V1.56248e-06Z" fill="#E3DFCF"/>
<path d="M1405 1.56248e-06H1410V5H1405V1.56248e-06Z" fill="#E3DFCF"/>
<path d="M1410 1.56248e-06H1415V5H1410V1.56248e-06Z" fill="#E3DFCF"/>
<path d="M1415 1.56248e-06H1420V5H1415V1.56248e-06Z" fill="#E3DFCF"/>
<path d="M1420 1.56248e-06H1425V5H1420V1.56248e-06Z" fill="#E3DFCF"/>
<path d="M1425 1.56248e-06H1430V5H1425V1.56248e-06Z" fill="#E3DFCF"/>
<path d="M1430 1.56248e-06H1435V5H1430V1.56248e-06Z" fill="#E3DFCF"/>
<path d="M1435 1.56248e-06H1440V5H1435V1.56248e-06Z" fill="#E3DFCF"/>
<path d="M1440 1.56248e-06H1445V5H1440V1.56248e-06Z" fill="#E3DFCF"/>
<path d="M1445 1.56248e-06H1450V5H1445V1.56248e-06Z" fill="#E3DFCF"/>
<path d="M1450 1.56248e-06H1455V5H1450V1.56248e-06Z" fill="#E3DFCF"/>
<path d="M1455 1.56248e-06H1460V5H1455V1.56248e-06Z" fill="#E3DFCF"/>
<path d="M1460 1.56248e-06H1465V5H1460V1.56248e-06Z" fill="#E3DFCF"/>
<path d="M1465 1.56248e-06H1470V5H1465V1.56248e-06Z" fill="#E3DFCF"/>
<path d="M1470 1.56248e-06H1475V5H1470V1.56248e-06Z" fill="#E3DFCF"/>
<path d="M1475 1.56248e-06H1480V5H1475V1.56248e-06Z" fill="#E3DFCF"/>
<path d="M1480 1.56248e-06H1485V5H1480V1.56248e-06Z" fill="#E3DFCF"/>
<path d="M1485 1.56248e-06H1490V5H1485V1.56248e-06Z" fill="#E3DFCF"/>
<path d="M1490 1.56248e-06H1495V5H1490V1.56248e-06Z" fill="#E3DFCF"/>
<path d="M1495 1.56248e-06H1500V5H1495V1.56248e-06Z" fill="#E3DFCF"/>
<path d="M1500 1.56248e-06H1505V5H1500V1.56248e-06Z" fill="#E3DFCF"/>
<path d="M1505 1.56248e-06H1510V5H1505V1.56248e-06Z" fill="#E3DFCF"/>
<path d="M1510 1.56248e-06H1515V5H1510V1.56248e-06Z" fill="#E3DFCF"/>
<path d="M1515 1.56248e-06H1520V5H1515V1.56248e-06Z" fill="#E3DFCF"/>
<path d="M1520 1.56248e-06H1525V5H1520V1.56248e-06Z" fill="#E3DFCF"/>
<path d="M1525 1.56248e-06H1530V5H1525V1.56248e-06Z" fill="#E3DFCF"/>
<path d="M1530 1.56248e-06H1535V5H1530V1.56248e-06Z" fill="#E3DFCF"/>
<path d="M1535 1.56248e-06H1540V5H1535V1.56248e-06Z" fill="#E3DFCF"/>
<path d="M1540 1.56248e-06H1545V5H1540V1.56248e-06Z" fill="#E3DFCF"/>
<path d="M1545 1.56248e-06H1550V5H1545V1.56248e-06Z" fill="#E3DFCF"/>
<path d="M1550 1.56248e-06H1555V5H1550V1.56248e-06Z" fill="#E3DFCF"/>
<path d="M1555 1.56248e-06H1560V5H1555V1.56248e-06Z" fill="#E3DFCF"/>
<path d="M1560 1.56248e-06H1565V5H1560V1.56248e-06Z" fill="#E3DFCF"/>
<path d="M1565 1.56248e-06H1570V5H1565V1.56248e-06Z" fill="#E3DFCF"/>
<path d="M1570 1.56248e-06H1575V5H1570V1.56248e-06Z" fill="#E3DFCF"/>
<path d="M1575 1.56248e-06H1580V5H1575V1.56248e-06Z" fill="#E3DFCF"/>
<path d="M1580 1.56248e-06H1585V5H1580V1.56248e-06Z" fill="#E3DFCF"/>
<path d="M1585 1.56248e-06H1590V5H1585V1.56248e-06Z" fill="#E3DFCF"/>
<path d="M1590 1.56248e-06H1595V5H1590V1.56248e-06Z" fill="#E3DFCF"/>
<path d="M1595 1.56248e-06H1600V5H1595V1.56248e-06Z" fill="#E3DFCF"/>
<path d="M1600 1.56248e-06H1605V5H1600V1.56248e-06Z" fill="#E3DFCF"/>
<path d="M1605 1.56248e-06H1610V5H1605V1.56248e-06Z" fill="#E3DFCF"/>
<path d="M1610 1.56248e-06H1615V5H1610V1.56248e-06Z" fill="#E3DFCF"/>
<path d="M1615 1.56248e-06H1620V5H1615V1.56248e-06Z" fill="#E3DFCF"/>
<path d="M1620 1.56248e-06H1625V5H1620V1.56248e-06Z" fill="#E3DFCF"/>
<path d="M1625 1.56248e-06H1630V5H1625V1.56248e-06Z" fill="#E3DFCF"/>
<path d="M1630 1.56248e-06H1635V5H1630V1.56248e-06Z" fill="#E3DFCF"/>
<path d="M1635 1.56248e-06H1640V5H1635V1.56248e-06Z" fill="#E3DFCF"/>
<path d="M1640 1.56248e-06H1645V5H1640V1.56248e-06Z" fill="#E3DFCF"/>
<path d="M1645 1.56248e-06H1650V5H1645V1.56248e-06Z" fill="#E3DFCF"/>
<path d="M1650 1.56248e-06H1655V5H1650V1.56248e-06Z" fill="#E3DFCF"/>
<path d="M1655 1.56248e-06H1660V5H1655V1.56248e-06Z" fill="#E3DFCF"/>
<path d="M1660 1.56248e-06H1665V5H1660V1.56248e-06Z" fill="#E3DFCF"/>
<path d="M1665 1.56248e-06H1670V5H1665V1.56248e-06Z" fill="#E3DFCF"/>
<path d="M1670 1.56248e-06H1675V5H1670V1.56248e-06Z" fill="#E3DFCF"/>
<path d="M1675 1.56248e-06H1680V5H1675V1.56248e-06Z" fill="#E3DFCF"/>
<path d="M1680 1.56248e-06H1685V5H1680V1.56248e-06Z" fill="#E3DFCF"/>
<path d="M1685 1.56248e-06H1690V5H1685V1.56248e-06Z" fill="#E3DFCF"/>
<path d="M1690 1.56248e-06H1695V5H1690V1.56248e-06Z" fill="#E3DFCF"/>
<path d="M1695 1.56248e-06H1700V5H1695V1.56248e-06Z" fill="#E3DFCF"/>
<path d="M1700 1.56248e-06H1705V5H1700V1.56248e-06Z" fill="#E3DFCF"/>
<path d="M1705 1.56248e-06H1710V5H1705V1.56248e-06Z" fill="#E3DFCF"/>
<path d="M1710 1.56248e-06H1715V5H1710V1.56248e-06Z" fill="#E3DFCF"/>
<path d="M1715 1.56248e-06H1720V5H1715V1.56248e-06Z" fill="#E3DFCF"/>
<path d="M1720 1.56248e-06H1725V5H1720V1.56248e-06Z" fill="#E3DFCF"/>
<path d="M1725 1.56248e-06H1730V5H1725V1.56248e-06Z" fill="#E3DFCF"/>
<path d="M1730 1.56248e-06H1735V5H1730V1.56248e-06Z" fill="#E3DFCF"/>
<path d="M1735 1.56248e-06H1740V5H1735V1.56248e-06Z" fill="#E3DFCF"/>
<path d="M1740 1.56248e-06H1745V5H1740V1.56248e-06Z" fill="#E3DFCF"/>
<path d="M1750 1.56248e-06H1755V5H1750V1.56248e-06Z" fill="#E3DFCF"/>
<path d="M1755 1.56248e-06H1760V5H1755V1.56248e-06Z" fill="#E3DFCF"/>
<path d="M1760 1.56248e-06H1765V5H1760V1.56248e-06Z" fill="#E3DFCF"/>
<path d="M1765 1.56248e-06H1770V5H1765V1.56248e-06Z" fill="#E3DFCF"/>
<path d="M1770 1.56248e-06H1775V5H1770V1.56248e-06Z" fill="#E3DFCF"/>
<path d="M1775 1.56248e-06H1780V5H1775V1.56248e-06Z" fill="#E3DFCF"/>
<path d="M1785 1.56248e-06H1790V5H1785V1.56248e-06Z" fill="#E3DFCF"/>
<path d="M1790 1.56248e-06H1795V5H1790V1.56248e-06Z" fill="#E3DFCF"/>
<path d="M1795 1.56248e-06H1800V5H1795V1.56248e-06Z" fill="#E3DFCF"/>
<path d="M1800 1.56248e-06H1805V5H1800V1.56248e-06Z" fill="#E3DFCF"/>
<path d="M1805 1.56248e-06H1810V5H1805V1.56248e-06Z" fill="#E3DFCF"/>
<path d="M1810 1.56248e-06H1815V5H1810V1.56248e-06Z" fill="#E3DFCF"/>
<path d="M1815 1.56248e-06H1820V5H1815V1.56248e-06Z" fill="#E3DFCF"/>
<path d="M1820 1.56248e-06H1825V5H1820V1.56248e-06Z" fill="#E3DFCF"/>
<path d="M1825 1.56248e-06H1830V5H1825V1.56248e-06Z" fill="#E3DFCF"/>
<path d="M1835 1.56248e-06H1840V5H1835V1.56248e-06Z" fill="#E3DFCF"/>
<path d="M1840 1.56248e-06H1845V5H1840V1.56248e-06Z" fill="#E3DFCF"/>
<path d="M1845 1.56248e-06H1850V5H1845V1.56248e-06Z" fill="#E3DFCF"/>
<path d="M1850 1.56248e-06H1855V5H1850V1.56248e-06Z" fill="#E3DFCF"/>
<path d="M1855 1.56248e-06H1860V5H1855V1.56248e-06Z" fill="#E3DFCF"/>
<path d="M1860 1.56248e-06H1865V5H1860V1.56248e-06Z" fill="#E3DFCF"/>
<path d="M1865 1.56248e-06H1870V5H1865V1.56248e-06Z" fill="#E3DFCF"/>
<path d="M1870 1.56248e-06H1875V5H1870V1.56248e-06Z" fill="#E3DFCF"/>
<path d="M1875 1.56248e-06H1880V5H1875V1.56248e-06Z" fill="#E3DFCF"/>
<path d="M1880 1.56248e-06H1885V5H1880V1.56248e-06Z" fill="#E3DFCF"/>
<path d="M1885 1.56248e-06H1890V5H1885V1.56248e-06Z" fill="#E3DFCF"/>
<path d="M1890 1.56248e-06H1895V5H1890V1.56248e-06Z" fill="#E3DFCF"/>
<path d="M1895 1.56248e-06H1900V5H1895V1.56248e-06Z" fill="#E3DFCF"/>
<path d="M1900 1.56248e-06H1905V5H1900V1.56248e-06Z" fill="#E3DFCF"/>
<path d="M1905 1.56248e-06H1910V5H1905V1.56248e-06Z" fill="#E3DFCF"/>
<path d="M1910 1.56248e-06H1915V5H1910V1.56248e-06Z" fill="#E3DFCF"/>
<path d="M1915 1.56248e-06H1920V5H1915V1.56248e-06Z" fill="#E3DFCF"/>
<path d="M1920 1.56248e-06H1925V5H1920V1.56248e-06Z" fill="#E3DFCF"/>
<path d="M1925 1.56248e-06H1930V5H1925V1.56248e-06Z" fill="#E3DFCF"/>
<path d="M1930 1.56248e-06H1935V5H1930V1.56248e-06Z" fill="#E3DFCF"/>
<path d="M1935 1.56248e-06H1940V5H1935V1.56248e-06Z" fill="#E3DFCF"/>
<path d="M1940 1.56248e-06H1945V5H1940V1.56248e-06Z" fill="#E3DFCF"/>
<path d="M1955 1.56248e-06H1960V5H1955V1.56248e-06Z" fill="#E3DFCF"/>
<path d="M1960 1.56248e-06H1965V5H1960V1.56248e-06Z" fill="#E3DFCF"/>
<path d="M1965 1.56248e-06H1970V5H1965V1.56248e-06Z" fill="#E3DFCF"/>
<path d="M1970 1.56248e-06H1975V5H1970V1.56248e-06Z" fill="#E3DFCF"/>
<path d="M1975 1.56248e-06H1980V5H1975V1.56248e-06Z" fill="#E3DFCF"/>
<path d="M1985 1.56248e-06H1990V5H1985V1.56248e-06Z" fill="#E3DFCF"/>
<path d="M1990 1.56248e-06H1995V5H1990V1.56248e-06Z" fill="#E3DFCF"/>
<path d="M1995 1.56248e-06H2000V5H1995V1.56248e-06Z" fill="#E3DFCF"/>
<path d="M2000 1.56248e-06H2005V5H2000V1.56248e-06Z" fill="#E3DFCF"/>
<path d="M2005 1.56248e-06H2010V5H2005V1.56248e-06Z" fill="#E3DFCF"/>
<path d="M2010 1.56248e-06H2015V5H2010V1.56248e-06Z" fill="#E3DFCF"/>
<path d="M2015 1.56248e-06H2020V5H2015V1.56248e-06Z" fill="#E3DFCF"/>
<path d="M2020 1.56248e-06H2025V5H2020V1.56248e-06Z" fill="#E3DFCF"/>
<path d="M2025 1.56248e-06H2030V5H2025V1.56248e-06Z" fill="#E3DFCF"/>
<path d="M2030 1.56248e-06H2035V5H2030V1.56248e-06Z" fill="#E3DFCF"/>
<path d="M2035 1.56248e-06H2040V5H2035V1.56248e-06Z" fill="#E3DFCF"/>
<path d="M2040 1.56248e-06H2045V5H2040V1.56248e-06Z" fill="#E3DFCF"/>
<path d="M2045 1.56248e-06H2050V5H2045V1.56248e-06Z" fill="#E3DFCF"/>
<path d="M2055 1.56248e-06H2060V5H2055V1.56248e-06Z" fill="#E3DFCF"/>
<path d="M2060 1.56248e-06H2065V5H2060V1.56248e-06Z" fill="#E3DFCF"/>
<path d="M2065 1.56248e-06H2070V5H2065V1.56248e-06Z" fill="#E3DFCF"/>
<path d="M2070 1.56248e-06H2075V5H2070V1.56248e-06Z" fill="#E3DFCF"/>
<path d="M2075 1.56248e-06H2080V5H2075V1.56248e-06Z" fill="#E3DFCF"/>
<path d="M2080 1.56248e-06H2085V5H2080V1.56248e-06Z" fill="#E3DFCF"/>
<path d="M2085 1.56248e-06H2090V5H2085V1.56248e-06Z" fill="#E3DFCF"/>
<path d="M2090 1.56248e-06H2095V5H2090V1.56248e-06Z" fill="#E3DFCF"/>
<path d="M2095 1.56248e-06H2100V5H2095V1.56248e-06Z" fill="#E3DFCF"/>
<path d="M2100 1.56248e-06H2105V5H2100V1.56248e-06Z" fill="#E3DFCF"/>
<path d="M2105 1.56248e-06H2110V5H2105V1.56248e-06Z" fill="#E3DFCF"/>
<path d="M2110 1.56248e-06H2115V5H2110V1.56248e-06Z" fill="#E3DFCF"/>
<path d="M2115 1.56248e-06H2120V5H2115V1.56248e-06Z" fill="#E3DFCF"/>
<path d="M2120 1.56248e-06H2125V5H2120V1.56248e-06Z" fill="#E3DFCF"/>
<path d="M2125 1.56248e-06H2130V5H2125V1.56248e-06Z" fill="#E3DFCF"/>
<path d="M2130 1.56248e-06H2135V5H2130V1.56248e-06Z" fill="#E3DFCF"/>
<path d="M2135 1.56248e-06H2140V5H2135V1.56248e-06Z" fill="#E3DFCF"/>
<path d="M2140 1.56248e-06H2145V5H2140V1.56248e-06Z" fill="#E3DFCF"/>
<path d="M2145 1.56248e-06H2150V5H2145V1.56248e-06Z" fill="#E3DFCF"/>
<path d="M2150 1.56248e-06H2155V5H2150V1.56248e-06Z" fill="#E3DFCF"/>
<path d="M2155 1.56248e-06H2160V5H2155V1.56248e-06Z" fill="#E3DFCF"/>
<path d="M2160 1.56248e-06H2165V5H2160V1.56248e-06Z" fill="#E3DFCF"/>
<path d="M2165 1.56248e-06H2170V5H2165V1.56248e-06Z" fill="#E3DFCF"/>
<path d="M2170 1.56248e-06H2175V5H2170V1.56248e-06Z" fill="#E3DFCF"/>
<path d="M2175 1.56248e-06H2180V5H2175V1.56248e-06Z" fill="#E3DFCF"/>
<path d="M2180 1.56248e-06H2185V5H2180V1.56248e-06Z" fill="#E3DFCF"/>
<path d="M2185 1.56248e-06H2190V5H2185V1.56248e-06Z" fill="#E3DFCF"/>
<path d="M2190 1.56248e-06H2195V5H2190V1.56248e-06Z" fill="#E3DFCF"/>
<path d="M2195 1.56248e-06H2200V5H2195V1.56248e-06Z" fill="#E3DFCF"/>
<path d="M2200 1.56248e-06H2205V5H2200V1.56248e-06Z" fill="#E3DFCF"/>
<path d="M2205 1.56248e-06H2210V5H2205V1.56248e-06Z" fill="#E3DFCF"/>
<path d="M2210 1.56248e-06H2215V5H2210V1.56248e-06Z" fill="#E3DFCF"/>
<path d="M2215 1.56248e-06H2220V5H2215V1.56248e-06Z" fill="#E3DFCF"/>
<path d="M2220 1.56248e-06H2225V5H2220V1.56248e-06Z" fill="#E3DFCF"/>
<path d="M2225 1.56248e-06H2230V5H2225V1.56248e-06Z" fill="#E3DFCF"/>
<path d="M2230 1.56248e-06H2235V5H2230V1.56248e-06Z" fill="#E3DFCF"/>
<path d="M2235 1.56248e-06H2240V5H2235V1.56248e-06Z" fill="#E3DFCF"/>
<path d="M2240 1.56248e-06H2245V5H2240V1.56248e-06Z" fill="#E3DFCF"/>
<path d="M2245 1.56248e-06H2250V5H2245V1.56248e-06Z" fill="#E3DFCF"/>
<path d="M2250 1.56248e-06H2255V5H2250V1.56248e-06Z" fill="#E3DFCF"/>
<path d="M2255 1.56248e-06H2260V5H2255V1.56248e-06Z" fill="#E3DFCF"/>
<path d="M2260 1.56248e-06H2265V5H2260V1.56248e-06Z" fill="#E3DFCF"/>
<path d="M2265 1.56248e-06H2270V5H2265V1.56248e-06Z" fill="#E3DFCF"/>
<path d="M2270 1.56248e-06H2275V5H2270V1.56248e-06Z" fill="#E3DFCF"/>
<path d="M2275 1.56248e-06H2280V5H2275V1.56248e-06Z" fill="#E3DFCF"/>
<path d="M2280 1.56248e-06H2285V5H2280V1.56248e-06Z" fill="#E3DFCF"/>
<path d="M2285 1.56248e-06H2290V5H2285V1.56248e-06Z" fill="#E3DFCF"/>
<path d="M2290 1.56248e-06H2295V5H2290V1.56248e-06Z" fill="#E3DFCF"/>
<path d="M2295 1.56248e-06H2300V5H2295V1.56248e-06Z" fill="#E3DFCF"/>
<path d="M2300 1.56248e-06H2305V5H2300V1.56248e-06Z" fill="#E3DFCF"/>
<path d="M2305 1.56248e-06H2310V5H2305V1.56248e-06Z" fill="#E3DFCF"/>
<path d="M2310 1.56248e-06H2315V5H2310V1.56248e-06Z" fill="#E3DFCF"/>
<path d="M2315 1.56248e-06H2320V5H2315V1.56248e-06Z" fill="#E3DFCF"/>
<path d="M2320 1.56248e-06H2325V5H2320V1.56248e-06Z" fill="#E3DFCF"/>
<path d="M2325 1.56248e-06H2330V5H2325V1.56248e-06Z" fill="#E3DFCF"/>
<path d="M2335 1.56248e-06H2340V5H2335V1.56248e-06Z" fill="#E3DFCF"/>
<path d="M2340 1.56248e-06H2345V5H2340V1.56248e-06Z" fill="#E3DFCF"/>
<path d="M2345 1.56248e-06H2350V5H2345V1.56248e-06Z" fill="#E3DFCF"/>
<path d="M2350 1.56248e-06H2355V5H2350V1.56248e-06Z" fill="#E3DFCF"/>
<path d="M2355 1.56248e-06H2360V5H2355V1.56248e-06Z" fill="#E3DFCF"/>
<path d="M2360 1.56248e-06H2365V5H2360V1.56248e-06Z" fill="#E3DFCF"/>
<path d="M2365 1.56248e-06H2370V5H2365V1.56248e-06Z" fill="#E3DFCF"/>
<path d="M2370 1.56248e-06H2375V5H2370V1.56248e-06Z" fill="#E3DFCF"/>
<path d="M2375 1.56248e-06H2380V5H2375V1.56248e-06Z" fill="#E3DFCF"/>
<path d="M2380 1.56248e-06H2385V5H2380V1.56248e-06Z" fill="#E3DFCF"/>
<path d="M2385 1.56248e-06H2390V5H2385V1.56248e-06Z" fill="#E3DFCF"/>
<path d="M2390 1.56248e-06H2395V5H2390V1.56248e-06Z" fill="#E3DFCF"/>
<path d="M2395 1.56248e-06H2400V5H2395V1.56248e-06Z" fill="#E3DFCF"/>
<path d="M2400 1.56248e-06H2405V5H2400V1.56248e-06Z" fill="#E3DFCF"/>
<path d="M2405 1.56248e-06H2410V5H2405V1.56248e-06Z" fill="#E3DFCF"/>
<path d="M2410 1.56248e-06H2415V5H2410V1.56248e-06Z" fill="#E3DFCF"/>
<path d="M2415 1.56248e-06H2420V5H2415V1.56248e-06Z" fill="#E3DFCF"/>
<path d="M2420 1.56248e-06H2425V5H2420V1.56248e-06Z" fill="#E3DFCF"/>
<path d="M2425 1.56248e-06H2430V5H2425V1.56248e-06Z" fill="#E3DFCF"/>
<path d="M2430 1.56248e-06H2435V5H2430V1.56248e-06Z" fill="#E3DFCF"/>
<path d="M2435 1.56248e-06H2440V5H2435V1.56248e-06Z" fill="#E3DFCF"/>
<path d="M2445 1.56248e-06H2450V5H2445V1.56248e-06Z" fill="#E3DFCF"/>
<path d="M2450 1.56248e-06H2455V5H2450V1.56248e-06Z" fill="#E3DFCF"/>
<path d="M2455 1.56248e-06H2460V5H2455V1.56248e-06Z" fill="#E3DFCF"/>
<path d="M2460 1.56248e-06H2465V5H2460V1.56248e-06Z" fill="#E3DFCF"/>
<path d="M2465 1.56248e-06H2470V5H2465V1.56248e-06Z" fill="#E3DFCF"/>
<path d="M2470 1.56248e-06H2475V5H2470V1.56248e-06Z" fill="#E3DFCF"/>
<path d="M2485 1.56248e-06H2490V5H2485V1.56248e-06Z" fill="#E3DFCF"/>
<path d="M2490 1.56248e-06H2495V5H2490V1.56248e-06Z" fill="#E3DFCF"/>
<path d="M2520 1.56248e-06H2525V5H2520V1.56248e-06Z" fill="#E3DFCF"/>
<path d="M2545 1.56248e-06H2550V5H2545V1.56248e-06Z" fill="#E3DFCF"/>
<path d="M2555 1.56248e-06H2560V5H2555V1.56248e-06Z" fill="#E3DFCF"/>
<path d="M2565 1.56248e-06H2570V5H2565V1.56248e-06Z" fill="#E3DFCF"/>
<path d="M2575 1.56248e-06H2580V5H2575V1.56248e-06Z" fill="#E3DFCF"/>
<path d="M2580 1.56248e-06H2585V5H2580V1.56248e-06Z" fill="#E3DFCF"/>
<path d="M2585 1.56248e-06H2590V5H2585V1.56248e-06Z" fill="#E3DFCF"/>
<path d="M2590 1.56248e-06H2595V5H2590V1.56248e-06Z" fill="#E3DFCF"/>
<path d="M2605 1.56248e-06H2610V5H2605V1.56248e-06Z" fill="#E3DFCF"/>
<path d="M2620 1.56248e-06H2625V5H2620V1.56248e-06Z" fill="#E3DFCF"/>
<path d="M2630 1.56248e-06H2635V5H2630V1.56248e-06Z" fill="#E3DFCF"/>
<path d="M2635 1.56248e-06H2640V5H2635V1.56248e-06Z" fill="#E3DFCF"/>
<path d="M2655 1.56248e-06H2660V5H2655V1.56248e-06Z" fill="#E3DFCF"/>
<path d="M2660 1.56248e-06H2665V5H2660V1.56248e-06Z" fill="#E3DFCF"/>
<path d="M2665 1.56248e-06H2670V5H2665V1.56248e-06Z" fill="#E3DFCF"/>
<path d="M2690 1.56248e-06H2695V5H2690V1.56248e-06Z" fill="#E3DFCF"/>
<path d="M2700 1.56248e-06H2705V5H2700V1.56248e-06Z" fill="#E3DFCF"/>
<path d="M2730 1.56248e-06H2735V5H2730V1.56248e-06Z" fill="#E3DFCF"/>
<path d="M2735 1.56248e-06H2740V5H2735V1.56248e-06Z" fill="#E3DFCF"/>
<path d="M2745 1.56248e-06H2750V5H2745V1.56248e-06Z" fill="#E3DFCF"/>
<path d="M2865 1.56248e-06H2870V5H2865V1.56248e-06Z" fill="#E3DFCF"/>
<path d="M3010 1.56248e-06H3015V5H3010V1.56248e-06Z" fill="#E3DFCF"/>
<path d="M3015 1.56248e-06H3020V5H3015V1.56248e-06Z" fill="#E3DFCF"/>
<path d="M3020 1.56248e-06H3025V5H3020V1.56248e-06Z" fill="#E3DFCF"/>
<path d="M3025 1.56248e-06H3030V5H3025V1.56248e-06Z" fill="#E3DFCF"/>
<path d="M3030 1.56248e-06H3035V5H3030V1.56248e-06Z" fill="#E3DFCF"/>
<path d="M3035 1.56248e-06H3040V5H3035V1.56248e-06Z" fill="#E3DFCF"/>
<path d="M3040 1.56248e-06H3045V5H3040V1.56248e-06Z" fill="#E3DFCF"/>
<path d="M3045 1.56248e-06H3050V5H3045V1.56248e-06Z" fill="#E3DFCF"/>
<path d="M3050 1.56248e-06H3055V5H3050V1.56248e-06Z" fill="#E3DFCF"/>
<path d="M3055 1.56248e-06H3060V5H3055V1.56248e-06Z" fill="#E3DFCF"/>
<path d="M3060 1.56248e-06H3065V5H3060V1.56248e-06Z" fill="#E3DFCF"/>
<path d="M3065 1.56248e-06H3070V5H3065V1.56248e-06Z" fill="#E3DFCF"/>
<path d="M3070 1.56248e-06H3075V5H3070V1.56248e-06Z" fill="#E3DFCF"/>
<path d="M3075 1.56248e-06H3080V5H3075V1.56248e-06Z" fill="#E3DFCF"/>
<path d="M3080 1.56248e-06H3085V5H3080V1.56248e-06Z" fill="#E3DFCF"/>
<path d="M3085 1.56248e-06H3090V5H3085V1.56248e-06Z" fill="#E3DFCF"/>
<path d="M3090 1.56248e-06H3095V5H3090V1.56248e-06Z" fill="#E3DFCF"/>
<path d="M3095 1.56248e-06H3100V5H3095V1.56248e-06Z" fill="#E3DFCF"/>
<path d="M3100 1.56248e-06H3105V5H3100V1.56248e-06Z" fill="#E3DFCF"/>
<path d="M3105 1.56248e-06H3110V5H3105V1.56248e-06Z" fill="#E3DFCF"/>
<path d="M3110 1.56248e-06H3115V5H3110V1.56248e-06Z" fill="#E3DFCF"/>
<path d="M3115 1.56248e-06H3120V5H3115V1.56248e-06Z" fill="#E3DFCF"/>
<path d="M3120 1.56248e-06H3125V5H3120V1.56248e-06Z" fill="#E3DFCF"/>
<path d="M3125 1.56248e-06H3130V5H3125V1.56248e-06Z" fill="#E3DFCF"/>
<path d="M3130 1.56248e-06H3135V5H3130V1.56248e-06Z" fill="#E3DFCF"/>
<path d="M3135 1.56248e-06H3140V5H3135V1.56248e-06Z" fill="#E3DFCF"/>
<path d="M3140 1.56248e-06H3145V5H3140V1.56248e-06Z" fill="#E3DFCF"/>
<path d="M3145 1.56248e-06H3150V5H3145V1.56248e-06Z" fill="#E3DFCF"/>
<path d="M3150 1.56248e-06H3155V5H3150V1.56248e-06Z" fill="#E3DFCF"/>
<path d="M3155 1.56248e-06H3160V5H3155V1.56248e-06Z" fill="#E3DFCF"/>
<path d="M3160 1.56248e-06H3165V5H3160V1.56248e-06Z" fill="#E3DFCF"/>
<path d="M3165 1.56248e-06H3170V5H3165V1.56248e-06Z" fill="#E3DFCF"/>
<path d="M3170 1.56248e-06H3175V5H3170V1.56248e-06Z" fill="#E3DFCF"/>
<path d="M3175 1.56248e-06H3180V5H3175V1.56248e-06Z" fill="#E3DFCF"/>
<path d="M3180 1.56248e-06H3185V5H3180V1.56248e-06Z" fill="#E3DFCF"/>
<path d="M3185 1.56248e-06H3190V5H3185V1.56248e-06Z" fill="#E3DFCF"/>
<path d="M3190 1.56248e-06H3195V5H3190V1.56248e-06Z" fill="#E3DFCF"/>
<path d="M3195 1.56248e-06H3200V5H3195V1.56248e-06Z" fill="#E3DFCF"/>
<path d="M3200 1.56248e-06H3205V5H3200V1.56248e-06Z" fill="#E3DFCF"/>
<path d="M3205 1.56248e-06H3210V5H3205V1.56248e-06Z" fill="#E3DFCF"/>
</svg>
