<svg width="3650" height="10" viewBox="0 0 3650 10" fill="none" xmlns="http://www.w3.org/2000/svg">
<path d="M445 1.11442e-07H450V10H445V1.11442e-07Z" fill="#FF3D00"/>
<path d="M550 1.11442e-07H555V10H550V1.11442e-07Z" fill="#FF3D00"/>
<path d="M720 1.11442e-07H725V10H720V1.11442e-07Z" fill="#FF3D00"/>
<path d="M775 1.11442e-07H780V10H775V1.11442e-07Z" fill="#FF3D00"/>
<path d="M840 1.11442e-07H845V10H840V1.11442e-07Z" fill="#FF3D00"/>
<path d="M1980 1.11442e-07H1985V10H1980V1.11442e-07Z" fill="#FF3D00"/>
<path d="M1990 1.11442e-07H1995V10H1990V1.11442e-07Z" fill="#FF3D00"/>
<path d="M1995 1.11442e-07H2000V10H1995V1.11442e-07Z" fill="#FF3D00"/>
<path d="M3335 5.57212e-08H3340V5H3335V5.57212e-08Z" fill="#FF3D00"/>
<path d="M3340 5.57212e-08H3345V5H3340V5.57212e-08Z" fill="#FF3D00"/>
<path d="M3345 1.11442e-07H3350V10H3345V1.11442e-07Z" fill="#FF3D00"/>
<path d="M3355 1.11442e-07H3360V10H3355V1.11442e-07Z" fill="#FF3D00"/>
<path d="M3590 -2.0559e-05H3595V3.33331H3590V-2.0559e-05Z" fill="#FF3D00"/>
<path d="M3595 -2.0559e-05H3600V3.33331H3595V-2.0559e-05Z" fill="#FF3D00"/>
<path d="M3600 1.11442e-07H3605V10H3600V1.11442e-07Z" fill="#FF3D00"/>
<path d="M3605 1.11442e-07H3610V10H3605V1.11442e-07Z" fill="#FF3D00"/>
<path d="M3590 3.33335H3595V6.66669H3590V3.33335Z" fill="#FFB2AC"/>
<path d="M3595 3.33335H3600V6.66669H3595V3.33335Z" fill="#FFB2AC"/>
<path d="M330 1.11442e-07H335V10H330V1.11442e-07Z" fill="#8C6345"/>
<path d="M440 1.11442e-07H445V10H440V1.11442e-07Z" fill="#8C6345"/>
<path d="M2130 1.11442e-07H2135V10H2130V1.11442e-07Z" fill="#8C6345"/>
<path d="M2860 1.11442e-07H2865V10H2860V1.11442e-07Z" fill="#8C6345"/>
<path d="M3320 1.11442e-07H3325V10H3320V1.11442e-07Z" fill="#8C6345"/>
<path d="M3335 5H3340V10H3335V5Z" fill="#8C6345"/>
<path d="M3340 5H3345V10H3340V5Z" fill="#8C6345"/>
<path d="M3585 1.11442e-07H3590V10H3585V1.11442e-07Z" fill="#8C6345"/>
<path d="M3590 6.66667H3595V10H3590V6.66667Z" fill="#8C6345"/>
<path d="M3595 6.66667H3600V10H3595V6.66667Z" fill="#8C6345"/>
<path d="M3630 1.11442e-07H3635V10H3630V1.11442e-07Z" fill="#8C6345"/>
<path d="M3640 1.11442e-07H3645V10H3640V1.11442e-07Z" fill="#8C6345"/>
<path d="M335 1.11442e-07H340V10H335V1.11442e-07Z" fill="#E3DFCF"/>
<path d="M340 1.11442e-07H345V10H340V1.11442e-07Z" fill="#E3DFCF"/>
<path d="M345 1.11442e-07H350V10H345V1.11442e-07Z" fill="#E3DFCF"/>
<path d="M350 1.11442e-07H355V10H350V1.11442e-07Z" fill="#E3DFCF"/>
<path d="M355 1.11442e-07H360V10H355V1.11442e-07Z" fill="#E3DFCF"/>
<path d="M360 1.11442e-07H365V10H360V1.11442e-07Z" fill="#E3DFCF"/>
<path d="M365 1.11442e-07H370V10H365V1.11442e-07Z" fill="#E3DFCF"/>
<path d="M370 1.11442e-07H375V10H370V1.11442e-07Z" fill="#E3DFCF"/>
<path d="M375 1.11442e-07H380V10H375V1.11442e-07Z" fill="#E3DFCF"/>
<path d="M380 1.11442e-07H385V10H380V1.11442e-07Z" fill="#E3DFCF"/>
<path d="M385 1.11442e-07H390V10H385V1.11442e-07Z" fill="#E3DFCF"/>
<path d="M390 1.11442e-07H395V10H390V1.11442e-07Z" fill="#E3DFCF"/>
<path d="M395 1.11442e-07H400V10H395V1.11442e-07Z" fill="#E3DFCF"/>
<path d="M400 1.11442e-07H405V10H400V1.11442e-07Z" fill="#E3DFCF"/>
<path d="M405 1.11442e-07H410V10H405V1.11442e-07Z" fill="#E3DFCF"/>
<path d="M410 1.11442e-07H415V10H410V1.11442e-07Z" fill="#E3DFCF"/>
<path d="M415 1.11442e-07H420V10H415V1.11442e-07Z" fill="#E3DFCF"/>
<path d="M420 1.11442e-07H425V10H420V1.11442e-07Z" fill="#E3DFCF"/>
<path d="M425 1.11442e-07H430V10H425V1.11442e-07Z" fill="#E3DFCF"/>
<path d="M430 1.11442e-07H435V10H430V1.11442e-07Z" fill="#E3DFCF"/>
<path d="M435 1.11442e-07H440V10H435V1.11442e-07Z" fill="#E3DFCF"/>
<path d="M450 1.11442e-07H455V10H450V1.11442e-07Z" fill="#E3DFCF"/>
<path d="M455 1.11442e-07H460V10H455V1.11442e-07Z" fill="#E3DFCF"/>
<path d="M460 1.11442e-07H465V10H460V1.11442e-07Z" fill="#E3DFCF"/>
<path d="M465 1.11442e-07H470V10H465V1.11442e-07Z" fill="#E3DFCF"/>
<path d="M470 1.11442e-07H475V10H470V1.11442e-07Z" fill="#E3DFCF"/>
<path d="M475 1.11442e-07H480V10H475V1.11442e-07Z" fill="#E3DFCF"/>
<path d="M480 1.11442e-07H485V10H480V1.11442e-07Z" fill="#E3DFCF"/>
<path d="M485 1.11442e-07H490V10H485V1.11442e-07Z" fill="#E3DFCF"/>
<path d="M490 1.11442e-07H495V10H490V1.11442e-07Z" fill="#E3DFCF"/>
<path d="M495 1.11442e-07H500V10H495V1.11442e-07Z" fill="#E3DFCF"/>
<path d="M500 1.11442e-07H505V10H500V1.11442e-07Z" fill="#E3DFCF"/>
<path d="M505 1.11442e-07H510V10H505V1.11442e-07Z" fill="#E3DFCF"/>
<path d="M510 1.11442e-07H515V10H510V1.11442e-07Z" fill="#E3DFCF"/>
<path d="M515 1.11442e-07H520V10H515V1.11442e-07Z" fill="#E3DFCF"/>
<path d="M520 1.11442e-07H525V10H520V1.11442e-07Z" fill="#E3DFCF"/>
<path d="M525 1.11442e-07H530V10H525V1.11442e-07Z" fill="#E3DFCF"/>
<path d="M530 1.11442e-07H535V10H530V1.11442e-07Z" fill="#E3DFCF"/>
<path d="M535 1.11442e-07H540V10H535V1.11442e-07Z" fill="#E3DFCF"/>
<path d="M540 1.11442e-07H545V10H540V1.11442e-07Z" fill="#E3DFCF"/>
<path d="M545 1.11442e-07H550V10H545V1.11442e-07Z" fill="#E3DFCF"/>
<path d="M555 1.11442e-07H560V10H555V1.11442e-07Z" fill="#E3DFCF"/>
<path d="M560 1.11442e-07H565V10H560V1.11442e-07Z" fill="#E3DFCF"/>
<path d="M565 1.11442e-07H570V10H565V1.11442e-07Z" fill="#E3DFCF"/>
<path d="M570 1.11442e-07H575V10H570V1.11442e-07Z" fill="#E3DFCF"/>
<path d="M575 1.11442e-07H580V10H575V1.11442e-07Z" fill="#E3DFCF"/>
<path d="M580 1.11442e-07H585V10H580V1.11442e-07Z" fill="#E3DFCF"/>
<path d="M585 1.11442e-07H590V10H585V1.11442e-07Z" fill="#E3DFCF"/>
<path d="M590 1.11442e-07H595V10H590V1.11442e-07Z" fill="#E3DFCF"/>
<path d="M595 1.11442e-07H600V10H595V1.11442e-07Z" fill="#E3DFCF"/>
<path d="M600 1.11442e-07H605V10H600V1.11442e-07Z" fill="#E3DFCF"/>
<path d="M605 1.11442e-07H610V10H605V1.11442e-07Z" fill="#E3DFCF"/>
<path d="M610 1.11442e-07H615V10H610V1.11442e-07Z" fill="#E3DFCF"/>
<path d="M615 1.11442e-07H620V10H615V1.11442e-07Z" fill="#E3DFCF"/>
<path d="M620 1.11442e-07H625V10H620V1.11442e-07Z" fill="#E3DFCF"/>
<path d="M625 1.11442e-07H630V10H625V1.11442e-07Z" fill="#E3DFCF"/>
<path d="M630 1.11442e-07H635V10H630V1.11442e-07Z" fill="#E3DFCF"/>
<path d="M635 1.11442e-07H640V10H635V1.11442e-07Z" fill="#E3DFCF"/>
<path d="M640 1.11442e-07H645V10H640V1.11442e-07Z" fill="#E3DFCF"/>
<path d="M645 1.11442e-07H650V10H645V1.11442e-07Z" fill="#E3DFCF"/>
<path d="M650 1.11442e-07H655V10H650V1.11442e-07Z" fill="#E3DFCF"/>
<path d="M655 1.11442e-07H660V10H655V1.11442e-07Z" fill="#E3DFCF"/>
<path d="M660 1.11442e-07H665V10H660V1.11442e-07Z" fill="#E3DFCF"/>
<path d="M665 1.11442e-07H670V10H665V1.11442e-07Z" fill="#E3DFCF"/>
<path d="M670 1.11442e-07H675V10H670V1.11442e-07Z" fill="#E3DFCF"/>
<path d="M675 1.11442e-07H680V10H675V1.11442e-07Z" fill="#E3DFCF"/>
<path d="M680 1.11442e-07H685V10H680V1.11442e-07Z" fill="#E3DFCF"/>
<path d="M685 1.11442e-07H690V10H685V1.11442e-07Z" fill="#E3DFCF"/>
<path d="M690 1.11442e-07H695V10H690V1.11442e-07Z" fill="#E3DFCF"/>
<path d="M695 1.11442e-07H700V10H695V1.11442e-07Z" fill="#E3DFCF"/>
<path d="M700 1.11442e-07H705V10H700V1.11442e-07Z" fill="#E3DFCF"/>
<path d="M705 1.11442e-07H710V10H705V1.11442e-07Z" fill="#E3DFCF"/>
<path d="M710 1.11442e-07H715V10H710V1.11442e-07Z" fill="#E3DFCF"/>
<path d="M715 1.11442e-07H720V10H715V1.11442e-07Z" fill="#E3DFCF"/>
<path d="M725 1.11442e-07H730V10H725V1.11442e-07Z" fill="#E3DFCF"/>
<path d="M730 1.11442e-07H735V10H730V1.11442e-07Z" fill="#E3DFCF"/>
<path d="M735 1.11442e-07H740V10H735V1.11442e-07Z" fill="#E3DFCF"/>
<path d="M740 1.11442e-07H745V10H740V1.11442e-07Z" fill="#E3DFCF"/>
<path d="M745 1.11442e-07H750V10H745V1.11442e-07Z" fill="#E3DFCF"/>
<path d="M750 1.11442e-07H755V10H750V1.11442e-07Z" fill="#E3DFCF"/>
<path d="M755 1.11442e-07H760V10H755V1.11442e-07Z" fill="#E3DFCF"/>
<path d="M760 1.11442e-07H765V10H760V1.11442e-07Z" fill="#E3DFCF"/>
<path d="M765 1.11442e-07H770V10H765V1.11442e-07Z" fill="#E3DFCF"/>
<path d="M770 1.11442e-07H775V10H770V1.11442e-07Z" fill="#E3DFCF"/>
<path d="M780 1.11442e-07H785V10H780V1.11442e-07Z" fill="#E3DFCF"/>
<path d="M785 1.11442e-07H790V10H785V1.11442e-07Z" fill="#E3DFCF"/>
<path d="M790 1.11442e-07H795V10H790V1.11442e-07Z" fill="#E3DFCF"/>
<path d="M795 1.11442e-07H800V10H795V1.11442e-07Z" fill="#E3DFCF"/>
<path d="M800 1.11442e-07H805V10H800V1.11442e-07Z" fill="#E3DFCF"/>
<path d="M805 1.11442e-07H810V10H805V1.11442e-07Z" fill="#E3DFCF"/>
<path d="M810 1.11442e-07H815V10H810V1.11442e-07Z" fill="#E3DFCF"/>
<path d="M815 1.11442e-07H820V10H815V1.11442e-07Z" fill="#E3DFCF"/>
<path d="M820 1.11442e-07H825V10H820V1.11442e-07Z" fill="#E3DFCF"/>
<path d="M825 1.11442e-07H830V10H825V1.11442e-07Z" fill="#E3DFCF"/>
<path d="M830 1.11442e-07H835V10H830V1.11442e-07Z" fill="#E3DFCF"/>
<path d="M835 1.11442e-07H840V10H835V1.11442e-07Z" fill="#E3DFCF"/>
<path d="M845 1.11442e-07H850V10H845V1.11442e-07Z" fill="#E3DFCF"/>
<path d="M850 1.11442e-07H855V10H850V1.11442e-07Z" fill="#E3DFCF"/>
<path d="M855 1.11442e-07H860V10H855V1.11442e-07Z" fill="#E3DFCF"/>
<path d="M860 1.11442e-07H865V10H860V1.11442e-07Z" fill="#E3DFCF"/>
<path d="M865 1.11442e-07H870V10H865V1.11442e-07Z" fill="#E3DFCF"/>
<path d="M870 1.11442e-07H875V10H870V1.11442e-07Z" fill="#E3DFCF"/>
<path d="M875 1.11442e-07H880V10H875V1.11442e-07Z" fill="#E3DFCF"/>
<path d="M880 1.11442e-07H885V10H880V1.11442e-07Z" fill="#E3DFCF"/>
<path d="M885 1.11442e-07H890V10H885V1.11442e-07Z" fill="#E3DFCF"/>
<path d="M890 1.11442e-07H895V10H890V1.11442e-07Z" fill="#E3DFCF"/>
<path d="M895 1.11442e-07H900V10H895V1.11442e-07Z" fill="#E3DFCF"/>
<path d="M900 1.11442e-07H905V10H900V1.11442e-07Z" fill="#E3DFCF"/>
<path d="M905 1.11442e-07H910V10H905V1.11442e-07Z" fill="#E3DFCF"/>
<path d="M910 1.11442e-07H915V10H910V1.11442e-07Z" fill="#E3DFCF"/>
<path d="M915 1.11442e-07H920V10H915V1.11442e-07Z" fill="#E3DFCF"/>
<path d="M920 1.11442e-07H925V10H920V1.11442e-07Z" fill="#E3DFCF"/>
<path d="M925 1.11442e-07H930V10H925V1.11442e-07Z" fill="#E3DFCF"/>
<path d="M930 1.11442e-07H935V10H930V1.11442e-07Z" fill="#E3DFCF"/>
<path d="M935 1.11442e-07H940V10H935V1.11442e-07Z" fill="#E3DFCF"/>
<path d="M940 1.11442e-07H945V10H940V1.11442e-07Z" fill="#E3DFCF"/>
<path d="M945 1.11442e-07H950V10H945V1.11442e-07Z" fill="#E3DFCF"/>
<path d="M950 1.11442e-07H955V10H950V1.11442e-07Z" fill="#E3DFCF"/>
<path d="M955 1.11442e-07H960V10H955V1.11442e-07Z" fill="#E3DFCF"/>
<path d="M960 1.11442e-07H965V10H960V1.11442e-07Z" fill="#E3DFCF"/>
<path d="M965 1.11442e-07H970V10H965V1.11442e-07Z" fill="#E3DFCF"/>
<path d="M970 1.11442e-07H975V10H970V1.11442e-07Z" fill="#E3DFCF"/>
<path d="M975 1.11442e-07H980V10H975V1.11442e-07Z" fill="#E3DFCF"/>
<path d="M980 1.11442e-07H985V10H980V1.11442e-07Z" fill="#E3DFCF"/>
<path d="M985 1.11442e-07H990V10H985V1.11442e-07Z" fill="#E3DFCF"/>
<path d="M990 1.11442e-07H995V10H990V1.11442e-07Z" fill="#E3DFCF"/>
<path d="M995 1.11442e-07H1000V10H995V1.11442e-07Z" fill="#E3DFCF"/>
<path d="M1000 1.11442e-07H1005V10H1000V1.11442e-07Z" fill="#E3DFCF"/>
<path d="M1005 1.11442e-07H1010V10H1005V1.11442e-07Z" fill="#E3DFCF"/>
<path d="M1010 1.11442e-07H1015V10H1010V1.11442e-07Z" fill="#E3DFCF"/>
<path d="M1015 1.11442e-07H1020V10H1015V1.11442e-07Z" fill="#E3DFCF"/>
<path d="M1020 1.11442e-07H1025V10H1020V1.11442e-07Z" fill="#E3DFCF"/>
<path d="M1025 1.11442e-07H1030V10H1025V1.11442e-07Z" fill="#E3DFCF"/>
<path d="M1030 1.11442e-07H1035V10H1030V1.11442e-07Z" fill="#E3DFCF"/>
<path d="M1035 1.11442e-07H1040V10H1035V1.11442e-07Z" fill="#E3DFCF"/>
<path d="M1040 1.11442e-07H1045V10H1040V1.11442e-07Z" fill="#E3DFCF"/>
<path d="M1045 1.11442e-07H1050V10H1045V1.11442e-07Z" fill="#E3DFCF"/>
<path d="M1050 1.11442e-07H1055V10H1050V1.11442e-07Z" fill="#E3DFCF"/>
<path d="M1055 1.11442e-07H1060V10H1055V1.11442e-07Z" fill="#E3DFCF"/>
<path d="M1060 1.11442e-07H1065V10H1060V1.11442e-07Z" fill="#E3DFCF"/>
<path d="M1065 1.11442e-07H1070V10H1065V1.11442e-07Z" fill="#E3DFCF"/>
<path d="M1070 1.11442e-07H1075V10H1070V1.11442e-07Z" fill="#E3DFCF"/>
<path d="M1075 1.11442e-07H1080V10H1075V1.11442e-07Z" fill="#E3DFCF"/>
<path d="M1080 1.11442e-07H1085V10H1080V1.11442e-07Z" fill="#E3DFCF"/>
<path d="M1085 1.11442e-07H1090V10H1085V1.11442e-07Z" fill="#E3DFCF"/>
<path d="M1090 1.11442e-07H1095V10H1090V1.11442e-07Z" fill="#E3DFCF"/>
<path d="M1095 1.11442e-07H1100V10H1095V1.11442e-07Z" fill="#E3DFCF"/>
<path d="M1100 1.11442e-07H1105V10H1100V1.11442e-07Z" fill="#E3DFCF"/>
<path d="M1105 1.11442e-07H1110V10H1105V1.11442e-07Z" fill="#E3DFCF"/>
<path d="M1110 1.11442e-07H1115V10H1110V1.11442e-07Z" fill="#E3DFCF"/>
<path d="M1115 1.11442e-07H1120V10H1115V1.11442e-07Z" fill="#E3DFCF"/>
<path d="M1120 1.11442e-07H1125V10H1120V1.11442e-07Z" fill="#E3DFCF"/>
<path d="M1125 1.11442e-07H1130V10H1125V1.11442e-07Z" fill="#E3DFCF"/>
<path d="M1130 1.11442e-07H1135V10H1130V1.11442e-07Z" fill="#E3DFCF"/>
<path d="M1135 1.11442e-07H1140V10H1135V1.11442e-07Z" fill="#E3DFCF"/>
<path d="M1140 1.11442e-07H1145V10H1140V1.11442e-07Z" fill="#E3DFCF"/>
<path d="M1145 1.11442e-07H1150V10H1145V1.11442e-07Z" fill="#E3DFCF"/>
<path d="M1150 1.11442e-07H1155V10H1150V1.11442e-07Z" fill="#E3DFCF"/>
<path d="M1155 1.11442e-07H1160V10H1155V1.11442e-07Z" fill="#E3DFCF"/>
<path d="M1160 1.11442e-07H1165V10H1160V1.11442e-07Z" fill="#E3DFCF"/>
<path d="M1165 1.11442e-07H1170V10H1165V1.11442e-07Z" fill="#E3DFCF"/>
<path d="M1170 1.11442e-07H1175V10H1170V1.11442e-07Z" fill="#E3DFCF"/>
<path d="M1175 1.11442e-07H1180V10H1175V1.11442e-07Z" fill="#E3DFCF"/>
<path d="M1180 1.11442e-07H1185V10H1180V1.11442e-07Z" fill="#E3DFCF"/>
<path d="M1185 1.11442e-07H1190V10H1185V1.11442e-07Z" fill="#E3DFCF"/>
<path d="M1190 1.11442e-07H1195V10H1190V1.11442e-07Z" fill="#E3DFCF"/>
<path d="M1195 1.11442e-07H1200V10H1195V1.11442e-07Z" fill="#E3DFCF"/>
<path d="M1200 1.11442e-07H1205V10H1200V1.11442e-07Z" fill="#E3DFCF"/>
<path d="M1205 1.11442e-07H1210V10H1205V1.11442e-07Z" fill="#E3DFCF"/>
<path d="M1210 1.11442e-07H1215V10H1210V1.11442e-07Z" fill="#E3DFCF"/>
<path d="M1215 1.11442e-07H1220V10H1215V1.11442e-07Z" fill="#E3DFCF"/>
<path d="M1220 1.11442e-07H1225V10H1220V1.11442e-07Z" fill="#E3DFCF"/>
<path d="M1225 1.11442e-07H1230V10H1225V1.11442e-07Z" fill="#E3DFCF"/>
<path d="M1230 1.11442e-07H1235V10H1230V1.11442e-07Z" fill="#E3DFCF"/>
<path d="M1235 1.11442e-07H1240V10H1235V1.11442e-07Z" fill="#E3DFCF"/>
<path d="M1240 1.11442e-07H1245V10H1240V1.11442e-07Z" fill="#E3DFCF"/>
<path d="M1245 1.11442e-07H1250V10H1245V1.11442e-07Z" fill="#E3DFCF"/>
<path d="M1250 1.11442e-07H1255V10H1250V1.11442e-07Z" fill="#E3DFCF"/>
<path d="M1255 1.11442e-07H1260V10H1255V1.11442e-07Z" fill="#E3DFCF"/>
<path d="M1260 1.11442e-07H1265V10H1260V1.11442e-07Z" fill="#E3DFCF"/>
<path d="M1265 1.11442e-07H1270V10H1265V1.11442e-07Z" fill="#E3DFCF"/>
<path d="M1270 1.11442e-07H1275V10H1270V1.11442e-07Z" fill="#E3DFCF"/>
<path d="M1275 1.11442e-07H1280V10H1275V1.11442e-07Z" fill="#E3DFCF"/>
<path d="M1280 1.11442e-07H1285V10H1280V1.11442e-07Z" fill="#E3DFCF"/>
<path d="M1285 1.11442e-07H1290V10H1285V1.11442e-07Z" fill="#E3DFCF"/>
<path d="M1290 1.11442e-07H1295V10H1290V1.11442e-07Z" fill="#E3DFCF"/>
<path d="M1295 1.11442e-07H1300V10H1295V1.11442e-07Z" fill="#E3DFCF"/>
<path d="M1300 1.11442e-07H1305V10H1300V1.11442e-07Z" fill="#E3DFCF"/>
<path d="M1305 1.11442e-07H1310V10H1305V1.11442e-07Z" fill="#E3DFCF"/>
<path d="M1310 1.11442e-07H1315V10H1310V1.11442e-07Z" fill="#E3DFCF"/>
<path d="M1315 1.11442e-07H1320V10H1315V1.11442e-07Z" fill="#E3DFCF"/>
<path d="M1320 1.11442e-07H1325V10H1320V1.11442e-07Z" fill="#E3DFCF"/>
<path d="M1325 1.11442e-07H1330V10H1325V1.11442e-07Z" fill="#E3DFCF"/>
<path d="M1330 1.11442e-07H1335V10H1330V1.11442e-07Z" fill="#E3DFCF"/>
<path d="M1335 1.11442e-07H1340V10H1335V1.11442e-07Z" fill="#E3DFCF"/>
<path d="M1340 1.11442e-07H1345V10H1340V1.11442e-07Z" fill="#E3DFCF"/>
<path d="M1345 1.11442e-07H1350V10H1345V1.11442e-07Z" fill="#E3DFCF"/>
<path d="M1350 1.11442e-07H1355V10H1350V1.11442e-07Z" fill="#E3DFCF"/>
<path d="M1355 1.11442e-07H1360V10H1355V1.11442e-07Z" fill="#E3DFCF"/>
<path d="M1360 1.11442e-07H1365V10H1360V1.11442e-07Z" fill="#E3DFCF"/>
<path d="M1365 1.11442e-07H1370V10H1365V1.11442e-07Z" fill="#E3DFCF"/>
<path d="M1370 1.11442e-07H1375V10H1370V1.11442e-07Z" fill="#E3DFCF"/>
<path d="M1375 1.11442e-07H1380V10H1375V1.11442e-07Z" fill="#E3DFCF"/>
<path d="M1380 1.11442e-07H1385V10H1380V1.11442e-07Z" fill="#E3DFCF"/>
<path d="M1385 1.11442e-07H1390V10H1385V1.11442e-07Z" fill="#E3DFCF"/>
<path d="M1390 1.11442e-07H1395V10H1390V1.11442e-07Z" fill="#E3DFCF"/>
<path d="M1395 1.11442e-07H1400V10H1395V1.11442e-07Z" fill="#E3DFCF"/>
<path d="M1400 1.11442e-07H1405V10H1400V1.11442e-07Z" fill="#E3DFCF"/>
<path d="M1405 1.11442e-07H1410V10H1405V1.11442e-07Z" fill="#E3DFCF"/>
<path d="M1410 1.11442e-07H1415V10H1410V1.11442e-07Z" fill="#E3DFCF"/>
<path d="M1415 1.11442e-07H1420V10H1415V1.11442e-07Z" fill="#E3DFCF"/>
<path d="M1420 1.11442e-07H1425V10H1420V1.11442e-07Z" fill="#E3DFCF"/>
<path d="M1425 1.11442e-07H1430V10H1425V1.11442e-07Z" fill="#E3DFCF"/>
<path d="M1430 1.11442e-07H1435V10H1430V1.11442e-07Z" fill="#E3DFCF"/>
<path d="M1435 1.11442e-07H1440V10H1435V1.11442e-07Z" fill="#E3DFCF"/>
<path d="M1440 1.11442e-07H1445V10H1440V1.11442e-07Z" fill="#E3DFCF"/>
<path d="M1445 1.11442e-07H1450V10H1445V1.11442e-07Z" fill="#E3DFCF"/>
<path d="M1450 1.11442e-07H1455V10H1450V1.11442e-07Z" fill="#E3DFCF"/>
<path d="M1455 1.11442e-07H1460V10H1455V1.11442e-07Z" fill="#E3DFCF"/>
<path d="M1460 1.11442e-07H1465V10H1460V1.11442e-07Z" fill="#E3DFCF"/>
<path d="M1465 1.11442e-07H1470V10H1465V1.11442e-07Z" fill="#E3DFCF"/>
<path d="M1470 1.11442e-07H1475V10H1470V1.11442e-07Z" fill="#E3DFCF"/>
<path d="M1475 1.11442e-07H1480V10H1475V1.11442e-07Z" fill="#E3DFCF"/>
<path d="M1480 1.11442e-07H1485V10H1480V1.11442e-07Z" fill="#E3DFCF"/>
<path d="M1485 1.11442e-07H1490V10H1485V1.11442e-07Z" fill="#E3DFCF"/>
<path d="M1490 1.11442e-07H1495V10H1490V1.11442e-07Z" fill="#E3DFCF"/>
<path d="M1495 1.11442e-07H1500V10H1495V1.11442e-07Z" fill="#E3DFCF"/>
<path d="M1500 1.11442e-07H1505V10H1500V1.11442e-07Z" fill="#E3DFCF"/>
<path d="M1505 1.11442e-07H1510V10H1505V1.11442e-07Z" fill="#E3DFCF"/>
<path d="M1510 1.11442e-07H1515V10H1510V1.11442e-07Z" fill="#E3DFCF"/>
<path d="M1515 1.11442e-07H1520V10H1515V1.11442e-07Z" fill="#E3DFCF"/>
<path d="M1520 1.11442e-07H1525V10H1520V1.11442e-07Z" fill="#E3DFCF"/>
<path d="M1525 1.11442e-07H1530V10H1525V1.11442e-07Z" fill="#E3DFCF"/>
<path d="M1530 1.11442e-07H1535V10H1530V1.11442e-07Z" fill="#E3DFCF"/>
<path d="M1535 1.11442e-07H1540V10H1535V1.11442e-07Z" fill="#E3DFCF"/>
<path d="M1540 1.11442e-07H1545V10H1540V1.11442e-07Z" fill="#E3DFCF"/>
<path d="M1545 1.11442e-07H1550V10H1545V1.11442e-07Z" fill="#E3DFCF"/>
<path d="M1550 1.11442e-07H1555V10H1550V1.11442e-07Z" fill="#E3DFCF"/>
<path d="M1555 1.11442e-07H1560V10H1555V1.11442e-07Z" fill="#E3DFCF"/>
<path d="M1560 1.11442e-07H1565V10H1560V1.11442e-07Z" fill="#E3DFCF"/>
<path d="M1565 1.11442e-07H1570V10H1565V1.11442e-07Z" fill="#E3DFCF"/>
<path d="M1570 1.11442e-07H1575V10H1570V1.11442e-07Z" fill="#E3DFCF"/>
<path d="M1575 1.11442e-07H1580V10H1575V1.11442e-07Z" fill="#E3DFCF"/>
<path d="M1580 1.11442e-07H1585V10H1580V1.11442e-07Z" fill="#E3DFCF"/>
<path d="M1585 1.11442e-07H1590V10H1585V1.11442e-07Z" fill="#E3DFCF"/>
<path d="M1590 1.11442e-07H1595V10H1590V1.11442e-07Z" fill="#E3DFCF"/>
<path d="M1595 1.11442e-07H1600V10H1595V1.11442e-07Z" fill="#E3DFCF"/>
<path d="M1600 1.11442e-07H1605V10H1600V1.11442e-07Z" fill="#E3DFCF"/>
<path d="M1605 1.11442e-07H1610V10H1605V1.11442e-07Z" fill="#E3DFCF"/>
<path d="M1610 1.11442e-07H1615V10H1610V1.11442e-07Z" fill="#E3DFCF"/>
<path d="M1615 1.11442e-07H1620V10H1615V1.11442e-07Z" fill="#E3DFCF"/>
<path d="M1620 1.11442e-07H1625V10H1620V1.11442e-07Z" fill="#E3DFCF"/>
<path d="M1625 1.11442e-07H1630V10H1625V1.11442e-07Z" fill="#E3DFCF"/>
<path d="M1630 1.11442e-07H1635V10H1630V1.11442e-07Z" fill="#E3DFCF"/>
<path d="M1635 1.11442e-07H1640V10H1635V1.11442e-07Z" fill="#E3DFCF"/>
<path d="M1640 1.11442e-07H1645V10H1640V1.11442e-07Z" fill="#E3DFCF"/>
<path d="M1645 1.11442e-07H1650V10H1645V1.11442e-07Z" fill="#E3DFCF"/>
<path d="M1650 1.11442e-07H1655V10H1650V1.11442e-07Z" fill="#E3DFCF"/>
<path d="M1655 1.11442e-07H1660V10H1655V1.11442e-07Z" fill="#E3DFCF"/>
<path d="M1660 1.11442e-07H1665V10H1660V1.11442e-07Z" fill="#E3DFCF"/>
<path d="M1665 1.11442e-07H1670V10H1665V1.11442e-07Z" fill="#E3DFCF"/>
<path d="M1670 1.11442e-07H1675V10H1670V1.11442e-07Z" fill="#E3DFCF"/>
<path d="M1675 1.11442e-07H1680V10H1675V1.11442e-07Z" fill="#E3DFCF"/>
<path d="M1680 1.11442e-07H1685V10H1680V1.11442e-07Z" fill="#E3DFCF"/>
<path d="M1685 1.11442e-07H1690V10H1685V1.11442e-07Z" fill="#E3DFCF"/>
<path d="M1690 1.11442e-07H1695V10H1690V1.11442e-07Z" fill="#E3DFCF"/>
<path d="M1695 1.11442e-07H1700V10H1695V1.11442e-07Z" fill="#E3DFCF"/>
<path d="M1700 1.11442e-07H1705V10H1700V1.11442e-07Z" fill="#E3DFCF"/>
<path d="M1705 1.11442e-07H1710V10H1705V1.11442e-07Z" fill="#E3DFCF"/>
<path d="M1710 1.11442e-07H1715V10H1710V1.11442e-07Z" fill="#E3DFCF"/>
<path d="M1715 1.11442e-07H1720V10H1715V1.11442e-07Z" fill="#E3DFCF"/>
<path d="M1720 1.11442e-07H1725V10H1720V1.11442e-07Z" fill="#E3DFCF"/>
<path d="M1725 1.11442e-07H1730V10H1725V1.11442e-07Z" fill="#E3DFCF"/>
<path d="M1730 1.11442e-07H1735V10H1730V1.11442e-07Z" fill="#E3DFCF"/>
<path d="M1735 1.11442e-07H1740V10H1735V1.11442e-07Z" fill="#E3DFCF"/>
<path d="M1740 1.11442e-07H1745V10H1740V1.11442e-07Z" fill="#E3DFCF"/>
<path d="M1745 1.11442e-07H1750V10H1745V1.11442e-07Z" fill="#E3DFCF"/>
<path d="M1750 1.11442e-07H1755V10H1750V1.11442e-07Z" fill="#E3DFCF"/>
<path d="M1755 1.11442e-07H1760V10H1755V1.11442e-07Z" fill="#E3DFCF"/>
<path d="M1760 1.11442e-07H1765V10H1760V1.11442e-07Z" fill="#E3DFCF"/>
<path d="M1765 1.11442e-07H1770V10H1765V1.11442e-07Z" fill="#E3DFCF"/>
<path d="M1770 1.11442e-07H1775V10H1770V1.11442e-07Z" fill="#E3DFCF"/>
<path d="M1775 1.11442e-07H1780V10H1775V1.11442e-07Z" fill="#E3DFCF"/>
<path d="M1780 1.11442e-07H1785V10H1780V1.11442e-07Z" fill="#E3DFCF"/>
<path d="M1785 1.11442e-07H1790V10H1785V1.11442e-07Z" fill="#E3DFCF"/>
<path d="M1790 1.11442e-07H1795V10H1790V1.11442e-07Z" fill="#E3DFCF"/>
<path d="M1795 1.11442e-07H1800V10H1795V1.11442e-07Z" fill="#E3DFCF"/>
<path d="M1800 1.11442e-07H1805V10H1800V1.11442e-07Z" fill="#E3DFCF"/>
<path d="M1805 1.11442e-07H1810V10H1805V1.11442e-07Z" fill="#E3DFCF"/>
<path d="M1810 1.11442e-07H1815V10H1810V1.11442e-07Z" fill="#E3DFCF"/>
<path d="M1815 1.11442e-07H1820V10H1815V1.11442e-07Z" fill="#E3DFCF"/>
<path d="M1820 1.11442e-07H1825V10H1820V1.11442e-07Z" fill="#E3DFCF"/>
<path d="M1825 1.11442e-07H1830V10H1825V1.11442e-07Z" fill="#E3DFCF"/>
<path d="M1830 1.11442e-07H1835V10H1830V1.11442e-07Z" fill="#E3DFCF"/>
<path d="M1835 1.11442e-07H1840V10H1835V1.11442e-07Z" fill="#E3DFCF"/>
<path d="M1840 1.11442e-07H1845V10H1840V1.11442e-07Z" fill="#E3DFCF"/>
<path d="M1845 1.11442e-07H1850V10H1845V1.11442e-07Z" fill="#E3DFCF"/>
<path d="M1850 1.11442e-07H1855V10H1850V1.11442e-07Z" fill="#E3DFCF"/>
<path d="M1855 1.11442e-07H1860V10H1855V1.11442e-07Z" fill="#E3DFCF"/>
<path d="M1860 1.11442e-07H1865V10H1860V1.11442e-07Z" fill="#E3DFCF"/>
<path d="M1865 1.11442e-07H1870V10H1865V1.11442e-07Z" fill="#E3DFCF"/>
<path d="M1870 1.11442e-07H1875V10H1870V1.11442e-07Z" fill="#E3DFCF"/>
<path d="M1875 1.11442e-07H1880V10H1875V1.11442e-07Z" fill="#E3DFCF"/>
<path d="M1880 1.11442e-07H1885V10H1880V1.11442e-07Z" fill="#E3DFCF"/>
<path d="M1885 1.11442e-07H1890V10H1885V1.11442e-07Z" fill="#E3DFCF"/>
<path d="M1890 1.11442e-07H1895V10H1890V1.11442e-07Z" fill="#E3DFCF"/>
<path d="M1895 1.11442e-07H1900V10H1895V1.11442e-07Z" fill="#E3DFCF"/>
<path d="M1900 1.11442e-07H1905V10H1900V1.11442e-07Z" fill="#E3DFCF"/>
<path d="M1905 1.11442e-07H1910V10H1905V1.11442e-07Z" fill="#E3DFCF"/>
<path d="M1910 1.11442e-07H1915V10H1910V1.11442e-07Z" fill="#E3DFCF"/>
<path d="M1915 1.11442e-07H1920V10H1915V1.11442e-07Z" fill="#E3DFCF"/>
<path d="M1920 1.11442e-07H1925V10H1920V1.11442e-07Z" fill="#E3DFCF"/>
<path d="M1925 1.11442e-07H1930V10H1925V1.11442e-07Z" fill="#E3DFCF"/>
<path d="M1930 1.11442e-07H1935V10H1930V1.11442e-07Z" fill="#E3DFCF"/>
<path d="M1935 1.11442e-07H1940V10H1935V1.11442e-07Z" fill="#E3DFCF"/>
<path d="M1940 1.11442e-07H1945V10H1940V1.11442e-07Z" fill="#E3DFCF"/>
<path d="M1945 1.11442e-07H1950V10H1945V1.11442e-07Z" fill="#E3DFCF"/>
<path d="M1950 1.11442e-07H1955V10H1950V1.11442e-07Z" fill="#E3DFCF"/>
<path d="M1955 1.11442e-07H1960V10H1955V1.11442e-07Z" fill="#E3DFCF"/>
<path d="M1960 1.11442e-07H1965V10H1960V1.11442e-07Z" fill="#E3DFCF"/>
<path d="M1965 1.11442e-07H1970V10H1965V1.11442e-07Z" fill="#E3DFCF"/>
<path d="M1970 1.11442e-07H1975V10H1970V1.11442e-07Z" fill="#E3DFCF"/>
<path d="M1975 1.11442e-07H1980V10H1975V1.11442e-07Z" fill="#E3DFCF"/>
<path d="M1985 1.11442e-07H1990V10H1985V1.11442e-07Z" fill="#E3DFCF"/>
<path d="M2000 1.11442e-07H2005V10H2000V1.11442e-07Z" fill="#E3DFCF"/>
<path d="M2005 1.11442e-07H2010V10H2005V1.11442e-07Z" fill="#E3DFCF"/>
<path d="M2010 1.11442e-07H2015V10H2010V1.11442e-07Z" fill="#E3DFCF"/>
<path d="M2015 1.11442e-07H2020V10H2015V1.11442e-07Z" fill="#E3DFCF"/>
<path d="M2020 1.11442e-07H2025V10H2020V1.11442e-07Z" fill="#E3DFCF"/>
<path d="M2025 1.11442e-07H2030V10H2025V1.11442e-07Z" fill="#E3DFCF"/>
<path d="M2030 1.11442e-07H2035V10H2030V1.11442e-07Z" fill="#E3DFCF"/>
<path d="M2035 1.11442e-07H2040V10H2035V1.11442e-07Z" fill="#E3DFCF"/>
<path d="M2040 1.11442e-07H2045V10H2040V1.11442e-07Z" fill="#E3DFCF"/>
<path d="M2045 1.11442e-07H2050V10H2045V1.11442e-07Z" fill="#E3DFCF"/>
<path d="M2050 1.11442e-07H2055V10H2050V1.11442e-07Z" fill="#E3DFCF"/>
<path d="M2055 1.11442e-07H2060V10H2055V1.11442e-07Z" fill="#E3DFCF"/>
<path d="M2060 1.11442e-07H2065V10H2060V1.11442e-07Z" fill="#E3DFCF"/>
<path d="M2065 1.11442e-07H2070V10H2065V1.11442e-07Z" fill="#E3DFCF"/>
<path d="M2070 1.11442e-07H2075V10H2070V1.11442e-07Z" fill="#E3DFCF"/>
<path d="M2075 1.11442e-07H2080V10H2075V1.11442e-07Z" fill="#E3DFCF"/>
<path d="M2080 1.11442e-07H2085V10H2080V1.11442e-07Z" fill="#E3DFCF"/>
<path d="M2085 1.11442e-07H2090V10H2085V1.11442e-07Z" fill="#E3DFCF"/>
<path d="M2090 1.11442e-07H2095V10H2090V1.11442e-07Z" fill="#E3DFCF"/>
<path d="M2095 1.11442e-07H2100V10H2095V1.11442e-07Z" fill="#E3DFCF"/>
<path d="M2100 1.11442e-07H2105V10H2100V1.11442e-07Z" fill="#E3DFCF"/>
<path d="M2105 1.11442e-07H2110V10H2105V1.11442e-07Z" fill="#E3DFCF"/>
<path d="M2110 1.11442e-07H2115V10H2110V1.11442e-07Z" fill="#E3DFCF"/>
<path d="M2115 1.11442e-07H2120V10H2115V1.11442e-07Z" fill="#E3DFCF"/>
<path d="M2120 1.11442e-07H2125V10H2120V1.11442e-07Z" fill="#E3DFCF"/>
<path d="M2125 1.11442e-07H2130V10H2125V1.11442e-07Z" fill="#E3DFCF"/>
<path d="M2135 1.11442e-07H2140V10H2135V1.11442e-07Z" fill="#E3DFCF"/>
<path d="M2140 1.11442e-07H2145V10H2140V1.11442e-07Z" fill="#E3DFCF"/>
<path d="M2145 1.11442e-07H2150V10H2145V1.11442e-07Z" fill="#E3DFCF"/>
<path d="M2150 1.11442e-07H2155V10H2150V1.11442e-07Z" fill="#E3DFCF"/>
<path d="M2155 1.11442e-07H2160V10H2155V1.11442e-07Z" fill="#E3DFCF"/>
<path d="M2160 1.11442e-07H2165V10H2160V1.11442e-07Z" fill="#E3DFCF"/>
<path d="M2165 1.11442e-07H2170V10H2165V1.11442e-07Z" fill="#E3DFCF"/>
<path d="M2170 1.11442e-07H2175V10H2170V1.11442e-07Z" fill="#E3DFCF"/>
<path d="M2175 1.11442e-07H2180V10H2175V1.11442e-07Z" fill="#E3DFCF"/>
<path d="M2180 1.11442e-07H2185V10H2180V1.11442e-07Z" fill="#E3DFCF"/>
<path d="M2185 1.11442e-07H2190V10H2185V1.11442e-07Z" fill="#E3DFCF"/>
<path d="M2190 1.11442e-07H2195V10H2190V1.11442e-07Z" fill="#E3DFCF"/>
<path d="M2195 1.11442e-07H2200V10H2195V1.11442e-07Z" fill="#E3DFCF"/>
<path d="M2200 1.11442e-07H2205V10H2200V1.11442e-07Z" fill="#E3DFCF"/>
<path d="M2205 1.11442e-07H2210V10H2205V1.11442e-07Z" fill="#E3DFCF"/>
<path d="M2210 1.11442e-07H2215V10H2210V1.11442e-07Z" fill="#E3DFCF"/>
<path d="M2215 1.11442e-07H2220V10H2215V1.11442e-07Z" fill="#E3DFCF"/>
<path d="M2220 1.11442e-07H2225V10H2220V1.11442e-07Z" fill="#E3DFCF"/>
<path d="M2225 1.11442e-07H2230V10H2225V1.11442e-07Z" fill="#E3DFCF"/>
<path d="M2230 1.11442e-07H2235V10H2230V1.11442e-07Z" fill="#E3DFCF"/>
<path d="M2235 1.11442e-07H2240V10H2235V1.11442e-07Z" fill="#E3DFCF"/>
<path d="M2240 1.11442e-07H2245V10H2240V1.11442e-07Z" fill="#E3DFCF"/>
<path d="M2245 1.11442e-07H2250V10H2245V1.11442e-07Z" fill="#E3DFCF"/>
<path d="M2250 1.11442e-07H2255V10H2250V1.11442e-07Z" fill="#E3DFCF"/>
<path d="M2255 1.11442e-07H2260V10H2255V1.11442e-07Z" fill="#E3DFCF"/>
<path d="M2260 1.11442e-07H2265V10H2260V1.11442e-07Z" fill="#E3DFCF"/>
<path d="M2265 1.11442e-07H2270V10H2265V1.11442e-07Z" fill="#E3DFCF"/>
<path d="M2270 1.11442e-07H2275V10H2270V1.11442e-07Z" fill="#E3DFCF"/>
<path d="M2275 1.11442e-07H2280V10H2275V1.11442e-07Z" fill="#E3DFCF"/>
<path d="M2280 1.11442e-07H2285V10H2280V1.11442e-07Z" fill="#E3DFCF"/>
<path d="M2285 1.11442e-07H2290V10H2285V1.11442e-07Z" fill="#E3DFCF"/>
<path d="M2290 1.11442e-07H2295V10H2290V1.11442e-07Z" fill="#E3DFCF"/>
<path d="M2295 1.11442e-07H2300V10H2295V1.11442e-07Z" fill="#E3DFCF"/>
<path d="M2300 1.11442e-07H2305V10H2300V1.11442e-07Z" fill="#E3DFCF"/>
<path d="M2305 1.11442e-07H2310V10H2305V1.11442e-07Z" fill="#E3DFCF"/>
<path d="M2310 1.11442e-07H2315V10H2310V1.11442e-07Z" fill="#E3DFCF"/>
<path d="M2315 1.11442e-07H2320V10H2315V1.11442e-07Z" fill="#E3DFCF"/>
<path d="M2320 1.11442e-07H2325V10H2320V1.11442e-07Z" fill="#E3DFCF"/>
<path d="M2325 1.11442e-07H2330V10H2325V1.11442e-07Z" fill="#E3DFCF"/>
<path d="M2330 1.11442e-07H2335V10H2330V1.11442e-07Z" fill="#E3DFCF"/>
<path d="M2335 1.11442e-07H2340V10H2335V1.11442e-07Z" fill="#E3DFCF"/>
<path d="M2340 1.11442e-07H2345V10H2340V1.11442e-07Z" fill="#E3DFCF"/>
<path d="M2345 1.11442e-07H2350V10H2345V1.11442e-07Z" fill="#E3DFCF"/>
<path d="M2350 1.11442e-07H2355V10H2350V1.11442e-07Z" fill="#E3DFCF"/>
<path d="M2355 1.11442e-07H2360V10H2355V1.11442e-07Z" fill="#E3DFCF"/>
<path d="M2360 1.11442e-07H2365V10H2360V1.11442e-07Z" fill="#E3DFCF"/>
<path d="M2365 1.11442e-07H2370V10H2365V1.11442e-07Z" fill="#E3DFCF"/>
<path d="M2370 1.11442e-07H2375V10H2370V1.11442e-07Z" fill="#E3DFCF"/>
<path d="M2375 1.11442e-07H2380V10H2375V1.11442e-07Z" fill="#E3DFCF"/>
<path d="M2380 1.11442e-07H2385V10H2380V1.11442e-07Z" fill="#E3DFCF"/>
<path d="M2385 1.11442e-07H2390V10H2385V1.11442e-07Z" fill="#E3DFCF"/>
<path d="M2390 1.11442e-07H2395V10H2390V1.11442e-07Z" fill="#E3DFCF"/>
<path d="M2395 1.11442e-07H2400V10H2395V1.11442e-07Z" fill="#E3DFCF"/>
<path d="M2400 1.11442e-07H2405V10H2400V1.11442e-07Z" fill="#E3DFCF"/>
<path d="M2405 1.11442e-07H2410V10H2405V1.11442e-07Z" fill="#E3DFCF"/>
<path d="M2410 1.11442e-07H2415V10H2410V1.11442e-07Z" fill="#E3DFCF"/>
<path d="M2415 1.11442e-07H2420V10H2415V1.11442e-07Z" fill="#E3DFCF"/>
<path d="M2420 1.11442e-07H2425V10H2420V1.11442e-07Z" fill="#E3DFCF"/>
<path d="M2425 1.11442e-07H2430V10H2425V1.11442e-07Z" fill="#E3DFCF"/>
<path d="M2430 1.11442e-07H2435V10H2430V1.11442e-07Z" fill="#E3DFCF"/>
<path d="M2435 1.11442e-07H2440V10H2435V1.11442e-07Z" fill="#E3DFCF"/>
<path d="M2440 1.11442e-07H2445V10H2440V1.11442e-07Z" fill="#E3DFCF"/>
<path d="M2445 1.11442e-07H2450V10H2445V1.11442e-07Z" fill="#E3DFCF"/>
<path d="M2450 1.11442e-07H2455V10H2450V1.11442e-07Z" fill="#E3DFCF"/>
<path d="M2455 1.11442e-07H2460V10H2455V1.11442e-07Z" fill="#E3DFCF"/>
<path d="M2460 1.11442e-07H2465V10H2460V1.11442e-07Z" fill="#E3DFCF"/>
<path d="M2465 1.11442e-07H2470V10H2465V1.11442e-07Z" fill="#E3DFCF"/>
<path d="M2470 1.11442e-07H2475V10H2470V1.11442e-07Z" fill="#E3DFCF"/>
<path d="M2475 1.11442e-07H2480V10H2475V1.11442e-07Z" fill="#E3DFCF"/>
<path d="M2480 1.11442e-07H2485V10H2480V1.11442e-07Z" fill="#E3DFCF"/>
<path d="M2485 1.11442e-07H2490V10H2485V1.11442e-07Z" fill="#E3DFCF"/>
<path d="M2490 1.11442e-07H2495V10H2490V1.11442e-07Z" fill="#E3DFCF"/>
<path d="M2495 1.11442e-07H2500V10H2495V1.11442e-07Z" fill="#E3DFCF"/>
<path d="M2500 1.11442e-07H2505V10H2500V1.11442e-07Z" fill="#E3DFCF"/>
<path d="M2505 1.11442e-07H2510V10H2505V1.11442e-07Z" fill="#E3DFCF"/>
<path d="M2510 1.11442e-07H2515V10H2510V1.11442e-07Z" fill="#E3DFCF"/>
<path d="M2515 1.11442e-07H2520V10H2515V1.11442e-07Z" fill="#E3DFCF"/>
<path d="M2520 1.11442e-07H2525V10H2520V1.11442e-07Z" fill="#E3DFCF"/>
<path d="M2525 1.11442e-07H2530V10H2525V1.11442e-07Z" fill="#E3DFCF"/>
<path d="M2530 1.11442e-07H2535V10H2530V1.11442e-07Z" fill="#E3DFCF"/>
<path d="M2535 1.11442e-07H2540V10H2535V1.11442e-07Z" fill="#E3DFCF"/>
<path d="M2540 1.11442e-07H2545V10H2540V1.11442e-07Z" fill="#E3DFCF"/>
<path d="M2545 1.11442e-07H2550V10H2545V1.11442e-07Z" fill="#E3DFCF"/>
<path d="M2550 1.11442e-07H2555V10H2550V1.11442e-07Z" fill="#E3DFCF"/>
<path d="M2555 1.11442e-07H2560V10H2555V1.11442e-07Z" fill="#E3DFCF"/>
<path d="M2560 1.11442e-07H2565V10H2560V1.11442e-07Z" fill="#E3DFCF"/>
<path d="M2565 1.11442e-07H2570V10H2565V1.11442e-07Z" fill="#E3DFCF"/>
<path d="M2570 1.11442e-07H2575V10H2570V1.11442e-07Z" fill="#E3DFCF"/>
<path d="M2575 1.11442e-07H2580V10H2575V1.11442e-07Z" fill="#E3DFCF"/>
<path d="M2580 1.11442e-07H2585V10H2580V1.11442e-07Z" fill="#E3DFCF"/>
<path d="M2585 1.11442e-07H2590V10H2585V1.11442e-07Z" fill="#E3DFCF"/>
<path d="M2590 1.11442e-07H2595V10H2590V1.11442e-07Z" fill="#E3DFCF"/>
<path d="M2595 1.11442e-07H2600V10H2595V1.11442e-07Z" fill="#E3DFCF"/>
<path d="M2600 1.11442e-07H2605V10H2600V1.11442e-07Z" fill="#E3DFCF"/>
<path d="M2605 1.11442e-07H2610V10H2605V1.11442e-07Z" fill="#E3DFCF"/>
<path d="M2610 1.11442e-07H2615V10H2610V1.11442e-07Z" fill="#E3DFCF"/>
<path d="M2615 1.11442e-07H2620V10H2615V1.11442e-07Z" fill="#E3DFCF"/>
<path d="M2620 1.11442e-07H2625V10H2620V1.11442e-07Z" fill="#E3DFCF"/>
<path d="M2625 1.11442e-07H2630V10H2625V1.11442e-07Z" fill="#E3DFCF"/>
<path d="M2630 1.11442e-07H2635V10H2630V1.11442e-07Z" fill="#E3DFCF"/>
<path d="M2635 1.11442e-07H2640V10H2635V1.11442e-07Z" fill="#E3DFCF"/>
<path d="M2640 1.11442e-07H2645V10H2640V1.11442e-07Z" fill="#E3DFCF"/>
<path d="M2645 1.11442e-07H2650V10H2645V1.11442e-07Z" fill="#E3DFCF"/>
<path d="M2650 1.11442e-07H2655V10H2650V1.11442e-07Z" fill="#E3DFCF"/>
<path d="M2655 1.11442e-07H2660V10H2655V1.11442e-07Z" fill="#E3DFCF"/>
<path d="M2660 1.11442e-07H2665V10H2660V1.11442e-07Z" fill="#E3DFCF"/>
<path d="M2665 1.11442e-07H2670V10H2665V1.11442e-07Z" fill="#E3DFCF"/>
<path d="M2670 1.11442e-07H2675V10H2670V1.11442e-07Z" fill="#E3DFCF"/>
<path d="M2675 1.11442e-07H2680V10H2675V1.11442e-07Z" fill="#E3DFCF"/>
<path d="M2680 1.11442e-07H2685V10H2680V1.11442e-07Z" fill="#E3DFCF"/>
<path d="M2685 1.11442e-07H2690V10H2685V1.11442e-07Z" fill="#E3DFCF"/>
<path d="M2690 1.11442e-07H2695V10H2690V1.11442e-07Z" fill="#E3DFCF"/>
<path d="M2695 1.11442e-07H2700V10H2695V1.11442e-07Z" fill="#E3DFCF"/>
<path d="M2700 1.11442e-07H2705V10H2700V1.11442e-07Z" fill="#E3DFCF"/>
<path d="M2705 1.11442e-07H2710V10H2705V1.11442e-07Z" fill="#E3DFCF"/>
<path d="M2710 1.11442e-07H2715V10H2710V1.11442e-07Z" fill="#E3DFCF"/>
<path d="M2715 1.11442e-07H2720V10H2715V1.11442e-07Z" fill="#E3DFCF"/>
<path d="M2720 1.11442e-07H2725V10H2720V1.11442e-07Z" fill="#E3DFCF"/>
<path d="M2725 1.11442e-07H2730V10H2725V1.11442e-07Z" fill="#E3DFCF"/>
<path d="M2730 1.11442e-07H2735V10H2730V1.11442e-07Z" fill="#E3DFCF"/>
<path d="M2735 1.11442e-07H2740V10H2735V1.11442e-07Z" fill="#E3DFCF"/>
<path d="M2740 1.11442e-07H2745V10H2740V1.11442e-07Z" fill="#E3DFCF"/>
<path d="M2745 1.11442e-07H2750V10H2745V1.11442e-07Z" fill="#E3DFCF"/>
<path d="M2750 1.11442e-07H2755V10H2750V1.11442e-07Z" fill="#E3DFCF"/>
<path d="M2755 1.11442e-07H2760V10H2755V1.11442e-07Z" fill="#E3DFCF"/>
<path d="M2760 1.11442e-07H2765V10H2760V1.11442e-07Z" fill="#E3DFCF"/>
<path d="M2765 1.11442e-07H2770V10H2765V1.11442e-07Z" fill="#E3DFCF"/>
<path d="M2770 1.11442e-07H2775V10H2770V1.11442e-07Z" fill="#E3DFCF"/>
<path d="M2775 1.11442e-07H2780V10H2775V1.11442e-07Z" fill="#E3DFCF"/>
<path d="M2780 1.11442e-07H2785V10H2780V1.11442e-07Z" fill="#E3DFCF"/>
<path d="M2785 1.11442e-07H2790V10H2785V1.11442e-07Z" fill="#E3DFCF"/>
<path d="M2790 1.11442e-07H2795V10H2790V1.11442e-07Z" fill="#E3DFCF"/>
<path d="M2795 1.11442e-07H2800V10H2795V1.11442e-07Z" fill="#E3DFCF"/>
<path d="M2800 1.11442e-07H2805V10H2800V1.11442e-07Z" fill="#E3DFCF"/>
<path d="M2805 1.11442e-07H2810V10H2805V1.11442e-07Z" fill="#E3DFCF"/>
<path d="M2810 1.11442e-07H2815V10H2810V1.11442e-07Z" fill="#E3DFCF"/>
<path d="M2815 1.11442e-07H2820V10H2815V1.11442e-07Z" fill="#E3DFCF"/>
<path d="M2820 1.11442e-07H2825V10H2820V1.11442e-07Z" fill="#E3DFCF"/>
<path d="M2825 1.11442e-07H2830V10H2825V1.11442e-07Z" fill="#E3DFCF"/>
<path d="M2830 1.11442e-07H2835V10H2830V1.11442e-07Z" fill="#E3DFCF"/>
<path d="M2835 1.11442e-07H2840V10H2835V1.11442e-07Z" fill="#E3DFCF"/>
<path d="M2840 1.11442e-07H2845V10H2840V1.11442e-07Z" fill="#E3DFCF"/>
<path d="M2845 1.11442e-07H2850V10H2845V1.11442e-07Z" fill="#E3DFCF"/>
<path d="M2850 1.11442e-07H2855V10H2850V1.11442e-07Z" fill="#E3DFCF"/>
<path d="M2855 1.11442e-07H2860V10H2855V1.11442e-07Z" fill="#E3DFCF"/>
<path d="M2865 1.11442e-07H2870V10H2865V1.11442e-07Z" fill="#E3DFCF"/>
<path d="M2870 1.11442e-07H2875V10H2870V1.11442e-07Z" fill="#E3DFCF"/>
<path d="M2875 1.11442e-07H2880V10H2875V1.11442e-07Z" fill="#E3DFCF"/>
<path d="M2880 1.11442e-07H2885V10H2880V1.11442e-07Z" fill="#E3DFCF"/>
<path d="M2885 1.11442e-07H2890V10H2885V1.11442e-07Z" fill="#E3DFCF"/>
<path d="M2890 1.11442e-07H2895V10H2890V1.11442e-07Z" fill="#E3DFCF"/>
<path d="M2895 1.11442e-07H2900V10H2895V1.11442e-07Z" fill="#E3DFCF"/>
<path d="M2900 1.11442e-07H2905V10H2900V1.11442e-07Z" fill="#E3DFCF"/>
<path d="M2905 1.11442e-07H2910V10H2905V1.11442e-07Z" fill="#E3DFCF"/>
<path d="M2910 1.11442e-07H2915V10H2910V1.11442e-07Z" fill="#E3DFCF"/>
<path d="M2915 1.11442e-07H2920V10H2915V1.11442e-07Z" fill="#E3DFCF"/>
<path d="M2920 1.11442e-07H2925V10H2920V1.11442e-07Z" fill="#E3DFCF"/>
<path d="M2925 1.11442e-07H2930V10H2925V1.11442e-07Z" fill="#E3DFCF"/>
<path d="M2930 1.11442e-07H2935V10H2930V1.11442e-07Z" fill="#E3DFCF"/>
<path d="M2935 1.11442e-07H2940V10H2935V1.11442e-07Z" fill="#E3DFCF"/>
<path d="M2940 1.11442e-07H2945V10H2940V1.11442e-07Z" fill="#E3DFCF"/>
<path d="M2945 1.11442e-07H2950V10H2945V1.11442e-07Z" fill="#E3DFCF"/>
<path d="M2950 1.11442e-07H2955V10H2950V1.11442e-07Z" fill="#E3DFCF"/>
<path d="M2955 1.11442e-07H2960V10H2955V1.11442e-07Z" fill="#E3DFCF"/>
<path d="M2960 1.11442e-07H2965V10H2960V1.11442e-07Z" fill="#E3DFCF"/>
<path d="M2965 1.11442e-07H2970V10H2965V1.11442e-07Z" fill="#E3DFCF"/>
<path d="M2970 1.11442e-07H2975V10H2970V1.11442e-07Z" fill="#E3DFCF"/>
<path d="M2975 1.11442e-07H2980V10H2975V1.11442e-07Z" fill="#E3DFCF"/>
<path d="M2980 1.11442e-07H2985V10H2980V1.11442e-07Z" fill="#E3DFCF"/>
<path d="M2985 1.11442e-07H2990V10H2985V1.11442e-07Z" fill="#E3DFCF"/>
<path d="M2990 1.11442e-07H2995V10H2990V1.11442e-07Z" fill="#E3DFCF"/>
<path d="M2995 1.11442e-07H3000V10H2995V1.11442e-07Z" fill="#E3DFCF"/>
<path d="M3000 1.11442e-07H3005V10H3000V1.11442e-07Z" fill="#E3DFCF"/>
<path d="M3005 1.11442e-07H3010V10H3005V1.11442e-07Z" fill="#E3DFCF"/>
<path d="M3010 1.11442e-07H3015V10H3010V1.11442e-07Z" fill="#E3DFCF"/>
<path d="M3015 1.11442e-07H3020V10H3015V1.11442e-07Z" fill="#E3DFCF"/>
<path d="M3020 1.11442e-07H3025V10H3020V1.11442e-07Z" fill="#E3DFCF"/>
<path d="M3025 1.11442e-07H3030V10H3025V1.11442e-07Z" fill="#E3DFCF"/>
<path d="M3030 1.11442e-07H3035V10H3030V1.11442e-07Z" fill="#E3DFCF"/>
<path d="M3035 1.11442e-07H3040V10H3035V1.11442e-07Z" fill="#E3DFCF"/>
<path d="M3040 1.11442e-07H3045V10H3040V1.11442e-07Z" fill="#E3DFCF"/>
<path d="M3045 1.11442e-07H3050V10H3045V1.11442e-07Z" fill="#E3DFCF"/>
<path d="M3050 1.11442e-07H3055V10H3050V1.11442e-07Z" fill="#E3DFCF"/>
<path d="M3055 1.11442e-07H3060V10H3055V1.11442e-07Z" fill="#E3DFCF"/>
<path d="M3060 1.11442e-07H3065V10H3060V1.11442e-07Z" fill="#E3DFCF"/>
<path d="M3065 1.11442e-07H3070V10H3065V1.11442e-07Z" fill="#E3DFCF"/>
<path d="M3070 1.11442e-07H3075V10H3070V1.11442e-07Z" fill="#E3DFCF"/>
<path d="M3075 1.11442e-07H3080V10H3075V1.11442e-07Z" fill="#E3DFCF"/>
<path d="M3080 1.11442e-07H3085V10H3080V1.11442e-07Z" fill="#E3DFCF"/>
<path d="M3085 1.11442e-07H3090V10H3085V1.11442e-07Z" fill="#E3DFCF"/>
<path d="M3090 1.11442e-07H3095V10H3090V1.11442e-07Z" fill="#E3DFCF"/>
<path d="M3095 1.11442e-07H3100V10H3095V1.11442e-07Z" fill="#E3DFCF"/>
<path d="M3100 1.11442e-07H3105V10H3100V1.11442e-07Z" fill="#E3DFCF"/>
<path d="M3105 1.11442e-07H3110V10H3105V1.11442e-07Z" fill="#E3DFCF"/>
<path d="M3110 1.11442e-07H3115V10H3110V1.11442e-07Z" fill="#E3DFCF"/>
<path d="M3115 1.11442e-07H3120V10H3115V1.11442e-07Z" fill="#E3DFCF"/>
<path d="M3120 1.11442e-07H3125V10H3120V1.11442e-07Z" fill="#E3DFCF"/>
<path d="M3125 1.11442e-07H3130V10H3125V1.11442e-07Z" fill="#E3DFCF"/>
<path d="M3130 1.11442e-07H3135V10H3130V1.11442e-07Z" fill="#E3DFCF"/>
<path d="M3135 1.11442e-07H3140V10H3135V1.11442e-07Z" fill="#E3DFCF"/>
<path d="M3140 1.11442e-07H3145V10H3140V1.11442e-07Z" fill="#E3DFCF"/>
<path d="M3145 1.11442e-07H3150V10H3145V1.11442e-07Z" fill="#E3DFCF"/>
<path d="M3150 1.11442e-07H3155V10H3150V1.11442e-07Z" fill="#E3DFCF"/>
<path d="M3155 1.11442e-07H3160V10H3155V1.11442e-07Z" fill="#E3DFCF"/>
<path d="M3160 1.11442e-07H3165V10H3160V1.11442e-07Z" fill="#E3DFCF"/>
<path d="M3165 1.11442e-07H3170V10H3165V1.11442e-07Z" fill="#E3DFCF"/>
<path d="M3170 1.11442e-07H3175V10H3170V1.11442e-07Z" fill="#E3DFCF"/>
<path d="M3175 1.11442e-07H3180V10H3175V1.11442e-07Z" fill="#E3DFCF"/>
<path d="M3180 1.11442e-07H3185V10H3180V1.11442e-07Z" fill="#E3DFCF"/>
<path d="M3185 1.11442e-07H3190V10H3185V1.11442e-07Z" fill="#E3DFCF"/>
<path d="M3190 1.11442e-07H3195V10H3190V1.11442e-07Z" fill="#E3DFCF"/>
<path d="M3195 1.11442e-07H3200V10H3195V1.11442e-07Z" fill="#E3DFCF"/>
<path d="M3200 1.11442e-07H3205V10H3200V1.11442e-07Z" fill="#E3DFCF"/>
<path d="M3205 1.11442e-07H3210V10H3205V1.11442e-07Z" fill="#E3DFCF"/>
<path d="M3210 1.11442e-07H3215V10H3210V1.11442e-07Z" fill="#E3DFCF"/>
<path d="M3215 1.11442e-07H3220V10H3215V1.11442e-07Z" fill="#E3DFCF"/>
<path d="M3220 1.11442e-07H3225V10H3220V1.11442e-07Z" fill="#E3DFCF"/>
<path d="M3225 1.11442e-07H3230V10H3225V1.11442e-07Z" fill="#E3DFCF"/>
<path d="M3230 1.11442e-07H3235V10H3230V1.11442e-07Z" fill="#E3DFCF"/>
<path d="M3235 1.11442e-07H3240V10H3235V1.11442e-07Z" fill="#E3DFCF"/>
<path d="M3240 1.11442e-07H3245V10H3240V1.11442e-07Z" fill="#E3DFCF"/>
<path d="M3245 1.11442e-07H3250V10H3245V1.11442e-07Z" fill="#E3DFCF"/>
<path d="M3250 1.11442e-07H3255V10H3250V1.11442e-07Z" fill="#E3DFCF"/>
<path d="M3255 1.11442e-07H3260V10H3255V1.11442e-07Z" fill="#E3DFCF"/>
<path d="M3260 1.11442e-07H3265V10H3260V1.11442e-07Z" fill="#E3DFCF"/>
<path d="M3265 1.11442e-07H3270V10H3265V1.11442e-07Z" fill="#E3DFCF"/>
<path d="M3270 1.11442e-07H3275V10H3270V1.11442e-07Z" fill="#E3DFCF"/>
<path d="M3275 1.11442e-07H3280V10H3275V1.11442e-07Z" fill="#E3DFCF"/>
<path d="M3280 1.11442e-07H3285V10H3280V1.11442e-07Z" fill="#E3DFCF"/>
<path d="M3285 1.11442e-07H3290V10H3285V1.11442e-07Z" fill="#E3DFCF"/>
<path d="M3290 1.11442e-07H3295V10H3290V1.11442e-07Z" fill="#E3DFCF"/>
<path d="M3295 1.11442e-07H3300V10H3295V1.11442e-07Z" fill="#E3DFCF"/>
<path d="M3300 1.11442e-07H3305V10H3300V1.11442e-07Z" fill="#E3DFCF"/>
<path d="M3305 1.11442e-07H3310V10H3305V1.11442e-07Z" fill="#E3DFCF"/>
<path d="M3310 1.11442e-07H3315V10H3310V1.11442e-07Z" fill="#E3DFCF"/>
<path d="M3315 1.11442e-07H3320V10H3315V1.11442e-07Z" fill="#E3DFCF"/>
<path d="M3325 1.11442e-07H3330V10H3325V1.11442e-07Z" fill="#E3DFCF"/>
<path d="M3330 1.11442e-07H3335V10H3330V1.11442e-07Z" fill="#E3DFCF"/>
<path d="M3350 1.11442e-07H3355V10H3350V1.11442e-07Z" fill="#E3DFCF"/>
<path d="M3360 1.11442e-07H3365V10H3360V1.11442e-07Z" fill="#E3DFCF"/>
<path d="M3365 1.11442e-07H3370V10H3365V1.11442e-07Z" fill="#E3DFCF"/>
<path d="M3370 1.11442e-07H3375V10H3370V1.11442e-07Z" fill="#E3DFCF"/>
<path d="M3375 1.11442e-07H3380V10H3375V1.11442e-07Z" fill="#E3DFCF"/>
<path d="M3380 1.11442e-07H3385V10H3380V1.11442e-07Z" fill="#E3DFCF"/>
<path d="M3385 1.11442e-07H3390V10H3385V1.11442e-07Z" fill="#E3DFCF"/>
<path d="M3390 1.11442e-07H3395V10H3390V1.11442e-07Z" fill="#E3DFCF"/>
<path d="M3395 1.11442e-07H3400V10H3395V1.11442e-07Z" fill="#E3DFCF"/>
<path d="M3400 1.11442e-07H3405V10H3400V1.11442e-07Z" fill="#E3DFCF"/>
<path d="M3405 1.11442e-07H3410V10H3405V1.11442e-07Z" fill="#E3DFCF"/>
<path d="M3410 1.11442e-07H3415V10H3410V1.11442e-07Z" fill="#E3DFCF"/>
<path d="M3415 1.11442e-07H3420V10H3415V1.11442e-07Z" fill="#E3DFCF"/>
<path d="M3420 1.11442e-07H3425V10H3420V1.11442e-07Z" fill="#E3DFCF"/>
<path d="M3425 1.11442e-07H3430V10H3425V1.11442e-07Z" fill="#E3DFCF"/>
<path d="M3430 1.11442e-07H3435V10H3430V1.11442e-07Z" fill="#E3DFCF"/>
<path d="M3435 1.11442e-07H3440V10H3435V1.11442e-07Z" fill="#E3DFCF"/>
<path d="M3440 1.11442e-07H3445V10H3440V1.11442e-07Z" fill="#E3DFCF"/>
<path d="M3445 1.11442e-07H3450V10H3445V1.11442e-07Z" fill="#E3DFCF"/>
<path d="M3450 1.11442e-07H3455V10H3450V1.11442e-07Z" fill="#E3DFCF"/>
<path d="M3455 1.11442e-07H3460V10H3455V1.11442e-07Z" fill="#E3DFCF"/>
<path d="M3460 1.11442e-07H3465V10H3460V1.11442e-07Z" fill="#E3DFCF"/>
<path d="M3465 1.11442e-07H3470V10H3465V1.11442e-07Z" fill="#E3DFCF"/>
<path d="M3470 1.11442e-07H3475V10H3470V1.11442e-07Z" fill="#E3DFCF"/>
<path d="M3475 1.11442e-07H3480V10H3475V1.11442e-07Z" fill="#E3DFCF"/>
<path d="M3480 1.11442e-07H3485V10H3480V1.11442e-07Z" fill="#E3DFCF"/>
<path d="M3485 1.11442e-07H3490V10H3485V1.11442e-07Z" fill="#E3DFCF"/>
<path d="M3490 1.11442e-07H3495V10H3490V1.11442e-07Z" fill="#E3DFCF"/>
<path d="M3495 1.11442e-07H3500V10H3495V1.11442e-07Z" fill="#E3DFCF"/>
<path d="M3500 1.11442e-07H3505V10H3500V1.11442e-07Z" fill="#E3DFCF"/>
<path d="M3505 1.11442e-07H3510V10H3505V1.11442e-07Z" fill="#E3DFCF"/>
<path d="M3510 1.11442e-07H3515V10H3510V1.11442e-07Z" fill="#E3DFCF"/>
<path d="M3515 1.11442e-07H3520V10H3515V1.11442e-07Z" fill="#E3DFCF"/>
<path d="M3520 1.11442e-07H3525V10H3520V1.11442e-07Z" fill="#E3DFCF"/>
<path d="M3525 1.11442e-07H3530V10H3525V1.11442e-07Z" fill="#E3DFCF"/>
<path d="M3530 1.11442e-07H3535V10H3530V1.11442e-07Z" fill="#E3DFCF"/>
<path d="M3535 1.11442e-07H3540V10H3535V1.11442e-07Z" fill="#E3DFCF"/>
<path d="M3540 1.11442e-07H3545V10H3540V1.11442e-07Z" fill="#E3DFCF"/>
<path d="M3545 1.11442e-07H3550V10H3545V1.11442e-07Z" fill="#E3DFCF"/>
<path d="M3550 1.11442e-07H3555V10H3550V1.11442e-07Z" fill="#E3DFCF"/>
<path d="M3555 1.11442e-07H3560V10H3555V1.11442e-07Z" fill="#E3DFCF"/>
<path d="M3560 1.11442e-07H3565V10H3560V1.11442e-07Z" fill="#E3DFCF"/>
<path d="M3565 1.11442e-07H3570V10H3565V1.11442e-07Z" fill="#E3DFCF"/>
<path d="M3570 1.11442e-07H3575V10H3570V1.11442e-07Z" fill="#E3DFCF"/>
<path d="M3575 1.11442e-07H3580V10H3575V1.11442e-07Z" fill="#E3DFCF"/>
<path d="M3580 1.11442e-07H3585V10H3580V1.11442e-07Z" fill="#E3DFCF"/>
<path d="M3610 1.11442e-07H3615V10H3610V1.11442e-07Z" fill="#E3DFCF"/>
<path d="M3615 1.11442e-07H3620V10H3615V1.11442e-07Z" fill="#E3DFCF"/>
<path d="M3620 1.11442e-07H3625V10H3620V1.11442e-07Z" fill="#E3DFCF"/>
<path d="M3625 1.11442e-07H3630V10H3625V1.11442e-07Z" fill="#E3DFCF"/>
<path d="M3635 1.11442e-07H3640V10H3635V1.11442e-07Z" fill="#E3DFCF"/>
</svg>
