<svg width="3650" height="10" viewBox="0 0 3650 10" fill="none" xmlns="http://www.w3.org/2000/svg">
<path d="M270 2.26498e-06H275V1.42857H270V2.26498e-06Z" fill="#FF3D00"/>
<path d="M275 5.126e-06H280V1.66667H275V5.126e-06Z" fill="#FF3D00"/>
<path d="M280 0H285V2.5H280V0Z" fill="#FF3D00"/>
<path d="M285 -2.38419e-07H290V2H285V-2.38419e-07Z" fill="#FF3D00"/>
<path d="M290 -2.38419e-07H295V2H290V-2.38419e-07Z" fill="#FF3D00"/>
<path d="M295 5.126e-06H300V1.66667H295V5.126e-06Z" fill="#FF3D00"/>
<path d="M300 2.26498e-06H305V1.42857H300V2.26498e-06Z" fill="#FF3D00"/>
<path d="M305 5.126e-06H310V1.66667H305V5.126e-06Z" fill="#FF3D00"/>
<path d="M310 5.126e-06H315V1.66667H310V5.126e-06Z" fill="#FF3D00"/>
<path d="M315 5.126e-06H320V1.66667H315V5.126e-06Z" fill="#FF3D00"/>
<path d="M320 -5.00679e-06H325V3.33333H320V-5.00679e-06Z" fill="#FF3D00"/>
<path d="M325 5.126e-06H330V1.66667H325V5.126e-06Z" fill="#FF3D00"/>
<path d="M330 0H335V2.5H330V0Z" fill="#FF3D00"/>
<path d="M335 -2.38419e-07H340V2H335V-2.38419e-07Z" fill="#FF3D00"/>
<path d="M345 0H350V2.5H345V0Z" fill="#FF3D00"/>
<path d="M355 0H360V2.5H355V0Z" fill="#FF3D00"/>
<path d="M365 -5.00679e-06H370V3.33333H365V-5.00679e-06Z" fill="#FF3D00"/>
<path d="M375 -2.38419e-07H380V2H375V-2.38419e-07Z" fill="#FF3D00"/>
<path d="M385 0H390V2.5H385V0Z" fill="#FF3D00"/>
<path d="M400 -5.00679e-06H405V3.33333H400V-5.00679e-06Z" fill="#FF3D00"/>
<path d="M410 -2.38419e-07H415V2H410V-2.38419e-07Z" fill="#FF3D00"/>
<path d="M435 -2.38419e-07H440V2H435V-2.38419e-07Z" fill="#FF3D00"/>
<path d="M465 0H470V2.5H465V0Z" fill="#FF3D00"/>
<path d="M500 -5.00679e-06H505V3.33333H500V-5.00679e-06Z" fill="#FF3D00"/>
<path d="M550 0H555V2.5H550V0Z" fill="#FF3D00"/>
<path d="M750 -5.00679e-06H755V3.33333H750V-5.00679e-06Z" fill="#FF3D00"/>
<path d="M1110 0H1115V5H1110V0Z" fill="#FF3D00"/>
<path d="M1335 0H1340V5H1335V0Z" fill="#FF3D00"/>
<path d="M1340 0H1345V5H1340V0Z" fill="#FF3D00"/>
<path d="M1350 -5.00679e-06H1355V3.33333H1350V-5.00679e-06Z" fill="#FF3D00"/>
<path d="M1425 -5.00679e-06H1430V3.33333H1425V-5.00679e-06Z" fill="#FF3D00"/>
<path d="M2095 -5.00679e-06H2100V3.33333H2095V-5.00679e-06Z" fill="#FF3D00"/>
<path d="M225 0H230V2.5H225V0Z" fill="#4ADADA"/>
<path d="M270 1.42858H275V2.85715H270V1.42858Z" fill="#4ADADA"/>
<path d="M275 1.66666H280V3.33333H275V1.66666Z" fill="#4ADADA"/>
<path d="M285 2H290V4H285V2Z" fill="#4ADADA"/>
<path d="M290 2H295V4H290V2Z" fill="#4ADADA"/>
<path d="M295 1.66666H300V3.33333H295V1.66666Z" fill="#4ADADA"/>
<path d="M300 1.42858H305V2.85715H300V1.42858Z" fill="#4ADADA"/>
<path d="M305 1.66666H310V3.33333H305V1.66666Z" fill="#4ADADA"/>
<path d="M310 1.66666H315V3.33333H310V1.66666Z" fill="#4ADADA"/>
<path d="M315 1.66666H320V3.33333H315V1.66666Z" fill="#4ADADA"/>
<path d="M325 1.66666H330V3.33333H325V1.66666Z" fill="#4ADADA"/>
<path d="M335 2H340V4H335V2Z" fill="#4ADADA"/>
<path d="M340 0H345V2.5H340V0Z" fill="#4ADADA"/>
<path d="M375 2H380V4H375V2Z" fill="#4ADADA"/>
<path d="M390 0H395V5H390V0Z" fill="#4ADADA"/>
<path d="M405 -5.00679e-06H410V3.33333H405V-5.00679e-06Z" fill="#4ADADA"/>
<path d="M410 2H415V4H410V2Z" fill="#4ADADA"/>
<path d="M435 2H440V4H435V2Z" fill="#4ADADA"/>
<path d="M465 2.5H470V5H465V2.5Z" fill="#4ADADA"/>
<path d="M545 -5.00679e-06H550V3.33333H545V-5.00679e-06Z" fill="#4ADADA"/>
<path d="M800 -5.00679e-06H805V3.33333H800V-5.00679e-06Z" fill="#4ADADA"/>
<path d="M1425 3.33334H1430V6.66667H1425V3.33334Z" fill="#4ADADA"/>
<path d="M1495 0H1500V5H1495V0Z" fill="#4ADADA"/>
<path d="M2845 0H2850V5H2845V0Z" fill="#4ADADA"/>
<path d="M3150 -5.00679e-06H3155V3.33333H3150V-5.00679e-06Z" fill="#4ADADA"/>
<path d="M120 0H125V5H120V0Z" fill="#FF984D"/>
<path d="M125 0H130V5H125V0Z" fill="#FF984D"/>
<path d="M150 0H155V5H150V0Z" fill="#FF984D"/>
<path d="M155 0H160V5H155V0Z" fill="#FF984D"/>
<path d="M160 0H165V5H160V0Z" fill="#FF984D"/>
<path d="M165 0H170V5H165V0Z" fill="#FF984D"/>
<path d="M200 0H205V5H200V0Z" fill="#FF984D"/>
<path d="M210 0H215V5H210V0Z" fill="#FF984D"/>
<path d="M220 0H225V5H220V0Z" fill="#FF984D"/>
<path d="M225 2.5H230V5H225V2.5Z" fill="#FF984D"/>
<path d="M230 0H235V5H230V0Z" fill="#FF984D"/>
<path d="M235 -5.00679e-06H240V3.33333H235V-5.00679e-06Z" fill="#FF984D"/>
<path d="M240 0H245V5H240V0Z" fill="#FF984D"/>
<path d="M255 0H260V5H255V0Z" fill="#FF984D"/>
<path d="M260 0H265V2.5H260V0Z" fill="#FF984D"/>
<path d="M265 -5.00679e-06H270V3.33333H265V-5.00679e-06Z" fill="#FF984D"/>
<path d="M270 2.85715H275V4.28572H270V2.85715Z" fill="#FF984D"/>
<path d="M275 3.33333H280V5H275V3.33333Z" fill="#FF984D"/>
<path d="M280 2.5H285V5H280V2.5Z" fill="#FF984D"/>
<path d="M285 4H290V6H285V4Z" fill="#FF984D"/>
<path d="M290 4H295V6H290V4Z" fill="#FF984D"/>
<path d="M295 3.33333H300V5H295V3.33333Z" fill="#FF984D"/>
<path d="M300 2.85715H305V4.28572H300V2.85715Z" fill="#FF984D"/>
<path d="M305 3.33333H310V5H305V3.33333Z" fill="#FF984D"/>
<path d="M310 3.33333H315V5H310V3.33333Z" fill="#FF984D"/>
<path d="M315 3.33333H320V5H315V3.33333Z" fill="#FF984D"/>
<path d="M320 3.33334H325V6.66667H320V3.33334Z" fill="#FF984D"/>
<path d="M325 3.33333H330V5H325V3.33333Z" fill="#FF984D"/>
<path d="M330 2.5H335V5H330V2.5Z" fill="#FF984D"/>
<path d="M335 4H340V6H335V4Z" fill="#FF984D"/>
<path d="M340 2.5H345V5H340V2.5Z" fill="#FF984D"/>
<path d="M345 2.5H350V5H345V2.5Z" fill="#FF984D"/>
<path d="M350 -5.00679e-06H355V3.33333H350V-5.00679e-06Z" fill="#FF984D"/>
<path d="M355 2.5H360V5H355V2.5Z" fill="#FF984D"/>
<path d="M360 0H365V5H360V0Z" fill="#FF984D"/>
<path d="M365 3.33334H370V6.66667H365V3.33334Z" fill="#FF984D"/>
<path d="M370 0H375V2.5H370V0Z" fill="#FF984D"/>
<path d="M375 4H380V6H375V4Z" fill="#FF984D"/>
<path d="M380 0H385V5H380V0Z" fill="#FF984D"/>
<path d="M385 2.5H390V5H385V2.5Z" fill="#FF984D"/>
<path d="M395 -5.00679e-06H400V3.33333H395V-5.00679e-06Z" fill="#FF984D"/>
<path d="M405 3.33334H410V6.66667H405V3.33334Z" fill="#FF984D"/>
<path d="M410 4H415V6H410V4Z" fill="#FF984D"/>
<path d="M415 -5.00679e-06H420V3.33333H415V-5.00679e-06Z" fill="#FF984D"/>
<path d="M420 -5.00679e-06H425V3.33333H420V-5.00679e-06Z" fill="#FF984D"/>
<path d="M425 0H430V5H425V0Z" fill="#FF984D"/>
<path d="M430 0H435V5H430V0Z" fill="#FF984D"/>
<path d="M435 4H440V6H435V4Z" fill="#FF984D"/>
<path d="M440 -5.00679e-06H445V3.33333H440V-5.00679e-06Z" fill="#FF984D"/>
<path d="M445 -5.00679e-06H450V3.33333H445V-5.00679e-06Z" fill="#FF984D"/>
<path d="M450 -5.00679e-06H455V3.33333H450V-5.00679e-06Z" fill="#FF984D"/>
<path d="M455 -5.00679e-06H460V3.33333H455V-5.00679e-06Z" fill="#FF984D"/>
<path d="M460 0H465V5H460V0Z" fill="#FF984D"/>
<path d="M465 5H470V7.5H465V5Z" fill="#FF984D"/>
<path d="M470 -5.00679e-06H475V3.33333H470V-5.00679e-06Z" fill="#FF984D"/>
<path d="M475 -5.00679e-06H480V3.33333H475V-5.00679e-06Z" fill="#FF984D"/>
<path d="M480 -5.00679e-06H485V3.33333H480V-5.00679e-06Z" fill="#FF984D"/>
<path d="M485 0H490V5H485V0Z" fill="#FF984D"/>
<path d="M490 0H495V5H490V0Z" fill="#FF984D"/>
<path d="M495 0H500V5H495V0Z" fill="#FF984D"/>
<path d="M500 3.33334H505V6.66667H500V3.33334Z" fill="#FF984D"/>
<path d="M505 0H510V5H505V0Z" fill="#FF984D"/>
<path d="M515 0H520V5H515V0Z" fill="#FF984D"/>
<path d="M535 0H540V5H535V0Z" fill="#FF984D"/>
<path d="M540 0H545V5H540V0Z" fill="#FF984D"/>
<path d="M545 3.33334H550V6.66667H545V3.33334Z" fill="#FF984D"/>
<path d="M550 2.5H555V5H550V2.5Z" fill="#FF984D"/>
<path d="M580 0H585V5H580V0Z" fill="#FF984D"/>
<path d="M585 0H590V5H585V0Z" fill="#FF984D"/>
<path d="M590 -5.00679e-06H595V3.33333H590V-5.00679e-06Z" fill="#FF984D"/>
<path d="M605 0H610V5H605V0Z" fill="#FF984D"/>
<path d="M610 -5.00679e-06H615V3.33333H610V-5.00679e-06Z" fill="#FF984D"/>
<path d="M620 0H625V5H620V0Z" fill="#FF984D"/>
<path d="M625 0H630V5H625V0Z" fill="#FF984D"/>
<path d="M640 0H645V5H640V0Z" fill="#FF984D"/>
<path d="M675 0H680V5H675V0Z" fill="#FF984D"/>
<path d="M685 0H690V5H685V0Z" fill="#FF984D"/>
<path d="M690 0H695V5H690V0Z" fill="#FF984D"/>
<path d="M715 0H720V5H715V0Z" fill="#FF984D"/>
<path d="M720 -5.00679e-06H725V3.33333H720V-5.00679e-06Z" fill="#FF984D"/>
<path d="M725 0H730V5H725V0Z" fill="#FF984D"/>
<path d="M730 0H735V5H730V0Z" fill="#FF984D"/>
<path d="M735 0H740V5H735V0Z" fill="#FF984D"/>
<path d="M750 3.33334H755V6.66667H750V3.33334Z" fill="#FF984D"/>
<path d="M755 -5.00679e-06H760V3.33333H755V-5.00679e-06Z" fill="#FF984D"/>
<path d="M770 0H775V5H770V0Z" fill="#FF984D"/>
<path d="M790 0H795V5H790V0Z" fill="#FF984D"/>
<path d="M795 0H800V5H795V0Z" fill="#FF984D"/>
<path d="M800 3.33334H805V6.66667H800V3.33334Z" fill="#FF984D"/>
<path d="M820 -5.00679e-06H825V3.33333H820V-5.00679e-06Z" fill="#FF984D"/>
<path d="M825 0H830V5H825V0Z" fill="#FF984D"/>
<path d="M830 0H835V5H830V0Z" fill="#FF984D"/>
<path d="M850 0H855V5H850V0Z" fill="#FF984D"/>
<path d="M855 -5.00679e-06H860V3.33333H855V-5.00679e-06Z" fill="#FF984D"/>
<path d="M860 0H865V5H860V0Z" fill="#FF984D"/>
<path d="M870 0H875V5H870V0Z" fill="#FF984D"/>
<path d="M885 0H890V5H885V0Z" fill="#FF984D"/>
<path d="M890 -5.00679e-06H895V3.33333H890V-5.00679e-06Z" fill="#FF984D"/>
<path d="M895 -5.00679e-06H900V3.33333H895V-5.00679e-06Z" fill="#FF984D"/>
<path d="M900 -5.00679e-06H905V3.33333H900V-5.00679e-06Z" fill="#FF984D"/>
<path d="M920 0H925V5H920V0Z" fill="#FF984D"/>
<path d="M955 0H960V5H955V0Z" fill="#FF984D"/>
<path d="M975 0H980V5H975V0Z" fill="#FF984D"/>
<path d="M980 0H985V5H980V0Z" fill="#FF984D"/>
<path d="M995 0H1000V5H995V0Z" fill="#FF984D"/>
<path d="M1005 0H1010V5H1005V0Z" fill="#FF984D"/>
<path d="M1015 0H1020V5H1015V0Z" fill="#FF984D"/>
<path d="M1035 0H1040V5H1035V0Z" fill="#FF984D"/>
<path d="M1120 0H1125V5H1120V0Z" fill="#FF984D"/>
<path d="M1130 0H1135V5H1130V0Z" fill="#FF984D"/>
<path d="M1135 -5.00679e-06H1140V3.33333H1135V-5.00679e-06Z" fill="#FF984D"/>
<path d="M1145 0H1150V5H1145V0Z" fill="#FF984D"/>
<path d="M1155 0H1160V5H1155V0Z" fill="#FF984D"/>
<path d="M1175 0H1180V5H1175V0Z" fill="#FF984D"/>
<path d="M1185 -5.00679e-06H1190V3.33333H1185V-5.00679e-06Z" fill="#FF984D"/>
<path d="M1205 -5.00679e-06H1210V3.33333H1205V-5.00679e-06Z" fill="#FF984D"/>
<path d="M1220 -5.00679e-06H1225V3.33333H1220V-5.00679e-06Z" fill="#FF984D"/>
<path d="M1225 0H1230V5H1225V0Z" fill="#FF984D"/>
<path d="M1235 -5.00679e-06H1240V3.33333H1235V-5.00679e-06Z" fill="#FF984D"/>
<path d="M1245 0H1250V5H1245V0Z" fill="#FF984D"/>
<path d="M1260 0H1265V5H1260V0Z" fill="#FF984D"/>
<path d="M1270 0H1275V5H1270V0Z" fill="#FF984D"/>
<path d="M1285 0H1290V5H1285V0Z" fill="#FF984D"/>
<path d="M1320 0H1325V5H1320V0Z" fill="#FF984D"/>
<path d="M1325 0H1330V5H1325V0Z" fill="#FF984D"/>
<path d="M1330 0H1335V5H1330V0Z" fill="#FF984D"/>
<path d="M1355 0H1360V5H1355V0Z" fill="#FF984D"/>
<path d="M1360 0H1365V5H1360V0Z" fill="#FF984D"/>
<path d="M1390 0H1395V5H1390V0Z" fill="#FF984D"/>
<path d="M1410 0H1415V5H1410V0Z" fill="#FF984D"/>
<path d="M1415 0H1420V5H1415V0Z" fill="#FF984D"/>
<path d="M1450 0H1455V5H1450V0Z" fill="#FF984D"/>
<path d="M1460 0H1465V5H1460V0Z" fill="#FF984D"/>
<path d="M1480 0H1485V5H1480V0Z" fill="#FF984D"/>
<path d="M1515 0H1520V5H1515V0Z" fill="#FF984D"/>
<path d="M1525 0H1530V5H1525V0Z" fill="#FF984D"/>
<path d="M1600 0H1605V5H1600V0Z" fill="#FF984D"/>
<path d="M1625 0H1630V5H1625V0Z" fill="#FF984D"/>
<path d="M1630 0H1635V5H1630V0Z" fill="#FF984D"/>
<path d="M1695 0H1700V5H1695V0Z" fill="#FF984D"/>
<path d="M1710 0H1715V5H1710V0Z" fill="#FF984D"/>
<path d="M1770 0H1775V5H1770V0Z" fill="#FF984D"/>
<path d="M1795 0H1800V5H1795V0Z" fill="#FF984D"/>
<path d="M1805 0H1810V5H1805V0Z" fill="#FF984D"/>
<path d="M1865 0H1870V5H1865V0Z" fill="#FF984D"/>
<path d="M1885 0H1890V5H1885V0Z" fill="#FF984D"/>
<path d="M1900 0H1905V5H1900V0Z" fill="#FF984D"/>
<path d="M2005 0H2010V5H2005V0Z" fill="#FF984D"/>
<path d="M2010 0H2015V5H2010V0Z" fill="#FF984D"/>
<path d="M2045 0H2050V5H2045V0Z" fill="#FF984D"/>
<path d="M2050 0H2055V5H2050V0Z" fill="#FF984D"/>
<path d="M2060 0H2065V5H2060V0Z" fill="#FF984D"/>
<path d="M2085 0H2090V5H2085V0Z" fill="#FF984D"/>
<path d="M2090 0H2095V5H2090V0Z" fill="#FF984D"/>
<path d="M2095 3.33334H2100V6.66667H2095V3.33334Z" fill="#FF984D"/>
<path d="M2100 -5.00679e-06H2105V3.33333H2100V-5.00679e-06Z" fill="#FF984D"/>
<path d="M2120 0H2125V5H2120V0Z" fill="#FF984D"/>
<path d="M2125 0H2130V5H2125V0Z" fill="#FF984D"/>
<path d="M2170 0H2175V5H2170V0Z" fill="#FF984D"/>
<path d="M2200 0H2205V5H2200V0Z" fill="#FF984D"/>
<path d="M2215 0H2220V5H2215V0Z" fill="#FF984D"/>
<path d="M2230 0H2235V5H2230V0Z" fill="#FF984D"/>
<path d="M2235 0H2240V5H2235V0Z" fill="#FF984D"/>
<path d="M2290 0H2295V5H2290V0Z" fill="#FF984D"/>
<path d="M2295 0H2300V5H2295V0Z" fill="#FF984D"/>
<path d="M2450 0H2455V5H2450V0Z" fill="#FF984D"/>
<path d="M2480 0H2485V5H2480V0Z" fill="#FF984D"/>
<path d="M2485 0H2490V5H2485V0Z" fill="#FF984D"/>
<path d="M2490 0H2495V5H2490V0Z" fill="#FF984D"/>
<path d="M2675 0H2680V5H2675V0Z" fill="#FF984D"/>
<path d="M2680 0H2685V5H2680V0Z" fill="#FF984D"/>
<path d="M2685 0H2690V5H2685V0Z" fill="#FF984D"/>
<path d="M2700 0H2705V5H2700V0Z" fill="#FF984D"/>
<path d="M2705 0H2710V5H2705V0Z" fill="#FF984D"/>
<path d="M2715 0H2720V5H2715V0Z" fill="#FF984D"/>
<path d="M2785 0H2790V5H2785V0Z" fill="#FF984D"/>
<path d="M2810 0H2815V5H2810V0Z" fill="#FF984D"/>
<path d="M2815 0H2820V5H2815V0Z" fill="#FF984D"/>
<path d="M2860 0H2865V5H2860V0Z" fill="#FF984D"/>
<path d="M2895 0H2900V5H2895V0Z" fill="#FF984D"/>
<path d="M2915 0H2920V5H2915V0Z" fill="#FF984D"/>
<path d="M2920 0H2925V5H2920V0Z" fill="#FF984D"/>
<path d="M2950 -7.62939e-06H2955V9.99999H2950V-7.62939e-06Z" fill="#FF984D"/>
<path d="M2960 -7.62939e-06H2965V9.99999H2960V-7.62939e-06Z" fill="#FF984D"/>
<path d="M3010 0H3015V5H3010V0Z" fill="#FF984D"/>
<path d="M3055 0H3060V5H3055V0Z" fill="#FF984D"/>
<path d="M3095 0H3100V5H3095V0Z" fill="#FF984D"/>
<path d="M3150 3.33334H3155V6.66667H3150V3.33334Z" fill="#FF984D"/>
<path d="M3165 0H3170V5H3165V0Z" fill="#FF984D"/>
<path d="M3285 0H3290V5H3285V0Z" fill="#FF984D"/>
<path d="M15 0H20V10H15V0Z" fill="#BD4553"/>
<path d="M25 -7.62939e-06H30V9.99999H25V-7.62939e-06Z" fill="#BD4553"/>
<path d="M45 -7.62939e-06H50V9.99999H45V-7.62939e-06Z" fill="#BD4553"/>
<path d="M50 -7.62939e-06H55V9.99999H50V-7.62939e-06Z" fill="#BD4553"/>
<path d="M70 -7.62939e-06H75V9.99999H70V-7.62939e-06Z" fill="#BD4553"/>
<path d="M85.0001 -7.62939e-06H90.0001V9.99999H85.0001V-7.62939e-06Z" fill="#BD4553"/>
<path d="M90 -7.62939e-06H95V9.99999H90V-7.62939e-06Z" fill="#BD4553"/>
<path d="M95 -7.62939e-06H100V9.99999H95V-7.62939e-06Z" fill="#BD4553"/>
<path d="M100 -7.62939e-06H105V9.99999H100V-7.62939e-06Z" fill="#BD4553"/>
<path d="M105 -7.62939e-06H110V9.99999H105V-7.62939e-06Z" fill="#BD4553"/>
<path d="M110 -7.62939e-06H115V9.99999H110V-7.62939e-06Z" fill="#BD4553"/>
<path d="M115 -7.62939e-06H120V9.99999H115V-7.62939e-06Z" fill="#BD4553"/>
<path d="M120 4.99999H125V9.99999H120V4.99999Z" fill="#BD4553"/>
<path d="M125 4.99999H130V9.99999H125V4.99999Z" fill="#BD4553"/>
<path d="M130 -7.62939e-06H135V9.99999H130V-7.62939e-06Z" fill="#BD4553"/>
<path d="M135 -7.62939e-06H140V9.99999H135V-7.62939e-06Z" fill="#BD4553"/>
<path d="M140 -7.62939e-06H145V9.99999H140V-7.62939e-06Z" fill="#BD4553"/>
<path d="M145 -7.62939e-06H150V9.99999H145V-7.62939e-06Z" fill="#BD4553"/>
<path d="M150 4.99999H155V9.99999H150V4.99999Z" fill="#BD4553"/>
<path d="M155 4.99999H160V9.99999H155V4.99999Z" fill="#BD4553"/>
<path d="M160 4.99999H165V9.99999H160V4.99999Z" fill="#BD4553"/>
<path d="M165 4.99999H170V9.99999H165V4.99999Z" fill="#BD4553"/>
<path d="M170 -7.62939e-06H175V9.99999H170V-7.62939e-06Z" fill="#BD4553"/>
<path d="M175 -7.62939e-06H180V9.99999H175V-7.62939e-06Z" fill="#BD4553"/>
<path d="M180 -7.62939e-06H185V9.99999H180V-7.62939e-06Z" fill="#BD4553"/>
<path d="M185 -7.62939e-06H190V9.99999H185V-7.62939e-06Z" fill="#BD4553"/>
<path d="M190 -7.62939e-06H195V9.99999H190V-7.62939e-06Z" fill="#BD4553"/>
<path d="M195 -7.62939e-06H200V9.99999H195V-7.62939e-06Z" fill="#BD4553"/>
<path d="M200 4.99999H205V9.99999H200V4.99999Z" fill="#BD4553"/>
<path d="M205 -7.62939e-06H210V9.99999H205V-7.62939e-06Z" fill="#BD4553"/>
<path d="M210 4.99999H215V9.99999H210V4.99999Z" fill="#BD4553"/>
<path d="M215 -7.62939e-06H220V9.99999H215V-7.62939e-06Z" fill="#BD4553"/>
<path d="M220 4.99999H225V9.99999H220V4.99999Z" fill="#BD4553"/>
<path d="M225 5H230V7.5H225V5Z" fill="#BD4553"/>
<path d="M230 4.99999H235V9.99999H230V4.99999Z" fill="#BD4553"/>
<path d="M235 3.33334H240V6.66667H235V3.33334Z" fill="#BD4553"/>
<path d="M240 4.99999H245V9.99999H240V4.99999Z" fill="#BD4553"/>
<path d="M245 -7.62939e-06H250V9.99999H245V-7.62939e-06Z" fill="#BD4553"/>
<path d="M250 -7.62939e-06H255V9.99999H250V-7.62939e-06Z" fill="#BD4553"/>
<path d="M255 4.99999H260V9.99999H255V4.99999Z" fill="#BD4553"/>
<path d="M260 2.5H265V5H260V2.5Z" fill="#BD4553"/>
<path d="M265 3.33334H270V6.66667H265V3.33334Z" fill="#BD4553"/>
<path d="M270 4.28571H275V5.71428H270V4.28571Z" fill="#BD4553"/>
<path d="M275 5.00001H280V6.66667H275V5.00001Z" fill="#BD4553"/>
<path d="M280 5H285V7.5H280V5Z" fill="#BD4553"/>
<path d="M285 6H290V8H285V6Z" fill="#BD4553"/>
<path d="M290 6H295V8H290V6Z" fill="#BD4553"/>
<path d="M295 5.00001H300V6.66667H295V5.00001Z" fill="#BD4553"/>
<path d="M300 4.28571H305V5.71428H300V4.28571Z" fill="#BD4553"/>
<path d="M305 5.00001H310V6.66667H305V5.00001Z" fill="#BD4553"/>
<path d="M310 5.00001H315V6.66667H310V5.00001Z" fill="#BD4553"/>
<path d="M315 5.00001H320V6.66667H315V5.00001Z" fill="#BD4553"/>
<path d="M320 6.66666H325V9.99999H320V6.66666Z" fill="#BD4553"/>
<path d="M325 5.00001H330V6.66667H325V5.00001Z" fill="#BD4553"/>
<path d="M330 5H335V7.5H330V5Z" fill="#BD4553"/>
<path d="M335 6H340V8H335V6Z" fill="#BD4553"/>
<path d="M340 5H345V7.5H340V5Z" fill="#BD4553"/>
<path d="M345 5H350V7.5H345V5Z" fill="#BD4553"/>
<path d="M350 3.33334H355V6.66667H350V3.33334Z" fill="#BD4553"/>
<path d="M355 5H360V7.5H355V5Z" fill="#BD4553"/>
<path d="M360 4.99999H365V9.99999H360V4.99999Z" fill="#BD4553"/>
<path d="M365 6.66666H370V9.99999H365V6.66666Z" fill="#BD4553"/>
<path d="M370 2.5H375V5H370V2.5Z" fill="#BD4553"/>
<path d="M375 6H380V8H375V6Z" fill="#BD4553"/>
<path d="M380 4.99999H385V9.99999H380V4.99999Z" fill="#BD4553"/>
<path d="M385 5H390V7.5H385V5Z" fill="#BD4553"/>
<path d="M390 4.99999H395V9.99999H390V4.99999Z" fill="#BD4553"/>
<path d="M395 3.33334H400V6.66667H395V3.33334Z" fill="#BD4553"/>
<path d="M400 3.33334H405V6.66667H400V3.33334Z" fill="#BD4553"/>
<path d="M405 6.66666H410V9.99999H405V6.66666Z" fill="#BD4553"/>
<path d="M410 6H415V8H410V6Z" fill="#BD4553"/>
<path d="M415 3.33334H420V6.66667H415V3.33334Z" fill="#BD4553"/>
<path d="M420 3.33334H425V6.66667H420V3.33334Z" fill="#BD4553"/>
<path d="M425 4.99999H430V9.99999H425V4.99999Z" fill="#BD4553"/>
<path d="M430 4.99999H435V9.99999H430V4.99999Z" fill="#BD4553"/>
<path d="M435 6H440V8H435V6Z" fill="#BD4553"/>
<path d="M440 3.33334H445V6.66667H440V3.33334Z" fill="#BD4553"/>
<path d="M445 3.33334H450V6.66667H445V3.33334Z" fill="#BD4553"/>
<path d="M450 3.33334H455V6.66667H450V3.33334Z" fill="#BD4553"/>
<path d="M455 3.33334H460V6.66667H455V3.33334Z" fill="#BD4553"/>
<path d="M460 4.99999H465V9.99999H460V4.99999Z" fill="#BD4553"/>
<path d="M465 7.49999H470V9.99999H465V7.49999Z" fill="#BD4553"/>
<path d="M470 3.33334H475V6.66667H470V3.33334Z" fill="#BD4553"/>
<path d="M475 3.33334H480V6.66667H475V3.33334Z" fill="#BD4553"/>
<path d="M480 3.33334H485V6.66667H480V3.33334Z" fill="#BD4553"/>
<path d="M485 4.99999H490V9.99999H485V4.99999Z" fill="#BD4553"/>
<path d="M490 4.99999H495V9.99999H490V4.99999Z" fill="#BD4553"/>
<path d="M495 4.99999H500V9.99999H495V4.99999Z" fill="#BD4553"/>
<path d="M500 6.66666H505V9.99999H500V6.66666Z" fill="#BD4553"/>
<path d="M505 4.99999H510V9.99999H505V4.99999Z" fill="#BD4553"/>
<path d="M510 -7.62939e-06H515V9.99999H510V-7.62939e-06Z" fill="#BD4553"/>
<path d="M515 4.99999H520V9.99999H515V4.99999Z" fill="#BD4553"/>
<path d="M520 -7.62939e-06H525V9.99999H520V-7.62939e-06Z" fill="#BD4553"/>
<path d="M525 -7.62939e-06H530V9.99999H525V-7.62939e-06Z" fill="#BD4553"/>
<path d="M530 0H535V5H530V0Z" fill="#BD4553"/>
<path d="M535 4.99999H540V9.99999H535V4.99999Z" fill="#BD4553"/>
<path d="M540 4.99999H545V9.99999H540V4.99999Z" fill="#BD4553"/>
<path d="M545 6.66666H550V9.99999H545V6.66666Z" fill="#BD4553"/>
<path d="M550 5H555V7.5H550V5Z" fill="#BD4553"/>
<path d="M555 0H560V5H555V0Z" fill="#BD4553"/>
<path d="M560 0H565V5H560V0Z" fill="#BD4553"/>
<path d="M565 -7.62939e-06H570V9.99999H565V-7.62939e-06Z" fill="#BD4553"/>
<path d="M570 -7.62939e-06H575V9.99999H570V-7.62939e-06Z" fill="#BD4553"/>
<path d="M575 -7.62939e-06H580V9.99999H575V-7.62939e-06Z" fill="#BD4553"/>
<path d="M580 4.99999H585V9.99999H580V4.99999Z" fill="#BD4553"/>
<path d="M585 4.99999H590V9.99999H585V4.99999Z" fill="#BD4553"/>
<path d="M590 3.33334H595V6.66667H590V3.33334Z" fill="#BD4553"/>
<path d="M595 -7.62939e-06H600V9.99999H595V-7.62939e-06Z" fill="#BD4553"/>
<path d="M600 -7.62939e-06H605V9.99999H600V-7.62939e-06Z" fill="#BD4553"/>
<path d="M605 4.99999H610V9.99999H605V4.99999Z" fill="#BD4553"/>
<path d="M610 3.33334H615V6.66667H610V3.33334Z" fill="#BD4553"/>
<path d="M615 -7.62939e-06H620V9.99999H615V-7.62939e-06Z" fill="#BD4553"/>
<path d="M620 4.99999H625V9.99999H620V4.99999Z" fill="#BD4553"/>
<path d="M625 4.99999H630V9.99999H625V4.99999Z" fill="#BD4553"/>
<path d="M630 -7.62939e-06H635V9.99999H630V-7.62939e-06Z" fill="#BD4553"/>
<path d="M635 -7.62939e-06H640V9.99999H635V-7.62939e-06Z" fill="#BD4553"/>
<path d="M640 4.99999H645V9.99999H640V4.99999Z" fill="#BD4553"/>
<path d="M645 -7.62939e-06H650V9.99999H645V-7.62939e-06Z" fill="#BD4553"/>
<path d="M650 -7.62939e-06H655V9.99999H650V-7.62939e-06Z" fill="#BD4553"/>
<path d="M655 -7.62939e-06H660V9.99999H655V-7.62939e-06Z" fill="#BD4553"/>
<path d="M660 -7.62939e-06H665V9.99999H660V-7.62939e-06Z" fill="#BD4553"/>
<path d="M665 -7.62939e-06H670V9.99999H665V-7.62939e-06Z" fill="#BD4553"/>
<path d="M670 -7.62939e-06H675V9.99999H670V-7.62939e-06Z" fill="#BD4553"/>
<path d="M675 4.99999H680V9.99999H675V4.99999Z" fill="#BD4553"/>
<path d="M680 -7.62939e-06H685V9.99999H680V-7.62939e-06Z" fill="#BD4553"/>
<path d="M685 4.99999H690V9.99999H685V4.99999Z" fill="#BD4553"/>
<path d="M690 4.99999H695V9.99999H690V4.99999Z" fill="#BD4553"/>
<path d="M695 0H700V5H695V0Z" fill="#BD4553"/>
<path d="M700 -7.62939e-06H705V9.99999H700V-7.62939e-06Z" fill="#BD4553"/>
<path d="M705 -7.62939e-06H710V9.99999H705V-7.62939e-06Z" fill="#BD4553"/>
<path d="M710 -7.62939e-06H715V9.99999H710V-7.62939e-06Z" fill="#BD4553"/>
<path d="M715 4.99999H720V9.99999H715V4.99999Z" fill="#BD4553"/>
<path d="M720 3.33334H725V6.66667H720V3.33334Z" fill="#BD4553"/>
<path d="M725 4.99999H730V9.99999H725V4.99999Z" fill="#BD4553"/>
<path d="M730 4.99999H735V9.99999H730V4.99999Z" fill="#BD4553"/>
<path d="M735 4.99999H740V9.99999H735V4.99999Z" fill="#BD4553"/>
<path d="M745 -7.62939e-06H750V9.99999H745V-7.62939e-06Z" fill="#BD4553"/>
<path d="M750 6.66666H755V9.99999H750V6.66666Z" fill="#BD4553"/>
<path d="M755 3.33334H760V6.66667H755V3.33334Z" fill="#BD4553"/>
<path d="M760 -7.62939e-06H765V9.99999H760V-7.62939e-06Z" fill="#BD4553"/>
<path d="M765 -7.62939e-06H770V9.99999H765V-7.62939e-06Z" fill="#BD4553"/>
<path d="M770 4.99999H775V9.99999H770V4.99999Z" fill="#BD4553"/>
<path d="M775 -7.62939e-06H780V9.99999H775V-7.62939e-06Z" fill="#BD4553"/>
<path d="M780 0H785V5H780V0Z" fill="#BD4553"/>
<path d="M785 -7.62939e-06H790V9.99999H785V-7.62939e-06Z" fill="#BD4553"/>
<path d="M790 4.99999H795V9.99999H790V4.99999Z" fill="#BD4553"/>
<path d="M795 4.99999H800V9.99999H795V4.99999Z" fill="#BD4553"/>
<path d="M800 6.66666H805V9.99999H800V6.66666Z" fill="#BD4553"/>
<path d="M805 -7.62939e-06H810V9.99999H805V-7.62939e-06Z" fill="#BD4553"/>
<path d="M810 -7.62939e-06H815V9.99999H810V-7.62939e-06Z" fill="#BD4553"/>
<path d="M815 -7.62939e-06H820V9.99999H815V-7.62939e-06Z" fill="#BD4553"/>
<path d="M820 3.33334H825V6.66667H820V3.33334Z" fill="#BD4553"/>
<path d="M825 4.99999H830V9.99999H825V4.99999Z" fill="#BD4553"/>
<path d="M830 4.99999H835V9.99999H830V4.99999Z" fill="#BD4553"/>
<path d="M835 -7.62939e-06H840V9.99999H835V-7.62939e-06Z" fill="#BD4553"/>
<path d="M840 -7.62939e-06H845V9.99999H840V-7.62939e-06Z" fill="#BD4553"/>
<path d="M845 -7.62939e-06H850V9.99999H845V-7.62939e-06Z" fill="#BD4553"/>
<path d="M850 4.99999H855V9.99999H850V4.99999Z" fill="#BD4553"/>
<path d="M855 3.33334H860V6.66667H855V3.33334Z" fill="#BD4553"/>
<path d="M860 4.99999H865V9.99999H860V4.99999Z" fill="#BD4553"/>
<path d="M865 0H870V5H865V0Z" fill="#BD4553"/>
<path d="M870 4.99999H875V9.99999H870V4.99999Z" fill="#BD4553"/>
<path d="M875 -7.62939e-06H880V9.99999H875V-7.62939e-06Z" fill="#BD4553"/>
<path d="M880 -7.62939e-06H885V9.99999H880V-7.62939e-06Z" fill="#BD4553"/>
<path d="M885 4.99999H890V9.99999H885V4.99999Z" fill="#BD4553"/>
<path d="M890 3.33334H895V6.66667H890V3.33334Z" fill="#BD4553"/>
<path d="M895 3.33334H900V6.66667H895V3.33334Z" fill="#BD4553"/>
<path d="M900 3.33334H905V6.66667H900V3.33334Z" fill="#BD4553"/>
<path d="M905 -7.62939e-06H910V9.99999H905V-7.62939e-06Z" fill="#BD4553"/>
<path d="M910 -7.62939e-06H915V9.99999H910V-7.62939e-06Z" fill="#BD4553"/>
<path d="M915 -7.62939e-06H920V9.99999H915V-7.62939e-06Z" fill="#BD4553"/>
<path d="M920 4.99999H925V9.99999H920V4.99999Z" fill="#BD4553"/>
<path d="M925 -7.62939e-06H930V9.99999H925V-7.62939e-06Z" fill="#BD4553"/>
<path d="M930 -7.62939e-06H935V9.99999H930V-7.62939e-06Z" fill="#BD4553"/>
<path d="M935 -7.62939e-06H940V9.99999H935V-7.62939e-06Z" fill="#BD4553"/>
<path d="M940 -7.62939e-06H945V9.99999H940V-7.62939e-06Z" fill="#BD4553"/>
<path d="M945 -7.62939e-06H950V9.99999H945V-7.62939e-06Z" fill="#BD4553"/>
<path d="M950 -7.62939e-06H955V9.99999H950V-7.62939e-06Z" fill="#BD4553"/>
<path d="M955 4.99999H960V9.99999H955V4.99999Z" fill="#BD4553"/>
<path d="M960 -7.62939e-06H965V9.99999H960V-7.62939e-06Z" fill="#BD4553"/>
<path d="M965 -7.62939e-06H970V9.99999H965V-7.62939e-06Z" fill="#BD4553"/>
<path d="M970 -7.62939e-06H975V9.99999H970V-7.62939e-06Z" fill="#BD4553"/>
<path d="M975 4.99999H980V9.99999H975V4.99999Z" fill="#BD4553"/>
<path d="M980 4.99999H985V9.99999H980V4.99999Z" fill="#BD4553"/>
<path d="M985 -7.62939e-06H990V9.99999H985V-7.62939e-06Z" fill="#BD4553"/>
<path d="M990 -7.62939e-06H995V9.99999H990V-7.62939e-06Z" fill="#BD4553"/>
<path d="M995 4.99999H1000V9.99999H995V4.99999Z" fill="#BD4553"/>
<path d="M1000 -7.62939e-06H1005V9.99999H1000V-7.62939e-06Z" fill="#BD4553"/>
<path d="M1005 4.99999H1010V9.99999H1005V4.99999Z" fill="#BD4553"/>
<path d="M1010 0H1015V5H1010V0Z" fill="#BD4553"/>
<path d="M1015 4.99999H1020V9.99999H1015V4.99999Z" fill="#BD4553"/>
<path d="M1020 0H1025V5H1020V0Z" fill="#BD4553"/>
<path d="M1025 -7.62939e-06H1030V9.99999H1025V-7.62939e-06Z" fill="#BD4553"/>
<path d="M1030 -7.62939e-06H1035V9.99999H1030V-7.62939e-06Z" fill="#BD4553"/>
<path d="M1035 4.99999H1040V9.99999H1035V4.99999Z" fill="#BD4553"/>
<path d="M1040 -7.62939e-06H1045V9.99999H1040V-7.62939e-06Z" fill="#BD4553"/>
<path d="M1045 -7.62939e-06H1050V9.99999H1045V-7.62939e-06Z" fill="#BD4553"/>
<path d="M1050 -7.62939e-06H1055V9.99999H1050V-7.62939e-06Z" fill="#BD4553"/>
<path d="M1055 -7.62939e-06H1060V9.99999H1055V-7.62939e-06Z" fill="#BD4553"/>
<path d="M1060 -7.62939e-06H1065V9.99999H1060V-7.62939e-06Z" fill="#BD4553"/>
<path d="M1065 -7.62939e-06H1070V9.99999H1065V-7.62939e-06Z" fill="#BD4553"/>
<path d="M1070 -7.62939e-06H1075V9.99999H1070V-7.62939e-06Z" fill="#BD4553"/>
<path d="M1075 -7.62939e-06H1080V9.99999H1075V-7.62939e-06Z" fill="#BD4553"/>
<path d="M1080 -7.62939e-06H1085V9.99999H1080V-7.62939e-06Z" fill="#BD4553"/>
<path d="M1085 -7.62939e-06H1090V9.99999H1085V-7.62939e-06Z" fill="#BD4553"/>
<path d="M1095 -7.62939e-06H1100V9.99999H1095V-7.62939e-06Z" fill="#BD4553"/>
<path d="M1100 -7.62939e-06H1105V9.99999H1100V-7.62939e-06Z" fill="#BD4553"/>
<path d="M1105 -7.62939e-06H1110V9.99999H1105V-7.62939e-06Z" fill="#BD4553"/>
<path d="M1110 4.99999H1115V9.99999H1110V4.99999Z" fill="#BD4553"/>
<path d="M1115 -7.62939e-06H1120V9.99999H1115V-7.62939e-06Z" fill="#BD4553"/>
<path d="M1120 4.99999H1125V9.99999H1120V4.99999Z" fill="#BD4553"/>
<path d="M1125 -7.62939e-06H1130V9.99999H1125V-7.62939e-06Z" fill="#BD4553"/>
<path d="M1130 4.99999H1135V9.99999H1130V4.99999Z" fill="#BD4553"/>
<path d="M1135 3.33334H1140V6.66667H1135V3.33334Z" fill="#BD4553"/>
<path d="M1140 -7.62939e-06H1145V9.99999H1140V-7.62939e-06Z" fill="#BD4553"/>
<path d="M1145 4.99999H1150V9.99999H1145V4.99999Z" fill="#BD4553"/>
<path d="M1150 -7.62939e-06H1155V9.99999H1150V-7.62939e-06Z" fill="#BD4553"/>
<path d="M1155 4.99999H1160V9.99999H1155V4.99999Z" fill="#BD4553"/>
<path d="M1160 -7.62939e-06H1165V9.99999H1160V-7.62939e-06Z" fill="#BD4553"/>
<path d="M1165 -7.62939e-06H1170V9.99999H1165V-7.62939e-06Z" fill="#BD4553"/>
<path d="M1170 -7.62939e-06H1175V9.99999H1170V-7.62939e-06Z" fill="#BD4553"/>
<path d="M1175 4.99999H1180V9.99999H1175V4.99999Z" fill="#BD4553"/>
<path d="M1180 -7.62939e-06H1185V9.99999H1180V-7.62939e-06Z" fill="#BD4553"/>
<path d="M1185 3.33334H1190V6.66667H1185V3.33334Z" fill="#BD4553"/>
<path d="M1190 -7.62939e-06H1195V9.99999H1190V-7.62939e-06Z" fill="#BD4553"/>
<path d="M1195 -7.62939e-06H1200V9.99999H1195V-7.62939e-06Z" fill="#BD4553"/>
<path d="M1200 -7.62939e-06H1205V9.99999H1200V-7.62939e-06Z" fill="#BD4553"/>
<path d="M1205 3.33334H1210V6.66667H1205V3.33334Z" fill="#BD4553"/>
<path d="M1210 -7.62939e-06H1215V9.99999H1210V-7.62939e-06Z" fill="#BD4553"/>
<path d="M1215 -7.62939e-06H1220V9.99999H1215V-7.62939e-06Z" fill="#BD4553"/>
<path d="M1220 3.33334H1225V6.66667H1220V3.33334Z" fill="#BD4553"/>
<path d="M1225 4.99999H1230V9.99999H1225V4.99999Z" fill="#BD4553"/>
<path d="M1230 -7.62939e-06H1235V9.99999H1230V-7.62939e-06Z" fill="#BD4553"/>
<path d="M1235 3.33334H1240V6.66667H1235V3.33334Z" fill="#BD4553"/>
<path d="M1240 -7.62939e-06H1245V9.99999H1240V-7.62939e-06Z" fill="#BD4553"/>
<path d="M1245 4.99999H1250V9.99999H1245V4.99999Z" fill="#BD4553"/>
<path d="M1250 -7.62939e-06H1255V9.99999H1250V-7.62939e-06Z" fill="#BD4553"/>
<path d="M1255 0H1260V5H1255V0Z" fill="#BD4553"/>
<path d="M1260 4.99999H1265V9.99999H1260V4.99999Z" fill="#BD4553"/>
<path d="M1265 -7.62939e-06H1270V9.99999H1265V-7.62939e-06Z" fill="#BD4553"/>
<path d="M1270 4.99999H1275V9.99999H1270V4.99999Z" fill="#BD4553"/>
<path d="M1275 -7.62939e-06H1280V9.99999H1275V-7.62939e-06Z" fill="#BD4553"/>
<path d="M1280 -7.62939e-06H1285V9.99999H1280V-7.62939e-06Z" fill="#BD4553"/>
<path d="M1285 4.99999H1290V9.99999H1285V4.99999Z" fill="#BD4553"/>
<path d="M1290 -7.62939e-06H1295V9.99999H1290V-7.62939e-06Z" fill="#BD4553"/>
<path d="M1295 -7.62939e-06H1300V9.99999H1295V-7.62939e-06Z" fill="#BD4553"/>
<path d="M1300 -7.62939e-06H1305V9.99999H1300V-7.62939e-06Z" fill="#BD4553"/>
<path d="M1305 -7.62939e-06H1310V9.99999H1305V-7.62939e-06Z" fill="#BD4553"/>
<path d="M1310 0H1315V5H1310V0Z" fill="#BD4553"/>
<path d="M1315 -7.62939e-06H1320V9.99999H1315V-7.62939e-06Z" fill="#BD4553"/>
<path d="M1320 4.99999H1325V9.99999H1320V4.99999Z" fill="#BD4553"/>
<path d="M1325 4.99999H1330V9.99999H1325V4.99999Z" fill="#BD4553"/>
<path d="M1330 4.99999H1335V9.99999H1330V4.99999Z" fill="#BD4553"/>
<path d="M1335 4.99999H1340V9.99999H1335V4.99999Z" fill="#BD4553"/>
<path d="M1340 4.99999H1345V9.99999H1340V4.99999Z" fill="#BD4553"/>
<path d="M1345 -7.62939e-06H1350V9.99999H1345V-7.62939e-06Z" fill="#BD4553"/>
<path d="M1350 3.33334H1355V6.66667H1350V3.33334Z" fill="#BD4553"/>
<path d="M1355 4.99999H1360V9.99999H1355V4.99999Z" fill="#BD4553"/>
<path d="M1360 4.99999H1365V9.99999H1360V4.99999Z" fill="#BD4553"/>
<path d="M1365 0H1370V5H1365V0Z" fill="#BD4553"/>
<path d="M1370 -7.62939e-06H1375V9.99999H1370V-7.62939e-06Z" fill="#BD4553"/>
<path d="M1375 -7.62939e-06H1380V9.99999H1375V-7.62939e-06Z" fill="#BD4553"/>
<path d="M1380 0H1385V5H1380V0Z" fill="#BD4553"/>
<path d="M1385 -7.62939e-06H1390V9.99999H1385V-7.62939e-06Z" fill="#BD4553"/>
<path d="M1390 4.99999H1395V9.99999H1390V4.99999Z" fill="#BD4553"/>
<path d="M1395 -7.62939e-06H1400V9.99999H1395V-7.62939e-06Z" fill="#BD4553"/>
<path d="M1400 -7.62939e-06H1405V9.99999H1400V-7.62939e-06Z" fill="#BD4553"/>
<path d="M1405 -7.62939e-06H1410V9.99999H1405V-7.62939e-06Z" fill="#BD4553"/>
<path d="M1410 4.99999H1415V9.99999H1410V4.99999Z" fill="#BD4553"/>
<path d="M1415 4.99999H1420V9.99999H1415V4.99999Z" fill="#BD4553"/>
<path d="M1420 0H1425V5H1420V0Z" fill="#BD4553"/>
<path d="M1425 6.66666H1430V9.99999H1425V6.66666Z" fill="#BD4553"/>
<path d="M1430 -7.62939e-06H1435V9.99999H1430V-7.62939e-06Z" fill="#BD4553"/>
<path d="M1435 0H1440V5H1435V0Z" fill="#BD4553"/>
<path d="M1445 -7.62939e-06H1450V9.99999H1445V-7.62939e-06Z" fill="#BD4553"/>
<path d="M1450 4.99999H1455V9.99999H1450V4.99999Z" fill="#BD4553"/>
<path d="M1455 -7.62939e-06H1460V9.99999H1455V-7.62939e-06Z" fill="#BD4553"/>
<path d="M1460 4.99999H1465V9.99999H1460V4.99999Z" fill="#BD4553"/>
<path d="M1465 -7.62939e-06H1470V9.99999H1465V-7.62939e-06Z" fill="#BD4553"/>
<path d="M1470 -7.62939e-06H1475V9.99999H1470V-7.62939e-06Z" fill="#BD4553"/>
<path d="M1475 -7.62939e-06H1480V9.99999H1475V-7.62939e-06Z" fill="#BD4553"/>
<path d="M1480 4.99999H1485V9.99999H1480V4.99999Z" fill="#BD4553"/>
<path d="M1485 -7.62939e-06H1490V9.99999H1485V-7.62939e-06Z" fill="#BD4553"/>
<path d="M1490 -7.62939e-06H1495V9.99999H1490V-7.62939e-06Z" fill="#BD4553"/>
<path d="M1495 4.99999H1500V9.99999H1495V4.99999Z" fill="#BD4553"/>
<path d="M1500 -7.62939e-06H1505V9.99999H1500V-7.62939e-06Z" fill="#BD4553"/>
<path d="M1505 -7.62939e-06H1510V9.99999H1505V-7.62939e-06Z" fill="#BD4553"/>
<path d="M1510 -7.62939e-06H1515V9.99999H1510V-7.62939e-06Z" fill="#BD4553"/>
<path d="M1515 4.99999H1520V9.99999H1515V4.99999Z" fill="#BD4553"/>
<path d="M1520 0H1525V5H1520V0Z" fill="#BD4553"/>
<path d="M1525 4.99999H1530V9.99999H1525V4.99999Z" fill="#BD4553"/>
<path d="M1530 -7.62939e-06H1535V9.99999H1530V-7.62939e-06Z" fill="#BD4553"/>
<path d="M1535 -7.62939e-06H1540V9.99999H1535V-7.62939e-06Z" fill="#BD4553"/>
<path d="M1540 -7.62939e-06H1545V9.99999H1540V-7.62939e-06Z" fill="#BD4553"/>
<path d="M1545 -7.62939e-06H1550V9.99999H1545V-7.62939e-06Z" fill="#BD4553"/>
<path d="M1550 -7.62939e-06H1555V9.99999H1550V-7.62939e-06Z" fill="#BD4553"/>
<path d="M1555 0H1560V5H1555V0Z" fill="#BD4553"/>
<path d="M1560 -7.62939e-06H1565V9.99999H1560V-7.62939e-06Z" fill="#BD4553"/>
<path d="M1565 -7.62939e-06H1570V9.99999H1565V-7.62939e-06Z" fill="#BD4553"/>
<path d="M1570 -7.62939e-06H1575V9.99999H1570V-7.62939e-06Z" fill="#BD4553"/>
<path d="M1575 -7.62939e-06H1580V9.99999H1575V-7.62939e-06Z" fill="#BD4553"/>
<path d="M1580 -7.62939e-06H1585V9.99999H1580V-7.62939e-06Z" fill="#BD4553"/>
<path d="M1585 -7.62939e-06H1590V9.99999H1585V-7.62939e-06Z" fill="#BD4553"/>
<path d="M1590 -7.62939e-06H1595V9.99999H1590V-7.62939e-06Z" fill="#BD4553"/>
<path d="M1595 -7.62939e-06H1600V9.99999H1595V-7.62939e-06Z" fill="#BD4553"/>
<path d="M1600 4.99999H1605V9.99999H1600V4.99999Z" fill="#BD4553"/>
<path d="M1605 -7.62939e-06H1610V9.99999H1605V-7.62939e-06Z" fill="#BD4553"/>
<path d="M1610 -7.62939e-06H1615V9.99999H1610V-7.62939e-06Z" fill="#BD4553"/>
<path d="M1615 -7.62939e-06H1620V9.99999H1615V-7.62939e-06Z" fill="#BD4553"/>
<path d="M1620 -7.62939e-06H1625V9.99999H1620V-7.62939e-06Z" fill="#BD4553"/>
<path d="M1625 4.99999H1630V9.99999H1625V4.99999Z" fill="#BD4553"/>
<path d="M1630 4.99999H1635V9.99999H1630V4.99999Z" fill="#BD4553"/>
<path d="M1635 -7.62939e-06H1640V9.99999H1635V-7.62939e-06Z" fill="#BD4553"/>
<path d="M1640 -7.62939e-06H1645V9.99999H1640V-7.62939e-06Z" fill="#BD4553"/>
<path d="M1645 -7.62939e-06H1650V9.99999H1645V-7.62939e-06Z" fill="#BD4553"/>
<path d="M1650 -7.62939e-06H1655V9.99999H1650V-7.62939e-06Z" fill="#BD4553"/>
<path d="M1655 -7.62939e-06H1660V9.99999H1655V-7.62939e-06Z" fill="#BD4553"/>
<path d="M1660 -7.62939e-06H1665V9.99999H1660V-7.62939e-06Z" fill="#BD4553"/>
<path d="M1665 -7.62939e-06H1670V9.99999H1665V-7.62939e-06Z" fill="#BD4553"/>
<path d="M1670 -7.62939e-06H1675V9.99999H1670V-7.62939e-06Z" fill="#BD4553"/>
<path d="M1675 -7.62939e-06H1680V9.99999H1675V-7.62939e-06Z" fill="#BD4553"/>
<path d="M1680 -7.62939e-06H1685V9.99999H1680V-7.62939e-06Z" fill="#BD4553"/>
<path d="M1685 -7.62939e-06H1690V9.99999H1685V-7.62939e-06Z" fill="#BD4553"/>
<path d="M1690 -7.62939e-06H1695V9.99999H1690V-7.62939e-06Z" fill="#BD4553"/>
<path d="M1695 4.99999H1700V9.99999H1695V4.99999Z" fill="#BD4553"/>
<path d="M1700 -7.62939e-06H1705V9.99999H1700V-7.62939e-06Z" fill="#BD4553"/>
<path d="M1705 -7.62939e-06H1710V9.99999H1705V-7.62939e-06Z" fill="#BD4553"/>
<path d="M1710 4.99999H1715V9.99999H1710V4.99999Z" fill="#BD4553"/>
<path d="M1720 -7.62939e-06H1725V9.99999H1720V-7.62939e-06Z" fill="#BD4553"/>
<path d="M1725 -7.62939e-06H1730V9.99999H1725V-7.62939e-06Z" fill="#BD4553"/>
<path d="M1730 -7.62939e-06H1735V9.99999H1730V-7.62939e-06Z" fill="#BD4553"/>
<path d="M1735 -7.62939e-06H1740V9.99999H1735V-7.62939e-06Z" fill="#BD4553"/>
<path d="M1740 -7.62939e-06H1745V9.99999H1740V-7.62939e-06Z" fill="#BD4553"/>
<path d="M1745 -7.62939e-06H1750V9.99999H1745V-7.62939e-06Z" fill="#BD4553"/>
<path d="M1750 -7.62939e-06H1755V9.99999H1750V-7.62939e-06Z" fill="#BD4553"/>
<path d="M1755 -7.62939e-06H1760V9.99999H1755V-7.62939e-06Z" fill="#BD4553"/>
<path d="M1760 -7.62939e-06H1765V9.99999H1760V-7.62939e-06Z" fill="#BD4553"/>
<path d="M1765 -7.62939e-06H1770V9.99999H1765V-7.62939e-06Z" fill="#BD4553"/>
<path d="M1770 4.99999H1775V9.99999H1770V4.99999Z" fill="#BD4553"/>
<path d="M1775 -7.62939e-06H1780V9.99999H1775V-7.62939e-06Z" fill="#BD4553"/>
<path d="M1780 -7.62939e-06H1785V9.99999H1780V-7.62939e-06Z" fill="#BD4553"/>
<path d="M1785 -7.62939e-06H1790V9.99999H1785V-7.62939e-06Z" fill="#BD4553"/>
<path d="M1790 -7.62939e-06H1795V9.99999H1790V-7.62939e-06Z" fill="#BD4553"/>
<path d="M1795 4.99999H1800V9.99999H1795V4.99999Z" fill="#BD4553"/>
<path d="M1800 -7.62939e-06H1805V9.99999H1800V-7.62939e-06Z" fill="#BD4553"/>
<path d="M1805 4.99999H1810V9.99999H1805V4.99999Z" fill="#BD4553"/>
<path d="M1815 -7.62939e-06H1820V9.99999H1815V-7.62939e-06Z" fill="#BD4553"/>
<path d="M1820 -7.62939e-06H1825V9.99999H1820V-7.62939e-06Z" fill="#BD4553"/>
<path d="M1825 -7.62939e-06H1830V9.99999H1825V-7.62939e-06Z" fill="#BD4553"/>
<path d="M1830 -7.62939e-06H1835V9.99999H1830V-7.62939e-06Z" fill="#BD4553"/>
<path d="M1835 -7.62939e-06H1840V9.99999H1835V-7.62939e-06Z" fill="#BD4553"/>
<path d="M1840 -7.62939e-06H1845V9.99999H1840V-7.62939e-06Z" fill="#BD4553"/>
<path d="M1845 -7.62939e-06H1850V9.99999H1845V-7.62939e-06Z" fill="#BD4553"/>
<path d="M1850 -7.62939e-06H1855V9.99999H1850V-7.62939e-06Z" fill="#BD4553"/>
<path d="M1855 -7.62939e-06H1860V9.99999H1855V-7.62939e-06Z" fill="#BD4553"/>
<path d="M1860 -7.62939e-06H1865V9.99999H1860V-7.62939e-06Z" fill="#BD4553"/>
<path d="M1865 4.99999H1870V9.99999H1865V4.99999Z" fill="#BD4553"/>
<path d="M1870 -7.62939e-06H1875V9.99999H1870V-7.62939e-06Z" fill="#BD4553"/>
<path d="M1875 -7.62939e-06H1880V9.99999H1875V-7.62939e-06Z" fill="#BD4553"/>
<path d="M1880 -7.62939e-06H1885V9.99999H1880V-7.62939e-06Z" fill="#BD4553"/>
<path d="M1885 4.99999H1890V9.99999H1885V4.99999Z" fill="#BD4553"/>
<path d="M1890 -7.62939e-06H1895V9.99999H1890V-7.62939e-06Z" fill="#BD4553"/>
<path d="M1895 -7.62939e-06H1900V9.99999H1895V-7.62939e-06Z" fill="#BD4553"/>
<path d="M1900 4.99999H1905V9.99999H1900V4.99999Z" fill="#BD4553"/>
<path d="M1905 -7.62939e-06H1910V9.99999H1905V-7.62939e-06Z" fill="#BD4553"/>
<path d="M1910 -7.62939e-06H1915V9.99999H1910V-7.62939e-06Z" fill="#BD4553"/>
<path d="M1915 -7.62939e-06H1920V9.99999H1915V-7.62939e-06Z" fill="#BD4553"/>
<path d="M1920 -7.62939e-06H1925V9.99999H1920V-7.62939e-06Z" fill="#BD4553"/>
<path d="M1925 -7.62939e-06H1930V9.99999H1925V-7.62939e-06Z" fill="#BD4553"/>
<path d="M1935 -7.62939e-06H1940V9.99999H1935V-7.62939e-06Z" fill="#BD4553"/>
<path d="M1940 -7.62939e-06H1945V9.99999H1940V-7.62939e-06Z" fill="#BD4553"/>
<path d="M1945 -7.62939e-06H1950V9.99999H1945V-7.62939e-06Z" fill="#BD4553"/>
<path d="M1950 -7.62939e-06H1955V9.99999H1950V-7.62939e-06Z" fill="#BD4553"/>
<path d="M1955 -7.62939e-06H1960V9.99999H1955V-7.62939e-06Z" fill="#BD4553"/>
<path d="M1960 -7.62939e-06H1965V9.99999H1960V-7.62939e-06Z" fill="#BD4553"/>
<path d="M1965 -7.62939e-06H1970V9.99999H1965V-7.62939e-06Z" fill="#BD4553"/>
<path d="M1970 -7.62939e-06H1975V9.99999H1970V-7.62939e-06Z" fill="#BD4553"/>
<path d="M1975 -7.62939e-06H1980V9.99999H1975V-7.62939e-06Z" fill="#BD4553"/>
<path d="M1980 -7.62939e-06H1985V9.99999H1980V-7.62939e-06Z" fill="#BD4553"/>
<path d="M1985 -7.62939e-06H1990V9.99999H1985V-7.62939e-06Z" fill="#BD4553"/>
<path d="M1990 -7.62939e-06H1995V9.99999H1990V-7.62939e-06Z" fill="#BD4553"/>
<path d="M1995 -7.62939e-06H2000V9.99999H1995V-7.62939e-06Z" fill="#BD4553"/>
<path d="M2000 -7.62939e-06H2005V9.99999H2000V-7.62939e-06Z" fill="#BD4553"/>
<path d="M2005 4.99999H2010V9.99999H2005V4.99999Z" fill="#BD4553"/>
<path d="M2010 4.99999H2015V9.99999H2010V4.99999Z" fill="#BD4553"/>
<path d="M2015 -7.62939e-06H2020V9.99999H2015V-7.62939e-06Z" fill="#BD4553"/>
<path d="M2020 -7.62939e-06H2025V9.99999H2020V-7.62939e-06Z" fill="#BD4553"/>
<path d="M2025 -7.62939e-06H2030V9.99999H2025V-7.62939e-06Z" fill="#BD4553"/>
<path d="M2030 -7.62939e-06H2035V9.99999H2030V-7.62939e-06Z" fill="#BD4553"/>
<path d="M2035 -7.62939e-06H2040V9.99999H2035V-7.62939e-06Z" fill="#BD4553"/>
<path d="M2040 -7.62939e-06H2045V9.99999H2040V-7.62939e-06Z" fill="#BD4553"/>
<path d="M2045 4.99999H2050V9.99999H2045V4.99999Z" fill="#BD4553"/>
<path d="M2050 4.99999H2055V9.99999H2050V4.99999Z" fill="#BD4553"/>
<path d="M2055 -7.62939e-06H2060V9.99999H2055V-7.62939e-06Z" fill="#BD4553"/>
<path d="M2060 4.99999H2065V9.99999H2060V4.99999Z" fill="#BD4553"/>
<path d="M2065 -7.62939e-06H2070V9.99999H2065V-7.62939e-06Z" fill="#BD4553"/>
<path d="M2070 -7.62939e-06H2075V9.99999H2070V-7.62939e-06Z" fill="#BD4553"/>
<path d="M2075 -7.62939e-06H2080V9.99999H2075V-7.62939e-06Z" fill="#BD4553"/>
<path d="M2080 -7.62939e-06H2085V9.99999H2080V-7.62939e-06Z" fill="#BD4553"/>
<path d="M2085 4.99999H2090V9.99999H2085V4.99999Z" fill="#BD4553"/>
<path d="M2090 4.99999H2095V9.99999H2090V4.99999Z" fill="#BD4553"/>
<path d="M2095 6.66666H2100V9.99999H2095V6.66666Z" fill="#BD4553"/>
<path d="M2100 3.33334H2105V6.66667H2100V3.33334Z" fill="#BD4553"/>
<path d="M2105 -7.62939e-06H2110V9.99999H2105V-7.62939e-06Z" fill="#BD4553"/>
<path d="M2110 -7.62939e-06H2115V9.99999H2110V-7.62939e-06Z" fill="#BD4553"/>
<path d="M2115 -7.62939e-06H2120V9.99999H2115V-7.62939e-06Z" fill="#BD4553"/>
<path d="M2120 4.99999H2125V9.99999H2120V4.99999Z" fill="#BD4553"/>
<path d="M2125 4.99999H2130V9.99999H2125V4.99999Z" fill="#BD4553"/>
<path d="M2130 -7.62939e-06H2135V9.99999H2130V-7.62939e-06Z" fill="#BD4553"/>
<path d="M2135 -7.62939e-06H2140V9.99999H2135V-7.62939e-06Z" fill="#BD4553"/>
<path d="M2140 -7.62939e-06H2145V9.99999H2140V-7.62939e-06Z" fill="#BD4553"/>
<path d="M2145 -7.62939e-06H2150V9.99999H2145V-7.62939e-06Z" fill="#BD4553"/>
<path d="M2150 -7.62939e-06H2155V9.99999H2150V-7.62939e-06Z" fill="#BD4553"/>
<path d="M2155 -7.62939e-06H2160V9.99999H2155V-7.62939e-06Z" fill="#BD4553"/>
<path d="M2160 -7.62939e-06H2165V9.99999H2160V-7.62939e-06Z" fill="#BD4553"/>
<path d="M2165 -7.62939e-06H2170V9.99999H2165V-7.62939e-06Z" fill="#BD4553"/>
<path d="M2170 4.99999H2175V9.99999H2170V4.99999Z" fill="#BD4553"/>
<path d="M2180 -7.62939e-06H2185V9.99999H2180V-7.62939e-06Z" fill="#BD4553"/>
<path d="M2185 -7.62939e-06H2190V9.99999H2185V-7.62939e-06Z" fill="#BD4553"/>
<path d="M2190 -7.62939e-06H2195V9.99999H2190V-7.62939e-06Z" fill="#BD4553"/>
<path d="M2195 -7.62939e-06H2200V9.99999H2195V-7.62939e-06Z" fill="#BD4553"/>
<path d="M2200 4.99999H2205V9.99999H2200V4.99999Z" fill="#BD4553"/>
<path d="M2205 -7.62939e-06H2210V9.99999H2205V-7.62939e-06Z" fill="#BD4553"/>
<path d="M2210 -7.62939e-06H2215V9.99999H2210V-7.62939e-06Z" fill="#BD4553"/>
<path d="M2215 4.99999H2220V9.99999H2215V4.99999Z" fill="#BD4553"/>
<path d="M2220 -7.62939e-06H2225V9.99999H2220V-7.62939e-06Z" fill="#BD4553"/>
<path d="M2225 -7.62939e-06H2230V9.99999H2225V-7.62939e-06Z" fill="#BD4553"/>
<path d="M2230 4.99999H2235V9.99999H2230V4.99999Z" fill="#BD4553"/>
<path d="M2235 4.99999H2240V9.99999H2235V4.99999Z" fill="#BD4553"/>
<path d="M2240 -7.62939e-06H2245V9.99999H2240V-7.62939e-06Z" fill="#BD4553"/>
<path d="M2245 -7.62939e-06H2250V9.99999H2245V-7.62939e-06Z" fill="#BD4553"/>
<path d="M2250 -7.62939e-06H2255V9.99999H2250V-7.62939e-06Z" fill="#BD4553"/>
<path d="M2255 -7.62939e-06H2260V9.99999H2255V-7.62939e-06Z" fill="#BD4553"/>
<path d="M2260 -7.62939e-06H2265V9.99999H2260V-7.62939e-06Z" fill="#BD4553"/>
<path d="M2265 -7.62939e-06H2270V9.99999H2265V-7.62939e-06Z" fill="#BD4553"/>
<path d="M2270 -7.62939e-06H2275V9.99999H2270V-7.62939e-06Z" fill="#BD4553"/>
<path d="M2275 0H2280V5H2275V0Z" fill="#BD4553"/>
<path d="M2280 -7.62939e-06H2285V9.99999H2280V-7.62939e-06Z" fill="#BD4553"/>
<path d="M2285 -7.62939e-06H2290V9.99999H2285V-7.62939e-06Z" fill="#BD4553"/>
<path d="M2290 4.99999H2295V9.99999H2290V4.99999Z" fill="#BD4553"/>
<path d="M2295 4.99999H2300V9.99999H2295V4.99999Z" fill="#BD4553"/>
<path d="M2300 -7.62939e-06H2305V9.99999H2300V-7.62939e-06Z" fill="#BD4553"/>
<path d="M2305 -7.62939e-06H2310V9.99999H2305V-7.62939e-06Z" fill="#BD4553"/>
<path d="M2310 0H2315V5H2310V0Z" fill="#BD4553"/>
<path d="M2315 -7.62939e-06H2320V9.99999H2315V-7.62939e-06Z" fill="#BD4553"/>
<path d="M2320 -7.62939e-06H2325V9.99999H2320V-7.62939e-06Z" fill="#BD4553"/>
<path d="M2330 0H2335V5H2330V0Z" fill="#BD4553"/>
<path d="M2335 -7.62939e-06H2340V9.99999H2335V-7.62939e-06Z" fill="#BD4553"/>
<path d="M2340 -7.62939e-06H2345V9.99999H2340V-7.62939e-06Z" fill="#BD4553"/>
<path d="M2355 -7.62939e-06H2360V9.99999H2355V-7.62939e-06Z" fill="#BD4553"/>
<path d="M2360 -7.62939e-06H2365V9.99999H2360V-7.62939e-06Z" fill="#BD4553"/>
<path d="M2365 -7.62939e-06H2370V9.99999H2365V-7.62939e-06Z" fill="#BD4553"/>
<path d="M2370 -7.62939e-06H2375V9.99999H2370V-7.62939e-06Z" fill="#BD4553"/>
<path d="M2375 -7.62939e-06H2380V9.99999H2375V-7.62939e-06Z" fill="#BD4553"/>
<path d="M2380 -7.62939e-06H2385V9.99999H2380V-7.62939e-06Z" fill="#BD4553"/>
<path d="M2385 -7.62939e-06H2390V9.99999H2385V-7.62939e-06Z" fill="#BD4553"/>
<path d="M2395 -7.62939e-06H2400V9.99999H2395V-7.62939e-06Z" fill="#BD4553"/>
<path d="M2400 -7.62939e-06H2405V9.99999H2400V-7.62939e-06Z" fill="#BD4553"/>
<path d="M2405 -7.62939e-06H2410V9.99999H2405V-7.62939e-06Z" fill="#BD4553"/>
<path d="M2410 -7.62939e-06H2415V9.99999H2410V-7.62939e-06Z" fill="#BD4553"/>
<path d="M2415 -7.62939e-06H2420V9.99999H2415V-7.62939e-06Z" fill="#BD4553"/>
<path d="M2420 -7.62939e-06H2425V9.99999H2420V-7.62939e-06Z" fill="#BD4553"/>
<path d="M2425 -7.62939e-06H2430V9.99999H2425V-7.62939e-06Z" fill="#BD4553"/>
<path d="M2430 -7.62939e-06H2435V9.99999H2430V-7.62939e-06Z" fill="#BD4553"/>
<path d="M2435 -7.62939e-06H2440V9.99999H2435V-7.62939e-06Z" fill="#BD4553"/>
<path d="M2440 -7.62939e-06H2445V9.99999H2440V-7.62939e-06Z" fill="#BD4553"/>
<path d="M2445 -7.62939e-06H2450V9.99999H2445V-7.62939e-06Z" fill="#BD4553"/>
<path d="M2450 4.99999H2455V9.99999H2450V4.99999Z" fill="#BD4553"/>
<path d="M2455 -7.62939e-06H2460V9.99999H2455V-7.62939e-06Z" fill="#BD4553"/>
<path d="M2460 -7.62939e-06H2465V9.99999H2460V-7.62939e-06Z" fill="#BD4553"/>
<path d="M2465 -7.62939e-06H2470V9.99999H2465V-7.62939e-06Z" fill="#BD4553"/>
<path d="M2470 -7.62939e-06H2475V9.99999H2470V-7.62939e-06Z" fill="#BD4553"/>
<path d="M2475 -7.62939e-06H2480V9.99999H2475V-7.62939e-06Z" fill="#BD4553"/>
<path d="M2480 4.99999H2485V9.99999H2480V4.99999Z" fill="#BD4553"/>
<path d="M2485 4.99999H2490V9.99999H2485V4.99999Z" fill="#BD4553"/>
<path d="M2490 4.99999H2495V9.99999H2490V4.99999Z" fill="#BD4553"/>
<path d="M2495 -7.62939e-06H2500V9.99999H2495V-7.62939e-06Z" fill="#BD4553"/>
<path d="M2500 -7.62939e-06H2505V9.99999H2500V-7.62939e-06Z" fill="#BD4553"/>
<path d="M2505 -7.62939e-06H2510V9.99999H2505V-7.62939e-06Z" fill="#BD4553"/>
<path d="M2510 -7.62939e-06H2515V9.99999H2510V-7.62939e-06Z" fill="#BD4553"/>
<path d="M2515 -7.62939e-06H2520V9.99999H2515V-7.62939e-06Z" fill="#BD4553"/>
<path d="M2520 -7.62939e-06H2525V9.99999H2520V-7.62939e-06Z" fill="#BD4553"/>
<path d="M2525 -7.62939e-06H2530V9.99999H2525V-7.62939e-06Z" fill="#BD4553"/>
<path d="M2530 -7.62939e-06H2535V9.99999H2530V-7.62939e-06Z" fill="#BD4553"/>
<path d="M2535 -7.62939e-06H2540V9.99999H2535V-7.62939e-06Z" fill="#BD4553"/>
<path d="M2540 -7.62939e-06H2545V9.99999H2540V-7.62939e-06Z" fill="#BD4553"/>
<path d="M2545 -7.62939e-06H2550V9.99999H2545V-7.62939e-06Z" fill="#BD4553"/>
<path d="M2550 -7.62939e-06H2555V9.99999H2550V-7.62939e-06Z" fill="#BD4553"/>
<path d="M2555 -7.62939e-06H2560V9.99999H2555V-7.62939e-06Z" fill="#BD4553"/>
<path d="M2560 -7.62939e-06H2565V9.99999H2560V-7.62939e-06Z" fill="#BD4553"/>
<path d="M2565 -7.62939e-06H2570V9.99999H2565V-7.62939e-06Z" fill="#BD4553"/>
<path d="M2570 -7.62939e-06H2575V9.99999H2570V-7.62939e-06Z" fill="#BD4553"/>
<path d="M2575 -7.62939e-06H2580V9.99999H2575V-7.62939e-06Z" fill="#BD4553"/>
<path d="M2580 -7.62939e-06H2585V9.99999H2580V-7.62939e-06Z" fill="#BD4553"/>
<path d="M2585 -7.62939e-06H2590V9.99999H2585V-7.62939e-06Z" fill="#BD4553"/>
<path d="M2590 -7.62939e-06H2595V9.99999H2590V-7.62939e-06Z" fill="#BD4553"/>
<path d="M2595 -7.62939e-06H2600V9.99999H2595V-7.62939e-06Z" fill="#BD4553"/>
<path d="M2600 -7.62939e-06H2605V9.99999H2600V-7.62939e-06Z" fill="#BD4553"/>
<path d="M2605 -7.62939e-06H2610V9.99999H2605V-7.62939e-06Z" fill="#BD4553"/>
<path d="M2610 -7.62939e-06H2615V9.99999H2610V-7.62939e-06Z" fill="#BD4553"/>
<path d="M2615 -7.62939e-06H2620V9.99999H2615V-7.62939e-06Z" fill="#BD4553"/>
<path d="M2620 -7.62939e-06H2625V9.99999H2620V-7.62939e-06Z" fill="#BD4553"/>
<path d="M2625 -7.62939e-06H2630V9.99999H2625V-7.62939e-06Z" fill="#BD4553"/>
<path d="M2630 -7.62939e-06H2635V9.99999H2630V-7.62939e-06Z" fill="#BD4553"/>
<path d="M2635 -7.62939e-06H2640V9.99999H2635V-7.62939e-06Z" fill="#BD4553"/>
<path d="M2640 -7.62939e-06H2645V9.99999H2640V-7.62939e-06Z" fill="#BD4553"/>
<path d="M2645 -7.62939e-06H2650V9.99999H2645V-7.62939e-06Z" fill="#BD4553"/>
<path d="M2650 -7.62939e-06H2655V9.99999H2650V-7.62939e-06Z" fill="#BD4553"/>
<path d="M2655 -7.62939e-06H2660V9.99999H2655V-7.62939e-06Z" fill="#BD4553"/>
<path d="M2660 -7.62939e-06H2665V9.99999H2660V-7.62939e-06Z" fill="#BD4553"/>
<path d="M2665 -7.62939e-06H2670V9.99999H2665V-7.62939e-06Z" fill="#BD4553"/>
<path d="M2670 -7.62939e-06H2675V9.99999H2670V-7.62939e-06Z" fill="#BD4553"/>
<path d="M2675 4.99999H2680V9.99999H2675V4.99999Z" fill="#BD4553"/>
<path d="M2680 4.99999H2685V9.99999H2680V4.99999Z" fill="#BD4553"/>
<path d="M2685 4.99999H2690V9.99999H2685V4.99999Z" fill="#BD4553"/>
<path d="M2690 -7.62939e-06H2695V9.99999H2690V-7.62939e-06Z" fill="#BD4553"/>
<path d="M2695 -7.62939e-06H2700V9.99999H2695V-7.62939e-06Z" fill="#BD4553"/>
<path d="M2700 4.99999H2705V9.99999H2700V4.99999Z" fill="#BD4553"/>
<path d="M2705 4.99999H2710V9.99999H2705V4.99999Z" fill="#BD4553"/>
<path d="M2710 -7.62939e-06H2715V9.99999H2710V-7.62939e-06Z" fill="#BD4553"/>
<path d="M2715 4.99999H2720V9.99999H2715V4.99999Z" fill="#BD4553"/>
<path d="M2720 -7.62939e-06H2725V9.99999H2720V-7.62939e-06Z" fill="#BD4553"/>
<path d="M2725 -7.62939e-06H2730V9.99999H2725V-7.62939e-06Z" fill="#BD4553"/>
<path d="M2730 -7.62939e-06H2735V9.99999H2730V-7.62939e-06Z" fill="#BD4553"/>
<path d="M2735 -7.62939e-06H2740V9.99999H2735V-7.62939e-06Z" fill="#BD4553"/>
<path d="M2740 -7.62939e-06H2745V9.99999H2740V-7.62939e-06Z" fill="#BD4553"/>
<path d="M2745 -7.62939e-06H2750V9.99999H2745V-7.62939e-06Z" fill="#BD4553"/>
<path d="M2750 -7.62939e-06H2755V9.99999H2750V-7.62939e-06Z" fill="#BD4553"/>
<path d="M2755 -7.62939e-06H2760V9.99999H2755V-7.62939e-06Z" fill="#BD4553"/>
<path d="M2760 -7.62939e-06H2765V9.99999H2760V-7.62939e-06Z" fill="#BD4553"/>
<path d="M2765 -7.62939e-06H2770V9.99999H2765V-7.62939e-06Z" fill="#BD4553"/>
<path d="M2770 -7.62939e-06H2775V9.99999H2770V-7.62939e-06Z" fill="#BD4553"/>
<path d="M2775 -7.62939e-06H2780V9.99999H2775V-7.62939e-06Z" fill="#BD4553"/>
<path d="M2780 -7.62939e-06H2785V9.99999H2780V-7.62939e-06Z" fill="#BD4553"/>
<path d="M2785 4.99999H2790V9.99999H2785V4.99999Z" fill="#BD4553"/>
<path d="M2790 -7.62939e-06H2795V9.99999H2790V-7.62939e-06Z" fill="#BD4553"/>
<path d="M2795 -7.62939e-06H2800V9.99999H2795V-7.62939e-06Z" fill="#BD4553"/>
<path d="M2800 -7.62939e-06H2805V9.99999H2800V-7.62939e-06Z" fill="#BD4553"/>
<path d="M2805 -7.62939e-06H2810V9.99999H2805V-7.62939e-06Z" fill="#BD4553"/>
<path d="M2810 4.99999H2815V9.99999H2810V4.99999Z" fill="#BD4553"/>
<path d="M2815 4.99999H2820V9.99999H2815V4.99999Z" fill="#BD4553"/>
<path d="M2820 0H2825V5H2820V0Z" fill="#BD4553"/>
<path d="M2825 -7.62939e-06H2830V9.99999H2825V-7.62939e-06Z" fill="#BD4553"/>
<path d="M2830 -7.62939e-06H2835V9.99999H2830V-7.62939e-06Z" fill="#BD4553"/>
<path d="M2845 4.99999H2850V9.99999H2845V4.99999Z" fill="#BD4553"/>
<path d="M2850 -7.62939e-06H2855V9.99999H2850V-7.62939e-06Z" fill="#BD4553"/>
<path d="M2855 -7.62939e-06H2860V9.99999H2855V-7.62939e-06Z" fill="#BD4553"/>
<path d="M2860 4.99999H2865V9.99999H2860V4.99999Z" fill="#BD4553"/>
<path d="M2865 -7.62939e-06H2870V9.99999H2865V-7.62939e-06Z" fill="#BD4553"/>
<path d="M2870 0H2875V5H2870V0Z" fill="#BD4553"/>
<path d="M2875 -7.62939e-06H2880V9.99999H2875V-7.62939e-06Z" fill="#BD4553"/>
<path d="M2880 -7.62939e-06H2885V9.99999H2880V-7.62939e-06Z" fill="#BD4553"/>
<path d="M2885 -7.62939e-06H2890V9.99999H2885V-7.62939e-06Z" fill="#BD4553"/>
<path d="M2890 -7.62939e-06H2895V9.99999H2890V-7.62939e-06Z" fill="#BD4553"/>
<path d="M2895 4.99999H2900V9.99999H2895V4.99999Z" fill="#BD4553"/>
<path d="M2900 -7.62939e-06H2905V9.99999H2900V-7.62939e-06Z" fill="#BD4553"/>
<path d="M2905 -7.62939e-06H2910V9.99999H2905V-7.62939e-06Z" fill="#BD4553"/>
<path d="M2910 -7.62939e-06H2915V9.99999H2910V-7.62939e-06Z" fill="#BD4553"/>
<path d="M2915 4.99999H2920V9.99999H2915V4.99999Z" fill="#BD4553"/>
<path d="M2920 4.99999H2925V9.99999H2920V4.99999Z" fill="#BD4553"/>
<path d="M2925 -7.62939e-06H2930V9.99999H2925V-7.62939e-06Z" fill="#BD4553"/>
<path d="M2930 -7.62939e-06H2935V9.99999H2930V-7.62939e-06Z" fill="#BD4553"/>
<path d="M2935 0H2940V5H2935V0Z" fill="#BD4553"/>
<path d="M2940 -7.62939e-06H2945V9.99999H2940V-7.62939e-06Z" fill="#BD4553"/>
<path d="M2945 0H2950V5H2945V0Z" fill="#BD4553"/>
<path d="M2955 -7.62939e-06H2960V9.99999H2955V-7.62939e-06Z" fill="#BD4553"/>
<path d="M2965 0H2970V5H2965V0Z" fill="#BD4553"/>
<path d="M2970 0H2975V5H2970V0Z" fill="#BD4553"/>
<path d="M2980 0H2985V5H2980V0Z" fill="#BD4553"/>
<path d="M2985 -7.62939e-06H2990V9.99999H2985V-7.62939e-06Z" fill="#BD4553"/>
<path d="M2990 -7.62939e-06H2995V9.99999H2990V-7.62939e-06Z" fill="#BD4553"/>
<path d="M2995 -7.62939e-06H3000V9.99999H2995V-7.62939e-06Z" fill="#BD4553"/>
<path d="M3000 -7.62939e-06H3005V9.99999H3000V-7.62939e-06Z" fill="#BD4553"/>
<path d="M3005 -7.62939e-06H3010V9.99999H3005V-7.62939e-06Z" fill="#BD4553"/>
<path d="M3010 4.99999H3015V9.99999H3010V4.99999Z" fill="#BD4553"/>
<path d="M3015 -7.62939e-06H3020V9.99999H3015V-7.62939e-06Z" fill="#BD4553"/>
<path d="M3020 -7.62939e-06H3025V9.99999H3020V-7.62939e-06Z" fill="#BD4553"/>
<path d="M3025 -7.62939e-06H3030V9.99999H3025V-7.62939e-06Z" fill="#BD4553"/>
<path d="M3030 -7.62939e-06H3035V9.99999H3030V-7.62939e-06Z" fill="#BD4553"/>
<path d="M3040 -7.62939e-06H3045V9.99999H3040V-7.62939e-06Z" fill="#BD4553"/>
<path d="M3055 4.99999H3060V9.99999H3055V4.99999Z" fill="#BD4553"/>
<path d="M3060 -7.62939e-06H3065V9.99999H3060V-7.62939e-06Z" fill="#BD4553"/>
<path d="M3065 -7.62939e-06H3070V9.99999H3065V-7.62939e-06Z" fill="#BD4553"/>
<path d="M3070 -7.62939e-06H3075V9.99999H3070V-7.62939e-06Z" fill="#BD4553"/>
<path d="M3075 -7.62939e-06H3080V9.99999H3075V-7.62939e-06Z" fill="#BD4553"/>
<path d="M3085 -7.62939e-06H3090V9.99999H3085V-7.62939e-06Z" fill="#BD4553"/>
<path d="M3090 -7.62939e-06H3095V9.99999H3090V-7.62939e-06Z" fill="#BD4553"/>
<path d="M3095 4.99999H3100V9.99999H3095V4.99999Z" fill="#BD4553"/>
<path d="M3100 -7.62939e-06H3105V9.99999H3100V-7.62939e-06Z" fill="#BD4553"/>
<path d="M3105 -7.62939e-06H3110V9.99999H3105V-7.62939e-06Z" fill="#BD4553"/>
<path d="M3110 -7.62939e-06H3115V9.99999H3110V-7.62939e-06Z" fill="#BD4553"/>
<path d="M3115 -7.62939e-06H3120V9.99999H3115V-7.62939e-06Z" fill="#BD4553"/>
<path d="M3120 -7.62939e-06H3125V9.99999H3120V-7.62939e-06Z" fill="#BD4553"/>
<path d="M3125 -7.62939e-06H3130V9.99999H3125V-7.62939e-06Z" fill="#BD4553"/>
<path d="M3130 -7.62939e-06H3135V9.99999H3130V-7.62939e-06Z" fill="#BD4553"/>
<path d="M3135 -7.62939e-06H3140V9.99999H3135V-7.62939e-06Z" fill="#BD4553"/>
<path d="M3140 -7.62939e-06H3145V9.99999H3140V-7.62939e-06Z" fill="#BD4553"/>
<path d="M3145 -7.62939e-06H3150V9.99999H3145V-7.62939e-06Z" fill="#BD4553"/>
<path d="M3150 6.66666H3155V9.99999H3150V6.66666Z" fill="#BD4553"/>
<path d="M3155 -7.62939e-06H3160V9.99999H3155V-7.62939e-06Z" fill="#BD4553"/>
<path d="M3160 -7.62939e-06H3165V9.99999H3160V-7.62939e-06Z" fill="#BD4553"/>
<path d="M3165 4.99999H3170V9.99999H3165V4.99999Z" fill="#BD4553"/>
<path d="M3170 -7.62939e-06H3175V9.99999H3170V-7.62939e-06Z" fill="#BD4553"/>
<path d="M3175 -7.62939e-06H3180V9.99999H3175V-7.62939e-06Z" fill="#BD4553"/>
<path d="M3190 -7.62939e-06H3195V9.99999H3190V-7.62939e-06Z" fill="#BD4553"/>
<path d="M3195 -7.62939e-06H3200V9.99999H3195V-7.62939e-06Z" fill="#BD4553"/>
<path d="M3200 -7.62939e-06H3205V9.99999H3200V-7.62939e-06Z" fill="#BD4553"/>
<path d="M3205 -7.62939e-06H3210V9.99999H3205V-7.62939e-06Z" fill="#BD4553"/>
<path d="M3210 -7.62939e-06H3215V9.99999H3210V-7.62939e-06Z" fill="#BD4553"/>
<path d="M3215 -7.62939e-06H3220V9.99999H3215V-7.62939e-06Z" fill="#BD4553"/>
<path d="M3220 -7.62939e-06H3225V9.99999H3220V-7.62939e-06Z" fill="#BD4553"/>
<path d="M3235 -7.62939e-06H3240V9.99999H3235V-7.62939e-06Z" fill="#BD4553"/>
<path d="M3240 0H3245V5H3240V0Z" fill="#BD4553"/>
<path d="M3250 0H3255V5H3250V0Z" fill="#BD4553"/>
<path d="M3255 -7.62939e-06H3260V9.99999H3255V-7.62939e-06Z" fill="#BD4553"/>
<path d="M3260 -7.62939e-06H3265V9.99999H3260V-7.62939e-06Z" fill="#BD4553"/>
<path d="M3275 -7.62939e-06H3280V9.99999H3275V-7.62939e-06Z" fill="#BD4553"/>
<path d="M3280 -7.62939e-06H3285V9.99999H3280V-7.62939e-06Z" fill="#BD4553"/>
<path d="M3285 4.99999H3290V9.99999H3285V4.99999Z" fill="#BD4553"/>
<path d="M3290 -7.62939e-06H3295V9.99999H3290V-7.62939e-06Z" fill="#BD4553"/>
<path d="M3295 -7.62939e-06H3300V9.99999H3295V-7.62939e-06Z" fill="#BD4553"/>
<path d="M3310 -7.62939e-06H3315V9.99999H3310V-7.62939e-06Z" fill="#BD4553"/>
<path d="M3315 -7.62939e-06H3320V9.99999H3315V-7.62939e-06Z" fill="#BD4553"/>
<path d="M3335 -7.62939e-06H3340V9.99999H3335V-7.62939e-06Z" fill="#BD4553"/>
<path d="M3340 -7.62939e-06H3345V9.99999H3340V-7.62939e-06Z" fill="#BD4553"/>
<path d="M3345 -7.62939e-06H3350V9.99999H3345V-7.62939e-06Z" fill="#BD4553"/>
<path d="M3350 -7.62939e-06H3355V9.99999H3350V-7.62939e-06Z" fill="#BD4553"/>
<path d="M3355 -7.62939e-06H3360V9.99999H3355V-7.62939e-06Z" fill="#BD4553"/>
<path d="M3370 -7.62939e-06H3375V9.99999H3370V-7.62939e-06Z" fill="#BD4553"/>
<path d="M3375 -7.62939e-06H3380V9.99999H3375V-7.62939e-06Z" fill="#BD4553"/>
<path d="M3380 -7.62939e-06H3385V9.99999H3380V-7.62939e-06Z" fill="#BD4553"/>
<path d="M3385 -7.62939e-06H3390V9.99999H3385V-7.62939e-06Z" fill="#BD4553"/>
<path d="M3390 -7.62939e-06H3395V9.99999H3390V-7.62939e-06Z" fill="#BD4553"/>
<path d="M3405 -7.62939e-06H3410V9.99999H3405V-7.62939e-06Z" fill="#BD4553"/>
<path d="M3410 -7.62939e-06H3415V9.99999H3410V-7.62939e-06Z" fill="#BD4553"/>
<path d="M3415 -7.62939e-06H3420V9.99999H3415V-7.62939e-06Z" fill="#BD4553"/>
<path d="M3420 -7.62939e-06H3425V9.99999H3420V-7.62939e-06Z" fill="#BD4553"/>
<path d="M3440 -7.62939e-06H3445V9.99999H3440V-7.62939e-06Z" fill="#BD4553"/>
<path d="M3450 -7.62939e-06H3455V9.99999H3450V-7.62939e-06Z" fill="#BD4553"/>
<path d="M3455 -7.62939e-06H3460V9.99999H3455V-7.62939e-06Z" fill="#BD4553"/>
<path d="M3465 -7.62939e-06H3470V9.99999H3465V-7.62939e-06Z" fill="#BD4553"/>
<path d="M3475 -7.62939e-06H3480V9.99999H3475V-7.62939e-06Z" fill="#BD4553"/>
<path d="M3485 -7.62939e-06H3490V9.99999H3485V-7.62939e-06Z" fill="#BD4553"/>
<path d="M3490 -7.62939e-06H3495V9.99999H3490V-7.62939e-06Z" fill="#BD4553"/>
<path d="M3500 -7.62939e-06H3505V9.99999H3500V-7.62939e-06Z" fill="#BD4553"/>
<path d="M3515 -7.62939e-06H3520V9.99999H3515V-7.62939e-06Z" fill="#BD4553"/>
<path d="M3520 -7.62939e-06H3525V9.99999H3520V-7.62939e-06Z" fill="#BD4553"/>
<path d="M3525 -7.62939e-06H3530V9.99999H3525V-7.62939e-06Z" fill="#BD4553"/>
<path d="M3530 -7.62939e-06H3535V9.99999H3530V-7.62939e-06Z" fill="#BD4553"/>
<path d="M3545 -7.62939e-06H3550V9.99999H3545V-7.62939e-06Z" fill="#BD4553"/>
<path d="M3550 -7.62939e-06H3555V9.99999H3550V-7.62939e-06Z" fill="#BD4553"/>
<path d="M3555 -7.62939e-06H3560V9.99999H3555V-7.62939e-06Z" fill="#BD4553"/>
<path d="M3560 -7.62939e-06H3565V9.99999H3560V-7.62939e-06Z" fill="#BD4553"/>
<path d="M3565 -7.62939e-06H3570V9.99999H3565V-7.62939e-06Z" fill="#BD4553"/>
<path d="M3570 -7.62939e-06H3575V9.99999H3570V-7.62939e-06Z" fill="#BD4553"/>
<path d="M3580 -7.62939e-06H3585V9.99999H3580V-7.62939e-06Z" fill="#BD4553"/>
<path d="M3590 -7.62939e-06H3595V9.99999H3590V-7.62939e-06Z" fill="#BD4553"/>
<path d="M3600 -7.62939e-06H3605V9.99999H3600V-7.62939e-06Z" fill="#BD4553"/>
<path d="M3605 -7.62939e-06H3610V9.99999H3605V-7.62939e-06Z" fill="#BD4553"/>
<path d="M3610 -7.62939e-06H3615V9.99999H3610V-7.62939e-06Z" fill="#BD4553"/>
<path d="M3615 -7.62939e-06H3620V9.99999H3615V-7.62939e-06Z" fill="#BD4553"/>
<path d="M3620 -7.62939e-06H3625V9.99999H3620V-7.62939e-06Z" fill="#BD4553"/>
<path d="M3625 -7.62939e-06H3630V9.99999H3625V-7.62939e-06Z" fill="#BD4553"/>
<path d="M3630 -7.62939e-06H3635V9.99999H3630V-7.62939e-06Z" fill="#BD4553"/>
<path d="M3635 -7.62939e-06H3640V9.99999H3635V-7.62939e-06Z" fill="#BD4553"/>
<path d="M3640 -7.62939e-06H3645V9.99999H3640V-7.62939e-06Z" fill="#BD4553"/>
<path d="M3645 -7.62939e-06H3650V9.99999H3645V-7.62939e-06Z" fill="#BD4553"/>
<path d="M300 5.71428H305V7.14285H300V5.71428Z" fill="#FFB2AC"/>
<path d="M325 6.66666H330V8.33333H325V6.66666Z" fill="#FFB2AC"/>
<path d="M2100 6.66666H2105V9.99999H2100V6.66666Z" fill="#FFB2AC"/>
<path d="M225 7.49999H230V9.99999H225V7.49999Z" fill="#8C6345"/>
<path d="M270 5.71428H275V7.14285H270V5.71428Z" fill="#8C6345"/>
<path d="M385 7.49999H390V9.99999H385V7.49999Z" fill="#8C6345"/>
<path d="M235 6.66666H240V9.99999H235V6.66666Z" fill="#AA92E3"/>
<path d="M260 5H265V7.5H260V5Z" fill="#AA92E3"/>
<path d="M265 6.66666H270V9.99999H265V6.66666Z" fill="#AA92E3"/>
<path d="M270 7.14286H275V8.57143H270V7.14286Z" fill="#AA92E3"/>
<path d="M275 6.66666H280V8.33333H275V6.66666Z" fill="#AA92E3"/>
<path d="M290 7.99999H295V9.99999H290V7.99999Z" fill="#AA92E3"/>
<path d="M295 6.66666H300V8.33333H295V6.66666Z" fill="#AA92E3"/>
<path d="M300 7.14286H305V8.57143H300V7.14286Z" fill="#AA92E3"/>
<path d="M305 6.66666H310V8.33333H305V6.66666Z" fill="#AA92E3"/>
<path d="M310 6.66666H315V8.33333H310V6.66666Z" fill="#AA92E3"/>
<path d="M315 6.66666H320V8.33333H315V6.66666Z" fill="#AA92E3"/>
<path d="M330 7.49999H335V9.99999H330V7.49999Z" fill="#AA92E3"/>
<path d="M335 7.99999H340V9.99999H335V7.99999Z" fill="#AA92E3"/>
<path d="M370 5H375V7.5H370V5Z" fill="#AA92E3"/>
<path d="M395 6.66666H400V9.99999H395V6.66666Z" fill="#AA92E3"/>
<path d="M435 7.99999H440V9.99999H435V7.99999Z" fill="#AA92E3"/>
<path d="M550 7.49999H555V9.99999H550V7.49999Z" fill="#AA92E3"/>
<path d="M610 6.66666H615V9.99999H610V6.66666Z" fill="#AA92E3"/>
<path d="M755 6.66666H760V9.99999H755V6.66666Z" fill="#AA92E3"/>
<path d="M780 4.99999H785V9.99999H780V4.99999Z" fill="#AA92E3"/>
<path d="M855 6.66666H860V9.99999H855V6.66666Z" fill="#AA92E3"/>
<path d="M1185 6.66666H1190V9.99999H1185V6.66666Z" fill="#AA92E3"/>
<path d="M1310 4.99999H1315V9.99999H1310V4.99999Z" fill="#AA92E3"/>
<path d="M1520 4.99999H1525V9.99999H1520V4.99999Z" fill="#AA92E3"/>
<path d="M2275 4.99999H2280V9.99999H2275V4.99999Z" fill="#AA92E3"/>
<path d="M2870 4.99999H2875V9.99999H2870V4.99999Z" fill="#AA92E3"/>
<path d="M2970 4.99999H2975V9.99999H2970V4.99999Z" fill="#AA92E3"/>
<path d="M3240 4.99999H3245V9.99999H3240V4.99999Z" fill="#AA92E3"/>
<path d="M3250 4.99999H3255V9.99999H3250V4.99999Z" fill="#AA92E3"/>
<path d="M3535 -7.62939e-06H3540V9.99999H3535V-7.62939e-06Z" fill="#AA92E3"/>
<path d="M260 7.49999H265V9.99999H260V7.49999Z" fill="#257DCC"/>
<path d="M270 8.57142H275V9.99999H270V8.57142Z" fill="#257DCC"/>
<path d="M275 8.33333H280V9.99999H275V8.33333Z" fill="#257DCC"/>
<path d="M280 7.49999H285V9.99999H280V7.49999Z" fill="#257DCC"/>
<path d="M285 7.99999H290V9.99999H285V7.99999Z" fill="#257DCC"/>
<path d="M295 8.33333H300V9.99999H295V8.33333Z" fill="#257DCC"/>
<path d="M300 8.57142H305V9.99999H300V8.57142Z" fill="#257DCC"/>
<path d="M305 8.33333H310V9.99999H305V8.33333Z" fill="#257DCC"/>
<path d="M310 8.33333H315V9.99999H310V8.33333Z" fill="#257DCC"/>
<path d="M315 8.33333H320V9.99999H315V8.33333Z" fill="#257DCC"/>
<path d="M325 8.33333H330V9.99999H325V8.33333Z" fill="#257DCC"/>
<path d="M340 7.49999H345V9.99999H340V7.49999Z" fill="#257DCC"/>
<path d="M345 7.49999H350V9.99999H345V7.49999Z" fill="#257DCC"/>
<path d="M350 6.66666H355V9.99999H350V6.66666Z" fill="#257DCC"/>
<path d="M355 7.49999H360V9.99999H355V7.49999Z" fill="#257DCC"/>
<path d="M370 7.49999H375V9.99999H370V7.49999Z" fill="#257DCC"/>
<path d="M375 7.99999H380V9.99999H375V7.99999Z" fill="#257DCC"/>
<path d="M400 6.66666H405V9.99999H400V6.66666Z" fill="#257DCC"/>
<path d="M410 7.99999H415V9.99999H410V7.99999Z" fill="#257DCC"/>
<path d="M415 6.66666H420V9.99999H415V6.66666Z" fill="#257DCC"/>
<path d="M420 6.66666H425V9.99999H420V6.66666Z" fill="#257DCC"/>
<path d="M440 6.66666H445V9.99999H440V6.66666Z" fill="#257DCC"/>
<path d="M445 6.66666H450V9.99999H445V6.66666Z" fill="#257DCC"/>
<path d="M450 6.66666H455V9.99999H450V6.66666Z" fill="#257DCC"/>
<path d="M455 6.66666H460V9.99999H455V6.66666Z" fill="#257DCC"/>
<path d="M470 6.66666H475V9.99999H470V6.66666Z" fill="#257DCC"/>
<path d="M475 6.66666H480V9.99999H475V6.66666Z" fill="#257DCC"/>
<path d="M480 6.66666H485V9.99999H480V6.66666Z" fill="#257DCC"/>
<path d="M530 4.99999H535V9.99999H530V4.99999Z" fill="#257DCC"/>
<path d="M555 4.99999H560V9.99999H555V4.99999Z" fill="#257DCC"/>
<path d="M560 4.99999H565V9.99999H560V4.99999Z" fill="#257DCC"/>
<path d="M590 6.66666H595V9.99999H590V6.66666Z" fill="#257DCC"/>
<path d="M695 4.99999H700V9.99999H695V4.99999Z" fill="#257DCC"/>
<path d="M720 6.66666H725V9.99999H720V6.66666Z" fill="#257DCC"/>
<path d="M820 6.66666H825V9.99999H820V6.66666Z" fill="#257DCC"/>
<path d="M865 4.99999H870V9.99999H865V4.99999Z" fill="#257DCC"/>
<path d="M890 6.66666H895V9.99999H890V6.66666Z" fill="#257DCC"/>
<path d="M895 6.66666H900V9.99999H895V6.66666Z" fill="#257DCC"/>
<path d="M900 6.66666H905V9.99999H900V6.66666Z" fill="#257DCC"/>
<path d="M1010 4.99999H1015V9.99999H1010V4.99999Z" fill="#257DCC"/>
<path d="M1020 4.99999H1025V9.99999H1020V4.99999Z" fill="#257DCC"/>
<path d="M1135 6.66666H1140V9.99999H1135V6.66666Z" fill="#257DCC"/>
<path d="M1205 6.66666H1210V9.99999H1205V6.66666Z" fill="#257DCC"/>
<path d="M1220 6.66666H1225V9.99999H1220V6.66666Z" fill="#257DCC"/>
<path d="M1235 6.66666H1240V9.99999H1235V6.66666Z" fill="#257DCC"/>
<path d="M1255 4.99999H1260V9.99999H1255V4.99999Z" fill="#257DCC"/>
<path d="M1350 6.66666H1355V9.99999H1350V6.66666Z" fill="#257DCC"/>
<path d="M1365 4.99999H1370V9.99999H1365V4.99999Z" fill="#257DCC"/>
<path d="M1420 4.99999H1425V9.99999H1420V4.99999Z" fill="#257DCC"/>
<path d="M1435 4.99999H1440V9.99999H1435V4.99999Z" fill="#257DCC"/>
<path d="M2175 -7.62939e-06H2180V9.99999H2175V-7.62939e-06Z" fill="#257DCC"/>
<path d="M2310 4.99999H2315V9.99999H2310V4.99999Z" fill="#257DCC"/>
<path d="M2325 -7.62939e-06H2330V9.99999H2325V-7.62939e-06Z" fill="#257DCC"/>
<path d="M2330 4.99999H2335V9.99999H2330V4.99999Z" fill="#257DCC"/>
<path d="M2820 4.99999H2825V9.99999H2820V4.99999Z" fill="#257DCC"/>
<path d="M2935 4.99999H2940V9.99999H2935V4.99999Z" fill="#257DCC"/>
<path d="M2945 4.99999H2950V9.99999H2945V4.99999Z" fill="#257DCC"/>
<path d="M2965 4.99999H2970V9.99999H2965V4.99999Z" fill="#257DCC"/>
<path d="M2980 4.99999H2985V9.99999H2980V4.99999Z" fill="#257DCC"/>
<path d="M3245 -7.62939e-06H3250V9.99999H3245V-7.62939e-06Z" fill="#257DCC"/>
<path d="M1380 4.99999H1385V9.99999H1380V4.99999Z" fill="#9BB95A"/>
<path d="M1555 4.99999H1560V9.99999H1555V4.99999Z" fill="#9BB95A"/>
<path d="M20.0001 -7.51795e-06H25.0001V9.99999H20.0001V-7.51795e-06Z" fill="white"/>
<path d="M30.0001 -7.51795e-06H35.0001V9.99999H30.0001V-7.51795e-06Z" fill="white"/>
<path d="M35 -7.51795e-06H40V9.99999H35V-7.51795e-06Z" fill="white"/>
<path d="M40 -7.51795e-06H45V9.99999H40V-7.51795e-06Z" fill="white"/>
<path d="M55 -7.51795e-06H60V9.99999H55V-7.51795e-06Z" fill="white"/>
<path d="M60 -7.51795e-06H65V9.99999H60V-7.51795e-06Z" fill="white"/>
<path d="M65 -7.51795e-06H70V9.99999H65V-7.51795e-06Z" fill="white"/>
<path d="M75.0001 -7.51795e-06H80.0001V9.99999H75.0001V-7.51795e-06Z" fill="white"/>
<path d="M80 -7.51795e-06H85V9.99999H80V-7.51795e-06Z" fill="white"/>
<path d="M740 -7.51795e-06H745V9.99999H740V-7.51795e-06Z" fill="white"/>
<path d="M1090 -7.51795e-06H1095V9.99999H1090V-7.51795e-06Z" fill="white"/>
<path d="M1440 -7.51795e-06H1445V9.99999H1440V-7.51795e-06Z" fill="white"/>
<path d="M1715 -7.51795e-06H1720V9.99999H1715V-7.51795e-06Z" fill="white"/>
<path d="M1810 -7.51795e-06H1815V9.99999H1810V-7.51795e-06Z" fill="white"/>
<path d="M1930 -7.51795e-06H1935V9.99999H1930V-7.51795e-06Z" fill="white"/>
<path d="M2345 -7.51795e-06H2350V9.99999H2345V-7.51795e-06Z" fill="white"/>
<path d="M2350 -7.51795e-06H2355V9.99999H2350V-7.51795e-06Z" fill="white"/>
<path d="M2390 -7.51795e-06H2395V9.99999H2390V-7.51795e-06Z" fill="white"/>
<path d="M2835 -7.51795e-06H2840V9.99999H2835V-7.51795e-06Z" fill="white"/>
<path d="M2840 -7.51795e-06H2845V9.99999H2840V-7.51795e-06Z" fill="white"/>
<path d="M2975 -7.51795e-06H2980V9.99999H2975V-7.51795e-06Z" fill="white"/>
<path d="M3035 -7.51795e-06H3040V9.99999H3035V-7.51795e-06Z" fill="white"/>
<path d="M3045 -7.51795e-06H3050V9.99999H3045V-7.51795e-06Z" fill="white"/>
<path d="M3050 -7.51795e-06H3055V9.99999H3050V-7.51795e-06Z" fill="white"/>
<path d="M3080 -7.51795e-06H3085V9.99999H3080V-7.51795e-06Z" fill="white"/>
<path d="M3180 -7.51795e-06H3185V9.99999H3180V-7.51795e-06Z" fill="white"/>
<path d="M3185 -7.51795e-06H3190V9.99999H3185V-7.51795e-06Z" fill="white"/>
<path d="M3225 -7.51795e-06H3230V9.99999H3225V-7.51795e-06Z" fill="white"/>
<path d="M3230 -7.51795e-06H3235V9.99999H3230V-7.51795e-06Z" fill="white"/>
<path d="M3265 -7.51795e-06H3270V9.99999H3265V-7.51795e-06Z" fill="white"/>
<path d="M3270 -7.51795e-06H3275V9.99999H3270V-7.51795e-06Z" fill="white"/>
<path d="M3300 -7.51795e-06H3305V9.99999H3300V-7.51795e-06Z" fill="white"/>
<path d="M3305 -7.51795e-06H3310V9.99999H3305V-7.51795e-06Z" fill="white"/>
<path d="M3320 -7.51795e-06H3325V9.99999H3320V-7.51795e-06Z" fill="white"/>
<path d="M3325 -7.51795e-06H3330V9.99999H3325V-7.51795e-06Z" fill="white"/>
<path d="M3330 -7.51795e-06H3335V9.99999H3330V-7.51795e-06Z" fill="white"/>
<path d="M3360 -7.51795e-06H3365V9.99999H3360V-7.51795e-06Z" fill="white"/>
<path d="M3365 -7.51795e-06H3370V9.99999H3365V-7.51795e-06Z" fill="white"/>
<path d="M3395 -7.51795e-06H3400V9.99999H3395V-7.51795e-06Z" fill="white"/>
<path d="M3400 -7.51795e-06H3405V9.99999H3400V-7.51795e-06Z" fill="white"/>
<path d="M3425 -7.51795e-06H3430V9.99999H3425V-7.51795e-06Z" fill="white"/>
<path d="M3430 -7.51795e-06H3435V9.99999H3430V-7.51795e-06Z" fill="white"/>
<path d="M3435 -7.51795e-06H3440V9.99999H3435V-7.51795e-06Z" fill="white"/>
<path d="M3445 -7.51795e-06H3450V9.99999H3445V-7.51795e-06Z" fill="white"/>
<path d="M3460 -7.51795e-06H3465V9.99999H3460V-7.51795e-06Z" fill="white"/>
<path d="M3470 -7.51795e-06H3475V9.99999H3470V-7.51795e-06Z" fill="white"/>
<path d="M3480 -7.51795e-06H3485V9.99999H3480V-7.51795e-06Z" fill="white"/>
<path d="M3495 -7.51795e-06H3500V9.99999H3495V-7.51795e-06Z" fill="white"/>
<path d="M3505 -7.51795e-06H3510V9.99999H3505V-7.51795e-06Z" fill="white"/>
<path d="M3510 -7.51795e-06H3515V9.99999H3510V-7.51795e-06Z" fill="white"/>
<path d="M3540 -7.51795e-06H3545V9.99999H3540V-7.51795e-06Z" fill="white"/>
<path d="M3575 -7.51795e-06H3580V9.99999H3575V-7.51795e-06Z" fill="white"/>
<path d="M3585 -7.51795e-06H3590V9.99999H3585V-7.51795e-06Z" fill="white"/>
<path d="M3595 -7.51795e-06H3600V9.99999H3595V-7.51795e-06Z" fill="white"/>
</svg>
