<svg width="3650" height="5" viewBox="0 0 3650 5" fill="none" xmlns="http://www.w3.org/2000/svg">
<path d="M270 1.15169e-06H275V0.714287H270V1.15169e-06Z" fill="#FF3D00"/>
<path d="M275 2.55242e-06H280V0.833336H275V2.55242e-06Z" fill="#FF3D00"/>
<path d="M280 1.39303e-08H285V1.25H280V1.39303e-08Z" fill="#FF3D00"/>
<path d="M285 -1.39645e-07H290V1H285V-1.39645e-07Z" fill="#FF3D00"/>
<path d="M290 -1.39645e-07H295V1H290V-1.39645e-07Z" fill="#FF3D00"/>
<path d="M295 2.55242e-06H300V0.833336H295V2.55242e-06Z" fill="#FF3D00"/>
<path d="M300 1.15169e-06H305V0.714287H300V1.15169e-06Z" fill="#FF3D00"/>
<path d="M305 2.55242e-06H310V0.833336H305V2.55242e-06Z" fill="#FF3D00"/>
<path d="M310 2.55242e-06H315V0.833336H310V2.55242e-06Z" fill="#FF3D00"/>
<path d="M315 2.55242e-06H320V0.833336H315V2.55242e-06Z" fill="#FF3D00"/>
<path d="M320 -2.52456e-06H325V1.66666H320V-2.52456e-06Z" fill="#FF3D00"/>
<path d="M325 2.55242e-06H330V0.833336H325V2.55242e-06Z" fill="#FF3D00"/>
<path d="M330 1.39303e-08H335V1.25H330V1.39303e-08Z" fill="#FF3D00"/>
<path d="M335 -1.39645e-07H340V1H335V-1.39645e-07Z" fill="#FF3D00"/>
<path d="M345 1.39303e-08H350V1.25H345V1.39303e-08Z" fill="#FF3D00"/>
<path d="M355 1.39303e-08H360V1.25H355V1.39303e-08Z" fill="#FF3D00"/>
<path d="M365 -2.52456e-06H370V1.66666H365V-2.52456e-06Z" fill="#FF3D00"/>
<path d="M375 -1.39645e-07H380V1H375V-1.39645e-07Z" fill="#FF3D00"/>
<path d="M385 1.39303e-08H390V1.25H385V1.39303e-08Z" fill="#FF3D00"/>
<path d="M400 -2.52456e-06H405V1.66666H400V-2.52456e-06Z" fill="#FF3D00"/>
<path d="M410 -1.39645e-07H415V1H410V-1.39645e-07Z" fill="#FF3D00"/>
<path d="M435 -1.39645e-07H440V1H435V-1.39645e-07Z" fill="#FF3D00"/>
<path d="M465 1.39303e-08H470V1.25H465V1.39303e-08Z" fill="#FF3D00"/>
<path d="M500 -2.52456e-06H505V1.66666H500V-2.52456e-06Z" fill="#FF3D00"/>
<path d="M550 1.39303e-08H555V1.25H550V1.39303e-08Z" fill="#FF3D00"/>
<path d="M750 -2.52456e-06H755V1.66666H750V-2.52456e-06Z" fill="#FF3D00"/>
<path d="M1110 2.78606e-08H1115V2.5H1110V2.78606e-08Z" fill="#FF3D00"/>
<path d="M1335 2.78606e-08H1340V2.5H1335V2.78606e-08Z" fill="#FF3D00"/>
<path d="M1340 2.78606e-08H1345V2.5H1340V2.78606e-08Z" fill="#FF3D00"/>
<path d="M1350 -2.52456e-06H1355V1.66666H1350V-2.52456e-06Z" fill="#FF3D00"/>
<path d="M1425 -2.52456e-06H1430V1.66666H1425V-2.52456e-06Z" fill="#FF3D00"/>
<path d="M2095 -2.52456e-06H2100V1.66666H2095V-2.52456e-06Z" fill="#FF3D00"/>
<path d="M225 1.39303e-08H230V1.25H225V1.39303e-08Z" fill="#4ADADA"/>
<path d="M270 0.714288H275V1.42857H270V0.714288Z" fill="#4ADADA"/>
<path d="M275 0.833331H280V1.66666H275V0.833331Z" fill="#4ADADA"/>
<path d="M285 1H290V2H285V1Z" fill="#4ADADA"/>
<path d="M290 1H295V2H290V1Z" fill="#4ADADA"/>
<path d="M295 0.833331H300V1.66666H295V0.833331Z" fill="#4ADADA"/>
<path d="M300 0.714288H305V1.42857H300V0.714288Z" fill="#4ADADA"/>
<path d="M305 0.833331H310V1.66666H305V0.833331Z" fill="#4ADADA"/>
<path d="M310 0.833331H315V1.66666H310V0.833331Z" fill="#4ADADA"/>
<path d="M315 0.833331H320V1.66666H315V0.833331Z" fill="#4ADADA"/>
<path d="M325 0.833331H330V1.66666H325V0.833331Z" fill="#4ADADA"/>
<path d="M335 1H340V2H335V1Z" fill="#4ADADA"/>
<path d="M340 1.39303e-08H345V1.25H340V1.39303e-08Z" fill="#4ADADA"/>
<path d="M375 1H380V2H375V1Z" fill="#4ADADA"/>
<path d="M390 2.78606e-08H395V2.5H390V2.78606e-08Z" fill="#4ADADA"/>
<path d="M405 -2.52456e-06H410V1.66666H405V-2.52456e-06Z" fill="#4ADADA"/>
<path d="M410 1H415V2H410V1Z" fill="#4ADADA"/>
<path d="M435 1H440V2H435V1Z" fill="#4ADADA"/>
<path d="M465 1.25H470V2.5H465V1.25Z" fill="#4ADADA"/>
<path d="M545 -2.52456e-06H550V1.66666H545V-2.52456e-06Z" fill="#4ADADA"/>
<path d="M800 -2.52456e-06H805V1.66666H800V-2.52456e-06Z" fill="#4ADADA"/>
<path d="M1425 1.66667H1430V3.33334H1425V1.66667Z" fill="#4ADADA"/>
<path d="M1495 2.78606e-08H1500V2.5H1495V2.78606e-08Z" fill="#4ADADA"/>
<path d="M2845 2.78606e-08H2850V2.5H2845V2.78606e-08Z" fill="#4ADADA"/>
<path d="M3150 -2.52456e-06H3155V1.66666H3150V-2.52456e-06Z" fill="#4ADADA"/>
<path d="M120 2.78606e-08H125V2.5H120V2.78606e-08Z" fill="#FF984D"/>
<path d="M125 2.78606e-08H130V2.5H125V2.78606e-08Z" fill="#FF984D"/>
<path d="M150 2.78606e-08H155V2.5H150V2.78606e-08Z" fill="#FF984D"/>
<path d="M155 2.78606e-08H160V2.5H155V2.78606e-08Z" fill="#FF984D"/>
<path d="M160 2.78606e-08H165V2.5H160V2.78606e-08Z" fill="#FF984D"/>
<path d="M165 2.78606e-08H170V2.5H165V2.78606e-08Z" fill="#FF984D"/>
<path d="M200 2.78606e-08H205V2.5H200V2.78606e-08Z" fill="#FF984D"/>
<path d="M210 2.78606e-08H215V2.5H210V2.78606e-08Z" fill="#FF984D"/>
<path d="M220 2.78606e-08H225V2.5H220V2.78606e-08Z" fill="#FF984D"/>
<path d="M225 1.25H230V2.5H225V1.25Z" fill="#FF984D"/>
<path d="M230 2.78606e-08H235V2.5H230V2.78606e-08Z" fill="#FF984D"/>
<path d="M235 -2.52456e-06H240V1.66666H235V-2.52456e-06Z" fill="#FF984D"/>
<path d="M240 2.78606e-08H245V2.5H240V2.78606e-08Z" fill="#FF984D"/>
<path d="M255 2.78606e-08H260V2.5H255V2.78606e-08Z" fill="#FF984D"/>
<path d="M260 1.39303e-08H265V1.25H260V1.39303e-08Z" fill="#FF984D"/>
<path d="M265 -2.52456e-06H270V1.66666H265V-2.52456e-06Z" fill="#FF984D"/>
<path d="M270 1.42857H275V2.14286H270V1.42857Z" fill="#FF984D"/>
<path d="M275 1.66667H280V2.5H275V1.66667Z" fill="#FF984D"/>
<path d="M280 1.25H285V2.5H280V1.25Z" fill="#FF984D"/>
<path d="M285 2H290V3H285V2Z" fill="#FF984D"/>
<path d="M290 2H295V3H290V2Z" fill="#FF984D"/>
<path d="M295 1.66667H300V2.5H295V1.66667Z" fill="#FF984D"/>
<path d="M300 1.42857H305V2.14286H300V1.42857Z" fill="#FF984D"/>
<path d="M305 1.66667H310V2.5H305V1.66667Z" fill="#FF984D"/>
<path d="M310 1.66667H315V2.5H310V1.66667Z" fill="#FF984D"/>
<path d="M315 1.66667H320V2.5H315V1.66667Z" fill="#FF984D"/>
<path d="M320 1.66667H325V3.33334H320V1.66667Z" fill="#FF984D"/>
<path d="M325 1.66667H330V2.5H325V1.66667Z" fill="#FF984D"/>
<path d="M330 1.25H335V2.5H330V1.25Z" fill="#FF984D"/>
<path d="M335 2H340V3H335V2Z" fill="#FF984D"/>
<path d="M340 1.25H345V2.5H340V1.25Z" fill="#FF984D"/>
<path d="M345 1.25H350V2.5H345V1.25Z" fill="#FF984D"/>
<path d="M350 -2.52456e-06H355V1.66666H350V-2.52456e-06Z" fill="#FF984D"/>
<path d="M355 1.25H360V2.5H355V1.25Z" fill="#FF984D"/>
<path d="M360 2.78606e-08H365V2.5H360V2.78606e-08Z" fill="#FF984D"/>
<path d="M365 1.66667H370V3.33334H365V1.66667Z" fill="#FF984D"/>
<path d="M370 1.39303e-08H375V1.25H370V1.39303e-08Z" fill="#FF984D"/>
<path d="M375 2H380V3H375V2Z" fill="#FF984D"/>
<path d="M380 2.78606e-08H385V2.5H380V2.78606e-08Z" fill="#FF984D"/>
<path d="M385 1.25H390V2.5H385V1.25Z" fill="#FF984D"/>
<path d="M395 -2.52456e-06H400V1.66666H395V-2.52456e-06Z" fill="#FF984D"/>
<path d="M405 1.66667H410V3.33334H405V1.66667Z" fill="#FF984D"/>
<path d="M410 2H415V3H410V2Z" fill="#FF984D"/>
<path d="M415 -2.52456e-06H420V1.66666H415V-2.52456e-06Z" fill="#FF984D"/>
<path d="M420 -2.52456e-06H425V1.66666H420V-2.52456e-06Z" fill="#FF984D"/>
<path d="M425 2.78606e-08H430V2.5H425V2.78606e-08Z" fill="#FF984D"/>
<path d="M430 2.78606e-08H435V2.5H430V2.78606e-08Z" fill="#FF984D"/>
<path d="M435 2H440V3H435V2Z" fill="#FF984D"/>
<path d="M440 -2.52456e-06H445V1.66666H440V-2.52456e-06Z" fill="#FF984D"/>
<path d="M445 -2.52456e-06H450V1.66666H445V-2.52456e-06Z" fill="#FF984D"/>
<path d="M450 -2.52456e-06H455V1.66666H450V-2.52456e-06Z" fill="#FF984D"/>
<path d="M455 -2.52456e-06H460V1.66666H455V-2.52456e-06Z" fill="#FF984D"/>
<path d="M460 2.78606e-08H465V2.5H460V2.78606e-08Z" fill="#FF984D"/>
<path d="M465 2.5H470V3.75H465V2.5Z" fill="#FF984D"/>
<path d="M470 -2.52456e-06H475V1.66666H470V-2.52456e-06Z" fill="#FF984D"/>
<path d="M475 -2.52456e-06H480V1.66666H475V-2.52456e-06Z" fill="#FF984D"/>
<path d="M480 -2.52456e-06H485V1.66666H480V-2.52456e-06Z" fill="#FF984D"/>
<path d="M485 2.78606e-08H490V2.5H485V2.78606e-08Z" fill="#FF984D"/>
<path d="M490 2.78606e-08H495V2.5H490V2.78606e-08Z" fill="#FF984D"/>
<path d="M495 2.78606e-08H500V2.5H495V2.78606e-08Z" fill="#FF984D"/>
<path d="M500 1.66667H505V3.33334H500V1.66667Z" fill="#FF984D"/>
<path d="M505 2.78606e-08H510V2.5H505V2.78606e-08Z" fill="#FF984D"/>
<path d="M515 2.78606e-08H520V2.5H515V2.78606e-08Z" fill="#FF984D"/>
<path d="M535 2.78606e-08H540V2.5H535V2.78606e-08Z" fill="#FF984D"/>
<path d="M540 2.78606e-08H545V2.5H540V2.78606e-08Z" fill="#FF984D"/>
<path d="M545 1.66667H550V3.33334H545V1.66667Z" fill="#FF984D"/>
<path d="M550 1.25H555V2.5H550V1.25Z" fill="#FF984D"/>
<path d="M580 2.78606e-08H585V2.5H580V2.78606e-08Z" fill="#FF984D"/>
<path d="M585 2.78606e-08H590V2.5H585V2.78606e-08Z" fill="#FF984D"/>
<path d="M590 -2.52456e-06H595V1.66666H590V-2.52456e-06Z" fill="#FF984D"/>
<path d="M605 2.78606e-08H610V2.5H605V2.78606e-08Z" fill="#FF984D"/>
<path d="M610 -2.52456e-06H615V1.66666H610V-2.52456e-06Z" fill="#FF984D"/>
<path d="M620 2.78606e-08H625V2.5H620V2.78606e-08Z" fill="#FF984D"/>
<path d="M625 2.78606e-08H630V2.5H625V2.78606e-08Z" fill="#FF984D"/>
<path d="M640 2.78606e-08H645V2.5H640V2.78606e-08Z" fill="#FF984D"/>
<path d="M675 2.78606e-08H680V2.5H675V2.78606e-08Z" fill="#FF984D"/>
<path d="M685 2.78606e-08H690V2.5H685V2.78606e-08Z" fill="#FF984D"/>
<path d="M690 2.78606e-08H695V2.5H690V2.78606e-08Z" fill="#FF984D"/>
<path d="M715 2.78606e-08H720V2.5H715V2.78606e-08Z" fill="#FF984D"/>
<path d="M720 -2.52456e-06H725V1.66666H720V-2.52456e-06Z" fill="#FF984D"/>
<path d="M725 2.78606e-08H730V2.5H725V2.78606e-08Z" fill="#FF984D"/>
<path d="M730 2.78606e-08H735V2.5H730V2.78606e-08Z" fill="#FF984D"/>
<path d="M735 2.78606e-08H740V2.5H735V2.78606e-08Z" fill="#FF984D"/>
<path d="M750 1.66667H755V3.33334H750V1.66667Z" fill="#FF984D"/>
<path d="M755 -2.52456e-06H760V1.66666H755V-2.52456e-06Z" fill="#FF984D"/>
<path d="M770 2.78606e-08H775V2.5H770V2.78606e-08Z" fill="#FF984D"/>
<path d="M790 2.78606e-08H795V2.5H790V2.78606e-08Z" fill="#FF984D"/>
<path d="M795 2.78606e-08H800V2.5H795V2.78606e-08Z" fill="#FF984D"/>
<path d="M800 1.66667H805V3.33334H800V1.66667Z" fill="#FF984D"/>
<path d="M820 -2.52456e-06H825V1.66666H820V-2.52456e-06Z" fill="#FF984D"/>
<path d="M825 2.78606e-08H830V2.5H825V2.78606e-08Z" fill="#FF984D"/>
<path d="M830 2.78606e-08H835V2.5H830V2.78606e-08Z" fill="#FF984D"/>
<path d="M850 2.78606e-08H855V2.5H850V2.78606e-08Z" fill="#FF984D"/>
<path d="M855 -2.52456e-06H860V1.66666H855V-2.52456e-06Z" fill="#FF984D"/>
<path d="M860 2.78606e-08H865V2.5H860V2.78606e-08Z" fill="#FF984D"/>
<path d="M870 2.78606e-08H875V2.5H870V2.78606e-08Z" fill="#FF984D"/>
<path d="M885 2.78606e-08H890V2.5H885V2.78606e-08Z" fill="#FF984D"/>
<path d="M890 -2.52456e-06H895V1.66666H890V-2.52456e-06Z" fill="#FF984D"/>
<path d="M895 -2.52456e-06H900V1.66666H895V-2.52456e-06Z" fill="#FF984D"/>
<path d="M900 -2.52456e-06H905V1.66666H900V-2.52456e-06Z" fill="#FF984D"/>
<path d="M920 2.78606e-08H925V2.5H920V2.78606e-08Z" fill="#FF984D"/>
<path d="M955 2.78606e-08H960V2.5H955V2.78606e-08Z" fill="#FF984D"/>
<path d="M975 2.78606e-08H980V2.5H975V2.78606e-08Z" fill="#FF984D"/>
<path d="M980 2.78606e-08H985V2.5H980V2.78606e-08Z" fill="#FF984D"/>
<path d="M995 2.78606e-08H1000V2.5H995V2.78606e-08Z" fill="#FF984D"/>
<path d="M1005 2.78606e-08H1010V2.5H1005V2.78606e-08Z" fill="#FF984D"/>
<path d="M1015 2.78606e-08H1020V2.5H1015V2.78606e-08Z" fill="#FF984D"/>
<path d="M1035 2.78606e-08H1040V2.5H1035V2.78606e-08Z" fill="#FF984D"/>
<path d="M1120 2.78606e-08H1125V2.5H1120V2.78606e-08Z" fill="#FF984D"/>
<path d="M1130 2.78606e-08H1135V2.5H1130V2.78606e-08Z" fill="#FF984D"/>
<path d="M1135 -2.52456e-06H1140V1.66666H1135V-2.52456e-06Z" fill="#FF984D"/>
<path d="M1145 2.78606e-08H1150V2.5H1145V2.78606e-08Z" fill="#FF984D"/>
<path d="M1155 2.78606e-08H1160V2.5H1155V2.78606e-08Z" fill="#FF984D"/>
<path d="M1175 2.78606e-08H1180V2.5H1175V2.78606e-08Z" fill="#FF984D"/>
<path d="M1185 -2.52456e-06H1190V1.66666H1185V-2.52456e-06Z" fill="#FF984D"/>
<path d="M1205 -2.52456e-06H1210V1.66666H1205V-2.52456e-06Z" fill="#FF984D"/>
<path d="M1220 -2.52456e-06H1225V1.66666H1220V-2.52456e-06Z" fill="#FF984D"/>
<path d="M1225 2.78606e-08H1230V2.5H1225V2.78606e-08Z" fill="#FF984D"/>
<path d="M1235 -2.52456e-06H1240V1.66666H1235V-2.52456e-06Z" fill="#FF984D"/>
<path d="M1245 2.78606e-08H1250V2.5H1245V2.78606e-08Z" fill="#FF984D"/>
<path d="M1260 2.78606e-08H1265V2.5H1260V2.78606e-08Z" fill="#FF984D"/>
<path d="M1270 2.78606e-08H1275V2.5H1270V2.78606e-08Z" fill="#FF984D"/>
<path d="M1285 2.78606e-08H1290V2.5H1285V2.78606e-08Z" fill="#FF984D"/>
<path d="M1320 2.78606e-08H1325V2.5H1320V2.78606e-08Z" fill="#FF984D"/>
<path d="M1325 2.78606e-08H1330V2.5H1325V2.78606e-08Z" fill="#FF984D"/>
<path d="M1330 2.78606e-08H1335V2.5H1330V2.78606e-08Z" fill="#FF984D"/>
<path d="M1355 2.78606e-08H1360V2.5H1355V2.78606e-08Z" fill="#FF984D"/>
<path d="M1360 2.78606e-08H1365V2.5H1360V2.78606e-08Z" fill="#FF984D"/>
<path d="M1390 2.78606e-08H1395V2.5H1390V2.78606e-08Z" fill="#FF984D"/>
<path d="M1410 2.78606e-08H1415V2.5H1410V2.78606e-08Z" fill="#FF984D"/>
<path d="M1415 2.78606e-08H1420V2.5H1415V2.78606e-08Z" fill="#FF984D"/>
<path d="M1450 2.78606e-08H1455V2.5H1450V2.78606e-08Z" fill="#FF984D"/>
<path d="M1460 2.78606e-08H1465V2.5H1460V2.78606e-08Z" fill="#FF984D"/>
<path d="M1480 2.78606e-08H1485V2.5H1480V2.78606e-08Z" fill="#FF984D"/>
<path d="M1515 2.78606e-08H1520V2.5H1515V2.78606e-08Z" fill="#FF984D"/>
<path d="M1525 2.78606e-08H1530V2.5H1525V2.78606e-08Z" fill="#FF984D"/>
<path d="M1600 2.78606e-08H1605V2.5H1600V2.78606e-08Z" fill="#FF984D"/>
<path d="M1625 2.78606e-08H1630V2.5H1625V2.78606e-08Z" fill="#FF984D"/>
<path d="M1630 2.78606e-08H1635V2.5H1630V2.78606e-08Z" fill="#FF984D"/>
<path d="M1695 2.78606e-08H1700V2.5H1695V2.78606e-08Z" fill="#FF984D"/>
<path d="M1710 2.78606e-08H1715V2.5H1710V2.78606e-08Z" fill="#FF984D"/>
<path d="M1770 2.78606e-08H1775V2.5H1770V2.78606e-08Z" fill="#FF984D"/>
<path d="M1795 2.78606e-08H1800V2.5H1795V2.78606e-08Z" fill="#FF984D"/>
<path d="M1805 2.78606e-08H1810V2.5H1805V2.78606e-08Z" fill="#FF984D"/>
<path d="M1865 2.78606e-08H1870V2.5H1865V2.78606e-08Z" fill="#FF984D"/>
<path d="M1885 2.78606e-08H1890V2.5H1885V2.78606e-08Z" fill="#FF984D"/>
<path d="M1900 2.78606e-08H1905V2.5H1900V2.78606e-08Z" fill="#FF984D"/>
<path d="M2005 2.78606e-08H2010V2.5H2005V2.78606e-08Z" fill="#FF984D"/>
<path d="M2010 2.78606e-08H2015V2.5H2010V2.78606e-08Z" fill="#FF984D"/>
<path d="M2045 2.78606e-08H2050V2.5H2045V2.78606e-08Z" fill="#FF984D"/>
<path d="M2050 2.78606e-08H2055V2.5H2050V2.78606e-08Z" fill="#FF984D"/>
<path d="M2060 2.78606e-08H2065V2.5H2060V2.78606e-08Z" fill="#FF984D"/>
<path d="M2085 2.78606e-08H2090V2.5H2085V2.78606e-08Z" fill="#FF984D"/>
<path d="M2090 2.78606e-08H2095V2.5H2090V2.78606e-08Z" fill="#FF984D"/>
<path d="M2095 1.66667H2100V3.33334H2095V1.66667Z" fill="#FF984D"/>
<path d="M2100 -2.52456e-06H2105V1.66666H2100V-2.52456e-06Z" fill="#FF984D"/>
<path d="M2120 2.78606e-08H2125V2.5H2120V2.78606e-08Z" fill="#FF984D"/>
<path d="M2125 2.78606e-08H2130V2.5H2125V2.78606e-08Z" fill="#FF984D"/>
<path d="M2170 2.78606e-08H2175V2.5H2170V2.78606e-08Z" fill="#FF984D"/>
<path d="M2200 2.78606e-08H2205V2.5H2200V2.78606e-08Z" fill="#FF984D"/>
<path d="M2215 2.78606e-08H2220V2.5H2215V2.78606e-08Z" fill="#FF984D"/>
<path d="M2230 2.78606e-08H2235V2.5H2230V2.78606e-08Z" fill="#FF984D"/>
<path d="M2235 2.78606e-08H2240V2.5H2235V2.78606e-08Z" fill="#FF984D"/>
<path d="M2290 2.78606e-08H2295V2.5H2290V2.78606e-08Z" fill="#FF984D"/>
<path d="M2295 2.78606e-08H2300V2.5H2295V2.78606e-08Z" fill="#FF984D"/>
<path d="M2450 2.78606e-08H2455V2.5H2450V2.78606e-08Z" fill="#FF984D"/>
<path d="M2480 2.78606e-08H2485V2.5H2480V2.78606e-08Z" fill="#FF984D"/>
<path d="M2485 2.78606e-08H2490V2.5H2485V2.78606e-08Z" fill="#FF984D"/>
<path d="M2490 2.78606e-08H2495V2.5H2490V2.78606e-08Z" fill="#FF984D"/>
<path d="M2675 2.78606e-08H2680V2.5H2675V2.78606e-08Z" fill="#FF984D"/>
<path d="M2680 2.78606e-08H2685V2.5H2680V2.78606e-08Z" fill="#FF984D"/>
<path d="M2685 2.78606e-08H2690V2.5H2685V2.78606e-08Z" fill="#FF984D"/>
<path d="M2700 2.78606e-08H2705V2.5H2700V2.78606e-08Z" fill="#FF984D"/>
<path d="M2705 2.78606e-08H2710V2.5H2705V2.78606e-08Z" fill="#FF984D"/>
<path d="M2715 2.78606e-08H2720V2.5H2715V2.78606e-08Z" fill="#FF984D"/>
<path d="M2785 2.78606e-08H2790V2.5H2785V2.78606e-08Z" fill="#FF984D"/>
<path d="M2810 2.78606e-08H2815V2.5H2810V2.78606e-08Z" fill="#FF984D"/>
<path d="M2815 2.78606e-08H2820V2.5H2815V2.78606e-08Z" fill="#FF984D"/>
<path d="M2860 2.78606e-08H2865V2.5H2860V2.78606e-08Z" fill="#FF984D"/>
<path d="M2895 2.78606e-08H2900V2.5H2895V2.78606e-08Z" fill="#FF984D"/>
<path d="M2915 2.78606e-08H2920V2.5H2915V2.78606e-08Z" fill="#FF984D"/>
<path d="M2920 2.78606e-08H2925V2.5H2920V2.78606e-08Z" fill="#FF984D"/>
<path d="M2950 -7.57367e-06H2955V4.99999H2950V-7.57367e-06Z" fill="#FF984D"/>
<path d="M2960 -7.57367e-06H2965V4.99999H2960V-7.57367e-06Z" fill="#FF984D"/>
<path d="M3010 2.78606e-08H3015V2.5H3010V2.78606e-08Z" fill="#FF984D"/>
<path d="M3055 2.78606e-08H3060V2.5H3055V2.78606e-08Z" fill="#FF984D"/>
<path d="M3095 2.78606e-08H3100V2.5H3095V2.78606e-08Z" fill="#FF984D"/>
<path d="M3150 1.66667H3155V3.33334H3150V1.66667Z" fill="#FF984D"/>
<path d="M3165 2.78606e-08H3170V2.5H3165V2.78606e-08Z" fill="#FF984D"/>
<path d="M3285 2.78606e-08H3290V2.5H3285V2.78606e-08Z" fill="#FF984D"/>
<path d="M15 5.57212e-08H20V5H15V5.57212e-08Z" fill="#BD4553"/>
<path d="M25 -7.57367e-06H30V4.99999H25V-7.57367e-06Z" fill="#BD4553"/>
<path d="M45 -7.57367e-06H50V4.99999H45V-7.57367e-06Z" fill="#BD4553"/>
<path d="M50 -7.57367e-06H55V4.99999H50V-7.57367e-06Z" fill="#BD4553"/>
<path d="M70 -7.57367e-06H75V4.99999H70V-7.57367e-06Z" fill="#BD4553"/>
<path d="M85.0001 -7.57367e-06H90.0001V4.99999H85.0001V-7.57367e-06Z" fill="#BD4553"/>
<path d="M90 -7.57367e-06H95V4.99999H90V-7.57367e-06Z" fill="#BD4553"/>
<path d="M95 -7.57367e-06H100V4.99999H95V-7.57367e-06Z" fill="#BD4553"/>
<path d="M100 -7.57367e-06H105V4.99999H100V-7.57367e-06Z" fill="#BD4553"/>
<path d="M105 -7.57367e-06H110V4.99999H105V-7.57367e-06Z" fill="#BD4553"/>
<path d="M110 -7.57367e-06H115V4.99999H110V-7.57367e-06Z" fill="#BD4553"/>
<path d="M115 -7.57367e-06H120V4.99999H115V-7.57367e-06Z" fill="#BD4553"/>
<path d="M120 2.49999H125V4.99999H120V2.49999Z" fill="#BD4553"/>
<path d="M125 2.49999H130V4.99999H125V2.49999Z" fill="#BD4553"/>
<path d="M130 -7.57367e-06H135V4.99999H130V-7.57367e-06Z" fill="#BD4553"/>
<path d="M135 -7.57367e-06H140V4.99999H135V-7.57367e-06Z" fill="#BD4553"/>
<path d="M140 -7.57367e-06H145V4.99999H140V-7.57367e-06Z" fill="#BD4553"/>
<path d="M145 -7.57367e-06H150V4.99999H145V-7.57367e-06Z" fill="#BD4553"/>
<path d="M150 2.49999H155V4.99999H150V2.49999Z" fill="#BD4553"/>
<path d="M155 2.49999H160V4.99999H155V2.49999Z" fill="#BD4553"/>
<path d="M160 2.49999H165V4.99999H160V2.49999Z" fill="#BD4553"/>
<path d="M165 2.49999H170V4.99999H165V2.49999Z" fill="#BD4553"/>
<path d="M170 -7.57367e-06H175V4.99999H170V-7.57367e-06Z" fill="#BD4553"/>
<path d="M175 -7.57367e-06H180V4.99999H175V-7.57367e-06Z" fill="#BD4553"/>
<path d="M180 -7.57367e-06H185V4.99999H180V-7.57367e-06Z" fill="#BD4553"/>
<path d="M185 -7.57367e-06H190V4.99999H185V-7.57367e-06Z" fill="#BD4553"/>
<path d="M190 -7.57367e-06H195V4.99999H190V-7.57367e-06Z" fill="#BD4553"/>
<path d="M195 -7.57367e-06H200V4.99999H195V-7.57367e-06Z" fill="#BD4553"/>
<path d="M200 2.49999H205V4.99999H200V2.49999Z" fill="#BD4553"/>
<path d="M205 -7.57367e-06H210V4.99999H205V-7.57367e-06Z" fill="#BD4553"/>
<path d="M210 2.49999H215V4.99999H210V2.49999Z" fill="#BD4553"/>
<path d="M215 -7.57367e-06H220V4.99999H215V-7.57367e-06Z" fill="#BD4553"/>
<path d="M220 2.49999H225V4.99999H220V2.49999Z" fill="#BD4553"/>
<path d="M225 2.5H230V3.75H225V2.5Z" fill="#BD4553"/>
<path d="M230 2.49999H235V4.99999H230V2.49999Z" fill="#BD4553"/>
<path d="M235 1.66667H240V3.33334H235V1.66667Z" fill="#BD4553"/>
<path d="M240 2.49999H245V4.99999H240V2.49999Z" fill="#BD4553"/>
<path d="M245 -7.57367e-06H250V4.99999H245V-7.57367e-06Z" fill="#BD4553"/>
<path d="M250 -7.57367e-06H255V4.99999H250V-7.57367e-06Z" fill="#BD4553"/>
<path d="M255 2.49999H260V4.99999H255V2.49999Z" fill="#BD4553"/>
<path d="M260 1.25H265V2.5H260V1.25Z" fill="#BD4553"/>
<path d="M265 1.66667H270V3.33334H265V1.66667Z" fill="#BD4553"/>
<path d="M270 2.14285H275V2.85714H270V2.14285Z" fill="#BD4553"/>
<path d="M275 2.5H280V3.33334H275V2.5Z" fill="#BD4553"/>
<path d="M280 2.5H285V3.75H280V2.5Z" fill="#BD4553"/>
<path d="M285 3H290V4H285V3Z" fill="#BD4553"/>
<path d="M290 3H295V4H290V3Z" fill="#BD4553"/>
<path d="M295 2.5H300V3.33334H295V2.5Z" fill="#BD4553"/>
<path d="M300 2.14285H305V2.85714H300V2.14285Z" fill="#BD4553"/>
<path d="M305 2.5H310V3.33334H305V2.5Z" fill="#BD4553"/>
<path d="M310 2.5H315V3.33334H310V2.5Z" fill="#BD4553"/>
<path d="M315 2.5H320V3.33334H315V2.5Z" fill="#BD4553"/>
<path d="M320 3.33333H325V4.99999H320V3.33333Z" fill="#BD4553"/>
<path d="M325 2.5H330V3.33334H325V2.5Z" fill="#BD4553"/>
<path d="M330 2.5H335V3.75H330V2.5Z" fill="#BD4553"/>
<path d="M335 3H340V4H335V3Z" fill="#BD4553"/>
<path d="M340 2.5H345V3.75H340V2.5Z" fill="#BD4553"/>
<path d="M345 2.5H350V3.75H345V2.5Z" fill="#BD4553"/>
<path d="M350 1.66667H355V3.33334H350V1.66667Z" fill="#BD4553"/>
<path d="M355 2.5H360V3.75H355V2.5Z" fill="#BD4553"/>
<path d="M360 2.49999H365V4.99999H360V2.49999Z" fill="#BD4553"/>
<path d="M365 3.33333H370V4.99999H365V3.33333Z" fill="#BD4553"/>
<path d="M370 1.25H375V2.5H370V1.25Z" fill="#BD4553"/>
<path d="M375 3H380V4H375V3Z" fill="#BD4553"/>
<path d="M380 2.49999H385V4.99999H380V2.49999Z" fill="#BD4553"/>
<path d="M385 2.5H390V3.75H385V2.5Z" fill="#BD4553"/>
<path d="M390 2.49999H395V4.99999H390V2.49999Z" fill="#BD4553"/>
<path d="M395 1.66667H400V3.33334H395V1.66667Z" fill="#BD4553"/>
<path d="M400 1.66667H405V3.33334H400V1.66667Z" fill="#BD4553"/>
<path d="M405 3.33333H410V4.99999H405V3.33333Z" fill="#BD4553"/>
<path d="M410 3H415V4H410V3Z" fill="#BD4553"/>
<path d="M415 1.66667H420V3.33334H415V1.66667Z" fill="#BD4553"/>
<path d="M420 1.66667H425V3.33334H420V1.66667Z" fill="#BD4553"/>
<path d="M425 2.49999H430V4.99999H425V2.49999Z" fill="#BD4553"/>
<path d="M430 2.49999H435V4.99999H430V2.49999Z" fill="#BD4553"/>
<path d="M435 3H440V4H435V3Z" fill="#BD4553"/>
<path d="M440 1.66667H445V3.33334H440V1.66667Z" fill="#BD4553"/>
<path d="M445 1.66667H450V3.33334H445V1.66667Z" fill="#BD4553"/>
<path d="M450 1.66667H455V3.33334H450V1.66667Z" fill="#BD4553"/>
<path d="M455 1.66667H460V3.33334H455V1.66667Z" fill="#BD4553"/>
<path d="M460 2.49999H465V4.99999H460V2.49999Z" fill="#BD4553"/>
<path d="M465 3.74999H470V4.99999H465V3.74999Z" fill="#BD4553"/>
<path d="M470 1.66667H475V3.33334H470V1.66667Z" fill="#BD4553"/>
<path d="M475 1.66667H480V3.33334H475V1.66667Z" fill="#BD4553"/>
<path d="M480 1.66667H485V3.33334H480V1.66667Z" fill="#BD4553"/>
<path d="M485 2.49999H490V4.99999H485V2.49999Z" fill="#BD4553"/>
<path d="M490 2.49999H495V4.99999H490V2.49999Z" fill="#BD4553"/>
<path d="M495 2.49999H500V4.99999H495V2.49999Z" fill="#BD4553"/>
<path d="M500 3.33333H505V4.99999H500V3.33333Z" fill="#BD4553"/>
<path d="M505 2.49999H510V4.99999H505V2.49999Z" fill="#BD4553"/>
<path d="M510 -7.57367e-06H515V4.99999H510V-7.57367e-06Z" fill="#BD4553"/>
<path d="M515 2.49999H520V4.99999H515V2.49999Z" fill="#BD4553"/>
<path d="M520 -7.57367e-06H525V4.99999H520V-7.57367e-06Z" fill="#BD4553"/>
<path d="M525 -7.57367e-06H530V4.99999H525V-7.57367e-06Z" fill="#BD4553"/>
<path d="M530 2.78606e-08H535V2.5H530V2.78606e-08Z" fill="#BD4553"/>
<path d="M535 2.49999H540V4.99999H535V2.49999Z" fill="#BD4553"/>
<path d="M540 2.49999H545V4.99999H540V2.49999Z" fill="#BD4553"/>
<path d="M545 3.33333H550V4.99999H545V3.33333Z" fill="#BD4553"/>
<path d="M550 2.5H555V3.75H550V2.5Z" fill="#BD4553"/>
<path d="M555 2.78606e-08H560V2.5H555V2.78606e-08Z" fill="#BD4553"/>
<path d="M560 2.78606e-08H565V2.5H560V2.78606e-08Z" fill="#BD4553"/>
<path d="M565 -7.57367e-06H570V4.99999H565V-7.57367e-06Z" fill="#BD4553"/>
<path d="M570 -7.57367e-06H575V4.99999H570V-7.57367e-06Z" fill="#BD4553"/>
<path d="M575 -7.57367e-06H580V4.99999H575V-7.57367e-06Z" fill="#BD4553"/>
<path d="M580 2.49999H585V4.99999H580V2.49999Z" fill="#BD4553"/>
<path d="M585 2.49999H590V4.99999H585V2.49999Z" fill="#BD4553"/>
<path d="M590 1.66667H595V3.33334H590V1.66667Z" fill="#BD4553"/>
<path d="M595 -7.57367e-06H600V4.99999H595V-7.57367e-06Z" fill="#BD4553"/>
<path d="M600 -7.57367e-06H605V4.99999H600V-7.57367e-06Z" fill="#BD4553"/>
<path d="M605 2.49999H610V4.99999H605V2.49999Z" fill="#BD4553"/>
<path d="M610 1.66667H615V3.33334H610V1.66667Z" fill="#BD4553"/>
<path d="M615 -7.57367e-06H620V4.99999H615V-7.57367e-06Z" fill="#BD4553"/>
<path d="M620 2.49999H625V4.99999H620V2.49999Z" fill="#BD4553"/>
<path d="M625 2.49999H630V4.99999H625V2.49999Z" fill="#BD4553"/>
<path d="M630 -7.57367e-06H635V4.99999H630V-7.57367e-06Z" fill="#BD4553"/>
<path d="M635 -7.57367e-06H640V4.99999H635V-7.57367e-06Z" fill="#BD4553"/>
<path d="M640 2.49999H645V4.99999H640V2.49999Z" fill="#BD4553"/>
<path d="M645 -7.57367e-06H650V4.99999H645V-7.57367e-06Z" fill="#BD4553"/>
<path d="M650 -7.57367e-06H655V4.99999H650V-7.57367e-06Z" fill="#BD4553"/>
<path d="M655 -7.57367e-06H660V4.99999H655V-7.57367e-06Z" fill="#BD4553"/>
<path d="M660 -7.57367e-06H665V4.99999H660V-7.57367e-06Z" fill="#BD4553"/>
<path d="M665 -7.57367e-06H670V4.99999H665V-7.57367e-06Z" fill="#BD4553"/>
<path d="M670 -7.57367e-06H675V4.99999H670V-7.57367e-06Z" fill="#BD4553"/>
<path d="M675 2.49999H680V4.99999H675V2.49999Z" fill="#BD4553"/>
<path d="M680 -7.57367e-06H685V4.99999H680V-7.57367e-06Z" fill="#BD4553"/>
<path d="M685 2.49999H690V4.99999H685V2.49999Z" fill="#BD4553"/>
<path d="M690 2.49999H695V4.99999H690V2.49999Z" fill="#BD4553"/>
<path d="M695 2.78606e-08H700V2.5H695V2.78606e-08Z" fill="#BD4553"/>
<path d="M700 -7.57367e-06H705V4.99999H700V-7.57367e-06Z" fill="#BD4553"/>
<path d="M705 -7.57367e-06H710V4.99999H705V-7.57367e-06Z" fill="#BD4553"/>
<path d="M710 -7.57367e-06H715V4.99999H710V-7.57367e-06Z" fill="#BD4553"/>
<path d="M715 2.49999H720V4.99999H715V2.49999Z" fill="#BD4553"/>
<path d="M720 1.66667H725V3.33334H720V1.66667Z" fill="#BD4553"/>
<path d="M725 2.49999H730V4.99999H725V2.49999Z" fill="#BD4553"/>
<path d="M730 2.49999H735V4.99999H730V2.49999Z" fill="#BD4553"/>
<path d="M735 2.49999H740V4.99999H735V2.49999Z" fill="#BD4553"/>
<path d="M745 -7.57367e-06H750V4.99999H745V-7.57367e-06Z" fill="#BD4553"/>
<path d="M750 3.33333H755V4.99999H750V3.33333Z" fill="#BD4553"/>
<path d="M755 1.66667H760V3.33334H755V1.66667Z" fill="#BD4553"/>
<path d="M760 -7.57367e-06H765V4.99999H760V-7.57367e-06Z" fill="#BD4553"/>
<path d="M765 -7.57367e-06H770V4.99999H765V-7.57367e-06Z" fill="#BD4553"/>
<path d="M770 2.49999H775V4.99999H770V2.49999Z" fill="#BD4553"/>
<path d="M775 -7.57367e-06H780V4.99999H775V-7.57367e-06Z" fill="#BD4553"/>
<path d="M780 2.78606e-08H785V2.5H780V2.78606e-08Z" fill="#BD4553"/>
<path d="M785 -7.57367e-06H790V4.99999H785V-7.57367e-06Z" fill="#BD4553"/>
<path d="M790 2.49999H795V4.99999H790V2.49999Z" fill="#BD4553"/>
<path d="M795 2.49999H800V4.99999H795V2.49999Z" fill="#BD4553"/>
<path d="M800 3.33333H805V4.99999H800V3.33333Z" fill="#BD4553"/>
<path d="M805 -7.57367e-06H810V4.99999H805V-7.57367e-06Z" fill="#BD4553"/>
<path d="M810 -7.57367e-06H815V4.99999H810V-7.57367e-06Z" fill="#BD4553"/>
<path d="M815 -7.57367e-06H820V4.99999H815V-7.57367e-06Z" fill="#BD4553"/>
<path d="M820 1.66667H825V3.33334H820V1.66667Z" fill="#BD4553"/>
<path d="M825 2.49999H830V4.99999H825V2.49999Z" fill="#BD4553"/>
<path d="M830 2.49999H835V4.99999H830V2.49999Z" fill="#BD4553"/>
<path d="M835 -7.57367e-06H840V4.99999H835V-7.57367e-06Z" fill="#BD4553"/>
<path d="M840 -7.57367e-06H845V4.99999H840V-7.57367e-06Z" fill="#BD4553"/>
<path d="M845 -7.57367e-06H850V4.99999H845V-7.57367e-06Z" fill="#BD4553"/>
<path d="M850 2.49999H855V4.99999H850V2.49999Z" fill="#BD4553"/>
<path d="M855 1.66667H860V3.33334H855V1.66667Z" fill="#BD4553"/>
<path d="M860 2.49999H865V4.99999H860V2.49999Z" fill="#BD4553"/>
<path d="M865 2.78606e-08H870V2.5H865V2.78606e-08Z" fill="#BD4553"/>
<path d="M870 2.49999H875V4.99999H870V2.49999Z" fill="#BD4553"/>
<path d="M875 -7.57367e-06H880V4.99999H875V-7.57367e-06Z" fill="#BD4553"/>
<path d="M880 -7.57367e-06H885V4.99999H880V-7.57367e-06Z" fill="#BD4553"/>
<path d="M885 2.49999H890V4.99999H885V2.49999Z" fill="#BD4553"/>
<path d="M890 1.66667H895V3.33334H890V1.66667Z" fill="#BD4553"/>
<path d="M895 1.66667H900V3.33334H895V1.66667Z" fill="#BD4553"/>
<path d="M900 1.66667H905V3.33334H900V1.66667Z" fill="#BD4553"/>
<path d="M905 -7.57367e-06H910V4.99999H905V-7.57367e-06Z" fill="#BD4553"/>
<path d="M910 -7.57367e-06H915V4.99999H910V-7.57367e-06Z" fill="#BD4553"/>
<path d="M915 -7.57367e-06H920V4.99999H915V-7.57367e-06Z" fill="#BD4553"/>
<path d="M920 2.49999H925V4.99999H920V2.49999Z" fill="#BD4553"/>
<path d="M925 -7.57367e-06H930V4.99999H925V-7.57367e-06Z" fill="#BD4553"/>
<path d="M930 -7.57367e-06H935V4.99999H930V-7.57367e-06Z" fill="#BD4553"/>
<path d="M935 -7.57367e-06H940V4.99999H935V-7.57367e-06Z" fill="#BD4553"/>
<path d="M940 -7.57367e-06H945V4.99999H940V-7.57367e-06Z" fill="#BD4553"/>
<path d="M945 -7.57367e-06H950V4.99999H945V-7.57367e-06Z" fill="#BD4553"/>
<path d="M950 -7.57367e-06H955V4.99999H950V-7.57367e-06Z" fill="#BD4553"/>
<path d="M955 2.49999H960V4.99999H955V2.49999Z" fill="#BD4553"/>
<path d="M960 -7.57367e-06H965V4.99999H960V-7.57367e-06Z" fill="#BD4553"/>
<path d="M965 -7.57367e-06H970V4.99999H965V-7.57367e-06Z" fill="#BD4553"/>
<path d="M970 -7.57367e-06H975V4.99999H970V-7.57367e-06Z" fill="#BD4553"/>
<path d="M975 2.49999H980V4.99999H975V2.49999Z" fill="#BD4553"/>
<path d="M980 2.49999H985V4.99999H980V2.49999Z" fill="#BD4553"/>
<path d="M985 -7.57367e-06H990V4.99999H985V-7.57367e-06Z" fill="#BD4553"/>
<path d="M990 -7.57367e-06H995V4.99999H990V-7.57367e-06Z" fill="#BD4553"/>
<path d="M995 2.49999H1000V4.99999H995V2.49999Z" fill="#BD4553"/>
<path d="M1000 -7.57367e-06H1005V4.99999H1000V-7.57367e-06Z" fill="#BD4553"/>
<path d="M1005 2.49999H1010V4.99999H1005V2.49999Z" fill="#BD4553"/>
<path d="M1010 2.78606e-08H1015V2.5H1010V2.78606e-08Z" fill="#BD4553"/>
<path d="M1015 2.49999H1020V4.99999H1015V2.49999Z" fill="#BD4553"/>
<path d="M1020 2.78606e-08H1025V2.5H1020V2.78606e-08Z" fill="#BD4553"/>
<path d="M1025 -7.57367e-06H1030V4.99999H1025V-7.57367e-06Z" fill="#BD4553"/>
<path d="M1030 -7.57367e-06H1035V4.99999H1030V-7.57367e-06Z" fill="#BD4553"/>
<path d="M1035 2.49999H1040V4.99999H1035V2.49999Z" fill="#BD4553"/>
<path d="M1040 -7.57367e-06H1045V4.99999H1040V-7.57367e-06Z" fill="#BD4553"/>
<path d="M1045 -7.57367e-06H1050V4.99999H1045V-7.57367e-06Z" fill="#BD4553"/>
<path d="M1050 -7.57367e-06H1055V4.99999H1050V-7.57367e-06Z" fill="#BD4553"/>
<path d="M1055 -7.57367e-06H1060V4.99999H1055V-7.57367e-06Z" fill="#BD4553"/>
<path d="M1060 -7.57367e-06H1065V4.99999H1060V-7.57367e-06Z" fill="#BD4553"/>
<path d="M1065 -7.57367e-06H1070V4.99999H1065V-7.57367e-06Z" fill="#BD4553"/>
<path d="M1070 -7.57367e-06H1075V4.99999H1070V-7.57367e-06Z" fill="#BD4553"/>
<path d="M1075 -7.57367e-06H1080V4.99999H1075V-7.57367e-06Z" fill="#BD4553"/>
<path d="M1080 -7.57367e-06H1085V4.99999H1080V-7.57367e-06Z" fill="#BD4553"/>
<path d="M1085 -7.57367e-06H1090V4.99999H1085V-7.57367e-06Z" fill="#BD4553"/>
<path d="M1095 -7.57367e-06H1100V4.99999H1095V-7.57367e-06Z" fill="#BD4553"/>
<path d="M1100 -7.57367e-06H1105V4.99999H1100V-7.57367e-06Z" fill="#BD4553"/>
<path d="M1105 -7.57367e-06H1110V4.99999H1105V-7.57367e-06Z" fill="#BD4553"/>
<path d="M1110 2.49999H1115V4.99999H1110V2.49999Z" fill="#BD4553"/>
<path d="M1115 -7.57367e-06H1120V4.99999H1115V-7.57367e-06Z" fill="#BD4553"/>
<path d="M1120 2.49999H1125V4.99999H1120V2.49999Z" fill="#BD4553"/>
<path d="M1125 -7.57367e-06H1130V4.99999H1125V-7.57367e-06Z" fill="#BD4553"/>
<path d="M1130 2.49999H1135V4.99999H1130V2.49999Z" fill="#BD4553"/>
<path d="M1135 1.66667H1140V3.33334H1135V1.66667Z" fill="#BD4553"/>
<path d="M1140 -7.57367e-06H1145V4.99999H1140V-7.57367e-06Z" fill="#BD4553"/>
<path d="M1145 2.49999H1150V4.99999H1145V2.49999Z" fill="#BD4553"/>
<path d="M1150 -7.57367e-06H1155V4.99999H1150V-7.57367e-06Z" fill="#BD4553"/>
<path d="M1155 2.49999H1160V4.99999H1155V2.49999Z" fill="#BD4553"/>
<path d="M1160 -7.57367e-06H1165V4.99999H1160V-7.57367e-06Z" fill="#BD4553"/>
<path d="M1165 -7.57367e-06H1170V4.99999H1165V-7.57367e-06Z" fill="#BD4553"/>
<path d="M1170 -7.57367e-06H1175V4.99999H1170V-7.57367e-06Z" fill="#BD4553"/>
<path d="M1175 2.49999H1180V4.99999H1175V2.49999Z" fill="#BD4553"/>
<path d="M1180 -7.57367e-06H1185V4.99999H1180V-7.57367e-06Z" fill="#BD4553"/>
<path d="M1185 1.66667H1190V3.33334H1185V1.66667Z" fill="#BD4553"/>
<path d="M1190 -7.57367e-06H1195V4.99999H1190V-7.57367e-06Z" fill="#BD4553"/>
<path d="M1195 -7.57367e-06H1200V4.99999H1195V-7.57367e-06Z" fill="#BD4553"/>
<path d="M1200 -7.57367e-06H1205V4.99999H1200V-7.57367e-06Z" fill="#BD4553"/>
<path d="M1205 1.66667H1210V3.33334H1205V1.66667Z" fill="#BD4553"/>
<path d="M1210 -7.57367e-06H1215V4.99999H1210V-7.57367e-06Z" fill="#BD4553"/>
<path d="M1215 -7.57367e-06H1220V4.99999H1215V-7.57367e-06Z" fill="#BD4553"/>
<path d="M1220 1.66667H1225V3.33334H1220V1.66667Z" fill="#BD4553"/>
<path d="M1225 2.49999H1230V4.99999H1225V2.49999Z" fill="#BD4553"/>
<path d="M1230 -7.57367e-06H1235V4.99999H1230V-7.57367e-06Z" fill="#BD4553"/>
<path d="M1235 1.66667H1240V3.33334H1235V1.66667Z" fill="#BD4553"/>
<path d="M1240 -7.57367e-06H1245V4.99999H1240V-7.57367e-06Z" fill="#BD4553"/>
<path d="M1245 2.49999H1250V4.99999H1245V2.49999Z" fill="#BD4553"/>
<path d="M1250 -7.57367e-06H1255V4.99999H1250V-7.57367e-06Z" fill="#BD4553"/>
<path d="M1255 2.78606e-08H1260V2.5H1255V2.78606e-08Z" fill="#BD4553"/>
<path d="M1260 2.49999H1265V4.99999H1260V2.49999Z" fill="#BD4553"/>
<path d="M1265 -7.57367e-06H1270V4.99999H1265V-7.57367e-06Z" fill="#BD4553"/>
<path d="M1270 2.49999H1275V4.99999H1270V2.49999Z" fill="#BD4553"/>
<path d="M1275 -7.57367e-06H1280V4.99999H1275V-7.57367e-06Z" fill="#BD4553"/>
<path d="M1280 -7.57367e-06H1285V4.99999H1280V-7.57367e-06Z" fill="#BD4553"/>
<path d="M1285 2.49999H1290V4.99999H1285V2.49999Z" fill="#BD4553"/>
<path d="M1290 -7.57367e-06H1295V4.99999H1290V-7.57367e-06Z" fill="#BD4553"/>
<path d="M1295 -7.57367e-06H1300V4.99999H1295V-7.57367e-06Z" fill="#BD4553"/>
<path d="M1300 -7.57367e-06H1305V4.99999H1300V-7.57367e-06Z" fill="#BD4553"/>
<path d="M1305 -7.57367e-06H1310V4.99999H1305V-7.57367e-06Z" fill="#BD4553"/>
<path d="M1310 2.78606e-08H1315V2.5H1310V2.78606e-08Z" fill="#BD4553"/>
<path d="M1315 -7.57367e-06H1320V4.99999H1315V-7.57367e-06Z" fill="#BD4553"/>
<path d="M1320 2.49999H1325V4.99999H1320V2.49999Z" fill="#BD4553"/>
<path d="M1325 2.49999H1330V4.99999H1325V2.49999Z" fill="#BD4553"/>
<path d="M1330 2.49999H1335V4.99999H1330V2.49999Z" fill="#BD4553"/>
<path d="M1335 2.49999H1340V4.99999H1335V2.49999Z" fill="#BD4553"/>
<path d="M1340 2.49999H1345V4.99999H1340V2.49999Z" fill="#BD4553"/>
<path d="M1345 -7.57367e-06H1350V4.99999H1345V-7.57367e-06Z" fill="#BD4553"/>
<path d="M1350 1.66667H1355V3.33334H1350V1.66667Z" fill="#BD4553"/>
<path d="M1355 2.49999H1360V4.99999H1355V2.49999Z" fill="#BD4553"/>
<path d="M1360 2.49999H1365V4.99999H1360V2.49999Z" fill="#BD4553"/>
<path d="M1365 2.78606e-08H1370V2.5H1365V2.78606e-08Z" fill="#BD4553"/>
<path d="M1370 -7.57367e-06H1375V4.99999H1370V-7.57367e-06Z" fill="#BD4553"/>
<path d="M1375 -7.57367e-06H1380V4.99999H1375V-7.57367e-06Z" fill="#BD4553"/>
<path d="M1380 2.78606e-08H1385V2.5H1380V2.78606e-08Z" fill="#BD4553"/>
<path d="M1385 -7.57367e-06H1390V4.99999H1385V-7.57367e-06Z" fill="#BD4553"/>
<path d="M1390 2.49999H1395V4.99999H1390V2.49999Z" fill="#BD4553"/>
<path d="M1395 -7.57367e-06H1400V4.99999H1395V-7.57367e-06Z" fill="#BD4553"/>
<path d="M1400 -7.57367e-06H1405V4.99999H1400V-7.57367e-06Z" fill="#BD4553"/>
<path d="M1405 -7.57367e-06H1410V4.99999H1405V-7.57367e-06Z" fill="#BD4553"/>
<path d="M1410 2.49999H1415V4.99999H1410V2.49999Z" fill="#BD4553"/>
<path d="M1415 2.49999H1420V4.99999H1415V2.49999Z" fill="#BD4553"/>
<path d="M1420 2.78606e-08H1425V2.5H1420V2.78606e-08Z" fill="#BD4553"/>
<path d="M1425 3.33333H1430V4.99999H1425V3.33333Z" fill="#BD4553"/>
<path d="M1430 -7.57367e-06H1435V4.99999H1430V-7.57367e-06Z" fill="#BD4553"/>
<path d="M1435 2.78606e-08H1440V2.5H1435V2.78606e-08Z" fill="#BD4553"/>
<path d="M1445 -7.57367e-06H1450V4.99999H1445V-7.57367e-06Z" fill="#BD4553"/>
<path d="M1450 2.49999H1455V4.99999H1450V2.49999Z" fill="#BD4553"/>
<path d="M1455 -7.57367e-06H1460V4.99999H1455V-7.57367e-06Z" fill="#BD4553"/>
<path d="M1460 2.49999H1465V4.99999H1460V2.49999Z" fill="#BD4553"/>
<path d="M1465 -7.57367e-06H1470V4.99999H1465V-7.57367e-06Z" fill="#BD4553"/>
<path d="M1470 -7.57367e-06H1475V4.99999H1470V-7.57367e-06Z" fill="#BD4553"/>
<path d="M1475 -7.57367e-06H1480V4.99999H1475V-7.57367e-06Z" fill="#BD4553"/>
<path d="M1480 2.49999H1485V4.99999H1480V2.49999Z" fill="#BD4553"/>
<path d="M1485 -7.57367e-06H1490V4.99999H1485V-7.57367e-06Z" fill="#BD4553"/>
<path d="M1490 -7.57367e-06H1495V4.99999H1490V-7.57367e-06Z" fill="#BD4553"/>
<path d="M1495 2.49999H1500V4.99999H1495V2.49999Z" fill="#BD4553"/>
<path d="M1500 -7.57367e-06H1505V4.99999H1500V-7.57367e-06Z" fill="#BD4553"/>
<path d="M1505 -7.57367e-06H1510V4.99999H1505V-7.57367e-06Z" fill="#BD4553"/>
<path d="M1510 -7.57367e-06H1515V4.99999H1510V-7.57367e-06Z" fill="#BD4553"/>
<path d="M1515 2.49999H1520V4.99999H1515V2.49999Z" fill="#BD4553"/>
<path d="M1520 2.78606e-08H1525V2.5H1520V2.78606e-08Z" fill="#BD4553"/>
<path d="M1525 2.49999H1530V4.99999H1525V2.49999Z" fill="#BD4553"/>
<path d="M1530 -7.57367e-06H1535V4.99999H1530V-7.57367e-06Z" fill="#BD4553"/>
<path d="M1535 -7.57367e-06H1540V4.99999H1535V-7.57367e-06Z" fill="#BD4553"/>
<path d="M1540 -7.57367e-06H1545V4.99999H1540V-7.57367e-06Z" fill="#BD4553"/>
<path d="M1545 -7.57367e-06H1550V4.99999H1545V-7.57367e-06Z" fill="#BD4553"/>
<path d="M1550 -7.57367e-06H1555V4.99999H1550V-7.57367e-06Z" fill="#BD4553"/>
<path d="M1555 2.78606e-08H1560V2.5H1555V2.78606e-08Z" fill="#BD4553"/>
<path d="M1560 -7.57367e-06H1565V4.99999H1560V-7.57367e-06Z" fill="#BD4553"/>
<path d="M1565 -7.57367e-06H1570V4.99999H1565V-7.57367e-06Z" fill="#BD4553"/>
<path d="M1570 -7.57367e-06H1575V4.99999H1570V-7.57367e-06Z" fill="#BD4553"/>
<path d="M1575 -7.57367e-06H1580V4.99999H1575V-7.57367e-06Z" fill="#BD4553"/>
<path d="M1580 -7.57367e-06H1585V4.99999H1580V-7.57367e-06Z" fill="#BD4553"/>
<path d="M1585 -7.57367e-06H1590V4.99999H1585V-7.57367e-06Z" fill="#BD4553"/>
<path d="M1590 -7.57367e-06H1595V4.99999H1590V-7.57367e-06Z" fill="#BD4553"/>
<path d="M1595 -7.57367e-06H1600V4.99999H1595V-7.57367e-06Z" fill="#BD4553"/>
<path d="M1600 2.49999H1605V4.99999H1600V2.49999Z" fill="#BD4553"/>
<path d="M1605 -7.57367e-06H1610V4.99999H1605V-7.57367e-06Z" fill="#BD4553"/>
<path d="M1610 -7.57367e-06H1615V4.99999H1610V-7.57367e-06Z" fill="#BD4553"/>
<path d="M1615 -7.57367e-06H1620V4.99999H1615V-7.57367e-06Z" fill="#BD4553"/>
<path d="M1620 -7.57367e-06H1625V4.99999H1620V-7.57367e-06Z" fill="#BD4553"/>
<path d="M1625 2.49999H1630V4.99999H1625V2.49999Z" fill="#BD4553"/>
<path d="M1630 2.49999H1635V4.99999H1630V2.49999Z" fill="#BD4553"/>
<path d="M1635 -7.57367e-06H1640V4.99999H1635V-7.57367e-06Z" fill="#BD4553"/>
<path d="M1640 -7.57367e-06H1645V4.99999H1640V-7.57367e-06Z" fill="#BD4553"/>
<path d="M1645 -7.57367e-06H1650V4.99999H1645V-7.57367e-06Z" fill="#BD4553"/>
<path d="M1650 -7.57367e-06H1655V4.99999H1650V-7.57367e-06Z" fill="#BD4553"/>
<path d="M1655 -7.57367e-06H1660V4.99999H1655V-7.57367e-06Z" fill="#BD4553"/>
<path d="M1660 -7.57367e-06H1665V4.99999H1660V-7.57367e-06Z" fill="#BD4553"/>
<path d="M1665 -7.57367e-06H1670V4.99999H1665V-7.57367e-06Z" fill="#BD4553"/>
<path d="M1670 -7.57367e-06H1675V4.99999H1670V-7.57367e-06Z" fill="#BD4553"/>
<path d="M1675 -7.57367e-06H1680V4.99999H1675V-7.57367e-06Z" fill="#BD4553"/>
<path d="M1680 -7.57367e-06H1685V4.99999H1680V-7.57367e-06Z" fill="#BD4553"/>
<path d="M1685 -7.57367e-06H1690V4.99999H1685V-7.57367e-06Z" fill="#BD4553"/>
<path d="M1690 -7.57367e-06H1695V4.99999H1690V-7.57367e-06Z" fill="#BD4553"/>
<path d="M1695 2.49999H1700V4.99999H1695V2.49999Z" fill="#BD4553"/>
<path d="M1700 -7.57367e-06H1705V4.99999H1700V-7.57367e-06Z" fill="#BD4553"/>
<path d="M1705 -7.57367e-06H1710V4.99999H1705V-7.57367e-06Z" fill="#BD4553"/>
<path d="M1710 2.49999H1715V4.99999H1710V2.49999Z" fill="#BD4553"/>
<path d="M1720 -7.57367e-06H1725V4.99999H1720V-7.57367e-06Z" fill="#BD4553"/>
<path d="M1725 -7.57367e-06H1730V4.99999H1725V-7.57367e-06Z" fill="#BD4553"/>
<path d="M1730 -7.57367e-06H1735V4.99999H1730V-7.57367e-06Z" fill="#BD4553"/>
<path d="M1735 -7.57367e-06H1740V4.99999H1735V-7.57367e-06Z" fill="#BD4553"/>
<path d="M1740 -7.57367e-06H1745V4.99999H1740V-7.57367e-06Z" fill="#BD4553"/>
<path d="M1745 -7.57367e-06H1750V4.99999H1745V-7.57367e-06Z" fill="#BD4553"/>
<path d="M1750 -7.57367e-06H1755V4.99999H1750V-7.57367e-06Z" fill="#BD4553"/>
<path d="M1755 -7.57367e-06H1760V4.99999H1755V-7.57367e-06Z" fill="#BD4553"/>
<path d="M1760 -7.57367e-06H1765V4.99999H1760V-7.57367e-06Z" fill="#BD4553"/>
<path d="M1765 -7.57367e-06H1770V4.99999H1765V-7.57367e-06Z" fill="#BD4553"/>
<path d="M1770 2.49999H1775V4.99999H1770V2.49999Z" fill="#BD4553"/>
<path d="M1775 -7.57367e-06H1780V4.99999H1775V-7.57367e-06Z" fill="#BD4553"/>
<path d="M1780 -7.57367e-06H1785V4.99999H1780V-7.57367e-06Z" fill="#BD4553"/>
<path d="M1785 -7.57367e-06H1790V4.99999H1785V-7.57367e-06Z" fill="#BD4553"/>
<path d="M1790 -7.57367e-06H1795V4.99999H1790V-7.57367e-06Z" fill="#BD4553"/>
<path d="M1795 2.49999H1800V4.99999H1795V2.49999Z" fill="#BD4553"/>
<path d="M1800 -7.57367e-06H1805V4.99999H1800V-7.57367e-06Z" fill="#BD4553"/>
<path d="M1805 2.49999H1810V4.99999H1805V2.49999Z" fill="#BD4553"/>
<path d="M1815 -7.57367e-06H1820V4.99999H1815V-7.57367e-06Z" fill="#BD4553"/>
<path d="M1820 -7.57367e-06H1825V4.99999H1820V-7.57367e-06Z" fill="#BD4553"/>
<path d="M1825 -7.57367e-06H1830V4.99999H1825V-7.57367e-06Z" fill="#BD4553"/>
<path d="M1830 -7.57367e-06H1835V4.99999H1830V-7.57367e-06Z" fill="#BD4553"/>
<path d="M1835 -7.57367e-06H1840V4.99999H1835V-7.57367e-06Z" fill="#BD4553"/>
<path d="M1840 -7.57367e-06H1845V4.99999H1840V-7.57367e-06Z" fill="#BD4553"/>
<path d="M1845 -7.57367e-06H1850V4.99999H1845V-7.57367e-06Z" fill="#BD4553"/>
<path d="M1850 -7.57367e-06H1855V4.99999H1850V-7.57367e-06Z" fill="#BD4553"/>
<path d="M1855 -7.57367e-06H1860V4.99999H1855V-7.57367e-06Z" fill="#BD4553"/>
<path d="M1860 -7.57367e-06H1865V4.99999H1860V-7.57367e-06Z" fill="#BD4553"/>
<path d="M1865 2.49999H1870V4.99999H1865V2.49999Z" fill="#BD4553"/>
<path d="M1870 -7.57367e-06H1875V4.99999H1870V-7.57367e-06Z" fill="#BD4553"/>
<path d="M1875 -7.57367e-06H1880V4.99999H1875V-7.57367e-06Z" fill="#BD4553"/>
<path d="M1880 -7.57367e-06H1885V4.99999H1880V-7.57367e-06Z" fill="#BD4553"/>
<path d="M1885 2.49999H1890V4.99999H1885V2.49999Z" fill="#BD4553"/>
<path d="M1890 -7.57367e-06H1895V4.99999H1890V-7.57367e-06Z" fill="#BD4553"/>
<path d="M1895 -7.57367e-06H1900V4.99999H1895V-7.57367e-06Z" fill="#BD4553"/>
<path d="M1900 2.49999H1905V4.99999H1900V2.49999Z" fill="#BD4553"/>
<path d="M1905 -7.57367e-06H1910V4.99999H1905V-7.57367e-06Z" fill="#BD4553"/>
<path d="M1910 -7.57367e-06H1915V4.99999H1910V-7.57367e-06Z" fill="#BD4553"/>
<path d="M1915 -7.57367e-06H1920V4.99999H1915V-7.57367e-06Z" fill="#BD4553"/>
<path d="M1920 -7.57367e-06H1925V4.99999H1920V-7.57367e-06Z" fill="#BD4553"/>
<path d="M1925 -7.57367e-06H1930V4.99999H1925V-7.57367e-06Z" fill="#BD4553"/>
<path d="M1935 -7.57367e-06H1940V4.99999H1935V-7.57367e-06Z" fill="#BD4553"/>
<path d="M1940 -7.57367e-06H1945V4.99999H1940V-7.57367e-06Z" fill="#BD4553"/>
<path d="M1945 -7.57367e-06H1950V4.99999H1945V-7.57367e-06Z" fill="#BD4553"/>
<path d="M1950 -7.57367e-06H1955V4.99999H1950V-7.57367e-06Z" fill="#BD4553"/>
<path d="M1955 -7.57367e-06H1960V4.99999H1955V-7.57367e-06Z" fill="#BD4553"/>
<path d="M1960 -7.57367e-06H1965V4.99999H1960V-7.57367e-06Z" fill="#BD4553"/>
<path d="M1965 -7.57367e-06H1970V4.99999H1965V-7.57367e-06Z" fill="#BD4553"/>
<path d="M1970 -7.57367e-06H1975V4.99999H1970V-7.57367e-06Z" fill="#BD4553"/>
<path d="M1975 -7.57367e-06H1980V4.99999H1975V-7.57367e-06Z" fill="#BD4553"/>
<path d="M1980 -7.57367e-06H1985V4.99999H1980V-7.57367e-06Z" fill="#BD4553"/>
<path d="M1985 -7.57367e-06H1990V4.99999H1985V-7.57367e-06Z" fill="#BD4553"/>
<path d="M1990 -7.57367e-06H1995V4.99999H1990V-7.57367e-06Z" fill="#BD4553"/>
<path d="M1995 -7.57367e-06H2000V4.99999H1995V-7.57367e-06Z" fill="#BD4553"/>
<path d="M2000 -7.57367e-06H2005V4.99999H2000V-7.57367e-06Z" fill="#BD4553"/>
<path d="M2005 2.49999H2010V4.99999H2005V2.49999Z" fill="#BD4553"/>
<path d="M2010 2.49999H2015V4.99999H2010V2.49999Z" fill="#BD4553"/>
<path d="M2015 -7.57367e-06H2020V4.99999H2015V-7.57367e-06Z" fill="#BD4553"/>
<path d="M2020 -7.57367e-06H2025V4.99999H2020V-7.57367e-06Z" fill="#BD4553"/>
<path d="M2025 -7.57367e-06H2030V4.99999H2025V-7.57367e-06Z" fill="#BD4553"/>
<path d="M2030 -7.57367e-06H2035V4.99999H2030V-7.57367e-06Z" fill="#BD4553"/>
<path d="M2035 -7.57367e-06H2040V4.99999H2035V-7.57367e-06Z" fill="#BD4553"/>
<path d="M2040 -7.57367e-06H2045V4.99999H2040V-7.57367e-06Z" fill="#BD4553"/>
<path d="M2045 2.49999H2050V4.99999H2045V2.49999Z" fill="#BD4553"/>
<path d="M2050 2.49999H2055V4.99999H2050V2.49999Z" fill="#BD4553"/>
<path d="M2055 -7.57367e-06H2060V4.99999H2055V-7.57367e-06Z" fill="#BD4553"/>
<path d="M2060 2.49999H2065V4.99999H2060V2.49999Z" fill="#BD4553"/>
<path d="M2065 -7.57367e-06H2070V4.99999H2065V-7.57367e-06Z" fill="#BD4553"/>
<path d="M2070 -7.57367e-06H2075V4.99999H2070V-7.57367e-06Z" fill="#BD4553"/>
<path d="M2075 -7.57367e-06H2080V4.99999H2075V-7.57367e-06Z" fill="#BD4553"/>
<path d="M2080 -7.57367e-06H2085V4.99999H2080V-7.57367e-06Z" fill="#BD4553"/>
<path d="M2085 2.49999H2090V4.99999H2085V2.49999Z" fill="#BD4553"/>
<path d="M2090 2.49999H2095V4.99999H2090V2.49999Z" fill="#BD4553"/>
<path d="M2095 3.33333H2100V4.99999H2095V3.33333Z" fill="#BD4553"/>
<path d="M2100 1.66667H2105V3.33334H2100V1.66667Z" fill="#BD4553"/>
<path d="M2105 -7.57367e-06H2110V4.99999H2105V-7.57367e-06Z" fill="#BD4553"/>
<path d="M2110 -7.57367e-06H2115V4.99999H2110V-7.57367e-06Z" fill="#BD4553"/>
<path d="M2115 -7.57367e-06H2120V4.99999H2115V-7.57367e-06Z" fill="#BD4553"/>
<path d="M2120 2.49999H2125V4.99999H2120V2.49999Z" fill="#BD4553"/>
<path d="M2125 2.49999H2130V4.99999H2125V2.49999Z" fill="#BD4553"/>
<path d="M2130 -7.57367e-06H2135V4.99999H2130V-7.57367e-06Z" fill="#BD4553"/>
<path d="M2135 -7.57367e-06H2140V4.99999H2135V-7.57367e-06Z" fill="#BD4553"/>
<path d="M2140 -7.57367e-06H2145V4.99999H2140V-7.57367e-06Z" fill="#BD4553"/>
<path d="M2145 -7.57367e-06H2150V4.99999H2145V-7.57367e-06Z" fill="#BD4553"/>
<path d="M2150 -7.57367e-06H2155V4.99999H2150V-7.57367e-06Z" fill="#BD4553"/>
<path d="M2155 -7.57367e-06H2160V4.99999H2155V-7.57367e-06Z" fill="#BD4553"/>
<path d="M2160 -7.57367e-06H2165V4.99999H2160V-7.57367e-06Z" fill="#BD4553"/>
<path d="M2165 -7.57367e-06H2170V4.99999H2165V-7.57367e-06Z" fill="#BD4553"/>
<path d="M2170 2.49999H2175V4.99999H2170V2.49999Z" fill="#BD4553"/>
<path d="M2180 -7.57367e-06H2185V4.99999H2180V-7.57367e-06Z" fill="#BD4553"/>
<path d="M2185 -7.57367e-06H2190V4.99999H2185V-7.57367e-06Z" fill="#BD4553"/>
<path d="M2190 -7.57367e-06H2195V4.99999H2190V-7.57367e-06Z" fill="#BD4553"/>
<path d="M2195 -7.57367e-06H2200V4.99999H2195V-7.57367e-06Z" fill="#BD4553"/>
<path d="M2200 2.49999H2205V4.99999H2200V2.49999Z" fill="#BD4553"/>
<path d="M2205 -7.57367e-06H2210V4.99999H2205V-7.57367e-06Z" fill="#BD4553"/>
<path d="M2210 -7.57367e-06H2215V4.99999H2210V-7.57367e-06Z" fill="#BD4553"/>
<path d="M2215 2.49999H2220V4.99999H2215V2.49999Z" fill="#BD4553"/>
<path d="M2220 -7.57367e-06H2225V4.99999H2220V-7.57367e-06Z" fill="#BD4553"/>
<path d="M2225 -7.57367e-06H2230V4.99999H2225V-7.57367e-06Z" fill="#BD4553"/>
<path d="M2230 2.49999H2235V4.99999H2230V2.49999Z" fill="#BD4553"/>
<path d="M2235 2.49999H2240V4.99999H2235V2.49999Z" fill="#BD4553"/>
<path d="M2240 -7.57367e-06H2245V4.99999H2240V-7.57367e-06Z" fill="#BD4553"/>
<path d="M2245 -7.57367e-06H2250V4.99999H2245V-7.57367e-06Z" fill="#BD4553"/>
<path d="M2250 -7.57367e-06H2255V4.99999H2250V-7.57367e-06Z" fill="#BD4553"/>
<path d="M2255 -7.57367e-06H2260V4.99999H2255V-7.57367e-06Z" fill="#BD4553"/>
<path d="M2260 -7.57367e-06H2265V4.99999H2260V-7.57367e-06Z" fill="#BD4553"/>
<path d="M2265 -7.57367e-06H2270V4.99999H2265V-7.57367e-06Z" fill="#BD4553"/>
<path d="M2270 -7.57367e-06H2275V4.99999H2270V-7.57367e-06Z" fill="#BD4553"/>
<path d="M2275 2.78606e-08H2280V2.5H2275V2.78606e-08Z" fill="#BD4553"/>
<path d="M2280 -7.57367e-06H2285V4.99999H2280V-7.57367e-06Z" fill="#BD4553"/>
<path d="M2285 -7.57367e-06H2290V4.99999H2285V-7.57367e-06Z" fill="#BD4553"/>
<path d="M2290 2.49999H2295V4.99999H2290V2.49999Z" fill="#BD4553"/>
<path d="M2295 2.49999H2300V4.99999H2295V2.49999Z" fill="#BD4553"/>
<path d="M2300 -7.57367e-06H2305V4.99999H2300V-7.57367e-06Z" fill="#BD4553"/>
<path d="M2305 -7.57367e-06H2310V4.99999H2305V-7.57367e-06Z" fill="#BD4553"/>
<path d="M2310 2.78606e-08H2315V2.5H2310V2.78606e-08Z" fill="#BD4553"/>
<path d="M2315 -7.57367e-06H2320V4.99999H2315V-7.57367e-06Z" fill="#BD4553"/>
<path d="M2320 -7.57367e-06H2325V4.99999H2320V-7.57367e-06Z" fill="#BD4553"/>
<path d="M2330 2.78606e-08H2335V2.5H2330V2.78606e-08Z" fill="#BD4553"/>
<path d="M2335 -7.57367e-06H2340V4.99999H2335V-7.57367e-06Z" fill="#BD4553"/>
<path d="M2340 -7.57367e-06H2345V4.99999H2340V-7.57367e-06Z" fill="#BD4553"/>
<path d="M2355 -7.57367e-06H2360V4.99999H2355V-7.57367e-06Z" fill="#BD4553"/>
<path d="M2360 -7.57367e-06H2365V4.99999H2360V-7.57367e-06Z" fill="#BD4553"/>
<path d="M2365 -7.57367e-06H2370V4.99999H2365V-7.57367e-06Z" fill="#BD4553"/>
<path d="M2370 -7.57367e-06H2375V4.99999H2370V-7.57367e-06Z" fill="#BD4553"/>
<path d="M2375 -7.57367e-06H2380V4.99999H2375V-7.57367e-06Z" fill="#BD4553"/>
<path d="M2380 -7.57367e-06H2385V4.99999H2380V-7.57367e-06Z" fill="#BD4553"/>
<path d="M2385 -7.57367e-06H2390V4.99999H2385V-7.57367e-06Z" fill="#BD4553"/>
<path d="M2395 -7.57367e-06H2400V4.99999H2395V-7.57367e-06Z" fill="#BD4553"/>
<path d="M2400 -7.57367e-06H2405V4.99999H2400V-7.57367e-06Z" fill="#BD4553"/>
<path d="M2405 -7.57367e-06H2410V4.99999H2405V-7.57367e-06Z" fill="#BD4553"/>
<path d="M2410 -7.57367e-06H2415V4.99999H2410V-7.57367e-06Z" fill="#BD4553"/>
<path d="M2415 -7.57367e-06H2420V4.99999H2415V-7.57367e-06Z" fill="#BD4553"/>
<path d="M2420 -7.57367e-06H2425V4.99999H2420V-7.57367e-06Z" fill="#BD4553"/>
<path d="M2425 -7.57367e-06H2430V4.99999H2425V-7.57367e-06Z" fill="#BD4553"/>
<path d="M2430 -7.57367e-06H2435V4.99999H2430V-7.57367e-06Z" fill="#BD4553"/>
<path d="M2435 -7.57367e-06H2440V4.99999H2435V-7.57367e-06Z" fill="#BD4553"/>
<path d="M2440 -7.57367e-06H2445V4.99999H2440V-7.57367e-06Z" fill="#BD4553"/>
<path d="M2445 -7.57367e-06H2450V4.99999H2445V-7.57367e-06Z" fill="#BD4553"/>
<path d="M2450 2.49999H2455V4.99999H2450V2.49999Z" fill="#BD4553"/>
<path d="M2455 -7.57367e-06H2460V4.99999H2455V-7.57367e-06Z" fill="#BD4553"/>
<path d="M2460 -7.57367e-06H2465V4.99999H2460V-7.57367e-06Z" fill="#BD4553"/>
<path d="M2465 -7.57367e-06H2470V4.99999H2465V-7.57367e-06Z" fill="#BD4553"/>
<path d="M2470 -7.57367e-06H2475V4.99999H2470V-7.57367e-06Z" fill="#BD4553"/>
<path d="M2475 -7.57367e-06H2480V4.99999H2475V-7.57367e-06Z" fill="#BD4553"/>
<path d="M2480 2.49999H2485V4.99999H2480V2.49999Z" fill="#BD4553"/>
<path d="M2485 2.49999H2490V4.99999H2485V2.49999Z" fill="#BD4553"/>
<path d="M2490 2.49999H2495V4.99999H2490V2.49999Z" fill="#BD4553"/>
<path d="M2495 -7.57367e-06H2500V4.99999H2495V-7.57367e-06Z" fill="#BD4553"/>
<path d="M2500 -7.57367e-06H2505V4.99999H2500V-7.57367e-06Z" fill="#BD4553"/>
<path d="M2505 -7.57367e-06H2510V4.99999H2505V-7.57367e-06Z" fill="#BD4553"/>
<path d="M2510 -7.57367e-06H2515V4.99999H2510V-7.57367e-06Z" fill="#BD4553"/>
<path d="M2515 -7.57367e-06H2520V4.99999H2515V-7.57367e-06Z" fill="#BD4553"/>
<path d="M2520 -7.57367e-06H2525V4.99999H2520V-7.57367e-06Z" fill="#BD4553"/>
<path d="M2525 -7.57367e-06H2530V4.99999H2525V-7.57367e-06Z" fill="#BD4553"/>
<path d="M2530 -7.57367e-06H2535V4.99999H2530V-7.57367e-06Z" fill="#BD4553"/>
<path d="M2535 -7.57367e-06H2540V4.99999H2535V-7.57367e-06Z" fill="#BD4553"/>
<path d="M2540 -7.57367e-06H2545V4.99999H2540V-7.57367e-06Z" fill="#BD4553"/>
<path d="M2545 -7.57367e-06H2550V4.99999H2545V-7.57367e-06Z" fill="#BD4553"/>
<path d="M2550 -7.57367e-06H2555V4.99999H2550V-7.57367e-06Z" fill="#BD4553"/>
<path d="M2555 -7.57367e-06H2560V4.99999H2555V-7.57367e-06Z" fill="#BD4553"/>
<path d="M2560 -7.57367e-06H2565V4.99999H2560V-7.57367e-06Z" fill="#BD4553"/>
<path d="M2565 -7.57367e-06H2570V4.99999H2565V-7.57367e-06Z" fill="#BD4553"/>
<path d="M2570 -7.57367e-06H2575V4.99999H2570V-7.57367e-06Z" fill="#BD4553"/>
<path d="M2575 -7.57367e-06H2580V4.99999H2575V-7.57367e-06Z" fill="#BD4553"/>
<path d="M2580 -7.57367e-06H2585V4.99999H2580V-7.57367e-06Z" fill="#BD4553"/>
<path d="M2585 -7.57367e-06H2590V4.99999H2585V-7.57367e-06Z" fill="#BD4553"/>
<path d="M2590 -7.57367e-06H2595V4.99999H2590V-7.57367e-06Z" fill="#BD4553"/>
<path d="M2595 -7.57367e-06H2600V4.99999H2595V-7.57367e-06Z" fill="#BD4553"/>
<path d="M2600 -7.57367e-06H2605V4.99999H2600V-7.57367e-06Z" fill="#BD4553"/>
<path d="M2605 -7.57367e-06H2610V4.99999H2605V-7.57367e-06Z" fill="#BD4553"/>
<path d="M2610 -7.57367e-06H2615V4.99999H2610V-7.57367e-06Z" fill="#BD4553"/>
<path d="M2615 -7.57367e-06H2620V4.99999H2615V-7.57367e-06Z" fill="#BD4553"/>
<path d="M2620 -7.57367e-06H2625V4.99999H2620V-7.57367e-06Z" fill="#BD4553"/>
<path d="M2625 -7.57367e-06H2630V4.99999H2625V-7.57367e-06Z" fill="#BD4553"/>
<path d="M2630 -7.57367e-06H2635V4.99999H2630V-7.57367e-06Z" fill="#BD4553"/>
<path d="M2635 -7.57367e-06H2640V4.99999H2635V-7.57367e-06Z" fill="#BD4553"/>
<path d="M2640 -7.57367e-06H2645V4.99999H2640V-7.57367e-06Z" fill="#BD4553"/>
<path d="M2645 -7.57367e-06H2650V4.99999H2645V-7.57367e-06Z" fill="#BD4553"/>
<path d="M2650 -7.57367e-06H2655V4.99999H2650V-7.57367e-06Z" fill="#BD4553"/>
<path d="M2655 -7.57367e-06H2660V4.99999H2655V-7.57367e-06Z" fill="#BD4553"/>
<path d="M2660 -7.57367e-06H2665V4.99999H2660V-7.57367e-06Z" fill="#BD4553"/>
<path d="M2665 -7.57367e-06H2670V4.99999H2665V-7.57367e-06Z" fill="#BD4553"/>
<path d="M2670 -7.57367e-06H2675V4.99999H2670V-7.57367e-06Z" fill="#BD4553"/>
<path d="M2675 2.49999H2680V4.99999H2675V2.49999Z" fill="#BD4553"/>
<path d="M2680 2.49999H2685V4.99999H2680V2.49999Z" fill="#BD4553"/>
<path d="M2685 2.49999H2690V4.99999H2685V2.49999Z" fill="#BD4553"/>
<path d="M2690 -7.57367e-06H2695V4.99999H2690V-7.57367e-06Z" fill="#BD4553"/>
<path d="M2695 -7.57367e-06H2700V4.99999H2695V-7.57367e-06Z" fill="#BD4553"/>
<path d="M2700 2.49999H2705V4.99999H2700V2.49999Z" fill="#BD4553"/>
<path d="M2705 2.49999H2710V4.99999H2705V2.49999Z" fill="#BD4553"/>
<path d="M2710 -7.57367e-06H2715V4.99999H2710V-7.57367e-06Z" fill="#BD4553"/>
<path d="M2715 2.49999H2720V4.99999H2715V2.49999Z" fill="#BD4553"/>
<path d="M2720 -7.57367e-06H2725V4.99999H2720V-7.57367e-06Z" fill="#BD4553"/>
<path d="M2725 -7.57367e-06H2730V4.99999H2725V-7.57367e-06Z" fill="#BD4553"/>
<path d="M2730 -7.57367e-06H2735V4.99999H2730V-7.57367e-06Z" fill="#BD4553"/>
<path d="M2735 -7.57367e-06H2740V4.99999H2735V-7.57367e-06Z" fill="#BD4553"/>
<path d="M2740 -7.57367e-06H2745V4.99999H2740V-7.57367e-06Z" fill="#BD4553"/>
<path d="M2745 -7.57367e-06H2750V4.99999H2745V-7.57367e-06Z" fill="#BD4553"/>
<path d="M2750 -7.57367e-06H2755V4.99999H2750V-7.57367e-06Z" fill="#BD4553"/>
<path d="M2755 -7.57367e-06H2760V4.99999H2755V-7.57367e-06Z" fill="#BD4553"/>
<path d="M2760 -7.57367e-06H2765V4.99999H2760V-7.57367e-06Z" fill="#BD4553"/>
<path d="M2765 -7.57367e-06H2770V4.99999H2765V-7.57367e-06Z" fill="#BD4553"/>
<path d="M2770 -7.57367e-06H2775V4.99999H2770V-7.57367e-06Z" fill="#BD4553"/>
<path d="M2775 -7.57367e-06H2780V4.99999H2775V-7.57367e-06Z" fill="#BD4553"/>
<path d="M2780 -7.57367e-06H2785V4.99999H2780V-7.57367e-06Z" fill="#BD4553"/>
<path d="M2785 2.49999H2790V4.99999H2785V2.49999Z" fill="#BD4553"/>
<path d="M2790 -7.57367e-06H2795V4.99999H2790V-7.57367e-06Z" fill="#BD4553"/>
<path d="M2795 -7.57367e-06H2800V4.99999H2795V-7.57367e-06Z" fill="#BD4553"/>
<path d="M2800 -7.57367e-06H2805V4.99999H2800V-7.57367e-06Z" fill="#BD4553"/>
<path d="M2805 -7.57367e-06H2810V4.99999H2805V-7.57367e-06Z" fill="#BD4553"/>
<path d="M2810 2.49999H2815V4.99999H2810V2.49999Z" fill="#BD4553"/>
<path d="M2815 2.49999H2820V4.99999H2815V2.49999Z" fill="#BD4553"/>
<path d="M2820 2.78606e-08H2825V2.5H2820V2.78606e-08Z" fill="#BD4553"/>
<path d="M2825 -7.57367e-06H2830V4.99999H2825V-7.57367e-06Z" fill="#BD4553"/>
<path d="M2830 -7.57367e-06H2835V4.99999H2830V-7.57367e-06Z" fill="#BD4553"/>
<path d="M2845 2.49999H2850V4.99999H2845V2.49999Z" fill="#BD4553"/>
<path d="M2850 -7.57367e-06H2855V4.99999H2850V-7.57367e-06Z" fill="#BD4553"/>
<path d="M2855 -7.57367e-06H2860V4.99999H2855V-7.57367e-06Z" fill="#BD4553"/>
<path d="M2860 2.49999H2865V4.99999H2860V2.49999Z" fill="#BD4553"/>
<path d="M2865 -7.57367e-06H2870V4.99999H2865V-7.57367e-06Z" fill="#BD4553"/>
<path d="M2870 2.78606e-08H2875V2.5H2870V2.78606e-08Z" fill="#BD4553"/>
<path d="M2875 -7.57367e-06H2880V4.99999H2875V-7.57367e-06Z" fill="#BD4553"/>
<path d="M2880 -7.57367e-06H2885V4.99999H2880V-7.57367e-06Z" fill="#BD4553"/>
<path d="M2885 -7.57367e-06H2890V4.99999H2885V-7.57367e-06Z" fill="#BD4553"/>
<path d="M2890 -7.57367e-06H2895V4.99999H2890V-7.57367e-06Z" fill="#BD4553"/>
<path d="M2895 2.49999H2900V4.99999H2895V2.49999Z" fill="#BD4553"/>
<path d="M2900 -7.57367e-06H2905V4.99999H2900V-7.57367e-06Z" fill="#BD4553"/>
<path d="M2905 -7.57367e-06H2910V4.99999H2905V-7.57367e-06Z" fill="#BD4553"/>
<path d="M2910 -7.57367e-06H2915V4.99999H2910V-7.57367e-06Z" fill="#BD4553"/>
<path d="M2915 2.49999H2920V4.99999H2915V2.49999Z" fill="#BD4553"/>
<path d="M2920 2.49999H2925V4.99999H2920V2.49999Z" fill="#BD4553"/>
<path d="M2925 -7.57367e-06H2930V4.99999H2925V-7.57367e-06Z" fill="#BD4553"/>
<path d="M2930 -7.57367e-06H2935V4.99999H2930V-7.57367e-06Z" fill="#BD4553"/>
<path d="M2935 2.78606e-08H2940V2.5H2935V2.78606e-08Z" fill="#BD4553"/>
<path d="M2940 -7.57367e-06H2945V4.99999H2940V-7.57367e-06Z" fill="#BD4553"/>
<path d="M2945 2.78606e-08H2950V2.5H2945V2.78606e-08Z" fill="#BD4553"/>
<path d="M2955 -7.57367e-06H2960V4.99999H2955V-7.57367e-06Z" fill="#BD4553"/>
<path d="M2965 2.78606e-08H2970V2.5H2965V2.78606e-08Z" fill="#BD4553"/>
<path d="M2970 2.78606e-08H2975V2.5H2970V2.78606e-08Z" fill="#BD4553"/>
<path d="M2980 2.78606e-08H2985V2.5H2980V2.78606e-08Z" fill="#BD4553"/>
<path d="M2985 -7.57367e-06H2990V4.99999H2985V-7.57367e-06Z" fill="#BD4553"/>
<path d="M2990 -7.57367e-06H2995V4.99999H2990V-7.57367e-06Z" fill="#BD4553"/>
<path d="M2995 -7.57367e-06H3000V4.99999H2995V-7.57367e-06Z" fill="#BD4553"/>
<path d="M3000 -7.57367e-06H3005V4.99999H3000V-7.57367e-06Z" fill="#BD4553"/>
<path d="M3005 -7.57367e-06H3010V4.99999H3005V-7.57367e-06Z" fill="#BD4553"/>
<path d="M3010 2.49999H3015V4.99999H3010V2.49999Z" fill="#BD4553"/>
<path d="M3015 -7.57367e-06H3020V4.99999H3015V-7.57367e-06Z" fill="#BD4553"/>
<path d="M3020 -7.57367e-06H3025V4.99999H3020V-7.57367e-06Z" fill="#BD4553"/>
<path d="M3025 -7.57367e-06H3030V4.99999H3025V-7.57367e-06Z" fill="#BD4553"/>
<path d="M3030 -7.57367e-06H3035V4.99999H3030V-7.57367e-06Z" fill="#BD4553"/>
<path d="M3040 -7.57367e-06H3045V4.99999H3040V-7.57367e-06Z" fill="#BD4553"/>
<path d="M3055 2.49999H3060V4.99999H3055V2.49999Z" fill="#BD4553"/>
<path d="M3060 -7.57367e-06H3065V4.99999H3060V-7.57367e-06Z" fill="#BD4553"/>
<path d="M3065 -7.57367e-06H3070V4.99999H3065V-7.57367e-06Z" fill="#BD4553"/>
<path d="M3070 -7.57367e-06H3075V4.99999H3070V-7.57367e-06Z" fill="#BD4553"/>
<path d="M3075 -7.57367e-06H3080V4.99999H3075V-7.57367e-06Z" fill="#BD4553"/>
<path d="M3085 -7.57367e-06H3090V4.99999H3085V-7.57367e-06Z" fill="#BD4553"/>
<path d="M3090 -7.57367e-06H3095V4.99999H3090V-7.57367e-06Z" fill="#BD4553"/>
<path d="M3095 2.49999H3100V4.99999H3095V2.49999Z" fill="#BD4553"/>
<path d="M3100 -7.57367e-06H3105V4.99999H3100V-7.57367e-06Z" fill="#BD4553"/>
<path d="M3105 -7.57367e-06H3110V4.99999H3105V-7.57367e-06Z" fill="#BD4553"/>
<path d="M3110 -7.57367e-06H3115V4.99999H3110V-7.57367e-06Z" fill="#BD4553"/>
<path d="M3115 -7.57367e-06H3120V4.99999H3115V-7.57367e-06Z" fill="#BD4553"/>
<path d="M3120 -7.57367e-06H3125V4.99999H3120V-7.57367e-06Z" fill="#BD4553"/>
<path d="M3125 -7.57367e-06H3130V4.99999H3125V-7.57367e-06Z" fill="#BD4553"/>
<path d="M3130 -7.57367e-06H3135V4.99999H3130V-7.57367e-06Z" fill="#BD4553"/>
<path d="M3135 -7.57367e-06H3140V4.99999H3135V-7.57367e-06Z" fill="#BD4553"/>
<path d="M3140 -7.57367e-06H3145V4.99999H3140V-7.57367e-06Z" fill="#BD4553"/>
<path d="M3145 -7.57367e-06H3150V4.99999H3145V-7.57367e-06Z" fill="#BD4553"/>
<path d="M3150 3.33333H3155V4.99999H3150V3.33333Z" fill="#BD4553"/>
<path d="M3155 -7.57367e-06H3160V4.99999H3155V-7.57367e-06Z" fill="#BD4553"/>
<path d="M3160 -7.57367e-06H3165V4.99999H3160V-7.57367e-06Z" fill="#BD4553"/>
<path d="M3165 2.49999H3170V4.99999H3165V2.49999Z" fill="#BD4553"/>
<path d="M3170 -7.57367e-06H3175V4.99999H3170V-7.57367e-06Z" fill="#BD4553"/>
<path d="M3175 -7.57367e-06H3180V4.99999H3175V-7.57367e-06Z" fill="#BD4553"/>
<path d="M3190 -7.57367e-06H3195V4.99999H3190V-7.57367e-06Z" fill="#BD4553"/>
<path d="M3195 -7.57367e-06H3200V4.99999H3195V-7.57367e-06Z" fill="#BD4553"/>
<path d="M3200 -7.57367e-06H3205V4.99999H3200V-7.57367e-06Z" fill="#BD4553"/>
<path d="M3205 -7.57367e-06H3210V4.99999H3205V-7.57367e-06Z" fill="#BD4553"/>
<path d="M3210 -7.57367e-06H3215V4.99999H3210V-7.57367e-06Z" fill="#BD4553"/>
<path d="M3215 -7.57367e-06H3220V4.99999H3215V-7.57367e-06Z" fill="#BD4553"/>
<path d="M3220 -7.57367e-06H3225V4.99999H3220V-7.57367e-06Z" fill="#BD4553"/>
<path d="M3235 -7.57367e-06H3240V4.99999H3235V-7.57367e-06Z" fill="#BD4553"/>
<path d="M3240 2.78606e-08H3245V2.5H3240V2.78606e-08Z" fill="#BD4553"/>
<path d="M3250 2.78606e-08H3255V2.5H3250V2.78606e-08Z" fill="#BD4553"/>
<path d="M3255 -7.57367e-06H3260V4.99999H3255V-7.57367e-06Z" fill="#BD4553"/>
<path d="M3260 -7.57367e-06H3265V4.99999H3260V-7.57367e-06Z" fill="#BD4553"/>
<path d="M3275 -7.57367e-06H3280V4.99999H3275V-7.57367e-06Z" fill="#BD4553"/>
<path d="M3280 -7.57367e-06H3285V4.99999H3280V-7.57367e-06Z" fill="#BD4553"/>
<path d="M3285 2.49999H3290V4.99999H3285V2.49999Z" fill="#BD4553"/>
<path d="M3290 -7.57367e-06H3295V4.99999H3290V-7.57367e-06Z" fill="#BD4553"/>
<path d="M3295 -7.57367e-06H3300V4.99999H3295V-7.57367e-06Z" fill="#BD4553"/>
<path d="M3310 -7.57367e-06H3315V4.99999H3310V-7.57367e-06Z" fill="#BD4553"/>
<path d="M3315 -7.57367e-06H3320V4.99999H3315V-7.57367e-06Z" fill="#BD4553"/>
<path d="M3335 -7.57367e-06H3340V4.99999H3335V-7.57367e-06Z" fill="#BD4553"/>
<path d="M3340 -7.57367e-06H3345V4.99999H3340V-7.57367e-06Z" fill="#BD4553"/>
<path d="M3345 -7.57367e-06H3350V4.99999H3345V-7.57367e-06Z" fill="#BD4553"/>
<path d="M3350 -7.57367e-06H3355V4.99999H3350V-7.57367e-06Z" fill="#BD4553"/>
<path d="M3355 -7.57367e-06H3360V4.99999H3355V-7.57367e-06Z" fill="#BD4553"/>
<path d="M3370 -7.57367e-06H3375V4.99999H3370V-7.57367e-06Z" fill="#BD4553"/>
<path d="M3375 -7.57367e-06H3380V4.99999H3375V-7.57367e-06Z" fill="#BD4553"/>
<path d="M3380 -7.57367e-06H3385V4.99999H3380V-7.57367e-06Z" fill="#BD4553"/>
<path d="M3385 -7.57367e-06H3390V4.99999H3385V-7.57367e-06Z" fill="#BD4553"/>
<path d="M3390 -7.57367e-06H3395V4.99999H3390V-7.57367e-06Z" fill="#BD4553"/>
<path d="M3405 -7.57367e-06H3410V4.99999H3405V-7.57367e-06Z" fill="#BD4553"/>
<path d="M3410 -7.57367e-06H3415V4.99999H3410V-7.57367e-06Z" fill="#BD4553"/>
<path d="M3415 -7.57367e-06H3420V4.99999H3415V-7.57367e-06Z" fill="#BD4553"/>
<path d="M3420 -7.57367e-06H3425V4.99999H3420V-7.57367e-06Z" fill="#BD4553"/>
<path d="M3440 -7.57367e-06H3445V4.99999H3440V-7.57367e-06Z" fill="#BD4553"/>
<path d="M3450 -7.57367e-06H3455V4.99999H3450V-7.57367e-06Z" fill="#BD4553"/>
<path d="M3455 -7.57367e-06H3460V4.99999H3455V-7.57367e-06Z" fill="#BD4553"/>
<path d="M3465 -7.57367e-06H3470V4.99999H3465V-7.57367e-06Z" fill="#BD4553"/>
<path d="M3475 -7.57367e-06H3480V4.99999H3475V-7.57367e-06Z" fill="#BD4553"/>
<path d="M3485 -7.57367e-06H3490V4.99999H3485V-7.57367e-06Z" fill="#BD4553"/>
<path d="M3490 -7.57367e-06H3495V4.99999H3490V-7.57367e-06Z" fill="#BD4553"/>
<path d="M3500 -7.57367e-06H3505V4.99999H3500V-7.57367e-06Z" fill="#BD4553"/>
<path d="M3515 -7.57367e-06H3520V4.99999H3515V-7.57367e-06Z" fill="#BD4553"/>
<path d="M3520 -7.57367e-06H3525V4.99999H3520V-7.57367e-06Z" fill="#BD4553"/>
<path d="M3525 -7.57367e-06H3530V4.99999H3525V-7.57367e-06Z" fill="#BD4553"/>
<path d="M3530 -7.57367e-06H3535V4.99999H3530V-7.57367e-06Z" fill="#BD4553"/>
<path d="M3545 -7.57367e-06H3550V4.99999H3545V-7.57367e-06Z" fill="#BD4553"/>
<path d="M3550 -7.57367e-06H3555V4.99999H3550V-7.57367e-06Z" fill="#BD4553"/>
<path d="M3555 -7.57367e-06H3560V4.99999H3555V-7.57367e-06Z" fill="#BD4553"/>
<path d="M3560 -7.57367e-06H3565V4.99999H3560V-7.57367e-06Z" fill="#BD4553"/>
<path d="M3565 -7.57367e-06H3570V4.99999H3565V-7.57367e-06Z" fill="#BD4553"/>
<path d="M3570 -7.57367e-06H3575V4.99999H3570V-7.57367e-06Z" fill="#BD4553"/>
<path d="M3580 -7.57367e-06H3585V4.99999H3580V-7.57367e-06Z" fill="#BD4553"/>
<path d="M3590 -7.57367e-06H3595V4.99999H3590V-7.57367e-06Z" fill="#BD4553"/>
<path d="M3600 -7.57367e-06H3605V4.99999H3600V-7.57367e-06Z" fill="#BD4553"/>
<path d="M3605 -7.57367e-06H3610V4.99999H3605V-7.57367e-06Z" fill="#BD4553"/>
<path d="M3610 -7.57367e-06H3615V4.99999H3610V-7.57367e-06Z" fill="#BD4553"/>
<path d="M3615 -7.57367e-06H3620V4.99999H3615V-7.57367e-06Z" fill="#BD4553"/>
<path d="M3620 -7.57367e-06H3625V4.99999H3620V-7.57367e-06Z" fill="#BD4553"/>
<path d="M3625 -7.57367e-06H3630V4.99999H3625V-7.57367e-06Z" fill="#BD4553"/>
<path d="M3630 -7.57367e-06H3635V4.99999H3630V-7.57367e-06Z" fill="#BD4553"/>
<path d="M3635 -7.57367e-06H3640V4.99999H3635V-7.57367e-06Z" fill="#BD4553"/>
<path d="M3640 -7.57367e-06H3645V4.99999H3640V-7.57367e-06Z" fill="#BD4553"/>
<path d="M3645 -7.57367e-06H3650V4.99999H3645V-7.57367e-06Z" fill="#BD4553"/>
<path d="M300 2.85714H305V3.57143H300V2.85714Z" fill="#FFB2AC"/>
<path d="M325 3.33333H330V4.16666H325V3.33333Z" fill="#FFB2AC"/>
<path d="M2100 3.33333H2105V4.99999H2100V3.33333Z" fill="#FFB2AC"/>
<path d="M225 3.74999H230V4.99999H225V3.74999Z" fill="#8C6345"/>
<path d="M270 2.85714H275V3.57143H270V2.85714Z" fill="#8C6345"/>
<path d="M385 3.74999H390V4.99999H385V3.74999Z" fill="#8C6345"/>
<path d="M235 3.33333H240V4.99999H235V3.33333Z" fill="#AA92E3"/>
<path d="M260 2.5H265V3.75H260V2.5Z" fill="#AA92E3"/>
<path d="M265 3.33333H270V4.99999H265V3.33333Z" fill="#AA92E3"/>
<path d="M270 3.57143H275V4.28571H270V3.57143Z" fill="#AA92E3"/>
<path d="M275 3.33333H280V4.16666H275V3.33333Z" fill="#AA92E3"/>
<path d="M290 3.99999H295V4.99999H290V3.99999Z" fill="#AA92E3"/>
<path d="M295 3.33333H300V4.16666H295V3.33333Z" fill="#AA92E3"/>
<path d="M300 3.57143H305V4.28571H300V3.57143Z" fill="#AA92E3"/>
<path d="M305 3.33333H310V4.16666H305V3.33333Z" fill="#AA92E3"/>
<path d="M310 3.33333H315V4.16666H310V3.33333Z" fill="#AA92E3"/>
<path d="M315 3.33333H320V4.16666H315V3.33333Z" fill="#AA92E3"/>
<path d="M330 3.74999H335V4.99999H330V3.74999Z" fill="#AA92E3"/>
<path d="M335 3.99999H340V4.99999H335V3.99999Z" fill="#AA92E3"/>
<path d="M370 2.5H375V3.75H370V2.5Z" fill="#AA92E3"/>
<path d="M395 3.33333H400V4.99999H395V3.33333Z" fill="#AA92E3"/>
<path d="M435 3.99999H440V4.99999H435V3.99999Z" fill="#AA92E3"/>
<path d="M550 3.74999H555V4.99999H550V3.74999Z" fill="#AA92E3"/>
<path d="M610 3.33333H615V4.99999H610V3.33333Z" fill="#AA92E3"/>
<path d="M755 3.33333H760V4.99999H755V3.33333Z" fill="#AA92E3"/>
<path d="M780 2.49999H785V4.99999H780V2.49999Z" fill="#AA92E3"/>
<path d="M855 3.33333H860V4.99999H855V3.33333Z" fill="#AA92E3"/>
<path d="M1185 3.33333H1190V4.99999H1185V3.33333Z" fill="#AA92E3"/>
<path d="M1310 2.49999H1315V4.99999H1310V2.49999Z" fill="#AA92E3"/>
<path d="M1520 2.49999H1525V4.99999H1520V2.49999Z" fill="#AA92E3"/>
<path d="M2275 2.49999H2280V4.99999H2275V2.49999Z" fill="#AA92E3"/>
<path d="M2870 2.49999H2875V4.99999H2870V2.49999Z" fill="#AA92E3"/>
<path d="M2970 2.49999H2975V4.99999H2970V2.49999Z" fill="#AA92E3"/>
<path d="M3240 2.49999H3245V4.99999H3240V2.49999Z" fill="#AA92E3"/>
<path d="M3250 2.49999H3255V4.99999H3250V2.49999Z" fill="#AA92E3"/>
<path d="M3535 -7.57367e-06H3540V4.99999H3535V-7.57367e-06Z" fill="#AA92E3"/>
<path d="M260 3.74999H265V4.99999H260V3.74999Z" fill="#257DCC"/>
<path d="M270 4.28571H275V4.99999H270V4.28571Z" fill="#257DCC"/>
<path d="M275 4.16666H280V4.99999H275V4.16666Z" fill="#257DCC"/>
<path d="M280 3.74999H285V4.99999H280V3.74999Z" fill="#257DCC"/>
<path d="M285 3.99999H290V4.99999H285V3.99999Z" fill="#257DCC"/>
<path d="M295 4.16666H300V4.99999H295V4.16666Z" fill="#257DCC"/>
<path d="M300 4.28571H305V4.99999H300V4.28571Z" fill="#257DCC"/>
<path d="M305 4.16666H310V4.99999H305V4.16666Z" fill="#257DCC"/>
<path d="M310 4.16666H315V4.99999H310V4.16666Z" fill="#257DCC"/>
<path d="M315 4.16666H320V4.99999H315V4.16666Z" fill="#257DCC"/>
<path d="M325 4.16666H330V4.99999H325V4.16666Z" fill="#257DCC"/>
<path d="M340 3.74999H345V4.99999H340V3.74999Z" fill="#257DCC"/>
<path d="M345 3.74999H350V4.99999H345V3.74999Z" fill="#257DCC"/>
<path d="M350 3.33333H355V4.99999H350V3.33333Z" fill="#257DCC"/>
<path d="M355 3.74999H360V4.99999H355V3.74999Z" fill="#257DCC"/>
<path d="M370 3.74999H375V4.99999H370V3.74999Z" fill="#257DCC"/>
<path d="M375 3.99999H380V4.99999H375V3.99999Z" fill="#257DCC"/>
<path d="M400 3.33333H405V4.99999H400V3.33333Z" fill="#257DCC"/>
<path d="M410 3.99999H415V4.99999H410V3.99999Z" fill="#257DCC"/>
<path d="M415 3.33333H420V4.99999H415V3.33333Z" fill="#257DCC"/>
<path d="M420 3.33333H425V4.99999H420V3.33333Z" fill="#257DCC"/>
<path d="M440 3.33333H445V4.99999H440V3.33333Z" fill="#257DCC"/>
<path d="M445 3.33333H450V4.99999H445V3.33333Z" fill="#257DCC"/>
<path d="M450 3.33333H455V4.99999H450V3.33333Z" fill="#257DCC"/>
<path d="M455 3.33333H460V4.99999H455V3.33333Z" fill="#257DCC"/>
<path d="M470 3.33333H475V4.99999H470V3.33333Z" fill="#257DCC"/>
<path d="M475 3.33333H480V4.99999H475V3.33333Z" fill="#257DCC"/>
<path d="M480 3.33333H485V4.99999H480V3.33333Z" fill="#257DCC"/>
<path d="M530 2.49999H535V4.99999H530V2.49999Z" fill="#257DCC"/>
<path d="M555 2.49999H560V4.99999H555V2.49999Z" fill="#257DCC"/>
<path d="M560 2.49999H565V4.99999H560V2.49999Z" fill="#257DCC"/>
<path d="M590 3.33333H595V4.99999H590V3.33333Z" fill="#257DCC"/>
<path d="M695 2.49999H700V4.99999H695V2.49999Z" fill="#257DCC"/>
<path d="M720 3.33333H725V4.99999H720V3.33333Z" fill="#257DCC"/>
<path d="M820 3.33333H825V4.99999H820V3.33333Z" fill="#257DCC"/>
<path d="M865 2.49999H870V4.99999H865V2.49999Z" fill="#257DCC"/>
<path d="M890 3.33333H895V4.99999H890V3.33333Z" fill="#257DCC"/>
<path d="M895 3.33333H900V4.99999H895V3.33333Z" fill="#257DCC"/>
<path d="M900 3.33333H905V4.99999H900V3.33333Z" fill="#257DCC"/>
<path d="M1010 2.49999H1015V4.99999H1010V2.49999Z" fill="#257DCC"/>
<path d="M1020 2.49999H1025V4.99999H1020V2.49999Z" fill="#257DCC"/>
<path d="M1135 3.33333H1140V4.99999H1135V3.33333Z" fill="#257DCC"/>
<path d="M1205 3.33333H1210V4.99999H1205V3.33333Z" fill="#257DCC"/>
<path d="M1220 3.33333H1225V4.99999H1220V3.33333Z" fill="#257DCC"/>
<path d="M1235 3.33333H1240V4.99999H1235V3.33333Z" fill="#257DCC"/>
<path d="M1255 2.49999H1260V4.99999H1255V2.49999Z" fill="#257DCC"/>
<path d="M1350 3.33333H1355V4.99999H1350V3.33333Z" fill="#257DCC"/>
<path d="M1365 2.49999H1370V4.99999H1365V2.49999Z" fill="#257DCC"/>
<path d="M1420 2.49999H1425V4.99999H1420V2.49999Z" fill="#257DCC"/>
<path d="M1435 2.49999H1440V4.99999H1435V2.49999Z" fill="#257DCC"/>
<path d="M2175 -7.57367e-06H2180V4.99999H2175V-7.57367e-06Z" fill="#257DCC"/>
<path d="M2310 2.49999H2315V4.99999H2310V2.49999Z" fill="#257DCC"/>
<path d="M2325 -7.57367e-06H2330V4.99999H2325V-7.57367e-06Z" fill="#257DCC"/>
<path d="M2330 2.49999H2335V4.99999H2330V2.49999Z" fill="#257DCC"/>
<path d="M2820 2.49999H2825V4.99999H2820V2.49999Z" fill="#257DCC"/>
<path d="M2935 2.49999H2940V4.99999H2935V2.49999Z" fill="#257DCC"/>
<path d="M2945 2.49999H2950V4.99999H2945V2.49999Z" fill="#257DCC"/>
<path d="M2965 2.49999H2970V4.99999H2965V2.49999Z" fill="#257DCC"/>
<path d="M2980 2.49999H2985V4.99999H2980V2.49999Z" fill="#257DCC"/>
<path d="M3245 -7.57367e-06H3250V4.99999H3245V-7.57367e-06Z" fill="#257DCC"/>
<path d="M1380 2.49999H1385V4.99999H1380V2.49999Z" fill="#9BB95A"/>
<path d="M1555 2.49999H1560V4.99999H1555V2.49999Z" fill="#9BB95A"/>
<path d="M20.0001 -7.57367e-06H25.0001V4.99999H20.0001V-7.57367e-06Z" fill="#E3DFCF"/>
<path d="M30.0001 -7.57367e-06H35.0001V4.99999H30.0001V-7.57367e-06Z" fill="#E3DFCF"/>
<path d="M35 -7.57367e-06H40V4.99999H35V-7.57367e-06Z" fill="#E3DFCF"/>
<path d="M40 -7.57367e-06H45V4.99999H40V-7.57367e-06Z" fill="#E3DFCF"/>
<path d="M55 -7.57367e-06H60V4.99999H55V-7.57367e-06Z" fill="#E3DFCF"/>
<path d="M60 -7.57367e-06H65V4.99999H60V-7.57367e-06Z" fill="#E3DFCF"/>
<path d="M65 -7.57367e-06H70V4.99999H65V-7.57367e-06Z" fill="#E3DFCF"/>
<path d="M75.0001 -7.57367e-06H80.0001V4.99999H75.0001V-7.57367e-06Z" fill="#E3DFCF"/>
<path d="M80 -7.57367e-06H85V4.99999H80V-7.57367e-06Z" fill="#E3DFCF"/>
<path d="M740 -7.57367e-06H745V4.99999H740V-7.57367e-06Z" fill="#E3DFCF"/>
<path d="M1090 -7.57367e-06H1095V4.99999H1090V-7.57367e-06Z" fill="#E3DFCF"/>
<path d="M1440 -7.57367e-06H1445V4.99999H1440V-7.57367e-06Z" fill="#E3DFCF"/>
<path d="M1715 -7.57367e-06H1720V4.99999H1715V-7.57367e-06Z" fill="#E3DFCF"/>
<path d="M1810 -7.57367e-06H1815V4.99999H1810V-7.57367e-06Z" fill="#E3DFCF"/>
<path d="M1930 -7.57367e-06H1935V4.99999H1930V-7.57367e-06Z" fill="#E3DFCF"/>
<path d="M2345 -7.57367e-06H2350V4.99999H2345V-7.57367e-06Z" fill="#E3DFCF"/>
<path d="M2350 -7.57367e-06H2355V4.99999H2350V-7.57367e-06Z" fill="#E3DFCF"/>
<path d="M2390 -7.57367e-06H2395V4.99999H2390V-7.57367e-06Z" fill="#E3DFCF"/>
<path d="M2835 -7.57367e-06H2840V4.99999H2835V-7.57367e-06Z" fill="#E3DFCF"/>
<path d="M2840 -7.57367e-06H2845V4.99999H2840V-7.57367e-06Z" fill="#E3DFCF"/>
<path d="M2975 -7.57367e-06H2980V4.99999H2975V-7.57367e-06Z" fill="#E3DFCF"/>
<path d="M3035 -7.57367e-06H3040V4.99999H3035V-7.57367e-06Z" fill="#E3DFCF"/>
<path d="M3045 -7.57367e-06H3050V4.99999H3045V-7.57367e-06Z" fill="#E3DFCF"/>
<path d="M3050 -7.57367e-06H3055V4.99999H3050V-7.57367e-06Z" fill="#E3DFCF"/>
<path d="M3080 -7.57367e-06H3085V4.99999H3080V-7.57367e-06Z" fill="#E3DFCF"/>
<path d="M3180 -7.57367e-06H3185V4.99999H3180V-7.57367e-06Z" fill="#E3DFCF"/>
<path d="M3185 -7.57367e-06H3190V4.99999H3185V-7.57367e-06Z" fill="#E3DFCF"/>
<path d="M3225 -7.57367e-06H3230V4.99999H3225V-7.57367e-06Z" fill="#E3DFCF"/>
<path d="M3230 -7.57367e-06H3235V4.99999H3230V-7.57367e-06Z" fill="#E3DFCF"/>
<path d="M3265 -7.57367e-06H3270V4.99999H3265V-7.57367e-06Z" fill="#E3DFCF"/>
<path d="M3270 -7.57367e-06H3275V4.99999H3270V-7.57367e-06Z" fill="#E3DFCF"/>
<path d="M3300 -7.57367e-06H3305V4.99999H3300V-7.57367e-06Z" fill="#E3DFCF"/>
<path d="M3305 -7.57367e-06H3310V4.99999H3305V-7.57367e-06Z" fill="#E3DFCF"/>
<path d="M3320 -7.57367e-06H3325V4.99999H3320V-7.57367e-06Z" fill="#E3DFCF"/>
<path d="M3325 -7.57367e-06H3330V4.99999H3325V-7.57367e-06Z" fill="#E3DFCF"/>
<path d="M3330 -7.57367e-06H3335V4.99999H3330V-7.57367e-06Z" fill="#E3DFCF"/>
<path d="M3360 -7.57367e-06H3365V4.99999H3360V-7.57367e-06Z" fill="#E3DFCF"/>
<path d="M3365 -7.57367e-06H3370V4.99999H3365V-7.57367e-06Z" fill="#E3DFCF"/>
<path d="M3395 -7.57367e-06H3400V4.99999H3395V-7.57367e-06Z" fill="#E3DFCF"/>
<path d="M3400 -7.57367e-06H3405V4.99999H3400V-7.57367e-06Z" fill="#E3DFCF"/>
<path d="M3425 -7.57367e-06H3430V4.99999H3425V-7.57367e-06Z" fill="#E3DFCF"/>
<path d="M3430 -7.57367e-06H3435V4.99999H3430V-7.57367e-06Z" fill="#E3DFCF"/>
<path d="M3435 -7.57367e-06H3440V4.99999H3435V-7.57367e-06Z" fill="#E3DFCF"/>
<path d="M3445 -7.57367e-06H3450V4.99999H3445V-7.57367e-06Z" fill="#E3DFCF"/>
<path d="M3460 -7.57367e-06H3465V4.99999H3460V-7.57367e-06Z" fill="#E3DFCF"/>
<path d="M3470 -7.57367e-06H3475V4.99999H3470V-7.57367e-06Z" fill="#E3DFCF"/>
<path d="M3480 -7.57367e-06H3485V4.99999H3480V-7.57367e-06Z" fill="#E3DFCF"/>
<path d="M3495 -7.57367e-06H3500V4.99999H3495V-7.57367e-06Z" fill="#E3DFCF"/>
<path d="M3505 -7.57367e-06H3510V4.99999H3505V-7.57367e-06Z" fill="#E3DFCF"/>
<path d="M3510 -7.57367e-06H3515V4.99999H3510V-7.57367e-06Z" fill="#E3DFCF"/>
<path d="M3540 -7.57367e-06H3545V4.99999H3540V-7.57367e-06Z" fill="#E3DFCF"/>
<path d="M3575 -7.57367e-06H3580V4.99999H3575V-7.57367e-06Z" fill="#E3DFCF"/>
<path d="M3585 -7.57367e-06H3590V4.99999H3585V-7.57367e-06Z" fill="#E3DFCF"/>
<path d="M3595 -7.57367e-06H3600V4.99999H3595V-7.57367e-06Z" fill="#E3DFCF"/>
</svg>
