<svg width="3650" height="5" viewBox="0 0 3650 5" fill="none" xmlns="http://www.w3.org/2000/svg">
<path d="M660 2.78606e-08H665V2.5H660V2.78606e-08Z" fill="#FF3D00"/>
<path d="M670 2.78606e-08H675V2.5H670V2.78606e-08Z" fill="#FF3D00"/>
<path d="M720 5.57212e-08H725V5H720V5.57212e-08Z" fill="#FF3D00"/>
<path d="M550 5.57212e-08H555V5H550V5.57212e-08Z" fill="#4ADADA"/>
<path d="M650 5.57212e-08H655V5H650V5.57212e-08Z" fill="#4ADADA"/>
<path d="M655 5.57212e-08H660V5H655V5.57212e-08Z" fill="#4ADADA"/>
<path d="M660 2.5H665V5H660V2.5Z" fill="#4ADADA"/>
<path d="M665 2.78606e-08H670V2.5H665V2.78606e-08Z" fill="#4ADADA"/>
<path d="M670 2.5H675V5H670V2.5Z" fill="#4ADADA"/>
<path d="M675 -1.02795e-05H680V1.66666H675V-1.02795e-05Z" fill="#4ADADA"/>
<path d="M680 2.78606e-08H685V2.5H680V2.78606e-08Z" fill="#4ADADA"/>
<path d="M685 5.57212e-08H690V5H685V5.57212e-08Z" fill="#4ADADA"/>
<path d="M690 5.57212e-08H695V5H690V5.57212e-08Z" fill="#4ADADA"/>
<path d="M700 5.57212e-08H705V5H700V5.57212e-08Z" fill="#4ADADA"/>
<path d="M705 5.57212e-08H710V5H705V5.57212e-08Z" fill="#4ADADA"/>
<path d="M730 5.57212e-08H735V5H730V5.57212e-08Z" fill="#4ADADA"/>
<path d="M755 5.57212e-08H760V5H755V5.57212e-08Z" fill="#4ADADA"/>
<path d="M760 5.57212e-08H765V5H760V5.57212e-08Z" fill="#4ADADA"/>
<path d="M790 5.57212e-08H795V5H790V5.57212e-08Z" fill="#4ADADA"/>
<path d="M915 5.57212e-08H920V5H915V5.57212e-08Z" fill="#4ADADA"/>
<path d="M2480 5.57212e-08H2485V5H2480V5.57212e-08Z" fill="#4ADADA"/>
<path d="M2490 5.57212e-08H2495V5H2490V5.57212e-08Z" fill="#4ADADA"/>
<path d="M2670 5.57212e-08H2675V5H2670V5.57212e-08Z" fill="#4ADADA"/>
<path d="M2675 5.57212e-08H2680V5H2675V5.57212e-08Z" fill="#4ADADA"/>
<path d="M2690 5.57212e-08H2695V5H2690V5.57212e-08Z" fill="#4ADADA"/>
<path d="M2695 5.57212e-08H2700V5H2695V5.57212e-08Z" fill="#4ADADA"/>
<path d="M2700 5.57212e-08H2705V5H2700V5.57212e-08Z" fill="#4ADADA"/>
<path d="M2705 5.57212e-08H2710V5H2705V5.57212e-08Z" fill="#4ADADA"/>
<path d="M2710 5.57212e-08H2715V5H2710V5.57212e-08Z" fill="#4ADADA"/>
<path d="M675 1.66668H680V3.33334H675V1.66668Z" fill="#FFB2AC"/>
<path d="M665 2.5H670V5H665V2.5Z" fill="#8C6345"/>
<path d="M675 3.33333H680V5H675V3.33333Z" fill="#8C6345"/>
<path d="M680 2.5H685V5H680V2.5Z" fill="#8C6345"/>
<path d="M555 5.57212e-08H560V5H555V5.57212e-08Z" fill="#E3DFCF"/>
<path d="M560 5.57212e-08H565V5H560V5.57212e-08Z" fill="#E3DFCF"/>
<path d="M565 5.57212e-08H570V5H565V5.57212e-08Z" fill="#E3DFCF"/>
<path d="M570 5.57212e-08H575V5H570V5.57212e-08Z" fill="#E3DFCF"/>
<path d="M575 5.57212e-08H580V5H575V5.57212e-08Z" fill="#E3DFCF"/>
<path d="M580 5.57212e-08H585V5H580V5.57212e-08Z" fill="#E3DFCF"/>
<path d="M585 5.57212e-08H590V5H585V5.57212e-08Z" fill="#E3DFCF"/>
<path d="M590 5.57212e-08H595V5H590V5.57212e-08Z" fill="#E3DFCF"/>
<path d="M595 5.57212e-08H600V5H595V5.57212e-08Z" fill="#E3DFCF"/>
<path d="M600 5.57212e-08H605V5H600V5.57212e-08Z" fill="#E3DFCF"/>
<path d="M605 5.57212e-08H610V5H605V5.57212e-08Z" fill="#E3DFCF"/>
<path d="M610 5.57212e-08H615V5H610V5.57212e-08Z" fill="#E3DFCF"/>
<path d="M615 5.57212e-08H620V5H615V5.57212e-08Z" fill="#E3DFCF"/>
<path d="M620 5.57212e-08H625V5H620V5.57212e-08Z" fill="#E3DFCF"/>
<path d="M625 5.57212e-08H630V5H625V5.57212e-08Z" fill="#E3DFCF"/>
<path d="M630 5.57212e-08H635V5H630V5.57212e-08Z" fill="#E3DFCF"/>
<path d="M635 5.57212e-08H640V5H635V5.57212e-08Z" fill="#E3DFCF"/>
<path d="M640 5.57212e-08H645V5H640V5.57212e-08Z" fill="#E3DFCF"/>
<path d="M645 5.57212e-08H650V5H645V5.57212e-08Z" fill="#E3DFCF"/>
<path d="M695 5.57212e-08H700V5H695V5.57212e-08Z" fill="#E3DFCF"/>
<path d="M710 5.57212e-08H715V5H710V5.57212e-08Z" fill="#E3DFCF"/>
<path d="M715 5.57212e-08H720V5H715V5.57212e-08Z" fill="#E3DFCF"/>
<path d="M725 5.57212e-08H730V5H725V5.57212e-08Z" fill="#E3DFCF"/>
<path d="M735 5.57212e-08H740V5H735V5.57212e-08Z" fill="#E3DFCF"/>
<path d="M740 5.57212e-08H745V5H740V5.57212e-08Z" fill="#E3DFCF"/>
<path d="M745 5.57212e-08H750V5H745V5.57212e-08Z" fill="#E3DFCF"/>
<path d="M750 5.57212e-08H755V5H750V5.57212e-08Z" fill="#E3DFCF"/>
<path d="M765 5.57212e-08H770V5H765V5.57212e-08Z" fill="#E3DFCF"/>
<path d="M770 5.57212e-08H775V5H770V5.57212e-08Z" fill="#E3DFCF"/>
<path d="M775 5.57212e-08H780V5H775V5.57212e-08Z" fill="#E3DFCF"/>
<path d="M780 5.57212e-08H785V5H780V5.57212e-08Z" fill="#E3DFCF"/>
<path d="M785 5.57212e-08H790V5H785V5.57212e-08Z" fill="#E3DFCF"/>
<path d="M795 5.57212e-08H800V5H795V5.57212e-08Z" fill="#E3DFCF"/>
<path d="M800 5.57212e-08H805V5H800V5.57212e-08Z" fill="#E3DFCF"/>
<path d="M805 5.57212e-08H810V5H805V5.57212e-08Z" fill="#E3DFCF"/>
<path d="M810 5.57212e-08H815V5H810V5.57212e-08Z" fill="#E3DFCF"/>
<path d="M815 5.57212e-08H820V5H815V5.57212e-08Z" fill="#E3DFCF"/>
<path d="M820 5.57212e-08H825V5H820V5.57212e-08Z" fill="#E3DFCF"/>
<path d="M825 5.57212e-08H830V5H825V5.57212e-08Z" fill="#E3DFCF"/>
<path d="M830 5.57212e-08H835V5H830V5.57212e-08Z" fill="#E3DFCF"/>
<path d="M835 5.57212e-08H840V5H835V5.57212e-08Z" fill="#E3DFCF"/>
<path d="M840 5.57212e-08H845V5H840V5.57212e-08Z" fill="#E3DFCF"/>
<path d="M845 5.57212e-08H850V5H845V5.57212e-08Z" fill="#E3DFCF"/>
<path d="M850 5.57212e-08H855V5H850V5.57212e-08Z" fill="#E3DFCF"/>
<path d="M855 5.57212e-08H860V5H855V5.57212e-08Z" fill="#E3DFCF"/>
<path d="M860 5.57212e-08H865V5H860V5.57212e-08Z" fill="#E3DFCF"/>
<path d="M865 5.57212e-08H870V5H865V5.57212e-08Z" fill="#E3DFCF"/>
<path d="M870 5.57212e-08H875V5H870V5.57212e-08Z" fill="#E3DFCF"/>
<path d="M875 5.57212e-08H880V5H875V5.57212e-08Z" fill="#E3DFCF"/>
<path d="M880 5.57212e-08H885V5H880V5.57212e-08Z" fill="#E3DFCF"/>
<path d="M885 5.57212e-08H890V5H885V5.57212e-08Z" fill="#E3DFCF"/>
<path d="M890 5.57212e-08H895V5H890V5.57212e-08Z" fill="#E3DFCF"/>
<path d="M895 5.57212e-08H900V5H895V5.57212e-08Z" fill="#E3DFCF"/>
<path d="M900 5.57212e-08H905V5H900V5.57212e-08Z" fill="#E3DFCF"/>
<path d="M905 5.57212e-08H910V5H905V5.57212e-08Z" fill="#E3DFCF"/>
<path d="M910 5.57212e-08H915V5H910V5.57212e-08Z" fill="#E3DFCF"/>
<path d="M920 5.57212e-08H925V5H920V5.57212e-08Z" fill="#E3DFCF"/>
<path d="M925 5.57212e-08H930V5H925V5.57212e-08Z" fill="#E3DFCF"/>
<path d="M930 5.57212e-08H935V5H930V5.57212e-08Z" fill="#E3DFCF"/>
<path d="M935 5.57212e-08H940V5H935V5.57212e-08Z" fill="#E3DFCF"/>
<path d="M940 5.57212e-08H945V5H940V5.57212e-08Z" fill="#E3DFCF"/>
<path d="M945 5.57212e-08H950V5H945V5.57212e-08Z" fill="#E3DFCF"/>
<path d="M950 5.57212e-08H955V5H950V5.57212e-08Z" fill="#E3DFCF"/>
<path d="M955 5.57212e-08H960V5H955V5.57212e-08Z" fill="#E3DFCF"/>
<path d="M960 5.57212e-08H965V5H960V5.57212e-08Z" fill="#E3DFCF"/>
<path d="M965 5.57212e-08H970V5H965V5.57212e-08Z" fill="#E3DFCF"/>
<path d="M970 5.57212e-08H975V5H970V5.57212e-08Z" fill="#E3DFCF"/>
<path d="M975 5.57212e-08H980V5H975V5.57212e-08Z" fill="#E3DFCF"/>
<path d="M980 5.57212e-08H985V5H980V5.57212e-08Z" fill="#E3DFCF"/>
<path d="M985 5.57212e-08H990V5H985V5.57212e-08Z" fill="#E3DFCF"/>
<path d="M990 5.57212e-08H995V5H990V5.57212e-08Z" fill="#E3DFCF"/>
<path d="M995 5.57212e-08H1000V5H995V5.57212e-08Z" fill="#E3DFCF"/>
<path d="M1000 5.57212e-08H1005V5H1000V5.57212e-08Z" fill="#E3DFCF"/>
<path d="M1005 5.57212e-08H1010V5H1005V5.57212e-08Z" fill="#E3DFCF"/>
<path d="M1010 5.57212e-08H1015V5H1010V5.57212e-08Z" fill="#E3DFCF"/>
<path d="M1015 5.57212e-08H1020V5H1015V5.57212e-08Z" fill="#E3DFCF"/>
<path d="M1020 5.57212e-08H1025V5H1020V5.57212e-08Z" fill="#E3DFCF"/>
<path d="M1025 5.57212e-08H1030V5H1025V5.57212e-08Z" fill="#E3DFCF"/>
<path d="M1030 5.57212e-08H1035V5H1030V5.57212e-08Z" fill="#E3DFCF"/>
<path d="M1035 5.57212e-08H1040V5H1035V5.57212e-08Z" fill="#E3DFCF"/>
<path d="M1040 5.57212e-08H1045V5H1040V5.57212e-08Z" fill="#E3DFCF"/>
<path d="M1045 5.57212e-08H1050V5H1045V5.57212e-08Z" fill="#E3DFCF"/>
<path d="M1050 5.57212e-08H1055V5H1050V5.57212e-08Z" fill="#E3DFCF"/>
<path d="M1055 5.57212e-08H1060V5H1055V5.57212e-08Z" fill="#E3DFCF"/>
<path d="M1060 5.57212e-08H1065V5H1060V5.57212e-08Z" fill="#E3DFCF"/>
<path d="M1065 5.57212e-08H1070V5H1065V5.57212e-08Z" fill="#E3DFCF"/>
<path d="M1070 5.57212e-08H1075V5H1070V5.57212e-08Z" fill="#E3DFCF"/>
<path d="M1075 5.57212e-08H1080V5H1075V5.57212e-08Z" fill="#E3DFCF"/>
<path d="M1080 5.57212e-08H1085V5H1080V5.57212e-08Z" fill="#E3DFCF"/>
<path d="M1085 5.57212e-08H1090V5H1085V5.57212e-08Z" fill="#E3DFCF"/>
<path d="M1090 5.57212e-08H1095V5H1090V5.57212e-08Z" fill="#E3DFCF"/>
<path d="M1095 5.57212e-08H1100V5H1095V5.57212e-08Z" fill="#E3DFCF"/>
<path d="M1100 5.57212e-08H1105V5H1100V5.57212e-08Z" fill="#E3DFCF"/>
<path d="M1105 5.57212e-08H1110V5H1105V5.57212e-08Z" fill="#E3DFCF"/>
<path d="M1110 5.57212e-08H1115V5H1110V5.57212e-08Z" fill="#E3DFCF"/>
<path d="M1115 5.57212e-08H1120V5H1115V5.57212e-08Z" fill="#E3DFCF"/>
<path d="M1120 5.57212e-08H1125V5H1120V5.57212e-08Z" fill="#E3DFCF"/>
<path d="M1125 5.57212e-08H1130V5H1125V5.57212e-08Z" fill="#E3DFCF"/>
<path d="M1130 5.57212e-08H1135V5H1130V5.57212e-08Z" fill="#E3DFCF"/>
<path d="M1135 5.57212e-08H1140V5H1135V5.57212e-08Z" fill="#E3DFCF"/>
<path d="M1140 5.57212e-08H1145V5H1140V5.57212e-08Z" fill="#E3DFCF"/>
<path d="M1145 5.57212e-08H1150V5H1145V5.57212e-08Z" fill="#E3DFCF"/>
<path d="M1150 5.57212e-08H1155V5H1150V5.57212e-08Z" fill="#E3DFCF"/>
<path d="M1155 5.57212e-08H1160V5H1155V5.57212e-08Z" fill="#E3DFCF"/>
<path d="M1160 5.57212e-08H1165V5H1160V5.57212e-08Z" fill="#E3DFCF"/>
<path d="M1165 5.57212e-08H1170V5H1165V5.57212e-08Z" fill="#E3DFCF"/>
<path d="M1170 5.57212e-08H1175V5H1170V5.57212e-08Z" fill="#E3DFCF"/>
<path d="M1175 5.57212e-08H1180V5H1175V5.57212e-08Z" fill="#E3DFCF"/>
<path d="M1180 5.57212e-08H1185V5H1180V5.57212e-08Z" fill="#E3DFCF"/>
<path d="M1185 5.57212e-08H1190V5H1185V5.57212e-08Z" fill="#E3DFCF"/>
<path d="M1190 5.57212e-08H1195V5H1190V5.57212e-08Z" fill="#E3DFCF"/>
<path d="M1195 5.57212e-08H1200V5H1195V5.57212e-08Z" fill="#E3DFCF"/>
<path d="M1200 5.57212e-08H1205V5H1200V5.57212e-08Z" fill="#E3DFCF"/>
<path d="M1205 5.57212e-08H1210V5H1205V5.57212e-08Z" fill="#E3DFCF"/>
<path d="M1210 5.57212e-08H1215V5H1210V5.57212e-08Z" fill="#E3DFCF"/>
<path d="M1215 5.57212e-08H1220V5H1215V5.57212e-08Z" fill="#E3DFCF"/>
<path d="M1220 5.57212e-08H1225V5H1220V5.57212e-08Z" fill="#E3DFCF"/>
<path d="M1225 5.57212e-08H1230V5H1225V5.57212e-08Z" fill="#E3DFCF"/>
<path d="M1230 5.57212e-08H1235V5H1230V5.57212e-08Z" fill="#E3DFCF"/>
<path d="M1235 5.57212e-08H1240V5H1235V5.57212e-08Z" fill="#E3DFCF"/>
<path d="M1240 5.57212e-08H1245V5H1240V5.57212e-08Z" fill="#E3DFCF"/>
<path d="M1245 5.57212e-08H1250V5H1245V5.57212e-08Z" fill="#E3DFCF"/>
<path d="M1250 5.57212e-08H1255V5H1250V5.57212e-08Z" fill="#E3DFCF"/>
<path d="M1255 5.57212e-08H1260V5H1255V5.57212e-08Z" fill="#E3DFCF"/>
<path d="M1260 5.57212e-08H1265V5H1260V5.57212e-08Z" fill="#E3DFCF"/>
<path d="M1265 5.57212e-08H1270V5H1265V5.57212e-08Z" fill="#E3DFCF"/>
<path d="M1270 5.57212e-08H1275V5H1270V5.57212e-08Z" fill="#E3DFCF"/>
<path d="M1275 5.57212e-08H1280V5H1275V5.57212e-08Z" fill="#E3DFCF"/>
<path d="M1280 5.57212e-08H1285V5H1280V5.57212e-08Z" fill="#E3DFCF"/>
<path d="M1285 5.57212e-08H1290V5H1285V5.57212e-08Z" fill="#E3DFCF"/>
<path d="M1290 5.57212e-08H1295V5H1290V5.57212e-08Z" fill="#E3DFCF"/>
<path d="M1295 5.57212e-08H1300V5H1295V5.57212e-08Z" fill="#E3DFCF"/>
<path d="M1300 5.57212e-08H1305V5H1300V5.57212e-08Z" fill="#E3DFCF"/>
<path d="M1305 5.57212e-08H1310V5H1305V5.57212e-08Z" fill="#E3DFCF"/>
<path d="M1310 5.57212e-08H1315V5H1310V5.57212e-08Z" fill="#E3DFCF"/>
<path d="M1315 5.57212e-08H1320V5H1315V5.57212e-08Z" fill="#E3DFCF"/>
<path d="M1320 5.57212e-08H1325V5H1320V5.57212e-08Z" fill="#E3DFCF"/>
<path d="M1325 5.57212e-08H1330V5H1325V5.57212e-08Z" fill="#E3DFCF"/>
<path d="M1330 5.57212e-08H1335V5H1330V5.57212e-08Z" fill="#E3DFCF"/>
<path d="M1335 5.57212e-08H1340V5H1335V5.57212e-08Z" fill="#E3DFCF"/>
<path d="M1340 5.57212e-08H1345V5H1340V5.57212e-08Z" fill="#E3DFCF"/>
<path d="M1345 5.57212e-08H1350V5H1345V5.57212e-08Z" fill="#E3DFCF"/>
<path d="M1350 5.57212e-08H1355V5H1350V5.57212e-08Z" fill="#E3DFCF"/>
<path d="M1355 5.57212e-08H1360V5H1355V5.57212e-08Z" fill="#E3DFCF"/>
<path d="M1360 5.57212e-08H1365V5H1360V5.57212e-08Z" fill="#E3DFCF"/>
<path d="M1365 5.57212e-08H1370V5H1365V5.57212e-08Z" fill="#E3DFCF"/>
<path d="M1370 5.57212e-08H1375V5H1370V5.57212e-08Z" fill="#E3DFCF"/>
<path d="M1375 5.57212e-08H1380V5H1375V5.57212e-08Z" fill="#E3DFCF"/>
<path d="M1380 5.57212e-08H1385V5H1380V5.57212e-08Z" fill="#E3DFCF"/>
<path d="M1385 5.57212e-08H1390V5H1385V5.57212e-08Z" fill="#E3DFCF"/>
<path d="M1390 5.57212e-08H1395V5H1390V5.57212e-08Z" fill="#E3DFCF"/>
<path d="M1395 5.57212e-08H1400V5H1395V5.57212e-08Z" fill="#E3DFCF"/>
<path d="M1400 5.57212e-08H1405V5H1400V5.57212e-08Z" fill="#E3DFCF"/>
<path d="M1405 5.57212e-08H1410V5H1405V5.57212e-08Z" fill="#E3DFCF"/>
<path d="M1410 5.57212e-08H1415V5H1410V5.57212e-08Z" fill="#E3DFCF"/>
<path d="M1415 5.57212e-08H1420V5H1415V5.57212e-08Z" fill="#E3DFCF"/>
<path d="M1420 5.57212e-08H1425V5H1420V5.57212e-08Z" fill="#E3DFCF"/>
<path d="M1425 5.57212e-08H1430V5H1425V5.57212e-08Z" fill="#E3DFCF"/>
<path d="M1430 5.57212e-08H1435V5H1430V5.57212e-08Z" fill="#E3DFCF"/>
<path d="M1435 5.57212e-08H1440V5H1435V5.57212e-08Z" fill="#E3DFCF"/>
<path d="M1440 5.57212e-08H1445V5H1440V5.57212e-08Z" fill="#E3DFCF"/>
<path d="M1445 5.57212e-08H1450V5H1445V5.57212e-08Z" fill="#E3DFCF"/>
<path d="M1450 5.57212e-08H1455V5H1450V5.57212e-08Z" fill="#E3DFCF"/>
<path d="M1455 5.57212e-08H1460V5H1455V5.57212e-08Z" fill="#E3DFCF"/>
<path d="M1460 5.57212e-08H1465V5H1460V5.57212e-08Z" fill="#E3DFCF"/>
<path d="M1465 5.57212e-08H1470V5H1465V5.57212e-08Z" fill="#E3DFCF"/>
<path d="M1470 5.57212e-08H1475V5H1470V5.57212e-08Z" fill="#E3DFCF"/>
<path d="M1475 5.57212e-08H1480V5H1475V5.57212e-08Z" fill="#E3DFCF"/>
<path d="M1480 5.57212e-08H1485V5H1480V5.57212e-08Z" fill="#E3DFCF"/>
<path d="M1485 5.57212e-08H1490V5H1485V5.57212e-08Z" fill="#E3DFCF"/>
<path d="M1490 5.57212e-08H1495V5H1490V5.57212e-08Z" fill="#E3DFCF"/>
<path d="M1495 5.57212e-08H1500V5H1495V5.57212e-08Z" fill="#E3DFCF"/>
<path d="M1500 5.57212e-08H1505V5H1500V5.57212e-08Z" fill="#E3DFCF"/>
<path d="M1505 5.57212e-08H1510V5H1505V5.57212e-08Z" fill="#E3DFCF"/>
<path d="M1510 5.57212e-08H1515V5H1510V5.57212e-08Z" fill="#E3DFCF"/>
<path d="M1515 5.57212e-08H1520V5H1515V5.57212e-08Z" fill="#E3DFCF"/>
<path d="M1520 5.57212e-08H1525V5H1520V5.57212e-08Z" fill="#E3DFCF"/>
<path d="M1525 5.57212e-08H1530V5H1525V5.57212e-08Z" fill="#E3DFCF"/>
<path d="M1530 5.57212e-08H1535V5H1530V5.57212e-08Z" fill="#E3DFCF"/>
<path d="M1535 5.57212e-08H1540V5H1535V5.57212e-08Z" fill="#E3DFCF"/>
<path d="M1540 5.57212e-08H1545V5H1540V5.57212e-08Z" fill="#E3DFCF"/>
<path d="M1545 5.57212e-08H1550V5H1545V5.57212e-08Z" fill="#E3DFCF"/>
<path d="M1550 5.57212e-08H1555V5H1550V5.57212e-08Z" fill="#E3DFCF"/>
<path d="M1555 5.57212e-08H1560V5H1555V5.57212e-08Z" fill="#E3DFCF"/>
<path d="M1560 5.57212e-08H1565V5H1560V5.57212e-08Z" fill="#E3DFCF"/>
<path d="M1565 5.57212e-08H1570V5H1565V5.57212e-08Z" fill="#E3DFCF"/>
<path d="M1570 5.57212e-08H1575V5H1570V5.57212e-08Z" fill="#E3DFCF"/>
<path d="M1575 5.57212e-08H1580V5H1575V5.57212e-08Z" fill="#E3DFCF"/>
<path d="M1580 5.57212e-08H1585V5H1580V5.57212e-08Z" fill="#E3DFCF"/>
<path d="M1585 5.57212e-08H1590V5H1585V5.57212e-08Z" fill="#E3DFCF"/>
<path d="M1590 5.57212e-08H1595V5H1590V5.57212e-08Z" fill="#E3DFCF"/>
<path d="M1595 5.57212e-08H1600V5H1595V5.57212e-08Z" fill="#E3DFCF"/>
<path d="M1600 5.57212e-08H1605V5H1600V5.57212e-08Z" fill="#E3DFCF"/>
<path d="M1605 5.57212e-08H1610V5H1605V5.57212e-08Z" fill="#E3DFCF"/>
<path d="M1610 5.57212e-08H1615V5H1610V5.57212e-08Z" fill="#E3DFCF"/>
<path d="M1615 5.57212e-08H1620V5H1615V5.57212e-08Z" fill="#E3DFCF"/>
<path d="M1620 5.57212e-08H1625V5H1620V5.57212e-08Z" fill="#E3DFCF"/>
<path d="M1625 5.57212e-08H1630V5H1625V5.57212e-08Z" fill="#E3DFCF"/>
<path d="M1630 5.57212e-08H1635V5H1630V5.57212e-08Z" fill="#E3DFCF"/>
<path d="M1635 5.57212e-08H1640V5H1635V5.57212e-08Z" fill="#E3DFCF"/>
<path d="M1640 5.57212e-08H1645V5H1640V5.57212e-08Z" fill="#E3DFCF"/>
<path d="M1645 5.57212e-08H1650V5H1645V5.57212e-08Z" fill="#E3DFCF"/>
<path d="M1650 5.57212e-08H1655V5H1650V5.57212e-08Z" fill="#E3DFCF"/>
<path d="M1655 5.57212e-08H1660V5H1655V5.57212e-08Z" fill="#E3DFCF"/>
<path d="M1660 5.57212e-08H1665V5H1660V5.57212e-08Z" fill="#E3DFCF"/>
<path d="M1665 5.57212e-08H1670V5H1665V5.57212e-08Z" fill="#E3DFCF"/>
<path d="M1670 5.57212e-08H1675V5H1670V5.57212e-08Z" fill="#E3DFCF"/>
<path d="M1675 5.57212e-08H1680V5H1675V5.57212e-08Z" fill="#E3DFCF"/>
<path d="M1680 5.57212e-08H1685V5H1680V5.57212e-08Z" fill="#E3DFCF"/>
<path d="M1685 5.57212e-08H1690V5H1685V5.57212e-08Z" fill="#E3DFCF"/>
<path d="M1690 5.57212e-08H1695V5H1690V5.57212e-08Z" fill="#E3DFCF"/>
<path d="M1695 5.57212e-08H1700V5H1695V5.57212e-08Z" fill="#E3DFCF"/>
<path d="M1700 5.57212e-08H1705V5H1700V5.57212e-08Z" fill="#E3DFCF"/>
<path d="M1705 5.57212e-08H1710V5H1705V5.57212e-08Z" fill="#E3DFCF"/>
<path d="M1710 5.57212e-08H1715V5H1710V5.57212e-08Z" fill="#E3DFCF"/>
<path d="M1715 5.57212e-08H1720V5H1715V5.57212e-08Z" fill="#E3DFCF"/>
<path d="M1720 5.57212e-08H1725V5H1720V5.57212e-08Z" fill="#E3DFCF"/>
<path d="M1725 5.57212e-08H1730V5H1725V5.57212e-08Z" fill="#E3DFCF"/>
<path d="M1730 5.57212e-08H1735V5H1730V5.57212e-08Z" fill="#E3DFCF"/>
<path d="M1735 5.57212e-08H1740V5H1735V5.57212e-08Z" fill="#E3DFCF"/>
<path d="M1740 5.57212e-08H1745V5H1740V5.57212e-08Z" fill="#E3DFCF"/>
<path d="M1745 5.57212e-08H1750V5H1745V5.57212e-08Z" fill="#E3DFCF"/>
<path d="M1750 5.57212e-08H1755V5H1750V5.57212e-08Z" fill="#E3DFCF"/>
<path d="M1755 5.57212e-08H1760V5H1755V5.57212e-08Z" fill="#E3DFCF"/>
<path d="M1760 5.57212e-08H1765V5H1760V5.57212e-08Z" fill="#E3DFCF"/>
<path d="M1765 5.57212e-08H1770V5H1765V5.57212e-08Z" fill="#E3DFCF"/>
<path d="M1770 5.57212e-08H1775V5H1770V5.57212e-08Z" fill="#E3DFCF"/>
<path d="M1775 5.57212e-08H1780V5H1775V5.57212e-08Z" fill="#E3DFCF"/>
<path d="M1780 5.57212e-08H1785V5H1780V5.57212e-08Z" fill="#E3DFCF"/>
<path d="M1785 5.57212e-08H1790V5H1785V5.57212e-08Z" fill="#E3DFCF"/>
<path d="M1790 5.57212e-08H1795V5H1790V5.57212e-08Z" fill="#E3DFCF"/>
<path d="M1795 5.57212e-08H1800V5H1795V5.57212e-08Z" fill="#E3DFCF"/>
<path d="M1800 5.57212e-08H1805V5H1800V5.57212e-08Z" fill="#E3DFCF"/>
<path d="M1805 5.57212e-08H1810V5H1805V5.57212e-08Z" fill="#E3DFCF"/>
<path d="M1810 5.57212e-08H1815V5H1810V5.57212e-08Z" fill="#E3DFCF"/>
<path d="M1815 5.57212e-08H1820V5H1815V5.57212e-08Z" fill="#E3DFCF"/>
<path d="M1820 5.57212e-08H1825V5H1820V5.57212e-08Z" fill="#E3DFCF"/>
<path d="M1825 5.57212e-08H1830V5H1825V5.57212e-08Z" fill="#E3DFCF"/>
<path d="M1830 5.57212e-08H1835V5H1830V5.57212e-08Z" fill="#E3DFCF"/>
<path d="M1835 5.57212e-08H1840V5H1835V5.57212e-08Z" fill="#E3DFCF"/>
<path d="M1840 5.57212e-08H1845V5H1840V5.57212e-08Z" fill="#E3DFCF"/>
<path d="M1845 5.57212e-08H1850V5H1845V5.57212e-08Z" fill="#E3DFCF"/>
<path d="M1850 5.57212e-08H1855V5H1850V5.57212e-08Z" fill="#E3DFCF"/>
<path d="M1855 5.57212e-08H1860V5H1855V5.57212e-08Z" fill="#E3DFCF"/>
<path d="M1860 5.57212e-08H1865V5H1860V5.57212e-08Z" fill="#E3DFCF"/>
<path d="M1865 5.57212e-08H1870V5H1865V5.57212e-08Z" fill="#E3DFCF"/>
<path d="M1870 5.57212e-08H1875V5H1870V5.57212e-08Z" fill="#E3DFCF"/>
<path d="M1875 5.57212e-08H1880V5H1875V5.57212e-08Z" fill="#E3DFCF"/>
<path d="M1880 5.57212e-08H1885V5H1880V5.57212e-08Z" fill="#E3DFCF"/>
<path d="M1885 5.57212e-08H1890V5H1885V5.57212e-08Z" fill="#E3DFCF"/>
<path d="M1890 5.57212e-08H1895V5H1890V5.57212e-08Z" fill="#E3DFCF"/>
<path d="M1895 5.57212e-08H1900V5H1895V5.57212e-08Z" fill="#E3DFCF"/>
<path d="M1900 5.57212e-08H1905V5H1900V5.57212e-08Z" fill="#E3DFCF"/>
<path d="M1905 5.57212e-08H1910V5H1905V5.57212e-08Z" fill="#E3DFCF"/>
<path d="M1910 5.57212e-08H1915V5H1910V5.57212e-08Z" fill="#E3DFCF"/>
<path d="M1915 5.57212e-08H1920V5H1915V5.57212e-08Z" fill="#E3DFCF"/>
<path d="M1920 5.57212e-08H1925V5H1920V5.57212e-08Z" fill="#E3DFCF"/>
<path d="M1925 5.57212e-08H1930V5H1925V5.57212e-08Z" fill="#E3DFCF"/>
<path d="M1930 5.57212e-08H1935V5H1930V5.57212e-08Z" fill="#E3DFCF"/>
<path d="M1935 5.57212e-08H1940V5H1935V5.57212e-08Z" fill="#E3DFCF"/>
<path d="M1940 5.57212e-08H1945V5H1940V5.57212e-08Z" fill="#E3DFCF"/>
<path d="M1945 5.57212e-08H1950V5H1945V5.57212e-08Z" fill="#E3DFCF"/>
<path d="M1950 5.57212e-08H1955V5H1950V5.57212e-08Z" fill="#E3DFCF"/>
<path d="M1955 5.57212e-08H1960V5H1955V5.57212e-08Z" fill="#E3DFCF"/>
<path d="M1960 5.57212e-08H1965V5H1960V5.57212e-08Z" fill="#E3DFCF"/>
<path d="M1965 5.57212e-08H1970V5H1965V5.57212e-08Z" fill="#E3DFCF"/>
<path d="M1970 5.57212e-08H1975V5H1970V5.57212e-08Z" fill="#E3DFCF"/>
<path d="M1975 5.57212e-08H1980V5H1975V5.57212e-08Z" fill="#E3DFCF"/>
<path d="M1980 5.57212e-08H1985V5H1980V5.57212e-08Z" fill="#E3DFCF"/>
<path d="M1985 5.57212e-08H1990V5H1985V5.57212e-08Z" fill="#E3DFCF"/>
<path d="M1990 5.57212e-08H1995V5H1990V5.57212e-08Z" fill="#E3DFCF"/>
<path d="M1995 5.57212e-08H2000V5H1995V5.57212e-08Z" fill="#E3DFCF"/>
<path d="M2000 5.57212e-08H2005V5H2000V5.57212e-08Z" fill="#E3DFCF"/>
<path d="M2005 5.57212e-08H2010V5H2005V5.57212e-08Z" fill="#E3DFCF"/>
<path d="M2010 5.57212e-08H2015V5H2010V5.57212e-08Z" fill="#E3DFCF"/>
<path d="M2015 5.57212e-08H2020V5H2015V5.57212e-08Z" fill="#E3DFCF"/>
<path d="M2020 5.57212e-08H2025V5H2020V5.57212e-08Z" fill="#E3DFCF"/>
<path d="M2025 5.57212e-08H2030V5H2025V5.57212e-08Z" fill="#E3DFCF"/>
<path d="M2030 5.57212e-08H2035V5H2030V5.57212e-08Z" fill="#E3DFCF"/>
<path d="M2035 5.57212e-08H2040V5H2035V5.57212e-08Z" fill="#E3DFCF"/>
<path d="M2040 5.57212e-08H2045V5H2040V5.57212e-08Z" fill="#E3DFCF"/>
<path d="M2045 5.57212e-08H2050V5H2045V5.57212e-08Z" fill="#E3DFCF"/>
<path d="M2050 5.57212e-08H2055V5H2050V5.57212e-08Z" fill="#E3DFCF"/>
<path d="M2055 5.57212e-08H2060V5H2055V5.57212e-08Z" fill="#E3DFCF"/>
<path d="M2060 5.57212e-08H2065V5H2060V5.57212e-08Z" fill="#E3DFCF"/>
<path d="M2065 5.57212e-08H2070V5H2065V5.57212e-08Z" fill="#E3DFCF"/>
<path d="M2070 5.57212e-08H2075V5H2070V5.57212e-08Z" fill="#E3DFCF"/>
<path d="M2075 5.57212e-08H2080V5H2075V5.57212e-08Z" fill="#E3DFCF"/>
<path d="M2080 5.57212e-08H2085V5H2080V5.57212e-08Z" fill="#E3DFCF"/>
<path d="M2085 5.57212e-08H2090V5H2085V5.57212e-08Z" fill="#E3DFCF"/>
<path d="M2090 5.57212e-08H2095V5H2090V5.57212e-08Z" fill="#E3DFCF"/>
<path d="M2095 5.57212e-08H2100V5H2095V5.57212e-08Z" fill="#E3DFCF"/>
<path d="M2100 5.57212e-08H2105V5H2100V5.57212e-08Z" fill="#E3DFCF"/>
<path d="M2105 5.57212e-08H2110V5H2105V5.57212e-08Z" fill="#E3DFCF"/>
<path d="M2110 5.57212e-08H2115V5H2110V5.57212e-08Z" fill="#E3DFCF"/>
<path d="M2115 5.57212e-08H2120V5H2115V5.57212e-08Z" fill="#E3DFCF"/>
<path d="M2120 5.57212e-08H2125V5H2120V5.57212e-08Z" fill="#E3DFCF"/>
<path d="M2125 5.57212e-08H2130V5H2125V5.57212e-08Z" fill="#E3DFCF"/>
<path d="M2130 5.57212e-08H2135V5H2130V5.57212e-08Z" fill="#E3DFCF"/>
<path d="M2135 5.57212e-08H2140V5H2135V5.57212e-08Z" fill="#E3DFCF"/>
<path d="M2140 5.57212e-08H2145V5H2140V5.57212e-08Z" fill="#E3DFCF"/>
<path d="M2145 5.57212e-08H2150V5H2145V5.57212e-08Z" fill="#E3DFCF"/>
<path d="M2150 5.57212e-08H2155V5H2150V5.57212e-08Z" fill="#E3DFCF"/>
<path d="M2155 5.57212e-08H2160V5H2155V5.57212e-08Z" fill="#E3DFCF"/>
<path d="M2160 5.57212e-08H2165V5H2160V5.57212e-08Z" fill="#E3DFCF"/>
<path d="M2165 5.57212e-08H2170V5H2165V5.57212e-08Z" fill="#E3DFCF"/>
<path d="M2170 5.57212e-08H2175V5H2170V5.57212e-08Z" fill="#E3DFCF"/>
<path d="M2175 5.57212e-08H2180V5H2175V5.57212e-08Z" fill="#E3DFCF"/>
<path d="M2180 5.57212e-08H2185V5H2180V5.57212e-08Z" fill="#E3DFCF"/>
<path d="M2185 5.57212e-08H2190V5H2185V5.57212e-08Z" fill="#E3DFCF"/>
<path d="M2190 5.57212e-08H2195V5H2190V5.57212e-08Z" fill="#E3DFCF"/>
<path d="M2195 5.57212e-08H2200V5H2195V5.57212e-08Z" fill="#E3DFCF"/>
<path d="M2200 5.57212e-08H2205V5H2200V5.57212e-08Z" fill="#E3DFCF"/>
<path d="M2205 5.57212e-08H2210V5H2205V5.57212e-08Z" fill="#E3DFCF"/>
<path d="M2210 5.57212e-08H2215V5H2210V5.57212e-08Z" fill="#E3DFCF"/>
<path d="M2215 5.57212e-08H2220V5H2215V5.57212e-08Z" fill="#E3DFCF"/>
<path d="M2220 5.57212e-08H2225V5H2220V5.57212e-08Z" fill="#E3DFCF"/>
<path d="M2225 5.57212e-08H2230V5H2225V5.57212e-08Z" fill="#E3DFCF"/>
<path d="M2230 5.57212e-08H2235V5H2230V5.57212e-08Z" fill="#E3DFCF"/>
<path d="M2235 5.57212e-08H2240V5H2235V5.57212e-08Z" fill="#E3DFCF"/>
<path d="M2240 5.57212e-08H2245V5H2240V5.57212e-08Z" fill="#E3DFCF"/>
<path d="M2245 5.57212e-08H2250V5H2245V5.57212e-08Z" fill="#E3DFCF"/>
<path d="M2250 5.57212e-08H2255V5H2250V5.57212e-08Z" fill="#E3DFCF"/>
<path d="M2255 5.57212e-08H2260V5H2255V5.57212e-08Z" fill="#E3DFCF"/>
<path d="M2260 5.57212e-08H2265V5H2260V5.57212e-08Z" fill="#E3DFCF"/>
<path d="M2265 5.57212e-08H2270V5H2265V5.57212e-08Z" fill="#E3DFCF"/>
<path d="M2270 5.57212e-08H2275V5H2270V5.57212e-08Z" fill="#E3DFCF"/>
<path d="M2275 5.57212e-08H2280V5H2275V5.57212e-08Z" fill="#E3DFCF"/>
<path d="M2280 5.57212e-08H2285V5H2280V5.57212e-08Z" fill="#E3DFCF"/>
<path d="M2285 5.57212e-08H2290V5H2285V5.57212e-08Z" fill="#E3DFCF"/>
<path d="M2290 5.57212e-08H2295V5H2290V5.57212e-08Z" fill="#E3DFCF"/>
<path d="M2295 5.57212e-08H2300V5H2295V5.57212e-08Z" fill="#E3DFCF"/>
<path d="M2300 5.57212e-08H2305V5H2300V5.57212e-08Z" fill="#E3DFCF"/>
<path d="M2305 5.57212e-08H2310V5H2305V5.57212e-08Z" fill="#E3DFCF"/>
<path d="M2310 5.57212e-08H2315V5H2310V5.57212e-08Z" fill="#E3DFCF"/>
<path d="M2315 5.57212e-08H2320V5H2315V5.57212e-08Z" fill="#E3DFCF"/>
<path d="M2320 5.57212e-08H2325V5H2320V5.57212e-08Z" fill="#E3DFCF"/>
<path d="M2325 5.57212e-08H2330V5H2325V5.57212e-08Z" fill="#E3DFCF"/>
<path d="M2330 5.57212e-08H2335V5H2330V5.57212e-08Z" fill="#E3DFCF"/>
<path d="M2335 5.57212e-08H2340V5H2335V5.57212e-08Z" fill="#E3DFCF"/>
<path d="M2340 5.57212e-08H2345V5H2340V5.57212e-08Z" fill="#E3DFCF"/>
<path d="M2345 5.57212e-08H2350V5H2345V5.57212e-08Z" fill="#E3DFCF"/>
<path d="M2350 5.57212e-08H2355V5H2350V5.57212e-08Z" fill="#E3DFCF"/>
<path d="M2355 5.57212e-08H2360V5H2355V5.57212e-08Z" fill="#E3DFCF"/>
<path d="M2360 5.57212e-08H2365V5H2360V5.57212e-08Z" fill="#E3DFCF"/>
<path d="M2365 5.57212e-08H2370V5H2365V5.57212e-08Z" fill="#E3DFCF"/>
<path d="M2370 5.57212e-08H2375V5H2370V5.57212e-08Z" fill="#E3DFCF"/>
<path d="M2375 5.57212e-08H2380V5H2375V5.57212e-08Z" fill="#E3DFCF"/>
<path d="M2380 5.57212e-08H2385V5H2380V5.57212e-08Z" fill="#E3DFCF"/>
<path d="M2385 5.57212e-08H2390V5H2385V5.57212e-08Z" fill="#E3DFCF"/>
<path d="M2390 5.57212e-08H2395V5H2390V5.57212e-08Z" fill="#E3DFCF"/>
<path d="M2395 5.57212e-08H2400V5H2395V5.57212e-08Z" fill="#E3DFCF"/>
<path d="M2400 5.57212e-08H2405V5H2400V5.57212e-08Z" fill="#E3DFCF"/>
<path d="M2405 5.57212e-08H2410V5H2405V5.57212e-08Z" fill="#E3DFCF"/>
<path d="M2410 5.57212e-08H2415V5H2410V5.57212e-08Z" fill="#E3DFCF"/>
<path d="M2415 5.57212e-08H2420V5H2415V5.57212e-08Z" fill="#E3DFCF"/>
<path d="M2420 5.57212e-08H2425V5H2420V5.57212e-08Z" fill="#E3DFCF"/>
<path d="M2425 5.57212e-08H2430V5H2425V5.57212e-08Z" fill="#E3DFCF"/>
<path d="M2430 5.57212e-08H2435V5H2430V5.57212e-08Z" fill="#E3DFCF"/>
<path d="M2435 5.57212e-08H2440V5H2435V5.57212e-08Z" fill="#E3DFCF"/>
<path d="M2440 5.57212e-08H2445V5H2440V5.57212e-08Z" fill="#E3DFCF"/>
<path d="M2445 5.57212e-08H2450V5H2445V5.57212e-08Z" fill="#E3DFCF"/>
<path d="M2450 5.57212e-08H2455V5H2450V5.57212e-08Z" fill="#E3DFCF"/>
<path d="M2455 5.57212e-08H2460V5H2455V5.57212e-08Z" fill="#E3DFCF"/>
<path d="M2460 5.57212e-08H2465V5H2460V5.57212e-08Z" fill="#E3DFCF"/>
<path d="M2465 5.57212e-08H2470V5H2465V5.57212e-08Z" fill="#E3DFCF"/>
<path d="M2470 5.57212e-08H2475V5H2470V5.57212e-08Z" fill="#E3DFCF"/>
<path d="M2475 5.57212e-08H2480V5H2475V5.57212e-08Z" fill="#E3DFCF"/>
<path d="M2485 5.57212e-08H2490V5H2485V5.57212e-08Z" fill="#E3DFCF"/>
<path d="M2495 5.57212e-08H2500V5H2495V5.57212e-08Z" fill="#E3DFCF"/>
<path d="M2500 5.57212e-08H2505V5H2500V5.57212e-08Z" fill="#E3DFCF"/>
<path d="M2505 5.57212e-08H2510V5H2505V5.57212e-08Z" fill="#E3DFCF"/>
<path d="M2510 5.57212e-08H2515V5H2510V5.57212e-08Z" fill="#E3DFCF"/>
<path d="M2515 5.57212e-08H2520V5H2515V5.57212e-08Z" fill="#E3DFCF"/>
<path d="M2520 5.57212e-08H2525V5H2520V5.57212e-08Z" fill="#E3DFCF"/>
<path d="M2525 5.57212e-08H2530V5H2525V5.57212e-08Z" fill="#E3DFCF"/>
<path d="M2530 5.57212e-08H2535V5H2530V5.57212e-08Z" fill="#E3DFCF"/>
<path d="M2535 5.57212e-08H2540V5H2535V5.57212e-08Z" fill="#E3DFCF"/>
<path d="M2540 5.57212e-08H2545V5H2540V5.57212e-08Z" fill="#E3DFCF"/>
<path d="M2545 5.57212e-08H2550V5H2545V5.57212e-08Z" fill="#E3DFCF"/>
<path d="M2550 5.57212e-08H2555V5H2550V5.57212e-08Z" fill="#E3DFCF"/>
<path d="M2555 5.57212e-08H2560V5H2555V5.57212e-08Z" fill="#E3DFCF"/>
<path d="M2560 5.57212e-08H2565V5H2560V5.57212e-08Z" fill="#E3DFCF"/>
<path d="M2565 5.57212e-08H2570V5H2565V5.57212e-08Z" fill="#E3DFCF"/>
<path d="M2570 5.57212e-08H2575V5H2570V5.57212e-08Z" fill="#E3DFCF"/>
<path d="M2575 5.57212e-08H2580V5H2575V5.57212e-08Z" fill="#E3DFCF"/>
<path d="M2580 5.57212e-08H2585V5H2580V5.57212e-08Z" fill="#E3DFCF"/>
<path d="M2585 5.57212e-08H2590V5H2585V5.57212e-08Z" fill="#E3DFCF"/>
<path d="M2590 5.57212e-08H2595V5H2590V5.57212e-08Z" fill="#E3DFCF"/>
<path d="M2595 5.57212e-08H2600V5H2595V5.57212e-08Z" fill="#E3DFCF"/>
<path d="M2600 5.57212e-08H2605V5H2600V5.57212e-08Z" fill="#E3DFCF"/>
<path d="M2605 5.57212e-08H2610V5H2605V5.57212e-08Z" fill="#E3DFCF"/>
<path d="M2610 5.57212e-08H2615V5H2610V5.57212e-08Z" fill="#E3DFCF"/>
<path d="M2615 5.57212e-08H2620V5H2615V5.57212e-08Z" fill="#E3DFCF"/>
<path d="M2620 5.57212e-08H2625V5H2620V5.57212e-08Z" fill="#E3DFCF"/>
<path d="M2625 5.57212e-08H2630V5H2625V5.57212e-08Z" fill="#E3DFCF"/>
<path d="M2630 5.57212e-08H2635V5H2630V5.57212e-08Z" fill="#E3DFCF"/>
<path d="M2635 5.57212e-08H2640V5H2635V5.57212e-08Z" fill="#E3DFCF"/>
<path d="M2640 5.57212e-08H2645V5H2640V5.57212e-08Z" fill="#E3DFCF"/>
<path d="M2645 5.57212e-08H2650V5H2645V5.57212e-08Z" fill="#E3DFCF"/>
<path d="M2650 5.57212e-08H2655V5H2650V5.57212e-08Z" fill="#E3DFCF"/>
<path d="M2655 5.57212e-08H2660V5H2655V5.57212e-08Z" fill="#E3DFCF"/>
<path d="M2660 5.57212e-08H2665V5H2660V5.57212e-08Z" fill="#E3DFCF"/>
<path d="M2665 5.57212e-08H2670V5H2665V5.57212e-08Z" fill="#E3DFCF"/>
<path d="M2680 5.57212e-08H2685V5H2680V5.57212e-08Z" fill="#E3DFCF"/>
<path d="M2685 5.57212e-08H2690V5H2685V5.57212e-08Z" fill="#E3DFCF"/>
</svg>
