<svg width="3650" height="10" viewBox="0 0 3650 10" fill="none" xmlns="http://www.w3.org/2000/svg">
<path d="M280 8.34465e-06H285V2.50001H280V8.34465e-06Z" fill="#FF3D00"/>
<path d="M285 8.34465e-06H290V2.50001H285V8.34465e-06Z" fill="#FF3D00"/>
<path d="M295 8.34465e-06H300V2.50001H295V8.34465e-06Z" fill="#FF3D00"/>
<path d="M300 8.34465e-06H305V2.50001H300V8.34465e-06Z" fill="#FF3D00"/>
<path d="M305 8.34465e-06H310V2.50001H305V8.34465e-06Z" fill="#FF3D00"/>
<path d="M310 8.34465e-06H315V2.50001H310V8.34465e-06Z" fill="#FF3D00"/>
<path d="M330 8.34465e-06H335V2.50001H330V8.34465e-06Z" fill="#FF3D00"/>
<path d="M340 8.34465e-06H345V2.50001H340V8.34465e-06Z" fill="#FF3D00"/>
<path d="M345 8.34465e-06H350V2.50001H345V8.34465e-06Z" fill="#FF3D00"/>
<path d="M355 8.34465e-06H360V2.50001H355V8.34465e-06Z" fill="#FF3D00"/>
<path d="M360 8.34465e-06H365V2.50001H360V8.34465e-06Z" fill="#FF3D00"/>
<path d="M365 8.34465e-06H370V2.50001H365V8.34465e-06Z" fill="#FF3D00"/>
<path d="M370 8.34465e-06H375V2.50001H370V8.34465e-06Z" fill="#FF3D00"/>
<path d="M375 8.34465e-06H380V2.50001H375V8.34465e-06Z" fill="#FF3D00"/>
<path d="M395 8.34465e-06H400V2.50001H395V8.34465e-06Z" fill="#FF3D00"/>
<path d="M400 8.34465e-06H405V2.50001H400V8.34465e-06Z" fill="#FF3D00"/>
<path d="M430 8.34465e-06H435V2.50001H430V8.34465e-06Z" fill="#FF3D00"/>
<path d="M435 8.34465e-06H440V2.50001H435V8.34465e-06Z" fill="#FF3D00"/>
<path d="M470 8.34465e-06H475V2.50001H470V8.34465e-06Z" fill="#FF3D00"/>
<path d="M475 8.34465e-06H480V2.50001H475V8.34465e-06Z" fill="#FF3D00"/>
<path d="M480 3.57628e-06H485V3.33334H480V3.57628e-06Z" fill="#FF3D00"/>
<path d="M720 8.34465e-06H725V2.50001H720V8.34465e-06Z" fill="#FF3D00"/>
<path d="M725 8.34465e-06H730V2.50001H725V8.34465e-06Z" fill="#FF3D00"/>
<path d="M730 8.34465e-06H735V2.50001H730V8.34465e-06Z" fill="#FF3D00"/>
<path d="M755 3.57628e-06H760V3.33334H755V3.57628e-06Z" fill="#FF3D00"/>
<path d="M760 1.43051e-06H765V5H760V1.43051e-06Z" fill="#FF3D00"/>
<path d="M825 3.57628e-06H830V3.33334H825V3.57628e-06Z" fill="#FF3D00"/>
<path d="M3455 2.86102e-06H3460V10H3455V2.86102e-06Z" fill="#FF3D00"/>
<path d="M275 3.57628e-06H280V3.33334H275V3.57628e-06Z" fill="#4ADADA"/>
<path d="M280 2.5H285V5H280V2.5Z" fill="#4ADADA"/>
<path d="M285 2.5H290V5H285V2.5Z" fill="#4ADADA"/>
<path d="M290 3.57628e-06H295V3.33334H290V3.57628e-06Z" fill="#4ADADA"/>
<path d="M295 2.5H300V5H295V2.5Z" fill="#4ADADA"/>
<path d="M300 2.5H305V5H300V2.5Z" fill="#4ADADA"/>
<path d="M305 2.5H310V5H305V2.5Z" fill="#4ADADA"/>
<path d="M310 2.5H315V5H310V2.5Z" fill="#4ADADA"/>
<path d="M315 3.57628e-06H320V3.33334H315V3.57628e-06Z" fill="#4ADADA"/>
<path d="M320 3.57628e-06H325V3.33334H320V3.57628e-06Z" fill="#4ADADA"/>
<path d="M325 3.57628e-06H330V3.33334H325V3.57628e-06Z" fill="#4ADADA"/>
<path d="M330 2.5H335V5H330V2.5Z" fill="#4ADADA"/>
<path d="M335 3.57628e-06H340V3.33334H335V3.57628e-06Z" fill="#4ADADA"/>
<path d="M340 2.5H345V5H340V2.5Z" fill="#4ADADA"/>
<path d="M345 2.5H350V5H345V2.5Z" fill="#4ADADA"/>
<path d="M350 3.57628e-06H355V3.33334H350V3.57628e-06Z" fill="#4ADADA"/>
<path d="M355 2.5H360V5H355V2.5Z" fill="#4ADADA"/>
<path d="M360 2.5H365V5H360V2.5Z" fill="#4ADADA"/>
<path d="M365 2.5H370V5H365V2.5Z" fill="#4ADADA"/>
<path d="M370 2.5H375V5H370V2.5Z" fill="#4ADADA"/>
<path d="M375 2.5H380V5H375V2.5Z" fill="#4ADADA"/>
<path d="M380 3.57628e-06H385V3.33334H380V3.57628e-06Z" fill="#4ADADA"/>
<path d="M385 1.43051e-06H390V5H385V1.43051e-06Z" fill="#4ADADA"/>
<path d="M390 3.57628e-06H395V3.33334H390V3.57628e-06Z" fill="#4ADADA"/>
<path d="M395 2.5H400V5H395V2.5Z" fill="#4ADADA"/>
<path d="M400 2.5H405V5H400V2.5Z" fill="#4ADADA"/>
<path d="M405 3.57628e-06H410V3.33334H405V3.57628e-06Z" fill="#4ADADA"/>
<path d="M410 3.57628e-06H415V3.33334H410V3.57628e-06Z" fill="#4ADADA"/>
<path d="M415 3.57628e-06H420V3.33334H415V3.57628e-06Z" fill="#4ADADA"/>
<path d="M420 1.43051e-06H425V5H420V1.43051e-06Z" fill="#4ADADA"/>
<path d="M425 1.43051e-06H430V5H425V1.43051e-06Z" fill="#4ADADA"/>
<path d="M430 2.5H435V5H430V2.5Z" fill="#4ADADA"/>
<path d="M435 2.5H440V5H435V2.5Z" fill="#4ADADA"/>
<path d="M440 3.57628e-06H445V3.33334H440V3.57628e-06Z" fill="#4ADADA"/>
<path d="M450 3.57628e-06H455V3.33334H450V3.57628e-06Z" fill="#4ADADA"/>
<path d="M455 1.43051e-06H460V5H455V1.43051e-06Z" fill="#4ADADA"/>
<path d="M460 3.57628e-06H465V3.33334H460V3.57628e-06Z" fill="#4ADADA"/>
<path d="M465 3.57628e-06H470V3.33334H465V3.57628e-06Z" fill="#4ADADA"/>
<path d="M470 2.5H475V5H470V2.5Z" fill="#4ADADA"/>
<path d="M475 2.5H480V5H475V2.5Z" fill="#4ADADA"/>
<path d="M480 3.33334H485V6.66667H480V3.33334Z" fill="#4ADADA"/>
<path d="M495 3.57628e-06H500V3.33334H495V3.57628e-06Z" fill="#4ADADA"/>
<path d="M500 2.86102e-06H505V10H500V2.86102e-06Z" fill="#4ADADA"/>
<path d="M505 3.57628e-06H510V3.33334H505V3.57628e-06Z" fill="#4ADADA"/>
<path d="M510 1.43051e-06H515V5H510V1.43051e-06Z" fill="#4ADADA"/>
<path d="M515 1.43051e-06H520V5H515V1.43051e-06Z" fill="#4ADADA"/>
<path d="M520 1.43051e-06H525V5H520V1.43051e-06Z" fill="#4ADADA"/>
<path d="M525 2.86102e-06H530V10H525V2.86102e-06Z" fill="#4ADADA"/>
<path d="M535 3.57628e-06H540V3.33334H535V3.57628e-06Z" fill="#4ADADA"/>
<path d="M540 2.86102e-06H545V10H540V2.86102e-06Z" fill="#4ADADA"/>
<path d="M545 3.57628e-06H550V3.33334H545V3.57628e-06Z" fill="#4ADADA"/>
<path d="M550 3.57628e-06H555V3.33334H550V3.57628e-06Z" fill="#4ADADA"/>
<path d="M555 2.86102e-06H560V10H555V2.86102e-06Z" fill="#4ADADA"/>
<path d="M565 1.43051e-06H570V5H565V1.43051e-06Z" fill="#4ADADA"/>
<path d="M575 3.57628e-06H580V3.33334H575V3.57628e-06Z" fill="#4ADADA"/>
<path d="M580 3.57628e-06H585V3.33334H580V3.57628e-06Z" fill="#4ADADA"/>
<path d="M585 3.57628e-06H590V3.33334H585V3.57628e-06Z" fill="#4ADADA"/>
<path d="M590 1.43051e-06H595V5H590V1.43051e-06Z" fill="#4ADADA"/>
<path d="M610 3.57628e-06H615V3.33334H610V3.57628e-06Z" fill="#4ADADA"/>
<path d="M615 1.43051e-06H620V5H615V1.43051e-06Z" fill="#4ADADA"/>
<path d="M625 1.43051e-06H630V5H625V1.43051e-06Z" fill="#4ADADA"/>
<path d="M630 1.43051e-06H635V5H630V1.43051e-06Z" fill="#4ADADA"/>
<path d="M640 3.57628e-06H645V3.33334H640V3.57628e-06Z" fill="#4ADADA"/>
<path d="M645 3.57628e-06H650V3.33334H645V3.57628e-06Z" fill="#4ADADA"/>
<path d="M650 3.57628e-06H655V3.33334H650V3.57628e-06Z" fill="#4ADADA"/>
<path d="M655 1.43051e-06H660V5H655V1.43051e-06Z" fill="#4ADADA"/>
<path d="M660 1.43051e-06H665V5H660V1.43051e-06Z" fill="#4ADADA"/>
<path d="M675 3.57628e-06H680V3.33334H675V3.57628e-06Z" fill="#4ADADA"/>
<path d="M690 1.43051e-06H695V5H690V1.43051e-06Z" fill="#4ADADA"/>
<path d="M695 3.57628e-06H700V3.33334H695V3.57628e-06Z" fill="#4ADADA"/>
<path d="M700 3.57628e-06H705V3.33334H700V3.57628e-06Z" fill="#4ADADA"/>
<path d="M705 3.57628e-06H710V3.33334H705V3.57628e-06Z" fill="#4ADADA"/>
<path d="M710 3.57628e-06H715V3.33334H710V3.57628e-06Z" fill="#4ADADA"/>
<path d="M715 3.57628e-06H720V3.33334H715V3.57628e-06Z" fill="#4ADADA"/>
<path d="M720 2.5H725V5H720V2.5Z" fill="#4ADADA"/>
<path d="M725 2.5H730V5H725V2.5Z" fill="#4ADADA"/>
<path d="M730 2.5H735V5H730V2.5Z" fill="#4ADADA"/>
<path d="M735 3.57628e-06H740V3.33334H735V3.57628e-06Z" fill="#4ADADA"/>
<path d="M740 3.57628e-06H745V3.33334H740V3.57628e-06Z" fill="#4ADADA"/>
<path d="M745 1.43051e-06H750V5H745V1.43051e-06Z" fill="#4ADADA"/>
<path d="M750 1.43051e-06H755V5H750V1.43051e-06Z" fill="#4ADADA"/>
<path d="M755 3.33334H760V6.66667H755V3.33334Z" fill="#4ADADA"/>
<path d="M760 5H765V10H760V5Z" fill="#4ADADA"/>
<path d="M775 2.86102e-06H780V10H775V2.86102e-06Z" fill="#4ADADA"/>
<path d="M790 1.43051e-06H795V5H790V1.43051e-06Z" fill="#4ADADA"/>
<path d="M795 1.43051e-06H800V5H795V1.43051e-06Z" fill="#4ADADA"/>
<path d="M800 2.86102e-06H805V10H800V2.86102e-06Z" fill="#4ADADA"/>
<path d="M825 3.33334H830V6.66667H825V3.33334Z" fill="#4ADADA"/>
<path d="M830 1.43051e-06H835V5H830V1.43051e-06Z" fill="#4ADADA"/>
<path d="M835 2.86102e-06H840V10H835V2.86102e-06Z" fill="#4ADADA"/>
<path d="M840 2.86102e-06H845V10H840V2.86102e-06Z" fill="#4ADADA"/>
<path d="M855 1.43051e-06H860V5H855V1.43051e-06Z" fill="#4ADADA"/>
<path d="M860 1.43051e-06H865V5H860V1.43051e-06Z" fill="#4ADADA"/>
<path d="M865 1.43051e-06H870V5H865V1.43051e-06Z" fill="#4ADADA"/>
<path d="M870 3.57628e-06H875V3.33334H870V3.57628e-06Z" fill="#4ADADA"/>
<path d="M875 2.86102e-06H880V10H875V2.86102e-06Z" fill="#4ADADA"/>
<path d="M885 2.86102e-06H890V10H885V2.86102e-06Z" fill="#4ADADA"/>
<path d="M925 2.86102e-06H930V10H925V2.86102e-06Z" fill="#4ADADA"/>
<path d="M935 1.43051e-06H940V5H935V1.43051e-06Z" fill="#4ADADA"/>
<path d="M955 2.86102e-06H960V10H955V2.86102e-06Z" fill="#4ADADA"/>
<path d="M1070 1.43051e-06H1075V5H1070V1.43051e-06Z" fill="#4ADADA"/>
<path d="M1075 1.43051e-06H1080V5H1075V1.43051e-06Z" fill="#4ADADA"/>
<path d="M1105 2.86102e-06H1110V10H1105V2.86102e-06Z" fill="#4ADADA"/>
<path d="M1175 1.43051e-06H1180V5H1175V1.43051e-06Z" fill="#4ADADA"/>
<path d="M1315 3.57628e-06H1320V3.33334H1315V3.57628e-06Z" fill="#4ADADA"/>
<path d="M1320 3.57628e-06H1325V3.33334H1320V3.57628e-06Z" fill="#4ADADA"/>
<path d="M1820 2.86102e-06H1825V10H1820V2.86102e-06Z" fill="#4ADADA"/>
<path d="M2095 3.57628e-06H2100V3.33334H2095V3.57628e-06Z" fill="#4ADADA"/>
<path d="M2100 1.43051e-06H2105V5H2100V1.43051e-06Z" fill="#4ADADA"/>
<path d="M2105 1.43051e-06H2110V5H2105V1.43051e-06Z" fill="#4ADADA"/>
<path d="M2125 1.43051e-06H2130V5H2125V1.43051e-06Z" fill="#4ADADA"/>
<path d="M2160 1.43051e-06H2165V5H2160V1.43051e-06Z" fill="#4ADADA"/>
<path d="M2165 2.86102e-06H2170V10H2165V2.86102e-06Z" fill="#4ADADA"/>
<path d="M2220 2.86102e-06H2225V10H2220V2.86102e-06Z" fill="#4ADADA"/>
<path d="M2245 2.86102e-06H2250V10H2245V2.86102e-06Z" fill="#4ADADA"/>
<path d="M2345 2.86102e-06H2350V10H2345V2.86102e-06Z" fill="#4ADADA"/>
<path d="M2410 1.43051e-06H2415V5H2410V1.43051e-06Z" fill="#4ADADA"/>
<path d="M2415 2.86102e-06H2420V10H2415V2.86102e-06Z" fill="#4ADADA"/>
<path d="M2470 1.43051e-06H2475V5H2470V1.43051e-06Z" fill="#4ADADA"/>
<path d="M2535 2.86102e-06H2540V10H2535V2.86102e-06Z" fill="#4ADADA"/>
<path d="M2610 2.86102e-06H2615V10H2610V2.86102e-06Z" fill="#4ADADA"/>
<path d="M2655 1.43051e-06H2660V5H2655V1.43051e-06Z" fill="#4ADADA"/>
<path d="M2660 2.86102e-06H2665V10H2660V2.86102e-06Z" fill="#4ADADA"/>
<path d="M3055 1.43051e-06H3060V5H3055V1.43051e-06Z" fill="#4ADADA"/>
<path d="M3535 2.86102e-06H3540V10H3535V2.86102e-06Z" fill="#4ADADA"/>
<path d="M275 3.33334H280V6.66667H275V3.33334Z" fill="#FFB2AC"/>
<path d="M280 5.00001H285V7.50001H280V5.00001Z" fill="#FFB2AC"/>
<path d="M285 5.00001H290V7.50001H285V5.00001Z" fill="#FFB2AC"/>
<path d="M290 3.33334H295V6.66667H290V3.33334Z" fill="#FFB2AC"/>
<path d="M295 5.00001H300V7.50001H295V5.00001Z" fill="#FFB2AC"/>
<path d="M300 5.00001H305V7.50001H300V5.00001Z" fill="#FFB2AC"/>
<path d="M305 5.00001H310V7.50001H305V5.00001Z" fill="#FFB2AC"/>
<path d="M310 5.00001H315V7.50001H310V5.00001Z" fill="#FFB2AC"/>
<path d="M315 3.33334H320V6.66667H315V3.33334Z" fill="#FFB2AC"/>
<path d="M320 3.33334H325V6.66667H320V3.33334Z" fill="#FFB2AC"/>
<path d="M325 3.33334H330V6.66667H325V3.33334Z" fill="#FFB2AC"/>
<path d="M330 5.00001H335V7.50001H330V5.00001Z" fill="#FFB2AC"/>
<path d="M335 3.33334H340V6.66667H335V3.33334Z" fill="#FFB2AC"/>
<path d="M340 5.00001H345V7.50001H340V5.00001Z" fill="#FFB2AC"/>
<path d="M345 5.00001H350V7.50001H345V5.00001Z" fill="#FFB2AC"/>
<path d="M350 3.33334H355V6.66667H350V3.33334Z" fill="#FFB2AC"/>
<path d="M355 5.00001H360V7.50001H355V5.00001Z" fill="#FFB2AC"/>
<path d="M360 5.00001H365V7.50001H360V5.00001Z" fill="#FFB2AC"/>
<path d="M365 5.00001H370V7.50001H365V5.00001Z" fill="#FFB2AC"/>
<path d="M370 5.00001H375V7.50001H370V5.00001Z" fill="#FFB2AC"/>
<path d="M375 5.00001H380V7.50001H375V5.00001Z" fill="#FFB2AC"/>
<path d="M380 3.33334H385V6.66667H380V3.33334Z" fill="#FFB2AC"/>
<path d="M385 5H390V10H385V5Z" fill="#FFB2AC"/>
<path d="M390 3.33334H395V6.66667H390V3.33334Z" fill="#FFB2AC"/>
<path d="M395 5.00001H400V7.50001H395V5.00001Z" fill="#FFB2AC"/>
<path d="M400 5.00001H405V7.50001H400V5.00001Z" fill="#FFB2AC"/>
<path d="M405 3.33334H410V6.66667H405V3.33334Z" fill="#FFB2AC"/>
<path d="M410 3.33334H415V6.66667H410V3.33334Z" fill="#FFB2AC"/>
<path d="M415 3.33334H420V6.66667H415V3.33334Z" fill="#FFB2AC"/>
<path d="M420 5H425V10H420V5Z" fill="#FFB2AC"/>
<path d="M425 5H430V10H425V5Z" fill="#FFB2AC"/>
<path d="M430 5.00001H435V7.50001H430V5.00001Z" fill="#FFB2AC"/>
<path d="M435 5.00001H440V7.50001H435V5.00001Z" fill="#FFB2AC"/>
<path d="M440 3.33334H445V6.66667H440V3.33334Z" fill="#FFB2AC"/>
<path d="M445 1.43051e-06H450V5H445V1.43051e-06Z" fill="#FFB2AC"/>
<path d="M450 3.33334H455V6.66667H450V3.33334Z" fill="#FFB2AC"/>
<path d="M455 5H460V10H455V5Z" fill="#FFB2AC"/>
<path d="M460 3.33334H465V6.66667H460V3.33334Z" fill="#FFB2AC"/>
<path d="M465 3.33334H470V6.66667H465V3.33334Z" fill="#FFB2AC"/>
<path d="M470 5.00001H475V7.50001H470V5.00001Z" fill="#FFB2AC"/>
<path d="M475 5.00001H480V7.50001H475V5.00001Z" fill="#FFB2AC"/>
<path d="M480 6.66667H485V10H480V6.66667Z" fill="#FFB2AC"/>
<path d="M485 2.86102e-06H490V10H485V2.86102e-06Z" fill="#FFB2AC"/>
<path d="M490 2.86102e-06H495V10H490V2.86102e-06Z" fill="#FFB2AC"/>
<path d="M495 3.33334H500V6.66667H495V3.33334Z" fill="#FFB2AC"/>
<path d="M505 3.33334H510V6.66667H505V3.33334Z" fill="#FFB2AC"/>
<path d="M510 5H515V10H510V5Z" fill="#FFB2AC"/>
<path d="M515 5H520V10H515V5Z" fill="#FFB2AC"/>
<path d="M520 5H525V10H520V5Z" fill="#FFB2AC"/>
<path d="M530 1.43051e-06H535V5H530V1.43051e-06Z" fill="#FFB2AC"/>
<path d="M535 3.33334H540V6.66667H535V3.33334Z" fill="#FFB2AC"/>
<path d="M545 3.33334H550V6.66667H545V3.33334Z" fill="#FFB2AC"/>
<path d="M550 3.33334H555V6.66667H550V3.33334Z" fill="#FFB2AC"/>
<path d="M565 5H570V10H565V5Z" fill="#FFB2AC"/>
<path d="M570 1.43051e-06H575V5H570V1.43051e-06Z" fill="#FFB2AC"/>
<path d="M575 3.33334H580V6.66667H575V3.33334Z" fill="#FFB2AC"/>
<path d="M580 3.33334H585V6.66667H580V3.33334Z" fill="#FFB2AC"/>
<path d="M585 3.33334H590V6.66667H585V3.33334Z" fill="#FFB2AC"/>
<path d="M595 1.43051e-06H600V5H595V1.43051e-06Z" fill="#FFB2AC"/>
<path d="M600 2.86102e-06H605V10H600V2.86102e-06Z" fill="#FFB2AC"/>
<path d="M610 3.33334H615V6.66667H610V3.33334Z" fill="#FFB2AC"/>
<path d="M635 1.43051e-06H640V5H635V1.43051e-06Z" fill="#FFB2AC"/>
<path d="M640 3.33334H645V6.66667H640V3.33334Z" fill="#FFB2AC"/>
<path d="M645 3.33334H650V6.66667H645V3.33334Z" fill="#FFB2AC"/>
<path d="M650 3.33334H655V6.66667H650V3.33334Z" fill="#FFB2AC"/>
<path d="M660 5H665V10H660V5Z" fill="#FFB2AC"/>
<path d="M665 2.86102e-06H670V10H665V2.86102e-06Z" fill="#FFB2AC"/>
<path d="M675 3.33334H680V6.66667H675V3.33334Z" fill="#FFB2AC"/>
<path d="M685 1.43051e-06H690V5H685V1.43051e-06Z" fill="#FFB2AC"/>
<path d="M695 3.33334H700V6.66667H695V3.33334Z" fill="#FFB2AC"/>
<path d="M700 3.33334H705V6.66667H700V3.33334Z" fill="#FFB2AC"/>
<path d="M705 3.33334H710V6.66667H705V3.33334Z" fill="#FFB2AC"/>
<path d="M710 3.33334H715V6.66667H710V3.33334Z" fill="#FFB2AC"/>
<path d="M715 3.33334H720V6.66667H715V3.33334Z" fill="#FFB2AC"/>
<path d="M720 5.00001H725V7.50001H720V5.00001Z" fill="#FFB2AC"/>
<path d="M725 5.00001H730V7.50001H725V5.00001Z" fill="#FFB2AC"/>
<path d="M730 5.00001H735V7.50001H730V5.00001Z" fill="#FFB2AC"/>
<path d="M735 3.33334H740V6.66667H735V3.33334Z" fill="#FFB2AC"/>
<path d="M740 3.33334H745V6.66667H740V3.33334Z" fill="#FFB2AC"/>
<path d="M755 6.66667H760V10H755V6.66667Z" fill="#FFB2AC"/>
<path d="M765 2.86102e-06H770V10H765V2.86102e-06Z" fill="#FFB2AC"/>
<path d="M790 5H795V10H790V5Z" fill="#FFB2AC"/>
<path d="M815 2.86102e-06H820V10H815V2.86102e-06Z" fill="#FFB2AC"/>
<path d="M820 1.43051e-06H825V5H820V1.43051e-06Z" fill="#FFB2AC"/>
<path d="M860 5H865V10H860V5Z" fill="#FFB2AC"/>
<path d="M870 3.33334H875V6.66667H870V3.33334Z" fill="#FFB2AC"/>
<path d="M930 1.43051e-06H935V5H930V1.43051e-06Z" fill="#FFB2AC"/>
<path d="M975 2.86102e-06H980V10H975V2.86102e-06Z" fill="#FFB2AC"/>
<path d="M1005 1.43051e-06H1010V5H1005V1.43051e-06Z" fill="#FFB2AC"/>
<path d="M1030 2.86102e-06H1035V10H1030V2.86102e-06Z" fill="#FFB2AC"/>
<path d="M1040 2.86102e-06H1045V10H1040V2.86102e-06Z" fill="#FFB2AC"/>
<path d="M1075 5H1080V10H1075V5Z" fill="#FFB2AC"/>
<path d="M1095 2.86102e-06H1100V10H1095V2.86102e-06Z" fill="#FFB2AC"/>
<path d="M1125 2.86102e-06H1130V10H1125V2.86102e-06Z" fill="#FFB2AC"/>
<path d="M1145 2.86102e-06H1150V10H1145V2.86102e-06Z" fill="#FFB2AC"/>
<path d="M1175 5H1180V10H1175V5Z" fill="#FFB2AC"/>
<path d="M1210 2.86102e-06H1215V10H1210V2.86102e-06Z" fill="#FFB2AC"/>
<path d="M1215 2.86102e-06H1220V10H1215V2.86102e-06Z" fill="#FFB2AC"/>
<path d="M1260 2.86102e-06H1265V10H1260V2.86102e-06Z" fill="#FFB2AC"/>
<path d="M1265 2.86102e-06H1270V10H1265V2.86102e-06Z" fill="#FFB2AC"/>
<path d="M1275 2.86102e-06H1280V10H1275V2.86102e-06Z" fill="#FFB2AC"/>
<path d="M1290 2.86102e-06H1295V10H1290V2.86102e-06Z" fill="#FFB2AC"/>
<path d="M1305 2.86102e-06H1310V10H1305V2.86102e-06Z" fill="#FFB2AC"/>
<path d="M1310 2.86102e-06H1315V10H1310V2.86102e-06Z" fill="#FFB2AC"/>
<path d="M1315 3.33334H1320V6.66667H1315V3.33334Z" fill="#FFB2AC"/>
<path d="M1320 3.33334H1325V6.66667H1320V3.33334Z" fill="#FFB2AC"/>
<path d="M1325 2.86102e-06H1330V10H1325V2.86102e-06Z" fill="#FFB2AC"/>
<path d="M1330 2.86102e-06H1335V10H1330V2.86102e-06Z" fill="#FFB2AC"/>
<path d="M1340 2.86102e-06H1345V10H1340V2.86102e-06Z" fill="#FFB2AC"/>
<path d="M1345 2.86102e-06H1350V10H1345V2.86102e-06Z" fill="#FFB2AC"/>
<path d="M1355 2.86102e-06H1360V10H1355V2.86102e-06Z" fill="#FFB2AC"/>
<path d="M1370 2.86102e-06H1375V10H1370V2.86102e-06Z" fill="#FFB2AC"/>
<path d="M1375 2.86102e-06H1380V10H1375V2.86102e-06Z" fill="#FFB2AC"/>
<path d="M1385 2.86102e-06H1390V10H1385V2.86102e-06Z" fill="#FFB2AC"/>
<path d="M1425 2.86102e-06H1430V10H1425V2.86102e-06Z" fill="#FFB2AC"/>
<path d="M1660 2.86102e-06H1665V10H1660V2.86102e-06Z" fill="#FFB2AC"/>
<path d="M1795 2.86102e-06H1800V10H1795V2.86102e-06Z" fill="#FFB2AC"/>
<path d="M1805 1.43051e-06H1810V5H1805V1.43051e-06Z" fill="#FFB2AC"/>
<path d="M1830 2.86102e-06H1835V10H1830V2.86102e-06Z" fill="#FFB2AC"/>
<path d="M1890 2.86102e-06H1895V10H1890V2.86102e-06Z" fill="#FFB2AC"/>
<path d="M1920 2.86102e-06H1925V10H1920V2.86102e-06Z" fill="#FFB2AC"/>
<path d="M1965 2.86102e-06H1970V10H1965V2.86102e-06Z" fill="#FFB2AC"/>
<path d="M1985 2.86102e-06H1990V10H1985V2.86102e-06Z" fill="#FFB2AC"/>
<path d="M2020 2.86102e-06H2025V10H2020V2.86102e-06Z" fill="#FFB2AC"/>
<path d="M2035 2.86102e-06H2040V10H2035V2.86102e-06Z" fill="#FFB2AC"/>
<path d="M2045 2.86102e-06H2050V10H2045V2.86102e-06Z" fill="#FFB2AC"/>
<path d="M2095 3.33334H2100V6.66667H2095V3.33334Z" fill="#FFB2AC"/>
<path d="M2100 5H2105V10H2100V5Z" fill="#FFB2AC"/>
<path d="M2105 5H2110V10H2105V5Z" fill="#FFB2AC"/>
<path d="M2110 2.86102e-06H2115V10H2110V2.86102e-06Z" fill="#FFB2AC"/>
<path d="M2135 2.86102e-06H2140V10H2135V2.86102e-06Z" fill="#FFB2AC"/>
<path d="M2155 2.86102e-06H2160V10H2155V2.86102e-06Z" fill="#FFB2AC"/>
<path d="M2160 5H2165V10H2160V5Z" fill="#FFB2AC"/>
<path d="M2185 2.86102e-06H2190V10H2185V2.86102e-06Z" fill="#FFB2AC"/>
<path d="M2190 2.86102e-06H2195V10H2190V2.86102e-06Z" fill="#FFB2AC"/>
<path d="M2210 2.86102e-06H2215V10H2210V2.86102e-06Z" fill="#FFB2AC"/>
<path d="M2230 2.86102e-06H2235V10H2230V2.86102e-06Z" fill="#FFB2AC"/>
<path d="M2290 2.86102e-06H2295V10H2290V2.86102e-06Z" fill="#FFB2AC"/>
<path d="M2530 1.43051e-06H2535V5H2530V1.43051e-06Z" fill="#FFB2AC"/>
<path d="M2715 2.86102e-06H2720V10H2715V2.86102e-06Z" fill="#FFB2AC"/>
<path d="M2920 2.86102e-06H2925V10H2920V2.86102e-06Z" fill="#FFB2AC"/>
<path d="M3105 2.86102e-06H3110V10H3105V2.86102e-06Z" fill="#FFB2AC"/>
<path d="M275 6.66667H280V10H275V6.66667Z" fill="#8C6345"/>
<path d="M280 7.5H285V10H280V7.5Z" fill="#8C6345"/>
<path d="M285 7.5H290V10H285V7.5Z" fill="#8C6345"/>
<path d="M290 6.66667H295V10H290V6.66667Z" fill="#8C6345"/>
<path d="M295 7.5H300V10H295V7.5Z" fill="#8C6345"/>
<path d="M300 7.5H305V10H300V7.5Z" fill="#8C6345"/>
<path d="M305 7.5H310V10H305V7.5Z" fill="#8C6345"/>
<path d="M310 7.5H315V10H310V7.5Z" fill="#8C6345"/>
<path d="M315 6.66667H320V10H315V6.66667Z" fill="#8C6345"/>
<path d="M320 6.66667H325V10H320V6.66667Z" fill="#8C6345"/>
<path d="M325 6.66667H330V10H325V6.66667Z" fill="#8C6345"/>
<path d="M330 7.5H335V10H330V7.5Z" fill="#8C6345"/>
<path d="M335 6.66667H340V10H335V6.66667Z" fill="#8C6345"/>
<path d="M340 7.5H345V10H340V7.5Z" fill="#8C6345"/>
<path d="M345 7.5H350V10H345V7.5Z" fill="#8C6345"/>
<path d="M350 6.66667H355V10H350V6.66667Z" fill="#8C6345"/>
<path d="M355 7.5H360V10H355V7.5Z" fill="#8C6345"/>
<path d="M360 7.5H365V10H360V7.5Z" fill="#8C6345"/>
<path d="M365 7.5H370V10H365V7.5Z" fill="#8C6345"/>
<path d="M370 7.5H375V10H370V7.5Z" fill="#8C6345"/>
<path d="M375 7.5H380V10H375V7.5Z" fill="#8C6345"/>
<path d="M380 6.66667H385V10H380V6.66667Z" fill="#8C6345"/>
<path d="M390 6.66667H395V10H390V6.66667Z" fill="#8C6345"/>
<path d="M395 7.5H400V10H395V7.5Z" fill="#8C6345"/>
<path d="M400 7.5H405V10H400V7.5Z" fill="#8C6345"/>
<path d="M405 6.66667H410V10H405V6.66667Z" fill="#8C6345"/>
<path d="M410 6.66667H415V10H410V6.66667Z" fill="#8C6345"/>
<path d="M415 6.66667H420V10H415V6.66667Z" fill="#8C6345"/>
<path d="M430 7.5H435V10H430V7.5Z" fill="#8C6345"/>
<path d="M435 7.5H440V10H435V7.5Z" fill="#8C6345"/>
<path d="M440 6.66667H445V10H440V6.66667Z" fill="#8C6345"/>
<path d="M445 5H450V10H445V5Z" fill="#8C6345"/>
<path d="M450 6.66667H455V10H450V6.66667Z" fill="#8C6345"/>
<path d="M460 6.66667H465V10H460V6.66667Z" fill="#8C6345"/>
<path d="M465 6.66667H470V10H465V6.66667Z" fill="#8C6345"/>
<path d="M470 7.5H475V10H470V7.5Z" fill="#8C6345"/>
<path d="M475 7.5H480V10H475V7.5Z" fill="#8C6345"/>
<path d="M495 6.66667H500V10H495V6.66667Z" fill="#8C6345"/>
<path d="M505 6.66667H510V10H505V6.66667Z" fill="#8C6345"/>
<path d="M530 5H535V10H530V5Z" fill="#8C6345"/>
<path d="M535 6.66667H540V10H535V6.66667Z" fill="#8C6345"/>
<path d="M545 6.66667H550V10H545V6.66667Z" fill="#8C6345"/>
<path d="M550 6.66667H555V10H550V6.66667Z" fill="#8C6345"/>
<path d="M570 5H575V10H570V5Z" fill="#8C6345"/>
<path d="M575 6.66667H580V10H575V6.66667Z" fill="#8C6345"/>
<path d="M580 6.66667H585V10H580V6.66667Z" fill="#8C6345"/>
<path d="M585 6.66667H590V10H585V6.66667Z" fill="#8C6345"/>
<path d="M590 5H595V10H590V5Z" fill="#8C6345"/>
<path d="M595 5H600V10H595V5Z" fill="#8C6345"/>
<path d="M605 2.86102e-06H610V10H605V2.86102e-06Z" fill="#8C6345"/>
<path d="M610 6.66667H615V10H610V6.66667Z" fill="#8C6345"/>
<path d="M615 5H620V10H615V5Z" fill="#8C6345"/>
<path d="M625 5H630V10H625V5Z" fill="#8C6345"/>
<path d="M630 5H635V10H630V5Z" fill="#8C6345"/>
<path d="M635 5H640V10H635V5Z" fill="#8C6345"/>
<path d="M640 6.66667H645V10H640V6.66667Z" fill="#8C6345"/>
<path d="M645 6.66667H650V10H645V6.66667Z" fill="#8C6345"/>
<path d="M650 6.66667H655V10H650V6.66667Z" fill="#8C6345"/>
<path d="M655 5H660V10H655V5Z" fill="#8C6345"/>
<path d="M675 6.66667H680V10H675V6.66667Z" fill="#8C6345"/>
<path d="M685 5H690V10H685V5Z" fill="#8C6345"/>
<path d="M690 5H695V10H690V5Z" fill="#8C6345"/>
<path d="M695 6.66667H700V10H695V6.66667Z" fill="#8C6345"/>
<path d="M700 6.66667H705V10H700V6.66667Z" fill="#8C6345"/>
<path d="M705 6.66667H710V10H705V6.66667Z" fill="#8C6345"/>
<path d="M710 6.66667H715V10H710V6.66667Z" fill="#8C6345"/>
<path d="M715 6.66667H720V10H715V6.66667Z" fill="#8C6345"/>
<path d="M720 7.5H725V10H720V7.5Z" fill="#8C6345"/>
<path d="M725 7.5H730V10H725V7.5Z" fill="#8C6345"/>
<path d="M730 7.5H735V10H730V7.5Z" fill="#8C6345"/>
<path d="M735 6.66667H740V10H735V6.66667Z" fill="#8C6345"/>
<path d="M740 6.66667H745V10H740V6.66667Z" fill="#8C6345"/>
<path d="M745 5H750V10H745V5Z" fill="#8C6345"/>
<path d="M750 5H755V10H750V5Z" fill="#8C6345"/>
<path d="M780 2.86102e-06H785V10H780V2.86102e-06Z" fill="#8C6345"/>
<path d="M785 2.86102e-06H790V10H785V2.86102e-06Z" fill="#8C6345"/>
<path d="M795 5H800V10H795V5Z" fill="#8C6345"/>
<path d="M820 5H825V10H820V5Z" fill="#8C6345"/>
<path d="M825 6.66667H830V10H825V6.66667Z" fill="#8C6345"/>
<path d="M830 5H835V10H830V5Z" fill="#8C6345"/>
<path d="M850 2.86102e-06H855V10H850V2.86102e-06Z" fill="#8C6345"/>
<path d="M855 5H860V10H855V5Z" fill="#8C6345"/>
<path d="M865 5H870V10H865V5Z" fill="#8C6345"/>
<path d="M870 6.66667H875V10H870V6.66667Z" fill="#8C6345"/>
<path d="M930 5H935V10H930V5Z" fill="#8C6345"/>
<path d="M935 5H940V10H935V5Z" fill="#8C6345"/>
<path d="M990 2.86102e-06H995V10H990V2.86102e-06Z" fill="#8C6345"/>
<path d="M1005 5H1010V10H1005V5Z" fill="#8C6345"/>
<path d="M1070 5H1075V10H1070V5Z" fill="#8C6345"/>
<path d="M1100 2.86102e-06H1105V10H1100V2.86102e-06Z" fill="#8C6345"/>
<path d="M1315 6.66667H1320V10H1315V6.66667Z" fill="#8C6345"/>
<path d="M1320 6.66667H1325V10H1320V6.66667Z" fill="#8C6345"/>
<path d="M1775 2.86102e-06H1780V10H1775V2.86102e-06Z" fill="#8C6345"/>
<path d="M1805 5H1810V10H1805V5Z" fill="#8C6345"/>
<path d="M2095 6.66667H2100V10H2095V6.66667Z" fill="#8C6345"/>
<path d="M2125 5H2130V10H2125V5Z" fill="#8C6345"/>
<path d="M2130 2.86102e-06H2135V10H2130V2.86102e-06Z" fill="#8C6345"/>
<path d="M2150 2.86102e-06H2155V10H2150V2.86102e-06Z" fill="#8C6345"/>
<path d="M2200 2.86102e-06H2205V10H2200V2.86102e-06Z" fill="#8C6345"/>
<path d="M2205 2.86102e-06H2210V10H2205V2.86102e-06Z" fill="#8C6345"/>
<path d="M2410 5H2415V10H2410V5Z" fill="#8C6345"/>
<path d="M2470 5H2475V10H2470V5Z" fill="#8C6345"/>
<path d="M2530 5H2535V10H2530V5Z" fill="#8C6345"/>
<path d="M2565 2.86102e-06H2570V10H2565V2.86102e-06Z" fill="#8C6345"/>
<path d="M2605 2.86102e-06H2610V10H2605V2.86102e-06Z" fill="#8C6345"/>
<path d="M2655 5H2660V10H2655V5Z" fill="#8C6345"/>
<path d="M3055 5H3060V10H3055V5Z" fill="#8C6345"/>
<path d="M3230 2.86102e-06H3235V10H3230V2.86102e-06Z" fill="#8C6345"/>
<path d="M3335 2.86102e-06H3340V10H3335V2.86102e-06Z" fill="#8C6345"/>
<path d="M3350 2.86102e-06H3355V10H3350V2.86102e-06Z" fill="#8C6345"/>
<path d="M560 3.12496e-06H565V10H560V3.12496e-06Z" fill="white"/>
<path d="M620 3.12496e-06H625V10H620V3.12496e-06Z" fill="white"/>
<path d="M670 3.12496e-06H675V10H670V3.12496e-06Z" fill="white"/>
<path d="M680 3.12496e-06H685V10H680V3.12496e-06Z" fill="white"/>
<path d="M770 3.12496e-06H775V10H770V3.12496e-06Z" fill="white"/>
<path d="M805 3.12496e-06H810V10H805V3.12496e-06Z" fill="white"/>
<path d="M810 3.12496e-06H815V10H810V3.12496e-06Z" fill="white"/>
<path d="M845 3.12496e-06H850V10H845V3.12496e-06Z" fill="white"/>
<path d="M880 3.12496e-06H885V10H880V3.12496e-06Z" fill="white"/>
<path d="M890 3.12496e-06H895V10H890V3.12496e-06Z" fill="white"/>
<path d="M895 3.12496e-06H900V10H895V3.12496e-06Z" fill="white"/>
<path d="M900 3.12496e-06H905V10H900V3.12496e-06Z" fill="white"/>
<path d="M905 3.12496e-06H910V10H905V3.12496e-06Z" fill="white"/>
<path d="M910 3.12496e-06H915V10H910V3.12496e-06Z" fill="white"/>
<path d="M915 3.12496e-06H920V10H915V3.12496e-06Z" fill="white"/>
<path d="M920 3.12496e-06H925V10H920V3.12496e-06Z" fill="white"/>
<path d="M940 3.12496e-06H945V10H940V3.12496e-06Z" fill="white"/>
<path d="M945 3.12496e-06H950V10H945V3.12496e-06Z" fill="white"/>
<path d="M950 3.12496e-06H955V10H950V3.12496e-06Z" fill="white"/>
<path d="M960 3.12496e-06H965V10H960V3.12496e-06Z" fill="white"/>
<path d="M965 3.12496e-06H970V10H965V3.12496e-06Z" fill="white"/>
<path d="M970 3.12496e-06H975V10H970V3.12496e-06Z" fill="white"/>
<path d="M980 3.12496e-06H985V10H980V3.12496e-06Z" fill="white"/>
<path d="M985 3.12496e-06H990V10H985V3.12496e-06Z" fill="white"/>
<path d="M995 3.12496e-06H1000V10H995V3.12496e-06Z" fill="white"/>
<path d="M1000 3.12496e-06H1005V10H1000V3.12496e-06Z" fill="white"/>
<path d="M1010 3.12496e-06H1015V10H1010V3.12496e-06Z" fill="white"/>
<path d="M1015 3.12496e-06H1020V10H1015V3.12496e-06Z" fill="white"/>
<path d="M1020 3.12496e-06H1025V10H1020V3.12496e-06Z" fill="white"/>
<path d="M1025 3.12496e-06H1030V10H1025V3.12496e-06Z" fill="white"/>
<path d="M1035 3.12496e-06H1040V10H1035V3.12496e-06Z" fill="white"/>
<path d="M1045 3.12496e-06H1050V10H1045V3.12496e-06Z" fill="white"/>
<path d="M1050 3.12496e-06H1055V10H1050V3.12496e-06Z" fill="white"/>
<path d="M1055 3.12496e-06H1060V10H1055V3.12496e-06Z" fill="white"/>
<path d="M1060 3.12496e-06H1065V10H1060V3.12496e-06Z" fill="white"/>
<path d="M1065 3.12496e-06H1070V10H1065V3.12496e-06Z" fill="white"/>
<path d="M1080 3.12496e-06H1085V10H1080V3.12496e-06Z" fill="white"/>
<path d="M1085 3.12496e-06H1090V10H1085V3.12496e-06Z" fill="white"/>
<path d="M1090 3.12496e-06H1095V10H1090V3.12496e-06Z" fill="white"/>
<path d="M1110 3.12496e-06H1115V10H1110V3.12496e-06Z" fill="white"/>
<path d="M1115 3.12496e-06H1120V10H1115V3.12496e-06Z" fill="white"/>
<path d="M1120 3.12496e-06H1125V10H1120V3.12496e-06Z" fill="white"/>
<path d="M1130 3.12496e-06H1135V10H1130V3.12496e-06Z" fill="white"/>
<path d="M1135 3.12496e-06H1140V10H1135V3.12496e-06Z" fill="white"/>
<path d="M1140 3.12496e-06H1145V10H1140V3.12496e-06Z" fill="white"/>
<path d="M1150 3.12496e-06H1155V10H1150V3.12496e-06Z" fill="white"/>
<path d="M1155 3.12496e-06H1160V10H1155V3.12496e-06Z" fill="white"/>
<path d="M1160 3.12496e-06H1165V10H1160V3.12496e-06Z" fill="white"/>
<path d="M1165 3.12496e-06H1170V10H1165V3.12496e-06Z" fill="white"/>
<path d="M1170 3.12496e-06H1175V10H1170V3.12496e-06Z" fill="white"/>
<path d="M1180 3.12496e-06H1185V10H1180V3.12496e-06Z" fill="white"/>
<path d="M1185 3.12496e-06H1190V10H1185V3.12496e-06Z" fill="white"/>
<path d="M1190 3.12496e-06H1195V10H1190V3.12496e-06Z" fill="white"/>
<path d="M1195 3.12496e-06H1200V10H1195V3.12496e-06Z" fill="white"/>
<path d="M1200 3.12496e-06H1205V10H1200V3.12496e-06Z" fill="white"/>
<path d="M1205 3.12496e-06H1210V10H1205V3.12496e-06Z" fill="white"/>
<path d="M1220 3.12496e-06H1225V10H1220V3.12496e-06Z" fill="white"/>
<path d="M1225 3.12496e-06H1230V10H1225V3.12496e-06Z" fill="white"/>
<path d="M1230 3.12496e-06H1235V10H1230V3.12496e-06Z" fill="white"/>
<path d="M1235 3.12496e-06H1240V10H1235V3.12496e-06Z" fill="white"/>
<path d="M1240 3.12496e-06H1245V10H1240V3.12496e-06Z" fill="white"/>
<path d="M1245 3.12496e-06H1250V10H1245V3.12496e-06Z" fill="white"/>
<path d="M1250 3.12496e-06H1255V10H1250V3.12496e-06Z" fill="white"/>
<path d="M1255 3.12496e-06H1260V10H1255V3.12496e-06Z" fill="white"/>
<path d="M1270 3.12496e-06H1275V10H1270V3.12496e-06Z" fill="white"/>
<path d="M1280 3.12496e-06H1285V10H1280V3.12496e-06Z" fill="white"/>
<path d="M1285 3.12496e-06H1290V10H1285V3.12496e-06Z" fill="white"/>
<path d="M1295 3.12496e-06H1300V10H1295V3.12496e-06Z" fill="white"/>
<path d="M1300 3.12496e-06H1305V10H1300V3.12496e-06Z" fill="white"/>
<path d="M1335 3.12496e-06H1340V10H1335V3.12496e-06Z" fill="white"/>
<path d="M1350 3.12496e-06H1355V10H1350V3.12496e-06Z" fill="white"/>
<path d="M1360 3.12496e-06H1365V10H1360V3.12496e-06Z" fill="white"/>
<path d="M1365 3.12496e-06H1370V10H1365V3.12496e-06Z" fill="white"/>
<path d="M1380 3.12496e-06H1385V10H1380V3.12496e-06Z" fill="white"/>
<path d="M1390 3.12496e-06H1395V10H1390V3.12496e-06Z" fill="white"/>
<path d="M1395 3.12496e-06H1400V10H1395V3.12496e-06Z" fill="white"/>
<path d="M1400 3.12496e-06H1405V10H1400V3.12496e-06Z" fill="white"/>
<path d="M1405 3.12496e-06H1410V10H1405V3.12496e-06Z" fill="white"/>
<path d="M1410 3.12496e-06H1415V10H1410V3.12496e-06Z" fill="white"/>
<path d="M1415 3.12496e-06H1420V10H1415V3.12496e-06Z" fill="white"/>
<path d="M1420 3.12496e-06H1425V10H1420V3.12496e-06Z" fill="white"/>
<path d="M1430 3.12496e-06H1435V10H1430V3.12496e-06Z" fill="white"/>
<path d="M1435 3.12496e-06H1440V10H1435V3.12496e-06Z" fill="white"/>
<path d="M1440 3.12496e-06H1445V10H1440V3.12496e-06Z" fill="white"/>
<path d="M1445 3.12496e-06H1450V10H1445V3.12496e-06Z" fill="white"/>
<path d="M1450 3.12496e-06H1455V10H1450V3.12496e-06Z" fill="white"/>
<path d="M1455 3.12496e-06H1460V10H1455V3.12496e-06Z" fill="white"/>
<path d="M1460 3.12496e-06H1465V10H1460V3.12496e-06Z" fill="white"/>
<path d="M1465 3.12496e-06H1470V10H1465V3.12496e-06Z" fill="white"/>
<path d="M1470 3.12496e-06H1475V10H1470V3.12496e-06Z" fill="white"/>
<path d="M1475 3.12496e-06H1480V10H1475V3.12496e-06Z" fill="white"/>
<path d="M1480 3.12496e-06H1485V10H1480V3.12496e-06Z" fill="white"/>
<path d="M1485 3.12496e-06H1490V10H1485V3.12496e-06Z" fill="white"/>
<path d="M1490 3.12496e-06H1495V10H1490V3.12496e-06Z" fill="white"/>
<path d="M1495 3.12496e-06H1500V10H1495V3.12496e-06Z" fill="white"/>
<path d="M1500 3.12496e-06H1505V10H1500V3.12496e-06Z" fill="white"/>
<path d="M1505 3.12496e-06H1510V10H1505V3.12496e-06Z" fill="white"/>
<path d="M1510 3.12496e-06H1515V10H1510V3.12496e-06Z" fill="white"/>
<path d="M1515 3.12496e-06H1520V10H1515V3.12496e-06Z" fill="white"/>
<path d="M1520 3.12496e-06H1525V10H1520V3.12496e-06Z" fill="white"/>
<path d="M1525 3.12496e-06H1530V10H1525V3.12496e-06Z" fill="white"/>
<path d="M1530 3.12496e-06H1535V10H1530V3.12496e-06Z" fill="white"/>
<path d="M1535 3.12496e-06H1540V10H1535V3.12496e-06Z" fill="white"/>
<path d="M1540 3.12496e-06H1545V10H1540V3.12496e-06Z" fill="white"/>
<path d="M1545 3.12496e-06H1550V10H1545V3.12496e-06Z" fill="white"/>
<path d="M1550 3.12496e-06H1555V10H1550V3.12496e-06Z" fill="white"/>
<path d="M1555 3.12496e-06H1560V10H1555V3.12496e-06Z" fill="white"/>
<path d="M1560 3.12496e-06H1565V10H1560V3.12496e-06Z" fill="white"/>
<path d="M1565 3.12496e-06H1570V10H1565V3.12496e-06Z" fill="white"/>
<path d="M1570 3.12496e-06H1575V10H1570V3.12496e-06Z" fill="white"/>
<path d="M1575 3.12496e-06H1580V10H1575V3.12496e-06Z" fill="white"/>
<path d="M1580 3.12496e-06H1585V10H1580V3.12496e-06Z" fill="white"/>
<path d="M1585 3.12496e-06H1590V10H1585V3.12496e-06Z" fill="white"/>
<path d="M1590 3.12496e-06H1595V10H1590V3.12496e-06Z" fill="white"/>
<path d="M1595 3.12496e-06H1600V10H1595V3.12496e-06Z" fill="white"/>
<path d="M1600 3.12496e-06H1605V10H1600V3.12496e-06Z" fill="white"/>
<path d="M1605 3.12496e-06H1610V10H1605V3.12496e-06Z" fill="white"/>
<path d="M1610 3.12496e-06H1615V10H1610V3.12496e-06Z" fill="white"/>
<path d="M1615 3.12496e-06H1620V10H1615V3.12496e-06Z" fill="white"/>
<path d="M1620 3.12496e-06H1625V10H1620V3.12496e-06Z" fill="white"/>
<path d="M1625 3.12496e-06H1630V10H1625V3.12496e-06Z" fill="white"/>
<path d="M1630 3.12496e-06H1635V10H1630V3.12496e-06Z" fill="white"/>
<path d="M1635 3.12496e-06H1640V10H1635V3.12496e-06Z" fill="white"/>
<path d="M1640 3.12496e-06H1645V10H1640V3.12496e-06Z" fill="white"/>
<path d="M1645 3.12496e-06H1650V10H1645V3.12496e-06Z" fill="white"/>
<path d="M1650 3.12496e-06H1655V10H1650V3.12496e-06Z" fill="white"/>
<path d="M1655 3.12496e-06H1660V10H1655V3.12496e-06Z" fill="white"/>
<path d="M1665 3.12496e-06H1670V10H1665V3.12496e-06Z" fill="white"/>
<path d="M1670 3.12496e-06H1675V10H1670V3.12496e-06Z" fill="white"/>
<path d="M1675 3.12496e-06H1680V10H1675V3.12496e-06Z" fill="white"/>
<path d="M1680 3.12496e-06H1685V10H1680V3.12496e-06Z" fill="white"/>
<path d="M1685 3.12496e-06H1690V10H1685V3.12496e-06Z" fill="white"/>
<path d="M1690 3.12496e-06H1695V10H1690V3.12496e-06Z" fill="white"/>
<path d="M1695 3.12496e-06H1700V10H1695V3.12496e-06Z" fill="white"/>
<path d="M1700 3.12496e-06H1705V10H1700V3.12496e-06Z" fill="white"/>
<path d="M1705 3.12496e-06H1710V10H1705V3.12496e-06Z" fill="white"/>
<path d="M1710 3.12496e-06H1715V10H1710V3.12496e-06Z" fill="white"/>
<path d="M1715 3.12496e-06H1720V10H1715V3.12496e-06Z" fill="white"/>
<path d="M1720 3.12496e-06H1725V10H1720V3.12496e-06Z" fill="white"/>
<path d="M1725 3.12496e-06H1730V10H1725V3.12496e-06Z" fill="white"/>
<path d="M1730 3.12496e-06H1735V10H1730V3.12496e-06Z" fill="white"/>
<path d="M1735 3.12496e-06H1740V10H1735V3.12496e-06Z" fill="white"/>
<path d="M1740 3.12496e-06H1745V10H1740V3.12496e-06Z" fill="white"/>
<path d="M1745 3.12496e-06H1750V10H1745V3.12496e-06Z" fill="white"/>
<path d="M1750 3.12496e-06H1755V10H1750V3.12496e-06Z" fill="white"/>
<path d="M1755 3.12496e-06H1760V10H1755V3.12496e-06Z" fill="white"/>
<path d="M1760 3.12496e-06H1765V10H1760V3.12496e-06Z" fill="white"/>
<path d="M1765 3.12496e-06H1770V10H1765V3.12496e-06Z" fill="white"/>
<path d="M1770 3.12496e-06H1775V10H1770V3.12496e-06Z" fill="white"/>
<path d="M1780 3.12496e-06H1785V10H1780V3.12496e-06Z" fill="white"/>
<path d="M1785 3.12496e-06H1790V10H1785V3.12496e-06Z" fill="white"/>
<path d="M1790 3.12496e-06H1795V10H1790V3.12496e-06Z" fill="white"/>
<path d="M1800 3.12496e-06H1805V10H1800V3.12496e-06Z" fill="white"/>
<path d="M1810 3.12496e-06H1815V10H1810V3.12496e-06Z" fill="white"/>
<path d="M1815 3.12496e-06H1820V10H1815V3.12496e-06Z" fill="white"/>
<path d="M1825 3.12496e-06H1830V10H1825V3.12496e-06Z" fill="white"/>
<path d="M1835 3.12496e-06H1840V10H1835V3.12496e-06Z" fill="white"/>
<path d="M1840 3.12496e-06H1845V10H1840V3.12496e-06Z" fill="white"/>
<path d="M1845 3.12496e-06H1850V10H1845V3.12496e-06Z" fill="white"/>
<path d="M1850 3.12496e-06H1855V10H1850V3.12496e-06Z" fill="white"/>
<path d="M1855 3.12496e-06H1860V10H1855V3.12496e-06Z" fill="white"/>
<path d="M1860 3.12496e-06H1865V10H1860V3.12496e-06Z" fill="white"/>
<path d="M1865 3.12496e-06H1870V10H1865V3.12496e-06Z" fill="white"/>
<path d="M1870 3.12496e-06H1875V10H1870V3.12496e-06Z" fill="white"/>
<path d="M1875 3.12496e-06H1880V10H1875V3.12496e-06Z" fill="white"/>
<path d="M1880 3.12496e-06H1885V10H1880V3.12496e-06Z" fill="white"/>
<path d="M1885 3.12496e-06H1890V10H1885V3.12496e-06Z" fill="white"/>
<path d="M1895 3.12496e-06H1900V10H1895V3.12496e-06Z" fill="white"/>
<path d="M1900 3.12496e-06H1905V10H1900V3.12496e-06Z" fill="white"/>
<path d="M1905 3.12496e-06H1910V10H1905V3.12496e-06Z" fill="white"/>
<path d="M1910 3.12496e-06H1915V10H1910V3.12496e-06Z" fill="white"/>
<path d="M1915 3.12496e-06H1920V10H1915V3.12496e-06Z" fill="white"/>
<path d="M1925 3.12496e-06H1930V10H1925V3.12496e-06Z" fill="white"/>
<path d="M1930 3.12496e-06H1935V10H1930V3.12496e-06Z" fill="white"/>
<path d="M1935 3.12496e-06H1940V10H1935V3.12496e-06Z" fill="white"/>
<path d="M1940 3.12496e-06H1945V10H1940V3.12496e-06Z" fill="white"/>
<path d="M1945 3.12496e-06H1950V10H1945V3.12496e-06Z" fill="white"/>
<path d="M1950 3.12496e-06H1955V10H1950V3.12496e-06Z" fill="white"/>
<path d="M1955 3.12496e-06H1960V10H1955V3.12496e-06Z" fill="white"/>
<path d="M1960 3.12496e-06H1965V10H1960V3.12496e-06Z" fill="white"/>
<path d="M1970 3.12496e-06H1975V10H1970V3.12496e-06Z" fill="white"/>
<path d="M1975 3.12496e-06H1980V10H1975V3.12496e-06Z" fill="white"/>
<path d="M1980 3.12496e-06H1985V10H1980V3.12496e-06Z" fill="white"/>
<path d="M1990 3.12496e-06H1995V10H1990V3.12496e-06Z" fill="white"/>
<path d="M1995 3.12496e-06H2000V10H1995V3.12496e-06Z" fill="white"/>
<path d="M2000 3.12496e-06H2005V10H2000V3.12496e-06Z" fill="white"/>
<path d="M2005 3.12496e-06H2010V10H2005V3.12496e-06Z" fill="white"/>
<path d="M2010 3.12496e-06H2015V10H2010V3.12496e-06Z" fill="white"/>
<path d="M2015 3.12496e-06H2020V10H2015V3.12496e-06Z" fill="white"/>
<path d="M2025 3.12496e-06H2030V10H2025V3.12496e-06Z" fill="white"/>
<path d="M2030 3.12496e-06H2035V10H2030V3.12496e-06Z" fill="white"/>
<path d="M2040 3.12496e-06H2045V10H2040V3.12496e-06Z" fill="white"/>
<path d="M2050 3.12496e-06H2055V10H2050V3.12496e-06Z" fill="white"/>
<path d="M2055 3.12496e-06H2060V10H2055V3.12496e-06Z" fill="white"/>
<path d="M2060 3.12496e-06H2065V10H2060V3.12496e-06Z" fill="white"/>
<path d="M2065 3.12496e-06H2070V10H2065V3.12496e-06Z" fill="white"/>
<path d="M2070 3.12496e-06H2075V10H2070V3.12496e-06Z" fill="white"/>
<path d="M2075 3.12496e-06H2080V10H2075V3.12496e-06Z" fill="white"/>
<path d="M2080 3.12496e-06H2085V10H2080V3.12496e-06Z" fill="white"/>
<path d="M2085 3.12496e-06H2090V10H2085V3.12496e-06Z" fill="white"/>
<path d="M2090 3.12496e-06H2095V10H2090V3.12496e-06Z" fill="white"/>
<path d="M2115 3.12496e-06H2120V10H2115V3.12496e-06Z" fill="white"/>
<path d="M2120 3.12496e-06H2125V10H2120V3.12496e-06Z" fill="white"/>
<path d="M2140 3.12496e-06H2145V10H2140V3.12496e-06Z" fill="white"/>
<path d="M2145 3.12496e-06H2150V10H2145V3.12496e-06Z" fill="white"/>
<path d="M2170 3.12496e-06H2175V10H2170V3.12496e-06Z" fill="white"/>
<path d="M2175 3.12496e-06H2180V10H2175V3.12496e-06Z" fill="white"/>
<path d="M2180 3.12496e-06H2185V10H2180V3.12496e-06Z" fill="white"/>
<path d="M2195 3.12496e-06H2200V10H2195V3.12496e-06Z" fill="white"/>
<path d="M2215 3.12496e-06H2220V10H2215V3.12496e-06Z" fill="white"/>
<path d="M2225 3.12496e-06H2230V10H2225V3.12496e-06Z" fill="white"/>
<path d="M2235 3.12496e-06H2240V10H2235V3.12496e-06Z" fill="white"/>
<path d="M2240 3.12496e-06H2245V10H2240V3.12496e-06Z" fill="white"/>
<path d="M2250 3.12496e-06H2255V10H2250V3.12496e-06Z" fill="white"/>
<path d="M2255 3.12496e-06H2260V10H2255V3.12496e-06Z" fill="white"/>
<path d="M2260 3.12496e-06H2265V10H2260V3.12496e-06Z" fill="white"/>
<path d="M2265 3.12496e-06H2270V10H2265V3.12496e-06Z" fill="white"/>
<path d="M2270 3.12496e-06H2275V10H2270V3.12496e-06Z" fill="white"/>
<path d="M2275 3.12496e-06H2280V10H2275V3.12496e-06Z" fill="white"/>
<path d="M2280 3.12496e-06H2285V10H2280V3.12496e-06Z" fill="white"/>
<path d="M2285 3.12496e-06H2290V10H2285V3.12496e-06Z" fill="white"/>
<path d="M2295 3.12496e-06H2300V10H2295V3.12496e-06Z" fill="white"/>
<path d="M2300 3.12496e-06H2305V10H2300V3.12496e-06Z" fill="white"/>
<path d="M2305 3.12496e-06H2310V10H2305V3.12496e-06Z" fill="white"/>
<path d="M2310 3.12496e-06H2315V10H2310V3.12496e-06Z" fill="white"/>
<path d="M2315 3.12496e-06H2320V10H2315V3.12496e-06Z" fill="white"/>
<path d="M2320 3.12496e-06H2325V10H2320V3.12496e-06Z" fill="white"/>
<path d="M2325 3.12496e-06H2330V10H2325V3.12496e-06Z" fill="white"/>
<path d="M2330 3.12496e-06H2335V10H2330V3.12496e-06Z" fill="white"/>
<path d="M2335 3.12496e-06H2340V10H2335V3.12496e-06Z" fill="white"/>
<path d="M2340 3.12496e-06H2345V10H2340V3.12496e-06Z" fill="white"/>
<path d="M2350 3.12496e-06H2355V10H2350V3.12496e-06Z" fill="white"/>
<path d="M2355 3.12496e-06H2360V10H2355V3.12496e-06Z" fill="white"/>
<path d="M2360 3.12496e-06H2365V10H2360V3.12496e-06Z" fill="white"/>
<path d="M2365 3.12496e-06H2370V10H2365V3.12496e-06Z" fill="white"/>
<path d="M2370 3.12496e-06H2375V10H2370V3.12496e-06Z" fill="white"/>
<path d="M2375 3.12496e-06H2380V10H2375V3.12496e-06Z" fill="white"/>
<path d="M2380 3.12496e-06H2385V10H2380V3.12496e-06Z" fill="white"/>
<path d="M2385 3.12496e-06H2390V10H2385V3.12496e-06Z" fill="white"/>
<path d="M2390 3.12496e-06H2395V10H2390V3.12496e-06Z" fill="white"/>
<path d="M2395 3.12496e-06H2400V10H2395V3.12496e-06Z" fill="white"/>
<path d="M2400 3.12496e-06H2405V10H2400V3.12496e-06Z" fill="white"/>
<path d="M2405 3.12496e-06H2410V10H2405V3.12496e-06Z" fill="white"/>
<path d="M2420 3.12496e-06H2425V10H2420V3.12496e-06Z" fill="white"/>
<path d="M2425 3.12496e-06H2430V10H2425V3.12496e-06Z" fill="white"/>
<path d="M2430 3.12496e-06H2435V10H2430V3.12496e-06Z" fill="white"/>
<path d="M2435 3.12496e-06H2440V10H2435V3.12496e-06Z" fill="white"/>
<path d="M2440 3.12496e-06H2445V10H2440V3.12496e-06Z" fill="white"/>
<path d="M2445 3.12496e-06H2450V10H2445V3.12496e-06Z" fill="white"/>
<path d="M2450 3.12496e-06H2455V10H2450V3.12496e-06Z" fill="white"/>
<path d="M2455 3.12496e-06H2460V10H2455V3.12496e-06Z" fill="white"/>
<path d="M2460 3.12496e-06H2465V10H2460V3.12496e-06Z" fill="white"/>
<path d="M2465 3.12496e-06H2470V10H2465V3.12496e-06Z" fill="white"/>
<path d="M2475 3.12496e-06H2480V10H2475V3.12496e-06Z" fill="white"/>
<path d="M2480 3.12496e-06H2485V10H2480V3.12496e-06Z" fill="white"/>
<path d="M2485 3.12496e-06H2490V10H2485V3.12496e-06Z" fill="white"/>
<path d="M2490 3.12496e-06H2495V10H2490V3.12496e-06Z" fill="white"/>
<path d="M2495 3.12496e-06H2500V10H2495V3.12496e-06Z" fill="white"/>
<path d="M2500 3.12496e-06H2505V10H2500V3.12496e-06Z" fill="white"/>
<path d="M2505 3.12496e-06H2510V10H2505V3.12496e-06Z" fill="white"/>
<path d="M2510 3.12496e-06H2515V10H2510V3.12496e-06Z" fill="white"/>
<path d="M2515 3.12496e-06H2520V10H2515V3.12496e-06Z" fill="white"/>
<path d="M2520 3.12496e-06H2525V10H2520V3.12496e-06Z" fill="white"/>
<path d="M2525 3.12496e-06H2530V10H2525V3.12496e-06Z" fill="white"/>
<path d="M2540 3.12496e-06H2545V10H2540V3.12496e-06Z" fill="white"/>
<path d="M2545 3.12496e-06H2550V10H2545V3.12496e-06Z" fill="white"/>
<path d="M2550 3.12496e-06H2555V10H2550V3.12496e-06Z" fill="white"/>
<path d="M2555 3.12496e-06H2560V10H2555V3.12496e-06Z" fill="white"/>
<path d="M2560 3.12496e-06H2565V10H2560V3.12496e-06Z" fill="white"/>
<path d="M2570 3.12496e-06H2575V10H2570V3.12496e-06Z" fill="white"/>
<path d="M2575 3.12496e-06H2580V10H2575V3.12496e-06Z" fill="white"/>
<path d="M2580 3.12496e-06H2585V10H2580V3.12496e-06Z" fill="white"/>
<path d="M2585 3.12496e-06H2590V10H2585V3.12496e-06Z" fill="white"/>
<path d="M2590 3.12496e-06H2595V10H2590V3.12496e-06Z" fill="white"/>
<path d="M2595 3.12496e-06H2600V10H2595V3.12496e-06Z" fill="white"/>
<path d="M2600 3.12496e-06H2605V10H2600V3.12496e-06Z" fill="white"/>
<path d="M2615 3.12496e-06H2620V10H2615V3.12496e-06Z" fill="white"/>
<path d="M2620 3.12496e-06H2625V10H2620V3.12496e-06Z" fill="white"/>
<path d="M2625 3.12496e-06H2630V10H2625V3.12496e-06Z" fill="white"/>
<path d="M2630 3.12496e-06H2635V10H2630V3.12496e-06Z" fill="white"/>
<path d="M2635 3.12496e-06H2640V10H2635V3.12496e-06Z" fill="white"/>
<path d="M2640 3.12496e-06H2645V10H2640V3.12496e-06Z" fill="white"/>
<path d="M2645 3.12496e-06H2650V10H2645V3.12496e-06Z" fill="white"/>
<path d="M2650 3.12496e-06H2655V10H2650V3.12496e-06Z" fill="white"/>
<path d="M2665 3.12496e-06H2670V10H2665V3.12496e-06Z" fill="white"/>
<path d="M2670 3.12496e-06H2675V10H2670V3.12496e-06Z" fill="white"/>
<path d="M2675 3.12496e-06H2680V10H2675V3.12496e-06Z" fill="white"/>
<path d="M2680 3.12496e-06H2685V10H2680V3.12496e-06Z" fill="white"/>
<path d="M2685 3.12496e-06H2690V10H2685V3.12496e-06Z" fill="white"/>
<path d="M2690 3.12496e-06H2695V10H2690V3.12496e-06Z" fill="white"/>
<path d="M2695 3.12496e-06H2700V10H2695V3.12496e-06Z" fill="white"/>
<path d="M2700 3.12496e-06H2705V10H2700V3.12496e-06Z" fill="white"/>
<path d="M2705 3.12496e-06H2710V10H2705V3.12496e-06Z" fill="white"/>
<path d="M2710 3.12496e-06H2715V10H2710V3.12496e-06Z" fill="white"/>
<path d="M2720 3.12496e-06H2725V10H2720V3.12496e-06Z" fill="white"/>
<path d="M2725 3.12496e-06H2730V10H2725V3.12496e-06Z" fill="white"/>
<path d="M2730 3.12496e-06H2735V10H2730V3.12496e-06Z" fill="white"/>
<path d="M2735 3.12496e-06H2740V10H2735V3.12496e-06Z" fill="white"/>
<path d="M2740 3.12496e-06H2745V10H2740V3.12496e-06Z" fill="white"/>
<path d="M2745 3.12496e-06H2750V10H2745V3.12496e-06Z" fill="white"/>
<path d="M2750 3.12496e-06H2755V10H2750V3.12496e-06Z" fill="white"/>
<path d="M2755 3.12496e-06H2760V10H2755V3.12496e-06Z" fill="white"/>
<path d="M2760 3.12496e-06H2765V10H2760V3.12496e-06Z" fill="white"/>
<path d="M2765 3.12496e-06H2770V10H2765V3.12496e-06Z" fill="white"/>
<path d="M2770 3.12496e-06H2775V10H2770V3.12496e-06Z" fill="white"/>
<path d="M2775 3.12496e-06H2780V10H2775V3.12496e-06Z" fill="white"/>
<path d="M2780 3.12496e-06H2785V10H2780V3.12496e-06Z" fill="white"/>
<path d="M2785 3.12496e-06H2790V10H2785V3.12496e-06Z" fill="white"/>
<path d="M2790 3.12496e-06H2795V10H2790V3.12496e-06Z" fill="white"/>
<path d="M2795 3.12496e-06H2800V10H2795V3.12496e-06Z" fill="white"/>
<path d="M2800 3.12496e-06H2805V10H2800V3.12496e-06Z" fill="white"/>
<path d="M2805 3.12496e-06H2810V10H2805V3.12496e-06Z" fill="white"/>
<path d="M2810 3.12496e-06H2815V10H2810V3.12496e-06Z" fill="white"/>
<path d="M2815 3.12496e-06H2820V10H2815V3.12496e-06Z" fill="white"/>
<path d="M2820 3.12496e-06H2825V10H2820V3.12496e-06Z" fill="white"/>
<path d="M2825 3.12496e-06H2830V10H2825V3.12496e-06Z" fill="white"/>
<path d="M2830 3.12496e-06H2835V10H2830V3.12496e-06Z" fill="white"/>
<path d="M2835 3.12496e-06H2840V10H2835V3.12496e-06Z" fill="white"/>
<path d="M2840 3.12496e-06H2845V10H2840V3.12496e-06Z" fill="white"/>
<path d="M2845 3.12496e-06H2850V10H2845V3.12496e-06Z" fill="white"/>
<path d="M2850 3.12496e-06H2855V10H2850V3.12496e-06Z" fill="white"/>
<path d="M2855 3.12496e-06H2860V10H2855V3.12496e-06Z" fill="white"/>
<path d="M2860 3.12496e-06H2865V10H2860V3.12496e-06Z" fill="white"/>
<path d="M2865 3.12496e-06H2870V10H2865V3.12496e-06Z" fill="white"/>
<path d="M2870 3.12496e-06H2875V10H2870V3.12496e-06Z" fill="white"/>
<path d="M2875 3.12496e-06H2880V10H2875V3.12496e-06Z" fill="white"/>
<path d="M2880 3.12496e-06H2885V10H2880V3.12496e-06Z" fill="white"/>
<path d="M2885 3.12496e-06H2890V10H2885V3.12496e-06Z" fill="white"/>
<path d="M2890 3.12496e-06H2895V10H2890V3.12496e-06Z" fill="white"/>
<path d="M2895 3.12496e-06H2900V10H2895V3.12496e-06Z" fill="white"/>
<path d="M2900 3.12496e-06H2905V10H2900V3.12496e-06Z" fill="white"/>
<path d="M2905 3.12496e-06H2910V10H2905V3.12496e-06Z" fill="white"/>
<path d="M2910 3.12496e-06H2915V10H2910V3.12496e-06Z" fill="white"/>
<path d="M2915 3.12496e-06H2920V10H2915V3.12496e-06Z" fill="white"/>
<path d="M2925 3.12496e-06H2930V10H2925V3.12496e-06Z" fill="white"/>
<path d="M2930 3.12496e-06H2935V10H2930V3.12496e-06Z" fill="white"/>
<path d="M2935 3.12496e-06H2940V10H2935V3.12496e-06Z" fill="white"/>
<path d="M2940 3.12496e-06H2945V10H2940V3.12496e-06Z" fill="white"/>
<path d="M2945 3.12496e-06H2950V10H2945V3.12496e-06Z" fill="white"/>
<path d="M2950 3.12496e-06H2955V10H2950V3.12496e-06Z" fill="white"/>
<path d="M2955 3.12496e-06H2960V10H2955V3.12496e-06Z" fill="white"/>
<path d="M2960 3.12496e-06H2965V10H2960V3.12496e-06Z" fill="white"/>
<path d="M2965 3.12496e-06H2970V10H2965V3.12496e-06Z" fill="white"/>
<path d="M2970 3.12496e-06H2975V10H2970V3.12496e-06Z" fill="white"/>
<path d="M2975 3.12496e-06H2980V10H2975V3.12496e-06Z" fill="white"/>
<path d="M2980 3.12496e-06H2985V10H2980V3.12496e-06Z" fill="white"/>
<path d="M2985 3.12496e-06H2990V10H2985V3.12496e-06Z" fill="white"/>
<path d="M2990 3.12496e-06H2995V10H2990V3.12496e-06Z" fill="white"/>
<path d="M2995 3.12496e-06H3000V10H2995V3.12496e-06Z" fill="white"/>
<path d="M3000 3.12496e-06H3005V10H3000V3.12496e-06Z" fill="white"/>
<path d="M3005 3.12496e-06H3010V10H3005V3.12496e-06Z" fill="white"/>
<path d="M3010 3.12496e-06H3015V10H3010V3.12496e-06Z" fill="white"/>
<path d="M3015 3.12496e-06H3020V10H3015V3.12496e-06Z" fill="white"/>
<path d="M3020 3.12496e-06H3025V10H3020V3.12496e-06Z" fill="white"/>
<path d="M3025 3.12496e-06H3030V10H3025V3.12496e-06Z" fill="white"/>
<path d="M3030 3.12496e-06H3035V10H3030V3.12496e-06Z" fill="white"/>
<path d="M3035 3.12496e-06H3040V10H3035V3.12496e-06Z" fill="white"/>
<path d="M3040 3.12496e-06H3045V10H3040V3.12496e-06Z" fill="white"/>
<path d="M3045 3.12496e-06H3050V10H3045V3.12496e-06Z" fill="white"/>
<path d="M3050 3.12496e-06H3055V10H3050V3.12496e-06Z" fill="white"/>
<path d="M3060 3.12496e-06H3065V10H3060V3.12496e-06Z" fill="white"/>
<path d="M3065 3.12496e-06H3070V10H3065V3.12496e-06Z" fill="white"/>
<path d="M3070 3.12496e-06H3075V10H3070V3.12496e-06Z" fill="white"/>
<path d="M3075 3.12496e-06H3080V10H3075V3.12496e-06Z" fill="white"/>
<path d="M3080 3.12496e-06H3085V10H3080V3.12496e-06Z" fill="white"/>
<path d="M3085 3.12496e-06H3090V10H3085V3.12496e-06Z" fill="white"/>
<path d="M3090 3.12496e-06H3095V10H3090V3.12496e-06Z" fill="white"/>
<path d="M3095 3.12496e-06H3100V10H3095V3.12496e-06Z" fill="white"/>
<path d="M3100 3.12496e-06H3105V10H3100V3.12496e-06Z" fill="white"/>
<path d="M3110 3.12496e-06H3115V10H3110V3.12496e-06Z" fill="white"/>
<path d="M3115 3.12496e-06H3120V10H3115V3.12496e-06Z" fill="white"/>
<path d="M3120 3.12496e-06H3125V10H3120V3.12496e-06Z" fill="white"/>
<path d="M3125 3.12496e-06H3130V10H3125V3.12496e-06Z" fill="white"/>
<path d="M3130 3.12496e-06H3135V10H3130V3.12496e-06Z" fill="white"/>
<path d="M3135 3.12496e-06H3140V10H3135V3.12496e-06Z" fill="white"/>
<path d="M3140 3.12496e-06H3145V10H3140V3.12496e-06Z" fill="white"/>
<path d="M3145 3.12496e-06H3150V10H3145V3.12496e-06Z" fill="white"/>
<path d="M3150 3.12496e-06H3155V10H3150V3.12496e-06Z" fill="white"/>
<path d="M3155 3.12496e-06H3160V10H3155V3.12496e-06Z" fill="white"/>
<path d="M3160 3.12496e-06H3165V10H3160V3.12496e-06Z" fill="white"/>
<path d="M3165 3.12496e-06H3170V10H3165V3.12496e-06Z" fill="white"/>
<path d="M3170 3.12496e-06H3175V10H3170V3.12496e-06Z" fill="white"/>
<path d="M3175 3.12496e-06H3180V10H3175V3.12496e-06Z" fill="white"/>
<path d="M3180 3.12496e-06H3185V10H3180V3.12496e-06Z" fill="white"/>
<path d="M3185 3.12496e-06H3190V10H3185V3.12496e-06Z" fill="white"/>
<path d="M3190 3.12496e-06H3195V10H3190V3.12496e-06Z" fill="white"/>
<path d="M3195 3.12496e-06H3200V10H3195V3.12496e-06Z" fill="white"/>
<path d="M3200 3.12496e-06H3205V10H3200V3.12496e-06Z" fill="white"/>
<path d="M3205 3.12496e-06H3210V10H3205V3.12496e-06Z" fill="white"/>
<path d="M3210 3.12496e-06H3215V10H3210V3.12496e-06Z" fill="white"/>
<path d="M3215 3.12496e-06H3220V10H3215V3.12496e-06Z" fill="white"/>
<path d="M3220 3.12496e-06H3225V10H3220V3.12496e-06Z" fill="white"/>
<path d="M3225 3.12496e-06H3230V10H3225V3.12496e-06Z" fill="white"/>
<path d="M3235 3.12496e-06H3240V10H3235V3.12496e-06Z" fill="white"/>
<path d="M3240 3.12496e-06H3245V10H3240V3.12496e-06Z" fill="white"/>
<path d="M3245 3.12496e-06H3250V10H3245V3.12496e-06Z" fill="white"/>
<path d="M3250 3.12496e-06H3255V10H3250V3.12496e-06Z" fill="white"/>
<path d="M3255 3.12496e-06H3260V10H3255V3.12496e-06Z" fill="white"/>
<path d="M3260 3.12496e-06H3265V10H3260V3.12496e-06Z" fill="white"/>
<path d="M3265 3.12496e-06H3270V10H3265V3.12496e-06Z" fill="white"/>
<path d="M3270 3.12496e-06H3275V10H3270V3.12496e-06Z" fill="white"/>
<path d="M3275 3.12496e-06H3280V10H3275V3.12496e-06Z" fill="white"/>
<path d="M3280 3.12496e-06H3285V10H3280V3.12496e-06Z" fill="white"/>
<path d="M3285 3.12496e-06H3290V10H3285V3.12496e-06Z" fill="white"/>
<path d="M3290 3.12496e-06H3295V10H3290V3.12496e-06Z" fill="white"/>
<path d="M3295 3.12496e-06H3300V10H3295V3.12496e-06Z" fill="white"/>
<path d="M3300 3.12496e-06H3305V10H3300V3.12496e-06Z" fill="white"/>
<path d="M3305 3.12496e-06H3310V10H3305V3.12496e-06Z" fill="white"/>
<path d="M3310 3.12496e-06H3315V10H3310V3.12496e-06Z" fill="white"/>
<path d="M3315 3.12496e-06H3320V10H3315V3.12496e-06Z" fill="white"/>
<path d="M3320 3.12496e-06H3325V10H3320V3.12496e-06Z" fill="white"/>
<path d="M3325 3.12496e-06H3330V10H3325V3.12496e-06Z" fill="white"/>
<path d="M3330 3.12496e-06H3335V10H3330V3.12496e-06Z" fill="white"/>
<path d="M3340 3.12496e-06H3345V10H3340V3.12496e-06Z" fill="white"/>
<path d="M3345 3.12496e-06H3350V10H3345V3.12496e-06Z" fill="white"/>
<path d="M3355 3.12496e-06H3360V10H3355V3.12496e-06Z" fill="white"/>
<path d="M3360 3.12496e-06H3365V10H3360V3.12496e-06Z" fill="white"/>
<path d="M3365 3.12496e-06H3370V10H3365V3.12496e-06Z" fill="white"/>
<path d="M3370 3.12496e-06H3375V10H3370V3.12496e-06Z" fill="white"/>
<path d="M3375 3.12496e-06H3380V10H3375V3.12496e-06Z" fill="white"/>
<path d="M3380 3.12496e-06H3385V10H3380V3.12496e-06Z" fill="white"/>
<path d="M3385 3.12496e-06H3390V10H3385V3.12496e-06Z" fill="white"/>
<path d="M3390 3.12496e-06H3395V10H3390V3.12496e-06Z" fill="white"/>
<path d="M3395 3.12496e-06H3400V10H3395V3.12496e-06Z" fill="white"/>
<path d="M3400 3.12496e-06H3405V10H3400V3.12496e-06Z" fill="white"/>
<path d="M3405 3.12496e-06H3410V10H3405V3.12496e-06Z" fill="white"/>
<path d="M3410 3.12496e-06H3415V10H3410V3.12496e-06Z" fill="white"/>
<path d="M3415 3.12496e-06H3420V10H3415V3.12496e-06Z" fill="white"/>
<path d="M3420 3.12496e-06H3425V10H3420V3.12496e-06Z" fill="white"/>
<path d="M3425 3.12496e-06H3430V10H3425V3.12496e-06Z" fill="white"/>
<path d="M3430 3.12496e-06H3435V10H3430V3.12496e-06Z" fill="white"/>
<path d="M3435 3.12496e-06H3440V10H3435V3.12496e-06Z" fill="white"/>
<path d="M3440 3.12496e-06H3445V10H3440V3.12496e-06Z" fill="white"/>
<path d="M3445 3.12496e-06H3450V10H3445V3.12496e-06Z" fill="white"/>
<path d="M3450 3.12496e-06H3455V10H3450V3.12496e-06Z" fill="white"/>
<path d="M3460 3.12496e-06H3465V10H3460V3.12496e-06Z" fill="white"/>
<path d="M3465 3.12496e-06H3470V10H3465V3.12496e-06Z" fill="white"/>
<path d="M3470 3.12496e-06H3475V10H3470V3.12496e-06Z" fill="white"/>
<path d="M3475 3.12496e-06H3480V10H3475V3.12496e-06Z" fill="white"/>
<path d="M3480 3.12496e-06H3485V10H3480V3.12496e-06Z" fill="white"/>
<path d="M3485 3.12496e-06H3490V10H3485V3.12496e-06Z" fill="white"/>
<path d="M3490 3.12496e-06H3495V10H3490V3.12496e-06Z" fill="white"/>
<path d="M3495 3.12496e-06H3500V10H3495V3.12496e-06Z" fill="white"/>
<path d="M3500 3.12496e-06H3505V10H3500V3.12496e-06Z" fill="white"/>
<path d="M3505 3.12496e-06H3510V10H3505V3.12496e-06Z" fill="white"/>
<path d="M3510 3.12496e-06H3515V10H3510V3.12496e-06Z" fill="white"/>
<path d="M3515 3.12496e-06H3520V10H3515V3.12496e-06Z" fill="white"/>
<path d="M3520 3.12496e-06H3525V10H3520V3.12496e-06Z" fill="white"/>
<path d="M3525 3.12496e-06H3530V10H3525V3.12496e-06Z" fill="white"/>
<path d="M3530 3.12496e-06H3535V10H3530V3.12496e-06Z" fill="white"/>
</svg>
