<svg width="3650" height="5" viewBox="0 0 3650 5" fill="none" xmlns="http://www.w3.org/2000/svg">
<path d="M280 4.20532e-06H285V1.25H280V4.20532e-06Z" fill="#FF3D00"/>
<path d="M285 4.20532e-06H290V1.25H285V4.20532e-06Z" fill="#FF3D00"/>
<path d="M295 4.20532e-06H300V1.25H295V4.20532e-06Z" fill="#FF3D00"/>
<path d="M300 4.20532e-06H305V1.25H300V4.20532e-06Z" fill="#FF3D00"/>
<path d="M305 4.20532e-06H310V1.25H305V4.20532e-06Z" fill="#FF3D00"/>
<path d="M310 4.20532e-06H315V1.25H310V4.20532e-06Z" fill="#FF3D00"/>
<path d="M330 4.20532e-06H335V1.25H330V4.20532e-06Z" fill="#FF3D00"/>
<path d="M340 4.20532e-06H345V1.25H340V4.20532e-06Z" fill="#FF3D00"/>
<path d="M345 4.20532e-06H350V1.25H345V4.20532e-06Z" fill="#FF3D00"/>
<path d="M355 4.20532e-06H360V1.25H355V4.20532e-06Z" fill="#FF3D00"/>
<path d="M360 4.20532e-06H365V1.25H360V4.20532e-06Z" fill="#FF3D00"/>
<path d="M365 4.20532e-06H370V1.25H365V4.20532e-06Z" fill="#FF3D00"/>
<path d="M370 4.20532e-06H375V1.25H370V4.20532e-06Z" fill="#FF3D00"/>
<path d="M375 4.20532e-06H380V1.25H375V4.20532e-06Z" fill="#FF3D00"/>
<path d="M395 4.20532e-06H400V1.25H395V4.20532e-06Z" fill="#FF3D00"/>
<path d="M400 4.20532e-06H405V1.25H400V4.20532e-06Z" fill="#FF3D00"/>
<path d="M430 4.20532e-06H435V1.25H430V4.20532e-06Z" fill="#FF3D00"/>
<path d="M435 4.20532e-06H440V1.25H435V4.20532e-06Z" fill="#FF3D00"/>
<path d="M470 4.20532e-06H475V1.25H470V4.20532e-06Z" fill="#FF3D00"/>
<path d="M475 4.20532e-06H480V1.25H475V4.20532e-06Z" fill="#FF3D00"/>
<path d="M480 1.79239e-06H485V1.66667H480V1.79239e-06Z" fill="#FF3D00"/>
<path d="M720 4.20532e-06H725V1.25H720V4.20532e-06Z" fill="#FF3D00"/>
<path d="M725 4.20532e-06H730V1.25H725V4.20532e-06Z" fill="#FF3D00"/>
<path d="M730 4.20532e-06H735V1.25H730V4.20532e-06Z" fill="#FF3D00"/>
<path d="M755 1.79239e-06H760V1.66667H755V1.79239e-06Z" fill="#FF3D00"/>
<path d="M760 7.81241e-07H765V2.5H760V7.81241e-07Z" fill="#FF3D00"/>
<path d="M825 1.79239e-06H830V1.66667H825V1.79239e-06Z" fill="#FF3D00"/>
<path d="M3455 1.56248e-06H3460V5H3455V1.56248e-06Z" fill="#FF3D00"/>
<path d="M275 1.79239e-06H280V1.66667H275V1.79239e-06Z" fill="#4ADADA"/>
<path d="M280 1.25H285V2.5H280V1.25Z" fill="#4ADADA"/>
<path d="M285 1.25H290V2.5H285V1.25Z" fill="#4ADADA"/>
<path d="M290 1.79239e-06H295V1.66667H290V1.79239e-06Z" fill="#4ADADA"/>
<path d="M295 1.25H300V2.5H295V1.25Z" fill="#4ADADA"/>
<path d="M300 1.25H305V2.5H300V1.25Z" fill="#4ADADA"/>
<path d="M305 1.25H310V2.5H305V1.25Z" fill="#4ADADA"/>
<path d="M310 1.25H315V2.5H310V1.25Z" fill="#4ADADA"/>
<path d="M315 1.79239e-06H320V1.66667H315V1.79239e-06Z" fill="#4ADADA"/>
<path d="M320 1.79239e-06H325V1.66667H320V1.79239e-06Z" fill="#4ADADA"/>
<path d="M325 1.79239e-06H330V1.66667H325V1.79239e-06Z" fill="#4ADADA"/>
<path d="M330 1.25H335V2.5H330V1.25Z" fill="#4ADADA"/>
<path d="M335 1.79239e-06H340V1.66667H335V1.79239e-06Z" fill="#4ADADA"/>
<path d="M340 1.25H345V2.5H340V1.25Z" fill="#4ADADA"/>
<path d="M345 1.25H350V2.5H345V1.25Z" fill="#4ADADA"/>
<path d="M350 1.79239e-06H355V1.66667H350V1.79239e-06Z" fill="#4ADADA"/>
<path d="M355 1.25H360V2.5H355V1.25Z" fill="#4ADADA"/>
<path d="M360 1.25H365V2.5H360V1.25Z" fill="#4ADADA"/>
<path d="M365 1.25H370V2.5H365V1.25Z" fill="#4ADADA"/>
<path d="M370 1.25H375V2.5H370V1.25Z" fill="#4ADADA"/>
<path d="M375 1.25H380V2.5H375V1.25Z" fill="#4ADADA"/>
<path d="M380 1.79239e-06H385V1.66667H380V1.79239e-06Z" fill="#4ADADA"/>
<path d="M385 7.81241e-07H390V2.5H385V7.81241e-07Z" fill="#4ADADA"/>
<path d="M390 1.79239e-06H395V1.66667H390V1.79239e-06Z" fill="#4ADADA"/>
<path d="M395 1.25H400V2.5H395V1.25Z" fill="#4ADADA"/>
<path d="M400 1.25H405V2.5H400V1.25Z" fill="#4ADADA"/>
<path d="M405 1.79239e-06H410V1.66667H405V1.79239e-06Z" fill="#4ADADA"/>
<path d="M410 1.79239e-06H415V1.66667H410V1.79239e-06Z" fill="#4ADADA"/>
<path d="M415 1.79239e-06H420V1.66667H415V1.79239e-06Z" fill="#4ADADA"/>
<path d="M420 7.81241e-07H425V2.5H420V7.81241e-07Z" fill="#4ADADA"/>
<path d="M425 7.81241e-07H430V2.5H425V7.81241e-07Z" fill="#4ADADA"/>
<path d="M430 1.25H435V2.5H430V1.25Z" fill="#4ADADA"/>
<path d="M435 1.25H440V2.5H435V1.25Z" fill="#4ADADA"/>
<path d="M440 1.79239e-06H445V1.66667H440V1.79239e-06Z" fill="#4ADADA"/>
<path d="M450 1.79239e-06H455V1.66667H450V1.79239e-06Z" fill="#4ADADA"/>
<path d="M455 7.81241e-07H460V2.5H455V7.81241e-07Z" fill="#4ADADA"/>
<path d="M460 1.79239e-06H465V1.66667H460V1.79239e-06Z" fill="#4ADADA"/>
<path d="M465 1.79239e-06H470V1.66667H465V1.79239e-06Z" fill="#4ADADA"/>
<path d="M470 1.25H475V2.5H470V1.25Z" fill="#4ADADA"/>
<path d="M475 1.25H480V2.5H475V1.25Z" fill="#4ADADA"/>
<path d="M480 1.66667H485V3.33334H480V1.66667Z" fill="#4ADADA"/>
<path d="M495 1.79239e-06H500V1.66667H495V1.79239e-06Z" fill="#4ADADA"/>
<path d="M500 1.56248e-06H505V5H500V1.56248e-06Z" fill="#4ADADA"/>
<path d="M505 1.79239e-06H510V1.66667H505V1.79239e-06Z" fill="#4ADADA"/>
<path d="M510 7.81241e-07H515V2.5H510V7.81241e-07Z" fill="#4ADADA"/>
<path d="M515 7.81241e-07H520V2.5H515V7.81241e-07Z" fill="#4ADADA"/>
<path d="M520 7.81241e-07H525V2.5H520V7.81241e-07Z" fill="#4ADADA"/>
<path d="M525 1.56248e-06H530V5H525V1.56248e-06Z" fill="#4ADADA"/>
<path d="M535 1.79239e-06H540V1.66667H535V1.79239e-06Z" fill="#4ADADA"/>
<path d="M540 1.56248e-06H545V5H540V1.56248e-06Z" fill="#4ADADA"/>
<path d="M545 1.79239e-06H550V1.66667H545V1.79239e-06Z" fill="#4ADADA"/>
<path d="M550 1.79239e-06H555V1.66667H550V1.79239e-06Z" fill="#4ADADA"/>
<path d="M555 1.56248e-06H560V5H555V1.56248e-06Z" fill="#4ADADA"/>
<path d="M565 7.81241e-07H570V2.5H565V7.81241e-07Z" fill="#4ADADA"/>
<path d="M575 1.79239e-06H580V1.66667H575V1.79239e-06Z" fill="#4ADADA"/>
<path d="M580 1.79239e-06H585V1.66667H580V1.79239e-06Z" fill="#4ADADA"/>
<path d="M585 1.79239e-06H590V1.66667H585V1.79239e-06Z" fill="#4ADADA"/>
<path d="M590 7.81241e-07H595V2.5H590V7.81241e-07Z" fill="#4ADADA"/>
<path d="M610 1.79239e-06H615V1.66667H610V1.79239e-06Z" fill="#4ADADA"/>
<path d="M615 7.81241e-07H620V2.5H615V7.81241e-07Z" fill="#4ADADA"/>
<path d="M625 7.81241e-07H630V2.5H625V7.81241e-07Z" fill="#4ADADA"/>
<path d="M630 7.81241e-07H635V2.5H630V7.81241e-07Z" fill="#4ADADA"/>
<path d="M640 1.79239e-06H645V1.66667H640V1.79239e-06Z" fill="#4ADADA"/>
<path d="M645 1.79239e-06H650V1.66667H645V1.79239e-06Z" fill="#4ADADA"/>
<path d="M650 1.79239e-06H655V1.66667H650V1.79239e-06Z" fill="#4ADADA"/>
<path d="M655 7.81241e-07H660V2.5H655V7.81241e-07Z" fill="#4ADADA"/>
<path d="M660 7.81241e-07H665V2.5H660V7.81241e-07Z" fill="#4ADADA"/>
<path d="M675 1.79239e-06H680V1.66667H675V1.79239e-06Z" fill="#4ADADA"/>
<path d="M690 7.81241e-07H695V2.5H690V7.81241e-07Z" fill="#4ADADA"/>
<path d="M695 1.79239e-06H700V1.66667H695V1.79239e-06Z" fill="#4ADADA"/>
<path d="M700 1.79239e-06H705V1.66667H700V1.79239e-06Z" fill="#4ADADA"/>
<path d="M705 1.79239e-06H710V1.66667H705V1.79239e-06Z" fill="#4ADADA"/>
<path d="M710 1.79239e-06H715V1.66667H710V1.79239e-06Z" fill="#4ADADA"/>
<path d="M715 1.79239e-06H720V1.66667H715V1.79239e-06Z" fill="#4ADADA"/>
<path d="M720 1.25H725V2.5H720V1.25Z" fill="#4ADADA"/>
<path d="M725 1.25H730V2.5H725V1.25Z" fill="#4ADADA"/>
<path d="M730 1.25H735V2.5H730V1.25Z" fill="#4ADADA"/>
<path d="M735 1.79239e-06H740V1.66667H735V1.79239e-06Z" fill="#4ADADA"/>
<path d="M740 1.79239e-06H745V1.66667H740V1.79239e-06Z" fill="#4ADADA"/>
<path d="M745 7.81241e-07H750V2.5H745V7.81241e-07Z" fill="#4ADADA"/>
<path d="M750 7.81241e-07H755V2.5H750V7.81241e-07Z" fill="#4ADADA"/>
<path d="M755 1.66667H760V3.33334H755V1.66667Z" fill="#4ADADA"/>
<path d="M760 2.5H765V5H760V2.5Z" fill="#4ADADA"/>
<path d="M775 1.56248e-06H780V5H775V1.56248e-06Z" fill="#4ADADA"/>
<path d="M790 7.81241e-07H795V2.5H790V7.81241e-07Z" fill="#4ADADA"/>
<path d="M795 7.81241e-07H800V2.5H795V7.81241e-07Z" fill="#4ADADA"/>
<path d="M800 1.56248e-06H805V5H800V1.56248e-06Z" fill="#4ADADA"/>
<path d="M825 1.66667H830V3.33334H825V1.66667Z" fill="#4ADADA"/>
<path d="M830 7.81241e-07H835V2.5H830V7.81241e-07Z" fill="#4ADADA"/>
<path d="M835 1.56248e-06H840V5H835V1.56248e-06Z" fill="#4ADADA"/>
<path d="M840 1.56248e-06H845V5H840V1.56248e-06Z" fill="#4ADADA"/>
<path d="M855 7.81241e-07H860V2.5H855V7.81241e-07Z" fill="#4ADADA"/>
<path d="M860 7.81241e-07H865V2.5H860V7.81241e-07Z" fill="#4ADADA"/>
<path d="M865 7.81241e-07H870V2.5H865V7.81241e-07Z" fill="#4ADADA"/>
<path d="M870 1.79239e-06H875V1.66667H870V1.79239e-06Z" fill="#4ADADA"/>
<path d="M875 1.56248e-06H880V5H875V1.56248e-06Z" fill="#4ADADA"/>
<path d="M885 1.56248e-06H890V5H885V1.56248e-06Z" fill="#4ADADA"/>
<path d="M925 1.56248e-06H930V5H925V1.56248e-06Z" fill="#4ADADA"/>
<path d="M935 7.81241e-07H940V2.5H935V7.81241e-07Z" fill="#4ADADA"/>
<path d="M955 1.56248e-06H960V5H955V1.56248e-06Z" fill="#4ADADA"/>
<path d="M1070 7.81241e-07H1075V2.5H1070V7.81241e-07Z" fill="#4ADADA"/>
<path d="M1075 7.81241e-07H1080V2.5H1075V7.81241e-07Z" fill="#4ADADA"/>
<path d="M1105 1.56248e-06H1110V5H1105V1.56248e-06Z" fill="#4ADADA"/>
<path d="M1175 7.81241e-07H1180V2.5H1175V7.81241e-07Z" fill="#4ADADA"/>
<path d="M1315 1.79239e-06H1320V1.66667H1315V1.79239e-06Z" fill="#4ADADA"/>
<path d="M1320 1.79239e-06H1325V1.66667H1320V1.79239e-06Z" fill="#4ADADA"/>
<path d="M1820 1.56248e-06H1825V5H1820V1.56248e-06Z" fill="#4ADADA"/>
<path d="M2095 1.79239e-06H2100V1.66667H2095V1.79239e-06Z" fill="#4ADADA"/>
<path d="M2100 7.81241e-07H2105V2.5H2100V7.81241e-07Z" fill="#4ADADA"/>
<path d="M2105 7.81241e-07H2110V2.5H2105V7.81241e-07Z" fill="#4ADADA"/>
<path d="M2125 7.81241e-07H2130V2.5H2125V7.81241e-07Z" fill="#4ADADA"/>
<path d="M2160 7.81241e-07H2165V2.5H2160V7.81241e-07Z" fill="#4ADADA"/>
<path d="M2165 1.56248e-06H2170V5H2165V1.56248e-06Z" fill="#4ADADA"/>
<path d="M2220 1.56248e-06H2225V5H2220V1.56248e-06Z" fill="#4ADADA"/>
<path d="M2245 1.56248e-06H2250V5H2245V1.56248e-06Z" fill="#4ADADA"/>
<path d="M2345 1.56248e-06H2350V5H2345V1.56248e-06Z" fill="#4ADADA"/>
<path d="M2410 7.81241e-07H2415V2.5H2410V7.81241e-07Z" fill="#4ADADA"/>
<path d="M2415 1.56248e-06H2420V5H2415V1.56248e-06Z" fill="#4ADADA"/>
<path d="M2470 7.81241e-07H2475V2.5H2470V7.81241e-07Z" fill="#4ADADA"/>
<path d="M2535 1.56248e-06H2540V5H2535V1.56248e-06Z" fill="#4ADADA"/>
<path d="M2610 1.56248e-06H2615V5H2610V1.56248e-06Z" fill="#4ADADA"/>
<path d="M2655 7.81241e-07H2660V2.5H2655V7.81241e-07Z" fill="#4ADADA"/>
<path d="M2660 1.56248e-06H2665V5H2660V1.56248e-06Z" fill="#4ADADA"/>
<path d="M3055 7.81241e-07H3060V2.5H3055V7.81241e-07Z" fill="#4ADADA"/>
<path d="M3535 1.56248e-06H3540V5H3535V1.56248e-06Z" fill="#4ADADA"/>
<path d="M275 1.66667H280V3.33334H275V1.66667Z" fill="#FFB2AC"/>
<path d="M280 2.5H285V3.75H280V2.5Z" fill="#FFB2AC"/>
<path d="M285 2.5H290V3.75H285V2.5Z" fill="#FFB2AC"/>
<path d="M290 1.66667H295V3.33334H290V1.66667Z" fill="#FFB2AC"/>
<path d="M295 2.5H300V3.75H295V2.5Z" fill="#FFB2AC"/>
<path d="M300 2.5H305V3.75H300V2.5Z" fill="#FFB2AC"/>
<path d="M305 2.5H310V3.75H305V2.5Z" fill="#FFB2AC"/>
<path d="M310 2.5H315V3.75H310V2.5Z" fill="#FFB2AC"/>
<path d="M315 1.66667H320V3.33334H315V1.66667Z" fill="#FFB2AC"/>
<path d="M320 1.66667H325V3.33334H320V1.66667Z" fill="#FFB2AC"/>
<path d="M325 1.66667H330V3.33334H325V1.66667Z" fill="#FFB2AC"/>
<path d="M330 2.5H335V3.75H330V2.5Z" fill="#FFB2AC"/>
<path d="M335 1.66667H340V3.33334H335V1.66667Z" fill="#FFB2AC"/>
<path d="M340 2.5H345V3.75H340V2.5Z" fill="#FFB2AC"/>
<path d="M345 2.5H350V3.75H345V2.5Z" fill="#FFB2AC"/>
<path d="M350 1.66667H355V3.33334H350V1.66667Z" fill="#FFB2AC"/>
<path d="M355 2.5H360V3.75H355V2.5Z" fill="#FFB2AC"/>
<path d="M360 2.5H365V3.75H360V2.5Z" fill="#FFB2AC"/>
<path d="M365 2.5H370V3.75H365V2.5Z" fill="#FFB2AC"/>
<path d="M370 2.5H375V3.75H370V2.5Z" fill="#FFB2AC"/>
<path d="M375 2.5H380V3.75H375V2.5Z" fill="#FFB2AC"/>
<path d="M380 1.66667H385V3.33334H380V1.66667Z" fill="#FFB2AC"/>
<path d="M385 2.5H390V5H385V2.5Z" fill="#FFB2AC"/>
<path d="M390 1.66667H395V3.33334H390V1.66667Z" fill="#FFB2AC"/>
<path d="M395 2.5H400V3.75H395V2.5Z" fill="#FFB2AC"/>
<path d="M400 2.5H405V3.75H400V2.5Z" fill="#FFB2AC"/>
<path d="M405 1.66667H410V3.33334H405V1.66667Z" fill="#FFB2AC"/>
<path d="M410 1.66667H415V3.33334H410V1.66667Z" fill="#FFB2AC"/>
<path d="M415 1.66667H420V3.33334H415V1.66667Z" fill="#FFB2AC"/>
<path d="M420 2.5H425V5H420V2.5Z" fill="#FFB2AC"/>
<path d="M425 2.5H430V5H425V2.5Z" fill="#FFB2AC"/>
<path d="M430 2.5H435V3.75H430V2.5Z" fill="#FFB2AC"/>
<path d="M435 2.5H440V3.75H435V2.5Z" fill="#FFB2AC"/>
<path d="M440 1.66667H445V3.33334H440V1.66667Z" fill="#FFB2AC"/>
<path d="M445 7.81241e-07H450V2.5H445V7.81241e-07Z" fill="#FFB2AC"/>
<path d="M450 1.66667H455V3.33334H450V1.66667Z" fill="#FFB2AC"/>
<path d="M455 2.5H460V5H455V2.5Z" fill="#FFB2AC"/>
<path d="M460 1.66667H465V3.33334H460V1.66667Z" fill="#FFB2AC"/>
<path d="M465 1.66667H470V3.33334H465V1.66667Z" fill="#FFB2AC"/>
<path d="M470 2.5H475V3.75H470V2.5Z" fill="#FFB2AC"/>
<path d="M475 2.5H480V3.75H475V2.5Z" fill="#FFB2AC"/>
<path d="M480 3.33333H485V5H480V3.33333Z" fill="#FFB2AC"/>
<path d="M485 1.56248e-06H490V5H485V1.56248e-06Z" fill="#FFB2AC"/>
<path d="M490 1.56248e-06H495V5H490V1.56248e-06Z" fill="#FFB2AC"/>
<path d="M495 1.66667H500V3.33334H495V1.66667Z" fill="#FFB2AC"/>
<path d="M505 1.66667H510V3.33334H505V1.66667Z" fill="#FFB2AC"/>
<path d="M510 2.5H515V5H510V2.5Z" fill="#FFB2AC"/>
<path d="M515 2.5H520V5H515V2.5Z" fill="#FFB2AC"/>
<path d="M520 2.5H525V5H520V2.5Z" fill="#FFB2AC"/>
<path d="M530 7.81241e-07H535V2.5H530V7.81241e-07Z" fill="#FFB2AC"/>
<path d="M535 1.66667H540V3.33334H535V1.66667Z" fill="#FFB2AC"/>
<path d="M545 1.66667H550V3.33334H545V1.66667Z" fill="#FFB2AC"/>
<path d="M550 1.66667H555V3.33334H550V1.66667Z" fill="#FFB2AC"/>
<path d="M565 2.5H570V5H565V2.5Z" fill="#FFB2AC"/>
<path d="M570 7.81241e-07H575V2.5H570V7.81241e-07Z" fill="#FFB2AC"/>
<path d="M575 1.66667H580V3.33334H575V1.66667Z" fill="#FFB2AC"/>
<path d="M580 1.66667H585V3.33334H580V1.66667Z" fill="#FFB2AC"/>
<path d="M585 1.66667H590V3.33334H585V1.66667Z" fill="#FFB2AC"/>
<path d="M595 7.81241e-07H600V2.5H595V7.81241e-07Z" fill="#FFB2AC"/>
<path d="M600 1.56248e-06H605V5H600V1.56248e-06Z" fill="#FFB2AC"/>
<path d="M610 1.66667H615V3.33334H610V1.66667Z" fill="#FFB2AC"/>
<path d="M635 7.81241e-07H640V2.5H635V7.81241e-07Z" fill="#FFB2AC"/>
<path d="M640 1.66667H645V3.33334H640V1.66667Z" fill="#FFB2AC"/>
<path d="M645 1.66667H650V3.33334H645V1.66667Z" fill="#FFB2AC"/>
<path d="M650 1.66667H655V3.33334H650V1.66667Z" fill="#FFB2AC"/>
<path d="M660 2.5H665V5H660V2.5Z" fill="#FFB2AC"/>
<path d="M665 1.56248e-06H670V5H665V1.56248e-06Z" fill="#FFB2AC"/>
<path d="M675 1.66667H680V3.33334H675V1.66667Z" fill="#FFB2AC"/>
<path d="M685 7.81241e-07H690V2.5H685V7.81241e-07Z" fill="#FFB2AC"/>
<path d="M695 1.66667H700V3.33334H695V1.66667Z" fill="#FFB2AC"/>
<path d="M700 1.66667H705V3.33334H700V1.66667Z" fill="#FFB2AC"/>
<path d="M705 1.66667H710V3.33334H705V1.66667Z" fill="#FFB2AC"/>
<path d="M710 1.66667H715V3.33334H710V1.66667Z" fill="#FFB2AC"/>
<path d="M715 1.66667H720V3.33334H715V1.66667Z" fill="#FFB2AC"/>
<path d="M720 2.5H725V3.75H720V2.5Z" fill="#FFB2AC"/>
<path d="M725 2.5H730V3.75H725V2.5Z" fill="#FFB2AC"/>
<path d="M730 2.5H735V3.75H730V2.5Z" fill="#FFB2AC"/>
<path d="M735 1.66667H740V3.33334H735V1.66667Z" fill="#FFB2AC"/>
<path d="M740 1.66667H745V3.33334H740V1.66667Z" fill="#FFB2AC"/>
<path d="M755 3.33333H760V5H755V3.33333Z" fill="#FFB2AC"/>
<path d="M765 1.56248e-06H770V5H765V1.56248e-06Z" fill="#FFB2AC"/>
<path d="M790 2.5H795V5H790V2.5Z" fill="#FFB2AC"/>
<path d="M815 1.56248e-06H820V5H815V1.56248e-06Z" fill="#FFB2AC"/>
<path d="M820 7.81241e-07H825V2.5H820V7.81241e-07Z" fill="#FFB2AC"/>
<path d="M860 2.5H865V5H860V2.5Z" fill="#FFB2AC"/>
<path d="M870 1.66667H875V3.33334H870V1.66667Z" fill="#FFB2AC"/>
<path d="M930 7.81241e-07H935V2.5H930V7.81241e-07Z" fill="#FFB2AC"/>
<path d="M975 1.56248e-06H980V5H975V1.56248e-06Z" fill="#FFB2AC"/>
<path d="M1005 7.81241e-07H1010V2.5H1005V7.81241e-07Z" fill="#FFB2AC"/>
<path d="M1030 1.56248e-06H1035V5H1030V1.56248e-06Z" fill="#FFB2AC"/>
<path d="M1040 1.56248e-06H1045V5H1040V1.56248e-06Z" fill="#FFB2AC"/>
<path d="M1075 2.5H1080V5H1075V2.5Z" fill="#FFB2AC"/>
<path d="M1095 1.56248e-06H1100V5H1095V1.56248e-06Z" fill="#FFB2AC"/>
<path d="M1125 1.56248e-06H1130V5H1125V1.56248e-06Z" fill="#FFB2AC"/>
<path d="M1145 1.56248e-06H1150V5H1145V1.56248e-06Z" fill="#FFB2AC"/>
<path d="M1175 2.5H1180V5H1175V2.5Z" fill="#FFB2AC"/>
<path d="M1210 1.56248e-06H1215V5H1210V1.56248e-06Z" fill="#FFB2AC"/>
<path d="M1215 1.56248e-06H1220V5H1215V1.56248e-06Z" fill="#FFB2AC"/>
<path d="M1260 1.56248e-06H1265V5H1260V1.56248e-06Z" fill="#FFB2AC"/>
<path d="M1265 1.56248e-06H1270V5H1265V1.56248e-06Z" fill="#FFB2AC"/>
<path d="M1275 1.56248e-06H1280V5H1275V1.56248e-06Z" fill="#FFB2AC"/>
<path d="M1290 1.56248e-06H1295V5H1290V1.56248e-06Z" fill="#FFB2AC"/>
<path d="M1305 1.56248e-06H1310V5H1305V1.56248e-06Z" fill="#FFB2AC"/>
<path d="M1310 1.56248e-06H1315V5H1310V1.56248e-06Z" fill="#FFB2AC"/>
<path d="M1315 1.66667H1320V3.33334H1315V1.66667Z" fill="#FFB2AC"/>
<path d="M1320 1.66667H1325V3.33334H1320V1.66667Z" fill="#FFB2AC"/>
<path d="M1325 1.56248e-06H1330V5H1325V1.56248e-06Z" fill="#FFB2AC"/>
<path d="M1330 1.56248e-06H1335V5H1330V1.56248e-06Z" fill="#FFB2AC"/>
<path d="M1340 1.56248e-06H1345V5H1340V1.56248e-06Z" fill="#FFB2AC"/>
<path d="M1345 1.56248e-06H1350V5H1345V1.56248e-06Z" fill="#FFB2AC"/>
<path d="M1355 1.56248e-06H1360V5H1355V1.56248e-06Z" fill="#FFB2AC"/>
<path d="M1370 1.56248e-06H1375V5H1370V1.56248e-06Z" fill="#FFB2AC"/>
<path d="M1375 1.56248e-06H1380V5H1375V1.56248e-06Z" fill="#FFB2AC"/>
<path d="M1385 1.56248e-06H1390V5H1385V1.56248e-06Z" fill="#FFB2AC"/>
<path d="M1425 1.56248e-06H1430V5H1425V1.56248e-06Z" fill="#FFB2AC"/>
<path d="M1660 1.56248e-06H1665V5H1660V1.56248e-06Z" fill="#FFB2AC"/>
<path d="M1795 1.56248e-06H1800V5H1795V1.56248e-06Z" fill="#FFB2AC"/>
<path d="M1805 7.81241e-07H1810V2.5H1805V7.81241e-07Z" fill="#FFB2AC"/>
<path d="M1830 1.56248e-06H1835V5H1830V1.56248e-06Z" fill="#FFB2AC"/>
<path d="M1890 1.56248e-06H1895V5H1890V1.56248e-06Z" fill="#FFB2AC"/>
<path d="M1920 1.56248e-06H1925V5H1920V1.56248e-06Z" fill="#FFB2AC"/>
<path d="M1965 1.56248e-06H1970V5H1965V1.56248e-06Z" fill="#FFB2AC"/>
<path d="M1985 1.56248e-06H1990V5H1985V1.56248e-06Z" fill="#FFB2AC"/>
<path d="M2020 1.56248e-06H2025V5H2020V1.56248e-06Z" fill="#FFB2AC"/>
<path d="M2035 1.56248e-06H2040V5H2035V1.56248e-06Z" fill="#FFB2AC"/>
<path d="M2045 1.56248e-06H2050V5H2045V1.56248e-06Z" fill="#FFB2AC"/>
<path d="M2095 1.66667H2100V3.33334H2095V1.66667Z" fill="#FFB2AC"/>
<path d="M2100 2.5H2105V5H2100V2.5Z" fill="#FFB2AC"/>
<path d="M2105 2.5H2110V5H2105V2.5Z" fill="#FFB2AC"/>
<path d="M2110 1.56248e-06H2115V5H2110V1.56248e-06Z" fill="#FFB2AC"/>
<path d="M2135 1.56248e-06H2140V5H2135V1.56248e-06Z" fill="#FFB2AC"/>
<path d="M2155 1.56248e-06H2160V5H2155V1.56248e-06Z" fill="#FFB2AC"/>
<path d="M2160 2.5H2165V5H2160V2.5Z" fill="#FFB2AC"/>
<path d="M2185 1.56248e-06H2190V5H2185V1.56248e-06Z" fill="#FFB2AC"/>
<path d="M2190 1.56248e-06H2195V5H2190V1.56248e-06Z" fill="#FFB2AC"/>
<path d="M2210 1.56248e-06H2215V5H2210V1.56248e-06Z" fill="#FFB2AC"/>
<path d="M2230 1.56248e-06H2235V5H2230V1.56248e-06Z" fill="#FFB2AC"/>
<path d="M2290 1.56248e-06H2295V5H2290V1.56248e-06Z" fill="#FFB2AC"/>
<path d="M2530 7.81241e-07H2535V2.5H2530V7.81241e-07Z" fill="#FFB2AC"/>
<path d="M2715 1.56248e-06H2720V5H2715V1.56248e-06Z" fill="#FFB2AC"/>
<path d="M2920 1.56248e-06H2925V5H2920V1.56248e-06Z" fill="#FFB2AC"/>
<path d="M3105 1.56248e-06H3110V5H3105V1.56248e-06Z" fill="#FFB2AC"/>
<path d="M275 3.33333H280V5H275V3.33333Z" fill="#8C6345"/>
<path d="M280 3.75H285V5H280V3.75Z" fill="#8C6345"/>
<path d="M285 3.75H290V5H285V3.75Z" fill="#8C6345"/>
<path d="M290 3.33333H295V5H290V3.33333Z" fill="#8C6345"/>
<path d="M295 3.75H300V5H295V3.75Z" fill="#8C6345"/>
<path d="M300 3.75H305V5H300V3.75Z" fill="#8C6345"/>
<path d="M305 3.75H310V5H305V3.75Z" fill="#8C6345"/>
<path d="M310 3.75H315V5H310V3.75Z" fill="#8C6345"/>
<path d="M315 3.33333H320V5H315V3.33333Z" fill="#8C6345"/>
<path d="M320 3.33333H325V5H320V3.33333Z" fill="#8C6345"/>
<path d="M325 3.33333H330V5H325V3.33333Z" fill="#8C6345"/>
<path d="M330 3.75H335V5H330V3.75Z" fill="#8C6345"/>
<path d="M335 3.33333H340V5H335V3.33333Z" fill="#8C6345"/>
<path d="M340 3.75H345V5H340V3.75Z" fill="#8C6345"/>
<path d="M345 3.75H350V5H345V3.75Z" fill="#8C6345"/>
<path d="M350 3.33333H355V5H350V3.33333Z" fill="#8C6345"/>
<path d="M355 3.75H360V5H355V3.75Z" fill="#8C6345"/>
<path d="M360 3.75H365V5H360V3.75Z" fill="#8C6345"/>
<path d="M365 3.75H370V5H365V3.75Z" fill="#8C6345"/>
<path d="M370 3.75H375V5H370V3.75Z" fill="#8C6345"/>
<path d="M375 3.75H380V5H375V3.75Z" fill="#8C6345"/>
<path d="M380 3.33333H385V5H380V3.33333Z" fill="#8C6345"/>
<path d="M390 3.33333H395V5H390V3.33333Z" fill="#8C6345"/>
<path d="M395 3.75H400V5H395V3.75Z" fill="#8C6345"/>
<path d="M400 3.75H405V5H400V3.75Z" fill="#8C6345"/>
<path d="M405 3.33333H410V5H405V3.33333Z" fill="#8C6345"/>
<path d="M410 3.33333H415V5H410V3.33333Z" fill="#8C6345"/>
<path d="M415 3.33333H420V5H415V3.33333Z" fill="#8C6345"/>
<path d="M430 3.75H435V5H430V3.75Z" fill="#8C6345"/>
<path d="M435 3.75H440V5H435V3.75Z" fill="#8C6345"/>
<path d="M440 3.33333H445V5H440V3.33333Z" fill="#8C6345"/>
<path d="M445 2.5H450V5H445V2.5Z" fill="#8C6345"/>
<path d="M450 3.33333H455V5H450V3.33333Z" fill="#8C6345"/>
<path d="M460 3.33333H465V5H460V3.33333Z" fill="#8C6345"/>
<path d="M465 3.33333H470V5H465V3.33333Z" fill="#8C6345"/>
<path d="M470 3.75H475V5H470V3.75Z" fill="#8C6345"/>
<path d="M475 3.75H480V5H475V3.75Z" fill="#8C6345"/>
<path d="M495 3.33333H500V5H495V3.33333Z" fill="#8C6345"/>
<path d="M505 3.33333H510V5H505V3.33333Z" fill="#8C6345"/>
<path d="M530 2.5H535V5H530V2.5Z" fill="#8C6345"/>
<path d="M535 3.33333H540V5H535V3.33333Z" fill="#8C6345"/>
<path d="M545 3.33333H550V5H545V3.33333Z" fill="#8C6345"/>
<path d="M550 3.33333H555V5H550V3.33333Z" fill="#8C6345"/>
<path d="M570 2.5H575V5H570V2.5Z" fill="#8C6345"/>
<path d="M575 3.33333H580V5H575V3.33333Z" fill="#8C6345"/>
<path d="M580 3.33333H585V5H580V3.33333Z" fill="#8C6345"/>
<path d="M585 3.33333H590V5H585V3.33333Z" fill="#8C6345"/>
<path d="M590 2.5H595V5H590V2.5Z" fill="#8C6345"/>
<path d="M595 2.5H600V5H595V2.5Z" fill="#8C6345"/>
<path d="M605 1.56248e-06H610V5H605V1.56248e-06Z" fill="#8C6345"/>
<path d="M610 3.33333H615V5H610V3.33333Z" fill="#8C6345"/>
<path d="M615 2.5H620V5H615V2.5Z" fill="#8C6345"/>
<path d="M625 2.5H630V5H625V2.5Z" fill="#8C6345"/>
<path d="M630 2.5H635V5H630V2.5Z" fill="#8C6345"/>
<path d="M635 2.5H640V5H635V2.5Z" fill="#8C6345"/>
<path d="M640 3.33333H645V5H640V3.33333Z" fill="#8C6345"/>
<path d="M645 3.33333H650V5H645V3.33333Z" fill="#8C6345"/>
<path d="M650 3.33333H655V5H650V3.33333Z" fill="#8C6345"/>
<path d="M655 2.5H660V5H655V2.5Z" fill="#8C6345"/>
<path d="M675 3.33333H680V5H675V3.33333Z" fill="#8C6345"/>
<path d="M685 2.5H690V5H685V2.5Z" fill="#8C6345"/>
<path d="M690 2.5H695V5H690V2.5Z" fill="#8C6345"/>
<path d="M695 3.33333H700V5H695V3.33333Z" fill="#8C6345"/>
<path d="M700 3.33333H705V5H700V3.33333Z" fill="#8C6345"/>
<path d="M705 3.33333H710V5H705V3.33333Z" fill="#8C6345"/>
<path d="M710 3.33333H715V5H710V3.33333Z" fill="#8C6345"/>
<path d="M715 3.33333H720V5H715V3.33333Z" fill="#8C6345"/>
<path d="M720 3.75H725V5H720V3.75Z" fill="#8C6345"/>
<path d="M725 3.75H730V5H725V3.75Z" fill="#8C6345"/>
<path d="M730 3.75H735V5H730V3.75Z" fill="#8C6345"/>
<path d="M735 3.33333H740V5H735V3.33333Z" fill="#8C6345"/>
<path d="M740 3.33333H745V5H740V3.33333Z" fill="#8C6345"/>
<path d="M745 2.5H750V5H745V2.5Z" fill="#8C6345"/>
<path d="M750 2.5H755V5H750V2.5Z" fill="#8C6345"/>
<path d="M780 1.56248e-06H785V5H780V1.56248e-06Z" fill="#8C6345"/>
<path d="M785 1.56248e-06H790V5H785V1.56248e-06Z" fill="#8C6345"/>
<path d="M795 2.5H800V5H795V2.5Z" fill="#8C6345"/>
<path d="M820 2.5H825V5H820V2.5Z" fill="#8C6345"/>
<path d="M825 3.33333H830V5H825V3.33333Z" fill="#8C6345"/>
<path d="M830 2.5H835V5H830V2.5Z" fill="#8C6345"/>
<path d="M850 1.56248e-06H855V5H850V1.56248e-06Z" fill="#8C6345"/>
<path d="M855 2.5H860V5H855V2.5Z" fill="#8C6345"/>
<path d="M865 2.5H870V5H865V2.5Z" fill="#8C6345"/>
<path d="M870 3.33333H875V5H870V3.33333Z" fill="#8C6345"/>
<path d="M930 2.5H935V5H930V2.5Z" fill="#8C6345"/>
<path d="M935 2.5H940V5H935V2.5Z" fill="#8C6345"/>
<path d="M990 1.56248e-06H995V5H990V1.56248e-06Z" fill="#8C6345"/>
<path d="M1005 2.5H1010V5H1005V2.5Z" fill="#8C6345"/>
<path d="M1070 2.5H1075V5H1070V2.5Z" fill="#8C6345"/>
<path d="M1100 1.56248e-06H1105V5H1100V1.56248e-06Z" fill="#8C6345"/>
<path d="M1315 3.33333H1320V5H1315V3.33333Z" fill="#8C6345"/>
<path d="M1320 3.33333H1325V5H1320V3.33333Z" fill="#8C6345"/>
<path d="M1775 1.56248e-06H1780V5H1775V1.56248e-06Z" fill="#8C6345"/>
<path d="M1805 2.5H1810V5H1805V2.5Z" fill="#8C6345"/>
<path d="M2095 3.33333H2100V5H2095V3.33333Z" fill="#8C6345"/>
<path d="M2125 2.5H2130V5H2125V2.5Z" fill="#8C6345"/>
<path d="M2130 1.56248e-06H2135V5H2130V1.56248e-06Z" fill="#8C6345"/>
<path d="M2150 1.56248e-06H2155V5H2150V1.56248e-06Z" fill="#8C6345"/>
<path d="M2200 1.56248e-06H2205V5H2200V1.56248e-06Z" fill="#8C6345"/>
<path d="M2205 1.56248e-06H2210V5H2205V1.56248e-06Z" fill="#8C6345"/>
<path d="M2410 2.5H2415V5H2410V2.5Z" fill="#8C6345"/>
<path d="M2470 2.5H2475V5H2470V2.5Z" fill="#8C6345"/>
<path d="M2530 2.5H2535V5H2530V2.5Z" fill="#8C6345"/>
<path d="M2565 1.56248e-06H2570V5H2565V1.56248e-06Z" fill="#8C6345"/>
<path d="M2605 1.56248e-06H2610V5H2605V1.56248e-06Z" fill="#8C6345"/>
<path d="M2655 2.5H2660V5H2655V2.5Z" fill="#8C6345"/>
<path d="M3055 2.5H3060V5H3055V2.5Z" fill="#8C6345"/>
<path d="M3230 1.56248e-06H3235V5H3230V1.56248e-06Z" fill="#8C6345"/>
<path d="M3335 1.56248e-06H3340V5H3335V1.56248e-06Z" fill="#8C6345"/>
<path d="M3350 1.56248e-06H3355V5H3350V1.56248e-06Z" fill="#8C6345"/>
<path d="M560 1.56248e-06H565V5H560V1.56248e-06Z" fill="#E3DFCF"/>
<path d="M620 1.56248e-06H625V5H620V1.56248e-06Z" fill="#E3DFCF"/>
<path d="M670 1.56248e-06H675V5H670V1.56248e-06Z" fill="#E3DFCF"/>
<path d="M680 1.56248e-06H685V5H680V1.56248e-06Z" fill="#E3DFCF"/>
<path d="M770 1.56248e-06H775V5H770V1.56248e-06Z" fill="#E3DFCF"/>
<path d="M805 1.56248e-06H810V5H805V1.56248e-06Z" fill="#E3DFCF"/>
<path d="M810 1.56248e-06H815V5H810V1.56248e-06Z" fill="#E3DFCF"/>
<path d="M845 1.56248e-06H850V5H845V1.56248e-06Z" fill="#E3DFCF"/>
<path d="M880 1.56248e-06H885V5H880V1.56248e-06Z" fill="#E3DFCF"/>
<path d="M890 1.56248e-06H895V5H890V1.56248e-06Z" fill="#E3DFCF"/>
<path d="M895 1.56248e-06H900V5H895V1.56248e-06Z" fill="#E3DFCF"/>
<path d="M900 1.56248e-06H905V5H900V1.56248e-06Z" fill="#E3DFCF"/>
<path d="M905 1.56248e-06H910V5H905V1.56248e-06Z" fill="#E3DFCF"/>
<path d="M910 1.56248e-06H915V5H910V1.56248e-06Z" fill="#E3DFCF"/>
<path d="M915 1.56248e-06H920V5H915V1.56248e-06Z" fill="#E3DFCF"/>
<path d="M920 1.56248e-06H925V5H920V1.56248e-06Z" fill="#E3DFCF"/>
<path d="M940 1.56248e-06H945V5H940V1.56248e-06Z" fill="#E3DFCF"/>
<path d="M945 1.56248e-06H950V5H945V1.56248e-06Z" fill="#E3DFCF"/>
<path d="M950 1.56248e-06H955V5H950V1.56248e-06Z" fill="#E3DFCF"/>
<path d="M960 1.56248e-06H965V5H960V1.56248e-06Z" fill="#E3DFCF"/>
<path d="M965 1.56248e-06H970V5H965V1.56248e-06Z" fill="#E3DFCF"/>
<path d="M970 1.56248e-06H975V5H970V1.56248e-06Z" fill="#E3DFCF"/>
<path d="M980 1.56248e-06H985V5H980V1.56248e-06Z" fill="#E3DFCF"/>
<path d="M985 1.56248e-06H990V5H985V1.56248e-06Z" fill="#E3DFCF"/>
<path d="M995 1.56248e-06H1000V5H995V1.56248e-06Z" fill="#E3DFCF"/>
<path d="M1000 1.56248e-06H1005V5H1000V1.56248e-06Z" fill="#E3DFCF"/>
<path d="M1010 1.56248e-06H1015V5H1010V1.56248e-06Z" fill="#E3DFCF"/>
<path d="M1015 1.56248e-06H1020V5H1015V1.56248e-06Z" fill="#E3DFCF"/>
<path d="M1020 1.56248e-06H1025V5H1020V1.56248e-06Z" fill="#E3DFCF"/>
<path d="M1025 1.56248e-06H1030V5H1025V1.56248e-06Z" fill="#E3DFCF"/>
<path d="M1035 1.56248e-06H1040V5H1035V1.56248e-06Z" fill="#E3DFCF"/>
<path d="M1045 1.56248e-06H1050V5H1045V1.56248e-06Z" fill="#E3DFCF"/>
<path d="M1050 1.56248e-06H1055V5H1050V1.56248e-06Z" fill="#E3DFCF"/>
<path d="M1055 1.56248e-06H1060V5H1055V1.56248e-06Z" fill="#E3DFCF"/>
<path d="M1060 1.56248e-06H1065V5H1060V1.56248e-06Z" fill="#E3DFCF"/>
<path d="M1065 1.56248e-06H1070V5H1065V1.56248e-06Z" fill="#E3DFCF"/>
<path d="M1080 1.56248e-06H1085V5H1080V1.56248e-06Z" fill="#E3DFCF"/>
<path d="M1085 1.56248e-06H1090V5H1085V1.56248e-06Z" fill="#E3DFCF"/>
<path d="M1090 1.56248e-06H1095V5H1090V1.56248e-06Z" fill="#E3DFCF"/>
<path d="M1110 1.56248e-06H1115V5H1110V1.56248e-06Z" fill="#E3DFCF"/>
<path d="M1115 1.56248e-06H1120V5H1115V1.56248e-06Z" fill="#E3DFCF"/>
<path d="M1120 1.56248e-06H1125V5H1120V1.56248e-06Z" fill="#E3DFCF"/>
<path d="M1130 1.56248e-06H1135V5H1130V1.56248e-06Z" fill="#E3DFCF"/>
<path d="M1135 1.56248e-06H1140V5H1135V1.56248e-06Z" fill="#E3DFCF"/>
<path d="M1140 1.56248e-06H1145V5H1140V1.56248e-06Z" fill="#E3DFCF"/>
<path d="M1150 1.56248e-06H1155V5H1150V1.56248e-06Z" fill="#E3DFCF"/>
<path d="M1155 1.56248e-06H1160V5H1155V1.56248e-06Z" fill="#E3DFCF"/>
<path d="M1160 1.56248e-06H1165V5H1160V1.56248e-06Z" fill="#E3DFCF"/>
<path d="M1165 1.56248e-06H1170V5H1165V1.56248e-06Z" fill="#E3DFCF"/>
<path d="M1170 1.56248e-06H1175V5H1170V1.56248e-06Z" fill="#E3DFCF"/>
<path d="M1180 1.56248e-06H1185V5H1180V1.56248e-06Z" fill="#E3DFCF"/>
<path d="M1185 1.56248e-06H1190V5H1185V1.56248e-06Z" fill="#E3DFCF"/>
<path d="M1190 1.56248e-06H1195V5H1190V1.56248e-06Z" fill="#E3DFCF"/>
<path d="M1195 1.56248e-06H1200V5H1195V1.56248e-06Z" fill="#E3DFCF"/>
<path d="M1200 1.56248e-06H1205V5H1200V1.56248e-06Z" fill="#E3DFCF"/>
<path d="M1205 1.56248e-06H1210V5H1205V1.56248e-06Z" fill="#E3DFCF"/>
<path d="M1220 1.56248e-06H1225V5H1220V1.56248e-06Z" fill="#E3DFCF"/>
<path d="M1225 1.56248e-06H1230V5H1225V1.56248e-06Z" fill="#E3DFCF"/>
<path d="M1230 1.56248e-06H1235V5H1230V1.56248e-06Z" fill="#E3DFCF"/>
<path d="M1235 1.56248e-06H1240V5H1235V1.56248e-06Z" fill="#E3DFCF"/>
<path d="M1240 1.56248e-06H1245V5H1240V1.56248e-06Z" fill="#E3DFCF"/>
<path d="M1245 1.56248e-06H1250V5H1245V1.56248e-06Z" fill="#E3DFCF"/>
<path d="M1250 1.56248e-06H1255V5H1250V1.56248e-06Z" fill="#E3DFCF"/>
<path d="M1255 1.56248e-06H1260V5H1255V1.56248e-06Z" fill="#E3DFCF"/>
<path d="M1270 1.56248e-06H1275V5H1270V1.56248e-06Z" fill="#E3DFCF"/>
<path d="M1280 1.56248e-06H1285V5H1280V1.56248e-06Z" fill="#E3DFCF"/>
<path d="M1285 1.56248e-06H1290V5H1285V1.56248e-06Z" fill="#E3DFCF"/>
<path d="M1295 1.56248e-06H1300V5H1295V1.56248e-06Z" fill="#E3DFCF"/>
<path d="M1300 1.56248e-06H1305V5H1300V1.56248e-06Z" fill="#E3DFCF"/>
<path d="M1335 1.56248e-06H1340V5H1335V1.56248e-06Z" fill="#E3DFCF"/>
<path d="M1350 1.56248e-06H1355V5H1350V1.56248e-06Z" fill="#E3DFCF"/>
<path d="M1360 1.56248e-06H1365V5H1360V1.56248e-06Z" fill="#E3DFCF"/>
<path d="M1365 1.56248e-06H1370V5H1365V1.56248e-06Z" fill="#E3DFCF"/>
<path d="M1380 1.56248e-06H1385V5H1380V1.56248e-06Z" fill="#E3DFCF"/>
<path d="M1390 1.56248e-06H1395V5H1390V1.56248e-06Z" fill="#E3DFCF"/>
<path d="M1395 1.56248e-06H1400V5H1395V1.56248e-06Z" fill="#E3DFCF"/>
<path d="M1400 1.56248e-06H1405V5H1400V1.56248e-06Z" fill="#E3DFCF"/>
<path d="M1405 1.56248e-06H1410V5H1405V1.56248e-06Z" fill="#E3DFCF"/>
<path d="M1410 1.56248e-06H1415V5H1410V1.56248e-06Z" fill="#E3DFCF"/>
<path d="M1415 1.56248e-06H1420V5H1415V1.56248e-06Z" fill="#E3DFCF"/>
<path d="M1420 1.56248e-06H1425V5H1420V1.56248e-06Z" fill="#E3DFCF"/>
<path d="M1430 1.56248e-06H1435V5H1430V1.56248e-06Z" fill="#E3DFCF"/>
<path d="M1435 1.56248e-06H1440V5H1435V1.56248e-06Z" fill="#E3DFCF"/>
<path d="M1440 1.56248e-06H1445V5H1440V1.56248e-06Z" fill="#E3DFCF"/>
<path d="M1445 1.56248e-06H1450V5H1445V1.56248e-06Z" fill="#E3DFCF"/>
<path d="M1450 1.56248e-06H1455V5H1450V1.56248e-06Z" fill="#E3DFCF"/>
<path d="M1455 1.56248e-06H1460V5H1455V1.56248e-06Z" fill="#E3DFCF"/>
<path d="M1460 1.56248e-06H1465V5H1460V1.56248e-06Z" fill="#E3DFCF"/>
<path d="M1465 1.56248e-06H1470V5H1465V1.56248e-06Z" fill="#E3DFCF"/>
<path d="M1470 1.56248e-06H1475V5H1470V1.56248e-06Z" fill="#E3DFCF"/>
<path d="M1475 1.56248e-06H1480V5H1475V1.56248e-06Z" fill="#E3DFCF"/>
<path d="M1480 1.56248e-06H1485V5H1480V1.56248e-06Z" fill="#E3DFCF"/>
<path d="M1485 1.56248e-06H1490V5H1485V1.56248e-06Z" fill="#E3DFCF"/>
<path d="M1490 1.56248e-06H1495V5H1490V1.56248e-06Z" fill="#E3DFCF"/>
<path d="M1495 1.56248e-06H1500V5H1495V1.56248e-06Z" fill="#E3DFCF"/>
<path d="M1500 1.56248e-06H1505V5H1500V1.56248e-06Z" fill="#E3DFCF"/>
<path d="M1505 1.56248e-06H1510V5H1505V1.56248e-06Z" fill="#E3DFCF"/>
<path d="M1510 1.56248e-06H1515V5H1510V1.56248e-06Z" fill="#E3DFCF"/>
<path d="M1515 1.56248e-06H1520V5H1515V1.56248e-06Z" fill="#E3DFCF"/>
<path d="M1520 1.56248e-06H1525V5H1520V1.56248e-06Z" fill="#E3DFCF"/>
<path d="M1525 1.56248e-06H1530V5H1525V1.56248e-06Z" fill="#E3DFCF"/>
<path d="M1530 1.56248e-06H1535V5H1530V1.56248e-06Z" fill="#E3DFCF"/>
<path d="M1535 1.56248e-06H1540V5H1535V1.56248e-06Z" fill="#E3DFCF"/>
<path d="M1540 1.56248e-06H1545V5H1540V1.56248e-06Z" fill="#E3DFCF"/>
<path d="M1545 1.56248e-06H1550V5H1545V1.56248e-06Z" fill="#E3DFCF"/>
<path d="M1550 1.56248e-06H1555V5H1550V1.56248e-06Z" fill="#E3DFCF"/>
<path d="M1555 1.56248e-06H1560V5H1555V1.56248e-06Z" fill="#E3DFCF"/>
<path d="M1560 1.56248e-06H1565V5H1560V1.56248e-06Z" fill="#E3DFCF"/>
<path d="M1565 1.56248e-06H1570V5H1565V1.56248e-06Z" fill="#E3DFCF"/>
<path d="M1570 1.56248e-06H1575V5H1570V1.56248e-06Z" fill="#E3DFCF"/>
<path d="M1575 1.56248e-06H1580V5H1575V1.56248e-06Z" fill="#E3DFCF"/>
<path d="M1580 1.56248e-06H1585V5H1580V1.56248e-06Z" fill="#E3DFCF"/>
<path d="M1585 1.56248e-06H1590V5H1585V1.56248e-06Z" fill="#E3DFCF"/>
<path d="M1590 1.56248e-06H1595V5H1590V1.56248e-06Z" fill="#E3DFCF"/>
<path d="M1595 1.56248e-06H1600V5H1595V1.56248e-06Z" fill="#E3DFCF"/>
<path d="M1600 1.56248e-06H1605V5H1600V1.56248e-06Z" fill="#E3DFCF"/>
<path d="M1605 1.56248e-06H1610V5H1605V1.56248e-06Z" fill="#E3DFCF"/>
<path d="M1610 1.56248e-06H1615V5H1610V1.56248e-06Z" fill="#E3DFCF"/>
<path d="M1615 1.56248e-06H1620V5H1615V1.56248e-06Z" fill="#E3DFCF"/>
<path d="M1620 1.56248e-06H1625V5H1620V1.56248e-06Z" fill="#E3DFCF"/>
<path d="M1625 1.56248e-06H1630V5H1625V1.56248e-06Z" fill="#E3DFCF"/>
<path d="M1630 1.56248e-06H1635V5H1630V1.56248e-06Z" fill="#E3DFCF"/>
<path d="M1635 1.56248e-06H1640V5H1635V1.56248e-06Z" fill="#E3DFCF"/>
<path d="M1640 1.56248e-06H1645V5H1640V1.56248e-06Z" fill="#E3DFCF"/>
<path d="M1645 1.56248e-06H1650V5H1645V1.56248e-06Z" fill="#E3DFCF"/>
<path d="M1650 1.56248e-06H1655V5H1650V1.56248e-06Z" fill="#E3DFCF"/>
<path d="M1655 1.56248e-06H1660V5H1655V1.56248e-06Z" fill="#E3DFCF"/>
<path d="M1665 1.56248e-06H1670V5H1665V1.56248e-06Z" fill="#E3DFCF"/>
<path d="M1670 1.56248e-06H1675V5H1670V1.56248e-06Z" fill="#E3DFCF"/>
<path d="M1675 1.56248e-06H1680V5H1675V1.56248e-06Z" fill="#E3DFCF"/>
<path d="M1680 1.56248e-06H1685V5H1680V1.56248e-06Z" fill="#E3DFCF"/>
<path d="M1685 1.56248e-06H1690V5H1685V1.56248e-06Z" fill="#E3DFCF"/>
<path d="M1690 1.56248e-06H1695V5H1690V1.56248e-06Z" fill="#E3DFCF"/>
<path d="M1695 1.56248e-06H1700V5H1695V1.56248e-06Z" fill="#E3DFCF"/>
<path d="M1700 1.56248e-06H1705V5H1700V1.56248e-06Z" fill="#E3DFCF"/>
<path d="M1705 1.56248e-06H1710V5H1705V1.56248e-06Z" fill="#E3DFCF"/>
<path d="M1710 1.56248e-06H1715V5H1710V1.56248e-06Z" fill="#E3DFCF"/>
<path d="M1715 1.56248e-06H1720V5H1715V1.56248e-06Z" fill="#E3DFCF"/>
<path d="M1720 1.56248e-06H1725V5H1720V1.56248e-06Z" fill="#E3DFCF"/>
<path d="M1725 1.56248e-06H1730V5H1725V1.56248e-06Z" fill="#E3DFCF"/>
<path d="M1730 1.56248e-06H1735V5H1730V1.56248e-06Z" fill="#E3DFCF"/>
<path d="M1735 1.56248e-06H1740V5H1735V1.56248e-06Z" fill="#E3DFCF"/>
<path d="M1740 1.56248e-06H1745V5H1740V1.56248e-06Z" fill="#E3DFCF"/>
<path d="M1745 1.56248e-06H1750V5H1745V1.56248e-06Z" fill="#E3DFCF"/>
<path d="M1750 1.56248e-06H1755V5H1750V1.56248e-06Z" fill="#E3DFCF"/>
<path d="M1755 1.56248e-06H1760V5H1755V1.56248e-06Z" fill="#E3DFCF"/>
<path d="M1760 1.56248e-06H1765V5H1760V1.56248e-06Z" fill="#E3DFCF"/>
<path d="M1765 1.56248e-06H1770V5H1765V1.56248e-06Z" fill="#E3DFCF"/>
<path d="M1770 1.56248e-06H1775V5H1770V1.56248e-06Z" fill="#E3DFCF"/>
<path d="M1780 1.56248e-06H1785V5H1780V1.56248e-06Z" fill="#E3DFCF"/>
<path d="M1785 1.56248e-06H1790V5H1785V1.56248e-06Z" fill="#E3DFCF"/>
<path d="M1790 1.56248e-06H1795V5H1790V1.56248e-06Z" fill="#E3DFCF"/>
<path d="M1800 1.56248e-06H1805V5H1800V1.56248e-06Z" fill="#E3DFCF"/>
<path d="M1810 1.56248e-06H1815V5H1810V1.56248e-06Z" fill="#E3DFCF"/>
<path d="M1815 1.56248e-06H1820V5H1815V1.56248e-06Z" fill="#E3DFCF"/>
<path d="M1825 1.56248e-06H1830V5H1825V1.56248e-06Z" fill="#E3DFCF"/>
<path d="M1835 1.56248e-06H1840V5H1835V1.56248e-06Z" fill="#E3DFCF"/>
<path d="M1840 1.56248e-06H1845V5H1840V1.56248e-06Z" fill="#E3DFCF"/>
<path d="M1845 1.56248e-06H1850V5H1845V1.56248e-06Z" fill="#E3DFCF"/>
<path d="M1850 1.56248e-06H1855V5H1850V1.56248e-06Z" fill="#E3DFCF"/>
<path d="M1855 1.56248e-06H1860V5H1855V1.56248e-06Z" fill="#E3DFCF"/>
<path d="M1860 1.56248e-06H1865V5H1860V1.56248e-06Z" fill="#E3DFCF"/>
<path d="M1865 1.56248e-06H1870V5H1865V1.56248e-06Z" fill="#E3DFCF"/>
<path d="M1870 1.56248e-06H1875V5H1870V1.56248e-06Z" fill="#E3DFCF"/>
<path d="M1875 1.56248e-06H1880V5H1875V1.56248e-06Z" fill="#E3DFCF"/>
<path d="M1880 1.56248e-06H1885V5H1880V1.56248e-06Z" fill="#E3DFCF"/>
<path d="M1885 1.56248e-06H1890V5H1885V1.56248e-06Z" fill="#E3DFCF"/>
<path d="M1895 1.56248e-06H1900V5H1895V1.56248e-06Z" fill="#E3DFCF"/>
<path d="M1900 1.56248e-06H1905V5H1900V1.56248e-06Z" fill="#E3DFCF"/>
<path d="M1905 1.56248e-06H1910V5H1905V1.56248e-06Z" fill="#E3DFCF"/>
<path d="M1910 1.56248e-06H1915V5H1910V1.56248e-06Z" fill="#E3DFCF"/>
<path d="M1915 1.56248e-06H1920V5H1915V1.56248e-06Z" fill="#E3DFCF"/>
<path d="M1925 1.56248e-06H1930V5H1925V1.56248e-06Z" fill="#E3DFCF"/>
<path d="M1930 1.56248e-06H1935V5H1930V1.56248e-06Z" fill="#E3DFCF"/>
<path d="M1935 1.56248e-06H1940V5H1935V1.56248e-06Z" fill="#E3DFCF"/>
<path d="M1940 1.56248e-06H1945V5H1940V1.56248e-06Z" fill="#E3DFCF"/>
<path d="M1945 1.56248e-06H1950V5H1945V1.56248e-06Z" fill="#E3DFCF"/>
<path d="M1950 1.56248e-06H1955V5H1950V1.56248e-06Z" fill="#E3DFCF"/>
<path d="M1955 1.56248e-06H1960V5H1955V1.56248e-06Z" fill="#E3DFCF"/>
<path d="M1960 1.56248e-06H1965V5H1960V1.56248e-06Z" fill="#E3DFCF"/>
<path d="M1970 1.56248e-06H1975V5H1970V1.56248e-06Z" fill="#E3DFCF"/>
<path d="M1975 1.56248e-06H1980V5H1975V1.56248e-06Z" fill="#E3DFCF"/>
<path d="M1980 1.56248e-06H1985V5H1980V1.56248e-06Z" fill="#E3DFCF"/>
<path d="M1990 1.56248e-06H1995V5H1990V1.56248e-06Z" fill="#E3DFCF"/>
<path d="M1995 1.56248e-06H2000V5H1995V1.56248e-06Z" fill="#E3DFCF"/>
<path d="M2000 1.56248e-06H2005V5H2000V1.56248e-06Z" fill="#E3DFCF"/>
<path d="M2005 1.56248e-06H2010V5H2005V1.56248e-06Z" fill="#E3DFCF"/>
<path d="M2010 1.56248e-06H2015V5H2010V1.56248e-06Z" fill="#E3DFCF"/>
<path d="M2015 1.56248e-06H2020V5H2015V1.56248e-06Z" fill="#E3DFCF"/>
<path d="M2025 1.56248e-06H2030V5H2025V1.56248e-06Z" fill="#E3DFCF"/>
<path d="M2030 1.56248e-06H2035V5H2030V1.56248e-06Z" fill="#E3DFCF"/>
<path d="M2040 1.56248e-06H2045V5H2040V1.56248e-06Z" fill="#E3DFCF"/>
<path d="M2050 1.56248e-06H2055V5H2050V1.56248e-06Z" fill="#E3DFCF"/>
<path d="M2055 1.56248e-06H2060V5H2055V1.56248e-06Z" fill="#E3DFCF"/>
<path d="M2060 1.56248e-06H2065V5H2060V1.56248e-06Z" fill="#E3DFCF"/>
<path d="M2065 1.56248e-06H2070V5H2065V1.56248e-06Z" fill="#E3DFCF"/>
<path d="M2070 1.56248e-06H2075V5H2070V1.56248e-06Z" fill="#E3DFCF"/>
<path d="M2075 1.56248e-06H2080V5H2075V1.56248e-06Z" fill="#E3DFCF"/>
<path d="M2080 1.56248e-06H2085V5H2080V1.56248e-06Z" fill="#E3DFCF"/>
<path d="M2085 1.56248e-06H2090V5H2085V1.56248e-06Z" fill="#E3DFCF"/>
<path d="M2090 1.56248e-06H2095V5H2090V1.56248e-06Z" fill="#E3DFCF"/>
<path d="M2115 1.56248e-06H2120V5H2115V1.56248e-06Z" fill="#E3DFCF"/>
<path d="M2120 1.56248e-06H2125V5H2120V1.56248e-06Z" fill="#E3DFCF"/>
<path d="M2140 1.56248e-06H2145V5H2140V1.56248e-06Z" fill="#E3DFCF"/>
<path d="M2145 1.56248e-06H2150V5H2145V1.56248e-06Z" fill="#E3DFCF"/>
<path d="M2170 1.56248e-06H2175V5H2170V1.56248e-06Z" fill="#E3DFCF"/>
<path d="M2175 1.56248e-06H2180V5H2175V1.56248e-06Z" fill="#E3DFCF"/>
<path d="M2180 1.56248e-06H2185V5H2180V1.56248e-06Z" fill="#E3DFCF"/>
<path d="M2195 1.56248e-06H2200V5H2195V1.56248e-06Z" fill="#E3DFCF"/>
<path d="M2215 1.56248e-06H2220V5H2215V1.56248e-06Z" fill="#E3DFCF"/>
<path d="M2225 1.56248e-06H2230V5H2225V1.56248e-06Z" fill="#E3DFCF"/>
<path d="M2235 1.56248e-06H2240V5H2235V1.56248e-06Z" fill="#E3DFCF"/>
<path d="M2240 1.56248e-06H2245V5H2240V1.56248e-06Z" fill="#E3DFCF"/>
<path d="M2250 1.56248e-06H2255V5H2250V1.56248e-06Z" fill="#E3DFCF"/>
<path d="M2255 1.56248e-06H2260V5H2255V1.56248e-06Z" fill="#E3DFCF"/>
<path d="M2260 1.56248e-06H2265V5H2260V1.56248e-06Z" fill="#E3DFCF"/>
<path d="M2265 1.56248e-06H2270V5H2265V1.56248e-06Z" fill="#E3DFCF"/>
<path d="M2270 1.56248e-06H2275V5H2270V1.56248e-06Z" fill="#E3DFCF"/>
<path d="M2275 1.56248e-06H2280V5H2275V1.56248e-06Z" fill="#E3DFCF"/>
<path d="M2280 1.56248e-06H2285V5H2280V1.56248e-06Z" fill="#E3DFCF"/>
<path d="M2285 1.56248e-06H2290V5H2285V1.56248e-06Z" fill="#E3DFCF"/>
<path d="M2295 1.56248e-06H2300V5H2295V1.56248e-06Z" fill="#E3DFCF"/>
<path d="M2300 1.56248e-06H2305V5H2300V1.56248e-06Z" fill="#E3DFCF"/>
<path d="M2305 1.56248e-06H2310V5H2305V1.56248e-06Z" fill="#E3DFCF"/>
<path d="M2310 1.56248e-06H2315V5H2310V1.56248e-06Z" fill="#E3DFCF"/>
<path d="M2315 1.56248e-06H2320V5H2315V1.56248e-06Z" fill="#E3DFCF"/>
<path d="M2320 1.56248e-06H2325V5H2320V1.56248e-06Z" fill="#E3DFCF"/>
<path d="M2325 1.56248e-06H2330V5H2325V1.56248e-06Z" fill="#E3DFCF"/>
<path d="M2330 1.56248e-06H2335V5H2330V1.56248e-06Z" fill="#E3DFCF"/>
<path d="M2335 1.56248e-06H2340V5H2335V1.56248e-06Z" fill="#E3DFCF"/>
<path d="M2340 1.56248e-06H2345V5H2340V1.56248e-06Z" fill="#E3DFCF"/>
<path d="M2350 1.56248e-06H2355V5H2350V1.56248e-06Z" fill="#E3DFCF"/>
<path d="M2355 1.56248e-06H2360V5H2355V1.56248e-06Z" fill="#E3DFCF"/>
<path d="M2360 1.56248e-06H2365V5H2360V1.56248e-06Z" fill="#E3DFCF"/>
<path d="M2365 1.56248e-06H2370V5H2365V1.56248e-06Z" fill="#E3DFCF"/>
<path d="M2370 1.56248e-06H2375V5H2370V1.56248e-06Z" fill="#E3DFCF"/>
<path d="M2375 1.56248e-06H2380V5H2375V1.56248e-06Z" fill="#E3DFCF"/>
<path d="M2380 1.56248e-06H2385V5H2380V1.56248e-06Z" fill="#E3DFCF"/>
<path d="M2385 1.56248e-06H2390V5H2385V1.56248e-06Z" fill="#E3DFCF"/>
<path d="M2390 1.56248e-06H2395V5H2390V1.56248e-06Z" fill="#E3DFCF"/>
<path d="M2395 1.56248e-06H2400V5H2395V1.56248e-06Z" fill="#E3DFCF"/>
<path d="M2400 1.56248e-06H2405V5H2400V1.56248e-06Z" fill="#E3DFCF"/>
<path d="M2405 1.56248e-06H2410V5H2405V1.56248e-06Z" fill="#E3DFCF"/>
<path d="M2420 1.56248e-06H2425V5H2420V1.56248e-06Z" fill="#E3DFCF"/>
<path d="M2425 1.56248e-06H2430V5H2425V1.56248e-06Z" fill="#E3DFCF"/>
<path d="M2430 1.56248e-06H2435V5H2430V1.56248e-06Z" fill="#E3DFCF"/>
<path d="M2435 1.56248e-06H2440V5H2435V1.56248e-06Z" fill="#E3DFCF"/>
<path d="M2440 1.56248e-06H2445V5H2440V1.56248e-06Z" fill="#E3DFCF"/>
<path d="M2445 1.56248e-06H2450V5H2445V1.56248e-06Z" fill="#E3DFCF"/>
<path d="M2450 1.56248e-06H2455V5H2450V1.56248e-06Z" fill="#E3DFCF"/>
<path d="M2455 1.56248e-06H2460V5H2455V1.56248e-06Z" fill="#E3DFCF"/>
<path d="M2460 1.56248e-06H2465V5H2460V1.56248e-06Z" fill="#E3DFCF"/>
<path d="M2465 1.56248e-06H2470V5H2465V1.56248e-06Z" fill="#E3DFCF"/>
<path d="M2475 1.56248e-06H2480V5H2475V1.56248e-06Z" fill="#E3DFCF"/>
<path d="M2480 1.56248e-06H2485V5H2480V1.56248e-06Z" fill="#E3DFCF"/>
<path d="M2485 1.56248e-06H2490V5H2485V1.56248e-06Z" fill="#E3DFCF"/>
<path d="M2490 1.56248e-06H2495V5H2490V1.56248e-06Z" fill="#E3DFCF"/>
<path d="M2495 1.56248e-06H2500V5H2495V1.56248e-06Z" fill="#E3DFCF"/>
<path d="M2500 1.56248e-06H2505V5H2500V1.56248e-06Z" fill="#E3DFCF"/>
<path d="M2505 1.56248e-06H2510V5H2505V1.56248e-06Z" fill="#E3DFCF"/>
<path d="M2510 1.56248e-06H2515V5H2510V1.56248e-06Z" fill="#E3DFCF"/>
<path d="M2515 1.56248e-06H2520V5H2515V1.56248e-06Z" fill="#E3DFCF"/>
<path d="M2520 1.56248e-06H2525V5H2520V1.56248e-06Z" fill="#E3DFCF"/>
<path d="M2525 1.56248e-06H2530V5H2525V1.56248e-06Z" fill="#E3DFCF"/>
<path d="M2540 1.56248e-06H2545V5H2540V1.56248e-06Z" fill="#E3DFCF"/>
<path d="M2545 1.56248e-06H2550V5H2545V1.56248e-06Z" fill="#E3DFCF"/>
<path d="M2550 1.56248e-06H2555V5H2550V1.56248e-06Z" fill="#E3DFCF"/>
<path d="M2555 1.56248e-06H2560V5H2555V1.56248e-06Z" fill="#E3DFCF"/>
<path d="M2560 1.56248e-06H2565V5H2560V1.56248e-06Z" fill="#E3DFCF"/>
<path d="M2570 1.56248e-06H2575V5H2570V1.56248e-06Z" fill="#E3DFCF"/>
<path d="M2575 1.56248e-06H2580V5H2575V1.56248e-06Z" fill="#E3DFCF"/>
<path d="M2580 1.56248e-06H2585V5H2580V1.56248e-06Z" fill="#E3DFCF"/>
<path d="M2585 1.56248e-06H2590V5H2585V1.56248e-06Z" fill="#E3DFCF"/>
<path d="M2590 1.56248e-06H2595V5H2590V1.56248e-06Z" fill="#E3DFCF"/>
<path d="M2595 1.56248e-06H2600V5H2595V1.56248e-06Z" fill="#E3DFCF"/>
<path d="M2600 1.56248e-06H2605V5H2600V1.56248e-06Z" fill="#E3DFCF"/>
<path d="M2615 1.56248e-06H2620V5H2615V1.56248e-06Z" fill="#E3DFCF"/>
<path d="M2620 1.56248e-06H2625V5H2620V1.56248e-06Z" fill="#E3DFCF"/>
<path d="M2625 1.56248e-06H2630V5H2625V1.56248e-06Z" fill="#E3DFCF"/>
<path d="M2630 1.56248e-06H2635V5H2630V1.56248e-06Z" fill="#E3DFCF"/>
<path d="M2635 1.56248e-06H2640V5H2635V1.56248e-06Z" fill="#E3DFCF"/>
<path d="M2640 1.56248e-06H2645V5H2640V1.56248e-06Z" fill="#E3DFCF"/>
<path d="M2645 1.56248e-06H2650V5H2645V1.56248e-06Z" fill="#E3DFCF"/>
<path d="M2650 1.56248e-06H2655V5H2650V1.56248e-06Z" fill="#E3DFCF"/>
<path d="M2665 1.56248e-06H2670V5H2665V1.56248e-06Z" fill="#E3DFCF"/>
<path d="M2670 1.56248e-06H2675V5H2670V1.56248e-06Z" fill="#E3DFCF"/>
<path d="M2675 1.56248e-06H2680V5H2675V1.56248e-06Z" fill="#E3DFCF"/>
<path d="M2680 1.56248e-06H2685V5H2680V1.56248e-06Z" fill="#E3DFCF"/>
<path d="M2685 1.56248e-06H2690V5H2685V1.56248e-06Z" fill="#E3DFCF"/>
<path d="M2690 1.56248e-06H2695V5H2690V1.56248e-06Z" fill="#E3DFCF"/>
<path d="M2695 1.56248e-06H2700V5H2695V1.56248e-06Z" fill="#E3DFCF"/>
<path d="M2700 1.56248e-06H2705V5H2700V1.56248e-06Z" fill="#E3DFCF"/>
<path d="M2705 1.56248e-06H2710V5H2705V1.56248e-06Z" fill="#E3DFCF"/>
<path d="M2710 1.56248e-06H2715V5H2710V1.56248e-06Z" fill="#E3DFCF"/>
<path d="M2720 1.56248e-06H2725V5H2720V1.56248e-06Z" fill="#E3DFCF"/>
<path d="M2725 1.56248e-06H2730V5H2725V1.56248e-06Z" fill="#E3DFCF"/>
<path d="M2730 1.56248e-06H2735V5H2730V1.56248e-06Z" fill="#E3DFCF"/>
<path d="M2735 1.56248e-06H2740V5H2735V1.56248e-06Z" fill="#E3DFCF"/>
<path d="M2740 1.56248e-06H2745V5H2740V1.56248e-06Z" fill="#E3DFCF"/>
<path d="M2745 1.56248e-06H2750V5H2745V1.56248e-06Z" fill="#E3DFCF"/>
<path d="M2750 1.56248e-06H2755V5H2750V1.56248e-06Z" fill="#E3DFCF"/>
<path d="M2755 1.56248e-06H2760V5H2755V1.56248e-06Z" fill="#E3DFCF"/>
<path d="M2760 1.56248e-06H2765V5H2760V1.56248e-06Z" fill="#E3DFCF"/>
<path d="M2765 1.56248e-06H2770V5H2765V1.56248e-06Z" fill="#E3DFCF"/>
<path d="M2770 1.56248e-06H2775V5H2770V1.56248e-06Z" fill="#E3DFCF"/>
<path d="M2775 1.56248e-06H2780V5H2775V1.56248e-06Z" fill="#E3DFCF"/>
<path d="M2780 1.56248e-06H2785V5H2780V1.56248e-06Z" fill="#E3DFCF"/>
<path d="M2785 1.56248e-06H2790V5H2785V1.56248e-06Z" fill="#E3DFCF"/>
<path d="M2790 1.56248e-06H2795V5H2790V1.56248e-06Z" fill="#E3DFCF"/>
<path d="M2795 1.56248e-06H2800V5H2795V1.56248e-06Z" fill="#E3DFCF"/>
<path d="M2800 1.56248e-06H2805V5H2800V1.56248e-06Z" fill="#E3DFCF"/>
<path d="M2805 1.56248e-06H2810V5H2805V1.56248e-06Z" fill="#E3DFCF"/>
<path d="M2810 1.56248e-06H2815V5H2810V1.56248e-06Z" fill="#E3DFCF"/>
<path d="M2815 1.56248e-06H2820V5H2815V1.56248e-06Z" fill="#E3DFCF"/>
<path d="M2820 1.56248e-06H2825V5H2820V1.56248e-06Z" fill="#E3DFCF"/>
<path d="M2825 1.56248e-06H2830V5H2825V1.56248e-06Z" fill="#E3DFCF"/>
<path d="M2830 1.56248e-06H2835V5H2830V1.56248e-06Z" fill="#E3DFCF"/>
<path d="M2835 1.56248e-06H2840V5H2835V1.56248e-06Z" fill="#E3DFCF"/>
<path d="M2840 1.56248e-06H2845V5H2840V1.56248e-06Z" fill="#E3DFCF"/>
<path d="M2845 1.56248e-06H2850V5H2845V1.56248e-06Z" fill="#E3DFCF"/>
<path d="M2850 1.56248e-06H2855V5H2850V1.56248e-06Z" fill="#E3DFCF"/>
<path d="M2855 1.56248e-06H2860V5H2855V1.56248e-06Z" fill="#E3DFCF"/>
<path d="M2860 1.56248e-06H2865V5H2860V1.56248e-06Z" fill="#E3DFCF"/>
<path d="M2865 1.56248e-06H2870V5H2865V1.56248e-06Z" fill="#E3DFCF"/>
<path d="M2870 1.56248e-06H2875V5H2870V1.56248e-06Z" fill="#E3DFCF"/>
<path d="M2875 1.56248e-06H2880V5H2875V1.56248e-06Z" fill="#E3DFCF"/>
<path d="M2880 1.56248e-06H2885V5H2880V1.56248e-06Z" fill="#E3DFCF"/>
<path d="M2885 1.56248e-06H2890V5H2885V1.56248e-06Z" fill="#E3DFCF"/>
<path d="M2890 1.56248e-06H2895V5H2890V1.56248e-06Z" fill="#E3DFCF"/>
<path d="M2895 1.56248e-06H2900V5H2895V1.56248e-06Z" fill="#E3DFCF"/>
<path d="M2900 1.56248e-06H2905V5H2900V1.56248e-06Z" fill="#E3DFCF"/>
<path d="M2905 1.56248e-06H2910V5H2905V1.56248e-06Z" fill="#E3DFCF"/>
<path d="M2910 1.56248e-06H2915V5H2910V1.56248e-06Z" fill="#E3DFCF"/>
<path d="M2915 1.56248e-06H2920V5H2915V1.56248e-06Z" fill="#E3DFCF"/>
<path d="M2925 1.56248e-06H2930V5H2925V1.56248e-06Z" fill="#E3DFCF"/>
<path d="M2930 1.56248e-06H2935V5H2930V1.56248e-06Z" fill="#E3DFCF"/>
<path d="M2935 1.56248e-06H2940V5H2935V1.56248e-06Z" fill="#E3DFCF"/>
<path d="M2940 1.56248e-06H2945V5H2940V1.56248e-06Z" fill="#E3DFCF"/>
<path d="M2945 1.56248e-06H2950V5H2945V1.56248e-06Z" fill="#E3DFCF"/>
<path d="M2950 1.56248e-06H2955V5H2950V1.56248e-06Z" fill="#E3DFCF"/>
<path d="M2955 1.56248e-06H2960V5H2955V1.56248e-06Z" fill="#E3DFCF"/>
<path d="M2960 1.56248e-06H2965V5H2960V1.56248e-06Z" fill="#E3DFCF"/>
<path d="M2965 1.56248e-06H2970V5H2965V1.56248e-06Z" fill="#E3DFCF"/>
<path d="M2970 1.56248e-06H2975V5H2970V1.56248e-06Z" fill="#E3DFCF"/>
<path d="M2975 1.56248e-06H2980V5H2975V1.56248e-06Z" fill="#E3DFCF"/>
<path d="M2980 1.56248e-06H2985V5H2980V1.56248e-06Z" fill="#E3DFCF"/>
<path d="M2985 1.56248e-06H2990V5H2985V1.56248e-06Z" fill="#E3DFCF"/>
<path d="M2990 1.56248e-06H2995V5H2990V1.56248e-06Z" fill="#E3DFCF"/>
<path d="M2995 1.56248e-06H3000V5H2995V1.56248e-06Z" fill="#E3DFCF"/>
<path d="M3000 1.56248e-06H3005V5H3000V1.56248e-06Z" fill="#E3DFCF"/>
<path d="M3005 1.56248e-06H3010V5H3005V1.56248e-06Z" fill="#E3DFCF"/>
<path d="M3010 1.56248e-06H3015V5H3010V1.56248e-06Z" fill="#E3DFCF"/>
<path d="M3015 1.56248e-06H3020V5H3015V1.56248e-06Z" fill="#E3DFCF"/>
<path d="M3020 1.56248e-06H3025V5H3020V1.56248e-06Z" fill="#E3DFCF"/>
<path d="M3025 1.56248e-06H3030V5H3025V1.56248e-06Z" fill="#E3DFCF"/>
<path d="M3030 1.56248e-06H3035V5H3030V1.56248e-06Z" fill="#E3DFCF"/>
<path d="M3035 1.56248e-06H3040V5H3035V1.56248e-06Z" fill="#E3DFCF"/>
<path d="M3040 1.56248e-06H3045V5H3040V1.56248e-06Z" fill="#E3DFCF"/>
<path d="M3045 1.56248e-06H3050V5H3045V1.56248e-06Z" fill="#E3DFCF"/>
<path d="M3050 1.56248e-06H3055V5H3050V1.56248e-06Z" fill="#E3DFCF"/>
<path d="M3060 1.56248e-06H3065V5H3060V1.56248e-06Z" fill="#E3DFCF"/>
<path d="M3065 1.56248e-06H3070V5H3065V1.56248e-06Z" fill="#E3DFCF"/>
<path d="M3070 1.56248e-06H3075V5H3070V1.56248e-06Z" fill="#E3DFCF"/>
<path d="M3075 1.56248e-06H3080V5H3075V1.56248e-06Z" fill="#E3DFCF"/>
<path d="M3080 1.56248e-06H3085V5H3080V1.56248e-06Z" fill="#E3DFCF"/>
<path d="M3085 1.56248e-06H3090V5H3085V1.56248e-06Z" fill="#E3DFCF"/>
<path d="M3090 1.56248e-06H3095V5H3090V1.56248e-06Z" fill="#E3DFCF"/>
<path d="M3095 1.56248e-06H3100V5H3095V1.56248e-06Z" fill="#E3DFCF"/>
<path d="M3100 1.56248e-06H3105V5H3100V1.56248e-06Z" fill="#E3DFCF"/>
<path d="M3110 1.56248e-06H3115V5H3110V1.56248e-06Z" fill="#E3DFCF"/>
<path d="M3115 1.56248e-06H3120V5H3115V1.56248e-06Z" fill="#E3DFCF"/>
<path d="M3120 1.56248e-06H3125V5H3120V1.56248e-06Z" fill="#E3DFCF"/>
<path d="M3125 1.56248e-06H3130V5H3125V1.56248e-06Z" fill="#E3DFCF"/>
<path d="M3130 1.56248e-06H3135V5H3130V1.56248e-06Z" fill="#E3DFCF"/>
<path d="M3135 1.56248e-06H3140V5H3135V1.56248e-06Z" fill="#E3DFCF"/>
<path d="M3140 1.56248e-06H3145V5H3140V1.56248e-06Z" fill="#E3DFCF"/>
<path d="M3145 1.56248e-06H3150V5H3145V1.56248e-06Z" fill="#E3DFCF"/>
<path d="M3150 1.56248e-06H3155V5H3150V1.56248e-06Z" fill="#E3DFCF"/>
<path d="M3155 1.56248e-06H3160V5H3155V1.56248e-06Z" fill="#E3DFCF"/>
<path d="M3160 1.56248e-06H3165V5H3160V1.56248e-06Z" fill="#E3DFCF"/>
<path d="M3165 1.56248e-06H3170V5H3165V1.56248e-06Z" fill="#E3DFCF"/>
<path d="M3170 1.56248e-06H3175V5H3170V1.56248e-06Z" fill="#E3DFCF"/>
<path d="M3175 1.56248e-06H3180V5H3175V1.56248e-06Z" fill="#E3DFCF"/>
<path d="M3180 1.56248e-06H3185V5H3180V1.56248e-06Z" fill="#E3DFCF"/>
<path d="M3185 1.56248e-06H3190V5H3185V1.56248e-06Z" fill="#E3DFCF"/>
<path d="M3190 1.56248e-06H3195V5H3190V1.56248e-06Z" fill="#E3DFCF"/>
<path d="M3195 1.56248e-06H3200V5H3195V1.56248e-06Z" fill="#E3DFCF"/>
<path d="M3200 1.56248e-06H3205V5H3200V1.56248e-06Z" fill="#E3DFCF"/>
<path d="M3205 1.56248e-06H3210V5H3205V1.56248e-06Z" fill="#E3DFCF"/>
<path d="M3210 1.56248e-06H3215V5H3210V1.56248e-06Z" fill="#E3DFCF"/>
<path d="M3215 1.56248e-06H3220V5H3215V1.56248e-06Z" fill="#E3DFCF"/>
<path d="M3220 1.56248e-06H3225V5H3220V1.56248e-06Z" fill="#E3DFCF"/>
<path d="M3225 1.56248e-06H3230V5H3225V1.56248e-06Z" fill="#E3DFCF"/>
<path d="M3235 1.56248e-06H3240V5H3235V1.56248e-06Z" fill="#E3DFCF"/>
<path d="M3240 1.56248e-06H3245V5H3240V1.56248e-06Z" fill="#E3DFCF"/>
<path d="M3245 1.56248e-06H3250V5H3245V1.56248e-06Z" fill="#E3DFCF"/>
<path d="M3250 1.56248e-06H3255V5H3250V1.56248e-06Z" fill="#E3DFCF"/>
<path d="M3255 1.56248e-06H3260V5H3255V1.56248e-06Z" fill="#E3DFCF"/>
<path d="M3260 1.56248e-06H3265V5H3260V1.56248e-06Z" fill="#E3DFCF"/>
<path d="M3265 1.56248e-06H3270V5H3265V1.56248e-06Z" fill="#E3DFCF"/>
<path d="M3270 1.56248e-06H3275V5H3270V1.56248e-06Z" fill="#E3DFCF"/>
<path d="M3275 1.56248e-06H3280V5H3275V1.56248e-06Z" fill="#E3DFCF"/>
<path d="M3280 1.56248e-06H3285V5H3280V1.56248e-06Z" fill="#E3DFCF"/>
<path d="M3285 1.56248e-06H3290V5H3285V1.56248e-06Z" fill="#E3DFCF"/>
<path d="M3290 1.56248e-06H3295V5H3290V1.56248e-06Z" fill="#E3DFCF"/>
<path d="M3295 1.56248e-06H3300V5H3295V1.56248e-06Z" fill="#E3DFCF"/>
<path d="M3300 1.56248e-06H3305V5H3300V1.56248e-06Z" fill="#E3DFCF"/>
<path d="M3305 1.56248e-06H3310V5H3305V1.56248e-06Z" fill="#E3DFCF"/>
<path d="M3310 1.56248e-06H3315V5H3310V1.56248e-06Z" fill="#E3DFCF"/>
<path d="M3315 1.56248e-06H3320V5H3315V1.56248e-06Z" fill="#E3DFCF"/>
<path d="M3320 1.56248e-06H3325V5H3320V1.56248e-06Z" fill="#E3DFCF"/>
<path d="M3325 1.56248e-06H3330V5H3325V1.56248e-06Z" fill="#E3DFCF"/>
<path d="M3330 1.56248e-06H3335V5H3330V1.56248e-06Z" fill="#E3DFCF"/>
<path d="M3340 1.56248e-06H3345V5H3340V1.56248e-06Z" fill="#E3DFCF"/>
<path d="M3345 1.56248e-06H3350V5H3345V1.56248e-06Z" fill="#E3DFCF"/>
<path d="M3355 1.56248e-06H3360V5H3355V1.56248e-06Z" fill="#E3DFCF"/>
<path d="M3360 1.56248e-06H3365V5H3360V1.56248e-06Z" fill="#E3DFCF"/>
<path d="M3365 1.56248e-06H3370V5H3365V1.56248e-06Z" fill="#E3DFCF"/>
<path d="M3370 1.56248e-06H3375V5H3370V1.56248e-06Z" fill="#E3DFCF"/>
<path d="M3375 1.56248e-06H3380V5H3375V1.56248e-06Z" fill="#E3DFCF"/>
<path d="M3380 1.56248e-06H3385V5H3380V1.56248e-06Z" fill="#E3DFCF"/>
<path d="M3385 1.56248e-06H3390V5H3385V1.56248e-06Z" fill="#E3DFCF"/>
<path d="M3390 1.56248e-06H3395V5H3390V1.56248e-06Z" fill="#E3DFCF"/>
<path d="M3395 1.56248e-06H3400V5H3395V1.56248e-06Z" fill="#E3DFCF"/>
<path d="M3400 1.56248e-06H3405V5H3400V1.56248e-06Z" fill="#E3DFCF"/>
<path d="M3405 1.56248e-06H3410V5H3405V1.56248e-06Z" fill="#E3DFCF"/>
<path d="M3410 1.56248e-06H3415V5H3410V1.56248e-06Z" fill="#E3DFCF"/>
<path d="M3415 1.56248e-06H3420V5H3415V1.56248e-06Z" fill="#E3DFCF"/>
<path d="M3420 1.56248e-06H3425V5H3420V1.56248e-06Z" fill="#E3DFCF"/>
<path d="M3425 1.56248e-06H3430V5H3425V1.56248e-06Z" fill="#E3DFCF"/>
<path d="M3430 1.56248e-06H3435V5H3430V1.56248e-06Z" fill="#E3DFCF"/>
<path d="M3435 1.56248e-06H3440V5H3435V1.56248e-06Z" fill="#E3DFCF"/>
<path d="M3440 1.56248e-06H3445V5H3440V1.56248e-06Z" fill="#E3DFCF"/>
<path d="M3445 1.56248e-06H3450V5H3445V1.56248e-06Z" fill="#E3DFCF"/>
<path d="M3450 1.56248e-06H3455V5H3450V1.56248e-06Z" fill="#E3DFCF"/>
<path d="M3460 1.56248e-06H3465V5H3460V1.56248e-06Z" fill="#E3DFCF"/>
<path d="M3465 1.56248e-06H3470V5H3465V1.56248e-06Z" fill="#E3DFCF"/>
<path d="M3470 1.56248e-06H3475V5H3470V1.56248e-06Z" fill="#E3DFCF"/>
<path d="M3475 1.56248e-06H3480V5H3475V1.56248e-06Z" fill="#E3DFCF"/>
<path d="M3480 1.56248e-06H3485V5H3480V1.56248e-06Z" fill="#E3DFCF"/>
<path d="M3485 1.56248e-06H3490V5H3485V1.56248e-06Z" fill="#E3DFCF"/>
<path d="M3490 1.56248e-06H3495V5H3490V1.56248e-06Z" fill="#E3DFCF"/>
<path d="M3495 1.56248e-06H3500V5H3495V1.56248e-06Z" fill="#E3DFCF"/>
<path d="M3500 1.56248e-06H3505V5H3500V1.56248e-06Z" fill="#E3DFCF"/>
<path d="M3505 1.56248e-06H3510V5H3505V1.56248e-06Z" fill="#E3DFCF"/>
<path d="M3510 1.56248e-06H3515V5H3510V1.56248e-06Z" fill="#E3DFCF"/>
<path d="M3515 1.56248e-06H3520V5H3515V1.56248e-06Z" fill="#E3DFCF"/>
<path d="M3520 1.56248e-06H3525V5H3520V1.56248e-06Z" fill="#E3DFCF"/>
<path d="M3525 1.56248e-06H3530V5H3525V1.56248e-06Z" fill="#E3DFCF"/>
<path d="M3530 1.56248e-06H3535V5H3530V1.56248e-06Z" fill="#E3DFCF"/>
</svg>
