<svg width="3650" height="5" viewBox="0 0 3650 5" fill="none" xmlns="http://www.w3.org/2000/svg">
<path d="M1460 1.08103e-07H1465V1.25H1460V1.08103e-07Z" fill="#FF3D00"/>
<path d="M1470 -1.00284e-05H1475V1.66666H1470V-1.00284e-05Z" fill="#FF3D00"/>
<path d="M1475 -1.00284e-05H1480V1.66666H1475V-1.00284e-05Z" fill="#FF3D00"/>
<path d="M1480 -1.00284e-05H1485V1.66666H1480V-1.00284e-05Z" fill="#FF3D00"/>
<path d="M1250 4.32411e-07H1255V5H1250V4.32411e-07Z" fill="#4ADADA"/>
<path d="M1405 2.16206e-07H1410V2.5H1405V2.16206e-07Z" fill="#4ADADA"/>
<path d="M1450 2.16206e-07H1455V2.5H1450V2.16206e-07Z" fill="#4ADADA"/>
<path d="M1455 2.16206e-07H1460V2.5H1455V2.16206e-07Z" fill="#4ADADA"/>
<path d="M1460 1.25H1465V2.5H1460V1.25Z" fill="#4ADADA"/>
<path d="M1465 2.16206e-07H1470V2.5H1465V2.16206e-07Z" fill="#4ADADA"/>
<path d="M1470 1.66668H1475V3.33334H1470V1.66668Z" fill="#4ADADA"/>
<path d="M1475 1.66668H1480V3.33334H1475V1.66668Z" fill="#4ADADA"/>
<path d="M1480 1.66668H1485V3.33334H1480V1.66668Z" fill="#4ADADA"/>
<path d="M1485 2.16206e-07H1490V2.5H1485V2.16206e-07Z" fill="#4ADADA"/>
<path d="M1505 4.32411e-07H1510V5H1505V4.32411e-07Z" fill="#4ADADA"/>
<path d="M1660 4.32411e-07H1665V5H1660V4.32411e-07Z" fill="#4ADADA"/>
<path d="M1860 2.16206e-07H1865V2.5H1860V2.16206e-07Z" fill="#4ADADA"/>
<path d="M1865 2.16206e-07H1870V2.5H1865V2.16206e-07Z" fill="#4ADADA"/>
<path d="M1870 4.32411e-07H1875V5H1870V4.32411e-07Z" fill="#4ADADA"/>
<path d="M1875 4.32411e-07H1880V5H1875V4.32411e-07Z" fill="#4ADADA"/>
<path d="M1880 4.32411e-07H1885V5H1880V4.32411e-07Z" fill="#4ADADA"/>
<path d="M1895 4.32411e-07H1900V5H1895V4.32411e-07Z" fill="#4ADADA"/>
<path d="M1050 4.32411e-07H1055V5H1050V4.32411e-07Z" fill="#FFB2AC"/>
<path d="M1070 4.32411e-07H1075V5H1070V4.32411e-07Z" fill="#FFB2AC"/>
<path d="M1310 4.32411e-07H1315V5H1310V4.32411e-07Z" fill="#FFB2AC"/>
<path d="M1340 4.32411e-07H1345V5H1340V4.32411e-07Z" fill="#FFB2AC"/>
<path d="M1385 4.32411e-07H1390V5H1385V4.32411e-07Z" fill="#FFB2AC"/>
<path d="M1390 4.32411e-07H1395V5H1390V4.32411e-07Z" fill="#FFB2AC"/>
<path d="M1395 4.32411e-07H1400V5H1395V4.32411e-07Z" fill="#FFB2AC"/>
<path d="M1400 4.32411e-07H1405V5H1400V4.32411e-07Z" fill="#FFB2AC"/>
<path d="M1405 2.5H1410V5H1405V2.5Z" fill="#FFB2AC"/>
<path d="M1410 4.32411e-07H1415V5H1410V4.32411e-07Z" fill="#FFB2AC"/>
<path d="M1415 4.32411e-07H1420V5H1415V4.32411e-07Z" fill="#FFB2AC"/>
<path d="M1420 4.32411e-07H1425V5H1420V4.32411e-07Z" fill="#FFB2AC"/>
<path d="M1430 4.32411e-07H1435V5H1430V4.32411e-07Z" fill="#FFB2AC"/>
<path d="M1440 4.32411e-07H1445V5H1440V4.32411e-07Z" fill="#FFB2AC"/>
<path d="M1445 4.32411e-07H1450V5H1445V4.32411e-07Z" fill="#FFB2AC"/>
<path d="M1450 2.5H1455V5H1450V2.5Z" fill="#FFB2AC"/>
<path d="M1455 2.5H1460V5H1455V2.5Z" fill="#FFB2AC"/>
<path d="M1460 2.5H1465V3.75H1460V2.5Z" fill="#FFB2AC"/>
<path d="M1465 2.5H1470V5H1465V2.5Z" fill="#FFB2AC"/>
<path d="M1470 3.33333H1475V5H1470V3.33333Z" fill="#FFB2AC"/>
<path d="M1475 3.33333H1480V5H1475V3.33333Z" fill="#FFB2AC"/>
<path d="M1480 3.33333H1485V5H1480V3.33333Z" fill="#FFB2AC"/>
<path d="M1485 2.5H1490V5H1485V2.5Z" fill="#FFB2AC"/>
<path d="M1490 4.32411e-07H1495V5H1490V4.32411e-07Z" fill="#FFB2AC"/>
<path d="M1500 4.32411e-07H1505V5H1500V4.32411e-07Z" fill="#FFB2AC"/>
<path d="M1515 4.32411e-07H1520V5H1515V4.32411e-07Z" fill="#FFB2AC"/>
<path d="M1520 4.32411e-07H1525V5H1520V4.32411e-07Z" fill="#FFB2AC"/>
<path d="M1540 4.32411e-07H1545V5H1540V4.32411e-07Z" fill="#FFB2AC"/>
<path d="M1555 4.32411e-07H1560V5H1555V4.32411e-07Z" fill="#FFB2AC"/>
<path d="M1560 4.32411e-07H1565V5H1560V4.32411e-07Z" fill="#FFB2AC"/>
<path d="M1580 4.32411e-07H1585V5H1580V4.32411e-07Z" fill="#FFB2AC"/>
<path d="M1850 4.32411e-07H1855V5H1850V4.32411e-07Z" fill="#FFB2AC"/>
<path d="M1855 4.32411e-07H1860V5H1855V4.32411e-07Z" fill="#FFB2AC"/>
<path d="M1860 2.5H1865V5H1860V2.5Z" fill="#FFB2AC"/>
<path d="M1865 2.5H1870V5H1865V2.5Z" fill="#FFB2AC"/>
<path d="M1905 4.32411e-07H1910V5H1905V4.32411e-07Z" fill="#FFB2AC"/>
<path d="M2425 4.32411e-07H2430V5H2425V4.32411e-07Z" fill="#FFB2AC"/>
<path d="M1460 3.75H1465V5H1460V3.75Z" fill="#AA92E3"/>
<path d="M1055 4.32411e-07H1060V5H1055V4.32411e-07Z" fill="#E3DFCF"/>
<path d="M1060 4.32411e-07H1065V5H1060V4.32411e-07Z" fill="#E3DFCF"/>
<path d="M1065 4.32411e-07H1070V5H1065V4.32411e-07Z" fill="#E3DFCF"/>
<path d="M1075 4.32411e-07H1080V5H1075V4.32411e-07Z" fill="#E3DFCF"/>
<path d="M1080 4.32411e-07H1085V5H1080V4.32411e-07Z" fill="#E3DFCF"/>
<path d="M1085 4.32411e-07H1090V5H1085V4.32411e-07Z" fill="#E3DFCF"/>
<path d="M1090 4.32411e-07H1095V5H1090V4.32411e-07Z" fill="#E3DFCF"/>
<path d="M1095 4.32411e-07H1100V5H1095V4.32411e-07Z" fill="#E3DFCF"/>
<path d="M1100 4.32411e-07H1105V5H1100V4.32411e-07Z" fill="#E3DFCF"/>
<path d="M1105 4.32411e-07H1110V5H1105V4.32411e-07Z" fill="#E3DFCF"/>
<path d="M1110 4.32411e-07H1115V5H1110V4.32411e-07Z" fill="#E3DFCF"/>
<path d="M1115 4.32411e-07H1120V5H1115V4.32411e-07Z" fill="#E3DFCF"/>
<path d="M1120 4.32411e-07H1125V5H1120V4.32411e-07Z" fill="#E3DFCF"/>
<path d="M1125 4.32411e-07H1130V5H1125V4.32411e-07Z" fill="#E3DFCF"/>
<path d="M1130 4.32411e-07H1135V5H1130V4.32411e-07Z" fill="#E3DFCF"/>
<path d="M1135 4.32411e-07H1140V5H1135V4.32411e-07Z" fill="#E3DFCF"/>
<path d="M1140 4.32411e-07H1145V5H1140V4.32411e-07Z" fill="#E3DFCF"/>
<path d="M1145 4.32411e-07H1150V5H1145V4.32411e-07Z" fill="#E3DFCF"/>
<path d="M1150 4.32411e-07H1155V5H1150V4.32411e-07Z" fill="#E3DFCF"/>
<path d="M1155 4.32411e-07H1160V5H1155V4.32411e-07Z" fill="#E3DFCF"/>
<path d="M1160 4.32411e-07H1165V5H1160V4.32411e-07Z" fill="#E3DFCF"/>
<path d="M1165 4.32411e-07H1170V5H1165V4.32411e-07Z" fill="#E3DFCF"/>
<path d="M1170 4.32411e-07H1175V5H1170V4.32411e-07Z" fill="#E3DFCF"/>
<path d="M1175 4.32411e-07H1180V5H1175V4.32411e-07Z" fill="#E3DFCF"/>
<path d="M1180 4.32411e-07H1185V5H1180V4.32411e-07Z" fill="#E3DFCF"/>
<path d="M1185 4.32411e-07H1190V5H1185V4.32411e-07Z" fill="#E3DFCF"/>
<path d="M1190 4.32411e-07H1195V5H1190V4.32411e-07Z" fill="#E3DFCF"/>
<path d="M1195 4.32411e-07H1200V5H1195V4.32411e-07Z" fill="#E3DFCF"/>
<path d="M1200 4.32411e-07H1205V5H1200V4.32411e-07Z" fill="#E3DFCF"/>
<path d="M1205 4.32411e-07H1210V5H1205V4.32411e-07Z" fill="#E3DFCF"/>
<path d="M1210 4.32411e-07H1215V5H1210V4.32411e-07Z" fill="#E3DFCF"/>
<path d="M1215 4.32411e-07H1220V5H1215V4.32411e-07Z" fill="#E3DFCF"/>
<path d="M1220 4.32411e-07H1225V5H1220V4.32411e-07Z" fill="#E3DFCF"/>
<path d="M1225 4.32411e-07H1230V5H1225V4.32411e-07Z" fill="#E3DFCF"/>
<path d="M1230 4.32411e-07H1235V5H1230V4.32411e-07Z" fill="#E3DFCF"/>
<path d="M1235 4.32411e-07H1240V5H1235V4.32411e-07Z" fill="#E3DFCF"/>
<path d="M1240 4.32411e-07H1245V5H1240V4.32411e-07Z" fill="#E3DFCF"/>
<path d="M1245 4.32411e-07H1250V5H1245V4.32411e-07Z" fill="#E3DFCF"/>
<path d="M1255 4.32411e-07H1260V5H1255V4.32411e-07Z" fill="#E3DFCF"/>
<path d="M1260 4.32411e-07H1265V5H1260V4.32411e-07Z" fill="#E3DFCF"/>
<path d="M1265 4.32411e-07H1270V5H1265V4.32411e-07Z" fill="#E3DFCF"/>
<path d="M1270 4.32411e-07H1275V5H1270V4.32411e-07Z" fill="#E3DFCF"/>
<path d="M1275 4.32411e-07H1280V5H1275V4.32411e-07Z" fill="#E3DFCF"/>
<path d="M1280 4.32411e-07H1285V5H1280V4.32411e-07Z" fill="#E3DFCF"/>
<path d="M1285 4.32411e-07H1290V5H1285V4.32411e-07Z" fill="#E3DFCF"/>
<path d="M1290 4.32411e-07H1295V5H1290V4.32411e-07Z" fill="#E3DFCF"/>
<path d="M1295 4.32411e-07H1300V5H1295V4.32411e-07Z" fill="#E3DFCF"/>
<path d="M1300 4.32411e-07H1305V5H1300V4.32411e-07Z" fill="#E3DFCF"/>
<path d="M1305 4.32411e-07H1310V5H1305V4.32411e-07Z" fill="#E3DFCF"/>
<path d="M1315 4.32411e-07H1320V5H1315V4.32411e-07Z" fill="#E3DFCF"/>
<path d="M1320 4.32411e-07H1325V5H1320V4.32411e-07Z" fill="#E3DFCF"/>
<path d="M1325 4.32411e-07H1330V5H1325V4.32411e-07Z" fill="#E3DFCF"/>
<path d="M1330 4.32411e-07H1335V5H1330V4.32411e-07Z" fill="#E3DFCF"/>
<path d="M1335 4.32411e-07H1340V5H1335V4.32411e-07Z" fill="#E3DFCF"/>
<path d="M1345 4.32411e-07H1350V5H1345V4.32411e-07Z" fill="#E3DFCF"/>
<path d="M1350 4.32411e-07H1355V5H1350V4.32411e-07Z" fill="#E3DFCF"/>
<path d="M1355 4.32411e-07H1360V5H1355V4.32411e-07Z" fill="#E3DFCF"/>
<path d="M1360 4.32411e-07H1365V5H1360V4.32411e-07Z" fill="#E3DFCF"/>
<path d="M1365 4.32411e-07H1370V5H1365V4.32411e-07Z" fill="#E3DFCF"/>
<path d="M1370 4.32411e-07H1375V5H1370V4.32411e-07Z" fill="#E3DFCF"/>
<path d="M1375 4.32411e-07H1380V5H1375V4.32411e-07Z" fill="#E3DFCF"/>
<path d="M1380 4.32411e-07H1385V5H1380V4.32411e-07Z" fill="#E3DFCF"/>
<path d="M1425 4.32411e-07H1430V5H1425V4.32411e-07Z" fill="#E3DFCF"/>
<path d="M1435 4.32411e-07H1440V5H1435V4.32411e-07Z" fill="#E3DFCF"/>
<path d="M1495 4.32411e-07H1500V5H1495V4.32411e-07Z" fill="#E3DFCF"/>
<path d="M1510 4.32411e-07H1515V5H1510V4.32411e-07Z" fill="#E3DFCF"/>
<path d="M1525 4.32411e-07H1530V5H1525V4.32411e-07Z" fill="#E3DFCF"/>
<path d="M1530 4.32411e-07H1535V5H1530V4.32411e-07Z" fill="#E3DFCF"/>
<path d="M1535 4.32411e-07H1540V5H1535V4.32411e-07Z" fill="#E3DFCF"/>
<path d="M1545 4.32411e-07H1550V5H1545V4.32411e-07Z" fill="#E3DFCF"/>
<path d="M1550 4.32411e-07H1555V5H1550V4.32411e-07Z" fill="#E3DFCF"/>
<path d="M1565 4.32411e-07H1570V5H1565V4.32411e-07Z" fill="#E3DFCF"/>
<path d="M1570 4.32411e-07H1575V5H1570V4.32411e-07Z" fill="#E3DFCF"/>
<path d="M1575 4.32411e-07H1580V5H1575V4.32411e-07Z" fill="#E3DFCF"/>
<path d="M1585 4.32411e-07H1590V5H1585V4.32411e-07Z" fill="#E3DFCF"/>
<path d="M1590 4.32411e-07H1595V5H1590V4.32411e-07Z" fill="#E3DFCF"/>
<path d="M1595 4.32411e-07H1600V5H1595V4.32411e-07Z" fill="#E3DFCF"/>
<path d="M1600 4.32411e-07H1605V5H1600V4.32411e-07Z" fill="#E3DFCF"/>
<path d="M1605 4.32411e-07H1610V5H1605V4.32411e-07Z" fill="#E3DFCF"/>
<path d="M1610 4.32411e-07H1615V5H1610V4.32411e-07Z" fill="#E3DFCF"/>
<path d="M1615 4.32411e-07H1620V5H1615V4.32411e-07Z" fill="#E3DFCF"/>
<path d="M1620 4.32411e-07H1625V5H1620V4.32411e-07Z" fill="#E3DFCF"/>
<path d="M1625 4.32411e-07H1630V5H1625V4.32411e-07Z" fill="#E3DFCF"/>
<path d="M1630 4.32411e-07H1635V5H1630V4.32411e-07Z" fill="#E3DFCF"/>
<path d="M1635 4.32411e-07H1640V5H1635V4.32411e-07Z" fill="#E3DFCF"/>
<path d="M1640 4.32411e-07H1645V5H1640V4.32411e-07Z" fill="#E3DFCF"/>
<path d="M1645 4.32411e-07H1650V5H1645V4.32411e-07Z" fill="#E3DFCF"/>
<path d="M1650 4.32411e-07H1655V5H1650V4.32411e-07Z" fill="#E3DFCF"/>
<path d="M1655 4.32411e-07H1660V5H1655V4.32411e-07Z" fill="#E3DFCF"/>
<path d="M1665 4.32411e-07H1670V5H1665V4.32411e-07Z" fill="#E3DFCF"/>
<path d="M1670 4.32411e-07H1675V5H1670V4.32411e-07Z" fill="#E3DFCF"/>
<path d="M1675 4.32411e-07H1680V5H1675V4.32411e-07Z" fill="#E3DFCF"/>
<path d="M1680 4.32411e-07H1685V5H1680V4.32411e-07Z" fill="#E3DFCF"/>
<path d="M1685 4.32411e-07H1690V5H1685V4.32411e-07Z" fill="#E3DFCF"/>
<path d="M1690 4.32411e-07H1695V5H1690V4.32411e-07Z" fill="#E3DFCF"/>
<path d="M1695 4.32411e-07H1700V5H1695V4.32411e-07Z" fill="#E3DFCF"/>
<path d="M1700 4.32411e-07H1705V5H1700V4.32411e-07Z" fill="#E3DFCF"/>
<path d="M1705 4.32411e-07H1710V5H1705V4.32411e-07Z" fill="#E3DFCF"/>
<path d="M1710 4.32411e-07H1715V5H1710V4.32411e-07Z" fill="#E3DFCF"/>
<path d="M1715 4.32411e-07H1720V5H1715V4.32411e-07Z" fill="#E3DFCF"/>
<path d="M1720 4.32411e-07H1725V5H1720V4.32411e-07Z" fill="#E3DFCF"/>
<path d="M1725 4.32411e-07H1730V5H1725V4.32411e-07Z" fill="#E3DFCF"/>
<path d="M1730 4.32411e-07H1735V5H1730V4.32411e-07Z" fill="#E3DFCF"/>
<path d="M1735 4.32411e-07H1740V5H1735V4.32411e-07Z" fill="#E3DFCF"/>
<path d="M1740 4.32411e-07H1745V5H1740V4.32411e-07Z" fill="#E3DFCF"/>
<path d="M1745 4.32411e-07H1750V5H1745V4.32411e-07Z" fill="#E3DFCF"/>
<path d="M1750 4.32411e-07H1755V5H1750V4.32411e-07Z" fill="#E3DFCF"/>
<path d="M1755 4.32411e-07H1760V5H1755V4.32411e-07Z" fill="#E3DFCF"/>
<path d="M1760 4.32411e-07H1765V5H1760V4.32411e-07Z" fill="#E3DFCF"/>
<path d="M1765 4.32411e-07H1770V5H1765V4.32411e-07Z" fill="#E3DFCF"/>
<path d="M1770 4.32411e-07H1775V5H1770V4.32411e-07Z" fill="#E3DFCF"/>
<path d="M1775 4.32411e-07H1780V5H1775V4.32411e-07Z" fill="#E3DFCF"/>
<path d="M1780 4.32411e-07H1785V5H1780V4.32411e-07Z" fill="#E3DFCF"/>
<path d="M1785 4.32411e-07H1790V5H1785V4.32411e-07Z" fill="#E3DFCF"/>
<path d="M1790 4.32411e-07H1795V5H1790V4.32411e-07Z" fill="#E3DFCF"/>
<path d="M1795 4.32411e-07H1800V5H1795V4.32411e-07Z" fill="#E3DFCF"/>
<path d="M1800 4.32411e-07H1805V5H1800V4.32411e-07Z" fill="#E3DFCF"/>
<path d="M1805 4.32411e-07H1810V5H1805V4.32411e-07Z" fill="#E3DFCF"/>
<path d="M1810 4.32411e-07H1815V5H1810V4.32411e-07Z" fill="#E3DFCF"/>
<path d="M1815 4.32411e-07H1820V5H1815V4.32411e-07Z" fill="#E3DFCF"/>
<path d="M1820 4.32411e-07H1825V5H1820V4.32411e-07Z" fill="#E3DFCF"/>
<path d="M1825 4.32411e-07H1830V5H1825V4.32411e-07Z" fill="#E3DFCF"/>
<path d="M1830 4.32411e-07H1835V5H1830V4.32411e-07Z" fill="#E3DFCF"/>
<path d="M1835 4.32411e-07H1840V5H1835V4.32411e-07Z" fill="#E3DFCF"/>
<path d="M1840 4.32411e-07H1845V5H1840V4.32411e-07Z" fill="#E3DFCF"/>
<path d="M1845 4.32411e-07H1850V5H1845V4.32411e-07Z" fill="#E3DFCF"/>
<path d="M1885 4.32411e-07H1890V5H1885V4.32411e-07Z" fill="#E3DFCF"/>
<path d="M1890 4.32411e-07H1895V5H1890V4.32411e-07Z" fill="#E3DFCF"/>
<path d="M1900 4.32411e-07H1905V5H1900V4.32411e-07Z" fill="#E3DFCF"/>
<path d="M1910 4.32411e-07H1915V5H1910V4.32411e-07Z" fill="#E3DFCF"/>
<path d="M1915 4.32411e-07H1920V5H1915V4.32411e-07Z" fill="#E3DFCF"/>
<path d="M1920 4.32411e-07H1925V5H1920V4.32411e-07Z" fill="#E3DFCF"/>
<path d="M1925 4.32411e-07H1930V5H1925V4.32411e-07Z" fill="#E3DFCF"/>
<path d="M1930 4.32411e-07H1935V5H1930V4.32411e-07Z" fill="#E3DFCF"/>
<path d="M1935 4.32411e-07H1940V5H1935V4.32411e-07Z" fill="#E3DFCF"/>
<path d="M1940 4.32411e-07H1945V5H1940V4.32411e-07Z" fill="#E3DFCF"/>
<path d="M1945 4.32411e-07H1950V5H1945V4.32411e-07Z" fill="#E3DFCF"/>
<path d="M1950 4.32411e-07H1955V5H1950V4.32411e-07Z" fill="#E3DFCF"/>
<path d="M1955 4.32411e-07H1960V5H1955V4.32411e-07Z" fill="#E3DFCF"/>
<path d="M1960 4.32411e-07H1965V5H1960V4.32411e-07Z" fill="#E3DFCF"/>
<path d="M1965 4.32411e-07H1970V5H1965V4.32411e-07Z" fill="#E3DFCF"/>
<path d="M1970 4.32411e-07H1975V5H1970V4.32411e-07Z" fill="#E3DFCF"/>
<path d="M1975 4.32411e-07H1980V5H1975V4.32411e-07Z" fill="#E3DFCF"/>
<path d="M1980 4.32411e-07H1985V5H1980V4.32411e-07Z" fill="#E3DFCF"/>
<path d="M1985 4.32411e-07H1990V5H1985V4.32411e-07Z" fill="#E3DFCF"/>
<path d="M1990 4.32411e-07H1995V5H1990V4.32411e-07Z" fill="#E3DFCF"/>
<path d="M1995 4.32411e-07H2000V5H1995V4.32411e-07Z" fill="#E3DFCF"/>
<path d="M2000 4.32411e-07H2005V5H2000V4.32411e-07Z" fill="#E3DFCF"/>
<path d="M2005 4.32411e-07H2010V5H2005V4.32411e-07Z" fill="#E3DFCF"/>
<path d="M2010 4.32411e-07H2015V5H2010V4.32411e-07Z" fill="#E3DFCF"/>
<path d="M2015 4.32411e-07H2020V5H2015V4.32411e-07Z" fill="#E3DFCF"/>
<path d="M2020 4.32411e-07H2025V5H2020V4.32411e-07Z" fill="#E3DFCF"/>
<path d="M2025 4.32411e-07H2030V5H2025V4.32411e-07Z" fill="#E3DFCF"/>
<path d="M2030 4.32411e-07H2035V5H2030V4.32411e-07Z" fill="#E3DFCF"/>
<path d="M2035 4.32411e-07H2040V5H2035V4.32411e-07Z" fill="#E3DFCF"/>
<path d="M2040 4.32411e-07H2045V5H2040V4.32411e-07Z" fill="#E3DFCF"/>
<path d="M2045 4.32411e-07H2050V5H2045V4.32411e-07Z" fill="#E3DFCF"/>
<path d="M2050 4.32411e-07H2055V5H2050V4.32411e-07Z" fill="#E3DFCF"/>
<path d="M2055 4.32411e-07H2060V5H2055V4.32411e-07Z" fill="#E3DFCF"/>
<path d="M2060 4.32411e-07H2065V5H2060V4.32411e-07Z" fill="#E3DFCF"/>
<path d="M2065 4.32411e-07H2070V5H2065V4.32411e-07Z" fill="#E3DFCF"/>
<path d="M2070 4.32411e-07H2075V5H2070V4.32411e-07Z" fill="#E3DFCF"/>
<path d="M2075 4.32411e-07H2080V5H2075V4.32411e-07Z" fill="#E3DFCF"/>
<path d="M2080 4.32411e-07H2085V5H2080V4.32411e-07Z" fill="#E3DFCF"/>
<path d="M2085 4.32411e-07H2090V5H2085V4.32411e-07Z" fill="#E3DFCF"/>
<path d="M2090 4.32411e-07H2095V5H2090V4.32411e-07Z" fill="#E3DFCF"/>
<path d="M2095 4.32411e-07H2100V5H2095V4.32411e-07Z" fill="#E3DFCF"/>
<path d="M2100 4.32411e-07H2105V5H2100V4.32411e-07Z" fill="#E3DFCF"/>
<path d="M2105 4.32411e-07H2110V5H2105V4.32411e-07Z" fill="#E3DFCF"/>
<path d="M2110 4.32411e-07H2115V5H2110V4.32411e-07Z" fill="#E3DFCF"/>
<path d="M2115 4.32411e-07H2120V5H2115V4.32411e-07Z" fill="#E3DFCF"/>
<path d="M2120 4.32411e-07H2125V5H2120V4.32411e-07Z" fill="#E3DFCF"/>
<path d="M2125 4.32411e-07H2130V5H2125V4.32411e-07Z" fill="#E3DFCF"/>
<path d="M2130 4.32411e-07H2135V5H2130V4.32411e-07Z" fill="#E3DFCF"/>
<path d="M2135 4.32411e-07H2140V5H2135V4.32411e-07Z" fill="#E3DFCF"/>
<path d="M2140 4.32411e-07H2145V5H2140V4.32411e-07Z" fill="#E3DFCF"/>
<path d="M2145 4.32411e-07H2150V5H2145V4.32411e-07Z" fill="#E3DFCF"/>
<path d="M2150 4.32411e-07H2155V5H2150V4.32411e-07Z" fill="#E3DFCF"/>
<path d="M2155 4.32411e-07H2160V5H2155V4.32411e-07Z" fill="#E3DFCF"/>
<path d="M2160 4.32411e-07H2165V5H2160V4.32411e-07Z" fill="#E3DFCF"/>
<path d="M2165 4.32411e-07H2170V5H2165V4.32411e-07Z" fill="#E3DFCF"/>
<path d="M2170 4.32411e-07H2175V5H2170V4.32411e-07Z" fill="#E3DFCF"/>
<path d="M2175 4.32411e-07H2180V5H2175V4.32411e-07Z" fill="#E3DFCF"/>
<path d="M2180 4.32411e-07H2185V5H2180V4.32411e-07Z" fill="#E3DFCF"/>
<path d="M2185 4.32411e-07H2190V5H2185V4.32411e-07Z" fill="#E3DFCF"/>
<path d="M2190 4.32411e-07H2195V5H2190V4.32411e-07Z" fill="#E3DFCF"/>
<path d="M2195 4.32411e-07H2200V5H2195V4.32411e-07Z" fill="#E3DFCF"/>
<path d="M2200 4.32411e-07H2205V5H2200V4.32411e-07Z" fill="#E3DFCF"/>
<path d="M2205 4.32411e-07H2210V5H2205V4.32411e-07Z" fill="#E3DFCF"/>
<path d="M2210 4.32411e-07H2215V5H2210V4.32411e-07Z" fill="#E3DFCF"/>
<path d="M2215 4.32411e-07H2220V5H2215V4.32411e-07Z" fill="#E3DFCF"/>
<path d="M2220 4.32411e-07H2225V5H2220V4.32411e-07Z" fill="#E3DFCF"/>
<path d="M2225 4.32411e-07H2230V5H2225V4.32411e-07Z" fill="#E3DFCF"/>
<path d="M2230 4.32411e-07H2235V5H2230V4.32411e-07Z" fill="#E3DFCF"/>
<path d="M2235 4.32411e-07H2240V5H2235V4.32411e-07Z" fill="#E3DFCF"/>
<path d="M2240 4.32411e-07H2245V5H2240V4.32411e-07Z" fill="#E3DFCF"/>
<path d="M2245 4.32411e-07H2250V5H2245V4.32411e-07Z" fill="#E3DFCF"/>
<path d="M2250 4.32411e-07H2255V5H2250V4.32411e-07Z" fill="#E3DFCF"/>
<path d="M2255 4.32411e-07H2260V5H2255V4.32411e-07Z" fill="#E3DFCF"/>
<path d="M2260 4.32411e-07H2265V5H2260V4.32411e-07Z" fill="#E3DFCF"/>
<path d="M2265 4.32411e-07H2270V5H2265V4.32411e-07Z" fill="#E3DFCF"/>
<path d="M2270 4.32411e-07H2275V5H2270V4.32411e-07Z" fill="#E3DFCF"/>
<path d="M2275 4.32411e-07H2280V5H2275V4.32411e-07Z" fill="#E3DFCF"/>
<path d="M2280 4.32411e-07H2285V5H2280V4.32411e-07Z" fill="#E3DFCF"/>
<path d="M2285 4.32411e-07H2290V5H2285V4.32411e-07Z" fill="#E3DFCF"/>
<path d="M2290 4.32411e-07H2295V5H2290V4.32411e-07Z" fill="#E3DFCF"/>
<path d="M2295 4.32411e-07H2300V5H2295V4.32411e-07Z" fill="#E3DFCF"/>
<path d="M2300 4.32411e-07H2305V5H2300V4.32411e-07Z" fill="#E3DFCF"/>
<path d="M2305 4.32411e-07H2310V5H2305V4.32411e-07Z" fill="#E3DFCF"/>
<path d="M2310 4.32411e-07H2315V5H2310V4.32411e-07Z" fill="#E3DFCF"/>
<path d="M2315 4.32411e-07H2320V5H2315V4.32411e-07Z" fill="#E3DFCF"/>
<path d="M2320 4.32411e-07H2325V5H2320V4.32411e-07Z" fill="#E3DFCF"/>
<path d="M2325 4.32411e-07H2330V5H2325V4.32411e-07Z" fill="#E3DFCF"/>
<path d="M2330 4.32411e-07H2335V5H2330V4.32411e-07Z" fill="#E3DFCF"/>
<path d="M2335 4.32411e-07H2340V5H2335V4.32411e-07Z" fill="#E3DFCF"/>
<path d="M2340 4.32411e-07H2345V5H2340V4.32411e-07Z" fill="#E3DFCF"/>
<path d="M2345 4.32411e-07H2350V5H2345V4.32411e-07Z" fill="#E3DFCF"/>
<path d="M2350 4.32411e-07H2355V5H2350V4.32411e-07Z" fill="#E3DFCF"/>
<path d="M2355 4.32411e-07H2360V5H2355V4.32411e-07Z" fill="#E3DFCF"/>
<path d="M2360 4.32411e-07H2365V5H2360V4.32411e-07Z" fill="#E3DFCF"/>
<path d="M2365 4.32411e-07H2370V5H2365V4.32411e-07Z" fill="#E3DFCF"/>
<path d="M2370 4.32411e-07H2375V5H2370V4.32411e-07Z" fill="#E3DFCF"/>
<path d="M2375 4.32411e-07H2380V5H2375V4.32411e-07Z" fill="#E3DFCF"/>
<path d="M2380 4.32411e-07H2385V5H2380V4.32411e-07Z" fill="#E3DFCF"/>
<path d="M2385 4.32411e-07H2390V5H2385V4.32411e-07Z" fill="#E3DFCF"/>
<path d="M2390 4.32411e-07H2395V5H2390V4.32411e-07Z" fill="#E3DFCF"/>
<path d="M2395 4.32411e-07H2400V5H2395V4.32411e-07Z" fill="#E3DFCF"/>
<path d="M2400 4.32411e-07H2405V5H2400V4.32411e-07Z" fill="#E3DFCF"/>
<path d="M2405 4.32411e-07H2410V5H2405V4.32411e-07Z" fill="#E3DFCF"/>
<path d="M2410 4.32411e-07H2415V5H2410V4.32411e-07Z" fill="#E3DFCF"/>
<path d="M2415 4.32411e-07H2420V5H2415V4.32411e-07Z" fill="#E3DFCF"/>
<path d="M2420 4.32411e-07H2425V5H2420V4.32411e-07Z" fill="#E3DFCF"/>
</svg>
