<svg width="3650" height="10" viewBox="0 0 3650 10" fill="none" xmlns="http://www.w3.org/2000/svg">
<path d="M1460 5.30152e-06H1465V2.5H1460V5.30152e-06Z" fill="#FF3D00"/>
<path d="M1470 -1.32764e-05H1475V3.33331H1470V-1.32764e-05Z" fill="#FF3D00"/>
<path d="M1475 -1.32764e-05H1480V3.33331H1475V-1.32764e-05Z" fill="#FF3D00"/>
<path d="M1480 -1.32764e-05H1485V3.33331H1480V-1.32764e-05Z" fill="#FF3D00"/>
<path d="M1250 2.12061e-05H1255V10H1250V2.12061e-05Z" fill="#4ADADA"/>
<path d="M1405 1.0603e-05H1410V5H1405V1.0603e-05Z" fill="#4ADADA"/>
<path d="M1450 1.0603e-05H1455V5H1450V1.0603e-05Z" fill="#4ADADA"/>
<path d="M1455 1.0603e-05H1460V5H1455V1.0603e-05Z" fill="#4ADADA"/>
<path d="M1460 2.50001H1465V5H1460V2.50001Z" fill="#4ADADA"/>
<path d="M1465 1.0603e-05H1470V5H1465V1.0603e-05Z" fill="#4ADADA"/>
<path d="M1470 3.33336H1475V6.66669H1470V3.33336Z" fill="#4ADADA"/>
<path d="M1475 3.33336H1480V6.66669H1475V3.33336Z" fill="#4ADADA"/>
<path d="M1480 3.33336H1485V6.66669H1480V3.33336Z" fill="#4ADADA"/>
<path d="M1485 1.0603e-05H1490V5H1485V1.0603e-05Z" fill="#4ADADA"/>
<path d="M1505 2.12061e-05H1510V10H1505V2.12061e-05Z" fill="#4ADADA"/>
<path d="M1660 2.12061e-05H1665V10H1660V2.12061e-05Z" fill="#4ADADA"/>
<path d="M1860 1.0603e-05H1865V5H1860V1.0603e-05Z" fill="#4ADADA"/>
<path d="M1865 1.0603e-05H1870V5H1865V1.0603e-05Z" fill="#4ADADA"/>
<path d="M1870 2.12061e-05H1875V10H1870V2.12061e-05Z" fill="#4ADADA"/>
<path d="M1875 2.12061e-05H1880V10H1875V2.12061e-05Z" fill="#4ADADA"/>
<path d="M1880 2.12061e-05H1885V10H1880V2.12061e-05Z" fill="#4ADADA"/>
<path d="M1895 2.12061e-05H1900V10H1895V2.12061e-05Z" fill="#4ADADA"/>
<path d="M1050 2.12061e-05H1055V10H1050V2.12061e-05Z" fill="#FFB2AC"/>
<path d="M1070 2.12061e-05H1075V10H1070V2.12061e-05Z" fill="#FFB2AC"/>
<path d="M1310 2.12061e-05H1315V10H1310V2.12061e-05Z" fill="#FFB2AC"/>
<path d="M1340 2.12061e-05H1345V10H1340V2.12061e-05Z" fill="#FFB2AC"/>
<path d="M1385 2.12061e-05H1390V10H1385V2.12061e-05Z" fill="#FFB2AC"/>
<path d="M1390 2.12061e-05H1395V10H1390V2.12061e-05Z" fill="#FFB2AC"/>
<path d="M1395 2.12061e-05H1400V10H1395V2.12061e-05Z" fill="#FFB2AC"/>
<path d="M1400 2.12061e-05H1405V10H1400V2.12061e-05Z" fill="#FFB2AC"/>
<path d="M1405 5.00001H1410V10H1405V5.00001Z" fill="#FFB2AC"/>
<path d="M1410 2.12061e-05H1415V10H1410V2.12061e-05Z" fill="#FFB2AC"/>
<path d="M1415 2.12061e-05H1420V10H1415V2.12061e-05Z" fill="#FFB2AC"/>
<path d="M1420 2.12061e-05H1425V10H1420V2.12061e-05Z" fill="#FFB2AC"/>
<path d="M1430 2.12061e-05H1435V10H1430V2.12061e-05Z" fill="#FFB2AC"/>
<path d="M1440 2.12061e-05H1445V10H1440V2.12061e-05Z" fill="#FFB2AC"/>
<path d="M1445 2.12061e-05H1450V10H1445V2.12061e-05Z" fill="#FFB2AC"/>
<path d="M1450 5.00001H1455V10H1450V5.00001Z" fill="#FFB2AC"/>
<path d="M1455 5.00001H1460V10H1455V5.00001Z" fill="#FFB2AC"/>
<path d="M1460 5.00001H1465V7.5H1460V5.00001Z" fill="#FFB2AC"/>
<path d="M1465 5.00001H1470V10H1465V5.00001Z" fill="#FFB2AC"/>
<path d="M1470 6.66667H1475V10H1470V6.66667Z" fill="#FFB2AC"/>
<path d="M1475 6.66667H1480V10H1475V6.66667Z" fill="#FFB2AC"/>
<path d="M1480 6.66667H1485V10H1480V6.66667Z" fill="#FFB2AC"/>
<path d="M1485 5.00001H1490V10H1485V5.00001Z" fill="#FFB2AC"/>
<path d="M1490 2.12061e-05H1495V10H1490V2.12061e-05Z" fill="#FFB2AC"/>
<path d="M1500 2.12061e-05H1505V10H1500V2.12061e-05Z" fill="#FFB2AC"/>
<path d="M1515 2.12061e-05H1520V10H1515V2.12061e-05Z" fill="#FFB2AC"/>
<path d="M1520 2.12061e-05H1525V10H1520V2.12061e-05Z" fill="#FFB2AC"/>
<path d="M1540 2.12061e-05H1545V10H1540V2.12061e-05Z" fill="#FFB2AC"/>
<path d="M1555 2.12061e-05H1560V10H1555V2.12061e-05Z" fill="#FFB2AC"/>
<path d="M1560 2.12061e-05H1565V10H1560V2.12061e-05Z" fill="#FFB2AC"/>
<path d="M1580 2.12061e-05H1585V10H1580V2.12061e-05Z" fill="#FFB2AC"/>
<path d="M1850 2.12061e-05H1855V10H1850V2.12061e-05Z" fill="#FFB2AC"/>
<path d="M1855 2.12061e-05H1860V10H1855V2.12061e-05Z" fill="#FFB2AC"/>
<path d="M1860 5.00001H1865V10H1860V5.00001Z" fill="#FFB2AC"/>
<path d="M1865 5.00001H1870V10H1865V5.00001Z" fill="#FFB2AC"/>
<path d="M1905 2.12061e-05H1910V10H1905V2.12061e-05Z" fill="#FFB2AC"/>
<path d="M2425 2.12061e-05H2430V10H2425V2.12061e-05Z" fill="#FFB2AC"/>
<path d="M1460 7.50001H1465V10H1460V7.50001Z" fill="#AA92E3"/>
<path d="M1055 2.12061e-05H1060V10H1055V2.12061e-05Z" fill="#E3DFCF"/>
<path d="M1060 2.12061e-05H1065V10H1060V2.12061e-05Z" fill="#E3DFCF"/>
<path d="M1065 2.12061e-05H1070V10H1065V2.12061e-05Z" fill="#E3DFCF"/>
<path d="M1075 2.12061e-05H1080V10H1075V2.12061e-05Z" fill="#E3DFCF"/>
<path d="M1080 2.12061e-05H1085V10H1080V2.12061e-05Z" fill="#E3DFCF"/>
<path d="M1085 2.12061e-05H1090V10H1085V2.12061e-05Z" fill="#E3DFCF"/>
<path d="M1090 2.12061e-05H1095V10H1090V2.12061e-05Z" fill="#E3DFCF"/>
<path d="M1095 2.12061e-05H1100V10H1095V2.12061e-05Z" fill="#E3DFCF"/>
<path d="M1100 2.12061e-05H1105V10H1100V2.12061e-05Z" fill="#E3DFCF"/>
<path d="M1105 2.12061e-05H1110V10H1105V2.12061e-05Z" fill="#E3DFCF"/>
<path d="M1110 2.12061e-05H1115V10H1110V2.12061e-05Z" fill="#E3DFCF"/>
<path d="M1115 2.12061e-05H1120V10H1115V2.12061e-05Z" fill="#E3DFCF"/>
<path d="M1120 2.12061e-05H1125V10H1120V2.12061e-05Z" fill="#E3DFCF"/>
<path d="M1125 2.12061e-05H1130V10H1125V2.12061e-05Z" fill="#E3DFCF"/>
<path d="M1130 2.12061e-05H1135V10H1130V2.12061e-05Z" fill="#E3DFCF"/>
<path d="M1135 2.12061e-05H1140V10H1135V2.12061e-05Z" fill="#E3DFCF"/>
<path d="M1140 2.12061e-05H1145V10H1140V2.12061e-05Z" fill="#E3DFCF"/>
<path d="M1145 2.12061e-05H1150V10H1145V2.12061e-05Z" fill="#E3DFCF"/>
<path d="M1150 2.12061e-05H1155V10H1150V2.12061e-05Z" fill="#E3DFCF"/>
<path d="M1155 2.12061e-05H1160V10H1155V2.12061e-05Z" fill="#E3DFCF"/>
<path d="M1160 2.12061e-05H1165V10H1160V2.12061e-05Z" fill="#E3DFCF"/>
<path d="M1165 2.12061e-05H1170V10H1165V2.12061e-05Z" fill="#E3DFCF"/>
<path d="M1170 2.12061e-05H1175V10H1170V2.12061e-05Z" fill="#E3DFCF"/>
<path d="M1175 2.12061e-05H1180V10H1175V2.12061e-05Z" fill="#E3DFCF"/>
<path d="M1180 2.12061e-05H1185V10H1180V2.12061e-05Z" fill="#E3DFCF"/>
<path d="M1185 2.12061e-05H1190V10H1185V2.12061e-05Z" fill="#E3DFCF"/>
<path d="M1190 2.12061e-05H1195V10H1190V2.12061e-05Z" fill="#E3DFCF"/>
<path d="M1195 2.12061e-05H1200V10H1195V2.12061e-05Z" fill="#E3DFCF"/>
<path d="M1200 2.12061e-05H1205V10H1200V2.12061e-05Z" fill="#E3DFCF"/>
<path d="M1205 2.12061e-05H1210V10H1205V2.12061e-05Z" fill="#E3DFCF"/>
<path d="M1210 2.12061e-05H1215V10H1210V2.12061e-05Z" fill="#E3DFCF"/>
<path d="M1215 2.12061e-05H1220V10H1215V2.12061e-05Z" fill="#E3DFCF"/>
<path d="M1220 2.12061e-05H1225V10H1220V2.12061e-05Z" fill="#E3DFCF"/>
<path d="M1225 2.12061e-05H1230V10H1225V2.12061e-05Z" fill="#E3DFCF"/>
<path d="M1230 2.12061e-05H1235V10H1230V2.12061e-05Z" fill="#E3DFCF"/>
<path d="M1235 2.12061e-05H1240V10H1235V2.12061e-05Z" fill="#E3DFCF"/>
<path d="M1240 2.12061e-05H1245V10H1240V2.12061e-05Z" fill="#E3DFCF"/>
<path d="M1245 2.12061e-05H1250V10H1245V2.12061e-05Z" fill="#E3DFCF"/>
<path d="M1255 2.12061e-05H1260V10H1255V2.12061e-05Z" fill="#E3DFCF"/>
<path d="M1260 2.12061e-05H1265V10H1260V2.12061e-05Z" fill="#E3DFCF"/>
<path d="M1265 2.12061e-05H1270V10H1265V2.12061e-05Z" fill="#E3DFCF"/>
<path d="M1270 2.12061e-05H1275V10H1270V2.12061e-05Z" fill="#E3DFCF"/>
<path d="M1275 2.12061e-05H1280V10H1275V2.12061e-05Z" fill="#E3DFCF"/>
<path d="M1280 2.12061e-05H1285V10H1280V2.12061e-05Z" fill="#E3DFCF"/>
<path d="M1285 2.12061e-05H1290V10H1285V2.12061e-05Z" fill="#E3DFCF"/>
<path d="M1290 2.12061e-05H1295V10H1290V2.12061e-05Z" fill="#E3DFCF"/>
<path d="M1295 2.12061e-05H1300V10H1295V2.12061e-05Z" fill="#E3DFCF"/>
<path d="M1300 2.12061e-05H1305V10H1300V2.12061e-05Z" fill="#E3DFCF"/>
<path d="M1305 2.12061e-05H1310V10H1305V2.12061e-05Z" fill="#E3DFCF"/>
<path d="M1315 2.12061e-05H1320V10H1315V2.12061e-05Z" fill="#E3DFCF"/>
<path d="M1320 2.12061e-05H1325V10H1320V2.12061e-05Z" fill="#E3DFCF"/>
<path d="M1325 2.12061e-05H1330V10H1325V2.12061e-05Z" fill="#E3DFCF"/>
<path d="M1330 2.12061e-05H1335V10H1330V2.12061e-05Z" fill="#E3DFCF"/>
<path d="M1335 2.12061e-05H1340V10H1335V2.12061e-05Z" fill="#E3DFCF"/>
<path d="M1345 2.12061e-05H1350V10H1345V2.12061e-05Z" fill="#E3DFCF"/>
<path d="M1350 2.12061e-05H1355V10H1350V2.12061e-05Z" fill="#E3DFCF"/>
<path d="M1355 2.12061e-05H1360V10H1355V2.12061e-05Z" fill="#E3DFCF"/>
<path d="M1360 2.12061e-05H1365V10H1360V2.12061e-05Z" fill="#E3DFCF"/>
<path d="M1365 2.12061e-05H1370V10H1365V2.12061e-05Z" fill="#E3DFCF"/>
<path d="M1370 2.12061e-05H1375V10H1370V2.12061e-05Z" fill="#E3DFCF"/>
<path d="M1375 2.12061e-05H1380V10H1375V2.12061e-05Z" fill="#E3DFCF"/>
<path d="M1380 2.12061e-05H1385V10H1380V2.12061e-05Z" fill="#E3DFCF"/>
<path d="M1425 2.12061e-05H1430V10H1425V2.12061e-05Z" fill="#E3DFCF"/>
<path d="M1435 2.12061e-05H1440V10H1435V2.12061e-05Z" fill="#E3DFCF"/>
<path d="M1495 2.12061e-05H1500V10H1495V2.12061e-05Z" fill="#E3DFCF"/>
<path d="M1510 2.12061e-05H1515V10H1510V2.12061e-05Z" fill="#E3DFCF"/>
<path d="M1525 2.12061e-05H1530V10H1525V2.12061e-05Z" fill="#E3DFCF"/>
<path d="M1530 2.12061e-05H1535V10H1530V2.12061e-05Z" fill="#E3DFCF"/>
<path d="M1535 2.12061e-05H1540V10H1535V2.12061e-05Z" fill="#E3DFCF"/>
<path d="M1545 2.12061e-05H1550V10H1545V2.12061e-05Z" fill="#E3DFCF"/>
<path d="M1550 2.12061e-05H1555V10H1550V2.12061e-05Z" fill="#E3DFCF"/>
<path d="M1565 2.12061e-05H1570V10H1565V2.12061e-05Z" fill="#E3DFCF"/>
<path d="M1570 2.12061e-05H1575V10H1570V2.12061e-05Z" fill="#E3DFCF"/>
<path d="M1575 2.12061e-05H1580V10H1575V2.12061e-05Z" fill="#E3DFCF"/>
<path d="M1585 2.12061e-05H1590V10H1585V2.12061e-05Z" fill="#E3DFCF"/>
<path d="M1590 2.12061e-05H1595V10H1590V2.12061e-05Z" fill="#E3DFCF"/>
<path d="M1595 2.12061e-05H1600V10H1595V2.12061e-05Z" fill="#E3DFCF"/>
<path d="M1600 2.12061e-05H1605V10H1600V2.12061e-05Z" fill="#E3DFCF"/>
<path d="M1605 2.12061e-05H1610V10H1605V2.12061e-05Z" fill="#E3DFCF"/>
<path d="M1610 2.12061e-05H1615V10H1610V2.12061e-05Z" fill="#E3DFCF"/>
<path d="M1615 2.12061e-05H1620V10H1615V2.12061e-05Z" fill="#E3DFCF"/>
<path d="M1620 2.12061e-05H1625V10H1620V2.12061e-05Z" fill="#E3DFCF"/>
<path d="M1625 2.12061e-05H1630V10H1625V2.12061e-05Z" fill="#E3DFCF"/>
<path d="M1630 2.12061e-05H1635V10H1630V2.12061e-05Z" fill="#E3DFCF"/>
<path d="M1635 2.12061e-05H1640V10H1635V2.12061e-05Z" fill="#E3DFCF"/>
<path d="M1640 2.12061e-05H1645V10H1640V2.12061e-05Z" fill="#E3DFCF"/>
<path d="M1645 2.12061e-05H1650V10H1645V2.12061e-05Z" fill="#E3DFCF"/>
<path d="M1650 2.12061e-05H1655V10H1650V2.12061e-05Z" fill="#E3DFCF"/>
<path d="M1655 2.12061e-05H1660V10H1655V2.12061e-05Z" fill="#E3DFCF"/>
<path d="M1665 2.12061e-05H1670V10H1665V2.12061e-05Z" fill="#E3DFCF"/>
<path d="M1670 2.12061e-05H1675V10H1670V2.12061e-05Z" fill="#E3DFCF"/>
<path d="M1675 2.12061e-05H1680V10H1675V2.12061e-05Z" fill="#E3DFCF"/>
<path d="M1680 2.12061e-05H1685V10H1680V2.12061e-05Z" fill="#E3DFCF"/>
<path d="M1685 2.12061e-05H1690V10H1685V2.12061e-05Z" fill="#E3DFCF"/>
<path d="M1690 2.12061e-05H1695V10H1690V2.12061e-05Z" fill="#E3DFCF"/>
<path d="M1695 2.12061e-05H1700V10H1695V2.12061e-05Z" fill="#E3DFCF"/>
<path d="M1700 2.12061e-05H1705V10H1700V2.12061e-05Z" fill="#E3DFCF"/>
<path d="M1705 2.12061e-05H1710V10H1705V2.12061e-05Z" fill="#E3DFCF"/>
<path d="M1710 2.12061e-05H1715V10H1710V2.12061e-05Z" fill="#E3DFCF"/>
<path d="M1715 2.12061e-05H1720V10H1715V2.12061e-05Z" fill="#E3DFCF"/>
<path d="M1720 2.12061e-05H1725V10H1720V2.12061e-05Z" fill="#E3DFCF"/>
<path d="M1725 2.12061e-05H1730V10H1725V2.12061e-05Z" fill="#E3DFCF"/>
<path d="M1730 2.12061e-05H1735V10H1730V2.12061e-05Z" fill="#E3DFCF"/>
<path d="M1735 2.12061e-05H1740V10H1735V2.12061e-05Z" fill="#E3DFCF"/>
<path d="M1740 2.12061e-05H1745V10H1740V2.12061e-05Z" fill="#E3DFCF"/>
<path d="M1745 2.12061e-05H1750V10H1745V2.12061e-05Z" fill="#E3DFCF"/>
<path d="M1750 2.12061e-05H1755V10H1750V2.12061e-05Z" fill="#E3DFCF"/>
<path d="M1755 2.12061e-05H1760V10H1755V2.12061e-05Z" fill="#E3DFCF"/>
<path d="M1760 2.12061e-05H1765V10H1760V2.12061e-05Z" fill="#E3DFCF"/>
<path d="M1765 2.12061e-05H1770V10H1765V2.12061e-05Z" fill="#E3DFCF"/>
<path d="M1770 2.12061e-05H1775V10H1770V2.12061e-05Z" fill="#E3DFCF"/>
<path d="M1775 2.12061e-05H1780V10H1775V2.12061e-05Z" fill="#E3DFCF"/>
<path d="M1780 2.12061e-05H1785V10H1780V2.12061e-05Z" fill="#E3DFCF"/>
<path d="M1785 2.12061e-05H1790V10H1785V2.12061e-05Z" fill="#E3DFCF"/>
<path d="M1790 2.12061e-05H1795V10H1790V2.12061e-05Z" fill="#E3DFCF"/>
<path d="M1795 2.12061e-05H1800V10H1795V2.12061e-05Z" fill="#E3DFCF"/>
<path d="M1800 2.12061e-05H1805V10H1800V2.12061e-05Z" fill="#E3DFCF"/>
<path d="M1805 2.12061e-05H1810V10H1805V2.12061e-05Z" fill="#E3DFCF"/>
<path d="M1810 2.12061e-05H1815V10H1810V2.12061e-05Z" fill="#E3DFCF"/>
<path d="M1815 2.12061e-05H1820V10H1815V2.12061e-05Z" fill="#E3DFCF"/>
<path d="M1820 2.12061e-05H1825V10H1820V2.12061e-05Z" fill="#E3DFCF"/>
<path d="M1825 2.12061e-05H1830V10H1825V2.12061e-05Z" fill="#E3DFCF"/>
<path d="M1830 2.12061e-05H1835V10H1830V2.12061e-05Z" fill="#E3DFCF"/>
<path d="M1835 2.12061e-05H1840V10H1835V2.12061e-05Z" fill="#E3DFCF"/>
<path d="M1840 2.12061e-05H1845V10H1840V2.12061e-05Z" fill="#E3DFCF"/>
<path d="M1845 2.12061e-05H1850V10H1845V2.12061e-05Z" fill="#E3DFCF"/>
<path d="M1885 2.12061e-05H1890V10H1885V2.12061e-05Z" fill="#E3DFCF"/>
<path d="M1890 2.12061e-05H1895V10H1890V2.12061e-05Z" fill="#E3DFCF"/>
<path d="M1900 2.12061e-05H1905V10H1900V2.12061e-05Z" fill="#E3DFCF"/>
<path d="M1910 2.12061e-05H1915V10H1910V2.12061e-05Z" fill="#E3DFCF"/>
<path d="M1915 2.12061e-05H1920V10H1915V2.12061e-05Z" fill="#E3DFCF"/>
<path d="M1920 2.12061e-05H1925V10H1920V2.12061e-05Z" fill="#E3DFCF"/>
<path d="M1925 2.12061e-05H1930V10H1925V2.12061e-05Z" fill="#E3DFCF"/>
<path d="M1930 2.12061e-05H1935V10H1930V2.12061e-05Z" fill="#E3DFCF"/>
<path d="M1935 2.12061e-05H1940V10H1935V2.12061e-05Z" fill="#E3DFCF"/>
<path d="M1940 2.12061e-05H1945V10H1940V2.12061e-05Z" fill="#E3DFCF"/>
<path d="M1945 2.12061e-05H1950V10H1945V2.12061e-05Z" fill="#E3DFCF"/>
<path d="M1950 2.12061e-05H1955V10H1950V2.12061e-05Z" fill="#E3DFCF"/>
<path d="M1955 2.12061e-05H1960V10H1955V2.12061e-05Z" fill="#E3DFCF"/>
<path d="M1960 2.12061e-05H1965V10H1960V2.12061e-05Z" fill="#E3DFCF"/>
<path d="M1965 2.12061e-05H1970V10H1965V2.12061e-05Z" fill="#E3DFCF"/>
<path d="M1970 2.12061e-05H1975V10H1970V2.12061e-05Z" fill="#E3DFCF"/>
<path d="M1975 2.12061e-05H1980V10H1975V2.12061e-05Z" fill="#E3DFCF"/>
<path d="M1980 2.12061e-05H1985V10H1980V2.12061e-05Z" fill="#E3DFCF"/>
<path d="M1985 2.12061e-05H1990V10H1985V2.12061e-05Z" fill="#E3DFCF"/>
<path d="M1990 2.12061e-05H1995V10H1990V2.12061e-05Z" fill="#E3DFCF"/>
<path d="M1995 2.12061e-05H2000V10H1995V2.12061e-05Z" fill="#E3DFCF"/>
<path d="M2000 2.12061e-05H2005V10H2000V2.12061e-05Z" fill="#E3DFCF"/>
<path d="M2005 2.12061e-05H2010V10H2005V2.12061e-05Z" fill="#E3DFCF"/>
<path d="M2010 2.12061e-05H2015V10H2010V2.12061e-05Z" fill="#E3DFCF"/>
<path d="M2015 2.12061e-05H2020V10H2015V2.12061e-05Z" fill="#E3DFCF"/>
<path d="M2020 2.12061e-05H2025V10H2020V2.12061e-05Z" fill="#E3DFCF"/>
<path d="M2025 2.12061e-05H2030V10H2025V2.12061e-05Z" fill="#E3DFCF"/>
<path d="M2030 2.12061e-05H2035V10H2030V2.12061e-05Z" fill="#E3DFCF"/>
<path d="M2035 2.12061e-05H2040V10H2035V2.12061e-05Z" fill="#E3DFCF"/>
<path d="M2040 2.12061e-05H2045V10H2040V2.12061e-05Z" fill="#E3DFCF"/>
<path d="M2045 2.12061e-05H2050V10H2045V2.12061e-05Z" fill="#E3DFCF"/>
<path d="M2050 2.12061e-05H2055V10H2050V2.12061e-05Z" fill="#E3DFCF"/>
<path d="M2055 2.12061e-05H2060V10H2055V2.12061e-05Z" fill="#E3DFCF"/>
<path d="M2060 2.12061e-05H2065V10H2060V2.12061e-05Z" fill="#E3DFCF"/>
<path d="M2065 2.12061e-05H2070V10H2065V2.12061e-05Z" fill="#E3DFCF"/>
<path d="M2070 2.12061e-05H2075V10H2070V2.12061e-05Z" fill="#E3DFCF"/>
<path d="M2075 2.12061e-05H2080V10H2075V2.12061e-05Z" fill="#E3DFCF"/>
<path d="M2080 2.12061e-05H2085V10H2080V2.12061e-05Z" fill="#E3DFCF"/>
<path d="M2085 2.12061e-05H2090V10H2085V2.12061e-05Z" fill="#E3DFCF"/>
<path d="M2090 2.12061e-05H2095V10H2090V2.12061e-05Z" fill="#E3DFCF"/>
<path d="M2095 2.12061e-05H2100V10H2095V2.12061e-05Z" fill="#E3DFCF"/>
<path d="M2100 2.12061e-05H2105V10H2100V2.12061e-05Z" fill="#E3DFCF"/>
<path d="M2105 2.12061e-05H2110V10H2105V2.12061e-05Z" fill="#E3DFCF"/>
<path d="M2110 2.12061e-05H2115V10H2110V2.12061e-05Z" fill="#E3DFCF"/>
<path d="M2115 2.12061e-05H2120V10H2115V2.12061e-05Z" fill="#E3DFCF"/>
<path d="M2120 2.12061e-05H2125V10H2120V2.12061e-05Z" fill="#E3DFCF"/>
<path d="M2125 2.12061e-05H2130V10H2125V2.12061e-05Z" fill="#E3DFCF"/>
<path d="M2130 2.12061e-05H2135V10H2130V2.12061e-05Z" fill="#E3DFCF"/>
<path d="M2135 2.12061e-05H2140V10H2135V2.12061e-05Z" fill="#E3DFCF"/>
<path d="M2140 2.12061e-05H2145V10H2140V2.12061e-05Z" fill="#E3DFCF"/>
<path d="M2145 2.12061e-05H2150V10H2145V2.12061e-05Z" fill="#E3DFCF"/>
<path d="M2150 2.12061e-05H2155V10H2150V2.12061e-05Z" fill="#E3DFCF"/>
<path d="M2155 2.12061e-05H2160V10H2155V2.12061e-05Z" fill="#E3DFCF"/>
<path d="M2160 2.12061e-05H2165V10H2160V2.12061e-05Z" fill="#E3DFCF"/>
<path d="M2165 2.12061e-05H2170V10H2165V2.12061e-05Z" fill="#E3DFCF"/>
<path d="M2170 2.12061e-05H2175V10H2170V2.12061e-05Z" fill="#E3DFCF"/>
<path d="M2175 2.12061e-05H2180V10H2175V2.12061e-05Z" fill="#E3DFCF"/>
<path d="M2180 2.12061e-05H2185V10H2180V2.12061e-05Z" fill="#E3DFCF"/>
<path d="M2185 2.12061e-05H2190V10H2185V2.12061e-05Z" fill="#E3DFCF"/>
<path d="M2190 2.12061e-05H2195V10H2190V2.12061e-05Z" fill="#E3DFCF"/>
<path d="M2195 2.12061e-05H2200V10H2195V2.12061e-05Z" fill="#E3DFCF"/>
<path d="M2200 2.12061e-05H2205V10H2200V2.12061e-05Z" fill="#E3DFCF"/>
<path d="M2205 2.12061e-05H2210V10H2205V2.12061e-05Z" fill="#E3DFCF"/>
<path d="M2210 2.12061e-05H2215V10H2210V2.12061e-05Z" fill="#E3DFCF"/>
<path d="M2215 2.12061e-05H2220V10H2215V2.12061e-05Z" fill="#E3DFCF"/>
<path d="M2220 2.12061e-05H2225V10H2220V2.12061e-05Z" fill="#E3DFCF"/>
<path d="M2225 2.12061e-05H2230V10H2225V2.12061e-05Z" fill="#E3DFCF"/>
<path d="M2230 2.12061e-05H2235V10H2230V2.12061e-05Z" fill="#E3DFCF"/>
<path d="M2235 2.12061e-05H2240V10H2235V2.12061e-05Z" fill="#E3DFCF"/>
<path d="M2240 2.12061e-05H2245V10H2240V2.12061e-05Z" fill="#E3DFCF"/>
<path d="M2245 2.12061e-05H2250V10H2245V2.12061e-05Z" fill="#E3DFCF"/>
<path d="M2250 2.12061e-05H2255V10H2250V2.12061e-05Z" fill="#E3DFCF"/>
<path d="M2255 2.12061e-05H2260V10H2255V2.12061e-05Z" fill="#E3DFCF"/>
<path d="M2260 2.12061e-05H2265V10H2260V2.12061e-05Z" fill="#E3DFCF"/>
<path d="M2265 2.12061e-05H2270V10H2265V2.12061e-05Z" fill="#E3DFCF"/>
<path d="M2270 2.12061e-05H2275V10H2270V2.12061e-05Z" fill="#E3DFCF"/>
<path d="M2275 2.12061e-05H2280V10H2275V2.12061e-05Z" fill="#E3DFCF"/>
<path d="M2280 2.12061e-05H2285V10H2280V2.12061e-05Z" fill="#E3DFCF"/>
<path d="M2285 2.12061e-05H2290V10H2285V2.12061e-05Z" fill="#E3DFCF"/>
<path d="M2290 2.12061e-05H2295V10H2290V2.12061e-05Z" fill="#E3DFCF"/>
<path d="M2295 2.12061e-05H2300V10H2295V2.12061e-05Z" fill="#E3DFCF"/>
<path d="M2300 2.12061e-05H2305V10H2300V2.12061e-05Z" fill="#E3DFCF"/>
<path d="M2305 2.12061e-05H2310V10H2305V2.12061e-05Z" fill="#E3DFCF"/>
<path d="M2310 2.12061e-05H2315V10H2310V2.12061e-05Z" fill="#E3DFCF"/>
<path d="M2315 2.12061e-05H2320V10H2315V2.12061e-05Z" fill="#E3DFCF"/>
<path d="M2320 2.12061e-05H2325V10H2320V2.12061e-05Z" fill="#E3DFCF"/>
<path d="M2325 2.12061e-05H2330V10H2325V2.12061e-05Z" fill="#E3DFCF"/>
<path d="M2330 2.12061e-05H2335V10H2330V2.12061e-05Z" fill="#E3DFCF"/>
<path d="M2335 2.12061e-05H2340V10H2335V2.12061e-05Z" fill="#E3DFCF"/>
<path d="M2340 2.12061e-05H2345V10H2340V2.12061e-05Z" fill="#E3DFCF"/>
<path d="M2345 2.12061e-05H2350V10H2345V2.12061e-05Z" fill="#E3DFCF"/>
<path d="M2350 2.12061e-05H2355V10H2350V2.12061e-05Z" fill="#E3DFCF"/>
<path d="M2355 2.12061e-05H2360V10H2355V2.12061e-05Z" fill="#E3DFCF"/>
<path d="M2360 2.12061e-05H2365V10H2360V2.12061e-05Z" fill="#E3DFCF"/>
<path d="M2365 2.12061e-05H2370V10H2365V2.12061e-05Z" fill="#E3DFCF"/>
<path d="M2370 2.12061e-05H2375V10H2370V2.12061e-05Z" fill="#E3DFCF"/>
<path d="M2375 2.12061e-05H2380V10H2375V2.12061e-05Z" fill="#E3DFCF"/>
<path d="M2380 2.12061e-05H2385V10H2380V2.12061e-05Z" fill="#E3DFCF"/>
<path d="M2385 2.12061e-05H2390V10H2385V2.12061e-05Z" fill="#E3DFCF"/>
<path d="M2390 2.12061e-05H2395V10H2390V2.12061e-05Z" fill="#E3DFCF"/>
<path d="M2395 2.12061e-05H2400V10H2395V2.12061e-05Z" fill="#E3DFCF"/>
<path d="M2400 2.12061e-05H2405V10H2400V2.12061e-05Z" fill="#E3DFCF"/>
<path d="M2405 2.12061e-05H2410V10H2405V2.12061e-05Z" fill="#E3DFCF"/>
<path d="M2410 2.12061e-05H2415V10H2410V2.12061e-05Z" fill="#E3DFCF"/>
<path d="M2415 2.12061e-05H2420V10H2415V2.12061e-05Z" fill="#E3DFCF"/>
<path d="M2420 2.12061e-05H2425V10H2420V2.12061e-05Z" fill="#E3DFCF"/>
</svg>
