<svg width="450" height="254" viewBox="0 0 450 254" fill="none" xmlns="http://www.w3.org/2000/svg">
<g clip-path="url(#clip0_772_86422)">
<rect x="146.875" y="2.34375" width="156.25" height="156.25" rx="78.125" fill="#FFF8B5"/>
<rect x="146.75" y="77.2188" width="156.25" height="6.25" fill="#EBE8DE"/>
<rect x="228" y="2.21881" width="156.25" height="6.25" transform="rotate(90 228 2.21881)" fill="#EBE8DE"/>
</g>
<path d="M126.562 146.875L90.625 160.938L126.562 175" stroke="#5773DC" stroke-width="3.125" stroke-linejoin="round"/>
<path d="M126.562 145.312L246.875 93.75" stroke="#5773DC" stroke-width="3.125" stroke-linejoin="round" stroke-dasharray="6.25 6.25"/>
<path d="M126.562 176.563L246.875 228.125" stroke="#5773DC" stroke-width="3.125" stroke-linejoin="round" stroke-dasharray="6.25 6.25"/>
<path d="M128.125 160.156C128.125 162.819 127.707 165.159 127.085 166.777C126.772 167.591 126.438 168.142 126.146 168.463C125.941 168.689 125.818 168.739 125.781 168.749C125.745 168.739 125.622 168.689 125.417 168.463C125.125 168.142 124.791 167.591 124.477 166.777C123.855 165.159 123.438 162.819 123.438 160.156C123.438 157.493 123.855 155.153 124.477 153.536C124.791 152.722 125.125 152.17 125.417 151.849C125.622 151.624 125.745 151.574 125.781 151.564C125.818 151.574 125.941 151.624 126.146 151.849C126.438 152.17 126.772 152.722 127.085 153.536C127.707 155.153 128.125 157.493 128.125 160.156ZM125.77 168.751C125.77 168.751 125.772 168.75 125.776 168.75C125.772 168.751 125.77 168.751 125.77 168.751ZM125.787 168.75C125.791 168.75 125.793 168.751 125.793 168.751C125.793 168.751 125.791 168.751 125.787 168.75ZM125.793 151.562C125.793 151.562 125.791 151.562 125.787 151.562C125.791 151.562 125.793 151.561 125.793 151.562ZM125.776 151.562C125.772 151.562 125.77 151.562 125.77 151.562C125.77 151.561 125.772 151.562 125.776 151.562Z" stroke="#5773DC" stroke-width="3.125"/>
<path d="M124.219 112.5L140.136 143.096C141.362 145.452 141.307 148.269 139.99 150.575L137.125 155.594C135.563 158.331 135.797 161.738 137.72 164.234L157.533 189.96C160.762 194.153 158.976 200.276 153.999 202.074L149.218 203.802C145.252 205.235 143.139 209.557 144.444 213.567L147.656 223.438" stroke="#5773DC" stroke-width="3.125"/>
<path d="M274.272 104.867L273.438 105.307V106.25V217.188V218.131L274.272 218.57L333.647 249.82L335.938 251.026V248.438V75V72.4119L333.647 73.6173L274.272 104.867Z" fill="#FF006B" stroke="#EBE8DE" stroke-width="3.125"/>
<defs>
<clipPath id="clip0_772_86422">
<rect x="146.875" y="2.34375" width="156.25" height="156.25" rx="78.125" fill="white"/>
</clipPath>
</defs>
</svg>
