<svg width="60" height="60" viewBox="0 0 60 60" fill="none" xmlns="http://www.w3.org/2000/svg">
<path d="M22.8202 25.4687V23.4571C22.8202 20.9374 22.0759 20.2841 20.0428 20.2841H18.3541V28.7868H20.1205C22.1092 28.7868 22.8202 28.0402 22.8202 25.4687Z" fill="black"/>
<path d="M3 5V55H56.5492V5H3ZM11.4545 15.9394H20.2757C25.7417 15.9394 28.8747 18.4591 28.8747 24.3696C28.8747 30.28 25.7417 32.7582 20.309 32.7582H18.3982V39.6951H11.4545L12.5655 35.5475V20.1078L11.4545 15.9394ZM28.3526 48.4363H11.4545V44.0606H28.3526V48.4363ZM48.1057 44.0606H28.3526V39.6848H48.1057V44.0606ZM48.1057 35.2986H44.0396L42.8286 32.8619L41.3065 35.226C40.2981 35.5922 39.222 35.7684 38.1403 35.7445C34.6185 35.7445 31.4744 33.7329 31.4744 27.1692V15.7632L30.3634 11.6155H37.307V28.5068C37.307 30.6636 38.0181 31.5346 39.6512 31.5346C40.5671 31.5662 41.4778 31.392 42.3065 31.0265V15.7839L41.1955 11.6363H48.1391L48.1057 35.2986Z" fill="black"/>
</svg>
