<svg width="216" height="233" viewBox="0 0 216 233" fill="none" xmlns="http://www.w3.org/2000/svg">
<path d="M12.7975 152C12.6669 152 12.5642 151.958 12.4895 151.874C12.4242 151.79 12.3915 151.669 12.3915 151.51C12.3915 151.277 12.4755 151.104 12.6435 150.992C12.8115 150.871 13.0355 150.81 13.3155 150.81H13.9315V143.656L12.6855 144.034C12.5549 144.034 12.4475 143.997 12.3635 143.922C12.2889 143.838 12.2515 143.721 12.2515 143.572C12.2515 143.357 12.3122 143.189 12.4335 143.068C12.5549 142.937 12.7415 142.83 12.9935 142.746L14.0295 142.41H16.0175V150.824L16.7455 151.062C17.0069 151.146 17.1889 151.235 17.2915 151.328C17.3942 151.421 17.4455 151.538 17.4455 151.678C17.4455 151.893 17.3569 152 17.1795 152H12.7975ZM21.2798 152.14C20.7385 152.14 20.1831 152.089 19.6138 151.986C19.0445 151.874 18.5825 151.743 18.2278 151.594V150.25C18.6478 150.418 19.1191 150.558 19.6418 150.67C20.1738 150.782 20.6685 150.838 21.1258 150.838C22.4138 150.838 23.0578 150.292 23.0578 149.2C23.0578 148.771 22.8991 148.416 22.5818 148.136C22.2645 147.856 21.8491 147.716 21.3358 147.716C21.0091 147.716 20.5191 147.772 19.8658 147.884V146.582L20.9298 146.442C22.1338 146.293 22.7358 145.775 22.7358 144.888C22.7358 144.477 22.6005 144.16 22.3298 143.936C22.0591 143.703 21.6951 143.586 21.2378 143.586C20.7431 143.586 20.2298 143.698 19.6978 143.922L19.4318 144.706C19.3011 145.107 19.1845 145.373 19.0818 145.504C18.9791 145.635 18.8391 145.7 18.6618 145.7C18.5498 145.7 18.4658 145.672 18.4098 145.616C18.3538 145.551 18.3258 145.467 18.3258 145.364V143.194C19.4831 142.578 20.6078 142.27 21.6998 142.27C22.5958 142.27 23.3378 142.466 23.9258 142.858C24.5231 143.25 24.8218 143.833 24.8218 144.608C24.8218 145.196 24.6398 145.695 24.2758 146.106C23.9211 146.517 23.4265 146.811 22.7918 146.988C23.4918 147.1 24.0565 147.366 24.4858 147.786C24.9245 148.197 25.1438 148.729 25.1438 149.382C25.1438 149.951 24.9758 150.446 24.6398 150.866C24.3038 151.277 23.8418 151.594 23.2538 151.818C22.6658 152.033 22.0078 152.14 21.2798 152.14ZM27.9673 152.21C27.65 152.21 27.3793 152.103 27.1553 151.888C26.9406 151.673 26.8333 151.403 26.8333 151.076C26.8333 150.749 26.9406 150.479 27.1553 150.264C27.3793 150.049 27.65 149.942 27.9673 149.942C28.2753 149.942 28.5366 150.049 28.7513 150.264C28.9753 150.479 29.0873 150.749 29.0873 151.076C29.0873 151.403 28.9753 151.673 28.7513 151.888C28.5366 152.103 28.2753 152.21 27.9673 152.21ZM31.0495 152C30.9188 152 30.8162 151.958 30.7415 151.874C30.6762 151.79 30.6435 151.669 30.6435 151.51C30.6435 151.277 30.7275 151.104 30.8955 150.992C31.0635 150.871 31.2875 150.81 31.5675 150.81H32.1835V143.656L30.9375 144.034C30.8068 144.034 30.6995 143.997 30.6155 143.922C30.5408 143.838 30.5035 143.721 30.5035 143.572C30.5035 143.357 30.5642 143.189 30.6855 143.068C30.8068 142.937 30.9935 142.83 31.2455 142.746L32.2815 142.41H34.2695V150.824L34.9975 151.062C35.2588 151.146 35.4408 151.235 35.5435 151.328C35.6462 151.421 35.6975 151.538 35.6975 151.678C35.6975 151.893 35.6088 152 35.4315 152H31.0495ZM39.2803 146.82C38.5803 146.82 38.025 146.61 37.6143 146.19C37.213 145.77 37.0123 145.205 37.0123 144.496C37.0123 143.796 37.213 143.241 37.6143 142.83C38.025 142.41 38.5803 142.2 39.2803 142.2C39.9803 142.2 40.531 142.41 40.9323 142.83C41.343 143.241 41.5483 143.796 41.5483 144.496C41.5483 145.205 41.343 145.77 40.9323 146.19C40.531 146.61 39.9803 146.82 39.2803 146.82ZM38.6643 151.258L45.0483 142.2L46.5743 143.222L40.1343 152.238L38.6643 151.258ZM39.2803 145.602C39.495 145.602 39.6676 145.518 39.7983 145.35C39.9383 145.173 40.0083 144.888 40.0083 144.496C40.0083 144.104 39.9383 143.824 39.7983 143.656C39.6676 143.479 39.495 143.39 39.2803 143.39C39.0656 143.39 38.8883 143.479 38.7483 143.656C38.6176 143.824 38.5523 144.104 38.5523 144.496C38.5523 144.888 38.6176 145.173 38.7483 145.35C38.8883 145.518 39.0656 145.602 39.2803 145.602ZM46.0423 152.21C45.3423 152.21 44.787 152 44.3763 151.58C43.975 151.16 43.7743 150.595 43.7743 149.886C43.7743 149.186 43.975 148.631 44.3763 148.22C44.787 147.8 45.3423 147.59 46.0423 147.59C46.7423 147.59 47.293 147.8 47.6943 148.22C48.105 148.631 48.3103 149.186 48.3103 149.886C48.3103 150.595 48.105 151.16 47.6943 151.58C47.293 152 46.7423 152.21 46.0423 152.21ZM46.0423 150.992C46.257 150.992 46.4296 150.908 46.5603 150.74C46.7003 150.563 46.7703 150.278 46.7703 149.886C46.7703 149.494 46.7003 149.214 46.5603 149.046C46.4296 148.869 46.257 148.78 46.0423 148.78C45.8276 148.78 45.6503 148.869 45.5103 149.046C45.3796 149.214 45.3143 149.494 45.3143 149.886C45.3143 150.278 45.3796 150.563 45.5103 150.74C45.6503 150.908 45.8276 150.992 46.0423 150.992Z" fill="black"/>
<path d="M22.3848 64.3L24.7748 61.86C25.1615 61.4733 25.4582 61.12 25.6648 60.8C25.8715 60.48 25.9748 60.1533 25.9748 59.82C25.9748 59.4133 25.8515 59.11 25.6048 58.91C25.3582 58.7033 25.0415 58.6 24.6548 58.6C24.3815 58.6 24.1148 58.6367 23.8548 58.71C23.5948 58.7833 23.3615 58.8833 23.1548 59.01L23.0148 59.65C22.9815 59.81 22.9415 59.92 22.8948 59.98C22.8482 60.04 22.7848 60.07 22.7048 60.07C22.6582 60.07 22.6215 60.0567 22.5948 60.03C22.5682 59.9967 22.5548 59.96 22.5548 59.92V58.74C22.8748 58.5267 23.2282 58.36 23.6148 58.24C24.0015 58.1133 24.3882 58.05 24.7748 58.05C25.3882 58.05 25.8782 58.2067 26.2448 58.52C26.6182 58.8267 26.8048 59.2767 26.8048 59.87C26.8048 60.27 26.6782 60.67 26.4248 61.07C26.1782 61.4633 25.8082 61.9133 25.3148 62.42L23.3348 64.42V64.46H26.9348V65H22.3848V64.3ZM30.0449 65.1C29.3249 65.1 28.6582 64.9733 28.0449 64.72V64.15C28.3382 64.27 28.6482 64.37 28.9749 64.45C29.3082 64.5233 29.6316 64.56 29.9449 64.56C30.4716 64.56 30.8982 64.43 31.2249 64.17C31.5516 63.91 31.7149 63.53 31.7149 63.03C31.7149 62.47 31.5582 62.0633 31.2449 61.81C30.9316 61.55 30.5182 61.42 30.0049 61.42C29.6249 61.42 29.1716 61.4833 28.6449 61.61L28.2649 61.27L28.5249 58.15H31.9949V58.69H29.2649L29.0749 61.04C29.4949 60.9267 29.9049 60.87 30.3049 60.87C30.9449 60.87 31.4749 61.05 31.8949 61.41C32.3149 61.77 32.5249 62.29 32.5249 62.97C32.5249 63.6567 32.2916 64.1833 31.8249 64.55C31.3649 64.9167 30.7716 65.1 30.0449 65.1ZM34.2644 65.12C34.1177 65.12 33.991 65.07 33.8844 64.97C33.7844 64.87 33.7344 64.7433 33.7344 64.59C33.7344 64.4433 33.7844 64.32 33.8844 64.22C33.991 64.12 34.1177 64.07 34.2644 64.07C34.4044 64.07 34.5244 64.12 34.6244 64.22C34.731 64.32 34.7844 64.4433 34.7844 64.59C34.7844 64.7433 34.731 64.87 34.6244 64.97C34.5244 65.07 34.4044 65.12 34.2644 65.12ZM38.5541 65.1C37.7408 65.1 37.1275 64.8067 36.7141 64.22C36.3008 63.6333 36.0941 62.8167 36.0941 61.77C36.0941 61.05 36.2108 60.41 36.4441 59.85C36.6841 59.29 37.0441 58.85 37.5241 58.53C38.0108 58.21 38.6108 58.05 39.3241 58.05C39.5641 58.05 39.8175 58.0833 40.0841 58.15V58.67C39.8308 58.61 39.5875 58.58 39.3541 58.58C38.5875 58.58 37.9841 58.8333 37.5441 59.34C37.1108 59.84 36.8941 60.56 36.8941 61.5C37.4941 61.0867 38.1041 60.88 38.7241 60.88C39.3708 60.88 39.8775 61.06 40.2441 61.42C40.6108 61.7733 40.7941 62.2533 40.7941 62.86C40.7941 63.3333 40.6941 63.74 40.4941 64.08C40.2941 64.4133 40.0241 64.6667 39.6841 64.84C39.3441 65.0133 38.9675 65.1 38.5541 65.1ZM38.5141 64.56C38.9475 64.56 39.3008 64.4067 39.5741 64.1C39.8475 63.7867 39.9841 63.38 39.9841 62.88C39.9841 62.3933 39.8541 62.03 39.5941 61.79C39.3408 61.55 38.9841 61.43 38.5241 61.43C38.2575 61.43 37.9741 61.4933 37.6741 61.62C37.3741 61.74 37.1175 61.8867 36.9041 62.06C36.9041 62.8133 37.0408 63.42 37.3141 63.88C37.5941 64.3333 37.9941 64.56 38.5141 64.56ZM43.3537 61.33C42.9137 61.33 42.5604 61.1833 42.2937 60.89C42.0271 60.5967 41.8937 60.1933 41.8937 59.68C41.8937 59.1733 42.0271 58.7733 42.2937 58.48C42.5671 58.18 42.9204 58.03 43.3537 58.03C43.7937 58.03 44.1471 58.18 44.4137 58.48C44.6871 58.7733 44.8237 59.1733 44.8237 59.68C44.8237 60.1933 44.6871 60.5967 44.4137 60.89C44.1471 61.1833 43.7937 61.33 43.3537 61.33ZM42.7137 64.7L47.4137 58.03L48.0037 58.41L43.2837 65.07L42.7137 64.7ZM43.3537 60.82C43.5937 60.82 43.7904 60.7233 43.9437 60.53C44.1037 60.3367 44.1837 60.0533 44.1837 59.68C44.1837 59.3067 44.1037 59.0233 43.9437 58.83C43.7904 58.63 43.5937 58.53 43.3537 58.53C43.1071 58.53 42.9071 58.6267 42.7537 58.82C42.6004 59.0133 42.5237 59.3 42.5237 59.68C42.5237 60.0533 42.6004 60.3367 42.7537 60.53C42.9071 60.7233 43.1071 60.82 43.3537 60.82ZM47.3537 65.12C46.9137 65.12 46.5604 64.9733 46.2937 64.68C46.0271 64.3867 45.8937 63.9833 45.8937 63.47C45.8937 62.9633 46.0271 62.5633 46.2937 62.27C46.5671 61.97 46.9204 61.82 47.3537 61.82C47.7937 61.82 48.1471 61.97 48.4137 62.27C48.6871 62.5633 48.8237 62.9633 48.8237 63.47C48.8237 63.9833 48.6871 64.3867 48.4137 64.68C48.1471 64.9733 47.7937 65.12 47.3537 65.12ZM47.3537 64.61C47.5937 64.61 47.7904 64.5133 47.9437 64.32C48.1037 64.1267 48.1837 63.8433 48.1837 63.47C48.1837 63.0967 48.1037 62.8133 47.9437 62.62C47.7904 62.42 47.5937 62.32 47.3537 62.32C47.1071 62.32 46.9071 62.4167 46.7537 62.61C46.6004 62.8033 46.5237 63.09 46.5237 63.47C46.5237 63.8433 46.6004 64.1267 46.7537 64.32C46.9071 64.5133 47.1071 64.61 47.3537 64.61Z" fill="#939393"/>
<path d="M25.9065 163C25.8532 163 25.8099 162.98 25.7765 162.94C25.7499 162.9 25.7365 162.847 25.7365 162.78C25.7365 162.687 25.7699 162.617 25.8365 162.57C25.9032 162.517 25.9932 162.49 26.1065 162.49H26.9765V156.68L25.9865 156.98C25.9332 156.98 25.8865 156.963 25.8465 156.93C25.8132 156.89 25.7965 156.837 25.7965 156.77C25.7965 156.603 25.9032 156.487 26.1165 156.42L26.9865 156.15H27.7765V162.5L28.5865 162.6C28.8065 162.627 28.9165 162.71 28.9165 162.85C28.9165 162.95 28.8765 163 28.7965 163H25.9065ZM30.2522 163C30.1989 163 30.1556 162.98 30.1222 162.94C30.0956 162.9 30.0822 162.847 30.0822 162.78C30.0822 162.687 30.1156 162.617 30.1822 162.57C30.2489 162.517 30.3389 162.49 30.4522 162.49H31.3222V156.68L30.3322 156.98C30.2789 156.98 30.2322 156.963 30.1922 156.93C30.1589 156.89 30.1422 156.837 30.1422 156.77C30.1422 156.603 30.2489 156.487 30.4622 156.42L31.3322 156.15H32.1222V162.5L32.9322 162.6C33.1522 162.627 33.2622 162.71 33.2622 162.85C33.2622 162.95 33.2222 163 33.1422 163H30.2522ZM35.1479 163.12C35.0013 163.12 34.8746 163.07 34.7679 162.97C34.6679 162.87 34.6179 162.743 34.6179 162.59C34.6179 162.443 34.6679 162.32 34.7679 162.22C34.8746 162.12 35.0013 162.07 35.1479 162.07C35.2879 162.07 35.4079 162.12 35.5079 162.22C35.6146 162.32 35.6679 162.443 35.6679 162.59C35.6679 162.743 35.6146 162.87 35.5079 162.97C35.4079 163.07 35.2879 163.12 35.1479 163.12ZM37.1077 163C37.0544 163 37.011 162.98 36.9777 162.94C36.951 162.9 36.9377 162.847 36.9377 162.78C36.9377 162.687 36.971 162.617 37.0377 162.57C37.1044 162.517 37.1944 162.49 37.3077 162.49H38.1777V156.68L37.1877 156.98C37.1344 156.98 37.0877 156.963 37.0477 156.93C37.0144 156.89 36.9977 156.837 36.9977 156.77C36.9977 156.603 37.1044 156.487 37.3177 156.42L38.1877 156.15H38.9777V162.5L39.7877 162.6C40.0077 162.627 40.1177 162.71 40.1177 162.85C40.1177 162.95 40.0777 163 39.9977 163H37.1077ZM42.7334 159.33C42.2934 159.33 41.9401 159.183 41.6734 158.89C41.4067 158.597 41.2734 158.193 41.2734 157.68C41.2734 157.173 41.4067 156.773 41.6734 156.48C41.9467 156.18 42.3001 156.03 42.7334 156.03C43.1734 156.03 43.5267 156.18 43.7934 156.48C44.0667 156.773 44.2034 157.173 44.2034 157.68C44.2034 158.193 44.0667 158.597 43.7934 158.89C43.5267 159.183 43.1734 159.33 42.7334 159.33ZM42.0934 162.7L46.7934 156.03L47.3834 156.41L42.6634 163.07L42.0934 162.7ZM42.7334 158.82C42.9734 158.82 43.1701 158.723 43.3234 158.53C43.4834 158.337 43.5634 158.053 43.5634 157.68C43.5634 157.307 43.4834 157.023 43.3234 156.83C43.1701 156.63 42.9734 156.53 42.7334 156.53C42.4867 156.53 42.2867 156.627 42.1334 156.82C41.9801 157.013 41.9034 157.3 41.9034 157.68C41.9034 158.053 41.9801 158.337 42.1334 158.53C42.2867 158.723 42.4867 158.82 42.7334 158.82ZM46.7334 163.12C46.2934 163.12 45.9401 162.973 45.6734 162.68C45.4067 162.387 45.2734 161.983 45.2734 161.47C45.2734 160.963 45.4067 160.563 45.6734 160.27C45.9467 159.97 46.3001 159.82 46.7334 159.82C47.1734 159.82 47.5267 159.97 47.7934 160.27C48.0667 160.563 48.2034 160.963 48.2034 161.47C48.2034 161.983 48.0667 162.387 47.7934 162.68C47.5267 162.973 47.1734 163.12 46.7334 163.12ZM46.7334 162.61C46.9734 162.61 47.1701 162.513 47.3234 162.32C47.4834 162.127 47.5634 161.843 47.5634 161.47C47.5634 161.097 47.4834 160.813 47.3234 160.62C47.1701 160.42 46.9734 160.32 46.7334 160.32C46.4867 160.32 46.2867 160.417 46.1334 160.61C45.9801 160.803 45.9034 161.09 45.9034 161.47C45.9034 161.843 45.9801 162.127 46.1334 162.32C46.2867 162.513 46.4867 162.61 46.7334 162.61Z" fill="#939393"/>
<path d="M28.5393 176.1C28.386 176.1 28.2227 176.09 28.0493 176.07C27.8827 176.05 27.7427 176.023 27.6293 175.99V175.46C27.9027 175.533 28.1793 175.57 28.4593 175.57C29.1993 175.57 29.7827 175.34 30.2093 174.88C30.636 174.42 30.8527 173.733 30.8593 172.82C30.626 173.02 30.3627 173.18 30.0693 173.3C29.7827 173.413 29.476 173.47 29.1493 173.47C28.736 173.47 28.3627 173.383 28.0293 173.21C27.696 173.037 27.4327 172.79 27.2393 172.47C27.0527 172.143 26.9593 171.763 26.9593 171.33C26.9593 170.857 27.0627 170.45 27.2693 170.11C27.476 169.763 27.756 169.5 28.1093 169.32C28.4627 169.14 28.8527 169.05 29.2793 169.05C30.086 169.05 30.6827 169.34 31.0693 169.92C31.4627 170.493 31.6593 171.313 31.6593 172.38C31.6593 173.513 31.396 174.417 30.8693 175.09C30.3427 175.763 29.566 176.1 28.5393 176.1ZM29.2793 172.92C29.8193 172.92 30.3427 172.69 30.8493 172.23C30.8493 171.417 30.7227 170.773 30.4693 170.3C30.216 169.827 29.8327 169.59 29.3193 169.59C28.8593 169.59 28.486 169.747 28.1993 170.06C27.9127 170.373 27.7693 170.79 27.7693 171.31C27.7693 171.837 27.906 172.237 28.1793 172.51C28.4593 172.783 28.826 172.92 29.2793 172.92ZM33.489 176.12C33.3423 176.12 33.2156 176.07 33.109 175.97C33.009 175.87 32.959 175.743 32.959 175.59C32.959 175.443 33.009 175.32 33.109 175.22C33.2156 175.12 33.3423 175.07 33.489 175.07C33.629 175.07 33.749 175.12 33.849 175.22C33.9556 175.32 34.009 175.443 34.009 175.59C34.009 175.743 33.9556 175.87 33.849 175.97C33.749 176.07 33.629 176.12 33.489 176.12ZM37.3687 176.1C36.9887 176.1 36.6121 176.063 36.2387 175.99C35.8654 175.917 35.5487 175.823 35.2887 175.71V175.14C35.5887 175.267 35.9187 175.37 36.2787 175.45C36.6387 175.523 36.9787 175.56 37.2987 175.56C37.8787 175.56 38.3187 175.437 38.6187 175.19C38.9254 174.937 39.0787 174.58 39.0787 174.12C39.0787 173.727 38.9321 173.4 38.6387 173.14C38.3521 172.88 37.9821 172.75 37.5287 172.75C37.4287 172.75 37.2921 172.76 37.1187 172.78C36.9521 172.8 36.7321 172.83 36.4587 172.87V172.32L37.2187 172.22C37.6921 172.16 38.0787 172.013 38.3787 171.78C38.6787 171.54 38.8287 171.213 38.8287 170.8C38.8287 170.4 38.7054 170.1 38.4587 169.9C38.2121 169.7 37.8854 169.6 37.4787 169.6C37.2121 169.6 36.9454 169.637 36.6787 169.71C36.4187 169.783 36.1854 169.883 35.9787 170.01L35.8487 170.65C35.8154 170.81 35.7754 170.92 35.7287 170.98C35.6821 171.04 35.6187 171.07 35.5387 171.07C35.4921 171.07 35.4554 171.057 35.4287 171.03C35.4021 170.997 35.3887 170.96 35.3887 170.92V169.74C35.7087 169.527 36.0654 169.36 36.4587 169.24C36.8521 169.113 37.2421 169.05 37.6287 169.05C38.2021 169.05 38.6787 169.19 39.0587 169.47C39.4454 169.75 39.6387 170.167 39.6387 170.72C39.6387 171.14 39.5087 171.497 39.2487 171.79C38.9954 172.083 38.6421 172.293 38.1887 172.42C38.7154 172.493 39.1287 172.69 39.4287 173.01C39.7354 173.33 39.8887 173.72 39.8887 174.18C39.8887 174.793 39.6587 175.267 39.1987 175.6C38.7454 175.933 38.1354 176.1 37.3687 176.1ZM42.5783 172.33C42.1383 172.33 41.785 172.183 41.5183 171.89C41.2517 171.597 41.1183 171.193 41.1183 170.68C41.1183 170.173 41.2517 169.773 41.5183 169.48C41.7917 169.18 42.145 169.03 42.5783 169.03C43.0183 169.03 43.3717 169.18 43.6383 169.48C43.9117 169.773 44.0483 170.173 44.0483 170.68C44.0483 171.193 43.9117 171.597 43.6383 171.89C43.3717 172.183 43.0183 172.33 42.5783 172.33ZM41.9383 175.7L46.6383 169.03L47.2283 169.41L42.5083 176.07L41.9383 175.7ZM42.5783 171.82C42.8183 171.82 43.015 171.723 43.1683 171.53C43.3283 171.337 43.4083 171.053 43.4083 170.68C43.4083 170.307 43.3283 170.023 43.1683 169.83C43.015 169.63 42.8183 169.53 42.5783 169.53C42.3317 169.53 42.1317 169.627 41.9783 169.82C41.825 170.013 41.7483 170.3 41.7483 170.68C41.7483 171.053 41.825 171.337 41.9783 171.53C42.1317 171.723 42.3317 171.82 42.5783 171.82ZM46.5783 176.12C46.1383 176.12 45.785 175.973 45.5183 175.68C45.2517 175.387 45.1183 174.983 45.1183 174.47C45.1183 173.963 45.2517 173.563 45.5183 173.27C45.7917 172.97 46.145 172.82 46.5783 172.82C47.0183 172.82 47.3717 172.97 47.6383 173.27C47.9117 173.563 48.0483 173.963 48.0483 174.47C48.0483 174.983 47.9117 175.387 47.6383 175.68C47.3717 175.973 47.0183 176.12 46.5783 176.12ZM46.5783 175.61C46.8183 175.61 47.015 175.513 47.1683 175.32C47.3283 175.127 47.4083 174.843 47.4083 174.47C47.4083 174.097 47.3283 173.813 47.1683 173.62C47.015 173.42 46.8183 173.32 46.5783 173.32C46.3317 173.32 46.1317 173.417 45.9783 173.61C45.825 173.803 45.7483 174.09 45.7483 174.47C45.7483 174.843 45.825 175.127 45.9783 175.32C46.1317 175.513 46.3317 175.61 46.5783 175.61Z" fill="#939393"/>
<path d="M30.5572 193.1C29.7439 193.1 29.1306 192.807 28.7172 192.22C28.3039 191.633 28.0972 190.817 28.0972 189.77C28.0972 189.05 28.2139 188.41 28.4472 187.85C28.6872 187.29 29.0472 186.85 29.5272 186.53C30.0139 186.21 30.6139 186.05 31.3272 186.05C31.5672 186.05 31.8206 186.083 32.0872 186.15V186.67C31.8339 186.61 31.5906 186.58 31.3572 186.58C30.5906 186.58 29.9872 186.833 29.5472 187.34C29.1139 187.84 28.8972 188.56 28.8972 189.5C29.4972 189.087 30.1072 188.88 30.7272 188.88C31.3739 188.88 31.8806 189.06 32.2472 189.42C32.6139 189.773 32.7972 190.253 32.7972 190.86C32.7972 191.333 32.6972 191.74 32.4972 192.08C32.2972 192.413 32.0272 192.667 31.6872 192.84C31.3472 193.013 30.9706 193.1 30.5572 193.1ZM30.5172 192.56C30.9506 192.56 31.3039 192.407 31.5772 192.1C31.8506 191.787 31.9872 191.38 31.9872 190.88C31.9872 190.393 31.8572 190.03 31.5972 189.79C31.3439 189.55 30.9872 189.43 30.5272 189.43C30.2606 189.43 29.9772 189.493 29.6772 189.62C29.3772 189.74 29.1206 189.887 28.9072 190.06C28.9072 190.813 29.0439 191.42 29.3172 191.88C29.5972 192.333 29.9972 192.56 30.5172 192.56ZM34.6268 193.12C34.4802 193.12 34.3535 193.07 34.2468 192.97C34.1468 192.87 34.0968 192.743 34.0968 192.59C34.0968 192.443 34.1468 192.32 34.2468 192.22C34.3535 192.12 34.4802 192.07 34.6268 192.07C34.7668 192.07 34.8868 192.12 34.9868 192.22C35.0935 192.32 35.1468 192.443 35.1468 192.59C35.1468 192.743 35.0935 192.87 34.9868 192.97C34.8868 193.07 34.7668 193.12 34.6268 193.12ZM40.0766 186.68H36.8866L36.7866 187.19C36.7399 187.41 36.6466 187.52 36.5066 187.52C36.4066 187.52 36.3566 187.47 36.3566 187.37V186.15H40.9666V186.63L38.3866 193H37.4966L40.0766 186.68ZM43.4232 189.33C42.9832 189.33 42.6299 189.183 42.3632 188.89C42.0966 188.597 41.9632 188.193 41.9632 187.68C41.9632 187.173 42.0966 186.773 42.3632 186.48C42.6366 186.18 42.9899 186.03 43.4232 186.03C43.8632 186.03 44.2166 186.18 44.4832 186.48C44.7566 186.773 44.8932 187.173 44.8932 187.68C44.8932 188.193 44.7566 188.597 44.4832 188.89C44.2166 189.183 43.8632 189.33 43.4232 189.33ZM42.7832 192.7L47.4832 186.03L48.0732 186.41L43.3532 193.07L42.7832 192.7ZM43.4232 188.82C43.6632 188.82 43.8599 188.723 44.0132 188.53C44.1732 188.337 44.2532 188.053 44.2532 187.68C44.2532 187.307 44.1732 187.023 44.0132 186.83C43.8599 186.63 43.6632 186.53 43.4232 186.53C43.1766 186.53 42.9766 186.627 42.8232 186.82C42.6699 187.013 42.5932 187.3 42.5932 187.68C42.5932 188.053 42.6699 188.337 42.8232 188.53C42.9766 188.723 43.1766 188.82 43.4232 188.82ZM47.4232 193.12C46.9832 193.12 46.6299 192.973 46.3632 192.68C46.0966 192.387 45.9632 191.983 45.9632 191.47C45.9632 190.963 46.0966 190.563 46.3632 190.27C46.6366 189.97 46.9899 189.82 47.4232 189.82C47.8632 189.82 48.2166 189.97 48.4832 190.27C48.7566 190.563 48.8932 190.963 48.8932 191.47C48.8932 191.983 48.7566 192.387 48.4832 192.68C48.2166 192.973 47.8632 193.12 47.4232 193.12ZM47.4232 192.61C47.6632 192.61 47.8599 192.513 48.0132 192.32C48.1732 192.127 48.2532 191.843 48.2532 191.47C48.2532 191.097 48.1732 190.813 48.0132 190.62C47.8599 190.42 47.6632 190.32 47.4232 190.32C47.1766 190.32 46.9766 190.417 46.8232 190.61C46.6699 190.803 46.5932 191.09 46.5932 191.47C46.5932 191.843 46.6699 192.127 46.8232 192.32C46.9766 192.513 47.1766 192.61 47.4232 192.61Z" fill="#939393"/>
<path d="M31.9052 212.44L33.8172 210.488C34.1265 210.179 34.3639 209.896 34.5292 209.64C34.6945 209.384 34.7772 209.123 34.7772 208.856C34.7772 208.531 34.6785 208.288 34.4812 208.128C34.2839 207.963 34.0305 207.88 33.7212 207.88C33.5025 207.88 33.2892 207.909 33.0812 207.968C32.8732 208.027 32.6865 208.107 32.5212 208.208L32.4092 208.72C32.3825 208.848 32.3505 208.936 32.3132 208.984C32.2759 209.032 32.2252 209.056 32.1612 209.056C32.1239 209.056 32.0945 209.045 32.0732 209.024C32.0519 208.997 32.0412 208.968 32.0412 208.936V207.992C32.2972 207.821 32.5799 207.688 32.8892 207.592C33.1985 207.491 33.5079 207.44 33.8172 207.44C34.3079 207.44 34.6999 207.565 34.9932 207.816C35.2919 208.061 35.4412 208.421 35.4412 208.896C35.4412 209.216 35.3399 209.536 35.1372 209.856C34.9399 210.171 34.6439 210.531 34.2492 210.936L32.6652 212.536V212.568H35.5452V213H31.9052V212.44ZM37.0573 213.096C36.9399 213.096 36.8386 213.056 36.7533 212.976C36.6733 212.896 36.6333 212.795 36.6333 212.672C36.6333 212.555 36.6733 212.456 36.7533 212.376C36.8386 212.296 36.9399 212.256 37.0573 212.256C37.1693 212.256 37.2653 212.296 37.3453 212.376C37.4306 212.456 37.4733 212.555 37.4733 212.672C37.4733 212.795 37.4306 212.896 37.3453 212.976C37.2653 213.056 37.1693 213.096 37.0573 213.096ZM40.0411 213.08C39.4651 213.08 38.9317 212.979 38.4411 212.776V212.32C38.6757 212.416 38.9237 212.496 39.1851 212.56C39.4517 212.619 39.7104 212.648 39.9611 212.648C40.3824 212.648 40.7237 212.544 40.9851 212.336C41.2464 212.128 41.3771 211.824 41.3771 211.424C41.3771 210.976 41.2517 210.651 41.0011 210.448C40.7504 210.24 40.4197 210.136 40.0091 210.136C39.7051 210.136 39.3424 210.187 38.9211 210.288L38.6171 210.016L38.8251 207.52H41.6011V207.952H39.4171L39.2651 209.832C39.6011 209.741 39.9291 209.696 40.2491 209.696C40.7611 209.696 41.1851 209.84 41.5211 210.128C41.8571 210.416 42.0251 210.832 42.0251 211.376C42.0251 211.925 41.8384 212.347 41.4651 212.64C41.0971 212.933 40.6224 213.08 40.0411 213.08ZM44.0006 210.064C43.6486 210.064 43.366 209.947 43.1526 209.712C42.9393 209.477 42.8326 209.155 42.8326 208.744C42.8326 208.339 42.9393 208.019 43.1526 207.784C43.3713 207.544 43.654 207.424 44.0006 207.424C44.3526 207.424 44.6353 207.544 44.8486 207.784C45.0673 208.019 45.1766 208.339 45.1766 208.744C45.1766 209.155 45.0673 209.477 44.8486 209.712C44.6353 209.947 44.3526 210.064 44.0006 210.064ZM43.4886 212.76L47.2486 207.424L47.7206 207.728L43.9446 213.056L43.4886 212.76ZM44.0006 209.656C44.1926 209.656 44.35 209.579 44.4726 209.424C44.6006 209.269 44.6646 209.043 44.6646 208.744C44.6646 208.445 44.6006 208.219 44.4726 208.064C44.35 207.904 44.1926 207.824 44.0006 207.824C43.8033 207.824 43.6433 207.901 43.5206 208.056C43.398 208.211 43.3366 208.44 43.3366 208.744C43.3366 209.043 43.398 209.269 43.5206 209.424C43.6433 209.579 43.8033 209.656 44.0006 209.656ZM47.2006 213.096C46.8486 213.096 46.566 212.979 46.3526 212.744C46.1393 212.509 46.0326 212.187 46.0326 211.776C46.0326 211.371 46.1393 211.051 46.3526 210.816C46.5713 210.576 46.854 210.456 47.2006 210.456C47.5526 210.456 47.8353 210.576 48.0486 210.816C48.2673 211.051 48.3766 211.371 48.3766 211.776C48.3766 212.187 48.2673 212.509 48.0486 212.744C47.8353 212.979 47.5526 213.096 47.2006 213.096ZM47.2006 212.688C47.3926 212.688 47.55 212.611 47.6726 212.456C47.8006 212.301 47.8646 212.075 47.8646 211.776C47.8646 211.477 47.8006 211.251 47.6726 211.096C47.55 210.936 47.3926 210.856 47.2006 210.856C47.0033 210.856 46.8433 210.933 46.7206 211.088C46.598 211.243 46.5366 211.472 46.5366 211.776C46.5366 212.075 46.598 212.301 46.7206 212.456C46.8433 212.611 47.0033 212.688 47.2006 212.688Z" fill="#939393"/>
<path d="M31.5927 221.44L33.5047 219.488C33.814 219.179 34.0514 218.896 34.2167 218.64C34.382 218.384 34.4647 218.123 34.4647 217.856C34.4647 217.531 34.366 217.288 34.1687 217.128C33.9714 216.963 33.718 216.88 33.4087 216.88C33.19 216.88 32.9767 216.909 32.7687 216.968C32.5607 217.027 32.374 217.107 32.2087 217.208L32.0967 217.72C32.07 217.848 32.038 217.936 32.0007 217.984C31.9634 218.032 31.9127 218.056 31.8487 218.056C31.8114 218.056 31.782 218.045 31.7607 218.024C31.7394 217.997 31.7287 217.968 31.7287 217.936V216.992C31.9847 216.821 32.2674 216.688 32.5767 216.592C32.886 216.491 33.1954 216.44 33.5047 216.44C33.9954 216.44 34.3874 216.565 34.6807 216.816C34.9794 217.061 35.1287 217.421 35.1287 217.896C35.1287 218.216 35.0274 218.536 34.8247 218.856C34.6274 219.171 34.3314 219.531 33.9367 219.936L32.3527 221.536V221.568H35.2327V222H31.5927V221.44ZM36.7448 222.096C36.6274 222.096 36.5261 222.056 36.4408 221.976C36.3608 221.896 36.3208 221.795 36.3208 221.672C36.3208 221.555 36.3608 221.456 36.4408 221.376C36.5261 221.296 36.6274 221.256 36.7448 221.256C36.8568 221.256 36.9528 221.296 37.0328 221.376C37.1181 221.456 37.1608 221.555 37.1608 221.672C37.1608 221.795 37.1181 221.896 37.0328 221.976C36.9528 222.056 36.8568 222.096 36.7448 222.096ZM38.2646 221.44L40.1766 219.488C40.4859 219.179 40.7232 218.896 40.8886 218.64C41.0539 218.384 41.1366 218.123 41.1366 217.856C41.1366 217.531 41.0379 217.288 40.8406 217.128C40.6432 216.963 40.3899 216.88 40.0806 216.88C39.8619 216.88 39.6486 216.909 39.4406 216.968C39.2326 217.027 39.0459 217.107 38.8806 217.208L38.7686 217.72C38.7419 217.848 38.7099 217.936 38.6726 217.984C38.6352 218.032 38.5846 218.056 38.5206 218.056C38.4832 218.056 38.4539 218.045 38.4326 218.024C38.4112 217.997 38.4006 217.968 38.4006 217.936V216.992C38.6566 216.821 38.9392 216.688 39.2486 216.592C39.5579 216.491 39.8672 216.44 40.1766 216.44C40.6672 216.44 41.0592 216.565 41.3526 216.816C41.6512 217.061 41.8006 217.421 41.8006 217.896C41.8006 218.216 41.6992 218.536 41.4966 218.856C41.2992 219.171 41.0032 219.531 40.6086 219.936L39.0246 221.536V221.568H41.9046V222H38.2646V221.44ZM44.0006 219.064C43.6486 219.064 43.366 218.947 43.1526 218.712C42.9393 218.477 42.8326 218.155 42.8326 217.744C42.8326 217.339 42.9393 217.019 43.1526 216.784C43.3713 216.544 43.654 216.424 44.0006 216.424C44.3526 216.424 44.6353 216.544 44.8486 216.784C45.0673 217.019 45.1766 217.339 45.1766 217.744C45.1766 218.155 45.0673 218.477 44.8486 218.712C44.6353 218.947 44.3526 219.064 44.0006 219.064ZM43.4886 221.76L47.2486 216.424L47.7206 216.728L43.9446 222.056L43.4886 221.76ZM44.0006 218.656C44.1926 218.656 44.35 218.579 44.4726 218.424C44.6006 218.269 44.6646 218.043 44.6646 217.744C44.6646 217.445 44.6006 217.219 44.4726 217.064C44.35 216.904 44.1926 216.824 44.0006 216.824C43.8033 216.824 43.6433 216.901 43.5206 217.056C43.398 217.211 43.3366 217.44 43.3366 217.744C43.3366 218.043 43.398 218.269 43.5206 218.424C43.6433 218.579 43.8033 218.656 44.0006 218.656ZM47.2006 222.096C46.8486 222.096 46.566 221.979 46.3526 221.744C46.1393 221.509 46.0326 221.187 46.0326 220.776C46.0326 220.371 46.1393 220.051 46.3526 219.816C46.5713 219.576 46.854 219.456 47.2006 219.456C47.5526 219.456 47.8353 219.576 48.0486 219.816C48.2673 220.051 48.3766 220.371 48.3766 220.776C48.3766 221.187 48.2673 221.509 48.0486 221.744C47.8353 221.979 47.5526 222.096 47.2006 222.096ZM47.2006 221.688C47.3926 221.688 47.55 221.611 47.6726 221.456C47.8006 221.301 47.8646 221.075 47.8646 220.776C47.8646 220.477 47.8006 220.251 47.6726 220.096C47.55 219.936 47.3926 219.856 47.2006 219.856C47.0033 219.856 46.8433 219.933 46.7206 220.088C46.598 220.243 46.5366 220.472 46.5366 220.776C46.5366 221.075 46.598 221.301 46.7206 221.456C46.8433 221.611 47.0033 221.688 47.2006 221.688Z" fill="#939393"/>
<path d="M32.9856 230C32.9429 230 32.9083 229.984 32.8816 229.952C32.8603 229.92 32.8496 229.877 32.8496 229.824C32.8496 229.749 32.8763 229.693 32.9296 229.656C32.9829 229.613 33.0549 229.592 33.1456 229.592H33.8416V224.944L33.0496 225.184C33.0069 225.184 32.9696 225.171 32.9376 225.144C32.9109 225.112 32.8976 225.069 32.8976 225.016C32.8976 224.883 32.9829 224.789 33.1536 224.736L33.8496 224.52H34.4816V229.6L35.1296 229.68C35.3056 229.701 35.3936 229.768 35.3936 229.88C35.3936 229.96 35.3616 230 35.2976 230H32.9856ZM36.9022 230.096C36.7848 230.096 36.6835 230.056 36.5982 229.976C36.5182 229.896 36.4782 229.795 36.4782 229.672C36.4782 229.555 36.5182 229.456 36.5982 229.376C36.6835 229.296 36.7848 229.256 36.9022 229.256C37.0142 229.256 37.1102 229.296 37.1902 229.376C37.2755 229.456 37.3182 229.555 37.3182 229.672C37.3182 229.795 37.2755 229.896 37.1902 229.976C37.1102 230.056 37.0142 230.096 36.9022 230.096ZM39.886 230.08C39.31 230.08 38.7767 229.979 38.286 229.776V229.32C38.5207 229.416 38.7687 229.496 39.03 229.56C39.2967 229.619 39.5553 229.648 39.806 229.648C40.2273 229.648 40.5687 229.544 40.83 229.336C41.0913 229.128 41.222 228.824 41.222 228.424C41.222 227.976 41.0967 227.651 40.846 227.448C40.5953 227.24 40.2647 227.136 39.854 227.136C39.55 227.136 39.1873 227.187 38.766 227.288L38.462 227.016L38.67 224.52H41.446V224.952H39.262L39.11 226.832C39.446 226.741 39.774 226.696 40.094 226.696C40.606 226.696 41.03 226.84 41.366 227.128C41.702 227.416 41.87 227.832 41.87 228.376C41.87 228.925 41.6833 229.347 41.31 229.64C40.942 229.933 40.4673 230.08 39.886 230.08ZM43.8456 227.064C43.4936 227.064 43.2109 226.947 42.9976 226.712C42.7842 226.477 42.6776 226.155 42.6776 225.744C42.6776 225.339 42.7842 225.019 42.9976 224.784C43.2162 224.544 43.4989 224.424 43.8456 224.424C44.1976 224.424 44.4802 224.544 44.6936 224.784C44.9122 225.019 45.0216 225.339 45.0216 225.744C45.0216 226.155 44.9122 226.477 44.6936 226.712C44.4802 226.947 44.1976 227.064 43.8456 227.064ZM43.3336 229.76L47.0936 224.424L47.5656 224.728L43.7896 230.056L43.3336 229.76ZM43.8456 226.656C44.0376 226.656 44.1949 226.579 44.3176 226.424C44.4456 226.269 44.5096 226.043 44.5096 225.744C44.5096 225.445 44.4456 225.219 44.3176 225.064C44.1949 224.904 44.0376 224.824 43.8456 224.824C43.6482 224.824 43.4882 224.901 43.3656 225.056C43.2429 225.211 43.1816 225.44 43.1816 225.744C43.1816 226.043 43.2429 226.269 43.3656 226.424C43.4882 226.579 43.6482 226.656 43.8456 226.656ZM47.0456 230.096C46.6936 230.096 46.4109 229.979 46.1976 229.744C45.9842 229.509 45.8776 229.187 45.8776 228.776C45.8776 228.371 45.9842 228.051 46.1976 227.816C46.4162 227.576 46.6989 227.456 47.0456 227.456C47.3976 227.456 47.6802 227.576 47.8936 227.816C48.1122 228.051 48.2216 228.371 48.2216 228.776C48.2216 229.187 48.1122 229.509 47.8936 229.744C47.6802 229.979 47.3976 230.096 47.0456 230.096ZM47.0456 229.688C47.2376 229.688 47.3949 229.611 47.5176 229.456C47.6456 229.301 47.7096 229.075 47.7096 228.776C47.7096 228.477 47.6456 228.251 47.5176 228.096C47.3949 227.936 47.2376 227.856 47.0456 227.856C46.8482 227.856 46.6882 227.933 46.5656 228.088C46.4429 228.243 46.3816 228.472 46.3816 228.776C46.3816 229.075 46.4429 229.301 46.5656 229.456C46.6882 229.611 46.8482 229.688 47.0456 229.688Z" fill="#939393"/>
<path d="M29.7516 46.3L32.1416 43.86C32.5283 43.4733 32.8249 43.12 33.0316 42.8C33.2383 42.48 33.3416 42.1533 33.3416 41.82C33.3416 41.4133 33.2183 41.11 32.9716 40.91C32.7249 40.7033 32.4083 40.6 32.0216 40.6C31.7483 40.6 31.4816 40.6367 31.2216 40.71C30.9616 40.7833 30.7283 40.8833 30.5216 41.01L30.3816 41.65C30.3483 41.81 30.3083 41.92 30.2616 41.98C30.2149 42.04 30.1516 42.07 30.0716 42.07C30.0249 42.07 29.9883 42.0567 29.9616 42.03C29.9349 41.9967 29.9216 41.96 29.9216 41.92V40.74C30.2416 40.5267 30.5949 40.36 30.9816 40.24C31.3683 40.1133 31.7549 40.05 32.1416 40.05C32.7549 40.05 33.2449 40.2067 33.6116 40.52C33.9849 40.8267 34.1716 41.2767 34.1716 41.87C34.1716 42.27 34.0449 42.67 33.7916 43.07C33.5449 43.4633 33.1749 43.9133 32.6816 44.42L30.7016 46.42V46.46H34.3016V47H29.7516V46.3ZM38.0317 47.11C37.305 47.11 36.7183 46.95 36.2717 46.63C35.8317 46.3033 35.6117 45.8567 35.6117 45.29C35.6117 44.9233 35.755 44.58 36.0417 44.26C36.3283 43.94 36.7483 43.6567 37.3017 43.41C36.815 43.15 36.455 42.88 36.2217 42.6C35.9883 42.32 35.8717 42 35.8717 41.64C35.8717 41.34 35.9617 41.07 36.1417 40.83C36.3217 40.5833 36.575 40.39 36.9017 40.25C37.235 40.11 37.615 40.04 38.0417 40.04C38.4817 40.04 38.8617 40.11 39.1817 40.25C39.5017 40.3833 39.745 40.5733 39.9117 40.82C40.085 41.06 40.1717 41.3333 40.1717 41.64C40.1717 41.9867 40.0583 42.3033 39.8317 42.59C39.605 42.87 39.245 43.14 38.7517 43.4C39.3517 43.68 39.7817 43.97 40.0417 44.27C40.3083 44.5633 40.4417 44.89 40.4417 45.25C40.4417 45.6233 40.3383 45.95 40.1317 46.23C39.9317 46.51 39.6483 46.7267 39.2817 46.88C38.9217 47.0333 38.505 47.11 38.0317 47.11ZM38.0617 43.09C38.4883 42.89 38.8183 42.6733 39.0517 42.44C39.285 42.2067 39.4017 41.9433 39.4017 41.65C39.4017 41.3167 39.2717 41.0567 39.0117 40.87C38.7583 40.6767 38.4317 40.58 38.0317 40.58C37.6383 40.58 37.315 40.6767 37.0617 40.87C36.8083 41.0567 36.6817 41.3167 36.6817 41.65C36.6817 41.95 36.7983 42.2067 37.0317 42.42C37.265 42.6333 37.6083 42.8567 38.0617 43.09ZM38.0117 46.57C38.485 46.57 38.8717 46.4567 39.1717 46.23C39.4717 46.0033 39.6217 45.69 39.6217 45.29C39.6217 44.97 39.4817 44.6833 39.2017 44.43C38.9217 44.1767 38.525 43.9433 38.0117 43.73C37.505 43.9367 37.1083 44.17 36.8217 44.43C36.535 44.6833 36.3917 44.9767 36.3917 45.31C36.3917 45.7033 36.5383 46.0133 36.8317 46.24C37.1317 46.46 37.525 46.57 38.0117 46.57ZM43.1131 43.33C42.6731 43.33 42.3198 43.1833 42.0531 42.89C41.7864 42.5967 41.6531 42.1933 41.6531 41.68C41.6531 41.1733 41.7864 40.7733 42.0531 40.48C42.3264 40.18 42.6798 40.03 43.1131 40.03C43.5531 40.03 43.9064 40.18 44.1731 40.48C44.4464 40.7733 44.5831 41.1733 44.5831 41.68C44.5831 42.1933 44.4464 42.5967 44.1731 42.89C43.9064 43.1833 43.5531 43.33 43.1131 43.33ZM42.4731 46.7L47.1731 40.03L47.7631 40.41L43.0431 47.07L42.4731 46.7ZM43.1131 42.82C43.3531 42.82 43.5498 42.7233 43.7031 42.53C43.8631 42.3367 43.9431 42.0533 43.9431 41.68C43.9431 41.3067 43.8631 41.0233 43.7031 40.83C43.5498 40.63 43.3531 40.53 43.1131 40.53C42.8664 40.53 42.6664 40.6267 42.5131 40.82C42.3598 41.0133 42.2831 41.3 42.2831 41.68C42.2831 42.0533 42.3598 42.3367 42.5131 42.53C42.6664 42.7233 42.8664 42.82 43.1131 42.82ZM47.1131 47.12C46.6731 47.12 46.3198 46.9733 46.0531 46.68C45.7864 46.3867 45.6531 45.9833 45.6531 45.47C45.6531 44.9633 45.7864 44.5633 46.0531 44.27C46.3264 43.97 46.6798 43.82 47.1131 43.82C47.5531 43.82 47.9064 43.97 48.1731 44.27C48.4464 44.5633 48.5831 44.9633 48.5831 45.47C48.5831 45.9833 48.4464 46.3867 48.1731 46.68C47.9064 46.9733 47.5531 47.12 47.1131 47.12ZM47.1131 46.61C47.3531 46.61 47.5498 46.5133 47.7031 46.32C47.8631 46.1267 47.9431 45.8433 47.9431 45.47C47.9431 45.0967 47.8631 44.8133 47.7031 44.62C47.5498 44.42 47.3531 44.32 47.1131 44.32C46.8664 44.32 46.6664 44.4167 46.5131 44.61C46.3598 44.8033 46.2831 45.09 46.2831 45.47C46.2831 45.8433 46.3598 46.1267 46.5131 46.32C46.6664 46.5133 46.8664 46.61 47.1131 46.61Z" fill="#939393"/>
<path d="M173.199 152C173.068 152 172.966 151.958 172.891 151.874C172.826 151.79 172.793 151.669 172.793 151.51C172.793 151.277 172.877 151.104 173.045 150.992C173.213 150.871 173.437 150.81 173.717 150.81H174.333V143.656L173.087 144.034C172.956 144.034 172.849 143.997 172.765 143.922C172.69 143.838 172.653 143.721 172.653 143.572C172.653 143.357 172.714 143.189 172.835 143.068C172.956 142.937 173.143 142.83 173.395 142.746L174.431 142.41H176.419V150.824L177.147 151.062C177.408 151.146 177.59 151.235 177.693 151.328C177.796 151.421 177.847 151.538 177.847 151.678C177.847 151.893 177.758 152 177.581 152H173.199ZM181.681 152.14C181.14 152.14 180.585 152.089 180.015 151.986C179.446 151.874 178.984 151.743 178.629 151.594V150.25C179.049 150.418 179.521 150.558 180.043 150.67C180.575 150.782 181.07 150.838 181.527 150.838C182.815 150.838 183.459 150.292 183.459 149.2C183.459 148.771 183.301 148.416 182.983 148.136C182.666 147.856 182.251 147.716 181.737 147.716C181.411 147.716 180.921 147.772 180.267 147.884V146.582L181.331 146.442C182.535 146.293 183.137 145.775 183.137 144.888C183.137 144.477 183.002 144.16 182.731 143.936C182.461 143.703 182.097 143.586 181.639 143.586C181.145 143.586 180.631 143.698 180.099 143.922L179.833 144.706C179.703 145.107 179.586 145.373 179.483 145.504C179.381 145.635 179.241 145.7 179.063 145.7C178.951 145.7 178.867 145.672 178.811 145.616C178.755 145.551 178.727 145.467 178.727 145.364V143.194C179.885 142.578 181.009 142.27 182.101 142.27C182.997 142.27 183.739 142.466 184.327 142.858C184.925 143.25 185.223 143.833 185.223 144.608C185.223 145.196 185.041 145.695 184.677 146.106C184.323 146.517 183.828 146.811 183.193 146.988C183.893 147.1 184.458 147.366 184.887 147.786C185.326 148.197 185.545 148.729 185.545 149.382C185.545 149.951 185.377 150.446 185.041 150.866C184.705 151.277 184.243 151.594 183.655 151.818C183.067 152.033 182.409 152.14 181.681 152.14ZM188.369 152.21C188.051 152.21 187.781 152.103 187.557 151.888C187.342 151.673 187.235 151.403 187.235 151.076C187.235 150.749 187.342 150.479 187.557 150.264C187.781 150.049 188.051 149.942 188.369 149.942C188.677 149.942 188.938 150.049 189.153 150.264C189.377 150.479 189.489 150.749 189.489 151.076C189.489 151.403 189.377 151.673 189.153 151.888C188.938 152.103 188.677 152.21 188.369 152.21ZM191.451 152C191.32 152 191.218 151.958 191.143 151.874C191.078 151.79 191.045 151.669 191.045 151.51C191.045 151.277 191.129 151.104 191.297 150.992C191.465 150.871 191.689 150.81 191.969 150.81H192.585V143.656L191.339 144.034C191.208 144.034 191.101 143.997 191.017 143.922C190.942 143.838 190.905 143.721 190.905 143.572C190.905 143.357 190.966 143.189 191.087 143.068C191.208 142.937 191.395 142.83 191.647 142.746L192.683 142.41H194.671V150.824L195.399 151.062C195.66 151.146 195.842 151.235 195.945 151.328C196.048 151.421 196.099 151.538 196.099 151.678C196.099 151.893 196.01 152 195.833 152H191.451ZM199.682 146.82C198.982 146.82 198.426 146.61 198.016 146.19C197.614 145.77 197.414 145.205 197.414 144.496C197.414 143.796 197.614 143.241 198.016 142.83C198.426 142.41 198.982 142.2 199.682 142.2C200.382 142.2 200.932 142.41 201.334 142.83C201.744 143.241 201.95 143.796 201.95 144.496C201.95 145.205 201.744 145.77 201.334 146.19C200.932 146.61 200.382 146.82 199.682 146.82ZM199.066 151.258L205.45 142.2L206.976 143.222L200.536 152.238L199.066 151.258ZM199.682 145.602C199.896 145.602 200.069 145.518 200.2 145.35C200.34 145.173 200.41 144.888 200.41 144.496C200.41 144.104 200.34 143.824 200.2 143.656C200.069 143.479 199.896 143.39 199.682 143.39C199.467 143.39 199.29 143.479 199.15 143.656C199.019 143.824 198.954 144.104 198.954 144.496C198.954 144.888 199.019 145.173 199.15 145.35C199.29 145.518 199.467 145.602 199.682 145.602ZM206.444 152.21C205.744 152.21 205.188 152 204.778 151.58C204.376 151.16 204.176 150.595 204.176 149.886C204.176 149.186 204.376 148.631 204.778 148.22C205.188 147.8 205.744 147.59 206.444 147.59C207.144 147.59 207.694 147.8 208.096 148.22C208.506 148.631 208.712 149.186 208.712 149.886C208.712 150.595 208.506 151.16 208.096 151.58C207.694 152 207.144 152.21 206.444 152.21ZM206.444 150.992C206.658 150.992 206.831 150.908 206.962 150.74C207.102 150.563 207.172 150.278 207.172 149.886C207.172 149.494 207.102 149.214 206.962 149.046C206.831 148.869 206.658 148.78 206.444 148.78C206.229 148.78 206.052 148.869 205.912 149.046C205.781 149.214 205.716 149.494 205.716 149.886C205.716 150.278 205.781 150.563 205.912 150.74C206.052 150.908 206.229 150.992 206.444 150.992Z" fill="black"/>
<path d="M174.737 28.1C174.357 28.1 173.98 28.0633 173.607 27.99C173.234 27.9167 172.917 27.8233 172.657 27.71V27.14C172.957 27.2667 173.287 27.37 173.647 27.45C174.007 27.5233 174.347 27.56 174.667 27.56C175.247 27.56 175.687 27.4367 175.987 27.19C176.294 26.9367 176.447 26.58 176.447 26.12C176.447 25.7267 176.3 25.4 176.007 25.14C175.72 24.88 175.35 24.75 174.897 24.75C174.797 24.75 174.66 24.76 174.487 24.78C174.32 24.8 174.1 24.83 173.827 24.87V24.32L174.587 24.22C175.06 24.16 175.447 24.0133 175.747 23.78C176.047 23.54 176.197 23.2133 176.197 22.8C176.197 22.4 176.074 22.1 175.827 21.9C175.58 21.7 175.254 21.6 174.847 21.6C174.58 21.6 174.314 21.6367 174.047 21.71C173.787 21.7833 173.554 21.8833 173.347 22.01L173.217 22.65C173.184 22.81 173.144 22.92 173.097 22.98C173.05 23.04 172.987 23.07 172.907 23.07C172.86 23.07 172.824 23.0567 172.797 23.03C172.77 22.9967 172.757 22.96 172.757 22.92V21.74C173.077 21.5267 173.434 21.36 173.827 21.24C174.22 21.1133 174.61 21.05 174.997 21.05C175.57 21.05 176.047 21.19 176.427 21.47C176.814 21.75 177.007 22.1667 177.007 22.72C177.007 23.14 176.877 23.4967 176.617 23.79C176.364 24.0833 176.01 24.2933 175.557 24.42C176.084 24.4933 176.497 24.69 176.797 25.01C177.104 25.33 177.257 25.72 177.257 26.18C177.257 26.7933 177.027 27.2667 176.567 27.6C176.114 27.9333 175.504 28.1 174.737 28.1ZM178.667 28C178.613 28 178.57 27.98 178.537 27.94C178.51 27.9 178.497 27.8467 178.497 27.78C178.497 27.6867 178.53 27.6167 178.597 27.57C178.663 27.5167 178.753 27.49 178.867 27.49H179.737V21.68L178.747 21.98C178.693 21.98 178.647 21.9633 178.607 21.93C178.573 21.89 178.557 21.8367 178.557 21.77C178.557 21.6033 178.663 21.4867 178.877 21.42L179.747 21.15H180.537V27.5L181.347 27.6C181.567 27.6267 181.677 27.71 181.677 27.85C181.677 27.95 181.637 28 181.557 28H178.667ZM184.292 24.33C183.852 24.33 183.499 24.1833 183.232 23.89C182.966 23.5967 182.832 23.1933 182.832 22.68C182.832 22.1733 182.966 21.7733 183.232 21.48C183.506 21.18 183.859 21.03 184.292 21.03C184.732 21.03 185.086 21.18 185.352 21.48C185.626 21.7733 185.762 22.1733 185.762 22.68C185.762 23.1933 185.626 23.5967 185.352 23.89C185.086 24.1833 184.732 24.33 184.292 24.33ZM183.652 27.7L188.352 21.03L188.942 21.41L184.222 28.07L183.652 27.7ZM184.292 23.82C184.532 23.82 184.729 23.7233 184.882 23.53C185.042 23.3367 185.122 23.0533 185.122 22.68C185.122 22.3067 185.042 22.0233 184.882 21.83C184.729 21.63 184.532 21.53 184.292 21.53C184.046 21.53 183.846 21.6267 183.692 21.82C183.539 22.0133 183.462 22.3 183.462 22.68C183.462 23.0533 183.539 23.3367 183.692 23.53C183.846 23.7233 184.046 23.82 184.292 23.82ZM188.292 28.12C187.852 28.12 187.499 27.9733 187.232 27.68C186.966 27.3867 186.832 26.9833 186.832 26.47C186.832 25.9633 186.966 25.5633 187.232 25.27C187.506 24.97 187.859 24.82 188.292 24.82C188.732 24.82 189.086 24.97 189.352 25.27C189.626 25.5633 189.762 25.9633 189.762 26.47C189.762 26.9833 189.626 27.3867 189.352 27.68C189.086 27.9733 188.732 28.12 188.292 28.12ZM188.292 27.61C188.532 27.61 188.729 27.5133 188.882 27.32C189.042 27.1267 189.122 26.8433 189.122 26.47C189.122 26.0967 189.042 25.8133 188.882 25.62C188.729 25.42 188.532 25.32 188.292 25.32C188.046 25.32 187.846 25.4167 187.692 25.61C187.539 25.8033 187.462 26.09 187.462 26.47C187.462 26.8433 187.539 27.1267 187.692 27.32C187.846 27.5133 188.046 27.61 188.292 27.61Z" fill="#939393"/>
<path d="M172.757 75.3L175.147 72.86C175.534 72.4733 175.83 72.12 176.037 71.8C176.244 71.48 176.347 71.1533 176.347 70.82C176.347 70.4133 176.224 70.11 175.977 69.91C175.73 69.7033 175.414 69.6 175.027 69.6C174.754 69.6 174.487 69.6367 174.227 69.71C173.967 69.7833 173.734 69.8833 173.527 70.01L173.387 70.65C173.354 70.81 173.314 70.92 173.267 70.98C173.22 71.04 173.157 71.07 173.077 71.07C173.03 71.07 172.994 71.0567 172.967 71.03C172.94 70.9967 172.927 70.96 172.927 70.92V69.74C173.247 69.5267 173.6 69.36 173.987 69.24C174.374 69.1133 174.76 69.05 175.147 69.05C175.76 69.05 176.25 69.2067 176.617 69.52C176.99 69.8267 177.177 70.2767 177.177 70.87C177.177 71.27 177.05 71.67 176.797 72.07C176.55 72.4633 176.18 72.9133 175.687 73.42L173.707 75.42V75.46H177.307V76H172.757V75.3ZM180.567 76.1C180.187 76.1 179.81 76.0633 179.437 75.99C179.064 75.9167 178.747 75.8233 178.487 75.71V75.14C178.787 75.2667 179.117 75.37 179.477 75.45C179.837 75.5233 180.177 75.56 180.497 75.56C181.077 75.56 181.517 75.4367 181.817 75.19C182.124 74.9367 182.277 74.58 182.277 74.12C182.277 73.7267 182.13 73.4 181.837 73.14C181.55 72.88 181.18 72.75 180.727 72.75C180.627 72.75 180.49 72.76 180.317 72.78C180.15 72.8 179.93 72.83 179.657 72.87V72.32L180.417 72.22C180.89 72.16 181.277 72.0133 181.577 71.78C181.877 71.54 182.027 71.2133 182.027 70.8C182.027 70.4 181.904 70.1 181.657 69.9C181.41 69.7 181.084 69.6 180.677 69.6C180.41 69.6 180.144 69.6367 179.877 69.71C179.617 69.7833 179.384 69.8833 179.177 70.01L179.047 70.65C179.014 70.81 178.974 70.92 178.927 70.98C178.88 71.04 178.817 71.07 178.737 71.07C178.69 71.07 178.654 71.0567 178.627 71.03C178.6 70.9967 178.587 70.96 178.587 70.92V69.74C178.907 69.5267 179.264 69.36 179.657 69.24C180.05 69.1133 180.44 69.05 180.827 69.05C181.4 69.05 181.877 69.19 182.257 69.47C182.644 69.75 182.837 70.1667 182.837 70.72C182.837 71.14 182.707 71.4967 182.447 71.79C182.194 72.0833 181.84 72.2933 181.387 72.42C181.914 72.4933 182.327 72.69 182.627 73.01C182.934 73.33 183.087 73.72 183.087 74.18C183.087 74.7933 182.857 75.2667 182.397 75.6C181.944 75.9333 181.334 76.1 180.567 76.1ZM185.047 76.12C184.9 76.12 184.773 76.07 184.667 75.97C184.567 75.87 184.517 75.7433 184.517 75.59C184.517 75.4433 184.567 75.32 184.667 75.22C184.773 75.12 184.9 75.07 185.047 75.07C185.187 75.07 185.307 75.12 185.407 75.22C185.513 75.32 185.567 75.4433 185.567 75.59C185.567 75.7433 185.513 75.87 185.407 75.97C185.307 76.07 185.187 76.12 185.047 76.12ZM188.456 76.1C188.303 76.1 188.14 76.09 187.966 76.07C187.8 76.05 187.66 76.0233 187.546 75.99V75.46C187.82 75.5333 188.096 75.57 188.376 75.57C189.116 75.57 189.7 75.34 190.126 74.88C190.553 74.42 190.77 73.7333 190.776 72.82C190.543 73.02 190.28 73.18 189.986 73.3C189.7 73.4133 189.393 73.47 189.066 73.47C188.653 73.47 188.28 73.3833 187.946 73.21C187.613 73.0367 187.35 72.79 187.156 72.47C186.97 72.1433 186.876 71.7633 186.876 71.33C186.876 70.8567 186.98 70.45 187.186 70.11C187.393 69.7633 187.673 69.5 188.026 69.32C188.38 69.14 188.77 69.05 189.196 69.05C190.003 69.05 190.6 69.34 190.986 69.92C191.38 70.4933 191.576 71.3133 191.576 72.38C191.576 73.5133 191.313 74.4167 190.786 75.09C190.26 75.7633 189.483 76.1 188.456 76.1ZM189.196 72.92C189.736 72.92 190.26 72.69 190.766 72.23C190.766 71.4167 190.64 70.7733 190.386 70.3C190.133 69.8267 189.75 69.59 189.236 69.59C188.776 69.59 188.403 69.7467 188.116 70.06C187.83 70.3733 187.686 70.79 187.686 71.31C187.686 71.8367 187.823 72.2367 188.096 72.51C188.376 72.7833 188.743 72.92 189.196 72.92ZM194.136 72.33C193.696 72.33 193.343 72.1833 193.076 71.89C192.809 71.5967 192.676 71.1933 192.676 70.68C192.676 70.1733 192.809 69.7733 193.076 69.48C193.349 69.18 193.703 69.03 194.136 69.03C194.576 69.03 194.929 69.18 195.196 69.48C195.469 69.7733 195.606 70.1733 195.606 70.68C195.606 71.1933 195.469 71.5967 195.196 71.89C194.929 72.1833 194.576 72.33 194.136 72.33ZM193.496 75.7L198.196 69.03L198.786 69.41L194.066 76.07L193.496 75.7ZM194.136 71.82C194.376 71.82 194.573 71.7233 194.726 71.53C194.886 71.3367 194.966 71.0533 194.966 70.68C194.966 70.3067 194.886 70.0233 194.726 69.83C194.573 69.63 194.376 69.53 194.136 69.53C193.889 69.53 193.689 69.6267 193.536 69.82C193.383 70.0133 193.306 70.3 193.306 70.68C193.306 71.0533 193.383 71.3367 193.536 71.53C193.689 71.7233 193.889 71.82 194.136 71.82ZM198.136 76.12C197.696 76.12 197.343 75.9733 197.076 75.68C196.809 75.3867 196.676 74.9833 196.676 74.47C196.676 73.9633 196.809 73.5633 197.076 73.27C197.349 72.97 197.703 72.82 198.136 72.82C198.576 72.82 198.929 72.97 199.196 73.27C199.469 73.5633 199.606 73.9633 199.606 74.47C199.606 74.9833 199.469 75.3867 199.196 75.68C198.929 75.9733 198.576 76.12 198.136 76.12ZM198.136 75.61C198.376 75.61 198.573 75.5133 198.726 75.32C198.886 75.1267 198.966 74.8433 198.966 74.47C198.966 74.0967 198.886 73.8133 198.726 73.62C198.573 73.42 198.376 73.32 198.136 73.32C197.889 73.32 197.689 73.4167 197.536 73.61C197.383 73.8033 197.306 74.09 197.306 74.47C197.306 74.8433 197.383 75.1267 197.536 75.32C197.689 75.5133 197.889 75.61 198.136 75.61Z" fill="#939393"/>
<path d="M172.817 169C172.764 169 172.72 168.98 172.687 168.94C172.66 168.9 172.647 168.847 172.647 168.78C172.647 168.687 172.68 168.617 172.747 168.57C172.814 168.517 172.904 168.49 173.017 168.49H173.887V162.68L172.897 162.98C172.844 162.98 172.797 162.963 172.757 162.93C172.724 162.89 172.707 162.837 172.707 162.77C172.707 162.603 172.814 162.487 173.027 162.42L173.897 162.15H174.687V168.5L175.497 168.6C175.717 168.627 175.827 168.71 175.827 168.85C175.827 168.95 175.787 169 175.707 169H172.817ZM179.505 169.12C178.891 169.12 178.361 168.97 177.915 168.67C177.468 168.37 177.125 167.953 176.885 167.42C176.651 166.88 176.535 166.267 176.535 165.58C176.535 164.893 176.651 164.283 176.885 163.75C177.125 163.21 177.468 162.79 177.915 162.49C178.361 162.183 178.891 162.03 179.505 162.03C180.118 162.03 180.648 162.183 181.095 162.49C181.541 162.79 181.881 163.207 182.115 163.74C182.348 164.273 182.465 164.887 182.465 165.58C182.465 166.267 182.348 166.88 182.115 167.42C181.881 167.953 181.541 168.37 181.095 168.67C180.648 168.97 180.118 169.12 179.505 169.12ZM179.495 168.58C179.941 168.58 180.325 168.457 180.645 168.21C180.971 167.957 181.221 167.603 181.395 167.15C181.568 166.697 181.655 166.173 181.655 165.58C181.655 164.987 181.568 164.463 181.395 164.01C181.221 163.557 180.971 163.203 180.645 162.95C180.325 162.697 179.941 162.57 179.495 162.57C179.055 162.57 178.671 162.697 178.345 162.95C178.018 163.203 177.768 163.557 177.595 164.01C177.428 164.463 177.345 164.987 177.345 165.58C177.345 166.173 177.428 166.697 177.595 167.15C177.768 167.603 178.018 167.957 178.345 168.21C178.671 168.457 179.055 168.58 179.495 168.58ZM184.304 169.12C184.158 169.12 184.031 169.07 183.924 168.97C183.824 168.87 183.774 168.743 183.774 168.59C183.774 168.443 183.824 168.32 183.924 168.22C184.031 168.12 184.158 168.07 184.304 168.07C184.444 168.07 184.564 168.12 184.664 168.22C184.771 168.32 184.824 168.443 184.824 168.59C184.824 168.743 184.771 168.87 184.664 168.97C184.564 169.07 184.444 169.12 184.304 169.12ZM188.034 169.1C187.314 169.1 186.648 168.973 186.034 168.72V168.15C186.328 168.27 186.638 168.37 186.964 168.45C187.298 168.523 187.621 168.56 187.934 168.56C188.461 168.56 188.888 168.43 189.214 168.17C189.541 167.91 189.704 167.53 189.704 167.03C189.704 166.47 189.548 166.063 189.234 165.81C188.921 165.55 188.508 165.42 187.994 165.42C187.614 165.42 187.161 165.483 186.634 165.61L186.254 165.27L186.514 162.15H189.984V162.69H187.254L187.064 165.04C187.484 164.927 187.894 164.87 188.294 164.87C188.934 164.87 189.464 165.05 189.884 165.41C190.304 165.77 190.514 166.29 190.514 166.97C190.514 167.657 190.281 168.183 189.814 168.55C189.354 168.917 188.761 169.1 188.034 169.1ZM192.984 165.33C192.544 165.33 192.19 165.183 191.924 164.89C191.657 164.597 191.524 164.193 191.524 163.68C191.524 163.173 191.657 162.773 191.924 162.48C192.197 162.18 192.55 162.03 192.984 162.03C193.424 162.03 193.777 162.18 194.044 162.48C194.317 162.773 194.454 163.173 194.454 163.68C194.454 164.193 194.317 164.597 194.044 164.89C193.777 165.183 193.424 165.33 192.984 165.33ZM192.344 168.7L197.044 162.03L197.634 162.41L192.914 169.07L192.344 168.7ZM192.984 164.82C193.224 164.82 193.42 164.723 193.574 164.53C193.734 164.337 193.814 164.053 193.814 163.68C193.814 163.307 193.734 163.023 193.574 162.83C193.42 162.63 193.224 162.53 192.984 162.53C192.737 162.53 192.537 162.627 192.384 162.82C192.23 163.013 192.154 163.3 192.154 163.68C192.154 164.053 192.23 164.337 192.384 164.53C192.537 164.723 192.737 164.82 192.984 164.82ZM196.984 169.12C196.544 169.12 196.19 168.973 195.924 168.68C195.657 168.387 195.524 167.983 195.524 167.47C195.524 166.963 195.657 166.563 195.924 166.27C196.197 165.97 196.55 165.82 196.984 165.82C197.424 165.82 197.777 165.97 198.044 166.27C198.317 166.563 198.454 166.963 198.454 167.47C198.454 167.983 198.317 168.387 198.044 168.68C197.777 168.973 197.424 169.12 196.984 169.12ZM196.984 168.61C197.224 168.61 197.42 168.513 197.574 168.32C197.734 168.127 197.814 167.843 197.814 167.47C197.814 167.097 197.734 166.813 197.574 166.62C197.42 166.42 197.224 166.32 196.984 166.32C196.737 166.32 196.537 166.417 196.384 166.61C196.23 166.803 196.154 167.09 196.154 167.47C196.154 167.843 196.23 168.127 196.384 168.32C196.537 168.513 196.737 168.61 196.984 168.61Z" fill="#939393"/>
<path d="M174.587 199.1C173.867 199.1 173.2 198.973 172.587 198.72V198.15C172.88 198.27 173.19 198.37 173.517 198.45C173.85 198.523 174.174 198.56 174.487 198.56C175.014 198.56 175.44 198.43 175.767 198.17C176.094 197.91 176.257 197.53 176.257 197.03C176.257 196.47 176.1 196.063 175.787 195.81C175.474 195.55 175.06 195.42 174.547 195.42C174.167 195.42 173.714 195.483 173.187 195.61L172.807 195.27L173.067 192.15H176.537V192.69H173.807L173.617 195.04C174.037 194.927 174.447 194.87 174.847 194.87C175.487 194.87 176.017 195.05 176.437 195.41C176.857 195.77 177.067 196.29 177.067 196.97C177.067 197.657 176.834 198.183 176.367 198.55C175.907 198.917 175.314 199.1 174.587 199.1ZM178.806 199.12C178.66 199.12 178.533 199.07 178.426 198.97C178.326 198.87 178.276 198.743 178.276 198.59C178.276 198.443 178.326 198.32 178.426 198.22C178.533 198.12 178.66 198.07 178.806 198.07C178.946 198.07 179.066 198.12 179.166 198.22C179.273 198.32 179.326 198.443 179.326 198.59C179.326 198.743 179.273 198.87 179.166 198.97C179.066 199.07 178.946 199.12 178.806 199.12ZM183.156 199.11C182.429 199.11 181.843 198.95 181.396 198.63C180.956 198.303 180.736 197.857 180.736 197.29C180.736 196.923 180.879 196.58 181.166 196.26C181.453 195.94 181.873 195.657 182.426 195.41C181.939 195.15 181.579 194.88 181.346 194.6C181.113 194.32 180.996 194 180.996 193.64C180.996 193.34 181.086 193.07 181.266 192.83C181.446 192.583 181.699 192.39 182.026 192.25C182.359 192.11 182.739 192.04 183.166 192.04C183.606 192.04 183.986 192.11 184.306 192.25C184.626 192.383 184.869 192.573 185.036 192.82C185.209 193.06 185.296 193.333 185.296 193.64C185.296 193.987 185.183 194.303 184.956 194.59C184.729 194.87 184.369 195.14 183.876 195.4C184.476 195.68 184.906 195.97 185.166 196.27C185.433 196.563 185.566 196.89 185.566 197.25C185.566 197.623 185.463 197.95 185.256 198.23C185.056 198.51 184.773 198.727 184.406 198.88C184.046 199.033 183.629 199.11 183.156 199.11ZM183.186 195.09C183.613 194.89 183.943 194.673 184.176 194.44C184.409 194.207 184.526 193.943 184.526 193.65C184.526 193.317 184.396 193.057 184.136 192.87C183.883 192.677 183.556 192.58 183.156 192.58C182.763 192.58 182.439 192.677 182.186 192.87C181.933 193.057 181.806 193.317 181.806 193.65C181.806 193.95 181.923 194.207 182.156 194.42C182.389 194.633 182.733 194.857 183.186 195.09ZM183.136 198.57C183.609 198.57 183.996 198.457 184.296 198.23C184.596 198.003 184.746 197.69 184.746 197.29C184.746 196.97 184.606 196.683 184.326 196.43C184.046 196.177 183.649 195.943 183.136 195.73C182.629 195.937 182.233 196.17 181.946 196.43C181.659 196.683 181.516 196.977 181.516 197.31C181.516 197.703 181.663 198.013 181.956 198.24C182.256 198.46 182.649 198.57 183.136 198.57ZM188.238 195.33C187.798 195.33 187.444 195.183 187.178 194.89C186.911 194.597 186.778 194.193 186.778 193.68C186.778 193.173 186.911 192.773 187.178 192.48C187.451 192.18 187.804 192.03 188.238 192.03C188.678 192.03 189.031 192.18 189.298 192.48C189.571 192.773 189.708 193.173 189.708 193.68C189.708 194.193 189.571 194.597 189.298 194.89C189.031 195.183 188.678 195.33 188.238 195.33ZM187.598 198.7L192.298 192.03L192.888 192.41L188.168 199.07L187.598 198.7ZM188.238 194.82C188.478 194.82 188.674 194.723 188.828 194.53C188.988 194.337 189.068 194.053 189.068 193.68C189.068 193.307 188.988 193.023 188.828 192.83C188.674 192.63 188.478 192.53 188.238 192.53C187.991 192.53 187.791 192.627 187.638 192.82C187.484 193.013 187.408 193.3 187.408 193.68C187.408 194.053 187.484 194.337 187.638 194.53C187.791 194.723 187.991 194.82 188.238 194.82ZM192.238 199.12C191.798 199.12 191.444 198.973 191.178 198.68C190.911 198.387 190.778 197.983 190.778 197.47C190.778 196.963 190.911 196.563 191.178 196.27C191.451 195.97 191.804 195.82 192.238 195.82C192.678 195.82 193.031 195.97 193.298 196.27C193.571 196.563 193.708 196.963 193.708 197.47C193.708 197.983 193.571 198.387 193.298 198.68C193.031 198.973 192.678 199.12 192.238 199.12ZM192.238 198.61C192.478 198.61 192.674 198.513 192.828 198.32C192.988 198.127 193.068 197.843 193.068 197.47C193.068 197.097 192.988 196.813 192.828 196.62C192.674 196.42 192.478 196.32 192.238 196.32C191.991 196.32 191.791 196.417 191.638 196.61C191.484 196.803 191.408 197.09 191.408 197.47C191.408 197.843 191.484 198.127 191.638 198.32C191.791 198.513 191.991 198.61 192.238 198.61Z" fill="#939393"/>
<path d="M174.211 211.08C173.907 211.08 173.606 211.051 173.307 210.992C173.008 210.933 172.755 210.859 172.547 210.768V210.312C172.787 210.413 173.051 210.496 173.339 210.56C173.627 210.619 173.899 210.648 174.155 210.648C174.619 210.648 174.971 210.549 175.211 210.352C175.456 210.149 175.579 209.864 175.579 209.496C175.579 209.181 175.462 208.92 175.227 208.712C174.998 208.504 174.702 208.4 174.339 208.4C174.259 208.4 174.15 208.408 174.011 208.424C173.878 208.44 173.702 208.464 173.483 208.496V208.056L174.091 207.976C174.47 207.928 174.779 207.811 175.019 207.624C175.259 207.432 175.379 207.171 175.379 206.84C175.379 206.52 175.28 206.28 175.083 206.12C174.886 205.96 174.624 205.88 174.299 205.88C174.086 205.88 173.872 205.909 173.659 205.968C173.451 206.027 173.264 206.107 173.099 206.208L172.995 206.72C172.968 206.848 172.936 206.936 172.899 206.984C172.862 207.032 172.811 207.056 172.747 207.056C172.71 207.056 172.68 207.045 172.659 207.024C172.638 206.997 172.627 206.968 172.627 206.936V205.992C172.883 205.821 173.168 205.688 173.483 205.592C173.798 205.491 174.11 205.44 174.419 205.44C174.878 205.44 175.259 205.552 175.563 205.776C175.872 206 176.027 206.333 176.027 206.776C176.027 207.112 175.923 207.397 175.715 207.632C175.512 207.867 175.23 208.035 174.867 208.136C175.288 208.195 175.619 208.352 175.859 208.608C176.104 208.864 176.227 209.176 176.227 209.544C176.227 210.035 176.043 210.413 175.675 210.68C175.312 210.947 174.824 211.08 174.211 211.08ZM177.795 211.096C177.677 211.096 177.576 211.056 177.491 210.976C177.411 210.896 177.371 210.795 177.371 210.672C177.371 210.555 177.411 210.456 177.491 210.376C177.576 210.296 177.677 210.256 177.795 210.256C177.907 210.256 178.003 210.296 178.083 210.376C178.168 210.456 178.211 210.555 178.211 210.672C178.211 210.795 178.168 210.896 178.083 210.976C178.003 211.056 177.907 211.096 177.795 211.096ZM180.778 211.08C180.202 211.08 179.669 210.979 179.178 210.776V210.32C179.413 210.416 179.661 210.496 179.922 210.56C180.189 210.619 180.448 210.648 180.698 210.648C181.12 210.648 181.461 210.544 181.722 210.336C181.984 210.128 182.114 209.824 182.114 209.424C182.114 208.976 181.989 208.651 181.738 208.448C181.488 208.24 181.157 208.136 180.746 208.136C180.442 208.136 180.08 208.187 179.658 208.288L179.354 208.016L179.562 205.52H182.338V205.952H180.154L180.002 207.832C180.338 207.741 180.666 207.696 180.986 207.696C181.498 207.696 181.922 207.84 182.258 208.128C182.594 208.416 182.762 208.832 182.762 209.376C182.762 209.925 182.576 210.347 182.202 210.64C181.834 210.933 181.36 211.08 180.778 211.08ZM184.738 208.064C184.386 208.064 184.103 207.947 183.89 207.712C183.677 207.477 183.57 207.155 183.57 206.744C183.57 206.339 183.677 206.019 183.89 205.784C184.109 205.544 184.391 205.424 184.738 205.424C185.09 205.424 185.373 205.544 185.586 205.784C185.805 206.019 185.914 206.339 185.914 206.744C185.914 207.155 185.805 207.477 185.586 207.712C185.373 207.947 185.09 208.064 184.738 208.064ZM184.226 210.76L187.986 205.424L188.458 205.728L184.682 211.056L184.226 210.76ZM184.738 207.656C184.93 207.656 185.087 207.579 185.21 207.424C185.338 207.269 185.402 207.043 185.402 206.744C185.402 206.445 185.338 206.219 185.21 206.064C185.087 205.904 184.93 205.824 184.738 205.824C184.541 205.824 184.381 205.901 184.258 206.056C184.135 206.211 184.074 206.44 184.074 206.744C184.074 207.043 184.135 207.269 184.258 207.424C184.381 207.579 184.541 207.656 184.738 207.656ZM187.938 211.096C187.586 211.096 187.303 210.979 187.09 210.744C186.877 210.509 186.77 210.187 186.77 209.776C186.77 209.371 186.877 209.051 187.09 208.816C187.309 208.576 187.591 208.456 187.938 208.456C188.29 208.456 188.573 208.576 188.786 208.816C189.005 209.051 189.114 209.371 189.114 209.776C189.114 210.187 189.005 210.509 188.786 210.744C188.573 210.979 188.29 211.096 187.938 211.096ZM187.938 210.688C188.13 210.688 188.287 210.611 188.41 210.456C188.538 210.301 188.602 210.075 188.602 209.776C188.602 209.477 188.538 209.251 188.41 209.096C188.287 208.936 188.13 208.856 187.938 208.856C187.741 208.856 187.581 208.933 187.458 209.088C187.335 209.243 187.274 209.472 187.274 209.776C187.274 210.075 187.335 210.301 187.458 210.456C187.581 210.611 187.741 210.688 187.938 210.688Z" fill="#939393"/>
<path d="M172.627 218.44L174.539 216.488C174.848 216.179 175.086 215.896 175.251 215.64C175.416 215.384 175.499 215.123 175.499 214.856C175.499 214.531 175.4 214.288 175.203 214.128C175.006 213.963 174.752 213.88 174.443 213.88C174.224 213.88 174.011 213.909 173.803 213.968C173.595 214.027 173.408 214.107 173.243 214.208L173.131 214.72C173.104 214.848 173.072 214.936 173.035 214.984C172.998 215.032 172.947 215.056 172.883 215.056C172.846 215.056 172.816 215.045 172.795 215.024C172.774 214.997 172.763 214.968 172.763 214.936V213.992C173.019 213.821 173.302 213.688 173.611 213.592C173.92 213.491 174.23 213.44 174.539 213.44C175.03 213.44 175.422 213.565 175.715 213.816C176.014 214.061 176.163 214.421 176.163 214.896C176.163 215.216 176.062 215.536 175.859 215.856C175.662 216.171 175.366 216.531 174.971 216.936L173.387 218.536V218.568H176.267V219H172.627V218.44ZM177.779 219.096C177.662 219.096 177.56 219.056 177.475 218.976C177.395 218.896 177.355 218.795 177.355 218.672C177.355 218.555 177.395 218.456 177.475 218.376C177.56 218.296 177.662 218.256 177.779 218.256C177.891 218.256 177.987 218.296 178.067 218.376C178.152 218.456 178.195 218.555 178.195 218.672C178.195 218.795 178.152 218.896 178.067 218.976C177.987 219.056 177.891 219.096 177.779 219.096ZM180.763 219.08C180.187 219.08 179.653 218.979 179.163 218.776V218.32C179.397 218.416 179.645 218.496 179.907 218.56C180.173 218.619 180.432 218.648 180.683 218.648C181.104 218.648 181.445 218.544 181.707 218.336C181.968 218.128 182.099 217.824 182.099 217.424C182.099 216.976 181.973 216.651 181.723 216.448C181.472 216.24 181.141 216.136 180.731 216.136C180.427 216.136 180.064 216.187 179.643 216.288L179.339 216.016L179.547 213.52H182.323V213.952H180.139L179.987 215.832C180.323 215.741 180.651 215.696 180.971 215.696C181.483 215.696 181.907 215.84 182.243 216.128C182.579 216.416 182.747 216.832 182.747 217.376C182.747 217.925 182.56 218.347 182.187 218.64C181.819 218.933 181.344 219.08 180.763 219.08ZM184.722 216.064C184.37 216.064 184.088 215.947 183.874 215.712C183.661 215.477 183.554 215.155 183.554 214.744C183.554 214.339 183.661 214.019 183.874 213.784C184.093 213.544 184.376 213.424 184.722 213.424C185.074 213.424 185.357 213.544 185.57 213.784C185.789 214.019 185.898 214.339 185.898 214.744C185.898 215.155 185.789 215.477 185.57 215.712C185.357 215.947 185.074 216.064 184.722 216.064ZM184.21 218.76L187.97 213.424L188.442 213.728L184.666 219.056L184.21 218.76ZM184.722 215.656C184.914 215.656 185.072 215.579 185.194 215.424C185.322 215.269 185.386 215.043 185.386 214.744C185.386 214.445 185.322 214.219 185.194 214.064C185.072 213.904 184.914 213.824 184.722 213.824C184.525 213.824 184.365 213.901 184.242 214.056C184.12 214.211 184.058 214.44 184.058 214.744C184.058 215.043 184.12 215.269 184.242 215.424C184.365 215.579 184.525 215.656 184.722 215.656ZM187.922 219.096C187.57 219.096 187.288 218.979 187.074 218.744C186.861 218.509 186.754 218.187 186.754 217.776C186.754 217.371 186.861 217.051 187.074 216.816C187.293 216.576 187.576 216.456 187.922 216.456C188.274 216.456 188.557 216.576 188.77 216.816C188.989 217.051 189.098 217.371 189.098 217.776C189.098 218.187 188.989 218.509 188.77 218.744C188.557 218.979 188.274 219.096 187.922 219.096ZM187.922 218.688C188.114 218.688 188.272 218.611 188.394 218.456C188.522 218.301 188.586 218.075 188.586 217.776C188.586 217.477 188.522 217.251 188.394 217.096C188.272 216.936 188.114 216.856 187.922 216.856C187.725 216.856 187.565 216.933 187.442 217.088C187.32 217.243 187.258 217.472 187.258 217.776C187.258 218.075 187.32 218.301 187.442 218.456C187.565 218.611 187.725 218.688 187.922 218.688Z" fill="#939393"/>
<path d="M172.675 226C172.632 226 172.598 225.984 172.571 225.952C172.55 225.92 172.539 225.877 172.539 225.824C172.539 225.749 172.566 225.693 172.619 225.656C172.672 225.613 172.744 225.592 172.835 225.592H173.531V220.944L172.739 221.184C172.696 221.184 172.659 221.171 172.627 221.144C172.6 221.112 172.587 221.069 172.587 221.016C172.587 220.883 172.672 220.789 172.843 220.736L173.539 220.52H174.171V225.6L174.819 225.68C174.995 225.701 175.083 225.768 175.083 225.88C175.083 225.96 175.051 226 174.987 226H172.675ZM176.591 226.096C176.474 226.096 176.373 226.056 176.287 225.976C176.207 225.896 176.167 225.795 176.167 225.672C176.167 225.555 176.207 225.456 176.287 225.376C176.373 225.296 176.474 225.256 176.591 225.256C176.703 225.256 176.799 225.296 176.879 225.376C176.965 225.456 177.007 225.555 177.007 225.672C177.007 225.795 176.965 225.896 176.879 225.976C176.799 226.056 176.703 226.096 176.591 226.096ZM179.319 226.08C179.197 226.08 179.066 226.072 178.927 226.056C178.794 226.04 178.682 226.019 178.591 225.992V225.568C178.81 225.627 179.031 225.656 179.255 225.656C179.847 225.656 180.314 225.472 180.655 225.104C180.997 224.736 181.17 224.187 181.175 223.456C180.989 223.616 180.778 223.744 180.543 223.84C180.314 223.931 180.069 223.976 179.807 223.976C179.477 223.976 179.178 223.907 178.911 223.768C178.645 223.629 178.434 223.432 178.279 223.176C178.13 222.915 178.055 222.611 178.055 222.264C178.055 221.885 178.138 221.56 178.303 221.288C178.469 221.011 178.693 220.8 178.975 220.656C179.258 220.512 179.57 220.44 179.911 220.44C180.557 220.44 181.034 220.672 181.343 221.136C181.658 221.595 181.815 222.251 181.815 223.104C181.815 224.011 181.605 224.733 181.183 225.272C180.762 225.811 180.141 226.08 179.319 226.08ZM179.911 223.536C180.343 223.536 180.762 223.352 181.167 222.984C181.167 222.333 181.066 221.819 180.863 221.44C180.661 221.061 180.354 220.872 179.943 220.872C179.575 220.872 179.277 220.997 179.047 221.248C178.818 221.499 178.703 221.832 178.703 222.248C178.703 222.669 178.813 222.989 179.031 223.208C179.255 223.427 179.549 223.536 179.911 223.536ZM183.863 223.064C183.511 223.064 183.228 222.947 183.015 222.712C182.802 222.477 182.695 222.155 182.695 221.744C182.695 221.339 182.802 221.019 183.015 220.784C183.234 220.544 183.516 220.424 183.863 220.424C184.215 220.424 184.498 220.544 184.711 220.784C184.93 221.019 185.039 221.339 185.039 221.744C185.039 222.155 184.93 222.477 184.711 222.712C184.498 222.947 184.215 223.064 183.863 223.064ZM183.351 225.76L187.111 220.424L187.583 220.728L183.807 226.056L183.351 225.76ZM183.863 222.656C184.055 222.656 184.212 222.579 184.335 222.424C184.463 222.269 184.527 222.043 184.527 221.744C184.527 221.445 184.463 221.219 184.335 221.064C184.212 220.904 184.055 220.824 183.863 220.824C183.666 220.824 183.506 220.901 183.383 221.056C183.26 221.211 183.199 221.44 183.199 221.744C183.199 222.043 183.26 222.269 183.383 222.424C183.506 222.579 183.666 222.656 183.863 222.656ZM187.063 226.096C186.711 226.096 186.428 225.979 186.215 225.744C186.002 225.509 185.895 225.187 185.895 224.776C185.895 224.371 186.002 224.051 186.215 223.816C186.434 223.576 186.716 223.456 187.063 223.456C187.415 223.456 187.698 223.576 187.911 223.816C188.13 224.051 188.239 224.371 188.239 224.776C188.239 225.187 188.13 225.509 187.911 225.744C187.698 225.979 187.415 226.096 187.063 226.096ZM187.063 225.688C187.255 225.688 187.412 225.611 187.535 225.456C187.663 225.301 187.727 225.075 187.727 224.776C187.727 224.477 187.663 224.251 187.535 224.096C187.412 223.936 187.255 223.856 187.063 223.856C186.866 223.856 186.706 223.933 186.583 224.088C186.46 224.243 186.399 224.472 186.399 224.776C186.399 225.075 186.46 225.301 186.583 225.456C186.706 225.611 186.866 225.688 187.063 225.688Z" fill="#939393"/>
<path d="M176.307 177.68H173.117L173.017 178.19C172.97 178.41 172.877 178.52 172.737 178.52C172.637 178.52 172.587 178.47 172.587 178.37V177.15H177.197V177.63L174.617 184H173.727L176.307 177.68ZM178.924 184.12C178.777 184.12 178.65 184.07 178.544 183.97C178.444 183.87 178.394 183.743 178.394 183.59C178.394 183.443 178.444 183.32 178.544 183.22C178.65 183.12 178.777 183.07 178.924 183.07C179.064 183.07 179.184 183.12 179.284 183.22C179.39 183.32 179.444 183.443 179.444 183.59C179.444 183.743 179.39 183.87 179.284 183.97C179.184 184.07 179.064 184.12 178.924 184.12ZM182.333 184.1C182.18 184.1 182.017 184.09 181.843 184.07C181.677 184.05 181.537 184.023 181.423 183.99V183.46C181.697 183.533 181.973 183.57 182.253 183.57C182.993 183.57 183.577 183.34 184.003 182.88C184.43 182.42 184.647 181.733 184.653 180.82C184.42 181.02 184.157 181.18 183.863 181.3C183.577 181.413 183.27 181.47 182.943 181.47C182.53 181.47 182.157 181.383 181.823 181.21C181.49 181.037 181.227 180.79 181.033 180.47C180.847 180.143 180.753 179.763 180.753 179.33C180.753 178.857 180.857 178.45 181.063 178.11C181.27 177.763 181.55 177.5 181.903 177.32C182.257 177.14 182.647 177.05 183.073 177.05C183.88 177.05 184.477 177.34 184.863 177.92C185.257 178.493 185.453 179.313 185.453 180.38C185.453 181.513 185.19 182.417 184.663 183.09C184.137 183.763 183.36 184.1 182.333 184.1ZM183.073 180.92C183.613 180.92 184.137 180.69 184.643 180.23C184.643 179.417 184.517 178.773 184.263 178.3C184.01 177.827 183.627 177.59 183.113 177.59C182.653 177.59 182.28 177.747 181.993 178.06C181.707 178.373 181.563 178.79 181.563 179.31C181.563 179.837 181.7 180.237 181.973 180.51C182.253 180.783 182.62 180.92 183.073 180.92ZM188.013 180.33C187.573 180.33 187.22 180.183 186.953 179.89C186.686 179.597 186.553 179.193 186.553 178.68C186.553 178.173 186.686 177.773 186.953 177.48C187.226 177.18 187.58 177.03 188.013 177.03C188.453 177.03 188.806 177.18 189.073 177.48C189.346 177.773 189.483 178.173 189.483 178.68C189.483 179.193 189.346 179.597 189.073 179.89C188.806 180.183 188.453 180.33 188.013 180.33ZM187.373 183.7L192.073 177.03L192.663 177.41L187.943 184.07L187.373 183.7ZM188.013 179.82C188.253 179.82 188.45 179.723 188.603 179.53C188.763 179.337 188.843 179.053 188.843 178.68C188.843 178.307 188.763 178.023 188.603 177.83C188.45 177.63 188.253 177.53 188.013 177.53C187.766 177.53 187.566 177.627 187.413 177.82C187.26 178.013 187.183 178.3 187.183 178.68C187.183 179.053 187.26 179.337 187.413 179.53C187.566 179.723 187.766 179.82 188.013 179.82ZM192.013 184.12C191.573 184.12 191.22 183.973 190.953 183.68C190.686 183.387 190.553 182.983 190.553 182.47C190.553 181.963 190.686 181.563 190.953 181.27C191.226 180.97 191.58 180.82 192.013 180.82C192.453 180.82 192.806 180.97 193.073 181.27C193.346 181.563 193.483 181.963 193.483 182.47C193.483 182.983 193.346 183.387 193.073 183.68C192.806 183.973 192.453 184.12 192.013 184.12ZM192.013 183.61C192.253 183.61 192.45 183.513 192.603 183.32C192.763 183.127 192.843 182.843 192.843 182.47C192.843 182.097 192.763 181.813 192.603 181.62C192.45 181.42 192.253 181.32 192.013 181.32C191.766 181.32 191.566 181.417 191.413 181.61C191.26 181.803 191.183 182.09 191.183 182.47C191.183 182.843 191.26 183.127 191.413 183.32C191.566 183.513 191.766 183.61 192.013 183.61Z" fill="#939393"/>
<path d="M43.1726 14.16L46.0406 11.232C46.5046 10.768 46.8606 10.344 47.1086 9.96C47.3566 9.576 47.4806 9.184 47.4806 8.784C47.4806 8.296 47.3326 7.932 47.0366 7.692C46.7406 7.444 46.3606 7.32 45.8966 7.32C45.5686 7.32 45.2486 7.364 44.9366 7.452C44.6246 7.54 44.3446 7.66 44.0966 7.812L43.9286 8.58C43.8886 8.772 43.8406 8.904 43.7846 8.976C43.7286 9.048 43.6526 9.084 43.5566 9.084C43.5006 9.084 43.4566 9.068 43.4246 9.036C43.3926 8.996 43.3766 8.952 43.3766 8.904V7.488C43.7606 7.232 44.1846 7.032 44.6486 6.888C45.1126 6.736 45.5766 6.66 46.0406 6.66C46.7766 6.66 47.3646 6.848 47.8046 7.224C48.2526 7.592 48.4766 8.132 48.4766 8.844C48.4766 9.324 48.3246 9.804 48.0206 10.284C47.7246 10.756 47.2806 11.296 46.6886 11.904L44.3126 14.304V14.352H48.6326V15H43.1726V14.16ZM53.508 15.144C52.772 15.144 52.136 14.964 51.6 14.604C51.064 14.244 50.652 13.744 50.364 13.104C50.084 12.456 49.944 11.72 49.944 10.896C49.944 10.072 50.084 9.34 50.364 8.7C50.652 8.052 51.064 7.548 51.6 7.188C52.136 6.82 52.772 6.636 53.508 6.636C54.244 6.636 54.88 6.82 55.416 7.188C55.952 7.548 56.36 8.048 56.64 8.688C56.92 9.328 57.06 10.064 57.06 10.896C57.06 11.72 56.92 12.456 56.64 13.104C56.36 13.744 55.952 14.244 55.416 14.604C54.88 14.964 54.244 15.144 53.508 15.144ZM53.496 14.496C54.032 14.496 54.492 14.348 54.876 14.052C55.268 13.748 55.568 13.324 55.776 12.78C55.984 12.236 56.088 11.608 56.088 10.896C56.088 10.184 55.984 9.556 55.776 9.012C55.568 8.468 55.268 8.044 54.876 7.74C54.492 7.436 54.032 7.284 53.496 7.284C52.968 7.284 52.508 7.436 52.116 7.74C51.724 8.044 51.424 8.468 51.216 9.012C51.016 9.556 50.916 10.184 50.916 10.896C50.916 11.608 51.016 12.236 51.216 12.78C51.424 13.324 51.724 13.748 52.116 14.052C52.508 14.348 52.968 14.496 53.496 14.496ZM58.3952 14.16L61.2632 11.232C61.7272 10.768 62.0832 10.344 62.3312 9.96C62.5792 9.576 62.7032 9.184 62.7032 8.784C62.7032 8.296 62.5552 7.932 62.2592 7.692C61.9632 7.444 61.5832 7.32 61.1192 7.32C60.7912 7.32 60.4712 7.364 60.1592 7.452C59.8472 7.54 59.5672 7.66 59.3192 7.812L59.1512 8.58C59.1112 8.772 59.0632 8.904 59.0072 8.976C58.9512 9.048 58.8752 9.084 58.7792 9.084C58.7232 9.084 58.6792 9.068 58.6472 9.036C58.6152 8.996 58.5992 8.952 58.5992 8.904V7.488C58.9832 7.232 59.4072 7.032 59.8712 6.888C60.3352 6.736 60.7992 6.66 61.2632 6.66C61.9992 6.66 62.5872 6.848 63.0272 7.224C63.4752 7.592 63.6992 8.132 63.6992 8.844C63.6992 9.324 63.5472 9.804 63.2432 10.284C62.9472 10.756 62.5032 11.296 61.9112 11.904L59.5352 14.304V14.352H63.8552V15H58.3952V14.16ZM65.3913 14.16L68.2593 11.232C68.7233 10.768 69.0793 10.344 69.3273 9.96C69.5753 9.576 69.6993 9.184 69.6993 8.784C69.6993 8.296 69.5513 7.932 69.2553 7.692C68.9593 7.444 68.5793 7.32 68.1153 7.32C67.7873 7.32 67.4673 7.364 67.1553 7.452C66.8433 7.54 66.5633 7.66 66.3153 7.812L66.1473 8.58C66.1073 8.772 66.0593 8.904 66.0033 8.976C65.9473 9.048 65.8713 9.084 65.7753 9.084C65.7193 9.084 65.6753 9.068 65.6433 9.036C65.6113 8.996 65.5953 8.952 65.5953 8.904V7.488C65.9793 7.232 66.4033 7.032 66.8673 6.888C67.3313 6.736 67.7953 6.66 68.2593 6.66C68.9953 6.66 69.5833 6.848 70.0233 7.224C70.4713 7.592 70.6953 8.132 70.6953 8.844C70.6953 9.324 70.5433 9.804 70.2393 10.284C69.9433 10.756 69.4993 11.296 68.9073 11.904L66.5313 14.304V14.352H70.8513V15H65.3913V14.16Z" fill="black"/>
<path d="M148.161 14.16L151.029 11.232C151.493 10.768 151.849 10.344 152.097 9.96C152.345 9.576 152.469 9.184 152.469 8.784C152.469 8.296 152.321 7.932 152.025 7.692C151.729 7.444 151.349 7.32 150.885 7.32C150.557 7.32 150.237 7.364 149.925 7.452C149.613 7.54 149.333 7.66 149.085 7.812L148.917 8.58C148.877 8.772 148.829 8.904 148.773 8.976C148.717 9.048 148.641 9.084 148.545 9.084C148.489 9.084 148.445 9.068 148.413 9.036C148.381 8.996 148.365 8.952 148.365 8.904V7.488C148.749 7.232 149.173 7.032 149.637 6.888C150.101 6.736 150.565 6.66 151.029 6.66C151.765 6.66 152.353 6.848 152.793 7.224C153.241 7.592 153.465 8.132 153.465 8.844C153.465 9.324 153.313 9.804 153.009 10.284C152.713 10.756 152.269 11.296 151.677 11.904L149.301 14.304V14.352H153.621V15H148.161V14.16ZM158.496 15.144C157.76 15.144 157.124 14.964 156.588 14.604C156.052 14.244 155.64 13.744 155.352 13.104C155.072 12.456 154.932 11.72 154.932 10.896C154.932 10.072 155.072 9.34 155.352 8.7C155.64 8.052 156.052 7.548 156.588 7.188C157.124 6.82 157.76 6.636 158.496 6.636C159.232 6.636 159.868 6.82 160.404 7.188C160.94 7.548 161.348 8.048 161.628 8.688C161.908 9.328 162.048 10.064 162.048 10.896C162.048 11.72 161.908 12.456 161.628 13.104C161.348 13.744 160.94 14.244 160.404 14.604C159.868 14.964 159.232 15.144 158.496 15.144ZM158.484 14.496C159.02 14.496 159.48 14.348 159.864 14.052C160.256 13.748 160.556 13.324 160.764 12.78C160.972 12.236 161.076 11.608 161.076 10.896C161.076 10.184 160.972 9.556 160.764 9.012C160.556 8.468 160.256 8.044 159.864 7.74C159.48 7.436 159.02 7.284 158.484 7.284C157.956 7.284 157.496 7.436 157.104 7.74C156.712 8.044 156.412 8.468 156.204 9.012C156.004 9.556 155.904 10.184 155.904 10.896C155.904 11.608 156.004 12.236 156.204 12.78C156.412 13.324 156.712 13.748 157.104 14.052C157.496 14.348 157.956 14.496 158.484 14.496ZM163.384 14.16L166.252 11.232C166.716 10.768 167.072 10.344 167.32 9.96C167.568 9.576 167.692 9.184 167.692 8.784C167.692 8.296 167.544 7.932 167.248 7.692C166.952 7.444 166.572 7.32 166.108 7.32C165.78 7.32 165.46 7.364 165.148 7.452C164.836 7.54 164.556 7.66 164.308 7.812L164.14 8.58C164.1 8.772 164.052 8.904 163.996 8.976C163.94 9.048 163.864 9.084 163.768 9.084C163.712 9.084 163.668 9.068 163.636 9.036C163.604 8.996 163.588 8.952 163.588 8.904V7.488C163.972 7.232 164.396 7.032 164.86 6.888C165.324 6.736 165.788 6.66 166.252 6.66C166.988 6.66 167.576 6.848 168.016 7.224C168.464 7.592 168.688 8.132 168.688 8.844C168.688 9.324 168.536 9.804 168.232 10.284C167.936 10.756 167.492 11.296 166.9 11.904L164.524 14.304V14.352H168.844V15H163.384V14.16ZM172.756 15.12C172.3 15.12 171.848 15.076 171.4 14.988C170.952 14.9 170.572 14.788 170.26 14.652V13.968C170.62 14.12 171.016 14.244 171.448 14.34C171.88 14.428 172.288 14.472 172.672 14.472C173.368 14.472 173.896 14.324 174.256 14.028C174.624 13.724 174.808 13.296 174.808 12.744C174.808 12.272 174.632 11.88 174.28 11.568C173.936 11.256 173.492 11.1 172.948 11.1C172.828 11.1 172.664 11.112 172.456 11.136C172.256 11.16 171.992 11.196 171.664 11.244V10.584L172.576 10.464C173.144 10.392 173.608 10.216 173.968 9.936C174.328 9.648 174.508 9.256 174.508 8.76C174.508 8.28 174.36 7.92 174.064 7.68C173.768 7.44 173.376 7.32 172.888 7.32C172.568 7.32 172.248 7.364 171.928 7.452C171.616 7.54 171.336 7.66 171.088 7.812L170.932 8.58C170.892 8.772 170.844 8.904 170.788 8.976C170.732 9.048 170.656 9.084 170.56 9.084C170.504 9.084 170.46 9.068 170.428 9.036C170.396 8.996 170.38 8.952 170.38 8.904V7.488C170.764 7.232 171.192 7.032 171.664 6.888C172.136 6.736 172.604 6.66 173.068 6.66C173.756 6.66 174.328 6.828 174.784 7.164C175.248 7.5 175.48 8 175.48 8.664C175.48 9.168 175.324 9.596 175.012 9.948C174.708 10.3 174.284 10.552 173.74 10.704C174.372 10.792 174.868 11.028 175.228 11.412C175.596 11.796 175.78 12.264 175.78 12.816C175.78 13.552 175.504 14.12 174.952 14.52C174.408 14.92 173.676 15.12 172.756 15.12Z" fill="black"/>
<path opacity="0.8" d="M56.5989 224V24.7842" stroke="#939393" stroke-dasharray="2 2"/>
<path opacity="0.8" d="M161.711 224V24.7842" stroke="#939393" stroke-dasharray="2 2"/>
<g opacity="0.3">
<path d="M51.2655 217.725C51.2655 220.671 53.6534 223.059 56.5989 223.059C59.5444 223.059 61.9322 220.671 61.9322 217.725C61.9322 214.78 59.5444 212.392 56.5989 212.392C53.6534 212.392 51.2655 214.78 51.2655 217.725ZM156.378 210.667C156.378 213.612 158.766 216 161.711 216C164.657 216 167.045 213.612 167.045 210.667C167.045 207.721 164.657 205.333 161.711 205.333C158.766 205.333 156.378 207.721 156.378 210.667ZM56.6659 218.723L161.778 211.664L161.644 209.669L56.5319 216.728L56.6659 218.723Z" fill="#AA92E3"/>
<path d="M51.2655 158.902C51.2655 161.847 53.6534 164.235 56.5989 164.235C59.5444 164.235 61.9322 161.847 61.9322 158.902C61.9322 155.956 59.5444 153.569 56.5989 153.569C53.6534 153.569 51.2655 155.956 51.2655 158.902ZM156.378 162.823C156.378 165.769 158.766 168.157 161.711 168.157C164.657 168.157 167.045 165.769 167.045 162.823C167.045 159.878 164.657 157.49 161.711 157.49C158.766 157.49 156.378 159.878 156.378 162.823ZM56.5616 159.901L161.674 163.823L161.748 161.824L56.6362 157.903L56.5616 159.901Z" fill="#BD4553"/>
<path d="M51.2655 219.294C51.2655 222.24 53.6534 224.628 56.5989 224.628C59.5444 224.628 61.9322 222.24 61.9322 219.294C61.9322 216.349 59.5444 213.961 56.5989 213.961C53.6534 213.961 51.2655 216.349 51.2655 219.294ZM156.378 217.726C156.378 220.671 158.766 223.059 161.711 223.059C164.657 223.059 167.045 220.671 167.045 217.726C167.045 214.78 164.657 212.392 161.711 212.392C158.766 212.392 156.378 214.78 156.378 217.726ZM56.6138 220.294L161.726 218.725L161.696 216.726L56.584 218.294L56.6138 220.294Z" fill="#257DCC"/>
<path d="M51.2655 45.1763C51.2655 48.1218 53.6534 50.5096 56.5989 50.5096C59.5444 50.5096 61.9322 48.1218 61.9322 45.1763C61.9322 42.2308 59.5444 39.8429 56.5989 39.8429C53.6534 39.8429 51.2655 42.2308 51.2655 45.1763ZM156.378 72.6273C156.378 75.5728 158.766 77.9606 161.711 77.9606C164.657 77.9606 167.045 75.5728 167.045 72.6273C167.045 69.6817 164.657 67.2939 161.711 67.2939C158.766 67.2939 156.378 69.6817 156.378 72.6273ZM56.3462 46.1438L161.458 73.5948L161.964 71.6597L56.8516 44.2087L56.3462 46.1438Z" fill="#4ADADA"/>
<path d="M51.2655 188.706C51.2655 191.651 53.6534 194.039 56.5989 194.039C59.5444 194.039 61.9322 191.651 61.9322 188.706C61.9322 185.76 59.5444 183.373 56.5989 183.373C53.6534 183.373 51.2655 185.76 51.2655 188.706ZM156.378 180.863C156.378 183.808 158.766 186.196 161.711 186.196C164.657 186.196 167.045 183.808 167.045 180.863C167.045 177.917 164.657 175.529 161.711 175.529C158.766 175.529 156.378 177.917 156.378 180.863ZM56.6733 189.703L161.786 181.86L161.637 179.866L56.5245 187.709L56.6733 189.703Z" fill="#8C6345"/>
<path d="M51.2655 224C51.2655 226.945 53.6534 229.333 56.5989 229.333C59.5444 229.333 61.9322 226.945 61.9322 224C61.9322 221.054 59.5444 218.667 56.5989 218.667C53.6534 218.667 51.2655 221.054 51.2655 224ZM156.378 221.647C156.378 224.592 158.766 226.98 161.711 226.98C164.657 226.98 167.045 224.592 167.045 221.647C167.045 218.701 164.657 216.314 161.711 216.314C158.766 216.314 156.378 218.701 156.378 221.647ZM56.6213 225L161.734 222.647L161.689 220.647L56.5765 223L56.6213 225Z" fill="#9BB95A"/>
<path d="M51.2655 61.6469C51.2655 64.5924 53.6534 66.9803 56.5989 66.9803C59.5444 66.9803 61.9322 64.5924 61.9322 61.6469C61.9322 58.7014 59.5444 56.3136 56.5989 56.3136C53.6534 56.3136 51.2655 58.7014 51.2655 61.6469ZM156.378 24.7842C156.378 27.7297 158.766 30.1175 161.711 30.1175C164.657 30.1175 167.045 27.7297 167.045 24.7842C167.045 21.8387 164.657 19.4508 161.711 19.4508C158.766 19.4508 156.378 21.8387 156.378 24.7842ZM56.9298 62.5906L162.042 25.7278L161.38 23.8405L56.2679 60.7033L56.9298 62.5906Z" fill="#FF3D00"/>
<path d="M51.2655 171.451C51.2655 174.397 53.6534 176.785 56.5989 176.785C59.5444 176.785 61.9322 174.397 61.9322 171.451C61.9322 168.506 59.5444 166.118 56.5989 166.118C53.6534 166.118 51.2655 168.506 51.2655 171.451ZM156.378 194.981C156.378 197.926 158.766 200.314 161.711 200.314C164.657 200.314 167.045 197.926 167.045 194.981C167.045 192.035 164.657 189.647 161.711 189.647C158.766 189.647 156.378 192.035 156.378 194.981ZM56.3804 172.427L161.493 195.956L161.93 194.005L56.8173 170.475L56.3804 172.427Z" fill="#FFB2AC"/>
</g>
<path d="M51.2655 145.569C51.2655 148.514 53.6534 150.902 56.5989 150.902C59.5444 150.902 61.9322 148.514 61.9322 145.569C61.9322 142.623 59.5444 140.236 56.5989 140.236C53.6534 140.236 51.2655 142.623 51.2655 145.569ZM156.378 145.569C156.378 148.514 158.766 150.902 161.711 150.902C164.657 150.902 167.045 148.514 167.045 145.569C167.045 142.623 164.657 140.236 161.711 140.236C158.766 140.236 156.378 142.623 156.378 145.569ZM56.5989 146.569H161.711V144.569H56.5989V146.569Z" fill="#FF984D"/>
</svg>
