<svg width="33" height="35" viewBox="0 0 33 35" fill="none" xmlns="http://www.w3.org/2000/svg">
<path d="M30.3321 13.3638C29.5408 11.4408 28.1158 9.92384 26.2236 9.14149L19.5545 6.26987C18.4286 5.75819 17.0084 6.37809 16.5808 7.52257C16.2535 8.31261 16.4059 9.19418 16.8053 9.84504L16.7987 9.77673C15.6061 9.27149 14.2525 9.88496 13.8249 11.0294C13.4976 11.8195 13.6501 12.701 14.0494 13.3519C12.8568 12.8467 11.5032 13.4601 11.0756 14.6046C10.7483 15.3947 10.9008 16.2762 11.2935 16.8588L3.99807 13.7719C3.4318 13.4819 2.76524 13.5463 2.18514 13.8093C1.59843 14.0039 1.17805 14.5271 0.957648 15.0311C0.463382 16.182 1.07524 17.6396 2.19457 18.083L16.1591 24.0415C16.299 24.0969 16.3056 24.1652 16.3254 24.3702C16.3453 24.5751 16.2786 24.5815 16.0852 24.6692L13.0514 25.9966C12.0179 26.4412 11.4504 27.5303 11.6293 28.6851C11.762 29.3617 12.1481 29.876 12.7276 30.3026C13.3004 30.6609 13.9802 30.7331 14.6336 30.532L23.4539 27.8179C25.9341 27.0266 27.9086 25.181 28.8905 22.8109L30.24 19.371C31.1282 17.4236 31.1235 15.2867 30.3321 13.3638Z" fill="#FFF8B5" stroke="black" stroke-linejoin="round"/>
<path d="M6.03654 0.646447C5.84127 0.451184 5.52469 0.451184 5.32943 0.646447L2.14745 3.82843C1.95219 4.02369 1.95219 4.34027 2.14745 4.53553C2.34271 4.7308 2.65929 4.7308 2.85456 4.53553L5.68298 1.70711L8.51141 4.53553C8.70667 4.7308 9.02326 4.7308 9.21852 4.53553C9.41378 4.34027 9.41378 4.02369 9.21852 3.82843L6.03654 0.646447ZM6.18298 11V1H5.18298V11H6.18298Z" fill="black"/>
<path d="M5.32949 34.3536C5.52475 34.5488 5.84134 34.5488 6.0366 34.3536L9.21858 31.1716C9.41384 30.9763 9.41384 30.6597 9.21858 30.4645C9.02332 30.2692 8.70673 30.2692 8.51147 30.4645L5.68304 33.2929L2.85462 30.4645C2.65936 30.2692 2.34277 30.2692 2.14751 30.4645C1.95225 30.6597 1.95225 30.9763 2.14751 31.1716L5.32949 34.3536ZM5.18304 24V34H6.18304V24H5.18304Z" fill="black"/>
</svg>
