<svg width="288" height="110" viewBox="0 0 288 110" fill="none" xmlns="http://www.w3.org/2000/svg">
<path d="M154.837 14.11C154.45 14.11 154.15 13.9967 153.937 13.77C153.73 13.5433 153.627 13.25 153.627 12.89V12.22C153.627 11.3667 154.167 10.8633 155.247 10.71L157.167 10.43V10.16C157.167 9.85333 157.06 9.61333 156.847 9.44C156.64 9.26667 156.347 9.18 155.967 9.18C155.553 9.18 155.057 9.29667 154.477 9.53C154.437 9.54333 154.373 9.56667 154.287 9.6C154.207 9.63333 154.143 9.65 154.097 9.65C154.03 9.65 153.967 9.62667 153.907 9.58C153.847 9.52667 153.817 9.43333 153.817 9.3C153.817 9.18 153.847 9.08667 153.907 9.02C153.973 8.94667 154.07 8.88 154.197 8.82C154.423 8.70667 154.72 8.60667 155.087 8.52C155.46 8.42667 155.793 8.38 156.087 8.38C156.853 8.38 157.447 8.55667 157.867 8.91C158.14 8.80333 158.423 8.65667 158.717 8.47C158.797 8.41667 158.86 8.38 158.907 8.36C158.96 8.34 159.017 8.33 159.077 8.33C159.21 8.33 159.313 8.37 159.387 8.45C159.46 8.52333 159.497 8.61667 159.497 8.73C159.497 9.00333 159.32 9.22 158.967 9.38C158.78 9.46 158.573 9.52 158.347 9.56C158.46 9.82667 158.517 10.13 158.517 10.47V13.64C158.517 13.76 158.463 13.86 158.357 13.94C158.25 14.0133 158.103 14.05 157.917 14.05C157.67 14.05 157.483 14 157.357 13.9C157.23 13.8 157.167 13.66 157.167 13.48V11.25L155.527 11.49C155.333 11.5167 155.19 11.5633 155.097 11.63C155.003 11.6967 154.957 11.8 154.957 11.94V12.03H155.037C155.337 12.0433 155.573 12.1467 155.747 12.34C155.92 12.5267 156.007 12.7633 156.007 13.05C156.007 13.37 155.893 13.6267 155.667 13.82C155.447 14.0133 155.17 14.11 154.837 14.11ZM154.857 13.51C154.977 13.51 155.077 13.4733 155.157 13.4C155.237 13.32 155.277 13.21 155.277 13.07C155.277 12.93 155.237 12.8233 155.157 12.75C155.077 12.67 154.977 12.63 154.857 12.63C154.73 12.63 154.627 12.6667 154.547 12.74C154.467 12.8133 154.427 12.9233 154.427 13.07C154.427 13.2167 154.467 13.3267 154.547 13.4C154.627 13.4733 154.73 13.51 154.857 13.51ZM153.867 7.16C153.993 6.77333 154.267 6.45333 154.687 6.2C155.107 5.94 155.603 5.81 156.177 5.81C156.357 5.81 156.553 5.82667 156.767 5.86V5.7C156.767 5.52667 156.857 5.44 157.037 5.44C157.157 5.44 157.25 5.47333 157.317 5.54C157.383 5.6 157.417 5.68333 157.417 5.79V6.06C157.557 6.13333 157.697 6.21667 157.837 6.31V5.7C157.837 5.52667 157.927 5.44 158.107 5.44C158.36 5.44 158.487 5.59 158.487 5.89V7.5C158.487 7.56 158.47 7.60667 158.437 7.64C158.403 7.66667 158.36 7.68 158.307 7.68H154.047C153.993 7.68 153.95 7.66667 153.917 7.64C153.883 7.60667 153.867 7.56 153.867 7.5V7.16ZM157.347 7.06C157.287 6.90667 157.15 6.77667 156.937 6.67C156.723 6.56333 156.47 6.51 156.177 6.51C155.883 6.51 155.63 6.56333 155.417 6.67C155.203 6.77667 155.067 6.90667 155.007 7.06H157.347ZM158.085 5.2C157.685 5.2 157.485 5.01 157.485 4.63V3.49C157.485 3.36333 157.525 3.26 157.605 3.18C157.685 3.1 157.802 3.06 157.955 3.06C158.169 3.06 158.322 3.11 158.415 3.21C158.502 3.30333 158.545 3.44333 158.545 3.63V4.77C158.545 4.89667 158.509 5 158.435 5.08C158.355 5.16 158.239 5.2 158.085 5.2ZM162.746 14.15C161.94 14.15 161.146 14.0267 160.366 13.78V11.87C160.366 11.4967 160.466 11.1967 160.666 10.97C160.873 10.7367 161.173 10.62 161.566 10.62C161.9 10.62 162.176 10.7167 162.396 10.91C162.623 11.1033 162.736 11.36 162.736 11.68C162.736 12 162.63 12.2533 162.416 12.44C162.203 12.6267 161.96 12.72 161.686 12.72H161.646C161.68 12.8733 161.696 13.0167 161.696 13.15V13.22C162.016 13.3067 162.366 13.35 162.746 13.35C163.206 13.35 163.553 13.1967 163.786 12.89C164.02 12.5833 164.136 12.06 164.136 11.32C164.136 9.89333 163.643 9.18 162.656 9.18C162.39 9.18 162.136 9.21 161.896 9.27C161.663 9.33 161.396 9.42 161.096 9.54C161.056 9.56 160.996 9.58667 160.916 9.62C160.843 9.64667 160.783 9.66 160.736 9.66C160.67 9.66 160.603 9.63667 160.536 9.59C160.476 9.53667 160.446 9.44333 160.446 9.31C160.446 9.18333 160.476 9.08667 160.536 9.02C160.603 8.94667 160.696 8.88 160.816 8.82C161.05 8.70667 161.346 8.60667 161.706 8.52C162.066 8.42667 162.413 8.38 162.746 8.38C163.593 8.38 164.263 8.63667 164.756 9.15C165.256 9.65667 165.506 10.38 165.506 11.32C165.506 12.2867 165.26 13 164.766 13.46C164.28 13.92 163.606 14.15 162.746 14.15ZM161.576 12.11C161.696 12.11 161.796 12.0733 161.876 12C161.956 11.92 161.996 11.81 161.996 11.67C161.996 11.53 161.956 11.4233 161.876 11.35C161.796 11.27 161.696 11.23 161.576 11.23C161.45 11.23 161.346 11.2667 161.266 11.34C161.186 11.4133 161.146 11.5233 161.146 11.67C161.146 11.8167 161.186 11.9267 161.266 12C161.346 12.0733 161.45 12.11 161.576 12.11ZM168.903 14.15C168.597 14.15 168.253 14.12 167.873 14.06C167.5 14 167.19 13.9267 166.943 13.84V11.96C166.943 11.6467 167.01 11.38 167.143 11.16C167.283 10.9333 167.49 10.6833 167.763 10.41C167.69 10.45 167.6 10.47 167.493 10.47C167.233 10.47 167.007 10.38 166.813 10.2C166.627 10.0133 166.533 9.77 166.533 9.47C166.533 9.15667 166.64 8.90333 166.853 8.71C167.067 8.51 167.337 8.41 167.663 8.41C168.017 8.41 168.3 8.51667 168.513 8.73C168.727 8.94333 168.833 9.21667 168.833 9.55C168.833 9.77 168.81 9.95333 168.763 10.1C168.723 10.2467 168.657 10.4233 168.563 10.63C168.477 10.81 168.41 10.9733 168.363 11.12C168.317 11.2667 168.293 11.4467 168.293 11.66V13.27C168.487 13.3233 168.723 13.35 169.003 13.35C169.623 13.35 169.933 13.0867 169.933 12.56V8.88C169.933 8.76 169.983 8.66 170.083 8.58C170.19 8.49333 170.337 8.45 170.523 8.45C170.77 8.45 170.957 8.5 171.083 8.6C171.217 8.7 171.283 8.84 171.283 9.02V12.31C171.283 12.9633 171.063 13.4333 170.623 13.72C170.183 14.0067 169.61 14.15 168.903 14.15ZM167.633 9.9C167.76 9.9 167.863 9.86333 167.943 9.79C168.023 9.71667 168.063 9.60667 168.063 9.46C168.063 9.31333 168.023 9.20333 167.943 9.13C167.863 9.05667 167.76 9.02 167.633 9.02C167.513 9.02 167.413 9.06 167.333 9.14C167.253 9.21333 167.213 9.32 167.213 9.46C167.213 9.6 167.253 9.71 167.333 9.79C167.413 9.86333 167.513 9.9 167.633 9.9ZM170.67 7.6C170.223 7.6 170 7.41 170 7.03V5.69C170 5.57 170.047 5.47 170.14 5.39C170.233 5.30333 170.367 5.26 170.54 5.26C170.753 5.26 170.92 5.31 171.04 5.41C171.153 5.51 171.21 5.65 171.21 5.83V7.17C171.21 7.29 171.16 7.39333 171.06 7.48C170.96 7.56 170.83 7.6 170.67 7.6ZM175.48 14.05C175.233 14.05 175.047 14 174.92 13.9C174.793 13.8 174.73 13.66 174.73 13.48V10.01C174.73 9.73 174.657 9.52333 174.51 9.39C174.37 9.25 174.173 9.18 173.92 9.18C173.753 9.18 173.58 9.20333 173.4 9.25C173.227 9.29667 173.027 9.36333 172.8 9.45C172.76 9.46333 172.697 9.48667 172.61 9.52C172.53 9.55333 172.467 9.57 172.42 9.57C172.347 9.57 172.28 9.54333 172.22 9.49C172.16 9.43 172.13 9.34333 172.13 9.23C172.13 9.11 172.163 9.01667 172.23 8.95C172.297 8.88333 172.393 8.81667 172.52 8.75C173.047 8.50333 173.583 8.38 174.13 8.38C174.483 8.38 174.807 8.44667 175.1 8.58C175.4 8.70667 175.637 8.9 175.81 9.16C175.99 9.42 176.08 9.74 176.08 10.12V13.64C176.08 13.76 176.027 13.86 175.92 13.94C175.813 14.0133 175.667 14.05 175.48 14.05ZM179.715 14.11C179.381 14.11 179.101 14.0133 178.875 13.82C178.655 13.6267 178.545 13.37 178.545 13.05C178.545 12.7567 178.638 12.5167 178.825 12.33C179.018 12.1367 179.275 12.0367 179.595 12.03H179.635C179.601 11.95 179.585 11.85 179.585 11.73V10.07C179.585 9.78333 179.508 9.56333 179.355 9.41C179.208 9.25667 179.001 9.18 178.735 9.18C178.435 9.18 178.051 9.27 177.585 9.45C177.545 9.46333 177.481 9.48667 177.395 9.52C177.315 9.55333 177.251 9.57 177.205 9.57C177.131 9.57 177.065 9.54333 177.005 9.49C176.945 9.43 176.915 9.34333 176.915 9.23C176.915 9.11 176.948 9.01667 177.015 8.95C177.081 8.88333 177.178 8.81667 177.305 8.75C177.545 8.63667 177.808 8.54667 178.095 8.48C178.381 8.41333 178.665 8.38 178.945 8.38C179.511 8.38 179.985 8.53667 180.365 8.85C180.745 9.15667 180.935 9.6 180.935 10.18V12.89C180.935 13.25 180.828 13.5433 180.615 13.77C180.401 13.9967 180.101 14.11 179.715 14.11ZM179.695 13.51C179.821 13.51 179.925 13.4733 180.005 13.4C180.085 13.3267 180.125 13.2167 180.125 13.07C180.125 12.9233 180.085 12.8133 180.005 12.74C179.925 12.6667 179.821 12.63 179.695 12.63C179.575 12.63 179.475 12.67 179.395 12.75C179.315 12.8233 179.275 12.93 179.275 13.07C179.275 13.21 179.315 13.32 179.395 13.4C179.475 13.4733 179.575 13.51 179.695 13.51ZM184.748 14.15C183.942 14.15 183.148 14.0267 182.368 13.78V11.87C182.368 11.4967 182.468 11.1967 182.668 10.97C182.875 10.7367 183.175 10.62 183.568 10.62C183.902 10.62 184.178 10.7167 184.398 10.91C184.625 11.1033 184.738 11.36 184.738 11.68C184.738 12 184.632 12.2533 184.418 12.44C184.205 12.6267 183.962 12.72 183.688 12.72H183.648C183.682 12.8733 183.698 13.0167 183.698 13.15V13.22C184.018 13.3067 184.368 13.35 184.748 13.35C185.208 13.35 185.555 13.1967 185.788 12.89C186.022 12.5833 186.138 12.06 186.138 11.32C186.138 9.89333 185.645 9.18 184.658 9.18C184.392 9.18 184.138 9.21 183.898 9.27C183.665 9.33 183.398 9.42 183.098 9.54C183.058 9.56 182.998 9.58667 182.918 9.62C182.845 9.64667 182.785 9.66 182.738 9.66C182.672 9.66 182.605 9.63667 182.538 9.59C182.478 9.53667 182.448 9.44333 182.448 9.31C182.448 9.18333 182.478 9.08667 182.538 9.02C182.605 8.94667 182.698 8.88 182.818 8.82C183.052 8.70667 183.348 8.60667 183.708 8.52C184.068 8.42667 184.415 8.38 184.748 8.38C185.595 8.38 186.265 8.63667 186.758 9.15C187.258 9.65667 187.508 10.38 187.508 11.32C187.508 12.2867 187.262 13 186.768 13.46C186.282 13.92 185.608 14.15 184.748 14.15ZM183.578 12.11C183.698 12.11 183.798 12.0733 183.878 12C183.958 11.92 183.998 11.81 183.998 11.67C183.998 11.53 183.958 11.4233 183.878 11.35C183.798 11.27 183.698 11.23 183.578 11.23C183.452 11.23 183.348 11.2667 183.268 11.34C183.188 11.4133 183.148 11.5233 183.148 11.67C183.148 11.8167 183.188 11.9267 183.268 12C183.348 12.0733 183.452 12.11 183.578 12.11ZM191.125 14.15C190.319 14.15 189.525 14.0267 188.745 13.78V11.87C188.745 11.4967 188.845 11.1967 189.045 10.97C189.252 10.7367 189.552 10.62 189.945 10.62C190.279 10.62 190.555 10.7167 190.775 10.91C191.002 11.1033 191.115 11.36 191.115 11.68C191.115 12 191.009 12.2533 190.795 12.44C190.582 12.6267 190.339 12.72 190.065 12.72H190.025C190.059 12.8733 190.075 13.0167 190.075 13.15V13.22C190.395 13.3067 190.745 13.35 191.125 13.35C191.585 13.35 191.932 13.1967 192.165 12.89C192.399 12.5833 192.515 12.06 192.515 11.32C192.515 9.89333 192.022 9.18 191.035 9.18C190.769 9.18 190.515 9.21 190.275 9.27C190.042 9.33 189.775 9.42 189.475 9.54C189.435 9.56 189.375 9.58667 189.295 9.62C189.222 9.64667 189.162 9.66 189.115 9.66C189.049 9.66 188.982 9.63667 188.915 9.59C188.855 9.53667 188.825 9.44333 188.825 9.31C188.825 9.18333 188.855 9.08667 188.915 9.02C188.982 8.94667 189.075 8.88 189.195 8.82C189.429 8.70667 189.725 8.60667 190.085 8.52C190.445 8.42667 190.792 8.38 191.125 8.38C191.972 8.38 192.642 8.63667 193.135 9.15C193.635 9.65667 193.885 10.38 193.885 11.32C193.885 12.2867 193.639 13 193.145 13.46C192.659 13.92 191.985 14.15 191.125 14.15ZM189.955 12.11C190.075 12.11 190.175 12.0733 190.255 12C190.335 11.92 190.375 11.81 190.375 11.67C190.375 11.53 190.335 11.4233 190.255 11.35C190.175 11.27 190.075 11.23 189.955 11.23C189.829 11.23 189.725 11.2667 189.645 11.34C189.565 11.4133 189.525 11.5233 189.525 11.67C189.525 11.8167 189.565 11.9267 189.645 12C189.725 12.0733 189.829 12.11 189.955 12.11ZM199.582 14.15C199.262 14.15 198.995 14.0533 198.782 13.86C198.575 13.6667 198.472 13.4133 198.472 13.1V13.05L196.822 14H195.252C195.179 14 195.115 13.9733 195.062 13.92C195.009 13.86 194.982 13.7767 194.982 13.67C194.982 13.5167 195.032 13.4 195.132 13.32C195.232 13.24 195.382 13.2 195.582 13.2H195.712V11.1C195.712 10.8933 195.729 10.6967 195.762 10.51H195.722C195.442 10.51 195.195 10.42 194.982 10.24C194.775 10.0533 194.672 9.79667 194.672 9.47C194.672 9.15 194.782 8.89333 195.002 8.7C195.229 8.50667 195.509 8.41 195.842 8.41C196.235 8.41 196.535 8.52667 196.742 8.76C196.955 8.98667 197.062 9.28667 197.062 9.66V12.29C197.062 12.43 197.055 12.5467 197.042 12.64C197.029 12.7333 197.005 12.84 196.972 12.96H197.012L198.642 12.02C198.749 11.96 198.819 11.8967 198.852 11.83C198.892 11.7567 198.912 11.6467 198.912 11.5V8.88C198.912 8.76 198.962 8.66 199.062 8.58C199.169 8.49333 199.315 8.45 199.502 8.45C199.749 8.45 199.935 8.5 200.062 8.6C200.195 8.7 200.262 8.84 200.262 9.02V11.4C200.262 11.6867 200.175 11.9233 200.002 12.11C200.215 12.1833 200.385 12.3067 200.512 12.48C200.639 12.6533 200.702 12.86 200.702 13.1C200.702 13.4133 200.595 13.6667 200.382 13.86C200.175 14.0533 199.909 14.15 199.582 14.15ZM195.832 9.9C195.959 9.9 196.062 9.86333 196.142 9.79C196.222 9.71667 196.262 9.60667 196.262 9.46C196.262 9.31333 196.222 9.20333 196.142 9.13C196.062 9.05667 195.959 9.02 195.832 9.02C195.712 9.02 195.612 9.06 195.532 9.14C195.452 9.21333 195.412 9.32 195.412 9.46C195.412 9.6 195.452 9.71 195.532 9.79C195.612 9.86333 195.712 9.9 195.832 9.9ZM199.592 13.56C199.719 13.56 199.825 13.52 199.912 13.44C199.999 13.36 200.042 13.2467 200.042 13.1C200.042 12.9533 199.999 12.84 199.912 12.76C199.825 12.68 199.719 12.64 199.592 12.64C199.472 12.64 199.369 12.6833 199.282 12.77C199.195 12.85 199.152 12.96 199.152 13.1C199.152 13.24 199.195 13.3533 199.282 13.44C199.369 13.52 199.472 13.56 199.592 13.56ZM204.771 14.11C204.378 14.11 204.074 13.9967 203.861 13.77C203.654 13.5367 203.551 13.2333 203.551 12.86V7.83C203.551 7.27 203.574 6.8 203.621 6.42H203.571L202.521 7.97H202.181L200.701 6.05C200.588 5.89667 200.531 5.75333 200.531 5.62C200.531 5.47333 200.584 5.36 200.691 5.28C200.791 5.19333 200.911 5.15 201.051 5.15C201.324 5.15 201.548 5.32 201.721 5.66L202.381 6.96H202.421L203.381 5.3C203.408 5.26 203.434 5.23 203.461 5.21C203.494 5.19 203.538 5.18 203.591 5.18H204.721C204.774 5.18 204.818 5.19667 204.851 5.23C204.884 5.25667 204.901 5.3 204.901 5.36V11.46C204.901 11.6267 204.884 11.81 204.851 12.01H204.891C205.164 12.01 205.408 12.1033 205.621 12.29C205.834 12.4767 205.941 12.73 205.941 13.05C205.941 13.37 205.828 13.6267 205.601 13.82C205.381 14.0133 205.104 14.11 204.771 14.11ZM204.781 13.5C204.901 13.5 205.001 13.4633 205.081 13.39C205.161 13.31 205.201 13.2 205.201 13.06C205.201 12.92 205.161 12.8133 205.081 12.74C205.001 12.66 204.901 12.62 204.781 12.62C204.654 12.62 204.551 12.6567 204.471 12.73C204.391 12.8033 204.351 12.9133 204.351 13.06C204.351 13.2067 204.391 13.3167 204.471 13.39C204.551 13.4633 204.654 13.5 204.781 13.5ZM207.825 14.11C207.438 14.11 207.138 13.9967 206.925 13.77C206.718 13.5433 206.615 13.25 206.615 12.89V12.22C206.615 11.3667 207.155 10.8633 208.235 10.71L210.155 10.43V10.16C210.155 9.85333 210.048 9.61333 209.835 9.44C209.628 9.26667 209.335 9.18 208.955 9.18C208.541 9.18 208.045 9.29667 207.465 9.53C207.425 9.54333 207.361 9.56667 207.275 9.6C207.195 9.63333 207.131 9.65 207.085 9.65C207.018 9.65 206.955 9.62667 206.895 9.58C206.835 9.52667 206.805 9.43333 206.805 9.3C206.805 9.18 206.835 9.08667 206.895 9.02C206.961 8.94667 207.058 8.88 207.185 8.82C207.411 8.70667 207.708 8.60667 208.075 8.52C208.448 8.42667 208.781 8.38 209.075 8.38C209.828 8.38 210.421 8.55667 210.855 8.91C211.288 9.26333 211.505 9.78333 211.505 10.47V13.64C211.505 13.76 211.451 13.86 211.345 13.94C211.238 14.0133 211.091 14.05 210.905 14.05C210.658 14.05 210.471 14 210.345 13.9C210.218 13.8 210.155 13.66 210.155 13.48V11.25L208.515 11.49C208.321 11.5167 208.178 11.5633 208.085 11.63C207.991 11.6967 207.945 11.8 207.945 11.94V12.03H208.025C208.325 12.0433 208.561 12.1467 208.735 12.34C208.908 12.5267 208.995 12.7633 208.995 13.05C208.995 13.37 208.881 13.6267 208.655 13.82C208.435 14.0133 208.158 14.11 207.825 14.11ZM207.845 13.51C207.965 13.51 208.065 13.4733 208.145 13.4C208.225 13.32 208.265 13.21 208.265 13.07C208.265 12.93 208.225 12.8233 208.145 12.75C208.065 12.67 207.965 12.63 207.845 12.63C207.718 12.63 207.615 12.6667 207.535 12.74C207.455 12.8133 207.415 12.9233 207.415 13.07C207.415 13.2167 207.455 13.3267 207.535 13.4C207.615 13.4733 207.718 13.51 207.845 13.51ZM217.395 14.15C217.075 14.15 216.808 14.0533 216.595 13.86C216.388 13.6667 216.285 13.4133 216.285 13.1V13.05L214.635 14H213.065C212.991 14 212.928 13.9733 212.875 13.92C212.821 13.86 212.795 13.7767 212.795 13.67C212.795 13.5167 212.845 13.4 212.945 13.32C213.045 13.24 213.195 13.2 213.395 13.2H213.525V11.1C213.525 10.8933 213.541 10.6967 213.575 10.51H213.535C213.255 10.51 213.008 10.42 212.795 10.24C212.588 10.0533 212.485 9.79667 212.485 9.47C212.485 9.15 212.595 8.89333 212.815 8.7C213.041 8.50667 213.321 8.41 213.655 8.41C214.048 8.41 214.348 8.52667 214.555 8.76C214.768 8.98667 214.875 9.28667 214.875 9.66V12.29C214.875 12.43 214.868 12.5467 214.855 12.64C214.841 12.7333 214.818 12.84 214.785 12.96H214.825L216.455 12.02C216.561 11.96 216.631 11.8967 216.665 11.83C216.705 11.7567 216.725 11.6467 216.725 11.5V8.88C216.725 8.76 216.775 8.66 216.875 8.58C216.981 8.49333 217.128 8.45 217.315 8.45C217.561 8.45 217.748 8.5 217.875 8.6C218.008 8.7 218.075 8.84 218.075 9.02V11.4C218.075 11.6867 217.988 11.9233 217.815 12.11C218.028 12.1833 218.198 12.3067 218.325 12.48C218.451 12.6533 218.515 12.86 218.515 13.1C218.515 13.4133 218.408 13.6667 218.195 13.86C217.988 14.0533 217.721 14.15 217.395 14.15ZM213.645 9.9C213.771 9.9 213.875 9.86333 213.955 9.79C214.035 9.71667 214.075 9.60667 214.075 9.46C214.075 9.31333 214.035 9.20333 213.955 9.13C213.875 9.05667 213.771 9.02 213.645 9.02C213.525 9.02 213.425 9.06 213.345 9.14C213.265 9.21333 213.225 9.32 213.225 9.46C213.225 9.6 213.265 9.71 213.345 9.79C213.425 9.86333 213.525 9.9 213.645 9.9ZM217.405 13.56C217.531 13.56 217.638 13.52 217.725 13.44C217.811 13.36 217.855 13.2467 217.855 13.1C217.855 12.9533 217.811 12.84 217.725 12.76C217.638 12.68 217.531 12.64 217.405 12.64C217.285 12.64 217.181 12.6833 217.095 12.77C217.008 12.85 216.965 12.96 216.965 13.1C216.965 13.24 217.008 13.3533 217.095 13.44C217.181 13.52 217.285 13.56 217.405 13.56ZM216.157 7.73C215.884 7.73 215.657 7.64667 215.477 7.48C215.29 7.30667 215.197 7.07333 215.197 6.78C215.197 6.49333 215.3 6.26667 215.507 6.1C215.714 5.92667 215.974 5.84 216.287 5.84H218.377C218.47 5.84 218.547 5.88 218.607 5.96C218.667 6.03333 218.697 6.13333 218.697 6.26C218.697 6.64667 218.56 6.84 218.287 6.84H217.267C217.154 6.84 217.064 6.80333 216.997 6.73L216.967 6.75C216.994 6.84333 217.007 6.91333 217.007 6.96C217.007 7.19333 216.924 7.38 216.757 7.52C216.584 7.66 216.384 7.73 216.157 7.73ZM216.157 7.21C216.257 7.21 216.34 7.17667 216.407 7.11C216.474 7.04333 216.507 6.95333 216.507 6.84C216.507 6.73333 216.477 6.65 216.417 6.59C216.35 6.52333 216.264 6.49 216.157 6.49C216.057 6.49 215.974 6.52333 215.907 6.59C215.84 6.65 215.807 6.73333 215.807 6.84C215.807 6.95333 215.84 7.04333 215.907 7.11C215.967 7.17667 216.05 7.21 216.157 7.21Z" fill="#5773DC"/>
<path d="M224.1 14.11C223.373 14.11 222.787 13.95 222.34 13.63C221.9 13.3033 221.68 12.8567 221.68 12.29C221.68 11.9233 221.823 11.58 222.11 11.26C222.397 10.94 222.817 10.6567 223.37 10.41C222.883 10.15 222.523 9.88 222.29 9.6C222.057 9.32 221.94 9 221.94 8.64C221.94 8.34 222.03 8.07 222.21 7.83C222.39 7.58333 222.643 7.39 222.97 7.25C223.303 7.11 223.683 7.04 224.11 7.04C224.55 7.04 224.93 7.11 225.25 7.25C225.57 7.38333 225.813 7.57333 225.98 7.82C226.153 8.06 226.24 8.33333 226.24 8.64C226.24 8.98667 226.127 9.30333 225.9 9.59C225.673 9.87 225.313 10.14 224.82 10.4C225.42 10.68 225.85 10.97 226.11 11.27C226.377 11.5633 226.51 11.89 226.51 12.25C226.51 12.6233 226.407 12.95 226.2 13.23C226 13.51 225.717 13.7267 225.35 13.88C224.99 14.0333 224.573 14.11 224.1 14.11ZM224.13 10.09C224.557 9.89 224.887 9.67333 225.12 9.44C225.353 9.20667 225.47 8.94333 225.47 8.65C225.47 8.31667 225.34 8.05667 225.08 7.87C224.827 7.67667 224.5 7.58 224.1 7.58C223.707 7.58 223.383 7.67667 223.13 7.87C222.877 8.05667 222.75 8.31667 222.75 8.65C222.75 8.95 222.867 9.20667 223.1 9.42C223.333 9.63333 223.677 9.85667 224.13 10.09ZM224.08 13.57C224.553 13.57 224.94 13.4567 225.24 13.23C225.54 13.0033 225.69 12.69 225.69 12.29C225.69 11.97 225.55 11.6833 225.27 11.43C224.99 11.1767 224.593 10.9433 224.08 10.73C223.573 10.9367 223.177 11.17 222.89 11.43C222.603 11.6833 222.46 11.9767 222.46 12.31C222.46 12.7033 222.607 13.0133 222.9 13.24C223.2 13.46 223.593 13.57 224.08 13.57ZM230.291 14.11C229.565 14.11 228.978 13.95 228.531 13.63C228.091 13.3033 227.871 12.8567 227.871 12.29C227.871 11.9233 228.015 11.58 228.301 11.26C228.588 10.94 229.008 10.6567 229.561 10.41C229.075 10.15 228.715 9.88 228.481 9.6C228.248 9.32 228.131 9 228.131 8.64C228.131 8.34 228.221 8.07 228.401 7.83C228.581 7.58333 228.835 7.39 229.161 7.25C229.495 7.11 229.875 7.04 230.301 7.04C230.741 7.04 231.121 7.11 231.441 7.25C231.761 7.38333 232.005 7.57333 232.171 7.82C232.345 8.06 232.431 8.33333 232.431 8.64C232.431 8.98667 232.318 9.30333 232.091 9.59C231.865 9.87 231.505 10.14 231.011 10.4C231.611 10.68 232.041 10.97 232.301 11.27C232.568 11.5633 232.701 11.89 232.701 12.25C232.701 12.6233 232.598 12.95 232.391 13.23C232.191 13.51 231.908 13.7267 231.541 13.88C231.181 14.0333 230.765 14.11 230.291 14.11ZM230.321 10.09C230.748 9.89 231.078 9.67333 231.311 9.44C231.545 9.20667 231.661 8.94333 231.661 8.65C231.661 8.31667 231.531 8.05667 231.271 7.87C231.018 7.67667 230.691 7.58 230.291 7.58C229.898 7.58 229.575 7.67667 229.321 7.87C229.068 8.05667 228.941 8.31667 228.941 8.65C228.941 8.95 229.058 9.20667 229.291 9.42C229.525 9.63333 229.868 9.85667 230.321 10.09ZM230.271 13.57C230.745 13.57 231.131 13.4567 231.431 13.23C231.731 13.0033 231.881 12.69 231.881 12.29C231.881 11.97 231.741 11.6833 231.461 11.43C231.181 11.1767 230.785 10.9433 230.271 10.73C229.765 10.9367 229.368 11.17 229.081 11.43C228.795 11.6833 228.651 11.9767 228.651 12.31C228.651 12.7033 228.798 13.0133 229.091 13.24C229.391 13.46 229.785 13.57 230.271 13.57ZM235.373 10.33C234.933 10.33 234.579 10.1833 234.313 9.89C234.046 9.59667 233.913 9.19333 233.913 8.68C233.913 8.17333 234.046 7.77333 234.313 7.48C234.586 7.18 234.939 7.03 235.373 7.03C235.813 7.03 236.166 7.18 236.433 7.48C236.706 7.77333 236.843 8.17333 236.843 8.68C236.843 9.19333 236.706 9.59667 236.433 9.89C236.166 10.1833 235.813 10.33 235.373 10.33ZM234.733 13.7L239.433 7.03L240.023 7.41L235.303 14.07L234.733 13.7ZM235.373 9.82C235.613 9.82 235.809 9.72333 235.963 9.53C236.123 9.33667 236.203 9.05333 236.203 8.68C236.203 8.30667 236.123 8.02333 235.963 7.83C235.809 7.63 235.613 7.53 235.373 7.53C235.126 7.53 234.926 7.62667 234.773 7.82C234.619 8.01333 234.543 8.3 234.543 8.68C234.543 9.05333 234.619 9.33667 234.773 9.53C234.926 9.72333 235.126 9.82 235.373 9.82ZM239.373 14.12C238.933 14.12 238.579 13.9733 238.313 13.68C238.046 13.3867 237.913 12.9833 237.913 12.47C237.913 11.9633 238.046 11.5633 238.313 11.27C238.586 10.97 238.939 10.82 239.373 10.82C239.813 10.82 240.166 10.97 240.433 11.27C240.706 11.5633 240.843 11.9633 240.843 12.47C240.843 12.9833 240.706 13.3867 240.433 13.68C240.166 13.9733 239.813 14.12 239.373 14.12ZM239.373 13.61C239.613 13.61 239.809 13.5133 239.963 13.32C240.123 13.1267 240.203 12.8433 240.203 12.47C240.203 12.0967 240.123 11.8133 239.963 11.62C239.809 11.42 239.613 11.32 239.373 11.32C239.126 11.32 238.926 11.4167 238.773 11.61C238.619 11.8033 238.543 12.09 238.543 12.47C238.543 12.8433 238.619 13.1267 238.773 13.32C238.926 13.5133 239.126 13.61 239.373 13.61Z" fill="#5773DC"/>
<path d="M173.842 32.11C173.456 32.11 173.156 31.9967 172.942 31.77C172.736 31.5433 172.632 31.25 172.632 30.89V30.22C172.632 29.3667 173.172 28.8633 174.252 28.71L176.172 28.43V28.16C176.172 27.8533 176.066 27.6133 175.852 27.44C175.646 27.2667 175.352 27.18 174.972 27.18C174.559 27.18 174.062 27.2967 173.482 27.53C173.442 27.5433 173.379 27.5667 173.292 27.6C173.212 27.6333 173.149 27.65 173.102 27.65C173.036 27.65 172.972 27.6267 172.912 27.58C172.852 27.5267 172.822 27.4333 172.822 27.3C172.822 27.18 172.852 27.0867 172.912 27.02C172.979 26.9467 173.076 26.88 173.202 26.82C173.429 26.7067 173.726 26.6067 174.092 26.52C174.466 26.4267 174.799 26.38 175.092 26.38C175.859 26.38 176.452 26.5567 176.872 26.91C177.146 26.8033 177.429 26.6567 177.722 26.47C177.802 26.4167 177.866 26.38 177.912 26.36C177.966 26.34 178.022 26.33 178.082 26.33C178.216 26.33 178.319 26.37 178.392 26.45C178.466 26.5233 178.502 26.6167 178.502 26.73C178.502 27.0033 178.326 27.22 177.972 27.38C177.786 27.46 177.579 27.52 177.352 27.56C177.466 27.8267 177.522 28.13 177.522 28.47V31.64C177.522 31.76 177.469 31.86 177.362 31.94C177.256 32.0133 177.109 32.05 176.922 32.05C176.676 32.05 176.489 32 176.362 31.9C176.236 31.8 176.172 31.66 176.172 31.48V29.25L174.532 29.49C174.339 29.5167 174.196 29.5633 174.102 29.63C174.009 29.6967 173.962 29.8 173.962 29.94V30.03H174.042C174.342 30.0433 174.579 30.1467 174.752 30.34C174.926 30.5267 175.012 30.7633 175.012 31.05C175.012 31.37 174.899 31.6267 174.672 31.82C174.452 32.0133 174.176 32.11 173.842 32.11ZM173.862 31.51C173.982 31.51 174.082 31.4733 174.162 31.4C174.242 31.32 174.282 31.21 174.282 31.07C174.282 30.93 174.242 30.8233 174.162 30.75C174.082 30.67 173.982 30.63 173.862 30.63C173.736 30.63 173.632 30.6667 173.552 30.74C173.472 30.8133 173.432 30.9233 173.432 31.07C173.432 31.2167 173.472 31.3267 173.552 31.4C173.632 31.4733 173.736 31.51 173.862 31.51ZM172.872 25.16C172.999 24.7733 173.272 24.4533 173.692 24.2C174.112 23.94 174.609 23.81 175.182 23.81C175.362 23.81 175.559 23.8267 175.772 23.86V23.7C175.772 23.5267 175.862 23.44 176.042 23.44C176.162 23.44 176.256 23.4733 176.322 23.54C176.389 23.6 176.422 23.6833 176.422 23.79V24.06C176.562 24.1333 176.702 24.2167 176.842 24.31V23.7C176.842 23.5267 176.932 23.44 177.112 23.44C177.366 23.44 177.492 23.59 177.492 23.89V25.5C177.492 25.56 177.476 25.6067 177.442 25.64C177.409 25.6667 177.366 25.68 177.312 25.68H173.052C172.999 25.68 172.956 25.6667 172.922 25.64C172.889 25.6067 172.872 25.56 172.872 25.5V25.16ZM176.352 25.06C176.292 24.9067 176.156 24.7767 175.942 24.67C175.729 24.5633 175.476 24.51 175.182 24.51C174.889 24.51 174.636 24.5633 174.422 24.67C174.209 24.7767 174.072 24.9067 174.012 25.06H176.352ZM177.091 23.2C176.691 23.2 176.491 23.01 176.491 22.63V21.49C176.491 21.3633 176.531 21.26 176.611 21.18C176.691 21.1 176.808 21.06 176.961 21.06C177.175 21.06 177.328 21.11 177.421 21.21C177.508 21.3033 177.551 21.4433 177.551 21.63V22.77C177.551 22.8967 177.515 23 177.441 23.08C177.361 23.16 177.245 23.2 177.091 23.2ZM181.752 32.15C180.945 32.15 180.152 32.0267 179.372 31.78V29.87C179.372 29.4967 179.472 29.1967 179.672 28.97C179.879 28.7367 180.179 28.62 180.572 28.62C180.905 28.62 181.182 28.7167 181.402 28.91C181.629 29.1033 181.742 29.36 181.742 29.68C181.742 30 181.635 30.2533 181.422 30.44C181.209 30.6267 180.965 30.72 180.692 30.72H180.652C180.685 30.8733 180.702 31.0167 180.702 31.15V31.22C181.022 31.3067 181.372 31.35 181.752 31.35C182.212 31.35 182.559 31.1967 182.792 30.89C183.025 30.5833 183.142 30.06 183.142 29.32C183.142 27.8933 182.649 27.18 181.662 27.18C181.395 27.18 181.142 27.21 180.902 27.27C180.669 27.33 180.402 27.42 180.102 27.54C180.062 27.56 180.002 27.5867 179.922 27.62C179.849 27.6467 179.789 27.66 179.742 27.66C179.675 27.66 179.609 27.6367 179.542 27.59C179.482 27.5367 179.452 27.4433 179.452 27.31C179.452 27.1833 179.482 27.0867 179.542 27.02C179.609 26.9467 179.702 26.88 179.822 26.82C180.055 26.7067 180.352 26.6067 180.712 26.52C181.072 26.4267 181.419 26.38 181.752 26.38C182.599 26.38 183.269 26.6367 183.762 27.15C184.262 27.6567 184.512 28.38 184.512 29.32C184.512 30.2867 184.265 31 183.772 31.46C183.285 31.92 182.612 32.15 181.752 32.15ZM180.582 30.11C180.702 30.11 180.802 30.0733 180.882 30C180.962 29.92 181.002 29.81 181.002 29.67C181.002 29.53 180.962 29.4233 180.882 29.35C180.802 29.27 180.702 29.23 180.582 29.23C180.455 29.23 180.352 29.2667 180.272 29.34C180.192 29.4133 180.152 29.5233 180.152 29.67C180.152 29.8167 180.192 29.9267 180.272 30C180.352 30.0733 180.455 30.11 180.582 30.11ZM187.739 32.11C187.346 32.11 187.042 31.9967 186.829 31.77C186.622 31.5367 186.519 31.2333 186.519 30.86V26.06C186.519 25.8933 186.479 25.7733 186.399 25.7C186.326 25.6267 186.192 25.5733 185.999 25.54L184.909 25.37V24.84C184.909 24.4867 185.009 24.1767 185.209 23.91C185.416 23.6433 185.689 23.44 186.029 23.3C186.376 23.16 186.752 23.09 187.159 23.09C187.439 23.09 187.726 23.12 188.019 23.18C188.312 23.2333 188.572 23.3067 188.799 23.4C188.926 23.4533 189.022 23.5167 189.089 23.59C189.156 23.6567 189.189 23.75 189.189 23.87C189.189 23.9833 189.159 24.07 189.099 24.13C189.046 24.1833 188.982 24.21 188.909 24.21C188.876 24.21 188.742 24.1733 188.509 24.1C188.062 23.96 187.669 23.89 187.329 23.89C187.029 23.89 186.776 23.96 186.569 24.1C186.362 24.24 186.259 24.4267 186.259 24.66V24.77L186.729 24.85C187.142 24.9167 187.436 25.0367 187.609 25.21C187.782 25.3767 187.869 25.6567 187.869 26.05V29.42C187.869 29.6267 187.852 29.8233 187.819 30.01H187.859C188.132 30.01 188.376 30.1033 188.589 30.29C188.802 30.4767 188.909 30.73 188.909 31.05C188.909 31.37 188.796 31.6267 188.569 31.82C188.349 32.0133 188.072 32.11 187.739 32.11ZM187.749 31.5C187.869 31.5 187.969 31.4633 188.049 31.39C188.129 31.31 188.169 31.2 188.169 31.06C188.169 30.92 188.129 30.8133 188.049 30.74C187.969 30.66 187.869 30.62 187.749 30.62C187.622 30.62 187.519 30.6567 187.439 30.73C187.359 30.8033 187.319 30.9133 187.319 31.06C187.319 31.2067 187.359 31.3167 187.439 31.39C187.519 31.4633 187.622 31.5 187.749 31.5ZM194.574 32.05C194.328 32.05 194.138 32 194.004 31.9C193.878 31.8 193.814 31.66 193.814 31.48V27.61C193.814 27.5633 193.801 27.5267 193.774 27.5C193.748 27.4667 193.714 27.45 193.674 27.45C193.628 27.45 193.591 27.4667 193.564 27.5C193.538 27.5333 193.508 27.59 193.474 27.67L191.914 31.84C191.894 31.8933 191.868 31.9333 191.834 31.96C191.801 31.9867 191.758 32 191.704 32H189.874C189.801 32 189.738 31.9733 189.684 31.92C189.631 31.86 189.604 31.7767 189.604 31.67C189.604 31.5167 189.654 31.4 189.754 31.32C189.854 31.24 190.004 31.2 190.204 31.2H190.334V29.1C190.334 28.8933 190.351 28.6967 190.384 28.51H190.344C190.058 28.51 189.801 28.42 189.574 28.24C189.354 28.0533 189.244 27.7967 189.244 27.47C189.244 27.15 189.354 26.8933 189.574 26.7C189.801 26.5067 190.081 26.41 190.414 26.41C190.808 26.41 191.108 26.5267 191.314 26.76C191.528 26.9867 191.634 27.2867 191.634 27.66V28.94C191.634 29.4133 191.604 29.92 191.544 30.46H191.584L192.654 27.55C192.794 27.1767 192.968 26.8933 193.174 26.7C193.381 26.5067 193.651 26.41 193.984 26.41C194.371 26.41 194.664 26.5267 194.864 26.76C195.064 26.9933 195.164 27.3033 195.164 27.69V31.64C195.164 31.76 195.111 31.86 195.004 31.94C194.904 32.0133 194.761 32.05 194.574 32.05ZM190.404 27.9C190.531 27.9 190.634 27.8633 190.714 27.79C190.794 27.7167 190.834 27.6067 190.834 27.46C190.834 27.3133 190.794 27.2033 190.714 27.13C190.634 27.0567 190.531 27.02 190.404 27.02C190.284 27.02 190.184 27.06 190.104 27.14C190.024 27.2133 189.984 27.32 189.984 27.46C189.984 27.6 190.024 27.71 190.104 27.79C190.184 27.8633 190.284 27.9 190.404 27.9ZM198.289 32.11C197.955 32.11 197.675 32.0133 197.449 31.82C197.229 31.6267 197.119 31.37 197.119 31.05C197.119 30.7567 197.212 30.5167 197.399 30.33C197.592 30.1367 197.849 30.0367 198.169 30.03H198.209C198.175 29.95 198.159 29.85 198.159 29.73V29.56C198.159 29.3933 198.119 29.2733 198.039 29.2C197.965 29.1267 197.832 29.0733 197.639 29.04L196.109 28.8V28.19C196.109 27.59 196.315 27.14 196.729 26.84C197.142 26.5333 197.652 26.38 198.259 26.38C198.785 26.38 199.285 26.49 199.759 26.71C199.885 26.7767 199.982 26.8433 200.049 26.91C200.115 26.9767 200.149 27.07 200.149 27.19C200.149 27.3033 200.119 27.39 200.059 27.45C199.999 27.5033 199.932 27.53 199.859 27.53C199.812 27.53 199.745 27.5133 199.659 27.48C199.579 27.4467 199.519 27.4233 199.479 27.41C199.092 27.2633 198.742 27.19 198.429 27.19C198.142 27.19 197.909 27.26 197.729 27.4C197.549 27.5333 197.459 27.76 197.459 28.08V28.19L198.369 28.35C198.782 28.4233 199.075 28.5467 199.249 28.72C199.422 28.8933 199.509 29.17 199.509 29.55V30.89C199.509 31.25 199.402 31.5433 199.189 31.77C198.975 31.9967 198.675 32.11 198.289 32.11ZM198.269 31.51C198.395 31.51 198.499 31.4733 198.579 31.4C198.659 31.3267 198.699 31.2167 198.699 31.07C198.699 30.9233 198.659 30.8133 198.579 30.74C198.499 30.6667 198.395 30.63 198.269 30.63C198.149 30.63 198.049 30.67 197.969 30.75C197.889 30.8233 197.849 30.93 197.849 31.07C197.849 31.21 197.889 31.32 197.969 31.4C198.049 31.4733 198.149 31.51 198.269 31.51ZM205.893 32.05C205.646 32.05 205.456 32 205.323 31.9C205.196 31.8 205.133 31.66 205.133 31.48V27.61C205.133 27.5633 205.119 27.5267 205.093 27.5C205.066 27.4667 205.033 27.45 204.993 27.45C204.946 27.45 204.909 27.4667 204.883 27.5C204.856 27.5333 204.826 27.59 204.793 27.67L203.233 31.84C203.213 31.8933 203.186 31.9333 203.153 31.96C203.119 31.9867 203.076 32 203.023 32H201.193C201.119 32 201.056 31.9733 201.003 31.92C200.949 31.86 200.923 31.7767 200.923 31.67C200.923 31.5167 200.973 31.4 201.073 31.32C201.173 31.24 201.323 31.2 201.523 31.2H201.653V29.1C201.653 28.8933 201.669 28.6967 201.703 28.51H201.663C201.376 28.51 201.119 28.42 200.893 28.24C200.673 28.0533 200.563 27.7967 200.563 27.47C200.563 27.15 200.673 26.8933 200.893 26.7C201.119 26.5067 201.399 26.41 201.733 26.41C202.126 26.41 202.426 26.5267 202.633 26.76C202.846 26.9867 202.953 27.2867 202.953 27.66V28.94C202.953 29.4133 202.923 29.92 202.863 30.46H202.903L203.973 27.55C204.113 27.1767 204.286 26.8933 204.493 26.7C204.699 26.5067 204.969 26.41 205.303 26.41C205.689 26.41 205.983 26.5267 206.183 26.76C206.383 26.9933 206.483 27.3033 206.483 27.69V31.64C206.483 31.76 206.429 31.86 206.323 31.94C206.223 32.0133 206.079 32.05 205.893 32.05ZM201.723 27.9C201.849 27.9 201.953 27.8633 202.033 27.79C202.113 27.7167 202.153 27.6067 202.153 27.46C202.153 27.3133 202.113 27.2033 202.033 27.13C201.953 27.0567 201.849 27.02 201.723 27.02C201.603 27.02 201.503 27.06 201.423 27.14C201.343 27.2133 201.303 27.32 201.303 27.46C201.303 27.6 201.343 27.71 201.423 27.79C201.503 27.8633 201.603 27.9 201.723 27.9ZM205.637 25.7C205.31 25.7 205 25.65 204.707 25.55C204.407 25.45 204.167 25.3033 203.987 25.11C203.8 24.91 203.707 24.6733 203.707 24.4C203.707 24.1267 203.797 23.9067 203.977 23.74C204.15 23.5733 204.374 23.49 204.647 23.49C204.907 23.49 205.127 23.57 205.307 23.73C205.487 23.89 205.577 24.0933 205.577 24.34C205.577 24.44 205.557 24.5367 205.517 24.63C205.477 24.7233 205.427 24.7967 205.367 24.85L205.377 24.88C205.417 24.8867 205.487 24.89 205.587 24.89C205.827 24.89 206.06 24.8233 206.287 24.69C206.514 24.5567 206.7 24.3467 206.847 24.06C206.874 24.0067 206.91 23.9333 206.957 23.84C206.997 23.74 207.044 23.6667 207.097 23.62C207.144 23.5667 207.21 23.54 207.297 23.54C207.477 23.54 207.62 23.59 207.727 23.69C207.834 23.7833 207.887 23.91 207.887 24.07C207.887 24.3033 207.794 24.55 207.607 24.81C207.394 25.1033 207.117 25.3267 206.777 25.48C206.43 25.6267 206.05 25.7 205.637 25.7ZM204.647 24.78C204.76 24.78 204.854 24.7433 204.927 24.67C205 24.5967 205.037 24.4967 205.037 24.37C205.037 24.2433 205 24.1433 204.927 24.07C204.854 23.99 204.76 23.95 204.647 23.95C204.527 23.95 204.43 23.99 204.357 24.07C204.284 24.1433 204.247 24.2433 204.247 24.37C204.247 24.4967 204.284 24.5967 204.357 24.67C204.43 24.7433 204.527 24.78 204.647 24.78ZM212.727 32.05C212.48 32.05 212.294 32 212.167 31.9C212.04 31.8 211.977 31.66 211.977 31.48V28.56C211.977 28.1333 211.847 27.7967 211.587 27.55C211.327 27.3033 210.987 27.18 210.567 27.18C210.147 27.18 209.807 27.3033 209.547 27.55C209.287 27.7967 209.157 28.1333 209.157 28.56C209.157 29.3067 209.12 30.1333 209.047 31.04H209.087L209.687 29.12C209.767 28.8733 209.89 28.69 210.057 28.57C210.23 28.4433 210.44 28.38 210.687 28.38C210.96 28.38 211.187 28.4633 211.367 28.63C211.547 28.7967 211.637 29.0233 211.637 29.31C211.637 29.5833 211.55 29.81 211.377 29.99C211.204 30.17 210.974 30.26 210.687 30.26C210.52 30.26 210.364 30.2233 210.217 30.15L209.687 31.8C209.647 31.9333 209.56 32 209.427 32H208.067C208.014 32 207.97 31.9867 207.937 31.96C207.904 31.9267 207.887 31.88 207.887 31.82V28.67C207.887 28.1833 208.004 27.77 208.237 27.43C208.477 27.0833 208.8 26.8233 209.207 26.65C209.62 26.47 210.08 26.38 210.587 26.38C211.354 26.38 211.98 26.56 212.467 26.92C212.774 26.8067 213.07 26.6567 213.357 26.47C213.437 26.4167 213.5 26.38 213.547 26.36C213.6 26.34 213.657 26.33 213.717 26.33C213.85 26.33 213.954 26.37 214.027 26.45C214.1 26.5233 214.137 26.6167 214.137 26.73C214.137 27.0033 213.96 27.22 213.607 27.38C213.467 27.4467 213.277 27.5033 213.037 27.55C213.23 27.8633 213.327 28.2367 213.327 28.67V31.64C213.327 31.76 213.274 31.86 213.167 31.94C213.06 32.0133 212.914 32.05 212.727 32.05ZM210.667 29.75C210.774 29.75 210.867 29.7133 210.947 29.64C211.027 29.56 211.067 29.4533 211.067 29.32C211.067 29.1867 211.027 29.0833 210.947 29.01C210.867 28.93 210.774 28.89 210.667 28.89C210.554 28.89 210.457 28.93 210.377 29.01C210.297 29.0833 210.257 29.1867 210.257 29.32C210.257 29.4533 210.297 29.56 210.377 29.64C210.457 29.7133 210.554 29.75 210.667 29.75ZM219.389 32.15C219.069 32.15 218.802 32.0533 218.589 31.86C218.382 31.6667 218.279 31.4133 218.279 31.1V31.05L216.629 32H215.059C214.985 32 214.922 31.9733 214.869 31.92C214.815 31.86 214.789 31.7767 214.789 31.67C214.789 31.5167 214.839 31.4 214.939 31.32C215.039 31.24 215.189 31.2 215.389 31.2H215.519V29.1C215.519 28.8933 215.535 28.6967 215.569 28.51H215.529C215.249 28.51 215.002 28.42 214.789 28.24C214.582 28.0533 214.479 27.7967 214.479 27.47C214.479 27.15 214.589 26.8933 214.809 26.7C215.035 26.5067 215.315 26.41 215.649 26.41C216.042 26.41 216.342 26.5267 216.549 26.76C216.762 26.9867 216.869 27.2867 216.869 27.66V30.29C216.869 30.43 216.862 30.5467 216.849 30.64C216.835 30.7333 216.812 30.84 216.779 30.96H216.819L218.449 30.02C218.555 29.96 218.625 29.8967 218.659 29.83C218.699 29.7567 218.719 29.6467 218.719 29.5V26.88C218.719 26.76 218.769 26.66 218.869 26.58C218.975 26.4933 219.122 26.45 219.309 26.45C219.555 26.45 219.742 26.5 219.869 26.6C220.002 26.7 220.069 26.84 220.069 27.02V29.4C220.069 29.6867 219.982 29.9233 219.809 30.11C220.022 30.1833 220.192 30.3067 220.319 30.48C220.445 30.6533 220.509 30.86 220.509 31.1C220.509 31.4133 220.402 31.6667 220.189 31.86C219.982 32.0533 219.715 32.15 219.389 32.15ZM215.639 27.9C215.765 27.9 215.869 27.8633 215.949 27.79C216.029 27.7167 216.069 27.6067 216.069 27.46C216.069 27.3133 216.029 27.2033 215.949 27.13C215.869 27.0567 215.765 27.02 215.639 27.02C215.519 27.02 215.419 27.06 215.339 27.14C215.259 27.2133 215.219 27.32 215.219 27.46C215.219 27.6 215.259 27.71 215.339 27.79C215.419 27.8633 215.519 27.9 215.639 27.9ZM219.399 31.56C219.525 31.56 219.632 31.52 219.719 31.44C219.805 31.36 219.849 31.2467 219.849 31.1C219.849 30.9533 219.805 30.84 219.719 30.76C219.632 30.68 219.525 30.64 219.399 30.64C219.279 30.64 219.175 30.6833 219.089 30.77C219.002 30.85 218.959 30.96 218.959 31.1C218.959 31.24 219.002 31.3533 219.089 31.44C219.175 31.52 219.279 31.56 219.399 31.56ZM218.151 25.73C217.878 25.73 217.651 25.6467 217.471 25.48C217.285 25.3067 217.191 25.0733 217.191 24.78C217.191 24.4933 217.295 24.2667 217.501 24.1C217.708 23.9267 217.968 23.84 218.281 23.84H220.371C220.465 23.84 220.541 23.88 220.601 23.96C220.661 24.0333 220.691 24.1333 220.691 24.26C220.691 24.6467 220.555 24.84 220.281 24.84H219.261C219.148 24.84 219.058 24.8033 218.991 24.73L218.961 24.75C218.988 24.8433 219.001 24.9133 219.001 24.96C219.001 25.1933 218.918 25.38 218.751 25.52C218.578 25.66 218.378 25.73 218.151 25.73ZM218.151 25.21C218.251 25.21 218.335 25.1767 218.401 25.11C218.468 25.0433 218.501 24.9533 218.501 24.84C218.501 24.7333 218.471 24.65 218.411 24.59C218.345 24.5233 218.258 24.49 218.151 24.49C218.051 24.49 217.968 24.5233 217.901 24.59C217.835 24.65 217.801 24.7333 217.801 24.84C217.801 24.9533 217.835 25.0433 217.901 25.11C217.961 25.1767 218.045 25.21 218.151 25.21Z" fill="#939393"/>
<path d="M225.48 32.1C224.76 32.1 224.093 31.9733 223.48 31.72V31.15C223.773 31.27 224.083 31.37 224.41 31.45C224.743 31.5233 225.067 31.56 225.38 31.56C225.907 31.56 226.333 31.43 226.66 31.17C226.987 30.91 227.15 30.53 227.15 30.03C227.15 29.47 226.993 29.0633 226.68 28.81C226.367 28.55 225.953 28.42 225.44 28.42C225.06 28.42 224.607 28.4833 224.08 28.61L223.7 28.27L223.96 25.15H227.43V25.69H224.7L224.51 28.04C224.93 27.9267 225.34 27.87 225.74 27.87C226.38 27.87 226.91 28.05 227.33 28.41C227.75 28.77 227.96 29.29 227.96 29.97C227.96 30.6567 227.727 31.1833 227.26 31.55C226.8 31.9167 226.207 32.1 225.48 32.1ZM231.989 32.12C231.376 32.12 230.846 31.97 230.399 31.67C229.953 31.37 229.609 30.9533 229.369 30.42C229.136 29.88 229.019 29.2667 229.019 28.58C229.019 27.8933 229.136 27.2833 229.369 26.75C229.609 26.21 229.953 25.79 230.399 25.49C230.846 25.1833 231.376 25.03 231.989 25.03C232.603 25.03 233.133 25.1833 233.579 25.49C234.026 25.79 234.366 26.2067 234.599 26.74C234.833 27.2733 234.949 27.8867 234.949 28.58C234.949 29.2667 234.833 29.88 234.599 30.42C234.366 30.9533 234.026 31.37 233.579 31.67C233.133 31.97 232.603 32.12 231.989 32.12ZM231.979 31.58C232.426 31.58 232.809 31.4567 233.129 31.21C233.456 30.9567 233.706 30.6033 233.879 30.15C234.053 29.6967 234.139 29.1733 234.139 28.58C234.139 27.9867 234.053 27.4633 233.879 27.01C233.706 26.5567 233.456 26.2033 233.129 25.95C232.809 25.6967 232.426 25.57 231.979 25.57C231.539 25.57 231.156 25.6967 230.829 25.95C230.503 26.2033 230.253 26.5567 230.079 27.01C229.913 27.4633 229.829 27.9867 229.829 28.58C229.829 29.1733 229.913 29.6967 230.079 30.15C230.253 30.6033 230.503 30.9567 230.829 31.21C231.156 31.4567 231.539 31.58 231.979 31.58ZM237.519 28.33C237.079 28.33 236.726 28.1833 236.459 27.89C236.193 27.5967 236.059 27.1933 236.059 26.68C236.059 26.1733 236.193 25.7733 236.459 25.48C236.733 25.18 237.086 25.03 237.519 25.03C237.959 25.03 238.313 25.18 238.579 25.48C238.853 25.7733 238.989 26.1733 238.989 26.68C238.989 27.1933 238.853 27.5967 238.579 27.89C238.313 28.1833 237.959 28.33 237.519 28.33ZM236.879 31.7L241.579 25.03L242.169 25.41L237.449 32.07L236.879 31.7ZM237.519 27.82C237.759 27.82 237.956 27.7233 238.109 27.53C238.269 27.3367 238.349 27.0533 238.349 26.68C238.349 26.3067 238.269 26.0233 238.109 25.83C237.956 25.63 237.759 25.53 237.519 25.53C237.273 25.53 237.073 25.6267 236.919 25.82C236.766 26.0133 236.689 26.3 236.689 26.68C236.689 27.0533 236.766 27.3367 236.919 27.53C237.073 27.7233 237.273 27.82 237.519 27.82ZM241.519 32.12C241.079 32.12 240.726 31.9733 240.459 31.68C240.193 31.3867 240.059 30.9833 240.059 30.47C240.059 29.9633 240.193 29.5633 240.459 29.27C240.733 28.97 241.086 28.82 241.519 28.82C241.959 28.82 242.313 28.97 242.579 29.27C242.853 29.5633 242.989 29.9633 242.989 30.47C242.989 30.9833 242.853 31.3867 242.579 31.68C242.313 31.9733 241.959 32.12 241.519 32.12ZM241.519 31.61C241.759 31.61 241.956 31.5133 242.109 31.32C242.269 31.1267 242.349 30.8433 242.349 30.47C242.349 30.0967 242.269 29.8133 242.109 29.62C241.956 29.42 241.759 29.32 241.519 29.32C241.273 29.32 241.073 29.4167 240.919 29.61C240.766 29.8033 240.689 30.09 240.689 30.47C240.689 30.8433 240.766 31.1267 240.919 31.32C241.073 31.5133 241.273 31.61 241.519 31.61Z" fill="#939393"/>
<path d="M194.014 53.11C193.628 53.11 193.328 52.9967 193.114 52.77C192.908 52.5433 192.804 52.25 192.804 51.89V51.22C192.804 50.3667 193.344 49.8633 194.424 49.71L196.344 49.43V49.16C196.344 48.8533 196.238 48.6133 196.024 48.44C195.818 48.2667 195.524 48.18 195.144 48.18C194.731 48.18 194.234 48.2967 193.654 48.53C193.614 48.5433 193.551 48.5667 193.464 48.6C193.384 48.6333 193.321 48.65 193.274 48.65C193.208 48.65 193.144 48.6267 193.084 48.58C193.024 48.5267 192.994 48.4333 192.994 48.3C192.994 48.18 193.024 48.0867 193.084 48.02C193.151 47.9467 193.248 47.88 193.374 47.82C193.601 47.7067 193.898 47.6067 194.264 47.52C194.638 47.4267 194.971 47.38 195.264 47.38C196.031 47.38 196.624 47.5567 197.044 47.91C197.318 47.8033 197.601 47.6567 197.894 47.47C197.974 47.4167 198.038 47.38 198.084 47.36C198.138 47.34 198.194 47.33 198.254 47.33C198.388 47.33 198.491 47.37 198.564 47.45C198.638 47.5233 198.674 47.6167 198.674 47.73C198.674 48.0033 198.498 48.22 198.144 48.38C197.958 48.46 197.751 48.52 197.524 48.56C197.638 48.8267 197.694 49.13 197.694 49.47V52.64C197.694 52.76 197.641 52.86 197.534 52.94C197.428 53.0133 197.281 53.05 197.094 53.05C196.848 53.05 196.661 53 196.534 52.9C196.408 52.8 196.344 52.66 196.344 52.48V50.25L194.704 50.49C194.511 50.5167 194.368 50.5633 194.274 50.63C194.181 50.6967 194.134 50.8 194.134 50.94V51.03H194.214C194.514 51.0433 194.751 51.1467 194.924 51.34C195.098 51.5267 195.184 51.7633 195.184 52.05C195.184 52.37 195.071 52.6267 194.844 52.82C194.624 53.0133 194.348 53.11 194.014 53.11ZM194.034 52.51C194.154 52.51 194.254 52.4733 194.334 52.4C194.414 52.32 194.454 52.21 194.454 52.07C194.454 51.93 194.414 51.8233 194.334 51.75C194.254 51.67 194.154 51.63 194.034 51.63C193.908 51.63 193.804 51.6667 193.724 51.74C193.644 51.8133 193.604 51.9233 193.604 52.07C193.604 52.2167 193.644 52.3267 193.724 52.4C193.804 52.4733 193.908 52.51 194.034 52.51ZM193.044 46.16C193.171 45.7733 193.444 45.4533 193.864 45.2C194.284 44.94 194.781 44.81 195.354 44.81C195.534 44.81 195.731 44.8267 195.944 44.86V44.7C195.944 44.5267 196.034 44.44 196.214 44.44C196.334 44.44 196.428 44.4733 196.494 44.54C196.561 44.6 196.594 44.6833 196.594 44.79V45.06C196.734 45.1333 196.874 45.2167 197.014 45.31V44.7C197.014 44.5267 197.104 44.44 197.284 44.44C197.538 44.44 197.664 44.59 197.664 44.89V46.5C197.664 46.56 197.648 46.6067 197.614 46.64C197.581 46.6667 197.538 46.68 197.484 46.68H193.224C193.171 46.68 193.128 46.6667 193.094 46.64C193.061 46.6067 193.044 46.56 193.044 46.5V46.16ZM196.524 46.06C196.464 45.9067 196.328 45.7767 196.114 45.67C195.901 45.5633 195.648 45.51 195.354 45.51C195.061 45.51 194.808 45.5633 194.594 45.67C194.381 45.7767 194.244 45.9067 194.184 46.06H196.524ZM197.263 44.2C196.863 44.2 196.663 44.01 196.663 43.63V42.49C196.663 42.3633 196.703 42.26 196.783 42.18C196.863 42.1 196.98 42.06 197.133 42.06C197.346 42.06 197.5 42.11 197.593 42.21C197.68 42.3033 197.723 42.4433 197.723 42.63V43.77C197.723 43.8967 197.686 44 197.613 44.08C197.533 44.16 197.416 44.2 197.263 44.2ZM201.924 53.15C201.117 53.15 200.324 53.0267 199.544 52.78V50.87C199.544 50.4967 199.644 50.1967 199.844 49.97C200.051 49.7367 200.351 49.62 200.744 49.62C201.077 49.62 201.354 49.7167 201.574 49.91C201.801 50.1033 201.914 50.36 201.914 50.68C201.914 51 201.807 51.2533 201.594 51.44C201.381 51.6267 201.137 51.72 200.864 51.72H200.824C200.857 51.8733 200.874 52.0167 200.874 52.15V52.22C201.194 52.3067 201.544 52.35 201.924 52.35C202.384 52.35 202.731 52.1967 202.964 51.89C203.197 51.5833 203.314 51.06 203.314 50.32C203.314 48.8933 202.821 48.18 201.834 48.18C201.567 48.18 201.314 48.21 201.074 48.27C200.841 48.33 200.574 48.42 200.274 48.54C200.234 48.56 200.174 48.5867 200.094 48.62C200.021 48.6467 199.961 48.66 199.914 48.66C199.847 48.66 199.781 48.6367 199.714 48.59C199.654 48.5367 199.624 48.4433 199.624 48.31C199.624 48.1833 199.654 48.0867 199.714 48.02C199.781 47.9467 199.874 47.88 199.994 47.82C200.227 47.7067 200.524 47.6067 200.884 47.52C201.244 47.4267 201.591 47.38 201.924 47.38C202.771 47.38 203.441 47.6367 203.934 48.15C204.434 48.6567 204.684 49.38 204.684 50.32C204.684 51.2867 204.437 52 203.944 52.46C203.457 52.92 202.784 53.15 201.924 53.15ZM200.754 51.11C200.874 51.11 200.974 51.0733 201.054 51C201.134 50.92 201.174 50.81 201.174 50.67C201.174 50.53 201.134 50.4233 201.054 50.35C200.974 50.27 200.874 50.23 200.754 50.23C200.627 50.23 200.524 50.2667 200.444 50.34C200.364 50.4133 200.324 50.5233 200.324 50.67C200.324 50.8167 200.364 50.9267 200.444 51C200.524 51.0733 200.627 51.11 200.754 51.11ZM207.071 53.11C206.684 53.11 206.384 52.9967 206.171 52.77C205.964 52.5433 205.861 52.25 205.861 51.89V51.22C205.861 50.3667 206.401 49.8633 207.481 49.71L209.401 49.43V49.16C209.401 48.8533 209.294 48.6133 209.081 48.44C208.874 48.2667 208.581 48.18 208.201 48.18C207.788 48.18 207.291 48.2967 206.711 48.53C206.671 48.5433 206.608 48.5667 206.521 48.6C206.441 48.6333 206.378 48.65 206.331 48.65C206.264 48.65 206.201 48.6267 206.141 48.58C206.081 48.5267 206.051 48.4333 206.051 48.3C206.051 48.18 206.081 48.0867 206.141 48.02C206.208 47.9467 206.304 47.88 206.431 47.82C206.658 47.7067 206.954 47.6067 207.321 47.52C207.694 47.4267 208.028 47.38 208.321 47.38C209.088 47.38 209.681 47.5567 210.101 47.91C210.374 47.8033 210.658 47.6567 210.951 47.47C211.031 47.4167 211.094 47.38 211.141 47.36C211.194 47.34 211.251 47.33 211.311 47.33C211.444 47.33 211.548 47.37 211.621 47.45C211.694 47.5233 211.731 47.6167 211.731 47.73C211.731 48.0033 211.554 48.22 211.201 48.38C211.014 48.46 210.808 48.52 210.581 48.56C210.694 48.8267 210.751 49.13 210.751 49.47V52.64C210.751 52.76 210.698 52.86 210.591 52.94C210.484 53.0133 210.338 53.05 210.151 53.05C209.904 53.05 209.718 53 209.591 52.9C209.464 52.8 209.401 52.66 209.401 52.48V50.25L207.761 50.49C207.568 50.5167 207.424 50.5633 207.331 50.63C207.238 50.6967 207.191 50.8 207.191 50.94V51.03H207.271C207.571 51.0433 207.808 51.1467 207.981 51.34C208.154 51.5267 208.241 51.7633 208.241 52.05C208.241 52.37 208.128 52.6267 207.901 52.82C207.681 53.0133 207.404 53.11 207.071 53.11ZM207.091 52.51C207.211 52.51 207.311 52.4733 207.391 52.4C207.471 52.32 207.511 52.21 207.511 52.07C207.511 51.93 207.471 51.8233 207.391 51.75C207.311 51.67 207.211 51.63 207.091 51.63C206.964 51.63 206.861 51.6667 206.781 51.74C206.701 51.8133 206.661 51.9233 206.661 52.07C206.661 52.2167 206.701 52.3267 206.781 52.4C206.861 52.4733 206.964 52.51 207.091 52.51ZM206.281 46.68C206.228 46.68 206.184 46.6667 206.151 46.64C206.118 46.6067 206.101 46.56 206.101 46.5V46.16C206.228 45.7733 206.501 45.4533 206.921 45.2C207.341 44.94 207.838 44.81 208.411 44.81C208.984 44.81 209.481 44.94 209.901 45.2C210.321 45.4533 210.594 45.7733 210.721 46.16V46.5C210.721 46.56 210.704 46.6067 210.671 46.64C210.638 46.6667 210.594 46.68 210.541 46.68H206.281ZM209.581 46.06C209.521 45.9067 209.384 45.7767 209.171 45.67C208.958 45.5633 208.704 45.51 208.411 45.51C208.118 45.51 207.864 45.5633 207.651 45.67C207.438 45.7767 207.301 45.9067 207.241 46.06H209.581ZM210.32 44.2C209.92 44.2 209.72 44.01 209.72 43.63V42.49C209.72 42.3633 209.76 42.26 209.84 42.18C209.92 42.1 210.036 42.06 210.19 42.06C210.403 42.06 210.556 42.11 210.65 42.21C210.736 42.3033 210.78 42.4433 210.78 42.63V43.77C210.78 43.8967 210.743 44 210.67 44.08C210.59 44.16 210.473 44.2 210.32 44.2ZM214.801 53.15C214.547 53.15 214.281 53.1267 214.001 53.08C213.727 53.04 213.474 52.9767 213.241 52.89L212.071 50C212.037 49.9133 212.021 49.83 212.021 49.75C212.021 49.6033 212.081 49.4833 212.201 49.39C212.321 49.29 212.474 49.24 212.661 49.24C213.047 49.24 213.311 49.4133 213.451 49.76L214.481 52.31C214.581 52.3433 214.694 52.36 214.821 52.36C214.981 52.36 215.097 52.3233 215.171 52.25C215.251 52.1767 215.291 52.0533 215.291 51.88V50.1C215.291 49.8933 215.307 49.6967 215.341 49.51H215.301C215.027 49.51 214.784 49.4167 214.571 49.23C214.357 49.0433 214.251 48.79 214.251 48.47C214.251 48.15 214.361 47.8933 214.581 47.7C214.807 47.5067 215.087 47.41 215.421 47.41C215.814 47.41 216.114 47.5267 216.321 47.76C216.534 47.9867 216.641 48.2867 216.641 48.66V51.67C216.641 52.2167 216.471 52.6 216.131 52.82C215.797 53.04 215.354 53.15 214.801 53.15ZM215.411 48.9C215.537 48.9 215.641 48.8633 215.721 48.79C215.801 48.7167 215.841 48.6067 215.841 48.46C215.841 48.3133 215.801 48.2033 215.721 48.13C215.641 48.0567 215.537 48.02 215.411 48.02C215.291 48.02 215.191 48.06 215.111 48.14C215.031 48.2133 214.991 48.32 214.991 48.46C214.991 48.6 215.031 48.71 215.111 48.79C215.191 48.8633 215.291 48.9 215.411 48.9ZM218.249 53C218.176 53 218.113 52.9733 218.059 52.92C218.006 52.86 217.979 52.7767 217.979 52.67C217.979 52.5167 218.029 52.4 218.129 52.32C218.229 52.24 218.379 52.2 218.579 52.2H218.709V50.1C218.709 49.8933 218.726 49.6967 218.759 49.51H218.679C218.406 49.51 218.159 49.4167 217.939 49.23C217.726 49.0433 217.619 48.79 217.619 48.47C217.619 48.15 217.729 47.8933 217.949 47.7C218.176 47.5067 218.456 47.41 218.789 47.41C219.183 47.41 219.479 47.5267 219.679 47.76C219.886 47.9867 219.989 48.2867 219.989 48.66V50C219.989 50.5533 219.933 51.1533 219.819 51.8H219.879L221.189 47.68H221.639L222.949 51.8H223.009C222.896 51.1533 222.839 50.5533 222.839 50V47.88C222.839 47.7533 222.886 47.65 222.979 47.57C223.073 47.49 223.213 47.45 223.399 47.45C223.639 47.45 223.819 47.5 223.939 47.6C224.059 47.7 224.119 47.84 224.119 48.02V52.82C224.119 52.88 224.103 52.9267 224.069 52.96C224.036 52.9867 223.993 53 223.939 53H222.609C222.516 53 222.453 52.95 222.419 52.85L221.539 49.85C221.479 49.65 221.443 49.4033 221.429 49.11H221.379C221.366 49.4233 221.333 49.67 221.279 49.85L220.409 52.85C220.383 52.95 220.319 53 220.219 53H218.249ZM218.779 48.9C218.906 48.9 219.009 48.8633 219.089 48.79C219.169 48.7167 219.209 48.6067 219.209 48.46C219.209 48.3133 219.169 48.2033 219.089 48.13C219.009 48.0567 218.906 48.02 218.779 48.02C218.659 48.02 218.559 48.06 218.479 48.14C218.399 48.2133 218.359 48.32 218.359 48.46C218.359 48.6 218.399 48.71 218.479 48.79C218.559 48.8633 218.659 48.9 218.779 48.9ZM219.66 46.68C219.607 46.68 219.563 46.6667 219.53 46.64C219.497 46.6067 219.48 46.56 219.48 46.5V46.16C219.607 45.7733 219.88 45.4533 220.3 45.2C220.72 44.94 221.217 44.81 221.79 44.81C222.363 44.81 222.86 44.94 223.28 45.2C223.7 45.4533 223.973 45.7733 224.1 46.16V46.5C224.1 46.56 224.083 46.6067 224.05 46.64C224.017 46.6667 223.973 46.68 223.92 46.68H219.66ZM222.96 46.06C222.9 45.9067 222.763 45.7767 222.55 45.67C222.337 45.5633 222.083 45.51 221.79 45.51C221.497 45.51 221.243 45.5633 221.03 45.67C220.817 45.7767 220.68 45.9067 220.62 46.06H222.96ZM226.35 53.15C226.03 53.15 225.76 53.05 225.54 52.85C225.327 52.65 225.22 52.3933 225.22 52.08C225.22 51.8 225.3 51.5633 225.46 51.37C225.627 51.17 225.847 51.05 226.12 51.01C226.16 51.0033 226.213 51 226.28 51C226.24 50.9067 226.22 50.7733 226.22 50.6V49.86C226.22 49.7467 226.237 49.63 226.27 49.51H226.23C225.957 49.51 225.713 49.4167 225.5 49.23C225.287 49.0433 225.18 48.79 225.18 48.47C225.18 48.15 225.29 47.8933 225.51 47.7C225.737 47.5067 226.017 47.41 226.35 47.41C226.743 47.41 227.043 47.5267 227.25 47.76C227.463 47.9867 227.57 48.2867 227.57 48.66V51C227.57 51.1533 227.593 51.2633 227.64 51.33C227.693 51.39 227.787 51.4433 227.92 51.49L229.28 51.97C229.24 51.7967 229.22 51.52 229.22 51.14V47.88C229.22 47.76 229.27 47.66 229.37 47.58C229.477 47.4933 229.623 47.45 229.81 47.45C230.057 47.45 230.243 47.5 230.37 47.6C230.503 47.7 230.57 47.84 230.57 48.02V52.82C230.57 52.88 230.553 52.9267 230.52 52.96C230.487 52.9867 230.443 53 230.39 53H229.79L228.13 52.42C227.917 52.3467 227.703 52.25 227.49 52.13C227.49 52.19 227.483 52.2533 227.47 52.32C227.423 52.5667 227.293 52.7667 227.08 52.92C226.873 53.0733 226.63 53.15 226.35 53.15ZM226.34 48.9C226.467 48.9 226.57 48.8633 226.65 48.79C226.73 48.7167 226.77 48.6067 226.77 48.46C226.77 48.3133 226.73 48.2033 226.65 48.13C226.57 48.0567 226.467 48.02 226.34 48.02C226.22 48.02 226.12 48.06 226.04 48.14C225.96 48.2133 225.92 48.32 225.92 48.46C225.92 48.6 225.96 48.71 226.04 48.79C226.12 48.8633 226.22 48.9 226.34 48.9ZM226.37 52.54C226.497 52.54 226.603 52.5 226.69 52.42C226.777 52.34 226.82 52.2267 226.82 52.08C226.82 51.9333 226.777 51.82 226.69 51.74C226.603 51.6533 226.497 51.61 226.37 51.61C226.25 51.61 226.143 51.6533 226.05 51.74C225.963 51.82 225.92 51.9333 225.92 52.08C225.92 52.22 225.963 52.3333 226.05 52.42C226.143 52.5 226.25 52.54 226.37 52.54ZM232.175 53C232.102 53 232.039 52.9733 231.985 52.92C231.932 52.86 231.905 52.7767 231.905 52.67C231.905 52.5167 231.955 52.4 232.055 52.32C232.155 52.24 232.305 52.2 232.505 52.2H232.635V50.1C232.635 49.8933 232.652 49.6967 232.685 49.51H232.605C232.332 49.51 232.085 49.4167 231.865 49.23C231.652 49.0433 231.545 48.79 231.545 48.47C231.545 48.15 231.655 47.8933 231.875 47.7C232.102 47.5067 232.382 47.41 232.715 47.41C233.109 47.41 233.405 47.5267 233.605 47.76C233.812 47.9867 233.915 48.2867 233.915 48.66V50C233.915 50.5533 233.859 51.1533 233.745 51.8H233.805L235.115 47.68H235.565L236.875 51.8H236.935C236.822 51.1533 236.765 50.5533 236.765 50V47.88C236.765 47.7533 236.812 47.65 236.905 47.57C236.999 47.49 237.139 47.45 237.325 47.45C237.565 47.45 237.745 47.5 237.865 47.6C237.985 47.7 238.045 47.84 238.045 48.02V52.82C238.045 52.88 238.029 52.9267 237.995 52.96C237.962 52.9867 237.919 53 237.865 53H236.535C236.442 53 236.379 52.95 236.345 52.85L235.465 49.85C235.405 49.65 235.369 49.4033 235.355 49.11H235.305C235.292 49.4233 235.259 49.67 235.205 49.85L234.335 52.85C234.309 52.95 234.245 53 234.145 53H232.175ZM232.705 48.9C232.832 48.9 232.935 48.8633 233.015 48.79C233.095 48.7167 233.135 48.6067 233.135 48.46C233.135 48.3133 233.095 48.2033 233.015 48.13C232.935 48.0567 232.832 48.02 232.705 48.02C232.585 48.02 232.485 48.06 232.405 48.14C232.325 48.2133 232.285 48.32 232.285 48.46C232.285 48.6 232.325 48.71 232.405 48.79C232.485 48.8633 232.585 48.9 232.705 48.9ZM236.136 46.73C235.862 46.73 235.636 46.6467 235.456 46.48C235.269 46.3067 235.176 46.0733 235.176 45.78C235.176 45.4933 235.279 45.2667 235.486 45.1C235.692 44.9267 235.952 44.84 236.266 44.84H238.356C238.449 44.84 238.526 44.88 238.586 44.96C238.646 45.0333 238.676 45.1333 238.676 45.26C238.676 45.6467 238.539 45.84 238.266 45.84H237.246C237.132 45.84 237.042 45.8033 236.976 45.73L236.946 45.75C236.972 45.8433 236.986 45.9133 236.986 45.96C236.986 46.1933 236.902 46.38 236.736 46.52C236.562 46.66 236.362 46.73 236.136 46.73ZM236.136 46.21C236.236 46.21 236.319 46.1767 236.386 46.11C236.452 46.0433 236.486 45.9533 236.486 45.84C236.486 45.7333 236.456 45.65 236.396 45.59C236.329 45.5233 236.242 45.49 236.136 45.49C236.036 45.49 235.952 45.5233 235.886 45.59C235.819 45.65 235.786 45.7333 235.786 45.84C235.786 45.9533 235.819 46.0433 235.886 46.11C235.946 46.1767 236.029 46.21 236.136 46.21Z" fill="#939393"/>
<path d="M242.71 53C242.657 53 242.613 52.98 242.58 52.94C242.553 52.9 242.54 52.8467 242.54 52.78C242.54 52.6867 242.573 52.6167 242.64 52.57C242.707 52.5167 242.797 52.49 242.91 52.49H243.78V46.68L242.79 46.98C242.737 46.98 242.69 46.9633 242.65 46.93C242.617 46.89 242.6 46.8367 242.6 46.77C242.6 46.6033 242.707 46.4867 242.92 46.42L243.79 46.15H244.58V52.5L245.39 52.6C245.61 52.6267 245.72 52.71 245.72 52.85C245.72 52.95 245.68 53 245.6 53H242.71ZM246.8 52.3L249.19 49.86C249.577 49.4733 249.874 49.12 250.08 48.8C250.287 48.48 250.39 48.1533 250.39 47.82C250.39 47.4133 250.267 47.11 250.02 46.91C249.774 46.7033 249.457 46.6 249.07 46.6C248.797 46.6 248.53 46.6367 248.27 46.71C248.01 46.7833 247.777 46.8833 247.57 47.01L247.43 47.65C247.397 47.81 247.357 47.92 247.31 47.98C247.264 48.04 247.2 48.07 247.12 48.07C247.074 48.07 247.037 48.0567 247.01 48.03C246.984 47.9967 246.97 47.96 246.97 47.92V46.74C247.29 46.5267 247.644 46.36 248.03 46.24C248.417 46.1133 248.804 46.05 249.19 46.05C249.804 46.05 250.294 46.2067 250.66 46.52C251.034 46.8267 251.22 47.2767 251.22 47.87C251.22 48.27 251.094 48.67 250.84 49.07C250.594 49.4633 250.224 49.9133 249.73 50.42L247.75 52.42V52.46H251.35V53H246.8V52.3ZM253.97 49.33C253.53 49.33 253.177 49.1833 252.91 48.89C252.644 48.5967 252.51 48.1933 252.51 47.68C252.51 47.1733 252.644 46.7733 252.91 46.48C253.184 46.18 253.537 46.03 253.97 46.03C254.41 46.03 254.764 46.18 255.03 46.48C255.304 46.7733 255.44 47.1733 255.44 47.68C255.44 48.1933 255.304 48.5967 255.03 48.89C254.764 49.1833 254.41 49.33 253.97 49.33ZM253.33 52.7L258.03 46.03L258.62 46.41L253.9 53.07L253.33 52.7ZM253.97 48.82C254.21 48.82 254.407 48.7233 254.56 48.53C254.72 48.3367 254.8 48.0533 254.8 47.68C254.8 47.3067 254.72 47.0233 254.56 46.83C254.407 46.63 254.21 46.53 253.97 46.53C253.724 46.53 253.524 46.6267 253.37 46.82C253.217 47.0133 253.14 47.3 253.14 47.68C253.14 48.0533 253.217 48.3367 253.37 48.53C253.524 48.7233 253.724 48.82 253.97 48.82ZM257.97 53.12C257.53 53.12 257.177 52.9733 256.91 52.68C256.644 52.3867 256.51 51.9833 256.51 51.47C256.51 50.9633 256.644 50.5633 256.91 50.27C257.184 49.97 257.537 49.82 257.97 49.82C258.41 49.82 258.764 49.97 259.03 50.27C259.304 50.5633 259.44 50.9633 259.44 51.47C259.44 51.9833 259.304 52.3867 259.03 52.68C258.764 52.9733 258.41 53.12 257.97 53.12ZM257.97 52.61C258.21 52.61 258.407 52.5133 258.56 52.32C258.72 52.1267 258.8 51.8433 258.8 51.47C258.8 51.0967 258.72 50.8133 258.56 50.62C258.407 50.42 258.21 50.32 257.97 50.32C257.724 50.32 257.524 50.4167 257.37 50.61C257.217 50.8033 257.14 51.09 257.14 51.47C257.14 51.8433 257.217 52.1267 257.37 52.32C257.524 52.5133 257.724 52.61 257.97 52.61Z" fill="#939393"/>
<rect x="153" y="19" width="10" height="88" fill="#5773DC"/>
<rect x="172" y="38" width="10" height="50" fill="#C5C4C4"/>
<rect x="192" y="57" width="10" height="12" fill="#C5C4C4"/>
<path d="M51 55L28 64L51 73" stroke="#5773DC" stroke-width="2" stroke-linejoin="round"/>
<path d="M51 54L128 21" stroke="#5773DC" stroke-width="2" stroke-linejoin="round" stroke-dasharray="4 4"/>
<path d="M51 74L128 107" stroke="#5773DC" stroke-width="2" stroke-linejoin="round" stroke-dasharray="4 4"/>
<path d="M52 63.5C52 65.2043 51.7326 66.7021 51.3344 67.7372C51.1341 68.2581 50.92 68.6111 50.7333 68.8164C50.602 68.9607 50.5234 68.9928 50.5 68.9992C50.4766 68.9928 50.398 68.9607 50.2667 68.8164C50.08 68.6111 49.8659 68.2581 49.6656 67.7372C49.2674 66.7021 49 65.2043 49 63.5C49 61.7957 49.2674 60.2979 49.6656 59.2628C49.8659 58.7419 50.08 58.3889 50.2667 58.1836C50.398 58.0393 50.4766 58.0072 50.5 58.0008C50.5234 58.0072 50.602 58.0393 50.7333 58.1836C50.92 58.3889 51.1341 58.7419 51.3344 59.2628C51.7326 60.2979 52 61.7957 52 63.5ZM50.4926 69.0006C50.4926 69.0005 50.4938 69.0002 50.4964 69.0001C50.4938 69.0006 50.4926 69.0007 50.4926 69.0006ZM50.5036 69.0001C50.5062 69.0002 50.5074 69.0005 50.5074 69.0006C50.5074 69.0007 50.5061 69.0006 50.5036 69.0001ZM50.5074 57.9994C50.5074 57.9995 50.5062 57.9998 50.5036 57.9999C50.5061 57.9994 50.5074 57.9993 50.5074 57.9994ZM50.4964 57.9999C50.4938 57.9998 50.4926 57.9995 50.4926 57.9994C50.4926 57.9993 50.4938 57.9994 50.4964 57.9999Z" stroke="#5773DC" stroke-width="2"/>
<path d="M49.5 33L59.6871 52.5813C60.4715 54.089 60.4363 55.8918 59.5938 57.3678L57.7599 60.5802C56.7601 62.3316 56.9103 64.5122 58.1408 66.1099L70.8211 82.5741C72.8879 85.2576 71.7446 89.1763 68.5591 90.3275L65.4993 91.4331C62.961 92.3503 61.6087 95.1165 62.444 97.683L64.5 104" stroke="#5773DC" stroke-width="2"/>
</svg>
