<svg width="25" height="30" viewBox="0 0 25 30" fill="none" xmlns="http://www.w3.org/2000/svg">
<path d="M12.8526 0.821568C10.7732 0.802002 8.82123 1.52405 7.36403 2.96243L2.12286 7.98771C1.21325 8.82566 1.23142 10.3752 2.11917 11.2146C2.7195 11.8236 3.59089 12.0263 4.34585 11.9118L4.28036 11.8913C3.35074 12.7932 3.38892 14.2788 4.27668 15.1182C4.877 15.7272 5.74839 15.9299 6.50336 15.8154C5.57374 16.7173 5.61192 18.2029 6.49967 19.0423C7.1 19.6513 7.97139 19.854 8.66086 19.719L2.97762 25.2374C2.49007 25.6462 2.28995 26.2852 2.30631 26.9219C2.25718 27.5381 2.57553 28.129 2.95392 28.5282C3.82166 29.4315 5.40254 29.4353 6.24666 28.5769L17.1711 18.0332C17.2766 17.9259 17.3421 17.9464 17.5385 18.0079C17.735 18.0694 17.715 18.1333 17.7205 18.3456L17.7623 21.6568C17.7695 22.7819 18.5518 23.7286 19.6851 24.0133C20.36 24.1545 20.984 23.999 21.6025 23.6313C22.1556 23.2431 22.4867 22.645 22.5558 21.9649L23.4892 12.7837C23.7257 10.1912 22.7944 7.65398 20.9934 5.82689L18.3501 3.24483C16.9021 1.6686 14.9319 0.841134 12.8526 0.821568Z" fill="#FFF8B5" stroke="black" stroke-linejoin="round"/>
</svg>
