<svg width="140" height="40" viewBox="0 0 140 40" fill="none" xmlns="http://www.w3.org/2000/svg">
<path d="M61.9526 17.579C61.9526 9.07957 64.6029 4.31988 71.5261 4.31988C73.485 4.29089 75.4195 4.75593 77.1512 5.67207L76.4403 10.4163C74.9601 9.78934 73.3729 9.45354 71.7656 9.42728C69.4476 9.42728 68.1263 10.2618 68.1263 15.4001V19.5494C68.1263 25.1281 69.548 26.1944 71.7656 26.1944C73.3806 26.1169 74.9538 25.6561 76.3553 24.8499L77.5066 29.3624C75.648 30.4571 73.5287 31.031 71.3716 31.0236C64.5643 30.9927 61.9526 25.9317 61.9526 17.579Z" fill="black"/>
<path d="M111.304 0L112.439 4.51244V21.0477C111.601 21.4456 110.678 21.6364 109.751 21.6041C108.089 21.6041 107.371 20.6537 107.371 18.3202V0H100.347L101.475 4.51244V16.9294C101.475 24.0535 104.682 26.2015 108.244 26.2015C109.339 26.2301 110.429 26.041 111.45 25.6452L112.996 23.0722L114.217 25.7302H118.335V0H111.304Z" fill="black"/>
<path d="M31.0069 4.76001L32.1427 9.27244V25.8077C31.3038 26.2056 30.3817 26.3964 29.4538 26.3641C27.7925 26.3641 27.0739 25.4137 27.0739 23.0802V4.76001H20.0503L21.1861 9.27244V21.6971C21.1861 28.8135 24.3927 30.9692 27.9548 30.9692C29.049 30.9945 30.1378 30.8083 31.1614 30.4206L32.7068 27.8476L33.9276 30.4979H38.046V4.76001H31.0069Z" fill="black"/>
<path d="M49.3348 30.5149L48.2299 25.9947V9.45939C49.0719 9.06257 49.9962 8.87187 50.9265 8.90306C52.5878 8.90306 53.2986 9.85345 53.2986 12.1869V30.5149H60.33L59.1942 25.9947V13.5778C59.1942 6.45366 55.9875 4.30562 52.4255 4.30562C51.3304 4.27801 50.2407 4.46707 49.2189 4.86195L47.6735 7.43497L46.445 4.78468H42.3266V30.5458L49.3348 30.5149Z" fill="black"/>
<path d="M130.396 0H121.472L122.608 4.51244V21.2409L121.472 25.7302H128.503V18.2352H130.443C135.936 18.2352 139.104 15.469 139.104 9.14078C139.104 2.81255 135.936 0 130.396 0ZM132.969 10.323C132.969 13.1355 132.259 13.9237 130.242 13.9237H128.457V4.70561H130.134C132.189 4.70561 132.938 5.41647 132.938 8.15175L132.969 10.323Z" fill="black"/>
<path d="M9.82778 4.76001H0.89563L2.03147 9.27244V26.0009L0.89563 30.5211H7.927V23.0029H9.86643C15.3679 23.0029 18.5281 20.229 18.5281 13.9008C18.5281 7.57256 15.3679 4.76001 9.82778 4.76001ZM12.4008 15.083C12.4008 17.8955 11.6822 18.6837 9.66552 18.6837H7.88838V9.50425H9.59599C11.6513 9.50425 12.4085 10.2151 12.4085 12.9504L12.4008 15.083Z" fill="black"/>
<path d="M97.2099 9.28017L98.3457 4.76001H90.2172L91.353 9.28017V15.0134H86.0911V9.28017L87.2269 4.76001H79.0597L80.1955 9.28017V26.0086L79.0597 30.5211H87.2269L86.0911 26.0086V19.7577H91.353V26.0086L90.2172 30.5211H98.3457L97.2099 26.0086V9.28017Z" fill="black"/>
<path d="M98.3457 35.2634H0.89563V39.9999H98.3457V35.2634Z" fill="black"/>
<path d="M138.409 30.5132H98.3457V35.2651H138.409V30.5132Z" fill="black"/>
</svg>
