<svg width="32" height="22" viewBox="0 0 32 22" fill="none" xmlns="http://www.w3.org/2000/svg">
<g clip-path="url(#clip0_490_37774)">
<path d="M18.921 20.6396C20.1661 20.1271 21.1483 19.2045 21.6549 17.9794L23.5142 13.6612C23.8455 12.9322 23.4441 12.0126 22.7031 11.7358C22.1916 11.5238 21.6208 11.6226 21.1993 11.8811L21.2436 11.8769C21.5707 11.1047 21.1735 10.2283 20.4325 9.95139C19.9209 9.73946 19.3501 9.83819 18.9287 10.0967C19.2558 9.32456 18.8586 8.44815 18.1176 8.17128C17.606 7.95935 17.0352 8.05809 16.6581 8.31236L18.6567 3.58868C18.8445 3.22204 18.8028 2.79045 18.6326 2.41484C18.5066 2.03496 18.1678 1.76277 17.8415 1.62006C17.0963 1.30003 16.1525 1.6962 15.8654 2.42095L12.0074 11.4628C11.9715 11.5534 11.9272 11.5576 11.7946 11.5705C11.6619 11.5833 11.6577 11.5401 11.601 11.4149L10.7415 9.45057C10.4536 8.7814 9.74842 8.41394 9.00071 8.52978C8.5626 8.61569 8.22963 8.86569 7.9534 9.24089C7.72141 9.61181 7.67467 10.0519 7.80484 10.475L9.5622 16.186C10.0746 17.7919 11.2695 19.0704 12.8042 19.7061L15.0314 20.5799C16.2923 21.155 17.6759 21.152 18.921 20.6396Z" fill="#FFF8B5" stroke="black" stroke-linejoin="round"/>
<path d="M31.3536 4.03641C31.5488 3.84115 31.5488 3.52457 31.3536 3.32931L28.1716 0.147327C27.9763 -0.0479349 27.6597 -0.0479349 27.4645 0.147327C27.2692 0.342589 27.2692 0.659172 27.4645 0.854434L30.2929 3.68286L27.4645 6.51129C27.2692 6.70655 27.2692 7.02313 27.4645 7.2184C27.6597 7.41366 27.9763 7.41366 28.1716 7.2184L31.3536 4.03641ZM21 4.18286L31 4.18286L31 3.18286L21 3.18286L21 4.18286Z" fill="black"/>
<path d="M0.646447 3.32955C0.451185 3.52481 0.451185 3.8414 0.646447 4.03666L3.82843 7.21864C4.02369 7.4139 4.34027 7.4139 4.53553 7.21864C4.7308 7.02338 4.7308 6.70679 4.53553 6.51153L1.70711 3.68311L4.53553 0.854678C4.7308 0.659416 4.7308 0.342833 4.53553 0.147571C4.34027 -0.0476909 4.02369 -0.0476909 3.82843 0.147571L0.646447 3.32955ZM11 3.18311L1 3.18311L1 4.18311L11 4.18311L11 3.18311Z" fill="black"/>
</g>
<defs>
<clipPath id="clip0_490_37774">
<rect width="22" height="32" fill="white" transform="translate(32) rotate(90)"/>
</clipPath>
</defs>
</svg>
