<svg width="20" height="20" viewBox="0 0 20 20" fill="none" xmlns="http://www.w3.org/2000/svg">
<path d="M13.8112 2.02134C12.8967 1.80767 11.9652 1.9334 11.1812 2.42363L8.37568 4.12155C7.89216 4.40115 7.74737 5.08586 8.05585 5.54334C8.26037 5.87096 8.62442 6.04622 8.96844 6.07023L8.9416 6.05473C8.44296 6.36053 8.31328 7.01904 8.62176 7.47652C8.82628 7.80414 9.19034 7.9794 9.53436 8.00341C9.03572 8.30921 8.90604 8.96772 9.21452 9.4252C9.41904 9.75282 9.7831 9.92808 10.1003 9.93659L7.05133 11.8083C6.79615 11.9403 6.64493 12.2022 6.58935 12.4844C6.50694 12.7512 6.58897 13.043 6.71637 13.2562C7.00973 13.7399 7.70609 13.8975 8.16277 13.6024L14.0172 10.0328C14.0743 9.99593 14.1011 10.0114 14.1816 10.0579C14.2622 10.1044 14.2471 10.1306 14.2285 10.2247L13.9204 11.6881C13.8127 12.1847 14.0641 12.6791 14.5355 12.9163C14.819 13.0451 15.1093 13.0381 15.4182 12.9371C15.7002 12.8205 15.9051 12.5896 16.0027 12.2967L17.3194 8.34231C17.6793 7.22304 17.5191 6.01297 16.9055 5.03012L15.9952 3.63148C15.5124 2.79399 14.7257 2.23502 13.8112 2.02134Z" fill="#FFF8B5" stroke="#717070" stroke-width="0.451624" stroke-linejoin="round"/>
<line x1="6.32253" y1="9.48401" x2="6.32253" y2="6.32264" stroke="#717070" stroke-width="0.451624"/>
<line x1="6.32253" y1="19.4197" x2="6.32253" y2="16.2583" stroke="#717070" stroke-width="0.451624"/>
<line y1="12.6453" x2="3.16137" y2="12.6453" stroke="#717070" stroke-width="0.451624"/>
<line x1="9.10352" y1="15.1066" x2="11.3389" y2="17.342" stroke="#717070" stroke-width="0.451624"/>
<line x1="2.07764" y1="8.08105" x2="4.31307" y2="10.3165" stroke="#717070" stroke-width="0.451624"/>
<line x1="4.31299" y1="15.4259" x2="2.07757" y2="17.6613" stroke="#717070" stroke-width="0.451624"/>
</svg>
