<svg width="102" height="89" viewBox="0 0 102 89" fill="none" xmlns="http://www.w3.org/2000/svg">
<path d="M24 35.5L1 44.5L24 53.5" stroke="#5773DC" stroke-width="2" stroke-linejoin="round"/>
<path d="M24 34.5L101 1.5" stroke="#5773DC" stroke-width="2" stroke-linejoin="round" stroke-dasharray="4 4"/>
<path d="M24 54.5L101 87.5" stroke="#5773DC" stroke-width="2" stroke-linejoin="round" stroke-dasharray="4 4"/>
<path d="M25 44C25 45.7043 24.7326 47.2021 24.3344 48.2372C24.1341 48.7581 23.92 49.1111 23.7333 49.3164C23.602 49.4607 23.5234 49.4928 23.5 49.4992C23.4766 49.4928 23.398 49.4607 23.2667 49.3164C23.08 49.1111 22.8659 48.7581 22.6656 48.2372C22.2674 47.2021 22 45.7043 22 44C22 42.2957 22.2674 40.7979 22.6656 39.7628C22.8659 39.2419 23.08 38.8889 23.2667 38.6836C23.398 38.5393 23.4766 38.5072 23.5 38.5008C23.5234 38.5072 23.602 38.5393 23.7333 38.6836C23.92 38.8889 24.1341 39.2419 24.3344 39.7628C24.7326 40.7979 25 42.2957 25 44ZM23.4926 49.5006C23.4926 49.5005 23.4938 49.5002 23.4964 49.5001C23.4938 49.5006 23.4926 49.5007 23.4926 49.5006ZM23.5036 49.5001C23.5062 49.5002 23.5074 49.5005 23.5074 49.5006C23.5074 49.5007 23.5061 49.5006 23.5036 49.5001ZM23.5074 38.4994C23.5074 38.4995 23.5062 38.4998 23.5036 38.4999C23.5061 38.4994 23.5074 38.4993 23.5074 38.4994ZM23.4964 38.4999C23.4938 38.4998 23.4926 38.4995 23.4926 38.4994C23.4926 38.4993 23.4938 38.4994 23.4964 38.4999Z" stroke="#5773DC" stroke-width="2"/>
<path d="M22.5 13.5L32.6871 33.0813C33.4715 34.589 33.4363 36.3918 32.5938 37.8678L30.7599 41.0802C29.7601 42.8316 29.9103 45.0122 31.1408 46.6099L43.8211 63.0741C45.8879 65.7576 44.7446 69.6763 41.5591 70.8275L38.4993 71.9331C35.961 72.8503 34.6087 75.6165 35.444 78.183L37.5 84.5" stroke="#5773DC" stroke-width="2"/>
</svg>
